<svg xmlns="http://www.w3.org/2000/svg" width="272.513" height="68.885" viewBox="0 0 272.513 68.885">
  <g id="logo-ingenie-blog" transform="translate(0 0)">
    <path id="Path_1641" data-name="Path 1641" d="M9.327,18.306a3.305,3.305,0,0,1,.876-2.463,3.416,3.416,0,0,1,2.5-.863,3.343,3.343,0,0,1,2.45.863,3.305,3.305,0,0,1,.876,2.463,3.243,3.243,0,0,1-.876,2.4,3.313,3.313,0,0,1-2.45.876,3.384,3.384,0,0,1-2.5-.876A3.243,3.243,0,0,1,9.327,18.306Zm6.322,35.522H9.683V25.746h5.966Zm30.117,0H39.773V36.562a7.565,7.565,0,0,0-1.307-4.85,5.057,5.057,0,0,0-4.152-1.6q-3.783,0-5.535,2.234t-1.752,7.49V53.828H21.061V25.746h4.671l.838,3.681h.305a8.307,8.307,0,0,1,3.6-3.1,12.084,12.084,0,0,1,5.18-1.092q10.105,0,10.106,10.283Zm28.9-28.082v3.275l-4.8.889a7.749,7.749,0,0,1,1.092,2.183,8.614,8.614,0,0,1,.432,2.742,8.4,8.4,0,0,1-3,6.831q-3,2.489-8.252,2.488a13.418,13.418,0,0,1-2.438-.2,3.363,3.363,0,0,0-1.93,2.793,1.552,1.552,0,0,0,.9,1.447,7.785,7.785,0,0,0,3.313.482h4.9q4.646,0,7.058,1.981a6.966,6.966,0,0,1,2.412,5.713,8.309,8.309,0,0,1-3.935,7.363q-3.936,2.591-11.375,2.59-5.739,0-8.76-2.031A6.566,6.566,0,0,1,47.267,58.5,6.159,6.159,0,0,1,48.9,54.145a8.777,8.777,0,0,1,4.583-2.45,4.477,4.477,0,0,1-1.967-1.638,4.128,4.128,0,0,1-.775-2.374,4.085,4.085,0,0,1,.889-2.666,10.259,10.259,0,0,1,2.64-2.158,7.818,7.818,0,0,1-3.542-3.06,9,9,0,0,1-1.358-4.964,8.9,8.9,0,0,1,2.882-7.084q2.881-2.512,8.214-2.513a20.009,20.009,0,0,1,2.5.165,15.641,15.641,0,0,1,1.967.343ZM52.6,58.195a3.282,3.282,0,0,0,1.739,2.971,9.567,9.567,0,0,0,4.888,1.041q4.875,0,7.261-1.4A4.187,4.187,0,0,0,68.874,57.1a2.782,2.782,0,0,0-1.308-2.6q-1.308-.774-4.862-.774H58.185a6.352,6.352,0,0,0-4.076,1.206A3.955,3.955,0,0,0,52.6,58.195Zm2.564-23.36A5.654,5.654,0,0,0,56.521,38.9a5.138,5.138,0,0,0,3.9,1.422q5.18,0,5.18-5.535a6.279,6.279,0,0,0-1.283-4.228,4.872,4.872,0,0,0-3.9-1.485A5.025,5.025,0,0,0,56.5,30.544,6.191,6.191,0,0,0,55.163,34.835Zm33.849,19.5q-6.551,0-10.245-3.821T75.073,39.99q0-6.881,3.427-10.817a11.842,11.842,0,0,1,9.42-3.935,11.575,11.575,0,0,1,8.786,3.377q3.224,3.376,3.224,9.293v3.224H81.217a9.226,9.226,0,0,0,2.209,6.285,7.7,7.7,0,0,0,5.866,2.2,21.593,21.593,0,0,0,4.633-.47,24.279,24.279,0,0,0,4.609-1.561v4.849A18.344,18.344,0,0,1,94.116,53.9,27.164,27.164,0,0,1,89.012,54.335ZM87.92,29.757a5.992,5.992,0,0,0-4.557,1.8,8.59,8.59,0,0,0-2.044,5.256H94.065a7.778,7.778,0,0,0-1.676-5.269A5.733,5.733,0,0,0,87.92,29.757Zm40.374,24.071H122.3V36.562A7.565,7.565,0,0,0,121,31.712a5.057,5.057,0,0,0-4.152-1.6q-3.783,0-5.535,2.234t-1.752,7.49V53.828h-5.967V25.746h4.672l.838,3.681h.305a8.307,8.307,0,0,1,3.605-3.1,12.081,12.081,0,0,1,5.18-1.092q10.105,0,10.105,10.283Zm4.828-35.522A3.305,3.305,0,0,1,134,15.843a3.414,3.414,0,0,1,2.5-.863,3.343,3.343,0,0,1,2.45.863,3.305,3.305,0,0,1,.876,2.463,3.243,3.243,0,0,1-.876,2.4,3.313,3.313,0,0,1-2.45.876,3.383,3.383,0,0,1-2.5-.876A3.243,3.243,0,0,1,133.122,18.306Zm6.322,35.522h-5.967V25.746h5.967Zm17.675.507q-6.551,0-10.245-3.821T143.179,39.99q0-6.881,3.428-10.817a11.84,11.84,0,0,1,9.42-3.935,11.573,11.573,0,0,1,8.785,3.377q3.224,3.376,3.225,9.293v3.224H149.324a9.221,9.221,0,0,0,2.209,6.285,7.691,7.691,0,0,0,5.865,2.2,21.58,21.58,0,0,0,4.633-.47,24.287,24.287,0,0,0,4.61-1.561v4.849a18.374,18.374,0,0,1-4.418,1.473A27.18,27.18,0,0,1,157.119,54.335Zm-1.092-24.578a5.994,5.994,0,0,0-4.558,1.8,8.6,8.6,0,0,0-2.044,5.256h12.747a7.788,7.788,0,0,0-1.676-5.269A5.735,5.735,0,0,0,156.027,29.757Zm27.35-6.67a26.991,26.991,0,0,1-2.919,4.454q-1.282,1.485-2.089,1.484-1.105,0-1.106-2.541a13.046,13.046,0,0,1,.7-4.429,11.428,11.428,0,0,1,1.975-3.485,12.165,12.165,0,0,1,3.02-2.592,18.5,18.5,0,0,1,3.825-1.761,24.777,24.777,0,0,1,4.391-1.019,33.82,33.82,0,0,1,4.756-.327,39.812,39.812,0,0,1,5.712.415,41.917,41.917,0,0,1,5.511,1.17,33.178,33.178,0,0,1,4.932,1.824,21.683,21.683,0,0,1,3.988,2.366,11.145,11.145,0,0,1,2.668,2.805,5.742,5.742,0,0,1,.969,3.146,9.274,9.274,0,0,1-.844,3.824,9.6,9.6,0,0,1-2.641,3.41,14.429,14.429,0,0,1-4.606,2.5,21.742,21.742,0,0,1-6.731,1.057,11.035,11.035,0,0,1,4.353.793,9.053,9.053,0,0,1,3.12,2.139,8.873,8.873,0,0,1,1.888,3.107,10.926,10.926,0,0,1,.629,3.7,12.7,12.7,0,0,1-.428,3.221,13.071,13.071,0,0,1-1.283,3.146,13.879,13.879,0,0,1-2.139,2.831,13.409,13.409,0,0,1-3.007,2.3,16,16,0,0,1-3.888,1.548,18.8,18.8,0,0,1-4.756.566,29.568,29.568,0,0,1-3.447-.214q-1.812-.214-3.662-.579t-3.635-.868q-1.788-.5-3.372-1.082a4.052,4.052,0,0,1-1.246-.528,1.388,1.388,0,0,1-.541-1.259q0-4.176.213-8.555a80.611,80.611,0,0,1,.869-8.556,51.336,51.336,0,0,1,1.887-7.964,26.59,26.59,0,0,1,3.272-6.782,5.877,5.877,0,0,1,3.246-1.233,3.573,3.573,0,0,1,3.069,2.064,17.065,17.065,0,0,0-1.975,3.472,29.105,29.105,0,0,0-1.372,4.014,42.456,42.456,0,0,0-.893,4.29q-.341,2.19-.541,4.278-.126,1.183-.214,2.516t-.163,2.718q-.077,1.384-.113,2.755t-.038,2.63c0,.135,0,.319.012.554s.03.478.064.73a3.958,3.958,0,0,0,.15.691.913.913,0,0,0,.3.466,28.452,28.452,0,0,0,3.3.856,17.9,17.9,0,0,0,3.522.352,16.663,16.663,0,0,0,4.153-.516,10.557,10.557,0,0,0,3.573-1.636,8.357,8.357,0,0,0,2.5-2.868,8.822,8.822,0,0,0,.943-4.24,4.831,4.831,0,0,0-.554-2.429,5.186,5.186,0,0,0-1.446-1.623,7.548,7.548,0,0,0-2.038-1.044q-1.146-.39-2.341-.7l-2.34-.616a9.819,9.819,0,0,1-2.038-.768,4.447,4.447,0,0,1-1.447-1.157,2.793,2.793,0,0,1-.554-1.8,5.833,5.833,0,0,1,.063-.918,1.17,1.17,0,0,1,.3-.642,1.483,1.483,0,0,1,.7-.377,5.059,5.059,0,0,1,1.27-.126q1.083,0,1.976.088t1.925.088a15.025,15.025,0,0,0,4.366-.591,10.913,10.913,0,0,0,3.321-1.6,7.268,7.268,0,0,0,2.114-2.353,5.883,5.883,0,0,0,.742-2.881,3.2,3.2,0,0,0-.579-1.85,5.549,5.549,0,0,0-1.623-1.51,12.113,12.113,0,0,0-2.453-1.169,22.446,22.446,0,0,0-3.07-.843,31.45,31.45,0,0,0-3.5-.5q-1.837-.164-3.725-.163a41.817,41.817,0,0,0-4.718.264,29.251,29.251,0,0,0-4.328.8,17.247,17.247,0,0,0-3.549,1.359A6.865,6.865,0,0,0,183.377,23.087ZM224.93,56.555a3.368,3.368,0,0,1-2.431-1.149,10.079,10.079,0,0,1-1.959-3.084,20.957,20.957,0,0,1-1.306-4.487,29.468,29.468,0,0,1-.471-5.357,38.038,38.038,0,0,1,.314-4.681q.313-2.526.919-5.212t1.44-5.394a54.753,54.753,0,0,1,1.885-5.2,44.121,44.121,0,0,1,2.286-4.656,25.3,25.3,0,0,1,2.588-3.773,12.2,12.2,0,0,1,2.83-2.528,5.624,5.624,0,0,1,3-.919,2.934,2.934,0,0,1,1.718.472,3.271,3.271,0,0,1,1.064,1.246,6.1,6.1,0,0,1,.545,1.753,12.668,12.668,0,0,1,.157,2,21.441,21.441,0,0,1-.521,4.631,35.8,35.8,0,0,1-1.4,4.741q-.884,2.382-2.044,4.777t-2.419,4.753q-1.258,2.358-2.527,4.644t-2.383,4.462a5.325,5.325,0,0,0-.254.629c-.089.259-.174.536-.254.835s-.161.616-.242.955-.145.669-.193.992v.338a5.54,5.54,0,0,0,.132,1.222,6.554,6.554,0,0,0,.328,1.064,3.143,3.143,0,0,0,.411.75.575.575,0,0,0,.411.278,3.425,3.425,0,0,0,1.052-.194,9.51,9.51,0,0,0,1.257-.52q.666-.325,1.368-.75t1.354-.858q1.524-1.016,3.192-2.346l1.984,5.079a49.843,49.843,0,0,1-4.257,2.757q-.92.509-1.9,1t-1.971.883a15.283,15.283,0,0,1-1.935.617A7.439,7.439,0,0,1,224.93,56.555Zm.024-19.35q1.089-1.935,2.311-4.354t2.309-4.982q1.089-2.563,1.887-5.116A23.96,23.96,0,0,0,232.477,18q0-.7-.037-1.2c-.024-.33-.1-.5-.229-.5a2.19,2.19,0,0,0-1.512.907,12.191,12.191,0,0,0-1.621,2.455,28.687,28.687,0,0,0-1.548,3.6q-.738,2.056-1.318,4.378a45.172,45.172,0,0,0-.919,4.777A34.919,34.919,0,0,0,224.954,37.205Zm25.322,1.233a13,13,0,0,1,1.052,2.963,13.092,13.092,0,0,1,.036,5.866,14.8,14.8,0,0,1-.907,2.806,13.63,13.63,0,0,1-1.451,2.539,10.358,10.358,0,0,1-1.959,2.056,9.287,9.287,0,0,1-2.406,1.379,7.627,7.627,0,0,1-2.783.508,6.8,6.8,0,0,1-3.639-.931,7.759,7.759,0,0,1-2.48-2.431,10.828,10.828,0,0,1-1.415-3.386,16.525,16.525,0,0,1-.447-3.822,15.143,15.143,0,0,1,.8-4.97A11.991,11.991,0,0,1,236.961,37a10.561,10.561,0,0,1,3.641-2.686,11.556,11.556,0,0,1,4.836-.979,12.781,12.781,0,0,1,4.306.713,16.383,16.383,0,0,1,3.761,1.911,21.52,21.52,0,0,1,3.266,2.746,41.89,41.89,0,0,1,2.817,3.192l-.459,3.411a14.111,14.111,0,0,0-1.766-1.887q-1.113-1.016-2.358-1.983t-2.455-1.827q-1.211-.856-2.08-1.439ZM242.8,51.911a2.2,2.2,0,0,0,1.6-.835,7.892,7.892,0,0,0,1.355-2.1,14.6,14.6,0,0,0,.932-2.805,13.253,13.253,0,0,0,.35-2.939,11.752,11.752,0,0,0-.17-2.068,6.326,6.326,0,0,0-.508-1.657,3.043,3.043,0,0,0-.87-1.113,2.035,2.035,0,0,0-1.282-.411,2.725,2.725,0,0,0-1.887.847,7.924,7.924,0,0,0-1.572,2.164,13.826,13.826,0,0,0-1.451,5.987,9.019,9.019,0,0,0,.193,1.91,4.893,4.893,0,0,0,.6,1.56,3.031,3.031,0,0,0,2.709,1.464Zm23.727,2.1a12.731,12.731,0,0,1-2.72,1.875,6.094,6.094,0,0,1-2.746.713,5.674,5.674,0,0,1-2.261-.472,5.881,5.881,0,0,1-1.948-1.354,6.634,6.634,0,0,1-1.354-2.153,7.672,7.672,0,0,1-.508-2.866,14.5,14.5,0,0,1,.508-3.725,20.48,20.48,0,0,1,1.4-3.737,21.154,21.154,0,0,1,2.117-3.446,16.92,16.92,0,0,1,2.672-2.83,13.045,13.045,0,0,1,3.06-1.923,8.02,8.02,0,0,1,3.277-.714,1.514,1.514,0,0,1,.871.218,2.2,2.2,0,0,1,.52.5c.137.185.269.367.4.544a1.115,1.115,0,0,0,.484.387,2.186,2.186,0,0,0,.593.157,5.2,5.2,0,0,0,.616.037c.177,0,.359,0,.545-.013s.366-.012.544-.012a3.029,3.029,0,0,1,.677.073,1.137,1.137,0,0,1,.556.314,1.61,1.61,0,0,1,.375.678,4.193,4.193,0,0,1,.133,1.185q0,.629-.1,1.693t-.266,2.37q-.17,1.307-.375,2.77t-.423,2.866q-.507,3.337-1.16,7.135a18.246,18.246,0,0,0,1.571-1.016,16.64,16.64,0,0,0,1.887-1.62q1.039-1.017,2.322-2.552t2.878-3.834l1.161,5.37a9.884,9.884,0,0,1-1.124,1.536q-.69.786-1.525,1.572t-1.741,1.524q-.906.738-1.777,1.39-2.057,1.548-4.427,3-.461,2.587-1.089,5.043a37.06,37.06,0,0,1-1.487,4.6,25.96,25.96,0,0,1-1.959,3.931,14.43,14.43,0,0,1-2.491,3.072,10.518,10.518,0,0,1-3.109,2,9.811,9.811,0,0,1-3.8.713,10.219,10.219,0,0,1-1.778-.169,4.893,4.893,0,0,1-1.765-.677,3.955,3.955,0,0,1-1.342-1.451,5.113,5.113,0,0,1-.533-2.516,6.6,6.6,0,0,1,.557-2.455,17.919,17.919,0,0,1,1.524-2.878,34.216,34.216,0,0,1,2.3-3.145q1.331-1.632,2.891-3.252t3.265-3.193q1.7-1.573,3.447-3ZM257.6,74.356a3.454,3.454,0,0,0,1.923-.592A7.03,7.03,0,0,0,261.2,72.2a13.33,13.33,0,0,0,1.391-2.2,24.571,24.571,0,0,0,1.113-2.528q.483-1.294.822-2.527t.532-2.2a17.751,17.751,0,0,0-1.923,1.5q-.978.872-1.91,1.875t-1.766,2.068q-.835,1.063-1.464,2.043A12.7,12.7,0,0,0,257,72.059a3.735,3.735,0,0,0-.363,1.4Q256.637,74.356,257.6,74.356Zm3.581-25.638a7.88,7.88,0,0,0,.084,1.173,3.47,3.47,0,0,0,.3,1.016,2.014,2.014,0,0,0,.58.726,1.474,1.474,0,0,0,.92.278,2.181,2.181,0,0,0,1.62-.774,7.512,7.512,0,0,0,1.258-1.863,13.312,13.312,0,0,0,.859-2.249,13.86,13.86,0,0,0,.423-1.935l1.475-7.111a4.12,4.12,0,0,0-1.935.5,7.245,7.245,0,0,0-1.777,1.342,12.008,12.008,0,0,0-1.536,1.935,15.127,15.127,0,0,0-1.21,2.286,14.464,14.464,0,0,0-.786,2.406A10.141,10.141,0,0,0,261.185,48.718Z" transform="translate(-9.327 -10.115)" fill="#3798bd"/>
  </g>
</svg>
