<?xml version="1.0" encoding="utf-8"?>
<!-- Generator: Adobe Illustrator 21.1.0, SVG Export Plug-In . SVG Version: 6.00 Build 0)  -->
<svg version="1.2" baseProfile="tiny" id="YDG_LOGO-white4_xA0_Image_1_"
	 xmlns="http://www.w3.org/2000/svg" xmlns:xlink="http://www.w3.org/1999/xlink" x="0px" y="0px" viewBox="0 0 800 400"
	 xml:space="preserve">
<g>
	<path fill="#3D8699" d="M69.3,178.3v40.9c0,1.3-0.4,2.5-1.1,3.4c-0.7,1-1.6,1.5-2.6,1.5H40.9c-0.9,0-1.8-0.5-2.5-1.5
		c-0.7-1-1.1-2.1-1.1-3.4V100.7c0-1.3,0.4-2.5,1.1-3.4c0.7-1,1.5-1.5,2.5-1.5h34.5c7.4,0,13.9,0.7,19.5,2.2c5.6,1.5,10.3,3.8,14,7.1
		c3.7,3.3,6.6,7.5,8.5,12.7c1.9,5.2,2.9,11.4,2.9,18.8c0,14.5-3.3,25.2-9.8,32c-6.6,6.8-16.2,10.1-29,9.9L69.3,178.3z M69.2,125.7
		V149l6,0.3c9.4,0.5,14.2-3.4,14.2-12c0-4.1-1.2-7.3-3.5-9.6c-2.3-2.2-5.6-3.1-9.8-2.7L69.2,125.7z"/>
	<path fill="#3D8699" d="M228.6,209.5l-42.4-111c-0.3-0.8-0.8-1.4-1.4-2c-0.6-0.5-1.2-0.8-1.8-0.8h-20.7c-0.5,0-1.1,0.3-1.8,0.8
		c-0.7,0.5-1.2,1.1-1.4,1.8l-39.1,96.2c10.4,4.9,15.6,18.2,15.7,29.6h2.8c0.6,0,1.2-0.3,1.9-0.8c0.6-0.5,1.1-1.2,1.4-2l6-16.1h43.9
		l4.7,12.6c6.9-4.5,15.1-0.4,18.5,6.3h9.4C225,219.3,226.4,214.2,228.6,209.5z M159.3,176.5l11.2-28.5l10.5,28.5H159.3z"/>
	<path fill="#3D8699" d="M344.2,208.3l-12.5-29.5c-1.2-2.2-2.6-4.4-4.4-6.6c-1.8-2.2-3.9-4.2-6.4-6.1c2.1-1,4-2.1,5.8-3.4
		c1.8-1.3,3.3-2.6,4.6-4c5.4-5.6,8.1-14.6,8.1-27c0-11-3.3-19.9-9.8-26.7c-6.1-6.2-14.2-9.3-24.2-9.3h-58.7c-0.9,0-1.8,0.5-2.5,1.5
		c-0.7,1-1.1,2.1-1.1,3.4v92.3c4.4-2.2,9.6-3,15.4-1.7c16.1,3.7,14.8,19.5,13.3,32.9h0.8c1,0,1.9-0.5,2.6-1.5c0.7-1,1.1-2.1,1.1-3.4
		v-40.5h11.3c4.2,0,6.6,0.3,7.3,1c0.4,0.3,0.8,0.8,1.1,1.3c0.4,0.5,0.7,1.1,1,1.6l-0.1-0.3l15,39c0.3,0.8,0.8,1.4,1.3,2
		c0.6,0.5,1.2,0.8,1.8,0.8h23.6C340,219,341.5,213,344.2,208.3z M302.6,146.7c-3,1.9-7.3,2.8-13,2.8h-14v-24.4h18.3
		c4.3,0,7.6,0.9,9.8,2.8c2.3,1.9,3.4,4.8,3.4,8.8C307,141.5,305.6,144.8,302.6,146.7z"/>
	<path fill="#3D8699" d="M440.2,191.7c-0.7-1-1.5-1.5-2.5-1.5h-42.5v-13.8l33.6-0.2c0.9,0,1.8-0.5,2.5-1.5c0.7-1,1.1-2.2,1.1-3.6
		v-23.6c0-1.3-0.4-2.5-1.1-3.4c-0.7-1-1.5-1.5-2.5-1.5h-33.6v-13.1h39.3c0.9,0,1.8-0.5,2.5-1.5c0.7-1,1.1-2.2,1.1-3.6v-23.9
		c0-1.3-0.3-2.5-1.1-3.4c-0.7-1-1.5-1.5-2.5-1.5h-68.2c-0.9,0-1.8,0.5-2.5,1.5c-0.7,1-1.1,2.1-1.1,3.4v100.7
		c9.3,3.5,8.2,13.9,6.7,22.8h68.2c1,0,1.9-0.5,2.5-1.5c0.7-1,1-2.1,1-3.4v-23.9C441.2,193.9,440.9,192.7,440.2,191.7z"/>
	<path fill="#3D8699" d="M551.4,219.4c0,0,0-0.1,0-0.1V100.7c0-1.3-0.4-2.5-1.1-3.4c-0.7-1-1.6-1.5-2.6-1.5H525
		c-1,0-1.9,0.5-2.6,1.5c-0.7,1-1.1,2.1-1.1,3.4v60.3c-2.3-4.4-4.5-8.7-6.7-12.9c-2.2-4.2-4.4-8.4-6.7-12.5
		c-3.4-6.2-6.7-12.4-9.9-18.6c-3.2-6.2-6.6-12.5-10-19.1c-0.2-0.5-0.6-1-1.2-1.5c-0.7-0.4-1.2-0.7-1.7-0.7h-26
		c-0.9,0-1.8,0.5-2.5,1.5c-0.7,1-1.1,2.1-1.1,3.4v118.6c0,1.3,0.4,2.5,1.1,3.4c0.7,1,1.5,1.5,2.5,1.5h7.5c2.3-13.1,6.9-25,18.9-31.6
		V160l17.4,32.8c5.2,3.1,9.1,7.1,10.4,13.6c0.6,2.8,1.1,5.7,1.3,8.5l3.9,7.3c0.3,0.5,0.8,1,1.4,1.4c0.6,0.4,1.1,0.6,1.5,0.6h25.3
		C548.2,222.4,549.7,220.8,551.4,219.4z"/>
	<path fill="#3D8699" d="M653.8,97.2c-0.7-1-1.6-1.5-2.6-1.5h-81c-1,0-1.9,0.5-2.5,1.5c-0.7,1-1,2.1-1,3.4v22.3c0,1.4,0.3,2.6,1,3.6
		c0.7,1,1.5,1.5,2.5,1.5h24.2v91.2c0,1.3,0.3,2.5,1.1,3.4c0.7,1,1.5,1.5,2.5,1.5h25.4c0.9-1.7,2.2-3.2,3.7-4.4c0-0.2,0-0.3,0-0.5
		V128h24.1c1,0,1.9-0.5,2.6-1.5c0.7-1,1.1-2.2,1.1-3.6v-22.3C654.9,99.4,654.5,98.2,653.8,97.2z"/>
	<path fill="#3D8699" d="M688.5,120.8l-5.1,21.1c-0.2,0.8-0.5,1.4-1.1,2c-0.5,0.5-1.1,0.8-1.5,0.8h-7.1c-1.1,0-1.9-0.6-2.5-1.9
		c-0.5-1.3-0.6-2.6-0.2-4.2l3.5-14.3h-3c-0.8,0-1.4-0.4-2-1.3c-0.5-0.9-0.8-1.9-0.8-3.1V96.9c0-1.2,0.3-2.3,0.8-3.2
		c0.5-0.9,1.2-1.4,2-1.4h14.3c0.8,0,1.4,0.5,2,1.4c0.5,0.9,0.8,2,0.8,3.2V120.8z"/>
	<path fill="#3D8699" d="M775.4,155.7c-4.7-6.6-13.3-11.6-26-15.1c-3.5-0.9-6.6-1.8-9.1-2.9c-2.6-1-4.8-2-6.6-2.9
		c-2-1-2.9-2.3-2.9-4.1c0-1.9,1-3.2,2.9-3.9c1.9-0.8,4.6-1.1,8.1-1.1c4.6,0,9.8,1.1,15.6,3.4c2.9,1.2,5.7,2.5,8.3,3.9
		c2.7,1.4,5.2,2.9,7.6,4.6c1.3,1,2.5,0.9,3.6-0.2c1.1-1.1,1.6-2.8,1.4-4.8l-2.3-28.7c-0.1-0.9-0.4-1.7-0.9-2.6
		c-0.5-0.9-1.1-1.4-1.7-1.6c-1.5-0.7-3.3-1.3-5.6-2c-2.2-0.7-4.8-1.4-7.8-2.1c-6.2-1.5-12-2.3-17.4-2.3c-12.5,0-22.2,3.5-29.2,10.6
		c-7,7.1-10.5,17.5-10.5,31.3c0,11.8,2.8,21,8.5,27.5c5.2,6.1,14.6,11.1,28.1,14.9c7.2,2,11.8,3.8,13.8,5.6c1.2,1.2,1.9,2.4,1.9,3.6
		c0,2.3-1.1,4-3.2,5.2c-2.1,1.2-5,1.8-8.5,1.8c-5.7,0-12.1-1.6-19.1-4.9c-6.8-3.4-12.1-6.4-15.9-9c-1.3-0.9-2.5-0.8-3.6,0.2
		c-1.1,1-1.6,2.6-1.4,4.7l1.9,31.1c0.1,1,0.4,1.9,0.9,2.8c0.5,0.9,1.2,1.4,1.9,1.6c0.9,0.2,2.1,0.6,3.7,1.1c1.6,0.5,3.5,1,5.8,1.6
		v-0.2c0.6,0.2,1.2,0.4,1.8,0.5c0.1,0,0.3,0.1,0.4,0.1c6.2-0.7,12.2-0.5,17.1,2.6c1.6,0.1,3.2,0.1,4.9,0.1c6.4,0,12.1-1,17.3-2.9
		c5.1-1.9,9.4-4.7,13-8.4c3.5-3.7,6.3-8.2,8.2-13.6c1.9-5.4,2.9-11.7,2.9-18.8C783.2,171.7,780.6,162.7,775.4,155.7z"/>
</g>
<g>
	<g>
		<path fill="#3D8699" d="M93.2,259.9c4.9-5.3,11.8-7.8,20.8-7.5c1.9,0.1,5.4,0.4,10.5,0.9c4.2,0.5,7.3,0.7,9.5,0.7
			c1,0,1.8,0.3,2.5,1c0.7,0.7,1.1,1.5,1.1,2.4c0,1-0.3,1.8-1,2.5c-0.7,0.7-1.5,1.1-2.4,1.1c-2.4,0.1-5.5-0.1-9.2-0.5
			c-5,10.4-10.4,17.7-16.1,22c-4.9,3.6-10.3,5.1-16.1,4.4c-9.3-1.1-15.6-5.6-18.9-13.5c-2.4-5.8-3.1-13.2-2-22.1
			c0.5-4.2,1.8-9.2,3.9-15c2-5.6,4.5-11,7.4-16.1c8-13.4,16.7-20,26.3-19.8c3.2,0.1,5.9,1.2,8.1,3.2c2.2,2.1,3.8,4.6,4.7,7.4
			c0.6,1.7,1.1,3.7,1.4,5.8c0.3,2.1,0.5,4.1,0.6,5.9c0,1.8,0.1,3.7,0.1,5.7v5.1c0,1-0.3,1.8-1,2.5c-0.6,0.7-1.5,1.1-2.4,1.1
			c-1,0-1.8-0.3-2.5-1c-0.7-0.7-1.1-1.5-1.1-2.4c0-1.8,0-3.7-0.1-5.6c0-1.9-0.1-3.7-0.1-5.3c0-1.6-0.1-3.2-0.4-4.9
			c-0.3-1.7-0.6-3.2-1-4.6c-1.4-3.9-3.6-5.9-6.6-6c-3.4-0.1-6.8,1.3-10.2,4.2c-3.4,2.9-6.7,6.9-9.8,12.2c-2.7,4.6-5,9.5-6.9,14.8
			c-1.8,5.3-2.9,9.8-3.4,13.4c-1,7.8-0.5,14,1.4,18.6c2.3,5.4,6.6,8.5,13.1,9.2c4,0.5,7.7-0.5,11.2-3.1c4.5-3.3,8.8-9,12.9-17
			c-1.4-0.2-2.7-0.3-3.9-0.3c-6.8-0.3-12,1.5-15.3,5.2c-0.7,0.7-1.5,1.1-2.5,1.2c-1,0.1-1.8-0.2-2.5-0.9c-0.7-0.7-1.1-1.5-1.2-2.5
			C92.2,261.4,92.5,260.6,93.2,259.9z"/>
		<path fill="#3D8699" d="M95.6,288.5c-1,0-1.9-0.1-2.9-0.2c-9.8-1.2-16.6-6-20.1-14.4c-2.5-6-3.2-13.7-2.1-22.9
			c0.5-4.3,1.9-9.5,4-15.3c2-5.7,4.5-11.2,7.5-16.4c8.1-13.6,17.2-20.5,27-20.5c0.2,0,0.4,0,0.6,0c3.6,0.1,6.6,1.3,9.1,3.7
			c2.4,2.2,4.1,4.9,5.1,8c0.6,1.8,1.1,3.8,1.5,6c0.4,2.2,0.6,4.2,0.6,6.1c0,1.9,0.1,3.8,0.1,5.8v5.1c0,1.3-0.5,2.5-1.4,3.5
			c-0.9,1.1-2.1,1.6-3.5,1.6c-1.3,0-2.5-0.5-3.5-1.4c-1.1-0.9-1.6-2.2-1.6-3.5c0-1.8,0-3.7-0.1-5.6c0-1.9-0.1-3.7-0.1-5.3
			c0-1.5-0.1-3.1-0.4-4.7c-0.2-1.6-0.6-3.1-1-4.4c-1.1-3.2-2.9-4.9-5.2-4.9c-3-0.1-6.1,1.2-9.2,3.8c-3.3,2.7-6.5,6.7-9.5,11.8
			c-2.6,4.5-4.9,9.4-6.8,14.6c-1.8,5.1-2.9,9.5-3.3,13.1c-0.9,7.5-0.5,13.5,1.3,17.8c2,4.9,5.9,7.6,11.9,8.3
			c3.6,0.5,6.9-0.5,10.1-2.8c3.9-2.9,7.8-7.8,11.4-14.5c-0.5,0-1,0-1.5,0c-6.4-0.2-11.2,1.3-14.2,4.7c-1,1-2.1,1.5-3.4,1.7
			c-1.4,0.1-2.7-0.3-3.7-1.3c-0.9-0.9-1.5-2.1-1.6-3.4c-0.1-1.4,0.3-2.6,1.3-3.6c5.1-5.6,12.5-8.3,21.9-8c2,0.1,5.5,0.4,10.6,0.9
			c4.1,0.5,7.2,0.7,9.3,0.6c0,0,0,0,0,0c1.4,0,2.6,0.5,3.6,1.3c1.1,0.9,1.6,2.2,1.6,3.5c0,1.3-0.5,2.5-1.4,3.5
			c-0.9,1.1-2.2,1.6-3.5,1.6c-2.2,0.1-5-0.1-8.3-0.4c-5,10.1-10.4,17.3-16.1,21.6C105.5,286.9,100.7,288.5,95.6,288.5z M109.1,201.9
			c-8.7,0-16.9,6.4-24.4,19c-2.9,5-5.3,10.3-7.3,15.9c-2,5.6-3.3,10.5-3.8,14.6c-1.1,8.6-0.5,15.8,1.8,21.3
			c3.1,7.4,8.9,11.5,17.6,12.6c5.5,0.7,10.4-0.7,15-4.1c5.5-4.1,10.8-11.3,15.7-21.4l0.5-1l1.1,0.1c3.6,0.4,6.7,0.6,9,0.5
			c0.6,0,1-0.2,1.3-0.6c0.4-0.5,0.6-1,0.6-1.5c0-0.5-0.2-0.9-0.6-1.3c-0.5-0.4-1-0.6-1.5-0.6c-2.2,0.1-5.4-0.1-9.7-0.7
			c-5-0.5-8.5-0.8-10.4-0.9c-8.5-0.2-15.1,2.1-19.6,7.1l0,0c-0.4,0.4-0.5,0.8-0.5,1.3c0.1,0.6,0.3,1.1,0.7,1.5
			c0.4,0.4,0.8,0.5,1.3,0.5c0.6-0.1,1.1-0.3,1.5-0.7c3.6-4,9.2-5.9,16.5-5.6c1.2,0,2.6,0.1,4,0.3l2.1,0.3l-1,1.9
			c-4.2,8.2-8.6,14.1-13.3,17.6c-3.8,2.8-7.9,4-12.3,3.4c-7-0.8-11.9-4.3-14.3-10.1c-2-4.8-2.5-11.3-1.5-19.4
			c0.4-3.7,1.6-8.3,3.5-13.7c1.9-5.4,4.3-10.4,7-15.1c3.2-5.4,6.6-9.7,10.1-12.6c3.7-3.1,7.5-4.6,11.2-4.5c2.5,0.1,6,1.3,8,7
			c0.5,1.5,0.8,3.1,1.1,4.9c0.3,1.8,0.4,3.5,0.4,5.2c0,1.6,0,3.3,0.1,5.2c0,1.9,0.1,3.8,0.1,5.6c0,0.5,0.2,0.9,0.6,1.3
			c0.5,0.4,1,0.6,1.5,0.6c0.5,0,0.9-0.2,1.3-0.6c0.4-0.5,0.6-1,0.6-1.5v-5.1c0-1.9,0-3.8-0.1-5.7c0-1.7-0.2-3.7-0.6-5.7
			c-0.3-2-0.8-3.9-1.4-5.5c-0.9-2.6-2.3-4.9-4.4-6.8c-1.9-1.8-4.3-2.8-7.1-2.8C109.4,201.9,109.2,201.9,109.1,201.9z"/>
	</g>
	<g>
		<path fill="#3D8699" d="M151.9,247.7c-1.8,7.1-2.8,14.4-2.9,21.8c0,4.8,0.5,8.3,1.6,10.5c0.8,1.7,2,2.5,3.6,2.2
			c2.9-0.4,5.6-3.3,8.1-8.7c1.6-3.7,3.1-8.6,4.4-14.6c0-0.3,0.5-3,1.4-8.2c0.3-1.6,0.5-2.7,0.6-3.2c0-0.3,0-0.6,0.1-0.8
			c0.2-0.4,0.4-0.8,0.8-1.2c0.7-0.8,1.6-1.2,2.7-1.2c1.3,0.1,2.3,0.7,3,1.8l0.4,1.4v0.3v0.3v0.8c-0.1,0.9-0.4,3.3-1,7.3
			c-0.8,4.2-1.3,7.7-1.6,10.4c-0.4,4.2-0.5,7.5-0.3,9.9c0.2,2.6,0.6,4.2,1.3,4.9c1.6,1.6,3.2,2,4.7,1.2c1.7-0.9,3.6-2.9,5.5-6.2
			c1.6-2.9,3.1-6.2,4.4-9.9c1.3-3.8,2.1-6.8,2.4-9c0.2-1,0.6-1.7,1.4-2.3c0.8-0.6,1.6-0.8,2.6-0.6c1,0.1,1.7,0.6,2.3,1.4
			c0.6,0.8,0.8,1.6,0.7,2.6c-0.4,2.7-1.3,6.1-2.7,10.3c-1.4,4.2-3,7.9-4.9,11.2c-2.6,4.5-5.4,7.5-8.5,9.1c-4.3,2.2-8.5,1.4-12.5-2.3
			c-1.5-1.4-2.5-3.3-3.1-5.8c-3.1,4.9-6.8,7.7-11.2,8.4c-5.1,0.9-8.8-1.2-11.1-6.2c-1.5-3.3-2.2-7.8-2.2-13.7
			c0.1-8,1.1-15.8,3.1-23.5c0.3-1,0.8-1.7,1.6-2.1c0.8-0.5,1.7-0.6,2.7-0.3c1,0.3,1.7,0.8,2.1,1.6
			C152,245.9,152.1,246.8,151.9,247.7z"/>
		<path fill="#3D8699" d="M177.3,291.8c-3,0-6-1.3-8.8-4c-1.1-1-1.9-2.2-2.6-3.7c-3,3.7-6.5,6-10.4,6.7c-5.8,1-10.2-1.5-12.7-7.1
			c-1.6-3.5-2.3-8.3-2.3-14.3c0.1-8.1,1.2-16.1,3.2-23.9c0.4-1.4,1.2-2.4,2.3-3.1c1.2-0.7,2.5-0.8,3.8-0.5c1.3,0.4,2.4,1.2,3,2.3
			c0.7,1.2,0.8,2.5,0.5,3.8c-1.8,7-2.7,14.2-2.8,21.5c0,4.5,0.5,7.8,1.4,9.9c0.7,1.4,1.4,1.5,2,1.4c2.4-0.3,4.8-3.1,6.9-7.8
			c1.6-3.6,3-8.4,4.3-14.2c0.1-0.5,0.3-2,1.4-8.2c0.3-1.9,0.5-2.8,0.6-3.2c0-0.4,0.1-0.8,0.3-1.1c0.2-0.6,0.6-1.1,1.1-1.6
			c0.9-1,2.2-1.6,3.8-1.6l0.1,0c1.8,0.1,3.2,1,4.2,2.5l0.1,0.2l0.5,1.8l0,1.7c-0.1,0.9-0.4,3.3-1,7.4c-0.8,4.2-1.3,7.7-1.5,10.3
			c-0.4,4-0.5,7.3-0.3,9.6c0.2,3.3,0.8,4,0.9,4c1.7,1.6,2.5,1.1,2.9,0.9c1-0.5,2.7-1.9,4.9-5.7c1.6-2.8,3-6,4.2-9.7
			c1.2-3.7,2-6.6,2.3-8.8c0.2-1.4,0.9-2.5,2-3.3c1.1-0.8,2.3-1.1,3.7-0.9c1.4,0.2,2.5,0.9,3.3,2c0.8,1.1,1.1,2.3,1,3.6l0,0.1
			c-0.4,2.8-1.4,6.3-2.8,10.5c-1.4,4.2-3.1,8.1-5.1,11.5c-2.7,4.7-5.8,8-9.1,9.7C180.9,291.3,179.1,291.8,177.3,291.8z M167.1,277.1
			l0.8,3.4c0.5,2.2,1.4,3.9,2.7,5.1c3.5,3.3,7,4,10.8,2.1c2.7-1.4,5.4-4.3,7.8-8.5c1.8-3.2,3.5-6.9,4.8-10.9c1.3-4,2.2-7.4,2.7-10
			c0-0.6-0.1-1.1-0.4-1.5c-0.3-0.4-0.7-0.7-1.3-0.8c-0.6-0.1-1.1,0-1.5,0.4c-0.5,0.3-0.7,0.8-0.8,1.3c-0.4,2.3-1.2,5.4-2.5,9.2
			c-1.3,3.8-2.8,7.3-4.5,10.2c-2.1,3.6-4.1,5.8-6.1,6.8c-1.4,0.7-3.7,1.1-6.4-1.4c-1-1-1.6-2.8-1.8-5.9c-0.3-2.5-0.2-5.9,0.3-10.1
			c0.3-2.7,0.8-6.2,1.6-10.5c0.6-3.8,0.9-6.2,1-7.1v-1l-0.3-1c-0.4-0.6-0.9-0.9-1.7-0.9c-0.7,0-1.2,0.2-1.6,0.7
			c-0.3,0.3-0.4,0.5-0.5,0.7l0,0c0,0,0,0.1,0,0.2v0.2l-0.1,0.2c-0.1,0.2-0.3,1-0.6,3c-1.2,6.7-1.4,7.8-1.4,8l0,0.2
			c-1.3,6-2.8,11-4.5,14.8c-2.7,5.9-5.7,9.1-9.2,9.6c-2.3,0.4-4.2-0.7-5.2-3.1c-1.1-2.5-1.7-6.1-1.7-11.1c0.1-7.5,1.1-15,2.9-22.2
			l0,0c0.2-0.6,0.1-1-0.2-1.5c-0.3-0.5-0.7-0.8-1.2-0.9c-0.6-0.2-1-0.1-1.5,0.2c-0.5,0.3-0.8,0.7-0.9,1.2c-2,7.5-3,15.3-3.1,23.2
			c0,5.6,0.7,9.9,2.1,13c2,4.4,5,6.1,9.4,5.4c3.9-0.7,7.3-3.3,10.2-7.8L167.1,277.1z"/>
	</g>
	<g>
		<path fill="#3D8699" d="M203.2,247.7c-0.1,0.7-0.5,3.4-1.3,8.1c-0.8,4.3-1.3,8.1-1.7,11.4c-0.5,4.3-0.7,7.8-0.6,10.3
			c0.2,2.8,0.5,4.5,1,5.1c0.5,0.6,1,1,1.3,1c0.3,0,0.6-0.2,1.2-0.5c1.6-1.2,3.5-3.8,5.6-7.8c2-3.9,4.6-10.4,7.7-19.4
			c0.3-0.9,1-1.5,1.8-2c0.9-0.4,1.8-0.5,2.7-0.2c0.9,0.3,1.6,0.9,2,1.8c0.4,0.9,0.5,1.8,0.3,2.7c-3.3,9.4-6,16.1-8.2,20.3
			c-2.6,4.9-5.2,8.3-7.7,10.1c-2,1.5-4,2.1-6,1.8c-2.2-0.2-4.1-1.3-5.9-3.2c-1.6-1.9-2.6-5-2.9-9.4c-0.1-3,0.1-6.9,0.6-11.6
			c0.3-2.9,0.9-6.8,1.7-11.4c0.8-4.7,1.2-7.3,1.3-7.9c0.2-1,0.6-1.8,1.4-2.4c0.7-0.6,1.6-0.8,2.6-0.7c1,0.1,1.8,0.6,2.3,1.3
			C203.1,245.9,203.3,246.8,203.2,247.7z M204,226c0.7,0.7,1,1.5,1,2.5c0,1-0.3,1.8-1,2.5c-0.7,0.7-1.5,1-2.5,1c-1,0-1.8-0.3-2.5-1
			c-0.7-0.7-1-1.5-1-2.5c0-1,0.3-1.8,1-2.5c0.7-0.7,1.5-1,2.5-1C202.5,225,203.3,225.3,204,226z"/>
		<path fill="#3D8699" d="M202.2,292c-0.4,0-0.7,0-1.1-0.1c-2.5-0.2-4.8-1.5-6.8-3.8c-1.9-2.2-2.9-5.5-3.2-10.3
			c-0.1-3.1,0.1-7.1,0.7-11.8c0.3-2.9,0.9-6.8,1.7-11.5c0.8-4.6,1.2-7.3,1.3-7.9c0.2-1.5,0.9-2.6,1.9-3.4c1.1-0.8,2.3-1.1,3.7-0.9
			c1.4,0.2,2.5,0.8,3.3,1.9c0.8,1,1.1,2.2,1,3.6l0,0.1c-0.1,0.7-0.5,3.5-1.3,8.1c-0.8,4.3-1.3,8.1-1.7,11.4
			c-0.5,4.3-0.7,7.6-0.6,10.1c0.2,3.4,0.6,4.1,0.7,4.2c0.1,0.1,0.2,0.3,0.3,0.3c0,0,0.1-0.1,0.2-0.1c0.9-0.7,2.6-2.6,5.1-7.2
			c2-3.8,4.5-10.3,7.6-19.2c0.5-1.3,1.4-2.2,2.6-2.8c1.2-0.6,2.5-0.7,3.8-0.3c1.3,0.4,2.3,1.3,2.9,2.5c0.6,1.2,0.7,2.5,0.4,3.8
			l0,0.1c-3.3,9.4-6.1,16.3-8.3,20.5c-2.7,5.2-5.4,8.7-8.1,10.7C206.2,291.3,204.2,292,202.2,292z M199.6,245.3
			c-0.4,0-0.8,0.1-1.1,0.4c-0.4,0.3-0.7,0.8-0.8,1.5c-0.1,0.6-0.5,3.2-1.3,7.9c-0.8,4.7-1.3,8.5-1.7,11.4c-0.5,4.6-0.7,8.4-0.6,11.4
			c0.2,3.9,1.1,6.8,2.5,8.4c1.5,1.7,3.1,2.6,4.8,2.7c1.7,0.2,3.3-0.3,5-1.5c2.3-1.7,4.8-4.9,7.2-9.6c2.1-4.1,4.8-10.8,8.1-20
			c0.1-0.6,0.1-1.1-0.2-1.6c-0.3-0.5-0.6-0.8-1.1-1c-0.5-0.2-1-0.1-1.5,0.1c-0.5,0.3-0.9,0.6-1.1,1.2c-3.1,9-5.7,15.5-7.7,19.5
			c-2.2,4.2-4.2,7-6,8.3c-0.9,0.6-1.5,0.8-2.1,0.8l-0.4,0c-0.7-0.2-1.3-0.6-2.1-1.5c-0.5-0.6-1.1-1.8-1.4-6
			c-0.1-2.6,0.1-6.1,0.7-10.5c0.3-3.3,0.9-7.2,1.7-11.5c0.9-5.6,1.2-7.4,1.3-8c0-0.6-0.1-1-0.4-1.5c-0.3-0.4-0.7-0.6-1.3-0.7
			C199.8,245.3,199.7,245.3,199.6,245.3z M202.4,282.2L202.4,282.2L202.4,282.2z M201.7,282.1L201.7,282.1L201.7,282.1z
			 M201.5,233.5c-1.4,0-2.6-0.5-3.5-1.5c-1-1-1.5-2.2-1.5-3.5c0-1.4,0.5-2.5,1.5-3.5c1-1,2.2-1.5,3.5-1.5c1.4,0,2.5,0.5,3.5,1.5l0,0
			c1,1,1.5,2.2,1.5,3.5c0,1.4-0.5,2.5-1.5,3.5C204.1,233,202.9,233.5,201.5,233.5z M201.5,226.5c-0.6,0-1,0.2-1.4,0.6
			c-0.4,0.4-0.6,0.9-0.6,1.4c0,0.6,0.2,1,0.6,1.4c0.4,0.4,0.9,0.6,1.4,0.6c0.6,0,1-0.2,1.4-0.6c0.4-0.4,0.6-0.9,0.6-1.4
			c0-0.5-0.2-1-0.6-1.4C202.5,226.6,202.1,226.5,201.5,226.5z"/>
	</g>
	<g>
		<path fill="#3D8699" d="M235.6,246.3c-0.4-4.9-0.6-9.8-0.4-14.7c0.6-12.5,3.2-21.5,7.8-27.2c3-3.7,6.4-5.5,10.1-5.2
			c2.1,0.1,3.9,0.8,5.4,2.2c1.5,1.4,2.7,3.2,3.4,5.6c0.6,2,0.8,4.6,0.7,7.9c0,0.8-0.1,2-0.2,3.5c-0.1,1.6-0.2,2.7-0.2,3.4
			c0,0.4-0.1,0.9-0.4,1.4c-3.9,20-8.7,35.9-14.4,47.6l1,3.5c1.3,3.6,2.6,6.1,4,7.3c0.3,0.3,0.7,0.5,1,0.5c0.5,0,1.2-0.3,2-0.9
			c5-3.9,8.7-12,10.9-24.3c0.2-1,0.7-1.7,1.5-2.3c0.8-0.6,1.7-0.8,2.7-0.6c1,0.2,1.7,0.7,2.3,1.5c0.6,0.8,0.8,1.7,0.6,2.7
			c-2.6,14-7.1,23.5-13.5,28.5c-2.2,1.6-4.3,2.5-6.4,2.5c-2.1,0-4-0.7-5.7-2.2c-1.9-1.7-3.6-4.4-5.1-7.9l-0.9,1.4
			c-2.8,3.8-6.2,6.5-10.3,8.2c-2.2,1.1-4.6,1.4-7.3,0.9c-2.7-0.5-5-2-7-4.6c-2.8-3.8-3.9-9-3.2-15.6c0.6-5.8,2.3-11,5.2-15.7
			c3.5-5.5,7.5-8.2,12.2-8.3C232.8,245.4,234.2,245.7,235.6,246.3z M240,270.1c-0.4-1.6-0.8-3.4-1.2-5.3c-1-4.7-1.5-7.1-1.6-7.3
			c-0.1-0.3-0.1-0.7-0.1-1c-2-2.7-3.9-4-5.7-4c-2.1,0-4.2,1.7-6.2,5.1c-2.3,3.8-3.7,8.1-4.2,12.7c-0.5,4.7,0.1,8.2,1.9,10.7
			c1.4,1.9,3.4,2.3,6,1.3c2.8-1.1,5.2-3.1,7.2-5.9C237.4,274.5,238.7,272.4,240,270.1z M243.2,255.4c0.4,0.8,0.8,1.7,1.2,2.7
			c0,0.1,0,0.2,0.1,0.3c2.4-9.1,4.6-19.9,6.4-32.5c0-0.3,0-0.5,0-0.7c0-0.5,0-1.5,0.1-2.9c0.1-1.4,0.1-2.4,0.1-3.1
			c0.2-2.3,0.1-4.1-0.3-5.2c-0.3-1.7-0.9-2.6-1.6-2.6c-1-0.1-2,0.7-3,2.5c-2.4,4.1-3.8,11.2-4.2,21.3
			C241.9,242.5,242.3,249.2,243.2,255.4z"/>
		<path fill="#3D8699" d="M226.7,291.3c-0.9,0-1.8-0.1-2.8-0.3c-3.1-0.6-5.7-2.3-7.9-5.1c-3-4.1-4.2-9.7-3.5-16.6
			c0.6-6,2.4-11.5,5.4-16.4c3.7-5.9,8.3-8.9,13.5-9c0,0,0,0,0,0c0.8,0,1.7,0.1,2.5,0.3c-0.3-4.2-0.4-8.5-0.2-12.6
			c0.6-12.8,3.4-22.2,8.1-28.1c3.3-4.1,7.2-6,11.4-5.7c2.4,0.1,4.5,1,6.3,2.6c1.7,1.6,3,3.7,3.9,6.2c0.7,2.2,0.9,5,0.7,8.5
			c0,0.7-0.1,1.9-0.2,3.6c-0.1,1.5-0.2,2.6-0.2,3.3c0,0.6-0.2,1.2-0.5,1.9c-3.8,19.7-8.6,35.6-14.3,47.2l0.9,3
			c1.5,4.1,2.8,5.9,3.6,6.6l0.1,0.1c0,0,0,0,0.1,0.1c0.1,0,0.4-0.2,0.9-0.6c4.7-3.7,8.2-11.5,10.4-23.4c0.2-1.4,1-2.4,2.1-3.2
			c1.2-0.8,2.4-1.1,3.8-0.8c1.4,0.2,2.4,1,3.2,2.1c0.8,1.2,1.1,2.4,0.8,3.8c-2.7,14.4-7.4,24.2-14.1,29.4c-4.9,3.7-10,3.6-14,0.2
			c-1.6-1.5-3.1-3.5-4.4-6c-2.9,3.7-6.3,6.3-10.3,7.9C230.5,290.9,228.7,291.3,226.7,291.3z M231.4,246.9c-4.2,0.1-7.7,2.6-11,7.6
			c-2.7,4.4-4.4,9.5-5,15.1c-0.6,6.2,0.4,11.1,3,14.6c1.7,2.2,3.6,3.5,6,4c2.4,0.5,4.5,0.2,6.4-0.8l0.1-0.1c3.8-1.5,7-4.1,9.6-7.7
			l2.4-3.8l1.1,2.7c1.4,3.3,3,5.8,4.7,7.4c2.9,2.4,6.4,2.5,10.2-0.3c6.1-4.7,10.4-13.9,13-27.5c0.1-0.6,0-1-0.3-1.5
			c-0.3-0.5-0.7-0.8-1.3-0.9c-0.6-0.1-1.1,0-1.5,0.3c-0.5,0.3-0.8,0.8-0.9,1.3c-2.3,12.8-6.1,21.1-11.5,25.2c-1.1,0.8-2,1.2-2.9,1.2
			c-0.5,0-1.3-0.2-2.1-0.9c-1.6-1.4-3-4-4.4-7.9l-1.2-4.1l0.3-0.5c5.6-11.5,10.4-27.4,14.3-47.2l0-0.2l0.1-0.2
			c0.2-0.4,0.2-0.6,0.2-0.8c0-0.7,0.1-1.9,0.2-3.5c0.1-1.5,0.2-2.7,0.2-3.4c0.2-3.2,0-5.7-0.6-7.5c-0.7-2-1.7-3.7-3-4.9
			c-1.3-1.1-2.7-1.7-4.4-1.8c-3.3-0.2-6.2,1.3-8.9,4.6c-4.4,5.4-6.9,14.2-7.5,26.3c-0.2,4.8,0,9.6,0.4,14.5l0.2,2.5l-2.3-1
			C233.8,247.1,232.6,246.9,231.4,246.9z M226.4,284.2c-2.4,0-3.9-1.4-4.7-2.5c-2-2.7-2.8-6.7-2.2-11.7c0.4-4.9,1.9-9.4,4.4-13.4
			c2.4-3.9,4.9-5.8,7.5-5.8c2.3,0,4.6,1.5,6.9,4.6l0.3,0.4v0.5c0,0.2,0,0.4,0.1,0.6c0.1,0.4,0.4,1.8,1.6,7.4
			c0.3,1.9,0.7,3.6,1.2,5.2l0.2,0.6l-0.3,0.5c-1.3,2.4-2.7,4.5-4,6.4c-2.2,3-4.8,5.1-7.8,6.4C228.4,284,227.3,284.2,226.4,284.2z
			 M231.4,253.9c-1.5,0-3.2,1.5-5,4.4c-2.2,3.6-3.5,7.7-3.9,12.1c-0.5,4.3,0.1,7.5,1.7,9.6c0.7,1,1.7,1.8,4.2,0.8
			c2.5-1,4.7-2.8,6.5-5.3c1.2-1.6,2.3-3.5,3.5-5.6c-0.4-1.5-0.7-3.1-1-4.9c-1.1-5.4-1.4-6.7-1.5-7l-0.1-0.2
			c-0.1-0.3-0.1-0.6-0.2-0.9C234.1,254.9,232.6,253.9,231.4,253.9z M245.3,261.2l-1.8-1.8c-0.3-0.3-0.5-0.6-0.5-1
			c-0.3-0.9-0.6-1.7-1-2.4l-0.1-0.2l0-0.3c-1-6.2-1.3-13.1-1.1-20.4c0.4-10.5,1.8-17.7,4.4-22c0.5-0.8,2-3.4,4.3-3.2
			c2.2,0.1,2.7,2.7,2.9,3.7c0.4,1.3,0.5,3.1,0.3,5.6c0,0.7,0,1.7-0.1,3.2c-0.1,1.7-0.1,2.4-0.1,2.8l0,0.9c-1.8,12.5-4,23.5-6.4,32.7
			L245.3,261.2z M249.1,213c-0.2,0.1-0.7,0.5-1.4,1.7c-2.3,3.8-3.6,10.8-3.9,20.6c-0.2,6.2,0,12.1,0.7,17.5c1.9-7.9,3.6-16.9,5-27
			v-0.5c0-0.6,0-1.5,0.1-3c0.1-1.4,0.1-2.4,0.1-3l0-0.1c0.2-2.7,0-4-0.2-4.7l0-0.1C249.3,213.6,249.2,213.2,249.1,213z"/>
	</g>
	<g>
		<path fill="#3D8699" d="M274.6,274.9c0.3,2.5,0.9,4.5,2,6.1c2.2,3.2,5.9,4.2,11.2,3c4.3-1,7.7-3.9,10.1-8.5
			c0.9-1.6,1.6-3.4,2.3-5.1c0.7-1.8,1.4-3.8,2.2-6.2c0.8-2.3,1.5-4.3,2.1-6c0.3-0.9,1-1.5,1.8-1.9c0.9-0.4,1.8-0.4,2.7-0.1
			c0.9,0.3,1.6,1,2,1.8c0.4,0.9,0.4,1.8,0.1,2.7l-1.8,5.5c-0.9,2.4-1.7,4.7-2.5,6.8c-0.8,2.1-1.6,4-2.6,5.9
			c-3.4,6.4-8.3,10.4-14.8,11.8c-8.4,2-14.6,0-18.5-5.9c-3.1-4.6-4.1-10.7-3-18.2c1-7,3.2-12.9,6.9-17.7c2-2.6,4.3-4.5,6.9-5.8
			c2.6-1.3,5.4-1.4,8.3-0.5c4.9,1.7,7.5,5.3,7.8,10.7c0.3,4.2-1,8.4-3.8,12.6c-2.9,4.4-6.4,7.3-10.7,8.7
			C280.3,275.7,277.4,275.7,274.6,274.9z M274.7,267.3c2.1,1.2,4.2,1.5,6.4,0.8c2.7-1,5-2.9,7-6c1.9-2.9,2.8-5.7,2.6-8.3
			c-0.1-2.3-1.1-3.7-3.1-4.3c-2.3-0.9-4.8,0.4-7.3,3.8C277.4,257,275.6,261.7,274.7,267.3z"/>
		<path fill="#3D8699" d="M283.3,293c-5.9,0-10.5-2.4-13.7-7.3c-3.3-4.9-4.4-11.4-3.2-19.2c1-7.2,3.4-13.4,7.2-18.4
			c2.1-2.8,4.6-4.9,7.4-6.2c3-1.4,6.1-1.6,9.4-0.5c5.6,2,8.5,6,8.8,12c0.3,4.4-1.1,9-4,13.5c-3,4.7-6.9,7.8-11.5,9.3
			c-2.5,0.8-4.9,1-7.3,0.7c0.3,1.3,0.8,2.4,1.4,3.3c1.8,2.7,4.9,3.4,9.6,2.4c3.9-0.9,6.9-3.5,9.1-7.7c0.8-1.6,1.6-3.3,2.3-5
			c0.7-1.7,1.4-3.8,2.2-6.1c0.8-2.3,1.5-4.4,2.1-6c0.5-1.3,1.4-2.2,2.6-2.7c1.2-0.6,2.5-0.6,3.8-0.1c1.3,0.5,2.2,1.4,2.8,2.6
			c0.6,1.2,0.6,2.5,0.1,3.9l-1.8,5.4c-0.9,2.5-1.7,4.7-2.5,6.8c-0.8,2.1-1.7,4.2-2.7,6c-3.6,6.8-8.9,11-15.8,12.6
			C287.4,292.7,285.3,293,283.3,293z M286.2,243.6c-1.4,0-2.7,0.3-4,0.9c-2.4,1.1-4.5,2.9-6.4,5.3c-3.5,4.5-5.7,10.2-6.6,17
			c-1.1,7.1-0.1,12.9,2.7,17.2c3.6,5.4,9.1,7.1,16.9,5.2c6.1-1.4,10.6-5,13.8-11.1c0.9-1.8,1.8-3.7,2.5-5.7c0.8-2.1,1.6-4.3,2.5-6.7
			l1.8-5.4c0.2-0.6,0.2-1.1,0-1.6c-0.2-0.5-0.6-0.8-1.1-1c-0.5-0.2-1-0.2-1.5,0c-0.5,0.2-0.8,0.6-1,1.1c-0.6,1.6-1.3,3.6-2.1,5.9
			c-0.8,2.4-1.5,4.5-2.2,6.2c-0.7,1.8-1.5,3.6-2.4,5.3c-2.6,5-6.4,8.1-11.1,9.2c-5.9,1.4-10.2,0.1-12.8-3.6c-1.2-1.8-1.9-4-2.2-6.8
			l-0.2-2.2l2.2,0.7c2.6,0.8,5.1,0.7,7.8-0.1c3.9-1.3,7.2-4,9.9-8.1c2.6-4,3.8-7.9,3.5-11.7c-0.2-4.8-2.5-7.8-6.8-9.3
			C288.3,243.8,287.2,243.6,286.2,243.6z M278.7,270c-1.6,0-3.2-0.5-4.8-1.4l-0.9-0.5l0.2-1c0.9-5.9,2.9-10.8,5.9-14.7
			c2.9-3.9,6-5.4,9-4.3c2.5,0.8,4,2.7,4.1,5.6c0.2,2.9-0.8,6-2.8,9.2c-2.2,3.3-4.8,5.5-7.8,6.6C280.6,269.8,279.7,270,278.7,270z
			 M276.4,266.5c1.4,0.6,2.8,0.7,4.3,0.2c2.3-0.8,4.4-2.6,6.2-5.4c1.7-2.6,2.5-5.1,2.4-7.4c-0.1-1.7-0.7-2.5-2.1-3
			c-1.7-0.6-3.6,0.5-5.6,3.2C279,257.5,277.3,261.6,276.4,266.5z"/>
	</g>
	<g>
		<path fill="#3D8699" d="M346.6,240.8c-2.9-0.3-5.9-0.8-9.1-1.6c-1-0.2-1.7-0.7-2.2-1.5c-0.5-0.8-0.7-1.7-0.5-2.7
			c0.2-1,0.7-1.7,1.6-2.2c0.8-0.5,1.7-0.6,2.7-0.4c3.2,0.7,6.2,1.2,9,1.4c1.6-7.1,3.6-14.6,6-22.6c0.3-0.9,0.8-1.5,1.7-2
			c0.9-0.5,1.8-0.6,2.7-0.3c0.9,0.3,1.6,0.8,2.1,1.7c0.5,0.9,0.6,1.8,0.3,2.7c-2.2,7.1-4,14-5.5,20.5c2.8-0.2,5.8-0.6,9-1.3
			c1-0.3,1.8-0.1,2.7,0.4c0.8,0.5,1.3,1.3,1.6,2.2c0.2,1,0.1,1.8-0.5,2.7c-0.5,0.8-1.3,1.3-2.2,1.5c-4.2,1-8.3,1.5-12.1,1.7
			c-2.9,14.3-3.9,25.4-3,33.3c0.3,2.9,1,5.1,2,6.8c1,1.7,2.1,2.8,3.2,3.2c2.6,1,5.3-1,8.2-5.7c3.1-5.2,5.6-12.6,7.4-22.2
			c0.3-1,0.8-1.7,1.6-2.3c0.8-0.6,1.6-0.7,2.6-0.5c1,0.2,1.7,0.7,2.3,1.5c0.6,0.8,0.8,1.6,0.6,2.6c-2.1,10.5-4.9,18.7-8.5,24.6
			c-2.3,3.7-4.8,6.4-7.7,8c-2.9,1.6-5.9,1.8-8.9,0.7c-2.7-1-4.9-3-6.6-5.8c-1.6-2.9-2.7-6.2-3.1-10
			C342.7,266.6,343.7,255.1,346.6,240.8z"/>
		<path fill="#3D8699" d="M357.2,293.2c-1.4,0-2.8-0.3-4.2-0.8c-3-1.2-5.5-3.3-7.4-6.5c-1.8-3.1-2.9-6.6-3.3-10.6
			c-1-8.4-0.2-19.5,2.6-33.2c-2.4-0.3-5-0.8-7.7-1.4c-1.3-0.2-2.4-1-3.1-2.2c-0.7-1.2-1-2.4-0.6-3.8c0.3-1.3,1.1-2.4,2.2-3.1
			c1.2-0.7,2.5-0.9,3.9-0.6c2.6,0.6,5.1,1,7.4,1.2c1.6-6.7,3.5-13.9,5.7-21.4c0.4-1.3,1.2-2.2,2.4-2.9c1.2-0.7,2.5-0.8,3.8-0.5
			c1.3,0.4,2.3,1.2,3,2.4c0.7,1.2,0.8,2.5,0.5,3.8c-1.9,6.4-3.6,12.6-5,18.5c2.1-0.2,4.4-0.6,6.7-1.1c1.3-0.4,2.6-0.2,3.8,0.6
			c1.2,0.7,1.9,1.8,2.2,3.1c0.3,1.4,0.1,2.6-0.6,3.8c-0.7,1.2-1.8,1.9-3.2,2.2c-3.8,0.9-7.6,1.4-11.1,1.6
			c-2.7,13.5-3.6,24.2-2.7,31.7c0.3,2.6,0.9,4.7,1.8,6.2c0.8,1.4,1.6,2.2,2.4,2.5c2.2,0.8,4.7-2.3,6.4-5.1c3-5,5.4-12.3,7.2-21.7
			l0-0.1c0.4-1.3,1.1-2.3,2.1-3.1c1.1-0.8,2.4-1.1,3.8-0.8c1.3,0.3,2.4,1,3.2,2.1c0.8,1.1,1.1,2.4,0.8,3.7
			c-2.1,10.6-5,19.1-8.6,25.1c-2.4,3.9-5.2,6.8-8.3,8.5C361.2,292.7,359.2,293.2,357.2,293.2z M338.1,233.9c-0.3,0-0.6,0.1-0.9,0.3
			c-0.5,0.3-0.8,0.7-0.9,1.3c-0.1,0.6,0,1,0.3,1.5c0.3,0.5,0.7,0.7,1.2,0.8c3.2,0.8,6.2,1.3,9,1.5l1.7,0.2l-0.3,1.6
			c-2.9,14.1-3.9,25.5-2.8,33.8c0.4,3.6,1.4,6.8,2.9,9.4c1.6,2.6,3.5,4.3,5.9,5.2c2.6,1,5.1,0.8,7.6-0.6c2.7-1.5,5.1-4,7.2-7.5
			c3.4-5.7,6.2-13.8,8.3-24.1c0.1-0.5,0-1-0.3-1.4c-0.3-0.5-0.8-0.8-1.4-0.9c-0.5-0.1-1,0-1.4,0.3c-0.5,0.4-0.8,0.8-1,1.4
			c-1.8,9.7-4.4,17.3-7.6,22.7c-3.3,5.5-6.6,7.6-10,6.4c-1.5-0.6-2.8-1.8-4-3.8c-1.1-1.9-1.8-4.4-2.2-7.4c-1-8,0-19.4,3-33.8
			l0.2-1.1l1.2-0.1c3.7-0.2,7.7-0.7,11.8-1.7c0.6-0.1,1-0.4,1.3-0.8c0.3-0.5,0.4-1,0.3-1.5c-0.1-0.6-0.4-1-0.9-1.3
			c-0.5-0.3-0.9-0.4-1.5-0.2c-3.3,0.7-6.4,1.2-9.3,1.3l-2,0.1l0.4-1.9c1.5-6.6,3.3-13.6,5.5-20.7c0.1-0.5,0.1-1-0.2-1.6
			c-0.3-0.5-0.7-0.8-1.2-1c-0.5-0.1-1-0.1-1.5,0.2c-0.5,0.3-0.8,0.6-1,1.1c-2.3,7.9-4.3,15.5-6,22.5l-0.3,1.3l-1.3-0.1
			c-2.8-0.3-5.9-0.8-9.1-1.5C338.5,233.9,338.3,233.9,338.1,233.9z"/>
	</g>
	<g>
		<path fill="#3D8699" d="M394.3,242.5l1.3,0.5c2.3,0.9,4.3,2.7,5.9,5.5c2.7,4.7,3.9,10.7,3.5,17.9c-0.3,6.8-1.8,12.4-4.7,17
			c1.3,0.7,2.6,1.1,3.9,1.2c3.1,0.2,5.9-1.9,8.3-6.2c0.6-1,1.1-2.1,1.6-3.1c0.5-1,0.8-1.9,1.1-2.6c0.3-0.7,0.6-1.7,0.9-2.9
			c0.3-1.3,0.6-2.1,0.8-2.7c0.2-0.5,0.4-1.6,0.8-3.2c0.3-1.6,0.6-2.7,0.8-3.3c0.2-1,0.7-1.7,1.5-2.2c0.8-0.5,1.7-0.7,2.7-0.5
			c1,0.2,1.7,0.7,2.2,1.6c0.5,0.8,0.7,1.7,0.4,2.7c-0.1,0.5-0.3,1.6-0.7,3.2c-0.4,1.6-0.6,2.8-0.8,3.4c-0.1,0.6-0.4,1.6-0.8,3
			c-0.4,1.4-0.8,2.5-1.1,3.4c-0.3,0.9-0.8,1.9-1.4,3.1c-0.6,1.2-1.2,2.4-1.8,3.5c-3.9,6.8-8.9,10.1-15,9.9c-2.8-0.2-5.5-1.1-8.3-2.9
			c-4.2,3.2-9.1,4.2-14.7,3c-5.9-1.1-9.7-4.6-11.3-10.5c-1.2-4.7-0.9-10.1,0.9-16.2c1.7-5.7,4.4-10.8,7.9-15.2
			c4-4.9,8.2-7.8,12.7-8.6C392.4,241,393.4,241.5,394.3,242.5z M390,284l-0.5-0.5c-2.8-3.2-5-7-6.7-11.4c-1.7-4.4-2.5-8.7-2.4-12.9
			c-1.4,2.6-2.5,5.2-3.2,7.9c-1.5,4.9-1.8,9-0.9,12.3c0.9,3,2.8,4.9,5.9,5.6C385.1,285.6,387.8,285.3,390,284z M394.8,278.8
			c1.9-3.4,2.9-7.6,3.1-12.7c0.3-6-0.6-10.7-2.6-14c-0.7-1.4-1.5-2.2-2.3-2.5c-0.7-0.3-1.6-0.2-2.6,0.4c-0.1,0-0.2,0.1-0.3,0.3
			c-0.3,0.5-0.6,1.2-0.9,2c-1.9,3.8-2.3,8.2-1.1,13.3C389.3,270.4,391.5,274.9,394.8,278.8z"/>
		<path fill="#3D8699" d="M385.2,293.8c-1.5,0-3.1-0.2-4.8-0.5c-6.4-1.2-10.6-5.1-12.4-11.6c-1.3-4.9-1-10.7,0.9-17.1
			c1.8-5.9,4.5-11.2,8.2-15.7c4.2-5.2,8.8-8.3,13.7-9.1c1.7-0.2,3.2,0.3,4.4,1.5l1,0.4c2.6,1,4.9,3,6.6,6.1
			c2.8,4.9,4.1,11.2,3.7,18.7c-0.2,6.3-1.6,11.7-4,16.3c0.6,0.2,1.2,0.3,1.9,0.4c2.5,0.1,4.8-1.7,6.9-5.5c0.6-1,1.1-2,1.6-3
			c0.5-1,0.8-1.9,1.1-2.5c0.2-0.6,0.5-1.6,0.9-2.8c0.4-1.3,0.6-2.2,0.8-2.7c0.1-0.3,0.3-1.1,0.7-3c0.3-1.6,0.6-2.7,0.8-3.3
			c0.3-1.3,1-2.4,2.2-3.1c1.2-0.7,2.4-1,3.8-0.6c1.3,0.3,2.4,1.1,3.1,2.2c0.7,1.2,0.9,2.5,0.6,3.8c-0.1,0.6-0.3,1.7-0.7,3.3
			c-0.4,1.6-0.6,2.7-0.8,3.3c-0.1,0.6-0.4,1.6-0.8,3.1c-0.4,1.4-0.8,2.6-1.2,3.5c-0.4,0.9-0.8,1.9-1.4,3.2c-0.6,1.2-1.2,2.4-1.8,3.6
			c-4.2,7.4-9.7,10.9-16.3,10.7c-2.7-0.2-5.5-1-8.2-2.6C392.5,292.7,389,293.8,385.2,293.8z M391.6,242.7c-0.1,0-0.2,0-0.4,0
			c-4.1,0.7-8,3.4-11.8,8c-3.4,4.2-6,9.2-7.7,14.7c-1.7,5.9-2,11.1-0.9,15.4c1.5,5.3,4.8,8.4,10.1,9.4c5.3,1.1,9.7,0.2,13.5-2.7
			l0.8-0.6l0.9,0.6c2.5,1.6,5.1,2.5,7.6,2.6c5.5,0.2,9.9-2.8,13.6-9.1c0.6-1.1,1.1-2.2,1.7-3.4c0.6-1.2,1-2.2,1.3-3
			c0.3-0.8,0.7-1.9,1.1-3.2c0.4-1.4,0.6-2.3,0.8-2.9c0.1-0.6,0.4-1.8,0.8-3.4c0.5-2.1,0.6-2.9,0.7-3.2l0-0.1c0.1-0.5,0.1-1-0.2-1.5
			c-0.3-0.5-0.7-0.8-1.3-0.9c-0.6-0.1-1,0-1.5,0.3c-0.5,0.3-0.7,0.7-0.8,1.2l0,0.1c-0.2,0.6-0.4,1.7-0.8,3.2
			c-0.4,1.7-0.6,2.8-0.8,3.3c-0.2,0.5-0.4,1.4-0.8,2.6c-0.4,1.3-0.7,2.3-1,3.1c-0.3,0.7-0.6,1.6-1.1,2.7c-0.5,1.1-1.1,2.2-1.7,3.3
			c-2.7,4.8-6,7.2-9.7,7c-1.5-0.1-3-0.6-4.5-1.3l-1.4-0.8l0.8-1.4c2.7-4.3,4.2-9.8,4.5-16.3c0.3-7-0.8-12.7-3.3-17.1
			c-1.4-2.5-3.1-4.1-5.1-4.8l-1.7-0.7l-0.2-0.3C392.7,242.9,392.2,242.7,391.6,242.7z M384.9,286.8c-1,0-2-0.1-3.1-0.3
			c-3.6-0.8-6-3.1-7-6.6c-0.9-3.7-0.6-8.1,0.9-13.2c0.8-2.8,1.9-5.5,3.4-8.2l3-5.5l-0.1,6.3c-0.1,4,0.7,8.2,2.3,12.4
			c1.6,4.2,3.8,7.8,6.4,10.9l1.9,1.9l-1.7,1C389,286.3,387,286.8,384.9,286.8z M379.3,265.2c-0.3,0.8-0.5,1.5-0.8,2.3
			c-1.4,4.6-1.7,8.5-0.9,11.6c0.7,2.5,2.2,3.9,4.7,4.5c1.9,0.4,3.6,0.3,5.1-0.1c-2.5-3.1-4.5-6.7-6.1-10.8
			C380.4,270.1,379.8,267.6,379.3,265.2z M395.1,281.4l-1.4-1.6c-3.4-4.1-5.8-8.8-7-14c-1.2-5.4-0.8-10.2,1.2-14.3
			c0.3-0.7,0.6-1.4,0.9-1.9c0.3-0.6,0.7-0.8,1-1c1.4-0.8,2.6-0.9,3.7-0.4c1.2,0.4,2.2,1.4,3.1,3.2c2.1,3.6,3.1,8.6,2.8,14.8
			c-0.2,5.3-1.3,9.8-3.3,13.4L395.1,281.4z M391.4,251.1c-0.2,0.5-0.5,1-0.8,1.6c-1.8,3.5-2.1,7.7-1,12.3c0.9,4,2.6,7.7,4.9,10.9
			c1.1-2.8,1.8-6.1,1.9-10c0.2-5.7-0.6-10.1-2.4-13.2l0-0.1c-0.7-1.4-1.2-1.6-1.4-1.7l-0.2-0.1C392.2,250.8,391.9,250.8,391.4,251.1
			z"/>
	</g>
	<g>
		<path fill="#3D8699" d="M477,246.3c-0.4-4.9-0.6-9.8-0.4-14.7c0.6-12.5,3.2-21.5,7.8-27.2c3-3.7,6.4-5.5,10.1-5.2
			c2.1,0.1,3.9,0.8,5.4,2.2c1.5,1.4,2.7,3.2,3.4,5.6c0.6,2,0.8,4.6,0.7,7.9c0,0.8-0.1,2-0.2,3.5c-0.1,1.6-0.2,2.7-0.2,3.4
			c0,0.4-0.1,0.9-0.4,1.4c-3.9,20-8.7,35.9-14.4,47.6l1,3.5c1.3,3.6,2.6,6.1,4,7.3c0.3,0.3,0.7,0.5,1,0.5c0.5,0,1.2-0.3,2-0.9
			c5-3.9,8.7-12,10.9-24.3c0.2-1,0.7-1.7,1.5-2.3c0.8-0.6,1.7-0.8,2.7-0.6c1,0.2,1.7,0.7,2.3,1.5c0.6,0.8,0.8,1.7,0.6,2.7
			c-2.6,14-7.1,23.5-13.5,28.5c-2.2,1.6-4.3,2.5-6.4,2.5s-4-0.7-5.7-2.2c-1.9-1.7-3.6-4.4-5.1-7.9l-0.9,1.4
			c-2.8,3.8-6.2,6.5-10.3,8.2c-2.2,1.1-4.6,1.4-7.3,0.9c-2.7-0.5-5-2-7-4.6c-2.8-3.8-3.9-9-3.2-15.6c0.6-5.8,2.3-11,5.2-15.7
			c3.5-5.5,7.5-8.2,12.2-8.3C474.2,245.4,475.6,245.7,477,246.3z M481.4,270.1c-0.4-1.6-0.8-3.4-1.2-5.3c-1-4.7-1.5-7.1-1.6-7.3
			c-0.1-0.3-0.1-0.7-0.1-1c-2-2.7-3.9-4-5.7-4c-2.1,0-4.2,1.7-6.2,5.1c-2.3,3.8-3.7,8.1-4.2,12.7c-0.5,4.7,0.1,8.2,2,10.7
			c1.4,1.9,3.4,2.3,6,1.3c2.8-1.1,5.2-3.1,7.1-5.9C478.8,274.5,480.1,272.4,481.4,270.1z M484.7,255.4c0.4,0.8,0.8,1.7,1.2,2.7
			c0,0.1,0,0.2,0.1,0.3c2.4-9.1,4.5-19.9,6.4-32.5c0-0.3,0-0.5,0-0.7c0-0.5,0-1.5,0.1-2.9c0.1-1.4,0.1-2.4,0.1-3.1
			c0.2-2.3,0.1-4.1-0.3-5.2c-0.3-1.7-0.9-2.6-1.6-2.6c-1-0.1-2,0.7-3,2.5c-2.4,4.1-3.8,11.2-4.2,21.3
			C483.4,242.5,483.7,249.2,484.7,255.4z"/>
		<path fill="#3D8699" d="M468.1,291.3c-0.9,0-1.8-0.1-2.8-0.3c-3.1-0.6-5.7-2.3-7.9-5.1c-3-4.1-4.2-9.7-3.5-16.6
			c0.6-6,2.4-11.5,5.4-16.4c3.7-5.9,8.3-8.9,13.5-9c0,0,0,0,0,0c0.8,0,1.7,0.1,2.5,0.3c-0.3-4.2-0.4-8.5-0.2-12.6
			c0.6-12.8,3.4-22.2,8.1-28.1c3.3-4.1,7.2-6,11.4-5.7c2.4,0.1,4.5,1,6.3,2.6c1.7,1.6,3,3.7,3.9,6.2c0.7,2.2,0.9,5,0.7,8.5
			c0,0.7-0.1,1.9-0.2,3.6c-0.1,1.5-0.2,2.6-0.2,3.3c0,0.6-0.2,1.2-0.5,1.9c-3.8,19.7-8.6,35.6-14.3,47.2l0.9,3
			c1.5,4.1,2.8,5.9,3.6,6.6l0.1,0.1c0,0,0,0,0.1,0.1c0.1,0,0.4-0.2,0.9-0.6c4.7-3.7,8.2-11.5,10.4-23.4c0.2-1.4,1-2.4,2.1-3.2
			c1.2-0.8,2.4-1.1,3.8-0.8c1.4,0.2,2.4,1,3.2,2.1c0.8,1.2,1.1,2.4,0.8,3.8c-2.7,14.4-7.4,24.2-14.1,29.4c-4.9,3.7-10,3.6-14,0.2
			c-1.6-1.5-3.1-3.5-4.4-6c-2.9,3.7-6.3,6.3-10.3,7.9C471.9,290.9,470.1,291.3,468.1,291.3z M472.8,246.9c-4.2,0.1-7.7,2.6-11,7.6
			c-2.7,4.4-4.4,9.5-5,15.1c-0.6,6.2,0.4,11.1,3,14.6c1.7,2.2,3.6,3.5,6,4c2.4,0.5,4.5,0.2,6.4-0.8l0.1-0.1c3.8-1.5,7-4.1,9.6-7.7
			l2.4-3.8l1.1,2.7c1.4,3.3,3,5.8,4.7,7.4c1.4,1.2,3,1.8,4.7,1.8c1.7,0,3.6-0.7,5.5-2.2c6.1-4.7,10.4-13.9,13-27.5
			c0.1-0.6,0-1-0.3-1.5c-0.3-0.5-0.7-0.8-1.3-0.9c-0.6-0.1-1.1,0-1.5,0.3c-0.5,0.3-0.8,0.8-0.9,1.3c-2.3,12.8-6.1,21.1-11.5,25.2
			c-1.1,0.8-2,1.2-2.9,1.2c-0.5,0-1.3-0.2-2.1-0.9c-1.6-1.4-3-4-4.4-7.9l-1.2-4.1l0.3-0.5c5.6-11.5,10.4-27.4,14.3-47.2l0-0.2
			l0.1-0.2c0.2-0.4,0.2-0.6,0.2-0.8c0-0.7,0.1-1.9,0.2-3.5c0.1-1.5,0.2-2.7,0.2-3.4c0.2-3.2,0-5.7-0.6-7.5c-0.7-2-1.7-3.7-3-4.9
			c-1.3-1.1-2.7-1.7-4.4-1.8c-3.3-0.2-6.2,1.3-8.9,4.6c-4.4,5.4-6.9,14.2-7.5,26.3c-0.2,4.8,0,9.6,0.4,14.5l0.2,2.5l-2.3-1
			C475.2,247.1,474,246.9,472.8,246.9z M467.8,284.2c-2.4,0-3.9-1.4-4.7-2.5c-2-2.7-2.8-6.7-2.2-11.7c0.4-4.9,1.9-9.4,4.4-13.4
			c2.4-3.9,4.9-5.8,7.5-5.8c2.3,0,4.6,1.5,6.9,4.6l0.3,0.4v0.5c0,0.2,0,0.4,0.1,0.6c0.1,0.5,0.5,1.8,1.6,7.4
			c0.3,1.9,0.7,3.6,1.2,5.2l0.2,0.6l-0.3,0.5c-1.3,2.4-2.7,4.5-4,6.4c-2.2,3-4.8,5.1-7.8,6.4C469.8,284,468.7,284.2,467.8,284.2z
			 M472.8,253.9c-1.5,0-3.2,1.5-5,4.4c-2.2,3.6-3.5,7.7-3.9,12.1c-0.5,4.3,0.1,7.5,1.7,9.6c0.7,1,1.7,1.8,4.2,0.8
			c2.5-1,4.7-2.8,6.5-5.3c1.2-1.6,2.3-3.5,3.5-5.6c-0.4-1.5-0.7-3.1-1-4.9c-1.1-5.2-1.4-6.6-1.5-7l-0.1-0.2
			c-0.1-0.3-0.1-0.6-0.1-0.9C475.5,254.9,474,253.9,472.8,253.9z M486.7,261.2l-1.8-1.8c-0.3-0.3-0.5-0.6-0.5-1
			c-0.3-0.9-0.6-1.7-1-2.4l-0.1-0.2l0-0.3c-1-6.2-1.3-13.1-1.1-20.4c0.4-10.5,1.8-17.7,4.4-22c0.5-0.8,2-3.4,4.3-3.2
			c2.2,0.1,2.7,2.7,2.9,3.7c0.4,1.3,0.5,3.1,0.3,5.6c0,0.7,0,1.7-0.1,3.2c-0.1,1.7-0.1,2.4-0.1,2.8l0,0.9c-1.8,12.6-4,23.6-6.4,32.7
			L486.7,261.2z M490.5,213c-0.2,0.1-0.7,0.5-1.4,1.7c-2.3,3.8-3.6,10.8-3.9,20.6c-0.2,6.2,0,12.1,0.7,17.5c1.9-7.9,3.6-16.9,5-27
			v-0.5c0-0.6,0-1.5,0.1-3c0.1-1.4,0.1-2.4,0.1-3l0-0.1c0.2-2.7,0-4-0.2-4.7l0-0.1C490.7,213.6,490.6,213.2,490.5,213z"/>
	</g>
	<g>
		<path fill="#3D8699" d="M519.1,241.7c3.6,0.9,7.2,1.4,10.8,1.7h0.1c0.2-0.1,0.6-0.1,1.2-0.1c2.1-0.3,3.6,0.3,4.7,1.8
			c0.5,0.7,0.8,1.6,0.8,2.6c0,0.4,0,1-0.1,1.7c-0.1,0.8-0.3,1.9-0.7,3.5l-1.3,4.8c-0.6,2.3-1,3.9-1.3,5.1c-1,4.2-1.7,7.8-2.1,10.5
			c-0.5,3.4-0.5,5.8,0,7.3c0.3,1.1,0.9,2,1.7,2.7c0.8,0.7,1.6,1,2.6,0.9c3.1-0.2,6.1-3.2,8.8-9.2c2.2-4.6,3.9-9.9,5.2-16
			c0.1-1,0.5-1.7,1.4-2.3c0.8-0.6,1.7-0.7,2.5-0.5c0.9,0.2,1.6,0.7,2.1,1.6c0.6,0.8,0.7,1.7,0.5,2.5c-1.4,6.7-3.2,12.6-5.6,17.7
			c-3.9,8.5-8.8,12.9-14.7,13.3c-2.7,0.2-5-0.6-7-2.4c-2-1.8-3.4-3.9-4.1-6.2c-0.7-2.4-0.8-5.8-0.2-10.2c0.3-3,1.1-6.8,2.2-11.3
			c0.3-1.1,0.8-2.8,1.3-5.1l1.2-4.7l0.3-1c-2.9-0.2-5.6-0.5-8.3-1l-0.5,2.9c-0.3,1.1-0.5,2-0.6,2.5c-0.1,0.3-0.2,0.7-0.4,1.2
			l-0.9,2.6c-0.4,1.1-0.9,2.3-1.4,3.5c-0.3,1-0.9,1.6-1.8,2c-0.8,0.4-1.7,0.4-2.5,0.1c-0.9-0.3-1.5-1-1.9-1.8
			c-0.4-0.9-0.4-1.7-0.1-2.6c0.4-1.3,0.8-2.5,1.2-3.6c0.4-1.1,0.7-1.8,0.8-2.2c0.2-0.4,0.3-0.8,0.4-1.1c0.1-0.3,0.2-1,0.4-2l1-4.7
			c0-0.2,0-0.3,0.1-0.5c0-0.4,0-0.8,0.1-1.2c0.2-1,0.7-1.7,1.4-2.2C517.3,241.6,518.1,241.5,519.1,241.7z"/>
		<path fill="#3D8699" d="M535,292.8c-2.8,0-5.2-0.9-7.3-2.8c-2.2-2-3.7-4.3-4.5-6.9c-0.8-2.6-0.9-6.2-0.2-10.9
			c0.3-3,1.1-6.9,2.2-11.5c0.4-1.2,0.8-2.9,1.3-5l1-4c-1.8-0.2-3.5-0.4-5.2-0.7l-0.3,1.4c-0.3,1.2-0.5,2-0.7,2.6
			c-0.1,0.4-0.3,0.8-0.4,1.3l-0.9,2.5c-0.5,1.2-1,2.4-1.5,3.6c-0.5,1.3-1.3,2.2-2.5,2.8c-1.2,0.6-2.5,0.6-3.7,0.1
			c-1.2-0.5-2.1-1.4-2.7-2.6c-0.6-1.2-0.6-2.5-0.1-3.8c0.4-1.2,0.8-2.4,1.2-3.5c0.4-1.2,0.7-1.9,0.9-2.3c0.1-0.3,0.2-0.6,0.3-0.9
			c0.1-0.3,0.2-0.9,0.4-1.9l1-4.6c0-0.2,0.1-0.4,0.1-0.6c0-0.4,0.1-0.9,0.2-1.2c0.2-1.2,0.9-2.4,2.1-3.1c1.1-0.8,2.4-1,3.8-0.6
			c3.5,0.8,7,1.4,10.3,1.6c0.3-0.1,0.7-0.1,1.3-0.1c3.3-0.4,5.1,1.1,6,2.5c0.7,0.9,1.1,2.1,1.1,3.5c0,0.5,0,1.1-0.1,1.9
			c-0.1,0.8-0.3,2-0.7,3.7l-1.3,4.9c-0.6,2.2-1,3.9-1.3,5c-1,4.2-1.7,7.7-2.1,10.4c-0.6,3.9-0.4,5.7-0.1,6.6
			c0.3,0.9,0.7,1.6,1.3,2.1c0.5,0.4,0.9,0.6,1.5,0.5c2.5-0.1,5.1-3,7.6-8.4c2.1-4.5,3.8-9.7,5.1-15.6c0.1-1.4,0.8-2.5,2-3.3
			c1.2-0.8,2.5-1.1,3.7-0.7c1.2,0.3,2.2,1,3,2.2c0.8,1.2,1,2.5,0.7,3.7c-1.4,6.7-3.3,12.8-5.7,17.9c-4.1,9-9.5,13.8-16,14.1
			C535.6,292.8,535.3,292.8,535,292.8z M519.9,247.5l1.5,0.3c2.6,0.5,5.3,0.8,8.1,1l1.8,0.1l-1.9,7.5c-0.5,2.2-1,4-1.3,5.1
			c-1.1,4.4-1.8,8.1-2.2,11c-0.6,4.2-0.5,7.4,0.1,9.6c0.7,2.1,1.9,4,3.7,5.6c1.7,1.5,3.6,2.2,5.9,2c5.3-0.3,9.8-4.5,13.4-12.4
			c2.3-5,4.1-10.8,5.5-17.4l0-0.1c0.1-0.3,0.1-0.7-0.3-1.3c-0.4-0.5-0.8-0.8-1.3-1c-0.3-0.1-0.7-0.1-1.3,0.3
			c-0.5,0.3-0.7,0.7-0.7,1.2l0,0.2c-1.3,6.1-3.1,11.6-5.3,16.3c-3.1,6.6-6.4,9.9-10.1,10.1c-1.3,0.1-2.6-0.3-3.7-1.3
			c-1-0.9-1.7-2-2.1-3.4c-0.6-1.7-0.6-4.3,0-7.9c0.3-2.8,1.1-6.4,2.1-10.7c0.3-1.1,0.7-2.9,1.3-5.1l1.3-4.8c0.3-1.4,0.5-2.6,0.6-3.3
			c0.1-0.7,0.1-1.2,0.1-1.5c0-0.7-0.2-1.3-0.5-1.7c-0.5-0.7-1.3-1.5-3.3-1.2l-0.2,0c-0.3,0-0.5,0-0.6,0l-0.2,0.1l-0.6,0
			c-3.6-0.3-7.3-0.8-11-1.7l0,0c-0.5-0.1-1-0.1-1.4,0.2c-0.4,0.3-0.7,0.7-0.8,1.2c-0.1,0.3-0.1,0.6-0.1,0.9v0.4l-0.2,0.5l-1,4.7
			c-0.2,0.9-0.3,1.6-0.4,2c-0.1,0.4-0.3,0.9-0.5,1.4c-0.2,0.3-0.4,1-0.8,2.1c-0.4,1.1-0.8,2.3-1.2,3.5c-0.2,0.6-0.2,1,0,1.5
			c0.2,0.5,0.6,0.8,1.1,1c0.5,0.2,0.9,0.2,1.3,0c0.5-0.2,0.8-0.6,1-1.2c0.5-1.2,1-2.4,1.4-3.5l0.9-2.6c0.2-0.4,0.3-0.8,0.4-1l0-0.1
			c0.1-0.3,0.3-1,0.6-2.3L519.9,247.5z"/>
	</g>
	<g>
		<path fill="#3D8699" d="M561.7,247.7c-0.1,0.7-0.5,3.4-1.3,8.1c-0.8,4.3-1.3,8.1-1.7,11.4c-0.5,4.3-0.7,7.8-0.7,10.3
			c0.2,2.8,0.5,4.5,1,5.1c0.5,0.6,1,1,1.3,1c0.3,0,0.7-0.2,1.2-0.5c1.6-1.2,3.5-3.8,5.6-7.8c2-3.9,4.5-10.4,7.7-19.4
			c0.3-0.9,1-1.5,1.8-2c0.9-0.4,1.8-0.5,2.7-0.2c0.9,0.3,1.6,0.9,2,1.8c0.4,0.9,0.5,1.8,0.3,2.7c-3.3,9.4-6,16.1-8.2,20.3
			c-2.6,4.9-5.2,8.3-7.7,10.1c-2,1.5-4,2.1-6,1.8c-2.2-0.2-4.1-1.3-5.9-3.2c-1.6-1.9-2.6-5-2.9-9.4c-0.1-3,0.1-6.9,0.6-11.6
			c0.3-2.9,0.9-6.8,1.7-11.4c0.8-4.7,1.2-7.3,1.3-7.9c0.2-1,0.6-1.8,1.4-2.4c0.7-0.6,1.6-0.8,2.6-0.7c1,0.1,1.8,0.6,2.3,1.3
			C561.6,245.9,561.8,246.8,561.7,247.7z M562.5,226c0.7,0.7,1,1.5,1,2.5c0,1-0.3,1.8-1,2.5c-0.7,0.7-1.5,1-2.5,1
			c-1,0-1.8-0.3-2.5-1c-0.7-0.7-1-1.5-1-2.5c0-1,0.3-1.8,1-2.5c0.7-0.7,1.5-1,2.5-1C561,225,561.8,225.3,562.5,226z"/>
		<path fill="#3D8699" d="M560.7,292c-0.4,0-0.7,0-1.1-0.1c-2.5-0.2-4.8-1.5-6.8-3.8c-1.9-2.2-2.9-5.5-3.2-10.3
			c-0.1-3.1,0.1-7.1,0.7-11.8c0.3-3,0.9-6.8,1.7-11.5c1-5.8,1.2-7.5,1.3-7.9c0.2-1.5,0.9-2.6,1.9-3.4c1.1-0.8,2.3-1.1,3.7-0.9
			c1.4,0.2,2.5,0.8,3.3,1.9c0.8,1,1.1,2.2,1,3.6l0,0.1c-0.1,0.7-0.5,3.5-1.3,8.1c-0.8,4.3-1.3,8.1-1.7,11.3
			c-0.5,4.3-0.7,7.6-0.6,10.1c0.2,3.4,0.6,4.1,0.7,4.2c0.1,0.1,0.2,0.3,0.3,0.3c0.1,0,0.1-0.1,0.2-0.1c0.9-0.7,2.6-2.6,5.1-7.2
			c2-3.8,4.5-10.3,7.6-19.2c0.5-1.3,1.4-2.2,2.6-2.8c1.2-0.6,2.5-0.7,3.8-0.3c1.3,0.4,2.3,1.3,2.9,2.5c0.6,1.2,0.7,2.5,0.4,3.8
			l0,0.1c-3.3,9.4-6.1,16.3-8.3,20.5c-2.7,5.2-5.4,8.7-8.1,10.7C564.7,291.3,562.7,292,560.7,292z M558.1,245.3
			c-0.4,0-0.8,0.1-1.1,0.4c-0.4,0.3-0.7,0.8-0.8,1.5c-0.1,0.6-0.5,3.3-1.3,7.9c-0.8,4.7-1.3,8.5-1.7,11.4c-0.5,4.6-0.7,8.4-0.6,11.4
			c0.2,3.9,1.1,6.8,2.5,8.4c1.5,1.7,3.1,2.6,4.8,2.7c1.7,0.2,3.3-0.3,5-1.5c2.3-1.7,4.8-4.9,7.2-9.6c2.1-4.1,4.8-10.8,8.1-20
			c0.1-0.6,0.1-1.1-0.2-1.6c-0.3-0.5-0.6-0.8-1.2-1c-0.5-0.2-1-0.1-1.5,0.1c-0.5,0.3-0.9,0.6-1.1,1.2c-3.1,9-5.7,15.5-7.7,19.5
			c-2.2,4.2-4.2,7-6,8.3c-0.9,0.6-1.5,0.8-2.1,0.8l-0.4,0c-0.7-0.2-1.3-0.6-2.1-1.5c-0.5-0.6-1.1-1.8-1.4-6
			c-0.1-2.6,0.1-6.2,0.7-10.5c0.3-3.3,0.9-7.2,1.7-11.5c0.9-5.6,1.2-7.4,1.3-8c0-0.6-0.1-1-0.4-1.5c-0.3-0.4-0.7-0.6-1.3-0.7
			C558.4,245.3,558.3,245.3,558.1,245.3z M560.9,282.2L560.9,282.2L560.9,282.2z M560.1,233.5c-1.3,0-2.6-0.5-3.5-1.5
			c-1-1-1.5-2.2-1.5-3.5c0-1.4,0.5-2.6,1.5-3.5c1-1,2.2-1.5,3.5-1.5c1.4,0,2.5,0.5,3.5,1.5l0,0c1,1,1.5,2.2,1.5,3.5
			c0,1.4-0.5,2.5-1.5,3.5S561.4,233.5,560.1,233.5z M560.1,226.5c-0.6,0-1,0.2-1.4,0.6c-0.4,0.4-0.6,0.9-0.6,1.4
			c0,0.6,0.2,1,0.6,1.4c0.4,0.4,0.9,0.6,1.4,0.6c0.6,0,1-0.2,1.4-0.6c0.4-0.4,0.6-0.9,0.6-1.4c0-0.6-0.2-1-0.6-1.4
			C561,226.6,560.6,226.5,560.1,226.5z"/>
	</g>
	<g>
		<path fill="#3D8699" d="M587.2,247.4c-1.8,7.7-2.8,14.6-3,20.5c-0.2,4.2,0.1,7.8,0.9,10.5c0.8,2.6,1.9,4.2,3.2,4.9
			c2.4,1.1,5.1,0.5,8.1-2c3.2-2.7,6-6.8,8.5-12.2l0.6-1.4c-2.6-1.8-4.6-4.3-6.1-7.5c-2.1-4.9-2.5-9.4-1.2-13.7
			c0.7-2.4,2-4.2,3.9-5.3c2.3-1.2,4.8-1.2,7.5,0.1c4.3,2,6.4,6.4,6.1,13.3c-0.1,2.8-0.5,5.8-1.3,9c3.6,0,7.9-1.9,12.7-5.7
			c0.9-0.6,1.8-0.9,2.8-0.8c1,0.1,1.8,0.5,2.4,1.3c0.6,0.8,0.9,1.6,0.8,2.6c-0.1,1-0.5,1.7-1.3,2.3c-7.2,5.6-13.8,8-19.8,7.1
			l-0.7,1.4c-2.9,6.4-6.3,11.4-10.3,14.8c-5.5,4.4-10.8,5.4-16.1,2.9c-3.4-1.6-5.8-4.8-7.2-9.4c-0.9-3.4-1.2-7.6-1-12.6
			c0.3-6.4,1.3-13.7,3.2-21.8c0.2-1,0.7-1.7,1.6-2.2c0.9-0.5,1.8-0.7,2.7-0.5c1,0.2,1.7,0.7,2.3,1.6
			C587.3,245.6,587.5,246.5,587.2,247.4z M603.3,247.4c-0.2,0.3-0.3,0.6-0.5,1.2c-0.8,2.7-0.5,5.7,0.9,9c0.4,1,1,2,1.6,2.7
			c0.4-2.1,0.7-4,0.8-5.7c0.1-3.8-0.6-6.1-2.1-6.9C603.7,247.6,603.5,247.5,603.3,247.4z"/>
		<path fill="#3D8699" d="M590.9,292.6c-2.2,0-4.3-0.5-6.4-1.5c-3.8-1.8-6.4-5.3-7.9-10.3c-0.9-3.6-1.3-8-1.1-13.1
			c0.3-6.5,1.4-13.9,3.3-22.1c0.2-1.3,1-2.4,2.2-3.2c1.2-0.7,2.5-0.9,3.8-0.6c1.3,0.3,2.4,1,3.2,2.2c0.8,1.2,1,2.5,0.7,3.9
			c-1.8,7.6-2.8,14.4-2.9,20.2c-0.2,4.1,0.1,7.5,0.9,10.1c0.6,2.1,1.5,3.5,2.5,4c1.8,0.8,4,0.3,6.4-1.8c3-2.5,5.7-6.4,8-11.7
			l0.2-0.3c-2.3-1.9-4.2-4.4-5.6-7.4c-2.2-5.2-2.6-10.1-1.2-14.7c0.8-2.8,2.3-4.9,4.6-6.2c2.7-1.5,5.7-1.4,8.9,0.1
			c4.9,2.3,7.3,7.2,7,14.7c-0.1,2.3-0.4,4.7-0.9,7.2c2.9-0.6,6.2-2.3,9.9-5.2c1.2-0.9,2.5-1.2,3.9-1.1c1.4,0.1,2.6,0.8,3.5,1.9
			c0.8,1.1,1.2,2.3,1.1,3.7c-0.1,1.4-0.8,2.5-1.9,3.4c-7.1,5.5-13.7,8.1-19.8,7.6l-0.2,0.4c-2.9,6.6-6.5,11.7-10.7,15.3
			C598.5,291,594.7,292.6,590.9,292.6z M583.7,244.6c-0.4,0-0.8,0.1-1.1,0.3c-0.5,0.3-0.8,0.7-0.9,1.2c-1.9,8.1-3,15.3-3.2,21.6
			c-0.2,4.8,0.2,8.9,1,12.2c1.3,4.2,3.3,6.9,6.4,8.4c4.8,2.3,9.5,1.4,14.5-2.7c3.8-3.3,7.1-8.1,9.8-14.3l1.1-2.5l1.1,0.2
			c5.5,0.8,11.8-1.5,18.6-6.8c0.5-0.4,0.7-0.8,0.7-1.3c0.1-0.6-0.1-1.1-0.5-1.5c-0.3-0.5-0.8-0.7-1.3-0.7c-0.6-0.1-1.2,0.1-1.8,0.5
			c-5.1,4-9.6,6-13.6,6h-1.9l0.5-1.9c0.8-3.1,1.2-6,1.3-8.7c0.2-6.2-1.5-10.1-5.2-11.9c-2.3-1.1-4.4-1.2-6.2-0.2
			c-1.5,0.9-2.6,2.4-3.2,4.4c-1.2,3.9-0.8,8.2,1.1,12.6c1.3,2.9,3.2,5.2,5.6,6.9l1,0.7l-1.2,2.6c-2.5,5.6-5.5,9.9-8.9,12.7
			c-3.4,2.8-6.7,3.5-9.7,2.2c-1.8-0.9-3.1-2.8-4.1-5.9c-0.8-2.9-1.2-6.6-1-11c0.2-6,1.2-13,3-20.8l0-0.1c0.1-0.5,0.1-1-0.2-1.4
			c-0.3-0.5-0.8-0.8-1.4-0.9C584,244.6,583.8,244.6,583.7,244.6z M606.1,263.8l-2-2.6c-0.7-0.9-1.3-1.9-1.8-3.1c-1.5-3.6-1.8-7-1-10
			c0.2-0.7,0.5-1.2,0.7-1.6l0.7-1.1l1.2,0.6c0.1,0.1,0.3,0.1,0.4,0.2l0.2,0.1c2,1.1,3,3.8,2.9,8.2c-0.1,1.8-0.4,3.8-0.8,6
			L606.1,263.8z M604,250c-0.3,1.6-0.1,3.4,0.5,5.3c0-0.3,0-0.6,0.1-0.9C604.6,252.2,604.3,250.8,604,250z"/>
	</g>
	<g>
		<path fill="#3D8699" d="M638.7,247.7c-0.1,0.7-0.5,3.4-1.3,8.1c-0.8,4.3-1.3,8.1-1.7,11.4c-0.5,4.3-0.7,7.8-0.7,10.3
			c0.2,2.8,0.5,4.5,1,5.1c0.5,0.6,1,1,1.3,1c0.3,0,0.7-0.2,1.2-0.5c1.6-1.2,3.5-3.8,5.6-7.8c2-3.9,4.5-10.4,7.7-19.4
			c0.3-0.9,1-1.5,1.8-2c0.9-0.4,1.8-0.5,2.7-0.2c0.9,0.3,1.6,0.9,2,1.8c0.4,0.9,0.5,1.8,0.3,2.7c-3.3,9.4-6,16.1-8.2,20.3
			c-2.6,4.9-5.2,8.3-7.7,10.1c-2,1.5-4,2.1-6,1.8c-2.2-0.2-4.1-1.3-5.9-3.2c-1.6-1.9-2.6-5-2.9-9.4c-0.1-3,0.1-6.9,0.6-11.6
			c0.3-2.9,0.9-6.8,1.7-11.4c0.8-4.7,1.2-7.3,1.3-7.9c0.2-1,0.6-1.8,1.4-2.4c0.7-0.6,1.6-0.8,2.6-0.7c1,0.1,1.8,0.6,2.3,1.3
			C638.5,245.9,638.8,246.8,638.7,247.7z M639.5,226c0.7,0.7,1,1.5,1,2.5c0,1-0.3,1.8-1,2.5c-0.7,0.7-1.5,1-2.5,1
			c-1,0-1.8-0.3-2.5-1c-0.7-0.7-1-1.5-1-2.5c0-1,0.3-1.8,1-2.5c0.7-0.7,1.5-1,2.5-1C638,225,638.8,225.3,639.5,226z"/>
		<path fill="#3D8699" d="M637.6,292c-0.4,0-0.7,0-1.1-0.1c-2.5-0.2-4.8-1.5-6.8-3.8c-1.9-2.2-2.9-5.5-3.2-10.3
			c-0.1-3.1,0.1-7.1,0.7-11.8c0.3-3,0.9-6.8,1.7-11.5c1-5.8,1.2-7.5,1.3-7.9c0.2-1.5,0.9-2.6,1.9-3.4c1.1-0.8,2.3-1.1,3.7-0.9
			c1.4,0.2,2.5,0.8,3.3,1.9c0.8,1,1.1,2.2,1,3.6l0,0.1c-0.1,0.7-0.5,3.5-1.3,8.1c-0.8,4.3-1.3,8.1-1.7,11.3
			c-0.5,4.3-0.7,7.6-0.6,10.1c0.2,3.4,0.6,4.1,0.7,4.2c0.1,0.1,0.2,0.3,0.3,0.3c0.1,0,0.1-0.1,0.2-0.1c0.9-0.7,2.6-2.6,5.1-7.2
			c2-3.8,4.5-10.3,7.6-19.2c0.5-1.3,1.4-2.2,2.6-2.8c1.2-0.6,2.5-0.7,3.8-0.3c1.3,0.4,2.3,1.3,2.9,2.5c0.6,1.2,0.7,2.5,0.4,3.8
			l0,0.1c-3.3,9.4-6.1,16.3-8.3,20.5c-2.7,5.2-5.4,8.7-8.1,10.7C641.7,291.3,639.7,292,637.6,292z M635.1,245.3
			c-0.4,0-0.8,0.1-1.1,0.4c-0.4,0.3-0.7,0.8-0.8,1.5c-0.1,0.6-0.5,3.3-1.3,7.9c-0.8,4.7-1.3,8.5-1.7,11.4c-0.5,4.6-0.7,8.4-0.6,11.4
			c0.2,3.9,1.1,6.8,2.5,8.4c1.5,1.7,3.1,2.6,4.8,2.7c1.7,0.2,3.3-0.3,5-1.5c2.3-1.7,4.8-4.9,7.2-9.6c2.1-4.1,4.8-10.8,8.1-20
			c0.1-0.6,0.1-1.1-0.2-1.6c-0.3-0.5-0.6-0.8-1.2-1c-0.5-0.2-1-0.1-1.5,0.1c-0.5,0.3-0.9,0.6-1.1,1.2c-3.1,9-5.7,15.5-7.7,19.5
			c-2.2,4.2-4.2,7-6,8.3c-0.9,0.6-1.5,0.8-2.1,0.8l-0.4,0c-0.7-0.2-1.3-0.6-2.1-1.5c-0.5-0.6-1.1-1.8-1.4-6
			c-0.1-2.6,0.1-6.2,0.7-10.5c0.3-3.3,0.9-7.2,1.7-11.5c0.9-5.6,1.2-7.4,1.3-8c0-0.6-0.1-1-0.4-1.5c-0.3-0.4-0.7-0.6-1.3-0.7
			C635.3,245.3,635.2,245.3,635.1,245.3z M637.9,282.2L637.9,282.2L637.9,282.2z M637,233.5c-1.3,0-2.6-0.5-3.5-1.5
			c-1-1-1.5-2.2-1.5-3.5c0-1.4,0.5-2.6,1.5-3.5c1-1,2.2-1.5,3.5-1.5c1.4,0,2.5,0.5,3.5,1.5l0,0c1,1,1.5,2.2,1.5,3.5
			c0,1.4-0.5,2.5-1.5,3.5S638.4,233.5,637,233.5z M637,226.5c-0.6,0-1,0.2-1.4,0.6c-0.4,0.4-0.6,0.9-0.6,1.4c0,0.6,0.2,1,0.6,1.4
			c0.4,0.4,0.9,0.6,1.4,0.6c0.6,0,1-0.2,1.4-0.6c0.4-0.4,0.6-0.9,0.6-1.4c0-0.6-0.2-1-0.6-1.4C638,226.6,637.6,226.5,637,226.5z"/>
	</g>
	<g>
		<path fill="#3D8699" d="M673.5,249.3c-0.3,0.2-0.8,0.5-1.4,1c-1.6,1.3-3.5,3.6-5.5,6.9c-1.6,2.8-3.2,5.6-4.7,8.6
			c-1.4,3-2.3,5.1-2.6,6.2c-0.2,0.4-0.3,1.1-0.5,2c-0.6,3.6-1.3,7.2-2,10.7c0,0.3,0,0.6-0.1,0.8c0,0.3-0.1,0.7-0.3,1
			c-0.2,0.3-0.4,0.5-0.6,0.8c-1.2,1.2-2.6,1.5-4,0.8c-1-0.4-1.6-1.2-1.8-2.2c-0.1-0.2-0.1-0.4-0.1-0.6v-0.7v-0.7
			c0.1-0.8,0.3-2,0.7-3.8c0.5-2.9,1-5.4,1.4-7.4c1.1-7.6,2-15.4,2.5-23.3c0.1-1,0.5-1.8,1.2-2.4c0.7-0.7,1.6-0.9,2.5-0.8
			c1,0.1,1.8,0.5,2.4,1.2c0.6,0.7,0.9,1.6,0.8,2.5c-0.1,1-0.1,1.9-0.1,2.7c2.2-3.5,4.2-6,6.1-7.7c3.7-3.2,7.1-3.7,10.1-1.4
			c1.6,1.1,2.6,2.9,3.2,5.3c0.4,1.6,0.7,3.7,0.8,6.2c0,1.6-0.1,4.1-0.2,7.7c-0.1,3.6-0.2,5.7-0.2,6.4c-0.1,5.3,0.3,9.1,1.2,11.3
			c0.3,1,0.8,1.8,1.4,2.1c0.6,0.4,1.4,0.5,2.5,0.5c1.7-0.2,3-0.6,3.9-1.3c0.6-0.6,1.6-2,3-4.2c1.9-2.9,3.7-6.6,5.5-10.9l0.8-2.2
			v-0.3l0.1-1c0.1-0.1,0.2-0.2,0.2-0.3c0-0.1,0.1-0.2,0.1-0.3l0.5-0.9l2.6-6.2c0.4-0.9,1.1-1.5,2-1.8c0.9-0.3,1.8-0.3,2.7,0.1
			c0.9,0.4,1.5,1,1.9,1.9c0.3,0.9,0.3,1.8,0,2.7l-1.6,3.5v0.3c-0.2,0.6-1.1,3-2.7,7.3c-1.9,4.8-3.9,8.8-6,12.2
			c-1.7,2.7-3.2,4.5-4.4,5.6c-2,1.6-4.6,2.6-7.9,3c-2.8,0.3-5.2-0.3-7.1-1.7c-1.7-1.2-3-3-3.9-5.5c-1.1-3-1.6-7.7-1.6-13.9
			c0.1-0.8,0.2-2.9,0.3-6.2c0.1-3.4,0.1-5.9,0.1-7.5c-0.1-2-0.3-3.5-0.5-4.5C673.8,250,673.7,249.6,673.5,249.3z"/>
		<path fill="#3D8699" d="M685.5,291.7c-2.5,0-4.8-0.7-6.7-2c-2-1.4-3.5-3.5-4.5-6.2c-1.2-3.2-1.7-7.9-1.6-14.4l0-0.1
			c0.1-0.5,0.1-2,0.3-6.1c0.1-3.5,0.1-5.9,0.1-7.5c-0.1-1.4-0.2-2.6-0.3-3.5c-1.5,1.3-3.1,3.4-4.8,6.2c-1.6,2.7-3.2,5.6-4.6,8.5
			c-1.3,2.9-2.2,5-2.5,6l0,0.1c-0.1,0.2-0.2,0.7-0.4,1.7c-0.6,3.5-1.2,7.1-1.9,10.5c0,0.3-0.1,0.7-0.1,0.9c0,0.5-0.2,0.9-0.4,1.4
			l-0.1,0.2c-0.2,0.3-0.5,0.7-0.8,1c-1.7,1.7-3.7,2-5.7,1.1c-1.3-0.6-2.2-1.7-2.6-3.1c-0.1-0.3-0.2-0.7-0.2-1.1l0-1.5
			c0.1-0.8,0.3-2.1,0.7-3.9c0.5-2.9,1-5.4,1.4-7.4c1.1-7.5,1.9-15.3,2.4-23.1c0.1-1.4,0.7-2.5,1.7-3.4c1-0.9,2.3-1.3,3.7-1.2
			c1.3,0.1,2.5,0.7,3.4,1.7c0.4,0.5,0.8,1,1,1.6c1.3-1.7,2.6-3.1,3.8-4.1c5.4-4.6,9.5-3.4,12-1.5c1.8,1.3,3.1,3.4,3.8,6.2
			c0.5,1.7,0.7,3.9,0.8,6.6c0,1.6-0.1,4.2-0.2,7.8c-0.1,3.5-0.2,5.7-0.2,6.3c-0.1,5.1,0.3,8.7,1.1,10.8c0.3,1,0.7,1.4,0.8,1.5
			c0.1,0.1,0.5,0.3,1.6,0.2c1.3-0.1,2.4-0.5,3-0.9c0.3-0.4,1.1-1.3,2.7-3.8c1.8-2.9,3.6-6.4,5.3-10.7l0.7-2.1l0.2-1.6l0.2-0.2v-0.2
			l0.7-1.2l2.6-6.2c0.6-1.2,1.5-2.1,2.7-2.5c1.2-0.5,2.5-0.5,3.8,0.1c1.3,0.5,2.2,1.5,2.7,2.7c0.5,1.2,0.5,2.5,0,3.8l0,0.1l-1.4,3.2
			v0.2l-0.1,0.2c-0.1,0.4-0.5,1.6-2.8,7.4c-1.9,4.8-4,9-6.1,12.5c-1.8,2.9-3.4,4.8-4.7,5.9c-2.2,1.8-5.2,3-8.8,3.3
			C686.4,291.7,686,291.7,685.5,291.7z M675.6,269.2c-0.1,6,0.4,10.5,1.5,13.3c0.8,2.2,1.9,3.7,3.4,4.8c1.7,1.2,3.7,1.7,6.1,1.4
			c3-0.3,5.4-1.2,7.1-2.7c1.1-0.9,2.5-2.7,4.1-5.2c2-3.3,4-7.3,5.8-12c1.8-4.8,2.4-6.4,2.6-7v-0.3l1.7-3.7c0.2-0.6,0.2-1.1,0-1.6
			c-0.2-0.5-0.5-0.8-1.1-1.1c-0.5-0.2-1-0.2-1.5-0.1c-0.5,0.2-0.9,0.5-1.1,1.1l-2.7,6.4l-0.4,0.7c0,0.1,0,0.2-0.1,0.3
			c-0.1,0.1-0.1,0.3-0.2,0.4l-0.1,1l-0.9,2.5c-1.8,4.5-3.7,8.2-5.6,11.2c-1.5,2.3-2.5,3.7-3.2,4.4l-0.1,0.1
			c-1.1,0.9-2.6,1.4-4.7,1.6c-1.5,0.1-2.7-0.1-3.5-0.7c-0.8-0.6-1.5-1.5-1.9-2.9c-0.9-2.4-1.3-6.3-1.2-11.8c0-0.7,0.1-2.8,0.2-6.4
			c0.1-3.5,0.2-6.1,0.2-7.6c-0.1-2.3-0.3-4.3-0.7-5.9c-0.5-2.1-1.4-3.6-2.7-4.5c-1.6-1.2-4.1-2.3-8.3,1.4c-1.8,1.5-3.7,4-5.8,7.3
			l-2.8,4.4v-5.2c0-0.9,0-1.9,0.1-2.9c0-0.5-0.1-1-0.5-1.4c-0.4-0.4-0.8-0.7-1.4-0.7c-0.5-0.1-1,0.1-1.4,0.5
			c-0.5,0.4-0.7,0.8-0.7,1.4c-0.5,7.8-1.4,15.7-2.5,23.4l0,0.1c-0.4,1.9-0.9,4.4-1.4,7.4c-0.3,1.7-0.5,2.9-0.6,3.6v1.2l0.1,0.1
			l0,0.1c0.2,0.6,0.4,1,1,1.2c0.9,0.4,1.6,0.3,2.3-0.5c0.2-0.2,0.3-0.3,0.4-0.5c0-0.1,0.1-0.2,0.1-0.3v-0.3l0.1-0.2c0,0,0-0.1,0-0.2
			l0-0.3c0.7-3.4,1.3-7,1.9-10.6c0.2-1,0.4-1.7,0.6-2.2c0.4-1.2,1.2-3.3,2.7-6.4c1.5-3,3.1-5.9,4.8-8.7c2.1-3.5,4-5.9,5.8-7.3
			c0.7-0.6,1.2-1,1.7-1.2l1.2-0.6l0.7,1.1c0.3,0.4,0.5,1,0.7,1.9c0.3,1.1,0.5,2.7,0.6,4.9c0,1.7,0,4.2-0.1,7.6
			C675.8,266.2,675.7,268.3,675.6,269.2z"/>
	</g>
	<g>
		<path fill="#3D8699" d="M729,272.3c-1.4,2.3-2.9,4.3-4.7,6c-2.8,2.8-5.7,4.4-8.7,4.8c-3.7,0.4-7.2-0.8-10.5-3.8
			c-3.9-3.6-5.2-9-3.9-16.2c1.1-5.9,3.6-11.6,7.4-17c4.1-5.9,8.3-9.4,12.7-10.4c2.9-0.8,5.6-0.3,7.9,1.3c1.9,1.3,3.5,3.3,4.7,6
			c0.1,0,0.2,0,0.3,0.1c0.3,0.3,0.6,0.7,0.8,1l0.4,1l0.1,0.3v0.4c0.7,7.5,0.8,18,0.4,31.3c4.9-4.9,8.3-9.7,10.3-14.2
			c0.2-0.3,0.5-1.7,0.9-4.2l0.3-2.1c0.1-0.7,0.2-1.3,0.3-2c0.1-0.6,0.1-1,0.1-1c0.2-1,0.7-1.7,1.4-2.3c0.8-0.6,1.6-0.8,2.6-0.6
			c1,0.1,1.7,0.6,2.3,1.4c0.6,0.8,0.8,1.6,0.7,2.6c0,0.1,0,0.4-0.1,1c-0.1,0.6-0.2,1.3-0.3,2c-0.1,0.7-0.2,1.4-0.3,2
			c-0.5,3.1-1,5.1-1.3,6c-1.6,3.6-4.1,7.4-7.2,11.2c-3.2,3.8-6.5,7.1-9.9,10c-0.4,7.5-1.1,12.9-2,16.4c-1,4.6-2.9,8.2-5.7,10.8
			c-1.9,1.7-4,2.7-6.2,3c-2.5,0.3-5-0.5-7.5-2.3c-4.1-2.9-5.4-7.3-4-13c1.1-4.5,3.2-8.1,6.4-10.7c1.5-1.1,3.6-2.5,6.2-4
			c2.7-1.5,4.5-2.6,5.5-3.3l0.5-0.4C728.8,280,728.9,276.3,729,272.3z M728.1,247.1c-0.9-2.2-1.8-3.6-2.9-4.3
			c-0.6-0.4-1.3-0.6-2.2-0.4c-2.7,0.7-5.6,3.2-8.7,7.7c-3.2,4.7-5.3,9.4-6.2,14.3c-0.9,4.7-0.3,7.9,1.7,9.8c1.6,1.5,3.3,2.1,4.9,2
			c1.5-0.2,3.1-1.1,4.7-2.7c1.7-1.6,3.2-3.7,4.5-6.2s2.2-4.7,2.7-6.8c0.6-2.8,1.2-6.5,1.7-11.2c0-0.2,0-0.6,0.1-1.3
			C728.3,247.6,728.2,247.3,728.1,247.1z M728.1,292.2l-2.1,1c-2.3,1.3-4.1,2.4-5.2,3.4c-1.9,1.6-3.2,3.8-3.9,6.8
			c-0.7,2.7-0.3,4.6,1.3,5.7c1,0.8,1.9,1.1,2.7,1c0.7-0.1,1.4-0.4,2.1-1c1.7-1.6,3-4.1,3.8-7.3C727.3,299.5,727.8,296.3,728.1,292.2
			z"/>
		<path fill="#3D8699" d="M720.7,318.7c-2.5,0-5-0.9-7.5-2.7c-4.6-3.3-6.1-8.2-4.6-14.6c1.2-4.8,3.5-8.7,6.9-11.5
			c1.6-1.2,3.7-2.6,6.5-4.1c2.6-1.4,4.3-2.5,5.3-3.2c0.1-1.8,0.2-3.6,0.2-5.5c-0.6,0.8-1.3,1.5-2,2.1c-3,3-6.2,4.7-9.5,5.2
			c-4.2,0.5-8.1-0.9-11.7-4.1c-4.3-3.9-5.8-9.8-4.4-17.6c1.2-6.1,3.7-12,7.7-17.6c4.3-6.2,8.9-9.9,13.6-11c3.3-0.9,6.4-0.4,9.1,1.5
			c2,1.4,3.7,3.4,5,6.1c0.1,0,0.1,0.1,0.2,0.1c0.5,0.5,0.8,0.9,1.1,1.4l0.1,0.2l0.6,1.5v0.7c0.6,6.8,0.8,16,0.5,27.5
			c3.3-3.8,5.8-7.4,7.3-10.8c0.1-0.1,0.3-0.8,0.8-3.8l0.2-2c0.1-0.7,0.2-1.4,0.3-2c0.1-0.5,0.1-0.8,0.1-0.9l0-0.2
			c0.2-1.3,0.9-2.4,2-3.2c1.1-0.8,2.3-1.1,3.7-0.9c1.4,0.2,2.5,0.9,3.3,2c0.8,1.1,1.1,2.3,1,3.6c0,0.1,0,0.4-0.1,1.2
			c-0.1,0.6-0.2,1.3-0.3,2.1c-0.1,0.7-0.2,1.4-0.3,2c-0.7,4.4-1.1,5.7-1.4,6.3c-1.7,3.8-4.2,7.7-7.5,11.6c-3.1,3.7-6.3,7-9.6,9.8
			c-0.4,7.2-1.1,12.6-2,16c-1.1,4.8-3.2,8.7-6.1,11.5c-2.2,2-4.5,3.1-7.1,3.4C721.4,318.7,721,318.7,720.7,318.7z M730.6,266.6
			l-0.1,5.7c-0.1,4-0.2,7.8-0.4,11.2l0,0.7l-1.1,0.8c-1,0.8-2.9,1.9-5.6,3.4c-2.6,1.5-4.7,2.8-6.1,3.9c-2.8,2.3-4.8,5.7-5.8,9.8
			c-1.2,5.1-0.1,8.8,3.5,11.4c2.2,1.6,4.3,2.3,6.5,2.1c1.9-0.2,3.7-1.1,5.4-2.6c2.5-2.4,4.3-5.7,5.3-10c0.8-3.4,1.5-8.8,1.9-16.1
			l0-0.7l0.5-0.4c3.4-2.8,6.7-6.1,9.7-9.8c3.1-3.7,5.4-7.3,7-10.8c0.1-0.4,0.5-1.7,1.2-5.6c0.1-0.6,0.2-1.3,0.3-2
			c0.1-0.7,0.2-1.4,0.3-2c0.1-0.5,0.1-0.8,0.1-0.9c0.1-0.7-0.1-1.2-0.4-1.7c-0.3-0.4-0.7-0.7-1.3-0.8c-0.6-0.1-1.1,0-1.5,0.4
			c-0.4,0.3-0.7,0.7-0.8,1.2c0,0.2,0,0.4-0.1,1.1c-0.1,0.6-0.2,1.2-0.3,1.9l-0.3,2.1c-0.6,3.6-0.9,4.3-1.1,4.6
			c-2,4.6-5.6,9.5-10.5,14.5l-2.7,2.7l0.1-3.8c0.4-13.2,0.3-23.7-0.4-31.1l0-0.3l-0.4-1c-0.1-0.1-0.1-0.2-0.2-0.3H733l-0.4-0.9
			c-1.1-2.4-2.5-4.2-4.2-5.4c-2-1.4-4.2-1.8-6.7-1.1c-4.1,1-8.1,4.3-11.9,9.8c-3.7,5.3-6.1,10.8-7.2,16.5
			c-1.2,6.8-0.1,11.6,3.4,14.9c3,2.7,6,3.8,9.3,3.4c2.7-0.4,5.3-1.9,7.8-4.4c1.6-1.6,3.1-3.5,4.5-5.7L730.6,266.6z M720.7,311.6
			c-1.1,0-2.2-0.4-3.4-1.4c-1.4-1-2.9-3.1-1.9-7.3c0.8-3.2,2.2-5.8,4.4-7.5c1.2-1,3-2.2,5.4-3.5l4.5-2.3l-0.2,2.7
			c-0.4,4.3-0.8,7.5-1.3,9.8c-0.8,3.5-2.3,6.2-4.2,8c-1,0.8-1.9,1.3-2.9,1.4C721,311.6,720.9,311.6,720.7,311.6z M726.4,294.8
			c-2,1.1-3.6,2.2-4.6,3c-1.7,1.4-2.8,3.4-3.4,6c-0.8,3.1,0.3,3.9,0.7,4.2c1,0.7,1.5,0.8,1.7,0.8c0.4,0,0.8-0.3,1.3-0.7
			c1.5-1.4,2.6-3.6,3.3-6.5C725.7,299.8,726.1,297.6,726.4,294.8z M714.2,277.6c-1.9,0-3.7-0.8-5.4-2.4c-2.4-2.2-3.1-5.9-2.2-11.1
			c1-5,3.2-10,6.5-14.9c3.4-4.8,6.5-7.5,9.6-8.3c1.3-0.3,2.5,0,3.5,0.6c1.3,0.8,2.4,2.5,3.4,5l0,0.1c0,0.1,0.1,0.3,0.2,0.4l0.3,0.5
			L730,248c-0.1,0.9-0.1,1.1-0.1,1.1l0,0.2c-0.5,4.7-1.1,8.5-1.7,11.3c-0.6,2.2-1.5,4.6-2.9,7.2c-1.4,2.6-3,4.8-4.8,6.6
			c-1.9,1.9-3.8,2.9-5.6,3.1C714.7,277.6,714.4,277.6,714.2,277.6z M723.7,243.8c-0.1,0-0.3,0-0.4,0c-2.2,0.6-4.9,3-7.8,7.1
			c-3.1,4.5-5.1,9.1-6,13.7c-0.8,4.1-0.3,6.9,1.2,8.4c1.3,1.2,2.6,1.7,3.8,1.6c1.1-0.1,2.4-0.9,3.9-2.3c1.6-1.5,3-3.5,4.2-5.8
			c1.2-2.4,2.1-4.5,2.6-6.5c0.6-2.7,1.1-6.4,1.6-10.9c0-0.2,0-0.4,0.1-0.9c-0.1-0.2-0.2-0.4-0.2-0.6c-0.9-2.3-1.8-3.2-2.3-3.6
			C724.3,243.9,724.1,243.8,723.7,243.8z"/>
	</g>
</g>
<polygon fill="none" points="743,160.7 770.3,160.7 770.3,160.7 743,160.7 "/>
<g>
	<path fill="#3D8699" d="M367.6,88.4c-0.3,0-0.6-0.1-0.8-0.4s-0.4-0.6-0.4-0.9V62.6h-8.3c-0.3,0-0.6-0.1-0.9-0.4
		c-0.2-0.3-0.3-0.6-0.3-1v-6c0-0.4,0.1-0.7,0.3-0.9c0.2-0.3,0.5-0.4,0.9-0.4h27.7c0.3,0,0.6,0.1,0.9,0.4c0.2,0.3,0.4,0.6,0.4,0.9v6
		c0,0.4-0.1,0.7-0.4,1c-0.2,0.3-0.5,0.4-0.9,0.4h-8.2v24.5c0,0.4-0.1,0.7-0.3,0.9s-0.5,0.4-0.9,0.4H367.6z"/>
	<path fill="#3D8699" d="M402.5,53.9c0.3,0,0.6,0.1,0.9,0.4c0.2,0.3,0.4,0.6,0.4,0.9v11H414v-11c0-0.4,0.1-0.7,0.4-0.9
		c0.2-0.3,0.5-0.4,0.9-0.4h8.8c0.3,0,0.6,0.1,0.9,0.4c0.2,0.3,0.4,0.6,0.4,0.9v31.9c0,0.4-0.1,0.7-0.4,0.9s-0.5,0.4-0.9,0.4h-8.8
		c-0.3,0-0.6-0.1-0.9-0.4c-0.2-0.3-0.4-0.6-0.4-0.9V75.3h-10.2v11.7c0,0.4-0.1,0.7-0.4,0.9s-0.5,0.4-0.9,0.4h-8.8
		c-0.3,0-0.6-0.1-0.8-0.4s-0.4-0.6-0.4-0.9V55.2c0-0.4,0.1-0.7,0.4-0.9c0.2-0.3,0.5-0.4,0.8-0.4H402.5z"/>
	<path fill="#3D8699" d="M432.2,88.4c-0.3,0-0.6-0.1-0.8-0.4s-0.4-0.6-0.4-0.9V55.2c0-0.4,0.1-0.7,0.4-0.9c0.2-0.3,0.5-0.4,0.8-0.4
		h23.3c0.3,0,0.6,0.1,0.8,0.4c0.2,0.3,0.4,0.6,0.4,0.9v6.4c0,0.4-0.1,0.7-0.4,1c-0.2,0.3-0.5,0.4-0.8,0.4h-13.4v3.5h11.5
		c0.3,0,0.6,0.1,0.8,0.4c0.2,0.3,0.4,0.6,0.4,0.9v6.3c0,0.4-0.1,0.7-0.4,1c-0.2,0.3-0.5,0.4-0.8,0.4l-11.5,0v3.7h14.5
		c0.3,0,0.6,0.1,0.9,0.4c0.2,0.3,0.3,0.6,0.3,1v6.4c0,0.4-0.1,0.7-0.3,0.9s-0.5,0.4-0.9,0.4H432.2z"/>
</g>
</svg>
