<?xml version="1.0" encoding="UTF-8"?>
<svg width="218px" height="64px" viewBox="0 0 218 64" version="1.1" xmlns="http://www.w3.org/2000/svg" xmlns:xlink="http://www.w3.org/1999/xlink">
    <title>app-store</title>
    <g id="app-store" stroke="none" stroke-width="1" fill="none" fill-rule="evenodd">
        <path d="M209.617187,63.4375 L8.382812,63.4375 C4.304687,63.4375 1,60.132812 1,56.054687 L1,8.382812 C1,4.304687 4.304687,1 8.382812,1 L209.617187,1 C213.695312,1 217,4.304687 217,8.382812 L217,56.054687 C217,60.132812 213.695312,63.4375 209.617187,63.4375" id="Path" fill="#000000" fill-rule="nonzero"></path>
        <path d="M75.652344,16.957031 L74.824219,14.363281 C74.621094,13.722656 74.449219,13.007812 74.292969,12.398437 L74.261719,12.398437 C74.109375,13.007812 73.949219,13.738281 73.765625,14.363281 L72.953125,16.957031 L75.652344,16.957031 Z M72.640625,18.40625 L71.734375,21.390625 L69.75,21.390625 L73.125,10.867187 L75.574219,10.867187 L78.992187,21.390625 L76.933594,21.390625 L75.980469,18.40625" id="Shape" fill="#FFFFFF" fill-rule="nonzero"></path>
        <path d="M81.863281,13.789062 L83.097656,17.640625 C83.316406,18.3125 83.46875,18.921875 83.609375,19.546875 L83.65625,19.546875 C83.796875,18.921875 83.96875,18.328125 84.171875,17.640625 L85.390625,13.789062 L87.402344,13.789062 L84.5,21.390625 L82.613281,21.390625 L79.785156,13.789062" id="Path" fill="#FFFFFF" fill-rule="nonzero"></path>
        <path d="M93.195312,17.671875 C91.835937,17.65625 90.539062,17.9375 90.539062,19.09375 C90.539062,19.84375 91.023437,20.1875 91.632812,20.1875 C92.410156,20.1875 92.960937,19.6875 93.144531,19.140625 C93.195312,19 93.195312,18.859375 93.195312,18.71875 L93.195312,17.671875 Z M95.066406,19.5625 C95.066406,20.25 95.097656,20.921875 95.191406,21.386718 L93.457031,21.386718 L93.320312,20.546875 L93.269531,20.546875 C92.820312,21.136718 92.023437,21.558593 91.023437,21.558593 C89.492187,21.558593 88.636719,20.453125 88.636719,19.296875 C88.636719,17.390625 90.335937,16.410156 93.144531,16.425781 L93.144531,16.300781 C93.144531,15.800781 92.945312,14.972656 91.601562,14.972656 C90.851562,14.972656 90.070312,15.207031 89.554687,15.535156 L89.179687,14.285156 C89.742187,13.941406 90.726562,13.617187 91.929687,13.617187 C94.363281,13.617187 95.066406,15.160156 95.066406,16.832031" id="Shape" fill="#FFFFFF" fill-rule="nonzero"></path>
        <path d="M97.78125,13.789062 L99.699219,13.789062 L99.699219,21.390625 L97.78125,21.390625 L97.78125,13.789062 Z M98.730469,12.695312 C98.09375,12.695312 97.671875,12.226562 97.671875,11.664062 C97.671875,11.070312 98.105469,10.617187 98.75,10.617187 C99.402344,10.617187 99.808594,11.070312 99.824219,11.664062 C99.824219,12.226562 99.402344,12.695312 98.75,12.695312" id="Shape" fill="#FFFFFF" fill-rule="nonzero"></path>
        <polygon id="Path" fill="#FFFFFF" fill-rule="nonzero" points="102.460937 21.390625 104.382812 21.390625 104.382812 10.289062 102.460937 10.289062"></polygon>
        <path d="M111.1875,17.671875 C109.828125,17.65625 108.53125,17.9375 108.53125,19.09375 C108.53125,19.84375 109.015625,20.1875 109.625,20.1875 C110.40625,20.1875 110.953125,19.6875 111.140625,19.140625 C111.1875,19 111.1875,18.859375 111.1875,18.71875 L111.1875,17.671875 Z M113.058594,19.5625 C113.058594,20.25 113.089844,20.921875 113.183594,21.386718 L111.453125,21.386718 L111.3125,20.546875 L111.265625,20.546875 C110.8125,21.136718 110.015625,21.558593 109.015625,21.558593 C107.488281,21.558593 106.628906,20.453125 106.628906,19.296875 C106.628906,17.390625 108.332031,16.410156 111.140625,16.425781 L111.140625,16.300781 C111.140625,15.800781 110.9375,14.972656 109.59375,14.972656 C108.84375,14.972656 108.0625,15.207031 107.550781,15.535156 L107.175781,14.285156 C107.738281,13.941406 108.71875,13.617187 109.921875,13.617187 C112.355469,13.617187 113.058594,15.160156 113.058594,16.832031" id="Shape" fill="#FFFFFF" fill-rule="nonzero"></path>
        <path d="M117.695312,18.25 C117.695312,18.40625 117.710937,18.5625 117.742187,18.703125 C117.945312,19.484375 118.617187,20.046875 119.441406,20.046875 C120.644531,20.046875 121.378906,19.09375 121.378906,17.550781 C121.378906,16.207031 120.738281,15.113281 119.457031,15.113281 C118.675781,15.113281 117.960937,15.675781 117.757812,16.519531 C117.726562,16.660156 117.695312,16.832031 117.695312,17.019531 L117.695312,18.25 Z M115.773437,10.289062 L117.695312,10.289062 L117.695312,14.832031 L117.726562,14.832031 C118.195312,14.097656 119.019531,13.617187 120.160156,13.617187 C122.019531,13.617187 123.34375,15.160156 123.328125,17.472656 C123.328125,20.203125 121.597656,21.5625 119.878906,21.5625 C118.894531,21.5625 118.023437,21.1875 117.476562,20.25 L117.445312,20.25 L117.351562,21.390625 L115.710937,21.390625 C115.742187,20.875 115.773437,20.03125 115.773437,19.265625" id="Shape" fill="#FFFFFF" fill-rule="nonzero"></path>
        <polygon id="Path" fill="#FFFFFF" fill-rule="nonzero" points="125.589844 21.390625 127.507812 21.390625 127.507812 10.289062 125.589844 10.289062"></polygon>
        <path d="M134.984375,16.785156 C135,16.082031 134.6875,14.925781 133.410156,14.925781 C132.222656,14.925781 131.722656,16.003906 131.644531,16.785156 L134.984375,16.785156 Z M131.644531,18.125 C131.691406,19.5 132.769531,20.09375 133.988281,20.09375 C134.875,20.09375 135.5,19.953125 136.09375,19.75 L136.375,21.058593 C135.71875,21.34375 134.8125,21.542968 133.722656,21.542968 C131.253906,21.542968 129.800781,20.03125 129.800781,17.707031 C129.800781,15.597656 131.082031,13.617187 133.519531,13.617187 C135.984375,13.617187 136.796875,15.644531 136.796875,17.316406 C136.796875,17.675781 136.765625,17.957031 136.734375,18.125" id="Shape" fill="#FFFFFF" fill-rule="nonzero"></path>
        <path d="M146.332031,20.171875 C147.421875,20.171875 148.1875,19.109375 148.1875,17.566406 C148.1875,16.378906 147.65625,15.003906 146.347656,15.003906 C144.988281,15.003906 144.441406,16.332031 144.441406,17.597656 C144.441406,19.0625 145.175781,20.171875 146.3125,20.171875 L146.332031,20.171875 Z M146.269531,21.5625 C144.128906,21.5625 142.460937,20.09375 142.460937,17.644531 C142.460937,15.144531 144.097656,13.617187 146.394531,13.617187 C148.65625,13.617187 150.171875,15.207031 150.171875,17.519531 C150.171875,20.3125 148.203125,21.5625 146.285156,21.5625" id="Shape" fill="#FFFFFF" fill-rule="nonzero"></path>
        <path d="M152.429687,16.050781 C152.429687,15.175781 152.402344,14.441406 152.371094,13.785156 L154.039062,13.785156 L154.132812,14.925781 L154.179687,14.925781 C154.523437,14.332031 155.351562,13.617187 156.617187,13.617187 C157.941406,13.617187 159.316406,14.472656 159.316406,16.878906 L159.316406,21.386718 L157.394531,21.386718 L157.394531,17.097656 C157.394531,16.003906 156.988281,15.175781 155.945312,15.175781 C155.179687,15.175781 154.648437,15.722656 154.445312,16.300781 C154.382812,16.457031 154.351562,16.691406 154.351562,16.910156 L154.351562,21.386718 L152.429687,21.386718" id="Path" fill="#FFFFFF" fill-rule="nonzero"></path>
        <path d="M168.164062,11.835937 L168.164062,13.785156 L169.988281,13.785156 L169.988281,15.222656 L168.164062,15.222656 L168.164062,18.5625 C168.164062,19.5 168.414062,19.96875 169.144531,19.96875 C169.488281,19.96875 169.675781,19.953125 169.894531,19.890625 L169.925781,21.339843 C169.644531,21.453125 169.128906,21.542968 168.535156,21.542968 C167.820312,21.542968 167.242187,21.308593 166.882812,20.921875 C166.460937,20.484375 166.273437,19.78125 166.273437,18.78125 L166.273437,15.222656 L165.195312,15.222656 L165.195312,13.785156 L166.273437,13.785156 L166.273437,12.367187" id="Path" fill="#FFFFFF" fill-rule="nonzero"></path>
        <path d="M172.125,10.289062 L174.046875,10.289062 L174.046875,14.816406 L174.078125,14.816406 C174.3125,14.457031 174.640625,14.160156 175.03125,13.957031 C175.421875,13.742187 175.871094,13.617187 176.355469,13.617187 C177.652344,13.617187 179.007812,14.472656 179.007812,16.910156 L179.007812,21.390625 L177.089844,21.390625 L177.089844,17.113281 C177.089844,16.019531 176.683594,15.175781 175.621094,15.175781 C174.875,15.175781 174.34375,15.675781 174.125,16.253906 C174.0625,16.425781 174.046875,16.628906 174.046875,16.832031 L174.046875,21.390625 L172.125,21.390625" id="Path" fill="#FFFFFF" fill-rule="nonzero"></path>
        <path d="M186.4375,16.785156 C186.453125,16.082031 186.140625,14.925781 184.859375,14.925781 C183.671875,14.925781 183.175781,16.003906 183.097656,16.785156 L186.4375,16.785156 Z M183.097656,18.125 C183.144531,19.5 184.21875,20.09375 185.4375,20.09375 C186.328125,20.09375 186.953125,19.953125 187.542969,19.75 L187.828125,21.058593 C187.171875,21.34375 186.265625,21.542968 185.171875,21.542968 C182.707031,21.542968 181.253906,20.03125 181.253906,17.707031 C181.253906,15.597656 182.535156,13.617187 184.96875,13.617187 C187.433594,13.617187 188.246094,15.644531 188.246094,17.316406 C188.246094,17.675781 188.214844,17.957031 188.183594,18.125" id="Shape" fill="#FFFFFF" fill-rule="nonzero"></path>
        <path d="M48.757812,31.59375 C48.707031,26.386718 53.019531,23.851562 53.21875,23.734375 C50.777344,20.171875 46.992187,19.6875 45.660156,19.648437 C42.484375,19.316406 39.402344,21.554687 37.785156,21.554687 C36.132812,21.554687 33.636719,19.683593 30.953125,19.738281 C27.492187,19.792968 24.257812,21.796875 22.484375,24.902343 C18.828125,31.242187 21.554687,40.554687 25.0625,45.679687 C26.820312,48.1875 28.867187,50.992187 31.550781,50.890625 C34.175781,50.78125 35.15625,49.21875 38.324219,49.21875 C41.464844,49.21875 42.386719,50.890625 45.125,50.828125 C47.941406,50.78125 49.714844,48.308593 51.40625,45.773437 C53.4375,42.898437 54.25,40.066406 54.28125,39.921875 C54.214844,39.898437 48.8125,37.835937 48.757812,31.59375" id="Path" fill="#FFFFFF" fill-rule="nonzero"></path>
        <path d="M43.585937,16.28125 C44.996094,14.515625 45.96875,12.109375 45.695312,9.671875 C43.652344,9.765625 41.097656,11.085937 39.625,12.8125 C38.324219,14.335937 37.15625,16.832031 37.460937,19.175781 C39.757812,19.347656 42.113281,18.019531 43.585937,16.28125" id="Path" fill="#FFFFFF" fill-rule="nonzero"></path>
        <path d="M80.4375,41.535156 L78.625,35.9375 C78.433594,35.367187 78.074219,34.019531 77.542969,31.902343 L77.480469,31.902343 C77.269531,32.8125 76.925781,34.160156 76.460937,35.9375 L74.679687,41.535156 L80.4375,41.535156 Z M86.703125,50.476562 L83.042969,50.476562 L81.039062,44.179687 L74.078125,44.179687 L72.167969,50.476562 L68.605469,50.476562 L75.511719,29.039062 L79.769531,29.039062" id="Shape" fill="#FFFFFF" fill-rule="nonzero"></path>
        <path d="M100.953125,42.683593 C100.953125,41.175781 100.613281,39.9375 99.933594,38.960937 C99.191406,37.945312 98.195312,37.433593 96.945312,37.433593 C96.097656,37.433593 95.324219,37.71875 94.640625,38.277343 C93.953125,38.84375 93.5,39.578125 93.285156,40.492187 C93.179687,40.914062 93.128906,41.261718 93.128906,41.535156 L93.128906,44.113281 C93.128906,45.238281 93.472656,46.1875 94.160156,46.960937 C94.851562,47.738281 95.746094,48.121093 96.847656,48.121093 C98.144531,48.121093 99.152344,47.625 99.867187,46.625 C100.59375,45.628906 100.953125,44.316406 100.953125,42.683593 M104.453125,42.554687 C104.453125,45.183593 103.742187,47.265625 102.320312,48.789062 C101.046875,50.148437 99.464844,50.824218 97.582031,50.824218 C95.542969,50.824218 94.082031,50.089843 93.191406,48.628906 L93.128906,48.628906 L93.128906,56.773437 L89.691406,56.773437 L89.691406,40.105468 C89.691406,38.453125 89.652344,36.757812 89.566406,35.015625 L92.585937,35.015625 L92.777344,37.46875 L92.84375,37.46875 C93.988281,35.621093 95.726562,34.699218 98.058594,34.699218 C99.878906,34.699218 101.40625,35.421875 102.621094,36.863281 C103.839844,38.308593 104.453125,40.203125 104.453125,42.554687" id="Shape" fill="#FFFFFF" fill-rule="nonzero"></path>
        <path d="M118.730469,42.683593 C118.730469,41.175781 118.390625,39.9375 117.710937,38.960937 C116.96875,37.945312 115.972656,37.433593 114.722656,37.433593 C113.875,37.433593 113.105469,37.71875 112.417969,38.277343 C111.726562,38.84375 111.28125,39.578125 111.070312,40.492187 C110.960937,40.914062 110.910156,41.261718 110.910156,41.535156 L110.910156,44.113281 C110.910156,45.238281 111.25,46.1875 111.9375,46.960937 C112.628906,47.738281 113.523437,48.121093 114.628906,48.121093 C115.921875,48.121093 116.929687,47.625 117.648437,46.625 C118.367187,45.628906 118.730469,44.316406 118.730469,42.683593 M122.226562,42.554687 C122.226562,45.183593 121.519531,47.265625 120.097656,48.789062 C118.824219,50.148437 117.246094,50.824218 115.359375,50.824218 C113.324219,50.824218 111.863281,50.089843 110.96875,48.628906 L110.910156,48.628906 L110.910156,56.773437 L107.472656,56.773437 L107.472656,40.105468 C107.472656,38.453125 107.429687,36.757812 107.347656,35.015625 L110.367187,35.015625 L110.558594,37.46875 L110.625,37.46875 C111.765625,35.621093 113.503906,34.699218 115.835937,34.699218 C117.660156,34.699218 119.179687,35.421875 120.402344,36.863281 C121.621094,38.308593 122.226562,40.203125 122.226562,42.554687" id="Shape" fill="#FFFFFF" fill-rule="nonzero"></path>
        <path d="M142.109375,44.464843 C142.109375,46.285156 141.476562,47.769531 140.203125,48.917968 C138.804687,50.167968 136.863281,50.792968 134.367187,50.792968 C132.058594,50.792968 130.207031,50.347656 128.804687,49.457031 L129.601562,46.597656 C131.113281,47.507812 132.765625,47.960937 134.570312,47.960937 C135.863281,47.960937 136.871094,47.671875 137.59375,47.089843 C138.3125,46.503906 138.671875,45.722656 138.671875,44.746093 C138.671875,43.878906 138.378906,43.140625 137.785156,42.546875 C137.191406,41.953125 136.203125,41.402343 134.824219,40.890625 C131.070312,39.488281 129.195312,37.4375 129.195312,34.742187 C129.195312,32.980468 129.851562,31.535156 131.167969,30.410156 C132.480469,29.285156 134.230469,28.71875 136.414062,28.71875 C138.367187,28.71875 139.988281,29.0625 141.28125,29.738281 L140.421875,32.539062 C139.214844,31.882812 137.847656,31.550781 136.320312,31.550781 C135.109375,31.550781 134.167969,31.847656 133.492187,32.441406 C132.921875,32.972656 132.632812,33.621093 132.632812,34.382812 C132.632812,35.230468 132.957031,35.929687 133.617187,36.480468 C134.1875,36.988281 135.226562,37.539062 136.734375,38.136718 C138.578125,38.878906 139.933594,39.746093 140.804687,40.742187 C141.671875,41.738281 142.109375,42.980468 142.109375,44.464843" id="Path" fill="#FFFFFF" fill-rule="nonzero"></path>
        <path d="M153.460937,37.59375 L149.675781,37.59375 L149.675781,45.097656 C149.675781,47.007812 150.34375,47.960937 151.683594,47.960937 C152.292969,47.960937 152.804687,47.910156 153.207031,47.804687 L153.300781,50.410156 C152.628906,50.667968 151.734375,50.792968 150.632812,50.792968 C149.277344,50.792968 148.214844,50.378906 147.449219,49.554687 C146.6875,48.726562 146.304687,47.335937 146.304687,45.386718 L146.304687,37.59375 L144.046875,37.59375 L144.046875,35.015625 L146.304687,35.015625 L146.304687,32.1875 L149.675781,31.167968 L149.675781,35.015625 L153.460937,35.015625" id="Path" fill="#FFFFFF" fill-rule="nonzero"></path>
        <path d="M166.980469,42.730468 C166.980469,41.304687 166.671875,40.085937 166.054687,39.0625 C165.339844,37.828125 164.308594,37.210937 162.972656,37.210937 C161.59375,37.210937 160.542969,37.828125 159.824219,39.0625 C159.207031,40.085937 158.90625,41.328125 158.90625,42.796875 C158.90625,44.222656 159.207031,45.441406 159.824219,46.460937 C160.566406,47.695312 161.605469,48.3125 162.945312,48.3125 C164.253906,48.3125 165.285156,47.6875 166.027344,46.429687 C166.664062,45.390625 166.980469,44.15625 166.980469,42.730468 M170.542969,42.621093 C170.542969,44.996093 169.867187,46.945312 168.507812,48.472656 C167.085937,50.042968 165.199219,50.824218 162.847656,50.824218 C160.574219,50.824218 158.769531,50.070312 157.421875,48.566406 C156.078125,47.0625 155.40625,45.164062 155.40625,42.875 C155.40625,40.476562 156.097656,38.515625 157.488281,36.992187 C158.875,35.460937 160.746094,34.699218 163.097656,34.699218 C165.367187,34.699218 167.195312,35.453125 168.570312,36.957031 C169.886719,38.425781 170.542969,40.308593 170.542969,42.621093" id="Shape" fill="#FFFFFF" fill-rule="nonzero"></path>
        <path d="M181.707031,38.039062 C181.367187,37.976562 181.007812,37.945312 180.625,37.945312 C179.417969,37.945312 178.480469,38.402343 177.824219,39.3125 C177.253906,40.121093 176.96875,41.136718 176.96875,42.363281 L176.96875,50.476562 L173.535156,50.476562 L173.5625,39.886718 C173.5625,38.101562 173.519531,36.480468 173.4375,35.015625 L176.429687,35.015625 L176.554687,37.976562 L176.644531,37.976562 C177.007812,36.960937 177.582031,36.140625 178.363281,35.527343 C179.128906,34.976562 179.957031,34.699218 180.847656,34.699218 C181.164062,34.699218 181.453125,34.722656 181.707031,34.761718" id="Path" fill="#FFFFFF" fill-rule="nonzero"></path>
        <path d="M193.789062,41.125 C193.8125,40.109375 193.589844,39.226562 193.125,38.484375 C192.53125,37.53125 191.613281,37.050781 190.386719,37.050781 C189.265625,37.050781 188.351562,37.519531 187.652344,38.453125 C187.082031,39.195312 186.738281,40.085937 186.640625,41.125 L193.789062,41.125 Z M197.0625,42.015625 C197.0625,42.632812 197.023437,43.148437 196.941406,43.574218 L186.640625,43.574218 C186.675781,45.101562 187.175781,46.269531 188.132812,47.074218 C189,47.796875 190.125,48.152343 191.503906,48.152343 C193.027344,48.152343 194.417969,47.910156 195.671875,47.421875 L196.210937,49.808593 C194.746094,50.441406 193.019531,50.765625 191.023437,50.765625 C188.628906,50.765625 186.746094,50.058593 185.378906,48.644531 C184.015625,47.238281 183.328125,45.34375 183.328125,42.96875 C183.328125,40.636718 183.960937,38.695312 185.238281,37.148437 C186.570312,35.492187 188.375,34.667968 190.640625,34.667968 C192.867187,34.667968 194.558594,35.492187 195.703125,37.148437 C196.613281,38.460937 197.0625,40.085937 197.0625,42.015625" id="Shape" fill="#FFFFFF" fill-rule="nonzero"></path>
    </g>
</svg>