<?xml version="1.0" encoding="UTF-8"?>
<svg xmlns="http://www.w3.org/2000/svg" id="f5e41ed4-52cf-4c0a-a3b5-3ebaacb141a3" data-name="Layer 1" width="147" height="136.99" viewBox="0 0 147 136.99">
  <title>SpeedYD-App</title>
  <rect x="20.51" y="98.07" width="105.98" height="2" style="fill:#2980b9"></rect>
  <rect x="18.85" y="86.66" width="12.59" height="2" style="fill:#2980b9"></rect>
  <rect x="116.99" y="86.66" width="11.17" height="2" style="fill:#2980b9"></rect>
  <rect x="27.83" y="68.31" width="2" height="11.39" transform="translate(-50.54 71.12) rotate(-66.64)" style="fill:#2980b9"></rect>
  <rect x="114.13" y="73" width="11.17" height="2" transform="translate(-19.69 54.7) rotate(-23.84)" style="fill:#2980b9"></rect>
  <rect x="107.67" y="61.24" width="11.51" height="2" transform="translate(-14.17 83.65) rotate(-38.28)" style="fill:#2980b9"></rect>
  <rect x="98.63" y="51.73" width="11.29" height="2" transform="translate(-3.72 97.36) rotate(-49.28)" style="fill:#2980b9"></rect>
  <rect x="87.34" y="45.08" width="11.3" height="2" transform="translate(15.11 114.67) rotate(-67.73)" style="fill:#2980b9"></rect>
  <rect x="74.89" y="41.63" width="11.23" height="2" transform="translate(29.63 118.2) rotate(-83.95)" style="fill:#2980b9"></rect>
  <rect x="66.8" y="37" width="2" height="11.49" transform="translate(-4.78 8.74) rotate(-7.13)" style="fill:#2980b9"></rect>
  <rect x="54.08" y="40.39" width="2" height="11.61" transform="translate(-13.63 25.07) rotate(-22.9)" style="fill:#2980b9"></rect>
  <rect x="42.92" y="47.08" width="2" height="11.55" transform="translate(-22.86 36.64) rotate(-36.63)" style="fill:#2980b9"></rect>
  <rect x="33.89" y="56.53" width="2" height="11.17" transform="translate(-35.52 51.25) rotate(-51.91)" style="fill:#2980b9"></rect>
  <rect x="80.21" y="69.08" width="21.28" height="2" transform="translate(-20.5 42.4) rotate(-23.69)" style="fill:#2980b9"></rect>
  <path d="M74.21,87.47a9.32,9.32,0,1,1,9.32-9.32A9.33,9.33,0,0,1,74.21,87.47Zm0-16.63a7.32,7.32,0,1,0,7.32,7.32A7.32,7.32,0,0,0,74.21,70.84Z" style="fill:#2980b9"></path>
</svg>
