<?xml version="1.0" encoding="UTF-8"?>
<svg xmlns="http://www.w3.org/2000/svg" id="f6797b15-0128-4062-beea-326be11244a5" data-name="Layer 1" width="147" height="136.99" viewBox="0 0 147 136.99">
  <title>AccelerationYD-App</title>
  <path d="M104.68,28.34,82.06,57l3.88,4.18-1.06,1.22A19.53,19.53,0,0,0,78.49,62c-5.77.36-24.85-.23-35.32-5.32a12.18,12.18,0,0,0-9.63-.84c-4.54,1.62-7.25,5.8-8.2,7.51h0l-.35.74c-.44.92-.56,1.16,13.87,12.06,12.43,9.38,16.84,10.14,21.94,11,1,.17,2,.35,3.13.6A28.56,28.56,0,0,1,72.37,91l-2.09,3.29.77.55c.07.06,7.67,5.51,16,10.3a14.14,14.14,0,0,0,6.71,2.2,6.28,6.28,0,0,0,2.16-.37,4.86,4.86,0,0,0,2.77-2.57c.43-.79,5.8-10.68,8.1-14.69s.75-10.39.24-12.3l1-1.16,5.62,2.19,13-27Zm8,47.52-5.23-2-2.62,3.06.16.52c0,.08,2.26,7.46.09,11.26-2.39,4.17-8.08,14.66-8.14,14.77l-.06.13a2.83,2.83,0,0,1-1.67,1.49c-1.17.41-3.35.45-7.14-1.71-6.74-3.86-13-8.14-15.09-9.63l2.08-3.27-.7-.56c-.13-.11-3.28-2.57-10-4.11-1.16-.26-2.22-.45-3.24-.62-4.85-.84-9-1.56-21.07-10.64-9.22-7-12.08-9.36-13-10.18.8-1.43,3.24-5.26,7.16-6.65a10.23,10.23,0,0,1,8.07.76C54,64.13,74.23,64.25,78.62,64s6.11.5,6.12.5l.69.35,3.21-3.67-4-4.24,20.14-25.53,19.5,20.35Z" style="fill:#2980b9"></path>
  <path d="M47.07,92l1.09.56,0,0Z" style="fill:#2980b9"></path>
  <polygon points="48.18 92.53 48.16 92.56 47.07 92 48.18 92.53" style="fill:#2980b9"></polygon>
  <path d="M47.07,92l1.09.56,0,0Z" style="fill:#2980b9"></path>
  <path d="M25.83,70.55l-5.56,10L37,89.11l-8,17.64,8.81,1.91,9.3-14.41,16.52,8.44L67.34,100Zm11,35.87-5-1.1L38.7,90.21l6.57,3.15Zm26.58-6.07L48.16,92.56,47.07,92,23,79.72l3.47-6.25L63.89,100Z" style="fill:#2980b9"></path>
</svg>
