<?xml version="1.0" encoding="utf-8"?>
<!-- Generator: Adobe Illustrator 21.1.0, SVG Export Plug-In . SVG Version: 6.00 Build 0)  -->
<svg version="1.2" baseProfile="tiny" id="Layer_1" xmlns="http://www.w3.org/2000/svg" xmlns:xlink="http://www.w3.org/1999/xlink"
	 x="0px" y="0px" viewBox="0 0 375 375" xml:space="preserve">
<path fill-rule="evenodd" fill="#2980B9" d="M360.6,56.3v262.4c0,23-18.8,41.9-41.9,41.9H56.3c-23,0-41.9-18.8-41.9-41.9V56.3
	c0-23,18.8-41.9,41.9-41.9h262.4C341.8,14.4,360.6,33.2,360.6,56.3z"/>
<path fill-rule="evenodd" fill="#2980B9" d="M366.8,62.5v262.4c0,23-18.9,41.9-41.9,41.9H62.5c-23,0-41.9-18.8-41.9-41.9V62.5
	c0-23,18.8-41.9,41.9-41.9h262.4C347.9,20.6,366.8,39.4,366.8,62.5z"/>
<path fill="#FFFFFF" stroke="#2980B9" stroke-width="5" stroke-miterlimit="10" d="M282.3,186v87.4c0,14.5-42.5,26.2-94.8,26.2
	s-94.8-11.7-94.8-26.2V186H282.3z"/>
<ellipse fill="#FFFFFF" stroke="#2980B9" stroke-width="5" stroke-miterlimit="10" cx="187.5" cy="186" rx="94.8" ry="26.2"/>
<g>
	<path fill="#FFFFFF" d="M187.5,187.1c-4.6,0-7.8-2.3-7.8-5.6v-50.2h15.6v50.2C195.3,184.9,192.2,187.1,187.5,187.1z"/>
	<path fill="#2980B9" d="M192.8,133.8v47.8c0,2-2.4,3.1-5.3,3.1s-5.3-1.2-5.3-3.1v-47.8H192.8 M197.8,128.8h-5h-10.6h-5v5v47.8
		c0,4.7,4.3,8.1,10.3,8.1c6.1,0,10.3-3.3,10.3-8.1v-47.8V128.8L197.8,128.8z"/>
</g>
<ellipse fill="#FFFFFF" cx="187.5" cy="133.8" rx="5.3" ry="2.8"/>
<path fill="#FFFFFF" d="M187.3,123.9c0,0-6.5-5.3-6.5-18.4s10.5-30.1,10.5-30.1s-6.9,14.5,1.3,29.3
	C200.4,118.8,187.3,123.9,187.3,123.9z"/>
<g>
	<path fill="#FFFFFF" d="M230.3,187.1c-4.6,0-7.8-2.3-7.8-5.6v-50.2H238v50.2C238,184.9,234.9,187.1,230.3,187.1z"/>
	<path fill="#2980B9" d="M235.5,133.8v47.8c0,2-2.4,3.1-5.3,3.1c-2.9,0-5.3-1.2-5.3-3.1v-47.8H235.5 M240.5,128.8h-5H225h-5v5v47.8
		c0,4.7,4.3,8.1,10.3,8.1c6.1,0,10.3-3.3,10.3-8.1v-47.8V128.8L240.5,128.8z"/>
</g>
<ellipse fill="#FFFFFF" cx="230.3" cy="133.8" rx="5.3" ry="2.8"/>
<path fill="#FFFFFF" d="M229.7,123.9c0,0-6.5-5.3-6.5-18.4s10.5-30.1,10.5-30.1s-6.9,14.5,1.3,29.3
	C242.8,118.8,229.7,123.9,229.7,123.9z"/>
<g>
	<path fill="#FFFFFF" d="M144.7,187.1c-4.6,0-7.8-2.3-7.8-5.6v-50.2h15.6v50.2C152.5,184.9,149.4,187.1,144.7,187.1z"/>
	<path fill="#2980B9" d="M150,133.8v47.8c0,2-2.4,3.1-5.3,3.1c-2.9,0-5.3-1.2-5.3-3.1v-47.8H150 M155,128.8h-5h-10.6h-5v5v47.8
		c0,4.7,4.3,8.1,10.3,8.1c6.1,0,10.3-3.3,10.3-8.1v-47.8V128.8L155,128.8z"/>
</g>
<ellipse fill="#FFFFFF" cx="144.7" cy="133.8" rx="5.3" ry="2.8"/>
<path fill="#FFFFFF" d="M144.1,123.9c0,0-6.5-5.3-6.5-18.4s10.5-30.1,10.5-30.1s-6.9,14.5,1.3,29.3
	C157.2,118.8,144.1,123.9,144.1,123.9z"/>
</svg>
