<?xml version="1.0" encoding="utf-8"?>
<!-- Generator: Adobe Illustrator 21.1.0, SVG Export Plug-In . SVG Version: 6.00 Build 0)  -->
<svg version="1.2" baseProfile="tiny" id="Layer_1" xmlns="http://www.w3.org/2000/svg" xmlns:xlink="http://www.w3.org/1999/xlink"
	 x="0px" y="0px" viewBox="0 0 375 375" xml:space="preserve">
<path fill-rule="evenodd" fill="#2980B9" d="M360.6,56.6V319c0,23-18.8,41.9-41.9,41.9H56.3c-23,0-41.9-18.8-41.9-41.9V56.6
	c0-23,18.8-41.9,41.9-41.9h262.4C341.8,14.7,360.6,33.6,360.6,56.6z"/>
<path fill-rule="evenodd" fill="#FFFFFF" d="M331.7,104.3v199.2c0,15.1-15.7,27.4-34.9,27.4H78.2c-19.2,0-34.9-12.3-34.9-27.4V104.3
	H331.7z"/>
<g>
	<path fill="#FFFFFF" d="M64,16.7v27.6c0,5.2,4.2,9.4,9.4,9.4h20.2c5.2,0,9.4-4.2,9.4-9.4V16.7H64z"/>
	<path fill="#2980B9" d="M102,16.7v27.6c0,4.6-3.8,8.4-8.4,8.4H73.4c-4.6,0-8.4-3.8-8.4-8.4V16.7h-2v27.6c0,5.7,4.7,10.4,10.4,10.4
		h20.2c5.7,0,10.4-4.7,10.4-10.4V16.7H102z"/>
</g>
<g>
	<path fill="#FFFFFF" d="M173.9,16.7v27.4c0,5.2-4.2,9.4-9.4,9.4h-20.2c-5.2,0-9.4-4.2-9.4-9.4V16.7H173.9z"/>
	<path fill="#2980B9" d="M172.9,16.7v27.4c0,4.6-3.8,8.4-8.4,8.4h-20.2c-4.6,0-8.4-3.8-8.4-8.4V16.7h-2v27.4
		c0,5.7,4.7,10.4,10.4,10.4h20.2c5.7,0,10.4-4.7,10.4-10.4V16.7H172.9z"/>
</g>
<g>
	<path fill="#FFFFFF" d="M244.5,16.7v27.5c0,5.2-4.2,9.4-9.4,9.4h-20.2c-5.2,0-9.4-4.2-9.4-9.4V16.7H244.5z"/>
	<path fill="#2980B9" d="M243.5,16.7v27.5c0,4.6-3.8,8.4-8.4,8.4h-20.2c-4.6,0-8.4-3.8-8.4-8.4V16.7h-2v27.5
		c0,5.7,4.7,10.4,10.4,10.4h20.2c5.7,0,10.4-4.7,10.4-10.4V16.7H243.5z"/>
</g>
<g>
	<path fill="#FFFFFF" d="M315.2,16.7v27.6c0,5.2-4.2,9.4-9.4,9.4h-20.2c-5.2,0-9.4-4.2-9.4-9.4V16.7H315.2z"/>
	<path fill="#2980B9" d="M314.2,16.7v27.6c0,4.6-3.8,8.4-8.4,8.4h-20.2c-4.6,0-8.4-3.8-8.4-8.4V16.7h-2v27.6
		c0,5.7,4.7,10.4,10.4,10.4h20.2c5.7,0,10.4-4.7,10.4-10.4V16.7H314.2z"/>
</g>
<g>
	<path fill="#2980B9" d="M183.1,221.8c-5.7-5.3-14-8.7-25-10v-0.6c9.3-2.2,16.6-6.3,21.8-12.3c5.2-6,7.8-13.2,7.8-21.8
		c0-10.2-4.1-18.2-12.3-23.9c-8.2-5.7-19.4-8.6-33.5-8.6c-17.2,0-32.1,4.5-44.5,13.5l13.3,19.9c5.7-3.7,10.8-6.2,15.5-7.8
		c4.6-1.5,9.2-2.2,13.7-2.2c13,0,19.4,5.2,19.4,15.5c0,6.7-2.4,11.5-7.3,14.2c-4.9,2.8-12.6,4.2-23.2,4.2h-10.5V224h10.4
		c11.5,0,19.8,1.3,25,4c5.2,2.7,7.8,7.2,7.8,13.6c0,7.2-2.3,12.4-6.8,15.6c-4.5,3.2-11.6,4.8-21.1,4.8c-6.2,0-12.5-0.8-18.9-2.5
		c-6.4-1.7-12.2-3.9-17.5-6.5v24.6c11.5,4.9,24.6,7.4,39.4,7.4c17.7,0,31.3-3.7,40.8-11c9.5-7.3,14.3-17.5,14.3-30.7
		C191.6,234.3,188.7,227.2,183.1,221.8z"/>
	<path fill="#2980B9" d="M254.2,146.6l-44,35l13.9,17.4l15.7-12.6c1.9-1.5,5.2-4.6,10-9.4l-0.5,14.2l-0.3,13v79h28.8V146.6H254.2z"
		/>
</g>
</svg>
