<?xml version="1.0" encoding="utf-8"?>
<!-- Generator: Adobe Illustrator 21.1.0, SVG Export Plug-In . SVG Version: 6.00 Build 0)  -->
<svg version="1.2" baseProfile="tiny" id="Layer_1" xmlns="http://www.w3.org/2000/svg" xmlns:xlink="http://www.w3.org/1999/xlink"
	 x="0px" y="0px" viewBox="0 0 375 375" xml:space="preserve">
<path fill-rule="evenodd" fill="#2980B9" d="M318.7,14.4H56.3c-23,0-41.9,18.9-41.9,41.9v262.4c0,23,18.8,41.9,41.9,41.9h262.4
	c23,0,41.9-18.8,41.9-41.9V56.3C360.6,33.2,341.8,14.4,318.7,14.4z M112.3,149.9c0-3.8,3.8-4.1,4.9-4.1h17.1v39h-17.1
	c-0.8,0-4.9-0.2-4.9-4.2V149.9z"/>
<path fill="#FFFFFF" d="M257.7,113.8v26.9h-8v-26.9c0-13.5-6-19.9-24.7-26.4c-18.1-6.3-52.5-4.5-69.2-0.5
	c-16.8,4.1-24.6,12.6-24.6,26.9v26.9h-8v-26.9c0-18.1,10.3-29.7,30.7-34.7c17.2-4.2,53.4-6.3,73.7,0.7
	C246.2,86.4,257.7,94.3,257.7,113.8z"/>
<path fill="#FFFFFF" d="M190.3,272.9l-30.7-23.2l9.5-10.7l0-0.2c7.6,4.9,15.9,8.5,23,8.5c6.5,0,13.8-3,20.5-7.1l8.4,9.6L190.3,272.9
	z"/>
<path fill="#FFFFFF" d="M274.5,276.9c-54.2,43.3-109.8,43.3-166.9,0l47.4-24.4l33.8,25.5c0.5,0.3,1,0.5,1.5,0.5
	c0.5,0,1.1-0.2,1.5-0.5l33.8-25.5L274.5,276.9z"/>
<g>
	<path fill="#FFFFFF" d="M241.7,165.3v23.8c-0.1,2-0.5,4.1-1,6.1c-0.1,0.5-0.3,1-0.4,1.5c-0.2,0.5-0.3,1-0.5,1.5h-23.3
		c-4.4,0-8,3.6-8,8c0,4.4,3.6,8,8,8h14.4c-0.7,1-1.5,1.9-2.3,2.9c-0.3,0.3-0.6,0.7-0.9,1c-0.3,0.3-0.6,0.7-0.9,1
		c-0.6,0.7-1.2,1.3-1.8,2c-0.2,0.2-0.4,0.4-0.6,0.7c-2.4,2.5-5,4.9-7.7,7c-0.4,0.3-0.8,0.7-1.2,1c-0.5,0.4-0.9,0.7-1.4,1
		c-0.5,0.3-0.9,0.7-1.4,1c-0.5,0.3-0.9,0.6-1.4,1c0,0,0,0,0,0c-0.5,0.3-0.9,0.6-1.4,0.9c-0.8,0.5-1.6,1-2.5,1.5
		c-0.3,0.2-0.7,0.4-1,0.6c-0.8,0.4-1.6,0.8-2.3,1.2c-0.3,0.1-0.5,0.3-0.8,0.4c-0.3,0.2-0.6,0.3-1,0.4c-0.8,0.4-1.6,0.7-2.3,1
		c-0.2,0.1-0.5,0.2-0.7,0.2c-0.4,0.2-0.8,0.3-1.2,0.4c-0.3,0.1-0.6,0.2-0.9,0.3c-0.8,0.2-1.7,0.4-2.4,0.5c-0.3,0.1-0.5,0.1-0.8,0.1
		c0,0,0,0,0,0c-0.2,0-0.5,0.1-0.7,0.1c-0.4,0-0.8,0-1.2,0c-0.3,0-0.7,0-1,0c0,0-0.1,0-0.1,0c-0.3,0-0.6,0-0.8-0.1
		c-0.4-0.1-0.9-0.1-1.3-0.2c-0.4-0.1-0.8-0.2-1.1-0.2c0,0-0.1,0-0.1,0c-0.3-0.1-0.5-0.1-0.8-0.2c-0.5-0.1-1.1-0.3-1.6-0.5
		c-0.4-0.1-0.8-0.3-1.3-0.5c-0.4-0.2-0.9-0.3-1.3-0.5c0,0,0,0,0,0c-0.4-0.2-0.8-0.4-1.3-0.5c-1.9-0.8-3.8-1.8-5.8-3
		c-0.4-0.2-0.8-0.5-1.2-0.7c-0.5-0.3-1-0.6-1.4-0.9c-0.4-0.2-0.8-0.5-1.2-0.8c-0.1,0-0.2-0.1-0.2-0.2c-0.5-0.3-1-0.7-1.5-1
		c-0.4-0.3-0.8-0.5-1.1-0.8c-0.9-0.7-1.8-1.3-2.7-2c-0.3-0.3-0.7-0.5-1-0.8c-1.4-1.1-2.8-2.3-4.2-3.6c-0.3-0.3-0.7-0.6-1-0.9
		c-2-1.9-4-3.9-5.8-5.9c-0.4-0.4-0.8-0.8-1.1-1.3c-4-4.6-7.4-9.6-9.9-14.6c-0.2-0.5-0.5-0.9-0.7-1.4c-0.4-1-0.8-1.9-1.2-2.9
		c0-0.1-0.1-0.2-0.1-0.3c-0.1-0.3-0.2-0.7-0.3-1c-0.1-0.2-0.2-0.4-0.2-0.6c-0.2-0.5-0.3-1.1-0.5-1.6c-0.1-0.3-0.2-0.7-0.2-1
		c0-0.1,0-0.2-0.1-0.3c-0.1-0.5-0.2-0.9-0.3-1.3c-0.1-0.5-0.2-1-0.2-1.5v-31.5c0.1-0.3,0.2-0.6,0.2-0.9c0-0.1,0-0.2,0-0.3
		c0-0.1,0.1-11.4,8.2-18.7c6-5.3,15-7.3,26.8-5.9c26.8,3.2,43.8,1.2,50.6-6.2c0.5-0.5,0.9-1.1,1.3-1.6c8.3,9.3,13.4,30.6,14.9,39.8
		c0,0.3,0.1,0.5,0.1,0.8C241.6,164.9,241.6,165.1,241.7,165.3z"/>
	<path fill="#FFFFFF" d="M139.5,156.7c0,0.3-0.1,0.6-0.2,0.9v-1L139.5,156.7z"/>
	<path fill="#FFFFFF" d="M241.7,163.9v1.4c-0.1-0.2-0.1-0.4-0.2-0.7c0-0.2-0.1-0.5-0.1-0.8L241.7,163.9z"/>
	<path fill="#FFFFFF" d="M241.7,120.1v17.5c-3.5-9.3-8.4-18.5-15.2-22.6c-1.2-0.8-2.9-0.8-4,0c-1.1,0.9-1.6,2.2-1.3,3.5
		c0,0.3-0.1,1.3-1.4,2.6c-7.6,7.3-33.6,5-44.4,3.7c-13.9-1.7-24.8,0.9-32.4,7.7c-1.4,1.3-2.7,2.6-3.7,4v-16.5
		c0-13.4,7.9-21.4,22.4-24.9c3.1-0.7,6.8-1.4,10.8-1.9c0.3,0,0.6-0.1,0.9-0.1c0.6-0.1,1.3-0.2,1.9-0.2c0.3,0,0.6-0.1,1-0.1
		c0.7-0.1,1.3-0.1,2-0.2c0.7-0.1,1.3-0.1,2-0.2c0.7,0,1.4-0.1,2-0.1c0.7,0,1.4-0.1,2.1-0.1c0.1,0,0.2,0,0.3,0c0.6,0,1.2,0,1.8-0.1
		c0.4,0,0.8,0,1.2,0c0.6,0,1.1,0,1.7,0c0.8,0,1.6,0,2.4,0h0c10.3,0,20.6,1,27.8,3.5C234.6,100.9,241.7,106.7,241.7,120.1z"/>
</g>
<g>
	<path fill="#2980B9" d="M139.3,156.6v1c0.1-0.3,0.2-0.6,0.2-0.9L139.3,156.6z M241.4,163.9c0,0.3,0.1,0.5,0.1,0.8
		c0,0.2,0.1,0.5,0.2,0.7v-1.4L241.4,163.9z"/>
</g>
<g>
	<path fill="#FFFFFF" d="M134.3,145.8v39h-17.1c-0.8,0-4.9-0.2-4.9-4.2v-30.6c0-3.8,3.8-4.1,4.9-4.1H134.3z"/>
</g>
<g>
	<path fill="#FFFFFF" d="M257.7,189.8v4.5c0,0.4,0,0.8,0,1.1c0,0,0,0.1,0,0.1c0,0,0,0.1,0,0.1c0,0.1,0,0.3,0,0.4
		c0,0.3-0.1,0.6-0.1,0.9c0,0.3-0.1,0.5-0.2,0.8v0c0,0,0,0,0,0.1c0,0.2-0.1,0.4-0.1,0.6c-0.1,0.2-0.1,0.4-0.2,0.6c0,0,0,0,0,0
		c-0.1,0.3-0.2,0.6-0.3,0.9c0,0,0,0,0,0c0,0.1-0.1,0.2-0.1,0.3c-0.1,0.2-0.2,0.5-0.3,0.7c0,0.1-0.1,0.2-0.1,0.2
		c-0.2,0.3-0.3,0.6-0.5,1c-0.2,0.3-0.4,0.7-0.6,1c-0.1,0.2-0.3,0.4-0.4,0.6c0,0.1-0.1,0.2-0.2,0.2c0,0,0,0,0,0.1
		c-0.2,0.3-0.5,0.6-0.8,1c-0.2,0.2-0.3,0.4-0.5,0.5c-0.2,0.2-0.3,0.3-0.5,0.5c-0.4,0.3-0.7,0.7-1.1,1c-0.4,0.3-0.8,0.6-1.3,0.9
		c-0.2,0.1-0.4,0.3-0.7,0.4c-0.1,0.1-0.3,0.2-0.4,0.2c-0.1,0-0.1,0.1-0.2,0.1c-0.2,0.1-0.5,0.2-0.8,0.3c-0.2,0.1-0.5,0.2-0.7,0.3
		c-0.2,0.1-0.5,0.2-0.7,0.3c-0.2,0.1-0.5,0.2-0.7,0.2s-0.5,0.1-0.7,0.2c-0.3,0.1-0.6,0.1-0.9,0.2c-0.3,0-0.5,0.1-0.8,0.1
		c-0.3,0-0.5,0-0.8,0.1c-0.3,0-0.5,0-0.8,0c-0.1,0-0.2,0-0.2,0h-25.2c-2.2,0-4-1.8-4-4c0-2.2,1.8-4,4-4h25.2c0.1,0,0.2,0,0.2,0
		c0.1,0,0.2,0,0.2,0c0.1,0,0.2,0,0.3,0c0,0,0.1,0,0.1,0c0.2,0,0.3,0,0.5-0.1c0.2,0,0.3-0.1,0.5-0.1c0,0,0.1,0,0.1,0c0,0,0.1,0,0.1,0
		c0.1,0,0.3-0.1,0.4-0.1c0.2,0,0.4-0.1,0.6-0.2c0.2-0.1,0.4-0.2,0.5-0.2c0.2-0.1,0.3-0.2,0.5-0.3c0.1-0.1,0.3-0.2,0.4-0.3
		c0,0,0,0,0.1-0.1c0.2-0.1,0.4-0.3,0.5-0.4c0.1-0.1,0.2-0.2,0.3-0.2c0.1-0.1,0.2-0.2,0.3-0.3c0.2-0.2,0.4-0.4,0.5-0.6
		c0.1-0.1,0.1-0.2,0.2-0.3c0.1-0.1,0.2-0.3,0.3-0.4c0.1-0.1,0.2-0.3,0.2-0.4c0.2-0.3,0.3-0.6,0.5-0.9c0-0.1,0.1-0.2,0.1-0.3
		c0.1-0.2,0.1-0.4,0.2-0.5c0.1-0.3,0.1-0.6,0.2-0.8c0-0.1,0-0.3,0.1-0.4c0-0.1,0-0.3,0-0.4c0-0.2,0-0.3,0-0.5v-4.5H257.7z"/>
</g>
<g>
	<path fill="#FFFFFF" d="M268.7,149.9v30.6c0,4-4.1,4.2-4.9,4.2h-17.1v-39h17.1C264.9,145.8,268.7,146,268.7,149.9z"/>
</g>
</svg>
