<?xml version="1.0" encoding="utf-8"?>
<!-- Generator: Adobe Illustrator 21.1.0, SVG Export Plug-In . SVG Version: 6.00 Build 0)  -->
<svg version="1.2" baseProfile="tiny" id="Layer_1" xmlns="http://www.w3.org/2000/svg" xmlns:xlink="http://www.w3.org/1999/xlink"
	 x="0px" y="0px" viewBox="0 0 375 375" xml:space="preserve">
<path fill="#2980B9" d="M360.6,56.3v262.4c0,23-18.8,41.9-41.9,41.9H56.3c-23,0-41.9-18.8-41.9-41.9V56.3c0-23,18.8-41.9,41.9-41.9
	h262.4C341.8,14.4,360.6,33.2,360.6,56.3z"/>
<g>
	<g>
		<path fill="#FFFFFF" d="M195.9,212.1l-1.8-7.1c-0.4-1.5-1.4-2.7-2.7-3.3c-0.6-0.3-1.3-0.4-2.1-0.4h-1.4l-9.1-47.3
			c-0.3-1.9-1.9-3.3-3.9-3.3H93.5c-1.9,0-3.6,1.4-3.9,3.3l-9.1,47.3h-1.4c-2.3,0-4.2,1.5-4.8,3.7l-1.8,7.1c-0.5,2.1-0.8,4.2-0.8,6.3
			v28.4c0,2.8,2.3,5,5,5h12.6c2.8,0,5-2.3,5-5V244H174v2.8c0,2.8,2.3,5,5,5h12.6c2.8,0,5-2.3,5-5v-28.4
			C196.7,216.3,196.4,214.2,195.9,212.1z M94.1,159.4c0.3-1.6,1.6-2.7,3.2-2.7h73.9c1.6,0,3,1.2,3.2,2.7l8.3,40.9H85.8L94.1,159.4z
			 M92.8,233.3c-6.1,0-11.1-5-11.1-11.1s5-11.1,11.1-11.1s11.1,5,11.1,11.1S98.9,233.3,92.8,233.3z M174.8,233.3
			c-6.1,0-11.1-5-11.1-11.1s5-11.1,11.1-11.1s11.1,5,11.1,11.1C185.9,228.3,181,233.3,174.8,233.3z"/>
	</g>
	<path fill="#FFFFFF" d="M299.8,207.2l-1.2-0.3l2.5-43.6c0.1-1.7-1-3.3-2.7-3.7l-8.6-2.1l-63.1-15.8c-1.7-0.4-3.4,0.4-4.1,2
		l-18.4,39.6L203,183c-2-0.5-4.1,0.4-5,2.2l-3.1,5.9c-0.9,1.7-1.6,3.5-2.1,5.4l-0.7,2.7c2.3,0.8,4,2.8,4.6,5.2l1.8,7.1
		c0.6,2.3,0.9,4.6,0.9,6.9v10.9l1.6,0.4c2.4,0.6,4.9-0.9,5.5-3.3l0.6-2.5l62.2,15.6l7.7,1.9l-0.6,2.5c-0.6,2.4,0.9,4.9,3.3,5.5
		l11.1,2.8c2.4,0.6,4.9-0.9,5.5-3.3l6.3-25c0.5-1.9,0.7-3.8,0.7-5.7v-6.7C303.2,209.5,301.8,207.7,299.8,207.2z M220.1,206.8
		c-1.4,5.4-6.8,8.7-12.2,7.3s-8.7-6.8-7.3-12.2s6.8-8.7,12.2-7.3C218.1,195.9,221.4,201.4,220.1,206.8z M292.2,224.8
		c-1.4,5.4-6.8,8.7-12.2,7.3c-5.4-1.4-8.7-6.8-7.3-12.2c1.4-5.4,6.8-8.7,12.2-7.3C290.3,214,293.6,219.4,292.2,224.8z M294.2,204.9
		L209,183.6l16.3-34.2c0.6-1.3,2-2,3.4-1.7l65,16.3c1.4,0.3,2.3,1.7,2.2,3.1L294.2,204.9z"/>
	<path fill="#FFFFFF" d="M192.3,165.5l-12.3-28c-0.6-1.3-0.9-1.7-0.9-2.6c0-0.9,0-1.7,1.7-2.6c1.1-0.5,3.9-0.6,4.3,1.6L192.3,165.5z
		"/>
	<path fill="#FFFFFF" d="M196.2,164.6l-1.4-39c-0.2-1.5,1-2.9,2.4-2.9h1.9c1.5,0,2.6,1.4,2.4,3L196.2,164.6z"/>
	<path fill="#FFFFFF" d="M198.9,164.6l13.6-32.2c0.5-1.2,1.8-1.8,3-1.3l1.1,0.9c1.1,0.8,1.4,2.5,0.5,3.6L198.9,164.6z"/>
</g>
</svg>
