<svg id="608c2dc3-9a57-4e03-9c4e-13ba230aa53f" data-name="Layer 1" xmlns="http://www.w3.org/2000/svg" width="184" height="184" viewBox="0 0 184 184"><title>Licence icon</title><rect width="184" height="184" rx="12" ry="12" style="fill:#2980b9"/><rect x="34.96" y="56" width="117.5" height="78.79" rx="3.89" ry="3.89" style="fill:#fff"/><path d="M91.58,123.08C91.58,107,80.85,94,67.62,94s-24,13-24,29.09Z" style="fill:#2980b9"/><path d="M67.62,102.41A15.69,15.69,0,1,1,83.31,86.72,15.71,15.71,0,0,1,67.62,102.41Z" style="fill:#2980b9"/><path d="M67.62,73A13.69,13.69,0,1,1,53.93,86.72,13.69,13.69,0,0,1,67.62,73m0-4A17.69,17.69,0,1,0,85.31,86.72,17.71,17.71,0,0,0,67.62,69Z" style="fill:#fff"/><rect x="90.19" y="81.5" width="53.56" height="5" rx="1.51" ry="1.51" style="fill:#2980b9"/><rect x="100.1" y="104.29" width="43.66" height="5" rx="1.51" ry="1.51" style="fill:#2980b9"/><rect x="100.1" y="117.07" width="43.66" height="5" rx="1.51" ry="1.51" style="fill:#2980b9"/></svg>