<svg id="6c290cdc-987e-4ba5-9001-729823e1e8cc" data-name="Layer 1" xmlns="http://www.w3.org/2000/svg" width="184" height="184" viewBox="0 0 184 184"><title>logbook icon</title><rect width="184" height="184" rx="12" ry="12" style="fill:#2980b9"/><rect x="51.93" y="41" width="80.52" height="107.64" rx="12" ry="12" style="fill:#fff"/><path d="M134.89,73.46h-11c-1.6,0-2.9-1.84-2.9-4.11s1.3-4.11,2.9-4.11h11c1.6,0,2.9,1.84,2.9,4.11S136.49,73.46,134.89,73.46Z" style="fill:#2980b9;stroke:#fff;stroke-miterlimit:10"/><path d="M134.89,90.71h-11c-1.6,0-2.9-1.84-2.9-4.11s1.3-4.11,2.9-4.11h11c1.6,0,2.9,1.84,2.9,4.11S136.49,90.71,134.89,90.71Z" style="fill:#2980b9;stroke:#fff;stroke-miterlimit:10"/><path d="M134.89,108h-11c-1.6,0-2.9-1.84-2.9-4.11s1.3-4.11,2.9-4.11h11c1.6,0,2.9,1.84,2.9,4.11S136.49,108,134.89,108Z" style="fill:#2980b9;stroke:#fff;stroke-miterlimit:10"/><path d="M134.89,125.22h-11c-1.6,0-2.9-1.84-2.9-4.11s1.3-4.11,2.9-4.11h11c1.6,0,2.9,1.84,2.9,4.11S136.49,125.22,134.89,125.22Z" style="fill:#2980b9;stroke:#fff;stroke-miterlimit:10"/><rect x="64.35" y="60.45" width="51.76" height="3" rx="0.75" ry="0.75" style="fill:#2980b9"/><rect x="64.35" y="75.23" width="51.76" height="3" rx="0.75" ry="0.75" style="fill:#2980b9"/><rect x="64.35" y="83.45" width="51.76" height="3" rx="0.75" ry="0.75" style="fill:#2980b9"/><rect x="64.35" y="91.67" width="51.76" height="3" rx="0.75" ry="0.75" style="fill:#2980b9"/><rect x="64.35" y="108.1" width="51.76" height="3" rx="0.75" ry="0.75" style="fill:#2980b9"/><rect x="64.35" y="116.32" width="51.76" height="3" rx="0.75" ry="0.75" style="fill:#2980b9"/><rect x="64.35" y="124.53" width="51.76" height="3" rx="0.75" ry="0.75" style="fill:#2980b9"/></svg>