<?xml version="1.0" encoding="utf-8"?>
<!-- Generator: Adobe Illustrator 21.1.0, SVG Export Plug-In . SVG Version: 6.00 Build 0)  -->
<svg version="1.2" baseProfile="tiny" id="Layer_1" xmlns="http://www.w3.org/2000/svg" xmlns:xlink="http://www.w3.org/1999/xlink"
	 x="0px" y="0px" viewBox="0 0 375 375" xml:space="preserve">
<path fill-rule="evenodd" fill="#2980B9" d="M360.6,56.3v262.4c0,23-18.8,41.9-41.9,41.9H56.3c-23,0-41.9-18.8-41.9-41.9V56.3
	c0-23,18.8-41.9,41.9-41.9h262.4C341.8,14.4,360.6,33.2,360.6,56.3z"/>
<g>
	<path fill="#FFFFFF" d="M137.2,233.8h-25l-40.3-70.1h-0.6c0.8,12.4,1.2,21.2,1.2,26.5v43.6H55v-92.6h24.8l40.2,69.4h0.4
		c-0.6-12-1-20.5-1-25.5v-43.8h17.7V233.8z"/>
	<path fill="#FFFFFF" d="M199.8,156.2c-7.4,0-13.1,2.8-17.2,8.3s-6.1,13.3-6.1,23.2c0,20.7,7.8,31,23.3,31c6.5,0,14.4-1.6,23.6-4.9
		v16.5c-7.6,3.2-16.1,4.8-25.5,4.8c-13.5,0-23.8-4.1-30.9-12.3c-7.1-8.2-10.7-19.9-10.7-35.2c0-9.6,1.8-18.1,5.3-25.3
		c3.5-7.2,8.5-12.8,15.1-16.7c6.6-3.9,14.3-5.8,23.1-5.8c9,0,18,2.2,27.1,6.5l-6.3,16c-3.5-1.6-6.9-3.1-10.5-4.3
		C206.6,156.8,203.2,156.2,199.8,156.2z"/>
	<path fill="#FFFFFF" d="M320,186.6c0,15.2-4.3,26.9-13,35s-21.2,12.2-37.6,12.2h-26.2v-92.6h29.1c15.1,0,26.9,4,35.2,12
		C315.8,161.2,320,172.3,320,186.6z M299.6,187.2c0-19.9-8.8-29.8-26.4-29.8h-10.5v60.3h8.4C290.1,217.6,299.6,207.5,299.6,187.2z"
		/>
</g>
</svg>
