<svg id="obd-ignitionoff-icon" xmlns="http://www.w3.org/2000/svg" width="71" height="71" viewBox="0 0 71 71">
  <rect id="Rectangle_501" data-name="Rectangle 501" width="71" height="71" rx="7.702" fill="#2980b9"/>
  <path id="Path_1642" data-name="Path 1642" d="M57.5,28.484A26.015,26.015,0,1,0,83.514,54.5,26.015,26.015,0,0,0,57.5,28.484ZM55.921,39.422a1.8,1.8,0,1,1,3.592,0V53.9a1.8,1.8,0,1,1-3.592,0Zm1.8,29.048a13.476,13.476,0,0,1-6.494-25.283,1.8,1.8,0,0,1,1.734,3.146,9.882,9.882,0,1,0,9.036-.249,1.8,1.8,0,0,1,1.557-3.237,13.476,13.476,0,0,1-5.833,25.624Z" transform="translate(-21.866 -18.866)" fill="#fff"/>
</svg>
