<?xml version="1.0" encoding="utf-8"?>
<!-- Generator: Adobe Illustrator 21.1.0, SVG Export Plug-In . SVG Version: 6.00 Build 0)  -->
<svg version="1.2" baseProfile="tiny" id="Layer_1" xmlns="http://www.w3.org/2000/svg" xmlns:xlink="http://www.w3.org/1999/xlink"
	 x="0px" y="0px" viewBox="0 0 375 375" xml:space="preserve">
<path fill-rule="evenodd" fill="#2980B9" d="M360.6,56.3v262.4c0,23-18.8,41.9-41.9,41.9H56.3c-23,0-41.9-18.8-41.9-41.9V56.3
	c0-23,18.8-41.9,41.9-41.9h262.4C341.8,14.4,360.6,33.2,360.6,56.3z"/>
<path fill="#FFFFFF" d="M236.5,83.5h-97.9c-8.2,0-15,6.8-15,15v182c0,8.2,6.8,15,15,15h97.9c8.2,0,15-6.6,15-15v-182
	C251.5,90.3,244.7,83.5,236.5,83.5z M176.7,97.6c0-0.8,0.7-1.5,1.5-1.5h18.5c0.8,0,1.5,0.7,1.5,1.5v2.1c0,0.8-0.7,1.5-1.5,1.5h-18.5
	c-0.8,0-1.5-0.7-1.5-1.5V97.6z M244.3,270.4H130.6V108.9h113.7V270.4z"/>
</svg>
