<?xml version="1.0" encoding="utf-8"?>
<!-- Generator: Adobe Illustrator 21.1.0, SVG Export Plug-In . SVG Version: 6.00 Build 0)  -->
<svg version="1.2" baseProfile="tiny" id="Layer_1" xmlns="http://www.w3.org/2000/svg" xmlns:xlink="http://www.w3.org/1999/xlink"
	 x="0px" y="0px" viewBox="0 0 375 375" xml:space="preserve">
<path fill-rule="evenodd" fill="#2980B9" d="M360.6,56.3v262.4c0,23-18.8,41.9-41.9,41.9H56.3c-23,0-41.9-18.8-41.9-41.9V56.3
	c0-23,18.8-41.9,41.9-41.9h262.4C341.8,14.4,360.6,33.2,360.6,56.3z"/>
<path fill="#FFFFFF" d="M316.7,176.2c0,27.1-14.5,51.4-39.9,67.7c-2.3,1.5-8.5,43.9-8.5,43.9h-27.9c0,0-1.8-27.7-3.3-27.4
	c-12.5,3-26.3,4.6-41.1,4.6c-8.4,0-16.3-0.5-23.7-1.4c-5.3-0.6-6.5,24.1-6.5,24.1h-29.6c0,0-4.8-35.1-9.6-37.5
	c-20.6-10.5-35.2-25.6-45.6-42.3c0,0.2-22.7-5.5-22.7-5.5v-37l19.3-6.3L96,122.7l-23.4-17.1c0,0,16.7-20.1,31.9-18.2
	c10.4,1.3,25.2,12.9,25.2,12.9s41.2-12.9,66.5-12.9C269.3,87.4,316.7,127.2,316.7,176.2z"/>
<path fill="#FFFFFF" stroke="#2980B9" stroke-width="9" stroke-linecap="round" stroke-miterlimit="10" d="M228.1,106.5
	c0,0-13-3-28.8-3c-19.1,0-30.7,3.3-30.7,3.3"/>
</svg>
