<svg id="obd-port-icon" xmlns="http://www.w3.org/2000/svg" width="73" height="73" viewBox="0 0 73 73">
  <rect id="Rectangle_504" data-name="Rectangle 504" width="73" height="73" rx="7.702" fill="#2980b9"/>
  <g id="Group_1339" data-name="Group 1339" transform="translate(4.438 22.05)">
    <path id="Path_1645" data-name="Path 1645" d="M83.35,78.651,79.511,61.36a6.58,6.58,0,0,0-6.533-4.907H30.153a6.525,6.525,0,0,0-6.513,4.82L19.516,78.564a5.764,5.764,0,0,0,1.118,4.93,6.889,6.889,0,0,0,5.4,2.529H76.816a6.811,6.811,0,0,0,5.366-2.491A5.776,5.776,0,0,0,83.35,78.651Zm-3.9,2.691a3.379,3.379,0,0,1-2.638,1.182H26.03a3.369,3.369,0,0,1-2.651-1.2,2.256,2.256,0,0,1-.46-1.951l4.123-17.291a3.092,3.092,0,0,1,3.111-2.133H72.978A3.075,3.075,0,0,1,76.1,62.118l3.838,17.291A2.264,2.264,0,0,1,79.454,81.342Z" transform="translate(-19.361 -56.453)" fill="#fff"/>
    <path id="Path_1646" data-name="Path 1646" d="M83.527,82.662H80.019V78.625H77.4v4.038H73.887V78.625H71.264v4.038H67.756V78.625H65.133v4.038H61.625V78.625H59v4.038H55.493V78.625H52.87v4.038H49.362V78.625H46.738v4.038H43.23V78.625H40.607v10.7H43.23V85.286h3.508v4.038h2.624V85.286H52.87v4.038h2.624V85.286H59v4.038h2.624V85.286h3.508v4.038h2.624V85.286h3.508v4.038h2.624V85.286H77.4v4.038h2.624V85.286h3.508v4.038H86.15v-10.7H83.527Z" transform="translate(-31.317 -68.93)" fill="#fff"/>
  </g>
  <path id="Path_1647" data-name="Path 1647" d="M86.817,28.175V20.8H80.668v7.379H76.794l6.887,5.165,7.01-5.165Z" transform="translate(-47.243 -14.338)" fill="#fff"/>
  <path id="Path_1648" data-name="Path 1648" d="M80.668,138.18v7.379h6.149V138.18h3.874L83.8,133.015l-7.01,5.165Z" transform="translate(-47.243 -77.487)" fill="#fff"/>
</svg>
