<svg id="icon-pp-motor-excess" xmlns="http://www.w3.org/2000/svg" width="46" height="46" viewBox="0 0 46 46">
  <rect id="Rectangle_930" data-name="Rectangle 930" width="46" height="46" rx="5" fill="#002f5f"/>
  <g id="Group_14685" data-name="Group 14685" transform="translate(-66.848 -110.93)">
    <g id="Group_14684" data-name="Group 14684" transform="translate(71.7 127.04)">
      <path id="Path_3384" data-name="Path 3384" d="M90.951,160.217l-.279-1.1a.778.778,0,0,0-.419-.512.719.719,0,0,0-.326-.062h-.217L88.3,151.212a.6.6,0,0,0-.6-.512H75.079a.615.615,0,0,0-.6.512l-1.411,7.332h-.217a.763.763,0,0,0-.744.574l-.279,1.1a4.215,4.215,0,0,0-.124.977v4.4a.777.777,0,0,0,.775.775h1.953a.777.777,0,0,0,.775-.775v-.434H87.557v.434a.777.777,0,0,0,.775.775h1.953a.777.777,0,0,0,.775-.775v-4.4A3.5,3.5,0,0,0,90.951,160.217Zm-15.779-8.169a.5.5,0,0,1,.5-.419H87.123a.5.5,0,0,1,.5.419l1.287,6.34H73.886Zm-.2,11.455a1.721,1.721,0,1,1,1.721-1.721A1.727,1.727,0,0,1,74.971,163.5Zm12.71,0a1.721,1.721,0,1,1,1.721-1.721A1.727,1.727,0,0,1,87.681,163.5Z" transform="translate(-71.7 -150.7)" fill="#fff"/>
    </g>
    <path id="Path_3385" data-name="Path 3385" d="M208.794,151.767l-.186-.047.388-6.758a.553.553,0,0,0-.419-.574l-1.333-.326-9.781-2.449a.546.546,0,0,0-.636.31l-2.852,6.138-.186-.047a.679.679,0,0,0-.775.341l-.481.915a3.908,3.908,0,0,0-.326.837l-.109.419a1.135,1.135,0,0,1,.713.806l.279,1.1a4.222,4.222,0,0,1,.139,1.07v1.69l.248.062a.709.709,0,0,0,.853-.512l.093-.388,9.641,2.418,1.194.294-.093.388a.709.709,0,0,0,.512.853l1.721.434a.709.709,0,0,0,.853-.512l.977-3.875a3.448,3.448,0,0,0,.108-.884v-1.039A.726.726,0,0,0,208.794,151.767ZM196.44,151.7a1.558,1.558,0,1,1-1.132-1.891A1.57,1.57,0,0,1,196.44,151.7Zm11.176,2.79a1.558,1.558,0,1,1-1.132-1.891A1.553,1.553,0,0,1,207.616,154.495Zm.31-3.085-13.206-3.3,2.527-5.3a.469.469,0,0,1,.527-.264l10.075,2.527a.455.455,0,0,1,.341.481Z" transform="translate(-101.738 -15.969)" fill="#fff"/>
    <path id="Path_3386" data-name="Path 3386" d="M181.146,137.2l-1.907-4.34a.888.888,0,0,1-.139-.4c0-.139,0-.263.264-.4.171-.077.6-.093.667.248Z" transform="translate(-90.753 -7.861)" fill="#fff"/>
    <path id="Path_3387" data-name="Path 3387" d="M195,129.195l-.217-6.045a.4.4,0,0,1,.372-.45h.294a.4.4,0,0,1,.372.465Z" transform="translate(-104.001)" fill="#fff"/>
    <path id="Path_3388" data-name="Path 3388" d="M198.9,136.143l2.108-4.991a.354.354,0,0,1,.465-.2l.171.14a.4.4,0,0,1,.078.558Z" transform="translate(-107.484 -6.949)" fill="#fff"/>
  </g>
</svg>
