<svg id="icon-pp-motor-legal" xmlns="http://www.w3.org/2000/svg" width="46" height="46" viewBox="0 0 46 46">
  <rect id="Rectangle_930" data-name="Rectangle 930" width="46" height="46" rx="5" fill="#002f5f"/>
  <g id="Group_14637" data-name="Group 14637" transform="translate(8.736 9.829)">
    <path id="Path_3374" data-name="Path 3374" d="M28.429,12.88H15.294V32.3L17.2,30.5V14.788h9.87V21.77h6.982V37.7h-15.5l-1.677,1.908H35.962V20.637Zm.551,3.305,3.571,3.677H28.979Z" transform="translate(-11.109 -12.88)" fill="#fff"/>
    <path id="Path_3375" data-name="Path 3375" d="M25.339,31.276l-.18.171a.636.636,0,0,0-.021.9l.777.814a.636.636,0,0,0,.9.021l5.414-5.169a.637.637,0,0,0,.021-.9l-.777-.814a.637.637,0,0,0-.9-.021l-.319.305-4.384-4.509.353-.337a.636.636,0,0,0,.021-.9l-.777-.814a.637.637,0,0,0-.9-.021l-5.415,5.17a.637.637,0,0,0-.021.9l.777.814a.638.638,0,0,0,.9.021l.314-.3,1.159,1.282-10.6,10.124a.721.721,0,0,0-.023,1.02l.81.848a.722.722,0,0,0,1.02.023L24.034,29.832Z" transform="translate(-11.455 -12.254)" fill="#fff"/>
  </g>
</svg>
