<svg id="icon-pp-replacement-vehicle" xmlns="http://www.w3.org/2000/svg" width="46" height="46" viewBox="0 0 46 46">
  <rect id="Rectangle_930" data-name="Rectangle 930" width="46" height="46" rx="5" fill="#002f5f"/>
  <path id="Path_3389" data-name="Path 3389" d="M18.309,26.889h-.182V24.225a3.448,3.448,0,0,0-3.448-3.448H10.66a3.447,3.447,0,0,0-3.447,3.448v2.664H7.029a1.563,1.563,0,0,0-1.563,1.563v2.33a1.564,1.564,0,0,0,1.563,1.564H7.1v1.388a.758.758,0,0,0,.758.758H9.11a.758.758,0,0,0,.758-.758V32.346h5.64v1.388a.758.758,0,0,0,.758.758h1.249a.758.758,0,0,0,.758-.758V32.346h.037a1.564,1.564,0,0,0,1.564-1.564v-2.33A1.564,1.564,0,0,0,18.309,26.889ZM8.056,30.656a1.031,1.031,0,1,1,1.031-1.031A1.031,1.031,0,0,1,8.056,30.656Zm6.554.035a.37.37,0,0,1-.37.37H11.1a.371.371,0,0,1-.37-.37v-.449a.371.371,0,0,1,.37-.37H14.24a.37.37,0,0,1,.37.37Zm.558-4.166H10.123v-2a.936.936,0,0,1,.935-.936h3.173a.937.937,0,0,1,.936.936Zm2.09,4.131a1.031,1.031,0,1,1,1.03-1.031A1.031,1.031,0,0,1,17.258,30.656Zm23.1-3.989a1.15,1.15,0,0,0-1.149-1.112H38.076a18.084,18.084,0,0,0-2.341-3.711s-.443-1.12-4.705-1.138v0h-.1v0c-4.262.018-4.705,1.138-4.705,1.138a18.084,18.084,0,0,0-2.341,3.711H22.756a1.149,1.149,0,0,0-1.148,1.185l.013.4a.721.721,0,0,0,.72.7h.927v5.9a.676.676,0,0,0,.676.676h2.019a.676.676,0,0,0,.676-.676V32.3H35.37v1.434a.676.676,0,0,0,.676.676h2.019a.676.676,0,0,0,.676-.676v-5.9h.906a.721.721,0,0,0,.72-.743ZM27.39,24.536l.941-1.65h5.3l.941,1.65s.529.778.132,1.018H27.258C26.86,25.315,27.39,24.536,27.39,24.536Zm1.342,4.854a.427.427,0,0,1-.427.427H25.63a.427.427,0,0,1-.427-.427V28.341a.427.427,0,0,1,.484-.423l2.675.358a.427.427,0,0,1,.37.423Zm8.04,0a.427.427,0,0,1-.427.427H33.67a.427.427,0,0,1-.427-.427V28.7a.427.427,0,0,1,.371-.423l2.674-.358a.427.427,0,0,1,.484.423ZM26.178,17.313,27,15.859a12.634,12.634,0,0,0-6.04-1.34,12.045,12.045,0,0,0-6.026,2.593.84.84,0,0,1-1.112-.035l-.736-.694a.838.838,0,0,1,.036-1.252,14.648,14.648,0,0,1,7.507-3.271c2.82-.349,6.036.882,7.815,1.711l.982-1.556,2.962,5.878Z" transform="translate(-0.383 -0.444)" fill="#fff"/>
</svg>
