<svg id="icon-pp-breakdown-docs" xmlns="http://www.w3.org/2000/svg" width="46" height="46" viewBox="0 0 46 46">
  <rect id="Rectangle_931" data-name="Rectangle 931" width="46" height="46" rx="5" fill="#002f5f"/>
  <path id="Path_3376" data-name="Path 3376" d="M15.173,31.546a2.76,2.76,0,1,0,2.759,2.76A2.763,2.763,0,0,0,15.173,31.546Zm0,3.858a1.1,1.1,0,1,1,1.1-1.1A1.1,1.1,0,0,1,15.173,35.4Zm15.98-3.858a2.76,2.76,0,1,0,2.759,2.76A2.763,2.763,0,0,0,31.154,31.546Zm0,3.858a1.1,1.1,0,1,1,1.1-1.1A1.1,1.1,0,0,1,31.154,35.4ZM36.938,29.2s-1.15-6.226-6.631-6.293H24.623s-4.2-.068-10.083,4.2c0,0-5.481.677-5.413,4.939,0,0-.7.158-.7.767,0,.429.022,1.5.022,1.5s0,.621,1.016.643,1.894,0,1.894,0-.154-4.466,3.814-4.4c0,0,3.833-.406,4.17,4.4h7.918s-.4-4.348,3.893-4.407c0,0,3.755-.329,3.957,4.407h1.827S38.765,31.767,36.938,29.2ZM26.652,27.843l-9.551.339a12.824,12.824,0,0,1,9.956-4.2Zm1.421,0,.406-3.87c5.076-.081,6.226,3.6,6.226,3.6Zm-14-2.066c-.118-.123-2.9-3.074-3.335-6.28a48.842,48.842,0,0,1-.349-5.9,1.709,1.709,0,0,1,1.556-1.722,16.673,16.673,0,0,0,6.8-2.207,2.071,2.071,0,0,1,2.095-.031,18.222,18.222,0,0,0,6.717,2.191,1.915,1.915,0,0,1,1.667,1.864c.058,2.229.312,5.466-1.521,8.16l-1.8-.028c1.628-2.4,1.706-6.456,1.662-8.09a.266.266,0,0,0-.223-.259A19.9,19.9,0,0,1,20,11.076a.41.41,0,0,0-.411.024A18.358,18.358,0,0,1,12.1,13.532a38.023,38.023,0,0,0,.285,5.74c.364,2.669,2.974,5.465,3,5.491ZM15.9,18.124l2.27,1.354L23.8,14.317l.549.109-5.894,7.724-3.039-3.4Z" transform="translate(-0.674 -0.75)" fill="#fff"/>
</svg>
