<?xml version="1.0" encoding="utf-8"?>
<!-- Generator: Adobe Illustrator 21.1.0, SVG Export Plug-In . SVG Version: 6.00 Build 0)  -->
<svg version="1.2" baseProfile="tiny" id="Layer_1" xmlns="http://www.w3.org/2000/svg" xmlns:xlink="http://www.w3.org/1999/xlink"
	 x="0px" y="0px" viewBox="0 0 375 375" xml:space="preserve">
<path fill-rule="evenodd" fill="#2980B9" d="M360.6,56.3v262.4c0,23-18.8,41.9-41.9,41.9H56.3c-23,0-41.9-18.8-41.9-41.9V56.3
	c0-23,18.8-41.9,41.9-41.9h262.4C341.8,14.4,360.6,33.2,360.6,56.3z"/>
<g>
	<path fill="#FFFFFF" d="M202.5,69.3c20.7,0,41.4,4.4,62.2,13.1l-14.8,36.7c-16.7-6.8-31.1-10.2-43.3-10.2c-8.3,0-14.7,2.4-19.1,7.1
		c-4.5,4.7-6.7,11.5-6.7,20.3V167h59.8v34.9h-59.8v22.8c0,18.1-8,31.2-24.1,39.5H271v41.4H104v-39.5c10.9-4.7,18.5-10,22.5-16.1
		s6.1-14.4,6.1-25v-23.1h-28.4V167h28.4v-31.1c0-21.4,6.1-37.8,18.2-49.3C163.1,75.1,180.3,69.3,202.5,69.3z"/>
</g>
</svg>
