<?xml version="1.0" encoding="utf-8"?>
<!-- Generator: Adobe Illustrator 21.1.0, SVG Export Plug-In . SVG Version: 6.00 Build 0)  -->
<svg version="1.2" baseProfile="tiny" id="Layer_1" xmlns="http://www.w3.org/2000/svg" xmlns:xlink="http://www.w3.org/1999/xlink"
	 x="0px" y="0px" viewBox="0 0 375 375" xml:space="preserve">
<path fill-rule="evenodd" fill="#2980B9" d="M360.6,56.3v262.4c0,2.1-0.2,4.2-0.5,6.3c-3,20.1-20.5,35.6-41.4,35.6H56.3
	c-23,0-41.9-18.8-41.9-41.9V56.3c0-19,12.8-35.1,30.1-40.2c3.2-1,6.5-1.5,10-1.7c0.6,0,1.2,0,1.8,0h262.4
	c22.8,0,41.5,18.5,41.9,41.3C360.6,55.9,360.6,56.1,360.6,56.3z"/>
<path fill="#FFFFFF" d="M360.6,315v3.7c0,2.1-0.2,4.2-0.5,6.3H49.5c-2.8,0-5-2.2-5-5V16.1c3.2-1,6.5-1.5,10-1.7V315H360.6z"/>
<path fill="#FFFFFF" d="M360.6,56.3v21.1l-89.3,106.1c-2.2,2.6-6,3.3-8.9,1.5l-92.7-55.2l-56.1,102.9c-1.3,2.3-3.7,3.6-6.2,3.6
	c-1.1,0-2.3-0.3-3.3-0.9c-3.4-1.9-4.6-6.1-2.8-9.5l59.6-109.3c0.9-1.7,2.5-2.9,4.3-3.4c1.8-0.5,3.8-0.2,5.4,0.7l93.8,55.9
	l96.2-114.2C360.6,55.9,360.6,56.1,360.6,56.3z"/>
<g>
	<circle fill="#2980B9" cx="107" cy="229" r="16.8"/>
	<path fill="#FFFFFF" d="M107,252.8c-13.1,0-23.8-10.7-23.8-23.8s10.7-23.8,23.8-23.8s23.8,10.7,23.8,23.8S120.1,252.8,107,252.8z
		 M107,219.2c-5.4,0-9.8,4.4-9.8,9.8s4.4,9.8,9.8,9.8s9.8-4.4,9.8-9.8S112.4,219.2,107,219.2z"/>
</g>
<g>
	<circle fill="#2980B9" cx="167" cy="120" r="16.8"/>
	<path fill="#FFFFFF" d="M167,143.8c-13.1,0-23.8-10.7-23.8-23.8s10.7-23.8,23.8-23.8s23.8,10.7,23.8,23.8S180.1,143.8,167,143.8z
		 M167,110.2c-5.4,0-9.8,4.4-9.8,9.8s4.4,9.8,9.8,9.8s9.8-4.4,9.8-9.8S172.4,110.2,167,110.2z"/>
</g>
<g>
	<circle fill="#2980B9" cx="265.9" cy="178.9" r="16.8"/>
	<path fill="#FFFFFF" d="M265.9,202.7c-13.1,0-23.8-10.7-23.8-23.8s10.7-23.8,23.8-23.8s23.8,10.7,23.8,23.8S279,202.7,265.9,202.7z
		 M265.9,169.2c-5.4,0-9.8,4.4-9.8,9.8s4.4,9.8,9.8,9.8s9.8-4.4,9.8-9.8S271.3,169.2,265.9,169.2z"/>
</g>
</svg>
