<?xml version="1.0" encoding="utf-8"?>
<!-- Generator: Adobe Illustrator 21.1.0, SVG Export Plug-In . SVG Version: 6.00 Build 0)  -->
<svg version="1.2" baseProfile="tiny" id="Layer_1" xmlns="http://www.w3.org/2000/svg" xmlns:xlink="http://www.w3.org/1999/xlink"
	 x="0px" y="0px" viewBox="0 0 375 375" xml:space="preserve">
<path fill-rule="evenodd" fill="#2980B9" d="M360.6,56.3v262.4c0,23-18.8,41.9-41.9,41.9H56.3c-23,0-41.9-18.8-41.9-41.9V56.3
	c0-23,18.8-41.9,41.9-41.9h262.4C341.8,14.4,360.6,33.2,360.6,56.3z"/>
<g>
	<path fill="#FFFFFF" d="M174.7,250.4c0,8.5-4.6,13.1-13.1,13.1H102c-8.5,0-13.1-4.6-13.1-13.1v-64.2c0-6.6,1.3-11.1,4.6-16.4
		l35.4-53.7c2-3.3,3.9-4.6,7.9-4.6h29.5c5.2,0,7.2,3.3,5.2,7.9L145.2,177h16.4c8.5,0,13.1,4.6,13.1,13.1V250.4z M286.1,250.4
		c0,8.5-4.6,13.1-13.1,13.1h-59.6c-8.5,0-13.1-4.6-13.1-13.1v-64.2c0-6.6,1.3-11.1,4.6-16.4l35.4-53.7c2-3.3,3.9-4.6,7.9-4.6h29.5
		c5.2,0,7.2,3.3,5.2,7.9L256.6,177H273c8.5,0,13.1,4.6,13.1,13.1V250.4z"/>
</g>
</svg>
