<?xml version="1.0" encoding="utf-8"?>
<!-- Generator: Adobe Illustrator 21.1.0, SVG Export Plug-In . SVG Version: 6.00 Build 0)  -->
<svg version="1.2" baseProfile="tiny" id="Layer_1" xmlns="http://www.w3.org/2000/svg" xmlns:xlink="http://www.w3.org/1999/xlink"
	 x="0px" y="0px" viewBox="0 0 375 375" xml:space="preserve">
<path fill-rule="evenodd" fill="#2980B9" d="M360.6,56.3v262.4c0,23-18.8,41.9-41.9,41.9H56.3c-23,0-41.9-18.8-41.9-41.9V56.3
	c0-23,18.8-41.9,41.9-41.9h262.4C341.8,14.4,360.6,33.2,360.6,56.3z"/>
<path fill="#FFFFFF" d="M227.6,282.1l-33.5-42.8H94.5c-9.9,0-18-8.1-18-18v-95c0-9.9,8.1-18,18-18h186c9.9,0,18,8.1,18,18v95
	c0,9.9-8.1,18-18,18h-22.9L227.6,282.1z M94.5,120.2c-3.3,0-6,2.7-6,6v95c0,3.3,2.7,6,6,6h105.4l27.1,34.7l24.3-34.7h29.1
	c3.3,0,6-2.7,6-6v-95c0-3.3-2.7-6-6-6H94.5z"/>
<circle fill="#FFFFFF" cx="187.5" cy="175.7" r="14.2"/>
<circle fill="#FFFFFF" cx="231.4" cy="175.7" r="14.2"/>
<circle fill="#FFFFFF" cx="143.6" cy="175.7" r="14.2"/>
</svg>
