<?xml version="1.0" encoding="utf-8"?>
<!-- Generator: Adobe Illustrator 21.1.0, SVG Export Plug-In . SVG Version: 6.00 Build 0)  -->
<svg version="1.2" baseProfile="tiny" id="Layer_1" xmlns="http://www.w3.org/2000/svg" xmlns:xlink="http://www.w3.org/1999/xlink"
	 x="0px" y="0px" viewBox="0 0 375 375" xml:space="preserve">
<path fill-rule="evenodd" fill="#2980B9" d="M360.6,56.3v262.4c0,23-18.8,41.9-41.9,41.9H56.3c-23,0-41.9-18.8-41.9-41.9V56.3
	c0-23,18.8-41.9,41.9-41.9h262.4C341.8,14.4,360.6,33.2,360.6,56.3z"/>
<g>
	<path fill="#FFFFFF" d="M192.2,96.5v1.1c-1.6-0.1-3.1-0.1-4.7-0.1s-3.2,0-4.7,0.1v-1.1c0-2.6,2.1-4.7,4.7-4.7
		S192.2,93.9,192.2,96.5z"/>
	<path fill="#FFFFFF" d="M192.1,191.4v71.9c0,15.1-11.9,22.9-23.6,22.9c-11.7,0-23.6-7.9-23.6-22.9v-6.4c0-2.5,2-4.6,4.6-4.6
		c1.3,0,2.4,0.5,3.2,1.3c0.8,0.8,1.3,2,1.3,3.2v6.4c0,9.5,7.3,13.8,14.5,13.8c7.2,0,14.4-4.3,14.4-13.8v-71.9
		c1.6-0.1,3.2-0.2,4.8-0.2C189.2,191.3,190.6,191.3,192.1,191.4z"/>
	<g>
		<path fill="#FFFFFF" d="M298.7,201.5c-1.1-0.7-2.3-1.4-3.4-2c-0.8-0.4-1.5-0.8-2.3-1.2c-4.9-2.6-9.8-4.6-14.6-6.1
			c-0.7-0.2-1.5-0.4-2.2-0.6c-0.7-0.2-1.5-0.4-2.2-0.5c-0.7-0.2-1.5-0.3-2.2-0.4c-2.9-0.5-5.8-0.8-8.7-0.8c-4.7,0-9.3,0.7-13.8,2.1
			c-0.7,0.2-1.3,0.4-1.9,0.7c-0.3,0.1-0.6,0.2-1,0.4c-0.6,0.2-1.3,0.5-1.9,0.8c-0.6,0.3-1.3,0.6-1.9,0.9c-0.3,0.2-0.6,0.3-1,0.5
			c-0.6,0.3-1.3,0.7-1.9,1c-0.3,0.2-0.6,0.4-0.9,0.6c-0.6,0.4-1.2,0.8-1.9,1.2c-1.6,1-3.1,2.2-4.7,3.4c-0.9-0.5-1.9-1.1-2.8-1.6
			c-0.9-0.5-1.9-1-2.8-1.5c-1.4-0.7-2.8-1.4-4.2-2.1c-1.4-0.7-2.8-1.3-4.2-1.8c0,0,0,0,0,0c-0.9-0.4-1.9-0.7-2.8-1.1c0,0,0,0,0,0
			c-1.4-0.5-2.8-1-4.2-1.4c-6.4-2-12.8-3.3-19.2-3.6c-1.5-0.1-2.9-0.1-4.4-0.1c-1.6,0-3.2,0-4.8,0.2c-1.6,0.1-3.2,0.3-4.8,0.5
			c-1.4,0.2-2.7,0.4-4.1,0.7c-2.7,0.5-5.5,1.2-8.2,2c-0.9,0.3-1.8,0.6-2.7,0.9c-0.5,0.2-0.9,0.3-1.4,0.5c-0.9,0.3-1.8,0.7-2.7,1
			c-0.9,0.4-1.8,0.7-2.7,1.1c-4.1,1.8-8.2,3.9-12.2,6.4c-2.2-1.4-4.5-2.7-6.7-3.9c-0.7-0.4-1.5-0.8-2.2-1.1c-2-1-3.9-1.8-5.8-2.6
			c-0.9-0.4-1.8-0.7-2.7-1c-6-2-11.8-3.1-17.7-3.1c-9.7,0-19.2,2.9-28.5,8.9c-0.7,0.4-1.3,0.9-2,1.3c-0.7,0.5-1.3,0.9-2,1.4
			c0-59.8,47.2-99,106.5-100.9c1.6-0.1,3.1-0.1,4.7-0.1s3.2,0,4.7,0.1C251.4,102.6,298.7,141.7,298.7,201.5z"/>
		<path fill="#FFFFFF" d="M222.5,196.4c-1.4-0.6-2.8-1.2-4.2-1.8C219.7,195.1,221.1,195.7,222.5,196.4z"/>
		<path fill="#2980B9" d="M218.3,194.6c1.4,0.6,2.8,1.2,4.2,1.8C221.1,195.7,219.7,195.1,218.3,194.6z"/>
	</g>
</g>
</svg>
