<svg id="icon-trackyoursuccess" xmlns="http://www.w3.org/2000/svg" width="123" height="123" viewBox="0 0 123 123">
  <rect id="Rectangle_835" data-name="Rectangle 835" width="123" height="123" rx="9" fill="#2980b9"/>
  <path id="Path_1653" data-name="Path 1653" d="M83.492,82.35h0Zm21.85,19.351c.187-15.664-14.483-19.334-21.793-19.351-7.3.019-20.609,3.689-20.569,19.352.039,14.829,17.522,27.375,21.176,29.835C87.791,129.076,105.167,116.528,105.341,101.7ZM71.413,103.41c0-6.638,5.708-12.019,12.748-12.018s12.745,5.382,12.744,12.02-5.7,12.014-12.739,12.017c-7.029-.019-12.723-5.385-12.747-12.012ZM82.426,70.294A32.77,32.77,0,0,1,102.1,77.345L106.95,72.5a38.339,38.339,0,0,0-49.047,0l4.84,4.849A32.752,32.752,0,0,1,82.433,70.3Zm0-18.5c19.46,0,34.526,12.167,34.671,12.288l4.651-5.012c-.69-.569-17.146-13.936-39.322-13.936-22.048,0-37.343,13.941-37.982,14.535l4.95,4.749c.143-.119,13.848-12.617,33.039-12.617Zm50.993-5.835c-.932-.777-23.146-18.843-50.961-19.087C54.5,26.66,32.8,44.986,31.882,45.768L36.625,50.7c.2-.172,20.448-17.168,45.294-17.168h.476c25.145.22,46.167,17.268,46.376,17.44Z" transform="translate(-21.15 -17.706)" fill="#fff"/>
</svg>
