<?xml version="1.0" encoding="utf-8"?>
<!-- Generator: Adobe Illustrator 21.1.0, SVG Export Plug-In . SVG Version: 6.00 Build 0)  -->
<svg version="1.1" id="Layer_1" xmlns="http://www.w3.org/2000/svg" xmlns:xlink="http://www.w3.org/1999/xlink" x="0px" y="0px"
	 viewBox="0 0 635.2 119" style="enable-background:new 0 0 635.2 119;" xml:space="preserve">
<style type="text/css">
	.st0{display:none;}
	.st1{display:inline;opacity:0.2;}
	.st2{fill:none;stroke:#000000;stroke-width:0.25;stroke-miterlimit:10;}
	.st3{display:none;opacity:0.1;}
	.st4{display:inline;fill:none;stroke:#000000;stroke-width:0.25;stroke-miterlimit:10;}
	.st5{opacity:0.1;}
	.st6{fill:#25739E;}
	.st7{fill:#2980B9;}
	.st8{fill:#195C82;}
	.st9{opacity:0.1;fill:#2980B9;enable-background:new    ;}
	.st10{fill:#184A66;}
	.st11{fill:#FFFFFF;}
	.st12{fill:#061219;}
	.st13{fill:#1A4C68;}
	.st14{fill:#0E3951;}
	.st15{fill:#21719E;}
	.st16{fill:none;}
	.st17{fill:#4AA6CE;}
	.st18{fill:#1B5B7F;}
	.st19{fill:#3A99CE;}
</style>
<g id="Layer_2" class="st0">
	<g class="st1">
		<line class="st2" x1="513.4" y1="-623" x2="-725.7" y2="92.4"/>
		<line class="st2" x1="525.6" y1="-615.9" x2="-713.5" y2="99.5"/>
		<line class="st2" x1="537.8" y1="-608.9" x2="-701.3" y2="106.5"/>
		<line class="st2" x1="550" y1="-601.8" x2="-689.1" y2="113.6"/>
		<line class="st2" x1="562.3" y1="-594.8" x2="-676.9" y2="120.6"/>
		<line class="st2" x1="574.5" y1="-587.7" x2="-664.7" y2="127.7"/>
		<line class="st2" x1="586.7" y1="-580.7" x2="-652.5" y2="134.7"/>
		<line class="st2" x1="598.9" y1="-573.6" x2="-640.3" y2="141.8"/>
		<line class="st2" x1="611.1" y1="-566.6" x2="-628.1" y2="148.8"/>
		<line class="st2" x1="623.3" y1="-559.6" x2="-615.9" y2="155.9"/>
		<line class="st2" x1="635.5" y1="-552.5" x2="-603.7" y2="162.9"/>
		<line class="st2" x1="647.7" y1="-545.5" x2="-591.4" y2="170"/>
		<line class="st2" x1="659.9" y1="-538.4" x2="-579.2" y2="177"/>
		<line class="st2" x1="672.1" y1="-531.4" x2="-567" y2="184.1"/>
		<line class="st2" x1="684.3" y1="-524.3" x2="-554.8" y2="191.1"/>
		<line class="st2" x1="696.5" y1="-517.3" x2="-542.6" y2="198.2"/>
		<line class="st2" x1="708.7" y1="-510.2" x2="-530.4" y2="205.2"/>
		<line class="st2" x1="721" y1="-503.2" x2="-518.2" y2="212.3"/>
		<line class="st2" x1="733.2" y1="-496.1" x2="-506" y2="219.3"/>
		<line class="st2" x1="745.4" y1="-489.1" x2="-493.8" y2="226.4"/>
		<line class="st2" x1="757.6" y1="-482" x2="-481.6" y2="233.4"/>
		<line class="st2" x1="769.8" y1="-475" x2="-469.4" y2="240.5"/>
		<line class="st2" x1="782" y1="-467.9" x2="-457.2" y2="247.5"/>
		<line class="st2" x1="794.2" y1="-460.9" x2="-445" y2="254.5"/>
		<line class="st2" x1="806.4" y1="-453.8" x2="-432.7" y2="261.6"/>
		<line class="st2" x1="818.6" y1="-446.8" x2="-420.5" y2="268.6"/>
		<line class="st2" x1="830.8" y1="-439.7" x2="-408.3" y2="275.7"/>
		<line class="st2" x1="843" y1="-432.7" x2="-396.1" y2="282.7"/>
		<line class="st2" x1="855.2" y1="-425.6" x2="-383.9" y2="289.8"/>
		<line class="st2" x1="867.4" y1="-418.6" x2="-371.7" y2="296.8"/>
		<line class="st2" x1="879.7" y1="-411.5" x2="-359.5" y2="303.9"/>
		<line class="st2" x1="891.9" y1="-404.5" x2="-347.3" y2="310.9"/>
		<line class="st2" x1="904.1" y1="-397.4" x2="-335.1" y2="318"/>
		<line class="st2" x1="916.3" y1="-390.4" x2="-322.9" y2="325"/>
		<line class="st2" x1="928.5" y1="-383.3" x2="-310.7" y2="332.1"/>
		<line class="st2" x1="940.7" y1="-376.3" x2="-298.5" y2="339.1"/>
		<line class="st2" x1="952.9" y1="-369.3" x2="-286.3" y2="346.2"/>
		<line class="st2" x1="965.1" y1="-362.2" x2="-274.1" y2="353.2"/>
		<line class="st2" x1="977.3" y1="-355.2" x2="-261.8" y2="360.3"/>
		<line class="st2" x1="989.5" y1="-348.1" x2="-249.6" y2="367.3"/>
		<line class="st2" x1="1001.7" y1="-341.1" x2="-237.4" y2="374.4"/>
		<line class="st2" x1="1013.9" y1="-334" x2="-225.2" y2="381.4"/>
		<line class="st2" x1="1026.1" y1="-327" x2="-213" y2="388.5"/>
		<line class="st2" x1="1038.3" y1="-319.9" x2="-200.8" y2="395.5"/>
		<line class="st2" x1="1050.6" y1="-312.9" x2="-188.6" y2="402.6"/>
		<line class="st2" x1="1062.8" y1="-305.8" x2="-176.4" y2="409.6"/>
		<line class="st2" x1="1075" y1="-298.8" x2="-164.2" y2="416.7"/>
		<line class="st2" x1="1087.2" y1="-291.7" x2="-152" y2="423.7"/>
		<line class="st2" x1="1099.4" y1="-284.7" x2="-139.8" y2="430.7"/>
		<line class="st2" x1="1111.6" y1="-277.6" x2="-127.6" y2="437.8"/>
		<line class="st2" x1="1123.8" y1="-270.6" x2="-115.4" y2="444.8"/>
		<line class="st2" x1="1136" y1="-263.5" x2="-103.1" y2="451.9"/>
		<line class="st2" x1="1148.2" y1="-256.5" x2="-90.9" y2="458.9"/>
		<line class="st2" x1="1160.4" y1="-249.4" x2="-78.7" y2="466"/>
		<line class="st2" x1="1172.6" y1="-242.4" x2="-66.5" y2="473"/>
		<line class="st2" x1="1184.8" y1="-235.3" x2="-54.3" y2="480.1"/>
		<line class="st2" x1="1197" y1="-228.3" x2="-42.1" y2="487.1"/>
		<line class="st2" x1="1209.3" y1="-221.2" x2="-29.9" y2="494.2"/>
		<line class="st2" x1="1221.5" y1="-214.2" x2="-17.7" y2="501.2"/>
		<line class="st2" x1="1233.7" y1="-207.1" x2="-5.5" y2="508.3"/>
		<line class="st2" x1="1245.9" y1="-200.1" x2="6.7" y2="515.3"/>
		<line class="st2" x1="1258.1" y1="-193.1" x2="18.9" y2="522.4"/>
		<line class="st2" x1="1270.3" y1="-186" x2="31.1" y2="529.4"/>
		<line class="st2" x1="1282.5" y1="-179" x2="43.3" y2="536.5"/>
		<line class="st2" x1="1294.7" y1="-171.9" x2="55.6" y2="543.5"/>
		<line class="st2" x1="1306.9" y1="-164.9" x2="67.8" y2="550.6"/>
		<line class="st2" x1="1319.1" y1="-157.8" x2="80" y2="557.6"/>
		<line class="st2" x1="1331.3" y1="-150.8" x2="92.2" y2="564.7"/>
		<line class="st2" x1="1343.5" y1="-143.7" x2="104.4" y2="571.7"/>
		<line class="st2" x1="1355.7" y1="-136.7" x2="116.6" y2="578.8"/>
		<line class="st2" x1="1368" y1="-129.6" x2="128.8" y2="585.8"/>
		<line class="st2" x1="1380.2" y1="-122.6" x2="141" y2="592.9"/>
		<line class="st2" x1="1392.4" y1="-115.5" x2="153.2" y2="599.9"/>
		<line class="st2" x1="1404.6" y1="-108.5" x2="165.4" y2="606.9"/>
		<line class="st2" x1="1416.8" y1="-101.4" x2="177.6" y2="614"/>
		<line class="st2" x1="1429" y1="-94.4" x2="189.8" y2="621"/>
		<line class="st2" x1="1441.2" y1="-87.3" x2="202" y2="628.1"/>
		<line class="st2" x1="1453.4" y1="-80.3" x2="214.2" y2="635.1"/>
		<line class="st2" x1="1465.6" y1="-73.2" x2="226.5" y2="642.2"/>
		<line class="st2" x1="1477.8" y1="-66.2" x2="238.7" y2="649.2"/>
		<line class="st2" x1="1490" y1="-59.1" x2="250.9" y2="656.3"/>
		<line class="st2" x1="1502.2" y1="-52.1" x2="263.1" y2="663.3"/>
		<line class="st2" x1="1514.4" y1="-45" x2="275.3" y2="670.4"/>
		<line class="st2" x1="1526.6" y1="-38" x2="287.5" y2="677.4"/>
		<line class="st2" x1="1538.9" y1="-30.9" x2="299.7" y2="684.5"/>
		<line class="st2" x1="1551.1" y1="-23.9" x2="311.9" y2="691.5"/>
		<line class="st2" x1="1563.3" y1="-16.9" x2="324.1" y2="698.6"/>
		<line class="st2" x1="1575.5" y1="-9.8" x2="336.3" y2="705.6"/>
		<line class="st2" x1="1587.7" y1="-2.8" x2="348.5" y2="712.7"/>
		<line class="st2" x1="1599.9" y1="4.3" x2="360.7" y2="719.7"/>
		<line class="st2" x1="1612.1" y1="11.3" x2="372.9" y2="726.8"/>
		<line class="st2" x1="1624.3" y1="18.4" x2="385.2" y2="733.8"/>
		<line class="st2" x1="1636.5" y1="25.4" x2="397.4" y2="740.9"/>
		<line class="st2" x1="1648.7" y1="32.5" x2="409.6" y2="747.9"/>
		<line class="st2" x1="1660.9" y1="39.5" x2="421.8" y2="755"/>
		<line class="st2" x1="1673.1" y1="46.6" x2="434" y2="762"/>
		<line class="st2" x1="1685.3" y1="53.6" x2="446.2" y2="769.1"/>
		<line class="st2" x1="1697.6" y1="60.7" x2="458.4" y2="776.1"/>
		<line class="st2" x1="1709.8" y1="67.7" x2="470.6" y2="783.2"/>
		<line class="st2" x1="1722" y1="74.8" x2="482.8" y2="790.2"/>
		<line class="st2" x1="1734.2" y1="81.8" x2="495" y2="797.2"/>
		<line class="st2" x1="1746.4" y1="88.9" x2="507.2" y2="804.3"/>
		<line class="st2" x1="1746.4" y1="96.9" x2="499.5" y2="-623"/>
		<line class="st2" x1="1734.3" y1="103.9" x2="487.4" y2="-616"/>
		<line class="st2" x1="1722.2" y1="110.9" x2="475.2" y2="-609"/>
		<line class="st2" x1="1710" y1="117.9" x2="463.1" y2="-602"/>
		<line class="st2" x1="1697.9" y1="124.9" x2="451" y2="-595"/>
		<line class="st2" x1="1685.8" y1="131.9" x2="438.8" y2="-588"/>
		<line class="st2" x1="1673.6" y1="138.9" x2="426.7" y2="-581"/>
		<line class="st2" x1="1661.5" y1="145.9" x2="414.6" y2="-574"/>
		<line class="st2" x1="1649.4" y1="152.9" x2="402.4" y2="-567"/>
		<line class="st2" x1="1637.2" y1="159.9" x2="390.3" y2="-560"/>
		<line class="st2" x1="1625.1" y1="167" x2="378.2" y2="-553"/>
		<line class="st2" x1="1613" y1="174" x2="366" y2="-546"/>
		<line class="st2" x1="1600.9" y1="181" x2="353.9" y2="-539"/>
		<line class="st2" x1="1588.7" y1="188" x2="341.8" y2="-532"/>
		<line class="st2" x1="1576.6" y1="195" x2="329.7" y2="-525"/>
		<line class="st2" x1="1564.5" y1="202" x2="317.5" y2="-517.9"/>
		<line class="st2" x1="1552.3" y1="209" x2="305.4" y2="-510.9"/>
		<line class="st2" x1="1540.2" y1="216" x2="293.3" y2="-503.9"/>
		<line class="st2" x1="1528.1" y1="223" x2="281.1" y2="-496.9"/>
		<line class="st2" x1="1515.9" y1="230" x2="269" y2="-489.9"/>
		<line class="st2" x1="1503.8" y1="237" x2="256.9" y2="-482.9"/>
		<line class="st2" x1="1491.7" y1="244" x2="244.7" y2="-475.9"/>
		<line class="st2" x1="1479.5" y1="251" x2="232.6" y2="-468.9"/>
		<line class="st2" x1="1467.4" y1="258" x2="220.5" y2="-461.9"/>
		<line class="st2" x1="1455.3" y1="265" x2="208.3" y2="-454.9"/>
		<line class="st2" x1="1443.1" y1="272" x2="196.2" y2="-447.9"/>
		<line class="st2" x1="1431" y1="279" x2="184.1" y2="-440.9"/>
		<line class="st2" x1="1418.9" y1="286" x2="171.9" y2="-433.9"/>
		<line class="st2" x1="1406.8" y1="293" x2="159.8" y2="-426.9"/>
		<line class="st2" x1="1394.6" y1="300" x2="147.7" y2="-419.9"/>
		<line class="st2" x1="1382.5" y1="307" x2="135.6" y2="-412.9"/>
		<line class="st2" x1="1370.4" y1="314" x2="123.4" y2="-405.9"/>
		<line class="st2" x1="1358.2" y1="321" x2="111.3" y2="-398.9"/>
		<line class="st2" x1="1346.1" y1="328" x2="99.2" y2="-391.9"/>
		<line class="st2" x1="1334" y1="335" x2="87" y2="-384.9"/>
		<line class="st2" x1="1321.8" y1="342.1" x2="74.9" y2="-377.9"/>
		<line class="st2" x1="1309.7" y1="349.1" x2="62.8" y2="-370.9"/>
		<line class="st2" x1="1297.6" y1="356.1" x2="50.6" y2="-363.9"/>
		<line class="st2" x1="1285.4" y1="363.1" x2="38.5" y2="-356.9"/>
		<line class="st2" x1="1273.3" y1="370.1" x2="26.4" y2="-349.9"/>
		<line class="st2" x1="1261.2" y1="377.1" x2="14.2" y2="-342.8"/>
		<line class="st2" x1="1249" y1="384.1" x2="2.1" y2="-335.8"/>
		<line class="st2" x1="1236.9" y1="391.1" x2="-10" y2="-328.8"/>
		<line class="st2" x1="1224.8" y1="398.1" x2="-22.2" y2="-321.8"/>
		<line class="st2" x1="1212.7" y1="405.1" x2="-34.3" y2="-314.8"/>
		<line class="st2" x1="1200.5" y1="412.1" x2="-46.4" y2="-307.8"/>
		<line class="st2" x1="1188.4" y1="419.1" x2="-58.6" y2="-300.8"/>
		<line class="st2" x1="1176.3" y1="426.1" x2="-70.7" y2="-293.8"/>
		<line class="st2" x1="1164.1" y1="433.1" x2="-82.8" y2="-286.8"/>
		<line class="st2" x1="1152" y1="440.1" x2="-94.9" y2="-279.8"/>
		<line class="st2" x1="1139.9" y1="447.1" x2="-107.1" y2="-272.8"/>
		<line class="st2" x1="1127.7" y1="454.1" x2="-119.2" y2="-265.8"/>
		<line class="st2" x1="1115.6" y1="461.1" x2="-131.3" y2="-258.8"/>
		<line class="st2" x1="1103.5" y1="468.1" x2="-143.5" y2="-251.8"/>
		<line class="st2" x1="1091.3" y1="475.1" x2="-155.6" y2="-244.8"/>
		<line class="st2" x1="1079.2" y1="482.1" x2="-167.7" y2="-237.8"/>
		<line class="st2" x1="1067.1" y1="489.1" x2="-179.9" y2="-230.8"/>
		<line class="st2" x1="1054.9" y1="496.1" x2="-192" y2="-223.8"/>
		<line class="st2" x1="1042.8" y1="503.1" x2="-204.1" y2="-216.8"/>
		<line class="st2" x1="1030.7" y1="510.1" x2="-216.3" y2="-209.8"/>
		<line class="st2" x1="1018.5" y1="517.2" x2="-228.4" y2="-202.8"/>
		<line class="st2" x1="1006.4" y1="524.2" x2="-240.5" y2="-195.8"/>
		<line class="st2" x1="994.3" y1="531.2" x2="-252.7" y2="-188.8"/>
		<line class="st2" x1="982.2" y1="538.2" x2="-264.8" y2="-181.8"/>
		<line class="st2" x1="970" y1="545.2" x2="-276.9" y2="-174.7"/>
		<line class="st2" x1="957.9" y1="552.2" x2="-289" y2="-167.7"/>
		<line class="st2" x1="945.8" y1="559.2" x2="-301.2" y2="-160.7"/>
		<line class="st2" x1="933.6" y1="566.2" x2="-313.3" y2="-153.7"/>
		<line class="st2" x1="921.5" y1="573.2" x2="-325.4" y2="-146.7"/>
		<line class="st2" x1="909.4" y1="580.2" x2="-337.6" y2="-139.7"/>
		<line class="st2" x1="897.2" y1="587.2" x2="-349.7" y2="-132.7"/>
		<line class="st2" x1="885.1" y1="594.2" x2="-361.8" y2="-125.7"/>
		<line class="st2" x1="873" y1="601.2" x2="-374" y2="-118.7"/>
		<line class="st2" x1="860.8" y1="608.2" x2="-386.1" y2="-111.7"/>
		<line class="st2" x1="848.7" y1="615.2" x2="-398.2" y2="-104.7"/>
		<line class="st2" x1="836.6" y1="622.2" x2="-410.4" y2="-97.7"/>
		<line class="st2" x1="824.4" y1="629.2" x2="-422.5" y2="-90.7"/>
		<line class="st2" x1="812.3" y1="636.2" x2="-434.6" y2="-83.7"/>
		<line class="st2" x1="800.2" y1="643.2" x2="-446.8" y2="-76.7"/>
		<line class="st2" x1="788.1" y1="650.2" x2="-458.9" y2="-69.7"/>
		<line class="st2" x1="775.9" y1="657.2" x2="-471" y2="-62.7"/>
		<line class="st2" x1="763.8" y1="664.2" x2="-483.1" y2="-55.7"/>
		<line class="st2" x1="751.7" y1="671.2" x2="-495.3" y2="-48.7"/>
		<line class="st2" x1="739.5" y1="678.2" x2="-507.4" y2="-41.7"/>
		<line class="st2" x1="727.4" y1="685.3" x2="-519.5" y2="-34.7"/>
		<line class="st2" x1="715.3" y1="692.3" x2="-531.7" y2="-27.7"/>
		<line class="st2" x1="703.1" y1="699.3" x2="-543.8" y2="-20.7"/>
		<line class="st2" x1="691" y1="706.3" x2="-555.9" y2="-13.7"/>
		<line class="st2" x1="678.9" y1="713.3" x2="-568.1" y2="-6.7"/>
		<line class="st2" x1="666.7" y1="720.3" x2="-580.2" y2="0.4"/>
		<line class="st2" x1="654.6" y1="727.3" x2="-592.3" y2="7.4"/>
		<line class="st2" x1="642.5" y1="734.3" x2="-604.5" y2="14.4"/>
		<line class="st2" x1="630.3" y1="741.3" x2="-616.6" y2="21.4"/>
		<line class="st2" x1="618.2" y1="748.3" x2="-628.7" y2="28.4"/>
		<line class="st2" x1="606.1" y1="755.3" x2="-640.9" y2="35.4"/>
		<line class="st2" x1="594" y1="762.3" x2="-653" y2="42.4"/>
		<line class="st2" x1="581.8" y1="769.3" x2="-665.1" y2="49.4"/>
		<line class="st2" x1="569.7" y1="776.3" x2="-677.2" y2="56.4"/>
		<line class="st2" x1="557.6" y1="783.3" x2="-689.4" y2="63.4"/>
		<line class="st2" x1="545.4" y1="790.3" x2="-701.5" y2="70.4"/>
		<line class="st2" x1="533.3" y1="797.3" x2="-713.6" y2="77.4"/>
		<line class="st2" x1="521.2" y1="804.3" x2="-725.8" y2="84.4"/>
	</g>
</g>
<g id="Layer_1_1_">
	<g class="st3">
		<polygon class="st4" points="818.1,-1226 1916.3,-591.9 648.2,140.2 -450,-493.8 		"/>
		<line class="st4" x1="-434.4" y1="-502.9" x2="663.9" y2="131.2"/>
		<line class="st4" x1="-418.7" y1="-511.9" x2="679.5" y2="122.2"/>
		<line class="st4" x1="-403.1" y1="-521" x2="695.2" y2="113.1"/>
		<line class="st4" x1="-387.4" y1="-530" x2="710.8" y2="104.1"/>
		<line class="st4" x1="-371.8" y1="-539" x2="726.5" y2="95"/>
		<line class="st4" x1="-356.1" y1="-548.1" x2="742.1" y2="86"/>
		<line class="st4" x1="-340.5" y1="-557.1" x2="757.8" y2="77"/>
		<line class="st4" x1="-324.8" y1="-566.1" x2="773.4" y2="67.9"/>
		<line class="st4" x1="-309.1" y1="-575.2" x2="789.1" y2="58.9"/>
		<line class="st4" x1="-293.5" y1="-584.2" x2="804.8" y2="49.8"/>
		<line class="st4" x1="-277.8" y1="-593.3" x2="820.4" y2="40.8"/>
		<line class="st4" x1="-262.2" y1="-602.3" x2="836.1" y2="31.8"/>
		<line class="st4" x1="-246.5" y1="-611.3" x2="851.7" y2="22.7"/>
		<line class="st4" x1="-230.9" y1="-620.4" x2="867.4" y2="13.7"/>
		<line class="st4" x1="-215.2" y1="-629.4" x2="883" y2="4.6"/>
		<line class="st4" x1="-199.5" y1="-638.5" x2="898.7" y2="-4.4"/>
		<line class="st4" x1="-183.9" y1="-647.5" x2="914.4" y2="-13.4"/>
		<line class="st4" x1="-168.2" y1="-656.5" x2="930" y2="-22.5"/>
		<line class="st4" x1="-152.6" y1="-665.6" x2="945.7" y2="-31.5"/>
		<line class="st4" x1="-136.9" y1="-674.6" x2="961.3" y2="-40.5"/>
		<line class="st4" x1="-121.3" y1="-683.7" x2="977" y2="-49.6"/>
		<line class="st4" x1="-105.6" y1="-692.7" x2="992.6" y2="-58.6"/>
		<line class="st4" x1="-90" y1="-701.7" x2="1008.3" y2="-67.7"/>
		<line class="st4" x1="-74.3" y1="-710.8" x2="1023.9" y2="-76.7"/>
		<line class="st4" x1="-58.6" y1="-719.8" x2="1039.6" y2="-85.7"/>
		<line class="st4" x1="-43" y1="-728.9" x2="1055.3" y2="-94.8"/>
		<line class="st4" x1="-27.3" y1="-737.9" x2="1070.9" y2="-103.8"/>
		<line class="st4" x1="-11.7" y1="-746.9" x2="1086.6" y2="-112.9"/>
		<line class="st4" x1="4" y1="-756" x2="1102.2" y2="-121.9"/>
		<line class="st4" x1="19.6" y1="-765" x2="1117.9" y2="-130.9"/>
		<line class="st4" x1="35.3" y1="-774" x2="1133.5" y2="-140"/>
		<line class="st4" x1="50.9" y1="-783.1" x2="1149.2" y2="-149"/>
		<line class="st4" x1="66.6" y1="-792.1" x2="1164.8" y2="-158.1"/>
		<line class="st4" x1="82.3" y1="-801.2" x2="1180.5" y2="-167.1"/>
		<line class="st4" x1="97.9" y1="-810.2" x2="1196.2" y2="-176.1"/>
		<line class="st4" x1="113.6" y1="-819.2" x2="1211.8" y2="-185.2"/>
		<line class="st4" x1="129.2" y1="-828.3" x2="1227.5" y2="-194.2"/>
		<line class="st4" x1="144.9" y1="-837.3" x2="1243.1" y2="-203.3"/>
		<line class="st4" x1="160.5" y1="-846.4" x2="1258.8" y2="-212.3"/>
		<line class="st4" x1="176.2" y1="-855.4" x2="1274.4" y2="-221.3"/>
		<line class="st4" x1="191.9" y1="-864.4" x2="1290.1" y2="-230.4"/>
		<line class="st4" x1="207.5" y1="-873.5" x2="1305.8" y2="-239.4"/>
		<line class="st4" x1="223.2" y1="-882.5" x2="1321.4" y2="-248.4"/>
		<line class="st4" x1="238.8" y1="-891.6" x2="1337.1" y2="-257.5"/>
		<line class="st4" x1="254.5" y1="-900.6" x2="1352.7" y2="-266.5"/>
		<line class="st4" x1="270.1" y1="-909.6" x2="1368.4" y2="-275.6"/>
		<line class="st4" x1="285.8" y1="-918.7" x2="1384" y2="-284.6"/>
		<line class="st4" x1="301.4" y1="-927.7" x2="1399.7" y2="-293.6"/>
		<line class="st4" x1="317.1" y1="-936.8" x2="1415.3" y2="-302.7"/>
		<line class="st4" x1="332.8" y1="-945.8" x2="1431" y2="-311.7"/>
		<line class="st4" x1="348.4" y1="-954.8" x2="1446.7" y2="-320.8"/>
		<line class="st4" x1="364.1" y1="-963.9" x2="1462.3" y2="-329.8"/>
		<line class="st4" x1="379.7" y1="-972.9" x2="1478" y2="-338.8"/>
		<line class="st4" x1="395.4" y1="-981.9" x2="1493.6" y2="-347.9"/>
		<line class="st4" x1="411" y1="-991" x2="1509.3" y2="-356.9"/>
		<line class="st4" x1="426.7" y1="-1000" x2="1524.9" y2="-366"/>
		<line class="st4" x1="442.4" y1="-1009.1" x2="1540.6" y2="-375"/>
		<line class="st4" x1="458" y1="-1018.1" x2="1556.3" y2="-384"/>
		<line class="st4" x1="473.7" y1="-1027.1" x2="1571.9" y2="-393.1"/>
		<line class="st4" x1="489.3" y1="-1036.2" x2="1587.6" y2="-402.1"/>
		<line class="st4" x1="505" y1="-1045.2" x2="1603.2" y2="-411.1"/>
		<line class="st4" x1="520.6" y1="-1054.3" x2="1618.9" y2="-420.2"/>
		<line class="st4" x1="536.3" y1="-1063.3" x2="1634.5" y2="-429.2"/>
		<line class="st4" x1="551.9" y1="-1072.3" x2="1650.2" y2="-438.3"/>
		<line class="st4" x1="567.6" y1="-1081.4" x2="1665.8" y2="-447.3"/>
		<line class="st4" x1="583.3" y1="-1090.4" x2="1681.5" y2="-456.3"/>
		<line class="st4" x1="598.9" y1="-1099.5" x2="1697.2" y2="-465.4"/>
		<line class="st4" x1="614.6" y1="-1108.5" x2="1712.8" y2="-474.4"/>
		<line class="st4" x1="630.2" y1="-1117.5" x2="1728.5" y2="-483.5"/>
		<line class="st4" x1="645.9" y1="-1126.6" x2="1744.1" y2="-492.5"/>
		<line class="st4" x1="661.5" y1="-1135.6" x2="1759.8" y2="-501.5"/>
		<line class="st4" x1="677.2" y1="-1144.6" x2="1775.4" y2="-510.6"/>
		<line class="st4" x1="692.8" y1="-1153.7" x2="1791.1" y2="-519.6"/>
		<line class="st4" x1="708.5" y1="-1162.7" x2="1806.7" y2="-528.7"/>
		<line class="st4" x1="724.2" y1="-1171.8" x2="1822.4" y2="-537.7"/>
		<line class="st4" x1="739.8" y1="-1180.8" x2="1838.1" y2="-546.7"/>
		<line class="st4" x1="755.5" y1="-1189.8" x2="1853.7" y2="-555.8"/>
		<line class="st4" x1="771.1" y1="-1198.9" x2="1869.4" y2="-564.8"/>
		<line class="st4" x1="786.8" y1="-1207.9" x2="1885" y2="-573.9"/>
		<line class="st4" x1="802.4" y1="-1217" x2="1900.7" y2="-582.9"/>
		<line class="st4" x1="1902.8" y1="-599.8" x2="634.6" y2="132.4"/>
		<line class="st4" x1="1889.2" y1="-607.6" x2="621.1" y2="124.6"/>
		<line class="st4" x1="1875.7" y1="-615.4" x2="607.5" y2="116.7"/>
		<line class="st4" x1="1862.1" y1="-623.2" x2="594" y2="108.9"/>
		<line class="st4" x1="1848.5" y1="-631.1" x2="580.4" y2="101.1"/>
		<line class="st4" x1="1835" y1="-638.9" x2="566.8" y2="93.3"/>
		<line class="st4" x1="1821.4" y1="-646.7" x2="553.3" y2="85.4"/>
		<line class="st4" x1="1807.9" y1="-654.6" x2="539.7" y2="77.6"/>
		<line class="st4" x1="1794.3" y1="-662.4" x2="526.2" y2="69.8"/>
		<line class="st4" x1="1780.8" y1="-670.2" x2="512.6" y2="62"/>
		<line class="st4" x1="1767.2" y1="-678" x2="499.1" y2="54.1"/>
		<line class="st4" x1="1753.6" y1="-685.9" x2="485.5" y2="46.3"/>
		<line class="st4" x1="1740.1" y1="-693.7" x2="471.9" y2="38.5"/>
		<line class="st4" x1="1726.5" y1="-701.5" x2="458.4" y2="30.6"/>
		<line class="st4" x1="1713" y1="-709.3" x2="444.8" y2="22.8"/>
		<line class="st4" x1="1699.4" y1="-717.2" x2="431.3" y2="15"/>
		<line class="st4" x1="1685.8" y1="-725" x2="417.7" y2="7.2"/>
		<line class="st4" x1="1672.3" y1="-732.8" x2="404.1" y2="-0.7"/>
		<line class="st4" x1="1658.7" y1="-740.7" x2="390.6" y2="-8.5"/>
		<line class="st4" x1="1645.2" y1="-748.5" x2="377" y2="-16.3"/>
		<line class="st4" x1="1631.6" y1="-756.3" x2="363.5" y2="-24.2"/>
		<line class="st4" x1="1618.1" y1="-764.1" x2="349.9" y2="-32"/>
		<line class="st4" x1="1604.5" y1="-772" x2="336.4" y2="-39.8"/>
		<line class="st4" x1="1590.9" y1="-779.8" x2="322.8" y2="-47.6"/>
		<line class="st4" x1="1577.4" y1="-787.6" x2="309.2" y2="-55.5"/>
		<line class="st4" x1="1563.8" y1="-795.5" x2="295.7" y2="-63.3"/>
		<line class="st4" x1="1550.3" y1="-803.3" x2="282.1" y2="-71.1"/>
		<line class="st4" x1="1536.7" y1="-811.1" x2="268.6" y2="-79"/>
		<line class="st4" x1="1523.1" y1="-818.9" x2="255" y2="-86.8"/>
		<line class="st4" x1="1509.6" y1="-826.8" x2="241.4" y2="-94.6"/>
		<line class="st4" x1="1496" y1="-834.6" x2="227.9" y2="-102.4"/>
		<line class="st4" x1="1482.5" y1="-842.4" x2="214.3" y2="-110.3"/>
		<line class="st4" x1="1468.9" y1="-850.3" x2="200.8" y2="-118.1"/>
		<line class="st4" x1="1455.3" y1="-858.1" x2="187.2" y2="-125.9"/>
		<line class="st4" x1="1441.8" y1="-865.9" x2="173.6" y2="-133.7"/>
		<line class="st4" x1="1428.2" y1="-873.7" x2="160.1" y2="-141.6"/>
		<line class="st4" x1="1414.7" y1="-881.6" x2="146.5" y2="-149.4"/>
		<line class="st4" x1="1401.1" y1="-889.4" x2="133" y2="-157.2"/>
		<line class="st4" x1="1387.6" y1="-897.2" x2="119.4" y2="-165.1"/>
		<line class="st4" x1="1374" y1="-905.1" x2="105.9" y2="-172.9"/>
		<line class="st4" x1="1360.4" y1="-912.9" x2="92.3" y2="-180.7"/>
		<line class="st4" x1="1346.9" y1="-920.7" x2="78.7" y2="-188.5"/>
		<line class="st4" x1="1333.3" y1="-928.5" x2="65.2" y2="-196.4"/>
		<line class="st4" x1="1319.8" y1="-936.4" x2="51.6" y2="-204.2"/>
		<line class="st4" x1="1306.2" y1="-944.2" x2="38.1" y2="-212"/>
		<line class="st4" x1="1292.6" y1="-952" x2="24.5" y2="-219.9"/>
		<line class="st4" x1="1279.1" y1="-959.8" x2="10.9" y2="-227.7"/>
		<line class="st4" x1="1265.5" y1="-967.7" x2="-2.6" y2="-235.5"/>
		<line class="st4" x1="1252" y1="-975.5" x2="-16.2" y2="-243.3"/>
		<line class="st4" x1="1238.4" y1="-983.3" x2="-29.7" y2="-251.2"/>
		<line class="st4" x1="1224.9" y1="-991.2" x2="-43.3" y2="-259"/>
		<line class="st4" x1="1211.3" y1="-999" x2="-56.8" y2="-266.8"/>
		<line class="st4" x1="1197.7" y1="-1006.8" x2="-70.4" y2="-274.7"/>
		<line class="st4" x1="1184.2" y1="-1014.6" x2="-84" y2="-282.5"/>
		<line class="st4" x1="1170.6" y1="-1022.5" x2="-97.5" y2="-290.3"/>
		<line class="st4" x1="1157.1" y1="-1030.3" x2="-111.1" y2="-298.1"/>
		<line class="st4" x1="1143.5" y1="-1038.1" x2="-124.6" y2="-306"/>
		<line class="st4" x1="1129.9" y1="-1046" x2="-138.2" y2="-313.8"/>
		<line class="st4" x1="1116.4" y1="-1053.8" x2="-151.8" y2="-321.6"/>
		<line class="st4" x1="1102.8" y1="-1061.6" x2="-165.3" y2="-329.4"/>
		<line class="st4" x1="1089.3" y1="-1069.4" x2="-178.9" y2="-337.3"/>
		<line class="st4" x1="1075.7" y1="-1077.3" x2="-192.4" y2="-345.1"/>
		<line class="st4" x1="1062.2" y1="-1085.1" x2="-206" y2="-352.9"/>
		<line class="st4" x1="1048.6" y1="-1092.9" x2="-219.5" y2="-360.8"/>
		<line class="st4" x1="1035" y1="-1100.8" x2="-233.1" y2="-368.6"/>
		<line class="st4" x1="1021.5" y1="-1108.6" x2="-246.7" y2="-376.4"/>
		<line class="st4" x1="1007.9" y1="-1116.4" x2="-260.2" y2="-384.2"/>
		<line class="st4" x1="994.4" y1="-1124.2" x2="-273.8" y2="-392.1"/>
		<line class="st4" x1="980.8" y1="-1132.1" x2="-287.3" y2="-399.9"/>
		<line class="st4" x1="967.2" y1="-1139.9" x2="-300.9" y2="-407.7"/>
		<line class="st4" x1="953.7" y1="-1147.7" x2="-314.5" y2="-415.6"/>
		<line class="st4" x1="940.1" y1="-1155.5" x2="-328" y2="-423.4"/>
		<line class="st4" x1="926.6" y1="-1163.4" x2="-341.6" y2="-431.2"/>
		<line class="st4" x1="913" y1="-1171.2" x2="-355.1" y2="-439"/>
		<line class="st4" x1="899.4" y1="-1179" x2="-368.7" y2="-446.9"/>
		<line class="st4" x1="885.9" y1="-1186.9" x2="-382.3" y2="-454.7"/>
		<line class="st4" x1="872.3" y1="-1194.7" x2="-395.8" y2="-462.5"/>
		<line class="st4" x1="858.8" y1="-1202.5" x2="-409.4" y2="-470.4"/>
		<line class="st4" x1="845.2" y1="-1210.3" x2="-422.9" y2="-478.2"/>
		<line class="st4" x1="831.7" y1="-1218.2" x2="-436.5" y2="-486"/>
	</g>
</g>
<g id="Layer_3">
</g>
<g>
	<g>
		<g class="st5">
			<path d="M375.7,67.6l-0.3,0.1c-0.1,0,0,0.1,0.1,0.1l3.1,1.4c0.1,0.1,0.3,0.1,0.4,0.1l0.3-0.1c0.1,0,0-0.1-0.1-0.1l-3.1-1.4
				C376,67.6,375.8,67.6,375.7,67.6z"/>
			<g>
				<path d="M391.3,75.2l-14.7-4.9c-0.4-0.1-0.6-0.3-0.6-0.4c0.1-0.2,0.6-0.5,2.4-0.9c1.8-0.3,3-0.3,3.7-0.3c0.4,0,0.8,0.2,1,0.3
					l8.5,6.1C391.8,75.2,391.5,75.3,391.3,75.2z"/>
			</g>
		</g>
		<g>
			<g>
				<path class="st6" d="M376,67.8h-0.4c-0.1,0-0.3-0.1-0.3-0.3V64c0-0.1,0.1-0.3,0.3-0.3h0.4c0.1,0,0.3,0.1,0.3,0.3v3.5
					C376.3,67.7,376.2,67.8,376,67.8z"/>
				<path d="M376,67.9h-0.4c-0.2,0-0.4-0.2-0.4-0.4V64c0-0.2,0.2-0.4,0.4-0.4h0.4c0.2,0,0.4,0.2,0.4,0.4v3.5
					C376.4,67.7,376.3,67.9,376,67.9z M375.6,63.9c-0.1,0-0.1,0.1-0.1,0.1v3.5c0,0.1,0.1,0.1,0.1,0.1h0.4c0.1,0,0.1-0.1,0.1-0.1V64
					c0-0.1-0.1-0.1-0.1-0.1H375.6z"/>
			</g>
			<g>
				<path class="st7" d="M375.6,50l-4.5,13c-0.1,0.3,0,0.7,0.3,0.9c0.6,0.3,1.8,0.7,4.4,0.7s3.9-0.4,4.4-0.7
					c0.3-0.2,0.4-0.5,0.3-0.9l-4.4-13C376,49.8,375.7,49.8,375.6,50z"/>
				<path d="M375.8,49.8c0.1,0,0.2,0.1,0.3,0.2l4.5,12.9c0.1,0.3,0,0.7-0.3,0.9c-0.6,0.3-1.8,0.7-4.4,0.7s-3.9-0.4-4.4-0.7
					c-0.3-0.2-0.4-0.5-0.3-0.9l4.5-12.9C375.6,49.9,375.7,49.8,375.8,49.8 M375.8,49.6c-0.2,0-0.4,0.1-0.5,0.4l-4.5,12.9
					c-0.2,0.5,0,0.9,0.4,1.2c0.6,0.3,1.9,0.7,4.6,0.7s3.9-0.4,4.6-0.7c0.4-0.2,0.6-0.7,0.4-1.2L376.3,50
					C376.3,49.7,376.1,49.6,375.8,49.6L375.8,49.6z"/>
			</g>
			<path class="st8" d="M379.6,64.1c1.1-0.3,1.1-0.8,1-1.1l-4.3-12.5c0-0.1,0.1,3.4,0.7,5.7C378,60.2,379.2,64.2,379.6,64.1z"/>
		</g>
	</g>
	<g>
		<g class="st5">
			<path d="M355.9,81.9l-0.7,0.1c-0.2,0-0.1,0.2,0.2,0.3l6.2,3c0.3,0.1,0.7,0.2,0.8,0.2l0.7-0.1c0.2,0,0.1-0.2-0.2-0.3l-6.2-3
				C356.4,82,356.1,81.9,355.9,81.9z"/>
			<g>
				<path d="M387.5,97.4l-29.9-10c-0.8-0.3-1.3-0.6-1.1-0.8c0.2-0.4,1.3-1.1,4.9-1.8s6.1-0.7,7.5-0.6c0.7,0.1,1.6,0.4,2,0.7
					l17.3,12.4C388.6,97.5,388.1,97.6,387.5,97.4z"/>
			</g>
		</g>
		<g>
			<g>
				<path class="st6" d="M356.5,82.3h-0.9c-0.3,0-0.5-0.2-0.5-0.5v-7.1c0-0.3,0.2-0.5,0.5-0.5h0.9c0.3,0,0.5,0.2,0.5,0.5v7.1
					C357,82.1,356.8,82.3,356.5,82.3z"/>
				<path d="M356.5,82.4h-0.9c-0.4,0-0.6-0.3-0.6-0.6v-7.1c0-0.4,0.3-0.6,0.6-0.6h0.9c0.4,0,0.6,0.3,0.6,0.6v7.1
					C357.2,82.1,356.9,82.4,356.5,82.4z M355.7,74.3c-0.2,0-0.4,0.2-0.4,0.4v7.1c0,0.2,0.2,0.4,0.4,0.4h0.9c0.2,0,0.4-0.2,0.4-0.4
					v-7.1c0-0.2-0.2-0.4-0.4-0.4H355.7z"/>
			</g>
			<g>
				<path class="st7" d="M355.6,46.1l-9.1,26.4c-0.2,0.7,0,1.4,0.7,1.8c1.2,0.6,3.7,1.4,9,1.4s7.9-0.8,9-1.4
					c0.6-0.3,0.9-1.1,0.7-1.8l-9.1-26.4C356.5,45.6,355.7,45.6,355.6,46.1z"/>
				<path d="M356.1,45.7c0.2,0,0.5,0.1,0.6,0.4l9.1,26.4c0.2,0.7,0,1.4-0.7,1.8c-1.2,0.6-3.7,1.4-9,1.4s-7.9-0.8-9-1.4
					c-0.6-0.3-0.9-1.1-0.7-1.8l9.1-26.4C355.6,45.8,355.9,45.7,356.1,45.7 M356.1,45.5c-0.4,0-0.7,0.2-0.8,0.6l-9.1,26.4
					c-0.3,0.8,0,1.7,0.8,2.1c1.2,0.7,3.8,1.5,9.2,1.5c5.4,0,7.9-0.8,9.2-1.5c0.7-0.4,1.1-1.3,0.8-2.1L356.9,46
					C356.8,45.7,356.5,45.5,356.1,45.5L356.1,45.5z"/>
			</g>
			<path class="st8" d="M363.8,74.8c2.2-0.7,2.2-1.7,2-2.3L357,46.9c-0.1-0.2,0.1,7,1.4,11.7C360.5,66.8,363,75.1,363.8,74.8z"/>
		</g>
	</g>
	<g>
		<g class="st5">
			<path d="M328,81.5l-0.4,0.1c-0.1,0-0.1,0.1,0.1,0.2l4,1.9c0.2,0.1,0.4,0.1,0.5,0.1l0.4-0.1c0.1,0,0.1-0.1-0.1-0.2l-4-1.9
				C328.4,81.5,328.1,81.4,328,81.5z"/>
			<g>
				<path d="M348.3,91.4L329.1,85c-0.5-0.2-0.8-0.4-0.7-0.5c0.2-0.3,0.8-0.7,3.2-1.1c2.4-0.4,3.9-0.4,4.8-0.4c0.5,0,1,0.2,1.3,0.4
					l11.1,7.9C349,91.4,348.7,91.5,348.3,91.4z"/>
			</g>
		</g>
		<g>
			<g>
				<path class="st6" d="M328.4,81.7h-0.5c-0.2,0-0.3-0.2-0.3-0.3v-4.5c0-0.2,0.2-0.3,0.3-0.3h0.5c0.2,0,0.3,0.2,0.3,0.3v4.5
					C328.7,81.6,328.6,81.7,328.4,81.7z"/>
				<path d="M328.4,81.8h-0.5c-0.3,0-0.5-0.2-0.5-0.5v-4.5c0-0.3,0.2-0.5,0.5-0.5h0.5c0.3,0,0.5,0.2,0.5,0.5v4.5
					C328.9,81.6,328.7,81.8,328.4,81.8z M327.9,76.6c-0.1,0-0.2,0.1-0.2,0.2v4.5c0,0.1,0.1,0.2,0.2,0.2h0.5c0.1,0,0.2-0.1,0.2-0.2
					v-4.5c0-0.1-0.1-0.2-0.2-0.2H327.9z"/>
			</g>
			<g>
				<path class="st7" d="M327.8,58.5l-5.9,16.9c-0.2,0.4,0,0.9,0.4,1.1c0.8,0.4,2.4,0.9,5.8,0.9s5-0.5,5.8-0.9
					c0.4-0.2,0.6-0.7,0.4-1.1l-5.9-16.9C328.4,58.2,327.9,58.2,327.8,58.5z"/>
				<path d="M328.2,58.2c0.1,0,0.3,0.1,0.4,0.3l5.9,16.9c0.2,0.4,0,0.9-0.4,1.1c-0.8,0.4-2.4,0.9-5.8,0.9s-5-0.5-5.8-0.9
					c-0.4-0.2-0.6-0.7-0.4-1.1l5.9-16.9C327.9,58.3,328,58.2,328.2,58.2 M328.2,58c-0.3,0-0.5,0.2-0.6,0.4l-5.9,16.9
					c-0.2,0.6,0,1.2,0.5,1.4c0.8,0.4,2.5,0.9,5.9,0.9s5.1-0.5,5.9-0.9c0.5-0.3,0.7-0.9,0.5-1.4l-5.9-16.9
					C328.7,58.2,328.4,58,328.2,58L328.2,58z"/>
			</g>
			<path class="st8" d="M333.1,76.9c1.4-0.4,1.4-1.1,1.3-1.5L328.7,59c0-0.1,0.1,4.5,0.9,7.5C331,71.8,332.6,77.1,333.1,76.9z"/>
		</g>
	</g>
	<g>
		<g class="st5">
			<path d="M392.3,73.4l-0.4,0.1c-0.1,0-0.1,0.1,0.1,0.2l4,1.9c0.2,0.1,0.4,0.1,0.5,0.1l0.4-0.1c0.1,0,0.1-0.1-0.1-0.2l-4-1.9
				C392.6,73.4,392.4,73.3,392.3,73.4z"/>
			<g>
				<path d="M412.6,83.3l-19.2-6.4c-0.5-0.2-0.8-0.4-0.7-0.5c0.2-0.3,0.8-0.7,3.2-1.1c2.4-0.4,3.9-0.4,4.8-0.4c0.5,0,1,0.2,1.3,0.4
					l11.1,7.9C413.3,83.3,413,83.4,412.6,83.3z"/>
			</g>
		</g>
		<g>
			<g>
				<path class="st6" d="M392.7,73.6h-0.5c-0.2,0-0.3-0.2-0.3-0.3v-4.5c0-0.2,0.2-0.3,0.3-0.3h0.5c0.2,0,0.3,0.2,0.3,0.3v4.5
					C393,73.5,392.9,73.6,392.7,73.6z"/>
				<path d="M392.7,73.7h-0.5c-0.3,0-0.5-0.2-0.5-0.5v-4.5c0-0.3,0.2-0.5,0.5-0.5h0.5c0.3,0,0.5,0.2,0.5,0.5v4.5
					C393.2,73.5,392.9,73.7,392.7,73.7z M392.1,68.5c-0.1,0-0.2,0.1-0.2,0.2v4.5c0,0.1,0.1,0.2,0.2,0.2h0.5c0.1,0,0.2-0.1,0.2-0.2
					v-4.5c0-0.1-0.1-0.2-0.2-0.2H392.1z"/>
			</g>
			<g>
				<path class="st7" d="M392.1,50.4l-5.9,16.9c-0.2,0.4,0,0.9,0.4,1.1c0.8,0.4,2.4,0.9,5.8,0.9s5-0.5,5.8-0.9
					c0.4-0.2,0.6-0.7,0.4-1.1l-5.9-16.9C392.7,50.1,392.2,50.1,392.1,50.4z"/>
				<path d="M392.4,50.1c0.1,0,0.3,0.1,0.4,0.3l5.9,16.9c0.2,0.4,0,0.9-0.4,1.1c-0.8,0.4-2.4,0.9-5.8,0.9s-5-0.5-5.8-0.9
					c-0.4-0.2-0.6-0.7-0.4-1.1l5.9-16.9C392.1,50.2,392.3,50.1,392.4,50.1 M392.4,49.9c-0.3,0-0.5,0.2-0.6,0.4L386,67.2
					c-0.2,0.6,0,1.2,0.5,1.4c0.8,0.4,2.5,0.9,5.9,0.9s5.1-0.5,5.9-0.9c0.5-0.3,0.7-0.9,0.5-1.4L393,50.3
					C392.9,50.1,392.7,49.9,392.4,49.9L392.4,49.9z"/>
			</g>
			<path class="st8" d="M397.4,68.8c1.4-0.4,1.4-1.1,1.3-1.5L393,50.9c0-0.1,0.1,4.5,0.9,7.5C395.2,63.7,396.8,69,397.4,68.8z"/>
		</g>
	</g>
	<g>
		<g class="st5">
			<path d="M221.2,45.6l-0.7,0.1c-0.2,0-0.1,0.2,0.2,0.3l6.2,3c0.3,0.1,0.7,0.2,0.8,0.2l0.7-0.1c0.2,0,0.1-0.2-0.2-0.3l-6.2-3
				C221.8,45.6,221.4,45.6,221.2,45.6z"/>
			<g>
				<path d="M252.9,61.1l-29.9-10c-0.8-0.3-1.3-0.6-1.1-0.8c0.2-0.4,1.3-1.1,4.9-1.8c3.7-0.7,6.1-0.7,7.5-0.6c0.7,0.1,1.6,0.4,2,0.7
					L253.6,61C254,61.2,253.4,61.3,252.9,61.1z"/>
			</g>
		</g>
		<g>
			<g>
				<path class="st6" d="M221.8,46H221c-0.3,0-0.5-0.2-0.5-0.5v-7.1c0-0.3,0.2-0.5,0.5-0.5h0.9c0.3,0,0.5,0.2,0.5,0.5v7.1
					C222.4,45.7,222.1,46,221.8,46z"/>
				<path d="M221.8,46.1H221c-0.4,0-0.6-0.3-0.6-0.6v-7.1c0-0.4,0.3-0.6,0.6-0.6h0.9c0.4,0,0.6,0.3,0.6,0.6v7.1
					C222.5,45.8,222.2,46.1,221.8,46.1z M221,38c-0.2,0-0.4,0.2-0.4,0.4v7.1c0,0.2,0.2,0.4,0.4,0.4h0.9c0.2,0,0.4-0.2,0.4-0.4v-7.1
					c0-0.2-0.2-0.4-0.4-0.4H221z"/>
			</g>
			<g>
				<path class="st7" d="M220.9,9.8l-9.1,26.4c-0.2,0.7,0,1.4,0.7,1.8c1.2,0.6,3.7,1.4,9,1.4s7.9-0.8,9-1.4c0.6-0.3,0.9-1.1,0.7-1.8
					L222,9.8C221.8,9.2,221.1,9.2,220.9,9.8z"/>
				<path d="M221.4,9.4c0.2,0,0.5,0.1,0.6,0.4l9.1,26.4c0.2,0.7,0,1.4-0.7,1.8c-1.2,0.6-3.7,1.4-9,1.4s-7.9-0.8-9-1.4
					c-0.6-0.3-0.9-1.1-0.7-1.8l9.1-26.4C221,9.5,221.2,9.4,221.4,9.4 M221.4,9.1c-0.4,0-0.7,0.2-0.8,0.6l-9.1,26.4
					c-0.3,0.8,0,1.7,0.8,2.1c1.2,0.7,3.8,1.5,9.2,1.5s7.9-0.8,9.2-1.5c0.7-0.4,1.1-1.3,0.8-2.1l-9.1-26.4
					C222.1,9.3,221.8,9.1,221.4,9.1L221.4,9.1z"/>
			</g>
			<path class="st8" d="M229.1,38.5c2.2-0.7,2.2-1.7,2-2.3l-8.9-25.6c-0.1-0.2,0.1,7,1.4,11.7C225.8,30.5,228.3,38.7,229.1,38.5z"/>
		</g>
	</g>
	<g>
		<g class="st5">
			<path d="M239,37.3l-0.6,0.1c-0.2,0-0.1,0.1,0.2,0.3l5.5,2.6c0.2,0.1,0.6,0.2,0.7,0.2l0.6-0.1c0.2,0,0.1-0.1-0.2-0.3l-5.5-2.6
				C239.4,37.4,239.1,37.3,239,37.3z"/>
			<g>
				<path d="M266.8,50.9l-26.3-8.8c-0.7-0.2-1.1-0.5-1-0.7c0.2-0.4,1.1-1,4.3-1.6s5.4-0.6,6.6-0.5c0.6,0.1,1.4,0.3,1.8,0.6
					l15.2,10.9C267.7,51,267.3,51.1,266.8,50.9z"/>
			</g>
		</g>
		<g>
			<g>
				<path class="st6" d="M239.5,37.7h-0.8c-0.3,0-0.5-0.2-0.5-0.5V31c0-0.3,0.2-0.5,0.5-0.5h0.8c0.3,0,0.5,0.2,0.5,0.5v6.2
					C240,37.5,239.8,37.7,239.5,37.7z"/>
				<path d="M239.5,37.8h-0.8c-0.3,0-0.6-0.3-0.6-0.6V31c0-0.3,0.3-0.6,0.6-0.6h0.8c0.3,0,0.6,0.3,0.6,0.6v6.2
					C240.1,37.5,239.8,37.8,239.5,37.8z M238.8,30.7c-0.2,0-0.3,0.2-0.3,0.3v6.2c0,0.2,0.1,0.3,0.3,0.3h0.8c0.2,0,0.3-0.2,0.3-0.3
					V31c0-0.2-0.1-0.3-0.3-0.3H238.8z"/>
			</g>
			<g>
				<path class="st7" d="M238.7,5.9l-8,23.2c-0.2,0.6,0,1.3,0.6,1.6c1,0.6,3.3,1.3,7.9,1.3s6.9-0.7,7.9-1.3c0.6-0.3,0.8-1,0.6-1.6
					l-8-23.2C239.5,5.4,238.8,5.4,238.7,5.9z"/>
				<path d="M239.2,5.5c0.2,0,0.4,0.1,0.5,0.3l8,23.2c0.2,0.6,0,1.3-0.6,1.6c-1,0.6-3.3,1.3-7.9,1.3s-6.9-0.7-7.9-1.3
					c-0.6-0.3-0.8-1-0.6-1.6l8-23.2C238.7,5.6,238.9,5.5,239.2,5.5 M239.2,5.3c-0.3,0-0.6,0.2-0.7,0.5l-8,23.2
					c-0.3,0.7,0,1.5,0.7,1.9c1.1,0.6,3.3,1.3,8.1,1.3c4.7,0,7-0.7,8.1-1.3c0.7-0.4,1-1.1,0.7-1.9l-8-23.2
					C239.8,5.5,239.5,5.3,239.2,5.3L239.2,5.3z"/>
			</g>
			<path class="st8" d="M245.9,31.1c1.9-0.6,2-1.5,1.8-2l-7.8-22.5c-0.1-0.2,0.1,6.2,1.2,10.3C243,24.1,245.2,31.3,245.9,31.1z"/>
		</g>
	</g>
	<g>
		<g class="st5">
			<path d="M203.5,54.1l-0.4,0.1c-0.1,0-0.1,0.1,0.1,0.2l4,1.9c0.2,0.1,0.4,0.1,0.5,0.1l0.4-0.1c0.1,0,0.1-0.1-0.1-0.2l-4-1.9
				C203.9,54.1,203.6,54,203.5,54.1z"/>
			<g>
				<path d="M223.8,64l-19.2-6.4c-0.5-0.2-0.8-0.4-0.7-0.5c0.2-0.3,0.8-0.7,3.2-1.1c2.4-0.4,3.9-0.4,4.8-0.4c0.5,0,1,0.2,1.3,0.4
					l11.1,7.9C224.5,64,224.2,64.1,223.8,64z"/>
			</g>
		</g>
		<g>
			<g>
				<path class="st6" d="M203.9,54.3h-0.5c-0.2,0-0.3-0.2-0.3-0.3v-4.5c0-0.2,0.2-0.3,0.3-0.3h0.5c0.2,0,0.3,0.2,0.3,0.3V54
					C204.3,54.1,204.1,54.3,203.9,54.3z"/>
				<path d="M203.9,54.4h-0.5c-0.3,0-0.5-0.2-0.5-0.5v-4.5c0-0.3,0.2-0.5,0.5-0.5h0.5c0.3,0,0.5,0.2,0.5,0.5V54
					C204.4,54.2,204.2,54.4,203.9,54.4z M203.4,49.2c-0.1,0-0.2,0.1-0.2,0.2V54c0,0.1,0.1,0.2,0.2,0.2h0.5c0.1,0,0.2-0.1,0.2-0.2
					v-4.5c0-0.1-0.1-0.2-0.2-0.2L203.4,49.2L203.4,49.2z"/>
			</g>
			<g>
				<path class="st7" d="M203.3,31.1L197.4,48c-0.2,0.4,0,0.9,0.4,1.1c0.8,0.4,2.4,0.9,5.8,0.9s5-0.5,5.8-0.9
					c0.4-0.2,0.6-0.7,0.4-1.1L204,31.1C203.9,30.7,203.4,30.7,203.3,31.1z"/>
				<path d="M203.7,30.8c0.1,0,0.3,0.1,0.4,0.3L210,48c0.2,0.4,0,0.9-0.4,1.1c-0.8,0.4-2.4,0.9-5.8,0.9s-5-0.5-5.8-0.9
					c-0.4-0.2-0.6-0.7-0.4-1.1l5.9-16.9C203.4,30.9,203.5,30.8,203.7,30.8 M203.7,30.6c-0.3,0-0.5,0.2-0.6,0.4l-5.9,16.9
					c-0.2,0.6,0,1.2,0.5,1.4c0.8,0.4,2.5,0.9,5.9,0.9s5.1-0.5,5.9-0.9c0.5-0.3,0.7-0.9,0.5-1.4L204.2,31
					C204.2,30.7,203.9,30.6,203.7,30.6L203.7,30.6z"/>
			</g>
			<path class="st8" d="M208.6,49.5c1.4-0.4,1.4-1.1,1.3-1.5l-5.7-16.4c0-0.1,0.1,4.5,0.9,7.5C206.5,44.4,208.1,49.7,208.6,49.5z"/>
		</g>
	</g>
	<g>
		<g class="st5">
			<path d="M133.9,93.7l-0.5,0.1c-0.1,0-0.1,0.1,0.1,0.2l4.5,2.2c0.2,0.1,0.5,0.2,0.6,0.1l0.5-0.1c0.1,0,0.1-0.1-0.1-0.2l-4.5-2.2
				C134.3,93.8,134,93.7,133.9,93.7z"/>
			<g>
				<path d="M156.9,105l-21.8-7.3c-0.6-0.2-0.9-0.4-0.8-0.6c0.2-0.3,0.9-0.8,3.6-1.3c2.7-0.5,4.4-0.5,5.5-0.4c0.5,0,1.2,0.3,1.5,0.5
					l12.6,9C157.7,105.1,157.3,105.1,156.9,105z"/>
			</g>
		</g>
		<g>
			<g>
				<path class="st6" d="M134.3,94h-0.6c-0.2,0-0.4-0.2-0.4-0.4v-5.2c0-0.2,0.2-0.4,0.4-0.4h0.6c0.2,0,0.4,0.2,0.4,0.4v5.2
					C134.7,93.8,134.5,94,134.3,94z"/>
				<path d="M134.3,94.1h-0.6c-0.3,0-0.5-0.2-0.5-0.5v-5.2c0-0.3,0.2-0.5,0.5-0.5h0.6c0.3,0,0.5,0.2,0.5,0.5v5.2
					C134.8,93.9,134.6,94.1,134.3,94.1z M133.7,88.2c-0.1,0-0.3,0.1-0.3,0.3v5.2c0,0.1,0.1,0.3,0.3,0.3h0.6c0.1,0,0.3-0.1,0.3-0.3
					v-5.2c0-0.1-0.1-0.3-0.3-0.3H133.7z"/>
			</g>
			<g>
				<path class="st7" d="M133.6,67.6L127,86.9c-0.2,0.5,0,1,0.5,1.3c0.9,0.5,2.7,1,6.6,1s5.7-0.6,6.6-1c0.5-0.2,0.7-0.8,0.5-1.3
					l-6.7-19.2C134.3,67.2,133.8,67.2,133.6,67.6z"/>
				<path d="M134,67.3c0.2,0,0.3,0.1,0.4,0.3l6.7,19.2c0.2,0.5,0,1-0.5,1.3c-0.9,0.5-2.7,1-6.6,1c-3.9,0-5.7-0.6-6.6-1
					c-0.5-0.2-0.7-0.8-0.5-1.3l6.7-19.2C133.7,67.4,133.9,67.3,134,67.3 M134,67.1c-0.3,0-0.5,0.2-0.6,0.5l-6.7,19.2
					c-0.2,0.6,0,1.3,0.6,1.6c0.9,0.5,2.8,1.1,6.7,1.1c3.9,0,5.8-0.6,6.7-1.1c0.6-0.3,0.8-1,0.6-1.6l-6.7-19.2
					C134.6,67.3,134.3,67.1,134,67.1L134,67.1z"/>
			</g>
			<path class="st8" d="M139.6,88.6c1.6-0.5,1.6-1.2,1.5-1.7l-6.5-18.6c0-0.1,0.1,5.1,1,8.5C137.2,82.7,139,88.7,139.6,88.6z"/>
		</g>
	</g>
	<g class="st5">
		<polygon points="13.4,48.6 41,64.9 39.9,65.5 12.9,49.5 		"/>
	</g>
	<g class="st5">
		<polygon points="635.2,94.5 635.2,95.7 629.3,92.2 621.3,87.5 621.8,86.6 630.4,91.7 		"/>
	</g>
	<path class="st9" d="M635.2,89v14.2c-36.6,21.1-81.8,21.1-118.4,0l-79.6-46c-42.6-24.6-95-24.8-137.7-0.5l-10.4,6
		c-48.5,28.3-108.4,28.5-157,0.4L104.2,47C71.9,28.4,32.2,28.5,0,47.2v-14C35.3,16,77,17.3,111.3,37.1l25.9,15
		c45.5,26.2,101.5,26.2,146.9,0l8.7-5c46.8-27,104.4-27,151.2,0L516.6,89c39.8,21.6,77.6,21.3,112.7,3.2c0.4-0.2,0.7-0.4,1.1-0.6
		C632,90.8,633.6,89.9,635.2,89z"/>
	<g>
		<g>
			<polygon class="st7" points="13,49.5 13,23.6 14.1,24.2 14.1,49.5 			"/>
			<path d="M14.2,49.6h-1.3V23.4l1.3,0.8V49.6z M13.2,49.3H14v-25l-0.8-0.5V49.3z"/>
		</g>
		<g>
			<path class="st7" d="M18.9,25.6c0,3.4-2.4,4.7-5.3,3s-5.3-5.8-5.3-9.1s2.4-4.7,5.3-3S18.9,22.3,18.9,25.6z"/>
			<path d="M15.9,29.5c-0.7,0-1.6-0.2-2.4-0.7c-3-1.7-5.4-5.8-5.4-9.2c0-1.7,0.6-2.9,1.6-3.5s2.4-0.5,3.9,0.4c3,1.7,5.4,5.8,5.4,9.2
				c0,1.7-0.6,2.9-1.6,3.5C16.9,29.4,16.5,29.5,15.9,29.5z M11.2,15.9c-0.5,0-0.9,0.1-1.3,0.3c-1,0.5-1.5,1.7-1.5,3.3
				c0,3.3,2.3,7.4,5.2,9c1.4,0.8,2.7,0.9,3.6,0.4c1-0.5,1.5-1.7,1.5-3.3c0-3.3-2.3-7.4-5.2-9C12.7,16.1,11.9,15.9,11.2,15.9z"/>
		</g>
	</g>
	<g>
		<g>
			<polygon class="st7" points="621.3,87.5 621.3,61.7 622.3,62.3 622.3,87.5 			"/>
			<path d="M622.4,87.7h-1.3V61.5l1.3,0.8V87.7z M621.4,87.4h0.8v-25l-0.8-0.5V87.4z"/>
		</g>
		<g>
			<polygon class="st7" points="621.8,54.5 615.6,63.3 628,70.5 			"/>
			<path d="M628.3,70.7l-12.9-7.4l0.1-0.1l6.4-9l0.1,0.2L628.3,70.7z M615.7,63.2l12,6.9l-6-15.4L615.7,63.2z"/>
		</g>
	</g>
	<path class="st7" d="M516.3,97.5l-72.6-41.9c-46-26.6-103.2-26.6-149.2,0l-8.7,5c-45.9,26.5-103,26.5-148.9,0l-25.9-15l2-3.5
		l25.9,15c44.7,25.8,100.2,25.8,144.9,0l8.7-5c47.2-27.3,105.9-27.3,153.2,0L518.3,94L516.3,97.5z"/>
	<path class="st7" d="M534.7,27c0,13-9.1,23.8-21.3,26.4c-3.3,6.1-5.7,10.3-5.7,10.3s-2.4-4.2-5.7-10.3
		C489.8,50.9,480.7,40,480.7,27c0-14.9,12.1-27,27-27C522.6,0,534.7,12.1,534.7,27z"/>
	<path class="st10" d="M526.8,27c0,10.6-8.6,19.1-19.1,19.1c-4.6,0-8.8-1.6-12.1-4.3c-0.8-0.6-1.5-1.3-2.1-2
		c-3-3.4-4.9-7.8-4.9-12.7c0-10.6,8.6-19.1,19.1-19.1C518.3,7.9,526.8,16.5,526.8,27z"/>
	<rect x="495.6" y="19.3" class="st11" width="26.5" height="15.9"/>
	<rect x="506.2" y="19.3" class="st12" width="5.3" height="5.3"/>
	<rect x="516.8" y="19.3" class="st12" width="5.3" height="5.3"/>
	<rect x="500.9" y="24.7" class="st12" width="5.3" height="5.3"/>
	<rect x="511.5" y="24.7" class="st12" width="5.3" height="5.3"/>
	<path class="st12" d="M495.6,24.7V30h5.3v5.3h-5.3v6.6c-0.8-0.6-1.5-1.3-2.1-2V19.3h7.4v5.3L495.6,24.7L495.6,24.7z"/>
	<rect x="506.2" y="30" class="st12" width="5.3" height="5.3"/>
	<rect x="516.8" y="30" class="st12" width="5.3" height="5.3"/>
	<path class="st7" d="M136.8,29.6c12.9,7.4,13,19.5,0.1,26.9s-33.6,7.4-46.5-0.1s-13-19.5-0.1-26.9S123.9,22.2,136.8,29.6z"/>
	<path class="st10" d="M128.3,34.5c8.2,4.7,8.2,12.4,0.1,17s-21.4,4.7-29.5-0.1s-8.2-12.4-0.1-17S120.1,29.8,128.3,34.5z"/>
	<g>
		<g>
			<polygon class="st13" points="490.5,87.6 491.6,87 494.4,84 492.5,83 490.8,84.4 490.3,86.7 			"/>
			<path d="M490.5,87.7L490.5,87.7c-0.1,0-0.1-0.1-0.1-0.1l-0.2-0.9c0,0,0,0,0-0.1l0.5-2.3c0,0,0,0,0-0.1l1.7-1.4h0.1l2,1l0.1,0.1
				V84l-2.8,3.1l0,0L490.5,87.7C490.6,87.7,490.5,87.7,490.5,87.7z M490.4,86.7l0.2,0.7l0.9-0.5l2.7-2.9l-1.7-0.9l-1.6,1.4
				L490.4,86.7z"/>
		</g>
		<g>
			<polyline points="493.9,91 495.8,90.1 496.5,85.9 495.3,84.1 494.3,83.8 492.8,84.1 			"/>
			<path d="M493.9,91.1c0,0-0.1,0-0.1-0.1s0-0.1,0.1-0.2l1.8-0.9l0.7-4.1l-1.1-1.7l-1-0.3l-1.4,0.3c-0.1,0-0.1,0-0.1-0.1
				s0-0.1,0.1-0.1l1.5-0.3l1.1,0.3l0,0l1.2,1.9l-0.7,4.3h-0.1L493.9,91.1C494,91.1,494,91.1,493.9,91.1z"/>
		</g>
		<g>
			<path class="st14" d="M491.6,87c0.1,1.8,0.6,3,1.6,3.5s1.9-0.9,1.9-2.7c0-1.5-0.4-2.9-1.5-3.5C492.4,83.7,491.5,85.2,491.6,87z"
				/>
			<path d="M493.6,91.1c-0.2,0-0.4-0.1-0.7-0.2c-1.2-0.6-1.8-1.9-1.9-3.9l0,0c0-1.4,0.4-2.6,1.2-3.1c0.5-0.3,1-0.3,1.6,0
				c1.1,0.6,1.7,2,1.7,3.9c0,1.4-0.5,2.6-1.2,3.1C494.1,91.1,493.9,91.1,493.6,91.1z M492.1,87c0.1,1.7,0.5,2.7,1.3,3.1
				c0.2,0.1,0.3,0.1,0.4,0c0.4-0.2,0.8-1.1,0.8-2.2c0-1.5-0.5-2.6-1.2-3c-0.3-0.2-0.4-0.1-0.6,0C492.4,85,492.1,85.9,492.1,87
				L492.1,87z"/>
		</g>
		<g>
			<polygon class="st13" points="506.8,97 507.9,96.5 510.8,93.4 508.8,92.4 507.1,93.8 506.6,96.1 			"/>
			<path d="M506.8,97.1L506.8,97.1c-0.1,0-0.1-0.1-0.1-0.1l-0.2-0.9c0,0,0,0,0-0.1l0.5-2.3c0,0,0,0,0-0.1l1.7-1.4h0.1l2,1l0.1,0.1
				v0.1l-2.8,3.1l0,0L506.8,97.1C506.9,97.1,506.9,97.1,506.8,97.1z M506.8,96.1l0.2,0.7l0.9-0.5l2.7-2.9l-1.7-0.9l-1.6,1.4
				L506.8,96.1z"/>
		</g>
		<g>
			<polyline points="510.5,100.3 512.1,99.5 512.8,95.4 511.6,93.6 510.6,93.3 509.2,93.5 			"/>
			<path d="M510.5,100.5c0,0-0.1,0-0.1-0.1s0-0.1,0.1-0.2l1.6-0.8l0.7-4.1l-1.1-1.7l-1-0.3l-1.4,0.3c-0.1,0-0.1,0-0.1-0.1
				s0-0.1,0.1-0.1l1.5-0.3l0,0l1.1,0.3l0,0l1.2,1.9l-0.7,4.3L510.5,100.5L510.5,100.5z"/>
		</g>
		<g>
			<path class="st15" d="M526.1,94v-3.8c0-2-1.1-3.9-2.8-4.9l-3.3-1.9l-1.9-8.3l-10.3-5.8l-12.2,7.1l10.3,5.8l1.9,8.3l3.3,1.9
				c1.7,1,2.8,2.9,2.8,4.9v3.8L526.1,94z"/>
			<path d="M513.8,101.2L513.8,101.2C513.7,101.2,513.7,101.1,513.8,101.2l-0.1-3.9c0-2-1.1-3.8-2.8-4.8l-3.3-1.9c0,0-0.1,0-0.1-0.1
				l-1.9-8.2l-10.3-5.8l-0.1-0.1c0,0,0-0.1,0.1-0.1l12.2-7.1h0.1l10.3,5.8c0,0,0.1,0,0.1,0.1l1.9,8.2l3.3,1.9c1.8,1,2.9,2.9,2.9,5
				V94c0,0,0,0.1-0.1,0.1L513.8,101.2C513.9,101.2,513.8,101.2,513.8,101.2z M507.8,90.4l3.3,1.9c1.8,1,2.9,2.9,2.9,5v3.6l12-6.9
				v-3.7c0-2-1.1-3.8-2.8-4.8l-3.3-1.9c0,0-0.1,0-0.1-0.1l-1.9-8.2l-10.2-5.8l-12,6.9l10.2,5.7c0,0,0.1,0,0.1,0.1L507.8,90.4z"/>
		</g>
		<g>
			<line class="st16" x1="519.9" y1="83.4" x2="507.7" y2="90.4"/>
			<rect x="506.8" y="86.8" transform="matrix(0.8663 -0.4995 0.4995 0.8663 25.2749 268.2965)" width="14.1" height="0.3"/>
		</g>
		<g>
			<line class="st16" x1="518" y1="75.1" x2="505.8" y2="82.2"/>
			<rect x="504.9" y="78.5" transform="matrix(0.8663 -0.4995 0.4995 0.8663 29.1672 266.236)" width="14.1" height="0.3"/>
		</g>
		<g>
			<path class="st17" d="M507.7,69.3l-3.7,0.1c-0.6,0-1.1,0.2-1.6,0.4l-11.8,6.6l4.8-0.1L507.7,69.3z"/>
			<path d="M490.6,76.5c-0.1,0-0.1,0-0.1-0.1s0-0.1,0.1-0.1l11.8-6.6c0.5-0.3,1.1-0.4,1.7-0.5l3.7-0.1l0,0c0.1,0,0.1,0,0.1,0.1
				s0,0.1-0.1,0.1l-12.2,7.1c0,0,0,0-0.1,0L490.6,76.5L490.6,76.5z M507.2,69.4l-3.2,0.1c-0.6,0-1.1,0.2-1.6,0.4L491,76.3l4.3-0.1
				L507.2,69.4z"/>
		</g>
		<g>
			<path class="st7" d="M513.8,101c0,0-1.2-0.7-1.8-1.1c1-4.8-1-6.3-2-6.8s-2.7-0.1-3.2,3.8c-0.4-0.3-6.6-3.8-11.3-6.5
				c0.9-3.8-0.1-5.9-1.4-6.7c-1.3-0.7-3.4,0-3.7,3.7c-0.4-0.2-1.2-0.7-1.2-0.7v-8.4c0-1.4,1.2-2.5,2.6-2.4l3.6,0.2l10.3,5.8l1.9,8.3
				l3.3,1.9c1.7,1,2.8,2.9,2.8,4.9v4H513.8z"/>
			<path d="M513.8,101.2L513.8,101.2l-1.9-1.1l-0.1-0.1c0.9-4.7-1-6.2-1.9-6.6c-0.4-0.2-0.9-0.2-1.4,0.1c-0.6,0.3-1.3,1.2-1.6,3.6
				c0,0,0,0.1-0.1,0.1h-0.1l-11.3-6.5l-0.1-0.1c0.9-3.7-0.1-5.8-1.3-6.5c-0.5-0.3-1.2-0.3-1.8,0c-0.6,0.3-1.5,1.2-1.7,3.6
				c0,0,0,0.1-0.1,0.1s-0.1,0-0.1,0c-0.4-0.2-1.2-0.7-1.2-0.7L489,87v-8.4c0-0.7,0.3-1.4,0.8-1.9s1.2-0.7,1.9-0.7l3.6,0.2
				c0,0,0,0,0.1,0l10.3,5.8c0,0,0.1,0,0.1,0.1l1.9,8.2l3.3,1.9c1.8,1,2.9,2.9,2.9,5v3.8C514,101.1,513.9,101.1,513.8,101.2
				C513.9,101.2,513.8,101.2,513.8,101.2z M512.1,99.9l1.6,0.9v-3.6c0-2-1.1-3.8-2.8-4.8l-3.3-1.9c0,0-0.1,0-0.1-0.1l-1.9-8.2
				l-10.3-5.8l-3.5-0.2c-0.6,0-1.2,0.2-1.7,0.6s-0.7,1-0.7,1.7v8.3c0.2,0.1,0.6,0.3,0.9,0.5c0.2-2.4,1.2-3.3,1.8-3.6
				c0.6-0.4,1.4-0.3,2,0c1.3,0.8,2.4,2.9,1.5,6.7l11,6.4c0.3-2.3,1.1-3.3,1.7-3.6c0.5-0.3,1.1-0.3,1.6-0.1
				C511,93.6,513.1,95.1,512.1,99.9z"/>
		</g>
		<g>
			<path class="st14" d="M507.9,96.5c0.1,1.8,0.6,3,1.6,3.5s1.9-0.9,1.9-2.7c0-1.5-0.4-2.9-1.5-3.5
				C508.8,93.2,507.9,94.7,507.9,96.5z"/>
			<path d="M509.9,100.6c-0.2,0-0.4-0.1-0.7-0.2c-1.2-0.6-1.8-1.9-1.9-3.9c0-1.4,0.4-2.6,1.2-3.1c0.5-0.3,1-0.3,1.6,0
				c1.1,0.6,1.7,2,1.7,3.9c0,1.4-0.5,2.6-1.2,3.1C510.4,100.5,510.2,100.6,509.9,100.6z M509.4,94.2c-0.1,0-0.2,0-0.2,0.1
				c-0.4,0.2-0.8,1.1-0.7,2.2c0.1,1.7,0.5,2.7,1.3,3.1c0.2,0.1,0.3,0.1,0.4,0c0.4-0.2,0.8-1.1,0.8-2.2c0-1.5-0.5-2.6-1.2-3
				C509.6,94.2,509.5,94.2,509.4,94.2z"/>
		</g>
		<g>
			<polygon class="st11" points="505.3,82.8 507,90 501.3,86.7 501.3,80.5 			"/>
			<path d="M507,90.1C506.9,90.1,506.9,90.1,507,90.1l-5.8-3.4l-0.1-0.1v-6.2c0,0,0-0.1,0.1-0.1h0.1l4,2.3c0,0,0.1,0,0.1,0.1
				l1.7,7.2C507.1,90,507.1,90.1,507,90.1L507,90.1z M501.4,86.6l5.4,3.2l-1.6-6.9l-3.8-2.2V86.6z"/>
		</g>
		<g>
			<polygon class="st11" points="500.4,79.9 500.4,86.2 494.7,82.8 494.7,77 495.5,77.1 			"/>
			<path d="M500.4,86.3L500.4,86.3l-5.8-3.4l-0.1-0.1V77v-0.1h0.1l0.8,0.1l0,0l4.9,2.8l0.1,0.1v6.2
				C500.6,86.2,500.5,86.2,500.4,86.3C500.5,86.3,500.5,86.3,500.4,86.3z M494.9,82.7l5.5,3.2V80l-4.8-2.8l-0.6-0.1v5.6H494.9z"/>
		</g>
		<g>
			<path class="st11" d="M494,76.9v5.6l-4.1-2.4c0,0-0.1-1.8,0.2-2.3c0.4-0.8,1.3-1.1,1.3-1.1L494,76.9z"/>
			<path d="M494,82.6C494,82.6,493.9,82.6,494,82.6l-4.1-2.4l-0.1-0.1c0-0.1,0-1.8,0.2-2.4c0.4-0.9,1.4-1.1,1.4-1.1l0,0l2.5,0.2
				c0.1,0,0.1,0.1,0.1,0.1v5.6C494.1,82.5,494.1,82.6,494,82.6L494,82.6z M490,80l3.8,2.2V77l-2.4-0.2c-0.1,0-0.9,0.3-1.2,1
				C490,78.2,490,79.5,490,80z"/>
		</g>
		<g>
			<polygon class="st11" points="517.7,76.1 519.4,83.2 508.2,89.7 506.4,82.6 			"/>
			<path d="M508.2,89.8L508.2,89.8c-0.1,0-0.1-0.1-0.1-0.1l-1.8-7.1c0-0.1,0-0.1,0.1-0.1l11.3-6.5h0.1c0,0,0.1,0,0.1,0.1l1.7,7.1
				c0,0.1,0,0.1-0.1,0.1L508.2,89.8C508.3,89.8,508.2,89.8,508.2,89.8z M506.6,82.7l1.7,6.8l10.9-6.3l-1.6-6.8L506.6,82.7z"/>
		</g>
		<g>
			<ellipse class="st11" cx="524.3" cy="92.2" rx="0.7" ry="1.1"/>
			<path d="M524.3,93.4c-0.5,0-0.9-0.6-0.9-1.3s0.4-1.3,0.9-1.3s0.9,0.6,0.9,1.3S524.8,93.4,524.3,93.4z M524.3,91.1
				c-0.3,0-0.6,0.5-0.6,1s0.3,1,0.6,1s0.6-0.5,0.6-1S524.7,91.1,524.3,91.1z"/>
		</g>
		<g>
			<ellipse class="st11" cx="515.9" cy="97.2" rx="0.7" ry="1.1"/>
			<path d="M515.9,98.5c-0.5,0-0.9-0.6-0.9-1.3s0.4-1.3,0.9-1.3s0.9,0.6,0.9,1.3S516.4,98.5,515.9,98.5z M515.9,96.2
				c-0.3,0-0.6,0.5-0.6,1s0.3,1,0.6,1s0.6-0.5,0.6-1S516.3,96.2,515.9,96.2z"/>
		</g>
		<path d="M514.9,85.6L514.9,85.6c-0.1-0.1-0.1-0.2-0.1-0.2s0.9-1,2.3-1.5c1.4-0.5,2.7,0.1,2.7,0.1c0.1,0,0.1,0.1,0.1,0.2
			s-0.1,0.1-0.2,0.1c0,0-1.2-0.5-2.5-0.1S515,85.5,514.9,85.6C515,85.6,514.9,85.6,514.9,85.6z"/>
		<path d="M509.5,88.7C509.4,88.7,509.4,88.7,509.5,88.7c-0.1-0.1-0.1-0.2-0.1-0.2s0.9-1,2.3-1.5s2.7,0.1,2.7,0.1
			c0.1,0,0.1,0.1,0.1,0.2s-0.1,0.1-0.2,0.1c0,0-1.2-0.5-2.5-0.1C510.5,87.7,509.6,88.7,509.5,88.7L509.5,88.7z"/>
		<path class="st18" d="M508.9,96.7c0,0.8,0.3,1.4,0.7,1.6c0.5,0.2,0.9-0.4,0.9-1.2c0-0.7-0.2-1.3-0.7-1.6
			C509.3,95.2,508.8,95.9,508.9,96.7z"/>
		<path class="st18" d="M492.5,87.3c0,0.8,0.3,1.4,0.7,1.6c0.5,0.2,0.9-0.4,0.9-1.2c0-0.7-0.2-1.3-0.7-1.6
			C492.9,85.7,492.5,86.4,492.5,87.3z"/>
		<g>
			<polygon class="st19" points="518,75.1 507.7,69.3 495.5,76.3 505.8,82.2 			"/>
			<path d="M505.8,82.3L505.8,82.3l-10.4-5.8l-0.1-0.1c0,0,0-0.1,0.1-0.1l12.2-7.1h0.1L518,75l0.1,0.1c0,0,0,0.1-0.1,0.1L505.8,82.3
				L505.8,82.3z M495.7,76.3l10.1,5.7l12-6.9l-10.1-5.7L495.7,76.3z"/>
		</g>
	</g>
</g>
</svg>
