<?xml version="1.0" encoding="UTF-8"?>
<svg width="1063px" height="147px" viewBox="0 0 1063 147" version="1.1" xmlns="http://www.w3.org/2000/svg" xmlns:xlink="http://www.w3.org/1999/xlink">
    <title>yd-faqs</title>
    <defs>
        <linearGradient x1="0%" y1="49.9999905%" x2="100%" y2="49.9999905%" id="linearGradient-1">
            <stop stop-color="#FFFFFF" offset="0%"></stop>
            <stop stop-color="#2980B9" offset="25%"></stop>
            <stop stop-color="#95C0DC" offset="75%"></stop>
            <stop stop-color="#FFFFFF" offset="100%"></stop>
        </linearGradient>
        <linearGradient x1="0%" y1="50%" x2="100%" y2="50%" id="linearGradient-2">
            <stop stop-color="#2980B9" stop-opacity="0" offset="4.458984%"></stop>
            <stop stop-color="#2980B9" stop-opacity="0.6" offset="24.05%"></stop>
            <stop stop-color="#81C750" offset="100%"></stop>
        </linearGradient>
    </defs>
    <g id="yd-faqs" stroke="none" stroke-width="1" fill="none" fill-rule="evenodd">
        <g id="yd-how-it-works" transform="translate(-505.000000, -598.000000)">
            <path d="M860.9,700.3 L872.1,706.5 C872.6,706.8 872.6,707.6 872.1,707.9 L865.8,711.5 C865.6,711.6 865.3,711.6 865,711.5 L853.1,704.8 L860.9,700.3 Z" id="Path" fill="#000000" fill-rule="nonzero" opacity="0.1"></path>
            <path d="M834,715.7 L845.2,721.9 C845.7,722.2 845.7,723 845.2,723.3 L838.9,726.9 C838.7,727 838.4,727 838.1,726.9 L826.2,720.2 L834,715.7 Z" id="Path" fill="#000000" fill-rule="nonzero" opacity="0.1"></path>
            <path d="M847.7,707.8 L867.5,719.4 C868,719.7 868,720.5 867.5,720.8 L861.2,724.4 C861,724.5 860.7,724.5 860.4,724.4 L839.9,712.3 L847.7,707.8 Z" id="Path" fill="#000000" fill-rule="nonzero" opacity="0.1"></path>
            <g id="Group" transform="translate(1096.000000, 672.000000)" fill-rule="nonzero">
                <g opacity="0.1" transform="translate(5.000000, 18.000000)" fill="#000000" id="Path">
                    <path d="M0.8,0.9 L0.5,1 C0.4,1 0.5,1.1 0.6,1.1 L3.7,2.5 C3.8,2.6 4,2.6 4.1,2.6 L4.4,2.5 C4.5,2.5 4.4,2.4 4.3,2.4 L1.2,1 C1.1,0.9 0.9,0.9 0.8,0.9 Z"></path>
                    <g transform="translate(1.000000, 2.000000)">
                        <path d="M15.3,6.5 L0.6,1.6 C0.2,1.5 -1.13686838e-13,1.3 -1.13686838e-13,1.2 C0.1,1 0.6,0.7 2.4,0.3 C4.2,-1.42108547e-14 5.4,-1.42108547e-14 6.1,-1.42108547e-14 C6.5,-1.42108547e-14 6.9,0.2 7.1,0.3 L15.6,6.4 C15.9,6.5 15.6,6.6 15.3,6.5 Z"></path>
                    </g>
                </g>
                <g>
                    <g transform="translate(5.000000, 14.000000)">
                        <path d="M1.1,5.1 L0.7,5.1 C0.6,5.1 0.4,5 0.4,4.8 L0.4,1.3 C0.4,1.2 0.5,1 0.7,1 L1.1,1 C1.2,1 1.4,1.1 1.4,1.3 L1.4,4.8 C1.4,5 1.3,5.1 1.1,5.1 Z" id="Path" fill="#25739E"></path>
                        <path d="M1.1,5.2 L0.7,5.2 C0.5,5.2 0.3,5 0.3,4.8 L0.3,1.3 C0.3,1.1 0.5,0.9 0.7,0.9 L1.1,0.9 C1.3,0.9 1.5,1.1 1.5,1.3 L1.5,4.8 C1.5,5 1.3,5.2 1.1,5.2 Z M0.7,1.2 C0.6,1.2 0.6,1.3 0.7,1.2 L0.6,4.8 C0.6,4.9 0.7,4.9 0.7,4.9 L1.1,4.9 C1.2,4.9 1.2,4.8 1.2,4.8 L1.2,1.3 C1.2,1.2 1.1,1.2 1.1,1.2 L0.7,1.2 Z" id="Shape" fill="#000000"></path>
                    </g>
                    <g>
                        <path d="M5.6,1.3 L1.1,14.2 C1,14.5 1.1,14.9 1.4,15.1 C2,15.4 3.2,15.8 5.8,15.8 C8.4,15.8 9.7,15.4 10.2,15.1 C10.5,14.9 10.6,14.6 10.5,14.2 L6,1.3 C6.1,1.1 5.7,1.1 5.6,1.3 Z" id="Path" fill="#2980B9"></path>
                        <path d="M5.9,1.1 C6,1.1 6.1,1.2 6.2,1.3 L10.7,14.2 C10.8,14.5 10.7,14.9 10.4,15.1 C9.8,15.4 8.6,15.8 6,15.8 C3.4,15.8 2.1,15.4 1.6,15.1 C1.3,14.9 1.2,14.6 1.3,14.2 L5.8,1.3 C5.7,1.2 5.8,1.1 5.9,1.1 M5.9,0.9 C5.7,0.9 5.5,1 5.4,1.3 L0.9,14.2 C0.7,14.7 0.9,15.1 1.3,15.4 C1.9,15.7 3.2,16.1 5.9,16.1 C8.6,16.1 9.8,15.7 10.5,15.4 C10.9,15.2 11.1,14.7 10.9,14.2 L6.4,1.3 C6.3,1 6.1,0.9 5.9,0.9 L5.9,0.9 Z" id="Shape" fill="#000000"></path>
                    </g>
                    <path d="M9.7,15.4 C10.8,15.1 10.8,14.6 10.7,14.3 L6.4,1.8 C6.4,1.7 6.5,5.2 7.1,7.5 C8.1,11.5 9.3,15.5 9.7,15.4 Z" id="Path" fill="#195C82"></path>
                </g>
            </g>
            <g id="Group" transform="translate(1072.000000, 668.000000)" fill-rule="nonzero">
                <g opacity="0.1" transform="translate(9.000000, 37.000000)" fill="#000000" id="Path">
                    <path d="M0.9,0.2 L0.2,0.3 C-1.13686838e-13,0.3 0.1,0.5 0.4,0.6 L6.6,3.6 C6.9,3.7 7.3,3.8 7.4,3.8 L8.1,3.7 C8.3,3.7 8.2,3.5 7.9,3.4 L1.7,0.4 C1.5,0.3 1.1,0.2 0.9,0.2 Z"></path>
                    <g transform="translate(1.000000, 2.000000)">
                        <path d="M31.6,13.7 L1.7,3.7 C0.9,3.4 0.4,3.1 0.6,2.9 C0.8,2.5 1.9,1.8 5.5,1.1 C9.2,0.4 11.6,0.4 13,0.5 C13.7,0.6 14.6,0.9 15,1.2 L32.3,13.6 C32.7,13.8 32.2,13.9 31.6,13.7 Z"></path>
                    </g>
                </g>
                <g>
                    <g transform="translate(9.000000, 29.000000)">
                        <path d="M1.6,8.6 L0.7,8.6 C0.4,8.6 0.2,8.4 0.2,8.1 L0.2,1 C0.2,0.7 0.4,0.5 0.7,0.5 L1.6,0.5 C1.9,0.5 2.1,0.7 2.1,1 L2.1,8.1 C2.1,8.4 1.9,8.6 1.6,8.6 Z" id="Path" fill="#25739E"></path>
                        <path d="M1.6,8.8 L0.7,8.8 C0.3,8.8 0.1,8.5 0.1,8.2 L0.1,1 C0.1,0.6 0.4,0.4 0.7,0.4 L1.6,0.4 C2,0.4 2.2,0.7 2.2,1 L2.2,8.1 C2.2,8.5 1.9,8.8 1.6,8.8 Z M0.7,0.6 C0.5,0.6 0.3,0.8 0.3,1 L0.3,8.1 C0.3,8.3 0.5,8.5 0.7,8.5 L1.6,8.5 C1.8,8.5 2,8.3 2,8.1 L2,1 C2,0.8 1.8,0.6 1.6,0.6 L0.7,0.6 Z" id="Shape" fill="#000000"></path>
                    </g>
                    <g>
                        <path d="M9.6,1.4 L0.5,27.8 C0.3,28.5 0.5,29.2 1.2,29.6 C2.4,30.2 4.9,31 10.2,31 C15.5,31 18.1,30.2 19.2,29.6 C19.8,29.3 20.1,28.5 19.9,27.8 L10.8,1.4 C10.5,0.9 9.8,0.9 9.6,1.4 Z" id="Path" fill="#2980B9"></path>
                        <path d="M10.2,1 C10.4,1 10.7,1.1 10.8,1.4 L19.9,27.8 C20.1,28.5 19.9,29.2 19.2,29.6 C18,30.2 15.5,31 10.2,31 C4.9,31 2.3,30.2 1.2,29.6 C0.6,29.3 0.3,28.5 0.5,27.8 L9.6,1.4 C9.7,1.2 9.9,1 10.2,1 M10.2,0.8 C9.8,0.8 9.5,1 9.4,1.4 L0.3,27.8 C1.14269705e-13,28.6 0.3,29.5 1.1,29.9 C2.3,30.6 4.9,31.4 10.3,31.4 C15.7,31.4 18.2,30.6 19.5,29.9 C20.2,29.5 20.6,28.6 20.3,27.8 L11,1.3 C10.8,1 10.5,0.8 10.2,0.8 L10.2,0.8 Z" id="Shape" fill="#000000"></path>
                    </g>
                    <path d="M17.9,30.2 C20.1,29.5 20.1,28.5 19.9,27.9 L11,2.2 C10.9,2 11.1,9.2 12.4,13.9 C14.5,22.1 17.1,30.4 17.9,30.2 Z" id="Path" fill="#195C82"></path>
                </g>
            </g>
            <g id="Group" transform="translate(1047.000000, 681.000000)" fill-rule="nonzero">
                <g opacity="0.1" transform="translate(6.000000, 23.000000)" fill="#000000" id="Path">
                    <path d="M1.1,0.8 L0.7,0.9 C0.6,0.9 0.6,1 0.8,1.1 L4.8,3 C5,3.1 5.2,3.1 5.3,3.1 L5.7,3 C5.8,3 5.8,2.9 5.6,2.8 L1.6,0.9 C1.4,0.8 1.2,0.8 1.1,0.8 Z"></path>
                    <g transform="translate(1.000000, 2.000000)">
                        <path d="M20.4,8.7 L1.2,2.3 C0.7,2.1 0.4,1.9 0.5,1.8 C0.7,1.5 1.3,1.1 3.7,0.7 C6.1,0.3 7.6,0.3 8.5,0.3 C9,0.3 9.5,0.5 9.8,0.7 L20.9,8.6 C21.1,8.8 20.7,8.8 20.4,8.7 Z"></path>
                    </g>
                </g>
                <g>
                    <g transform="translate(6.000000, 18.000000)">
                        <path d="M1.5,6 L1,6 C0.8,6 0.7,5.8 0.7,5.7 L0.7,1.2 C0.7,1 0.9,0.9 1,0.9 L1.5,0.9 C1.7,0.9 1.8,1.1 1.8,1.2 L1.8,5.7 C1.8,5.9 1.7,6 1.5,6 Z" id="Path" fill="#25739E"></path>
                        <path d="M1.5,6.1 L1,6.1 C0.7,6.1 0.5,5.9 0.5,5.6 L0.5,1.1 C0.5,0.8 0.7,0.6 1,0.6 L1.5,0.6 C1.8,0.6 2,0.8 2,1.1 L2,5.6 C1.9,5.9 1.7,6.1 1.5,6.1 Z M0.9,0.9 C0.8,0.9 0.7,1 0.7,1.1 L0.7,5.6 C0.7,5.7 0.8,5.8 0.9,5.8 L1.4,5.8 C1.5,5.8 1.6,5.7 1.6,5.6 L1.6,1.1 C1.6,1 1.5,0.9 1.4,0.9 L0.9,0.9 Z" id="Shape" fill="#000000"></path>
                    </g>
                    <g>
                        <path d="M6.9,0.8 L1,17.7 C0.8,18.1 1,18.6 1.4,18.8 C2.2,19.2 3.8,19.7 7.2,19.7 C10.6,19.7 12.2,19.2 13,18.8 C13.4,18.6 13.6,18.1 13.4,17.7 L7.5,0.8 C7.5,0.5 7,0.5 6.9,0.8 Z" id="Path" fill="#2980B9"></path>
                        <path d="M7.2,0.6 C7.3,0.6 7.5,0.7 7.6,0.9 L13.5,17.8 C13.7,18.2 13.5,18.7 13.1,18.9 C12.3,19.3 10.7,19.8 7.3,19.8 C3.9,19.8 2.3,19.3 1.5,18.9 C1.1,18.7 0.9,18.2 1.1,17.8 L7,0.9 C6.9,0.6 7.1,0.6 7.2,0.6 M7.2,0.3 C6.9,0.3 6.7,0.5 6.6,0.7 L0.7,17.6 C0.5,18.2 0.7,18.8 1.2,19 C2,19.4 3.7,19.9 7.1,19.9 C10.5,19.9 12.2,19.4 13,19 C13.5,18.7 13.7,18.1 13.5,17.6 L7.6,0.7 C7.7,0.5 7.5,0.3 7.2,0.3 L7.2,0.3 Z" id="Shape" fill="#000000"></path>
                    </g>
                    <path d="M12.2,19.2 C13.6,18.8 13.6,18.1 13.5,17.7 L7.8,1.3 C7.8,1.2 7.9,5.8 8.7,8.8 C10,14.1 11.6,19.4 12.2,19.2 Z" id="Path" fill="#195C82"></path>
                </g>
            </g>
            <g id="Group" transform="translate(1111.000000, 673.000000)" fill-rule="nonzero">
                <g opacity="0.1" transform="translate(6.000000, 23.000000)" fill="#000000" id="Path">
                    <path d="M1.3,0.7 L0.9,0.8 C0.8,0.8 0.8,0.9 1,1 L5,2.9 C5.2,3 5.4,3 5.5,3 L5.9,2.9 C6,2.9 6,2.8 5.8,2.7 L1.8,0.8 C1.7,0.7 1.5,0.7 1.3,0.7 Z"></path>
                    <g transform="translate(1.000000, 2.000000)">
                        <path d="M20.6,8.6 L1.4,2.2 C0.9,2 0.6,1.8 0.7,1.7 C0.9,1.4 1.5,1 3.9,0.6 C6.3,0.2 7.8,0.2 8.7,0.2 C9.2,0.2 9.7,0.4 10,0.6 L21.1,8.5 C21.3,8.7 21,8.7 20.6,8.6 Z"></path>
                    </g>
                </g>
                <g>
                    <g transform="translate(6.000000, 18.000000)">
                        <path d="M1.8,5.9 L1.3,5.9 C1.1,5.9 1,5.7 1,5.6 L1,1.1 C1,0.9 1.2,0.8 1.3,0.8 L1.8,0.8 C2,0.8 2.1,1 2.1,1.1 L2.1,5.6 C2.1,5.8 1.9,5.9 1.8,5.9 Z" id="Path" fill="#25739E"></path>
                        <path d="M1.8,6.1 L1.3,6.1 C1,6.1 0.8,5.9 0.8,5.6 L0.8,1.1 C0.8,0.8 1,0.6 1.3,0.6 L1.8,0.6 C2.1,0.6 2.3,0.8 2.3,1.1 L2.3,5.6 C2.2,5.8 2,6.1 1.8,6.1 Z M1.2,0.8 C1.1,0.8 1,0.9 1,1 L1,5.5 C1,5.6 1.1,5.7 1.2,5.7 L1.7,5.7 C1.8,5.7 1.9,5.6 1.9,5.5 L1.9,1 C1.9,0.9 1.8,0.8 1.7,0.8 L1.2,0.8 Z" id="Shape" fill="#000000"></path>
                    </g>
                    <g>
                        <path d="M7.1,0.7 L1.2,17.6 C1,18 1.2,18.5 1.6,18.7 C2.4,19.1 4,19.6 7.4,19.6 C10.8,19.6 12.4,19.1 13.2,18.7 C13.6,18.5 13.8,18 13.6,17.6 L7.7,0.7 C7.7,0.4 7.2,0.4 7.1,0.7 Z" id="Path" fill="#2980B9"></path>
                        <path d="M7.5,0.5 C7.6,0.5 7.8,0.6 7.9,0.8 L13.8,17.7 C14,18.1 13.8,18.6 13.4,18.8 C12.6,19.2 11,19.7 7.6,19.7 C4.2,19.7 2.6,19.2 1.8,18.8 C1.4,18.6 1.2,18.1 1.4,17.7 L7.3,0.8 C7.2,0.5 7.3,0.5 7.5,0.5 M7.5,0.2 C7.2,0.2 7,0.4 6.9,0.6 L1,17.6 C0.8,18.2 1,18.8 1.5,19 C2.3,19.4 4,19.9 7.4,19.9 C10.8,19.9 12.5,19.4 13.3,19 C13.8,18.7 14,18.1 13.8,17.6 L7.9,0.7 C8,0.4 7.8,0.2 7.5,0.2 L7.5,0.2 Z" id="Shape" fill="#000000"></path>
                    </g>
                    <path d="M12.4,19.1 C13.8,18.7 13.8,18 13.7,17.6 L8,1.2 C8,1.1 8.1,5.7 8.9,8.7 C10.3,14 11.9,19.3 12.4,19.1 Z" id="Path" fill="#195C82"></path>
                </g>
            </g>
            <g id="Group" transform="translate(940.000000, 701.000000)" fill-rule="nonzero">
                <g opacity="0.1" transform="translate(7.000000, 26.000000)" fill="#000000" id="Path">
                    <path d="M0.9,0.7 L0.4,0.8 C0.3,0.8 0.3,0.9 0.5,1 L5,3.2 C5.2,3.3 5.5,3.4 5.6,3.3 L6.1,3.2 C6.2,3.2 6.2,3.1 6,3 L1.5,0.8 C1.3,0.8 1.1,0.7 0.9,0.7 Z"></path>
                    <g transform="translate(1.000000, 2.000000)">
                        <path d="M23,10 L1.2,2.7 C0.6,2.5 0.3,2.3 0.4,2.1 C0.6,1.8 1.3,1.3 4,0.8 C6.7,0.3 8.4,0.3 9.5,0.4 C10,0.4 10.7,0.7 11,0.9 L23.6,9.9 C23.8,10.1 23.4,10.1 23,10 Z"></path>
                    </g>
                </g>
                <g>
                    <g transform="translate(7.000000, 20.000000)">
                        <path d="M1.4,7 L0.8,7 C0.6,7 0.4,6.8 0.4,6.6 L0.4,1.4 C0.4,1.2 0.6,1 0.8,1 L1.4,1 C1.6,1 1.8,1.2 1.8,1.4 L1.8,6.6 C1.8,6.9 1.6,7 1.4,7 Z" id="Path" fill="#25739E"></path>
                        <path d="M1.4,7.1 L0.8,7.1 C0.5,7.1 0.3,6.9 0.3,6.6 L0.3,1.4 C0.3,1.1 0.5,0.9 0.8,0.9 L1.4,0.9 C1.7,0.9 1.9,1.1 1.9,1.4 L1.9,6.6 C1.9,6.9 1.7,7.1 1.4,7.1 Z M0.8,1.2 C0.7,1.2 0.5,1.3 0.5,1.5 L0.5,6.7 C0.5,6.8 0.6,7 0.8,7 L1.4,7 C1.5,7 1.7,6.9 1.7,6.7 L1.7,1.5 C1.7,1.4 1.6,1.2 1.4,1.2 L0.8,1.2 L0.8,1.2 Z" id="Shape" fill="#000000"></path>
                    </g>
                    <g>
                        <path d="M7.7,0.7 L1,19.9 C0.8,20.4 1,20.9 1.5,21.2 C2.4,21.7 4.2,22.2 8.1,22.2 C12,22.2 13.8,21.6 14.7,21.2 C15.2,21 15.4,20.4 15.2,19.9 L8.5,0.7 C8.4,0.3 7.8,0.3 7.7,0.7 Z" id="Path" fill="#2980B9"></path>
                        <path d="M8.1,0.4 C8.3,0.4 8.4,0.5 8.5,0.7 L15.2,19.9 C15.4,20.4 15.2,20.9 14.7,21.2 C13.8,21.7 12,22.2 8.1,22.2 C4.2,22.2 2.4,21.6 1.5,21.2 C1,21 0.8,20.4 1,19.9 L7.7,0.7 C7.7,0.5 7.9,0.4 8.1,0.4 M8.1,0.1 C7.8,0.1 7.6,0.3 7.5,0.6 L0.8,19.8 C0.6,20.4 0.8,21.1 1.4,21.4 C2.3,21.9 4.2,22.5 8.1,22.5 C12,22.5 13.9,21.9 14.8,21.4 C15.4,21.1 15.6,20.4 15.4,19.8 L8.7,0.6 C8.6,0.3 8.4,0.1 8.1,0.1 L8.1,0.1 Z" id="Shape" fill="#000000"></path>
                    </g>
                    <path d="M13.7,21.6 C15.3,21.1 15.3,20.4 15.2,19.9 L8.7,1.3 C8.7,1.2 8.8,6.4 9.7,9.8 C11.3,15.7 13.1,21.8 13.7,21.6 Z" id="Path" fill="#195C82"></path>
                </g>
            </g>
            <g id="Group" opacity="0.1" transform="translate(765.000000, 667.000000)" fill="#000000" fill-rule="nonzero">
                <polygon id="Path" points="1.2 0 28.7 16.3 27.7 16.9 0.6 0.9"></polygon>
            </g>
            <g id="Group" opacity="0.1" transform="translate(1347.000000, 709.000000)" fill="#000000" fill-rule="nonzero">
                <polygon id="Path" points="0.9 0.9 28.2 17 27.1 17.6 0.3 1.8"></polygon>
            </g>
            <path d="M517,607.7 C532.3,599.8 554.3,592.5 578.6,608.7 L667.5,660.5 C683.3,669.6 702.9,669.6 718.7,660.5 L718.7,660.5 C755.4,639.3 800.6,639.3 837.3,660.5 L863.2,675.5 C908.6,701.7 964.6,701.7 1010.1,675.5 L1018.8,670.5 C1065.6,643.5 1123.2,643.5 1170,670.5 L1242.6,712.4 C1279.3,733.6 1324.5,733.6 1361.2,712.4 L1380.3,701.4 C1414.3,681.7 1456.3,681.7 1490.3,701.4 L1514,715.1 C1527.9,723.1 1527.9,743.1 1514,751.1 L1511.8,752.4 C1505.1,756.3 1505.1,766 1511.8,769.9 L1515.8,772.2 C1534.2,782.8 1556.8,782.8 1575.2,772.2 L1575.2,786.2 C1555.5,796.2 1532,795.6 1512.7,784.4 L1502.1,778.3 C1488.9,770.7 1488.9,751.6 1502.1,744 L1504,742.9 C1511.5,738.6 1511.5,727.7 1504,723.4 L1482.3,710.9 C1453.3,694.2 1417.6,694.2 1388.6,710.9 L1361.2,726.7 C1324.6,747.8 1279.5,747.8 1242.9,726.7 L1163.3,680.7 C1120.7,656.1 1068.3,655.9 1025.6,680.2 L1015.2,686.2 C966.7,714.5 906.8,714.7 858.2,686.6 L830.3,670.5 C798,651.9 758.3,651.9 726.1,670.7 L726.1,670.7 C706,682.4 681.1,682.5 661,670.8 L567.4,616.2 C551.1,605.9 535.7,610.8 517,621.6 L517,607.7 Z" id="Path" fill="url(#linearGradient-1)" fill-rule="nonzero" opacity="0.1"></path>
            <g id="Group" transform="translate(760.000000, 634.000000)" fill-rule="nonzero">
                <g transform="translate(5.000000, 7.000000)">
                    <polygon id="Path" fill="#2980B9" points="0.8 26.9 0.8 1 1.9 1.6 1.9 26.9"></polygon>
                    <path d="M2,27 L0.7,27 L0.7,0.8 L2,1.6 L2,27 Z M0.9,26.7 L1.7,26.7 L1.7,1.7 L0.9,1.2 L0.9,26.7 Z" id="Shape" fill="#000000"></path>
                </g>
                <g>
                    <path d="M11.6,10 C11.6,13.4 9.2,14.7 6.3,13 C3.4,11.3 1,7.2 1,3.9 C1,0.6 3.4,-0.8 6.3,0.9 C9.2,2.6 11.6,6.7 11.6,10 Z" id="Path" fill="#2980B9"></path>
                    <path d="M8.7,13.9 C8,13.9 7.1,13.7 6.3,13.2 C3.3,11.5 0.9,7.4 0.9,4 C0.9,2.3 1.5,1.1 2.5,0.5 C3.5,-0.1 4.9,-3.46944695e-16 6.4,0.9 C9.4,2.6 11.8,6.7 11.8,10.1 C11.8,11.8 11.2,13 10.2,13.6 C9.7,13.8 9.2,13.9 8.7,13.9 Z M4,0.3 C3.5,0.3 3.1,0.4 2.7,0.6 C1.7,1.1 1.2,2.3 1.2,3.9 C1.2,7.2 3.5,11.3 6.4,12.9 C7.8,13.7 9.1,13.8 10,13.3 C11,12.8 11.5,11.6 11.5,10 C11.5,6.7 9.2,2.6 6.3,1 C5.4,0.5 4.7,0.3 4,0.3 Z" id="Shape" fill="#000000"></path>
                </g>
            </g>
            <g id="Group" transform="translate(1341.000000, 677.000000)" fill-rule="nonzero">
                <g transform="translate(6.000000, 7.000000)">
                    <polygon id="Path" fill="#2980B9" points="0.3 26.8 0.3 1 1.4 1.6 1.4 26.8"></polygon>
                    <path d="M1.5,27 L0.2,27 L0.2,0.8 L1.5,1.6 L1.5,27 Z M0.4,26.7 L1.2,26.7 L1.2,1.7 L0.4,1.2 L0.4,26.7 Z" id="Shape" fill="#000000"></path>
                </g>
                <g>
                    <polygon id="Path" fill="#2980B9" points="6.8 0.8 0.6 9.6 13.1 16.8"></polygon>
                    <path d="M13.3,17.1 L0.4,9.7 L0.5,9.6 L6.9,0.6 L7,0.8 L13.3,17.1 Z M0.8,9.5 L12.8,16.4 L6.8,1 L0.8,9.5 Z" id="Shape" fill="#000000"></path>
                </g>
            </g>
            <path d="M1242.3,720.8 L1169.7,678.9 C1123.7,652.3 1066.5,652.3 1020.5,678.9 L1011.8,683.9 C965.9,710.4 908.8,710.4 862.9,683.9 L837,668.9 L839,665.4 L864.9,680.4 C909.6,706.2 965.1,706.2 1009.8,680.4 L1018.5,675.4 C1065.7,648.1 1124.4,648.1 1171.7,675.4 L1244.3,717.3 L1242.3,720.8 Z" id="Path" fill="url(#linearGradient-2)" fill-rule="nonzero"></path>
            <g id="Group" transform="translate(1224.000000, 698.000000)">
                <g transform="translate(1.000000, 13.000000)" fill-rule="nonzero">
                    <polygon id="Path" fill="#1A4C68" points="0.5 5.5 1.6 5 4.4 1.9 2.4 0.9 0.8 2.3 0.3 4.6"></polygon>
                    <path d="M0.5,5.6 C0.5,5.6 0.4,5.6 0.5,5.6 C0.4,5.6 0.4,5.5 0.5,5.6 L0.2,4.6 C0.2,4.6 0.2,4.6 0.2,4.5 L0.7,2.2 C0.7,2.2 0.7,2.2 0.7,2.1 L2.4,0.7 L2.5,0.7 L4.5,1.7 L4.6,1.8 L4.6,1.9 L1.8,5 L1.8,5 L0.5,5.6 L0.5,5.6 Z M0.4,4.6 L0.6,5.3 L1.5,4.8 L4.2,1.9 L2.5,1 L0.9,2.4 L0.4,4.6 Z" id="Shape" fill="#000000"></path>
                </g>
                <g transform="translate(3.000000, 14.000000)" fill="#000000" fill-rule="nonzero" id="Path">
                    <polyline points="1.9 7.9 3.7 7 4.4 2.8 3.3 1 2.3 0.7 0.8 1"></polyline>
                    <path d="M1.9,8 C1.9,8 1.8,8 1.9,8 C1.8,7.8 1.8,7.8 1.9,7.7 L3.7,6.8 L4.4,2.7 L3.3,1 L2.3,0.7 L0.9,1 C0.8,1 0.8,1 0.8,0.9 C0.8,0.8 0.8,0.8 0.9,0.8 L2.4,0.5 L3.5,0.8 L3.5,0.8 L4.7,2.7 L4,7 L3.9,7 L1.9,8 L1.9,8 Z"></path>
                </g>
                <g transform="translate(2.000000, 14.000000)" fill-rule="nonzero">
                    <path d="M0.6,4 C0.7,5.8 1.2,7 2.2,7.5 C3.2,8 4.1,6.6 4.1,4.8 C4.1,3.3 3.7,1.9 2.6,1.3 C1.4,0.6 0.5,2.1 0.6,4 Z" id="Path" fill="#0E3951"></path>
                    <path d="M2.6,8.1 C2.4,8.1 2.2,8 1.9,7.9 C0.7,7.3 0.1,6 0,4 L0,4 C0,2.6 0.4,1.4 1.2,0.9 C1.7,0.6 2.2,0.6 2.8,0.9 C3.9,1.5 4.5,2.9 4.5,4.8 C4.5,6.2 4,7.4 3.3,7.9 C3.1,8 2.8,8.1 2.6,8.1 Z M1.1,3.9 C1.2,5.6 1.6,6.6 2.4,7 C2.6,7.1 2.7,7.1 2.8,7 C3.2,6.8 3.6,5.9 3.6,4.8 C3.6,3.3 3.1,2.2 2.4,1.8 C2.1,1.6 2,1.7 1.8,1.8 C1.4,2 1,2.8 1.1,3.9 L1.1,3.9 Z" id="Shape" fill="#000000"></path>
                </g>
                <g transform="translate(17.000000, 23.000000)" fill-rule="nonzero">
                    <polygon id="Path" fill="#1A4C68" points="0.8 4.9 1.9 4.4 4.7 1.3 2.8 0.3 1.1 1.7 0.6 4"></polygon>
                    <path d="M0.8,5.1 L0.8,5.1 C0.7,5.1 0.7,5 0.8,5.1 L0.5,4.1 C0.5,4.1 0.5,4.1 0.5,4 L1,1.7 C1,1.7 1,1.7 1,1.6 L2.7,0.2 L2.8,0.2 L4.8,1.2 L4.9,1.3 L4.9,1.4 L2.1,4.5 L2.1,4.5 L0.8,5.1 L0.8,5.1 Z M0.7,4 L0.9,4.7 L1.8,4.2 L4.5,1.3 L2.8,0.4 L1.2,1.8 L0.7,4 Z" id="Shape" fill="#000000"></path>
                </g>
                <g transform="translate(20.000000, 24.000000)" fill="#000000" fill-rule="nonzero" id="Path">
                    <polyline points="1.4 7.3 3 6.5 3.8 2.3 2.6 0.5 1.6 0.2 0.1 0.4"></polyline>
                    <path d="M1.4,7.4 C1.4,7.4 1.3,7.4 1.3,7.3 C1.3,7.2 1.3,7.2 1.4,7.1 L3,6.3 L3.7,2.2 L2.6,0.5 L1.6,0.2 L0.2,0.5 C0.1,0.5 0.1,0.5 0.1,0.4 C0.1,0.3 0.1,0.3 0.2,0.3 L1.7,2.84217094e-14 L1.7,2.84217094e-14 L2.8,0.3 L2.8,0.3 L4,2.2 L3.3,6.5 L1.4,7.4 C1.5,7.4 1.5,7.4 1.4,7.4 Z"></path>
                </g>
                <g transform="translate(6.000000, 0.000000)" fill-rule="nonzero">
                    <path d="M31,24.9 L31,21.1 C31,19.1 29.9,17.2 28.2,16.2 L24.9,14.3 L23,6 L12.7,0.2 L0.5,7.3 L10.8,13.1 L12.7,21.4 L16,23.3 C17.7,24.3 18.8,26.2 18.8,28.2 L18.8,32 L31,24.9 Z" id="Path" fill="#21719E"></path>
                    <path d="M18.8,32.1 C18.8,32.1 18.7,32.1 18.8,32.1 C18.7,32.1 18.7,32 18.7,32 L18.7,28.2 C18.7,26.2 17.6,24.4 15.9,23.4 L12.6,21.5 C12.6,21.5 12.5,21.5 12.5,21.4 L10.6,13.2 L0.3,7.4 L0.2,7.3 C0.2,7.3 0.2,7.2 0.3,7.2 L12.5,0.1 L12.6,0.1 L22.9,5.9 C22.9,5.9 23,5.9 23,6 L24.9,14.2 L28.2,16.1 C30,17.1 31.1,19 31.1,21.1 L31.1,24.9 C31.1,24.9 31.1,25 31,25 L18.8,32.1 L18.8,32.1 Z M12.8,21.3 L16.1,23.2 C17.9,24.2 19,26.1 19,28.2 L19,31.8 L31,24.9 L31,21.2 C31,19.2 29.9,17.4 28.2,16.4 L24.9,14.5 C24.9,14.5 24.8,14.5 24.8,14.4 L22.9,6.2 L12.7,0.4 L0.7,7.3 L10.9,13 C10.9,13 11,13 11,13.1 L12.8,21.3 Z" id="Shape" fill="#000000"></path>
                </g>
                <g transform="translate(18.000000, 14.000000)">
                    <line x1="12.9" y1="0.3" x2="0.7" y2="7.4" id="Path"></line>
                    <rect id="Rectangle" fill="#000000" fill-rule="nonzero" transform="translate(6.714400, 3.839630) rotate(-29.967323) translate(-6.714400, -3.839630) " x="-0.335515188" y="3.6896318" width="14.0998304" height="1"></rect>
                </g>
                <g transform="translate(16.000000, 5.000000)">
                    <line x1="13" y1="1" x2="0.8" y2="8.1" id="Path"></line>
                    <rect id="Rectangle" fill="#000000" fill-rule="nonzero" transform="translate(6.814980, 4.537890) rotate(-29.967323) translate(-6.814980, -4.537890) " x="-0.234935188" y="4.3878918" width="14.0998304" height="1"></rect>
                </g>
                <g transform="translate(1.000000, 0.000000)" fill-rule="nonzero">
                    <path d="M17.7,0.2 L14,0.3 C13.4,0.3 12.9,0.5 12.4,0.7 L0.6,7.3 L5.4,7.2 L17.7,0.2 Z" id="Path" fill="#4AA6CE"></path>
                    <path d="M0.6,7.5 C0.5,7.5 0.5,7.5 0.6,7.5 C0.5,7.3 0.5,7.3 0.6,7.3 L12.4,0.7 C12.9,0.4 13.5,0.3 14.1,0.2 L17.8,0.1 L17.8,0.1 C17.9,0.1 17.9,0.1 17.9,0.2 C17.9,0.3 17.9,0.3 17.8,0.3 L5.6,7.4 C5.6,7.4 5.6,7.4 5.5,7.4 L0.6,7.5 L0.6,7.5 Z M17.2,0.3 L14,0.4 C13.4,0.4 12.9,0.6 12.4,0.8 L1,7.2 L5.3,7.1 L17.2,0.3 Z" id="Shape" fill="#000000"></path>
                </g>
                <g transform="translate(0.000000, 6.000000)" fill-rule="nonzero">
                    <path d="M24.8,26 C24.8,26 23.6,25.3 23,24.9 C24,20.1 22,18.6 21,18.1 C20,17.6 18.3,18 17.8,21.9 C17.4,21.6 11.2,18.1 6.5,15.4 C7.4,11.6 6.4,9.5 5.1,8.7 C3.8,8 1.7,8.7 1.4,12.4 C1,12.2 0.2,11.7 0.2,11.7 L0.2,3.3 C0.2,1.9 1.4,0.8 2.8,0.9 L6.4,1.1 L16.7,6.9 L18.6,15.2 L21.9,17.1 C23.6,18.1 24.7,20 24.7,22 L24.7,26 L24.8,26 Z" id="Path" fill="#2980B9"></path>
                    <path d="M24.8,26.1 C24.8,26.1 24.7,26.1 24.8,26.1 L22.9,25 L22.8,24.9 C23.7,20.2 21.8,18.7 20.9,18.3 C20.5,18.1 20,18.1 19.5,18.4 C18.9,18.7 18.2,19.6 17.9,22 C17.9,22 17.9,22.1 17.8,22.1 L17.7,22.1 L6.4,15.6 L6.3,15.5 C7.2,11.8 6.2,9.7 5,9 C4.5,8.7 3.8,8.7 3.2,9 C2.6,9.3 1.7,10.2 1.5,12.6 C1.5,12.6 1.5,12.7 1.4,12.7 C1.3,12.7 1.3,12.7 1.3,12.7 C0.9,12.5 0.1,12 0.1,12 L-1.13686838e-13,11.9 L-1.13686838e-13,3.5 C-1.13686838e-13,2.8 0.3,2.1 0.8,1.6 C1.3,1.1 2,0.9 2.7,0.9 L6.3,1.1 C6.3,1.1 6.3,1.1 6.4,1.1 L16.7,6.9 C16.7,6.9 16.8,6.9 16.8,7 L18.7,15.2 L22,17.1 C23.8,18.1 24.9,20 24.9,22.1 L24.9,25.9 C24.9,26 24.9,26 24.8,26.1 L24.8,26.1 Z M23.1,24.8 L24.7,25.7 L24.7,22.1 C24.7,20.1 23.6,18.3 21.9,17.3 L18.6,15.4 C18.6,15.4 18.5,15.4 18.5,15.3 L16.6,7.1 L6.3,1.3 L2.8,1.1 C2.2,1.1 1.6,1.3 1.1,1.7 C0.6,2.1 0.4,2.7 0.4,3.4 L0.4,11.7 C0.6,11.8 1,12 1.3,12.2 C1.5,9.8 2.5,8.9 3.1,8.6 C3.7,8.2 4.5,8.3 5.1,8.6 C6.4,9.4 7.5,11.5 6.6,15.3 L17.6,21.7 C17.9,19.4 18.7,18.4 19.3,18.1 C19.8,17.8 20.4,17.8 20.9,18 C22,18.5 24,20 23.1,24.8 Z" id="Shape" fill="#000000"></path>
                </g>
                <g transform="translate(18.000000, 24.000000)" fill-rule="nonzero">
                    <path d="M0.9,3.4 C1,5.2 1.5,6.4 2.5,6.9 C3.5,7.4 4.4,6 4.4,4.2 C4.4,2.7 4,1.3 2.9,0.7 C1.7,0.1 0.8,1.6 0.9,3.4 Z" id="Path" fill="#0E3951"></path>
                    <path d="M2.9,7.5 C2.7,7.5 2.5,7.4 2.2,7.3 C1,6.7 0.4,5.4 0.3,3.4 C0.3,2 0.7,0.8 1.5,0.3 C2,1.42247325e-14 2.5,1.42247325e-14 3.1,0.3 C4.2,0.9 4.8,2.3 4.8,4.2 C4.8,5.6 4.3,6.8 3.6,7.3 C3.4,7.4 3.2,7.5 2.9,7.5 Z M2.3,1.1 C2.2,1.1 2.1,1.1 2.1,1.2 C1.7,1.4 1.3,2.3 1.4,3.4 C1.5,5.1 1.9,6.1 2.7,6.5 C2.9,6.6 3,6.6 3.1,6.5 C3.5,6.3 3.9,5.4 3.9,4.3 C3.9,2.8 3.4,1.7 2.7,1.3 C2.5,1.1 2.4,1.1 2.3,1.1 Z" id="Shape" fill="#000000"></path>
                </g>
                <g transform="translate(12.000000, 11.000000)" fill-rule="nonzero">
                    <polygon id="Path" fill="#FFFFFF" points="4.2 2.7 5.9 9.9 0.2 6.6 0.2 0.4"></polygon>
                    <path d="M5.9,10.1 L5.9,10.1 L0.1,6.7 L0,6.6 L0,0.4 C0,0.4 0,0.3 0.1,0.3 L0.2,0.3 L4.2,2.6 C4.2,2.6 4.3,2.6 4.3,2.7 L6,9.9 C6.1,10 6,10 5.9,10.1 C6,10.1 6,10.1 5.9,10.1 Z M0.4,6.5 L5.8,9.7 L4.2,2.8 L0.4,0.6 L0.4,6.5 L0.4,6.5 Z" id="Shape" fill="#000000"></path>
                </g>
                <g transform="translate(5.000000, 7.000000)" fill-rule="nonzero">
                    <polygon id="Path" fill="#FFFFFF" points="6.4 3.9 6.4 10.1 0.7 6.7 0.7 0.9 1.5 1"></polygon>
                    <path d="M6.4,10.2 L6.4,10.2 L0.6,6.8 L0.5,6.7 L0.5,0.9 L0.5,0.8 L0.6,0.8 L1.4,0.9 L1.4,0.9 L6.3,3.7 L6.4,3.8 L6.4,10 C6.5,10.1 6.5,10.2 6.4,10.2 L6.4,10.2 Z M0.8,6.6 L6.3,9.8 L6.3,3.9 L1.5,1.1 L0.9,1 L0.9,6.6 L0.8,6.6 Z" id="Shape" fill="#000000"></path>
                </g>
                <g transform="translate(0.000000, 7.000000)" fill-rule="nonzero">
                    <path d="M4.9,0.8 L4.9,6.4 L0.8,4 C0.8,4 0.7,2.2 1,1.7 C1.4,0.9 2.3,0.6 2.3,0.6 L4.9,0.8 Z" id="Path" fill="#FFFFFF"></path>
                    <path d="M4.9,6.5 L4.9,6.5 L0.8,4.1 L0.7,4 C0.7,3.9 0.7,2.2 0.9,1.6 C1.3,0.7 2.3,0.5 2.3,0.5 L2.3,0.5 L4.8,0.7 C4.9,0.7 4.9,0.8 4.9,0.8 L4.9,6.4 C5.1,6.5 5,6.5 4.9,6.5 C5,6.5 5,6.5 4.9,6.5 Z M1,4 L4.8,6.2 L4.8,1 L2.4,0.8 C2.3,0.8 1.5,1.1 1.2,1.8 C1,2.1 1,3.4 1,4 Z" id="Shape" fill="#000000"></path>
                </g>
                <g transform="translate(17.000000, 6.000000)" fill-rule="nonzero">
                    <polygon id="Path" fill="#FFFFFF" points="11.7 1 13.3 8.1 2.2 14.6 0.4 7.5"></polygon>
                    <path d="M2.2,14.7 C2.2,14.7 2.1,14.7 2.2,14.7 C2.1,14.7 2.1,14.6 2.2,14.7 L0.3,7.5 C0.3,7.4 0.3,7.4 0.4,7.4 L11.7,0.9 L11.8,0.9 C11.8,0.9 11.9,0.9 11.9,1 L13.6,8.1 C13.6,8.2 13.6,8.2 13.5,8.2 L2.2,14.7 L2.2,14.7 Z M0.5,7.6 L2.2,14.4 L13.1,8.1 L11.5,1.3 L0.5,7.6 Z" id="Shape" fill="#000000"></path>
                </g>
                <g transform="translate(34.000000, 21.000000)" fill-rule="nonzero">
                    <ellipse id="Oval" fill="#FFFFFF" cx="1.3" cy="2.1" rx="1" ry="1.1"></ellipse>
                    <path d="M1.3,3.4 C0.8,3.4 0.4,2.8 0.4,2.1 C0.4,1.4 0.8,0.8 1.3,0.8 C1.8,0.8 2.2,1.4 2.2,2.1 C2.2,2.8 1.8,3.4 1.3,3.4 Z M1.3,1.1 C1,1.1 0.7,1.6 0.7,2.1 C0.7,2.6 1,3.1 1.3,3.1 C1.6,3.1 1.9,2.6 1.9,2.1 C1.9,1.6 1.6,1.1 1.3,1.1 Z" id="Shape" fill="#000000"></path>
                </g>
                <g transform="translate(26.000000, 26.000000)" fill-rule="nonzero">
                    <ellipse id="Oval" fill="#FFFFFF" cx="0.9" cy="2.2" rx="1" ry="1.1"></ellipse>
                    <path d="M0.9,3.4 C0.4,3.4 0,2.8 0,2.1 C0,1.4 0.4,0.8 0.9,0.8 C1.4,0.8 1.8,1.4 1.8,2.1 C1.8,2.8 1.4,3.4 0.9,3.4 Z M0.9,1.1 C0.6,1.1 0.3,1.6 0.3,2.1 C0.3,2.6 0.6,3.1 0.9,3.1 C1.2,3.1 1.5,2.6 1.5,2.1 C1.5,1.6 1.2,1.1 0.9,1.1 Z" id="Shape" fill="#000000"></path>
                </g>
                <path d="M25.9,16.5 C25.8,16.5 25.8,16.5 25.9,16.5 C25.8,16.4 25.8,16.3 25.8,16.3 C25.8,16.3 26.7,15.3 28.1,14.8 C29.5,14.3 30.8,14.9 30.8,14.9 C30.9,14.9 30.9,15 30.9,15.1 C30.9,15.2 30.8,15.2 30.7,15.2 C30.7,15.2 29.5,14.7 28.2,15.1 C26.9,15.5 26,16.4 25.9,16.5 L25.9,16.5 Z" id="Path" fill="#000000" fill-rule="nonzero"></path>
                <path d="M20.4,19.7 C20.4,19.7 20.4,19.6 20.4,19.7 C20.3,19.6 20.3,19.5 20.3,19.5 C20.3,19.5 21.2,18.5 22.6,18 C24,17.5 25.3,18.1 25.3,18.1 C25.4,18.1 25.4,18.2 25.4,18.3 C25.4,18.4 25.3,18.4 25.2,18.4 C25.2,18.4 24,17.9 22.7,18.3 C21.4,18.7 20.5,19.6 20.4,19.7 C20.5,19.6 20.5,19.7 20.4,19.7 Z" id="Path" fill="#000000" fill-rule="nonzero"></path>
                <path d="M19.8,27.6 C19.8,28.4 20.1,29 20.5,29.2 C21,29.4 21.4,28.8 21.4,28 C21.4,27.3 21.2,26.7 20.7,26.4 C20.2,26.1 19.8,26.8 19.8,27.6 Z" id="Path" fill="#1B5B7F" fill-rule="nonzero"></path>
                <path d="M3.5,18.2 C3.5,19 3.8,19.6 4.2,19.8 C4.7,20 5.1,19.4 5.1,18.6 C5.1,17.9 4.9,17.3 4.4,17 C3.9,16.7 3.5,17.3 3.5,18.2 Z" id="Path" fill="#1B5B7F" fill-rule="nonzero"></path>
                <g transform="translate(6.000000, 0.000000)" fill-rule="nonzero">
                    <polygon id="Path" fill="#3A99CE" points="23 6 12.7 0.2 0.4 7.2 10.8 13.1"></polygon>
                    <path d="M10.8,13.2 C10.7,13.2 10.7,13.2 10.8,13.2 L0.4,7.4 L0.3,7.3 C0.3,7.3 0.3,7.2 0.4,7.2 L12.6,0.1 L12.7,0.1 L23,5.9 L23.1,6 C23.1,6 23.1,6.1 23,6.1 L10.8,13.2 L10.8,13.2 Z M0.7,7.2 L10.8,12.9 L22.8,6 L12.7,0.3 L0.7,7.2 Z" id="Shape" fill="#000000"></path>
                </g>
            </g>
            <g id="Group-2" transform="translate(1192.000000, 634.000000)" fill="#2980B9" font-family="Helvetica-Bold, Helvetica" font-weight="bold">
                <text id="?" font-size="50">
                    <tspan x="36.2290039" y="49">?</tspan>
                </text>
                <text id="?" transform="translate(74.574954, 36.077000) rotate(25.000000) translate(-74.574954, -36.077000) " font-size="40">
                    <tspan x="62.3581569" y="51.0769997">?</tspan>
                </text>
                <text id="?" transform="translate(27.574954, 36.753189) rotate(-25.000000) translate(-27.574954, -36.753189) " font-size="40">
                    <tspan x="15.3581569" y="51.7531889">?</tspan>
                </text>
            </g>
            <path d="M853.3,704.7 L860.7,700.4 C860.8,700.3 860.9,700.2 860.9,700.1 L860.9,682.5 C860.9,682.4 860.8,682.2 860.7,682.2 L853.3,677.9 C853.2,677.8 853,677.8 852.9,677.9 L845.5,682.2 C845.4,682.3 845.3,682.4 845.3,682.5 L845.3,700 C845.3,700.1 845.4,700.3 845.5,700.3 L852.9,704.6 C853,704.7 853.2,704.7 853.3,704.7 Z" id="Path" stroke="#000000" stroke-width="0.25" fill="#FFCF4A" fill-rule="nonzero"></path>
            <path d="M860.6,682.5 L853.2,686.7 C853.2,686.7 853.1,686.7 853.1,686.7 L845.5,682.4 C845.4,682.3 845.4,682.1 845.5,682.1 L852.9,677.8 C853,677.7 853.2,677.7 853.3,677.8 L860.5,682 C860.7,682.1 860.7,682.4 860.6,682.5 Z" id="Path" stroke="#000000" stroke-width="0.25" fill="#FFE088" fill-rule="nonzero" stroke-linecap="round" stroke-linejoin="round"></path>
            <line x1="853.2" y1="686.7" x2="853.2" y2="704.7" id="Path" stroke="#000000" stroke-width="0.25" fill="#FFFFFF" fill-rule="nonzero" stroke-linecap="round" stroke-linejoin="round"></line>
            <path d="M840.1,712.4 L847.5,708.1 C847.6,708 847.7,707.9 847.7,707.8 L847.7,682.8 C847.7,682.7 847.6,682.5 847.5,682.5 L840.1,678.2 C840,678.1 839.8,678.1 839.7,678.2 L832.3,682.5 C832.2,682.6 832.1,682.7 832.1,682.8 L832.1,707.8 C832.1,707.9 832.2,708.1 832.3,708.1 L839.7,712.4 C839.8,712.4 840,712.4 840.1,712.4 Z" id="Path" stroke="#000000" stroke-width="0.25" fill="#B2CC9E" fill-rule="nonzero"></path>
            <path d="M847.3,682.7 L840,687 C840,687 839.9,687 839.9,687 L832.3,682.7 C832.2,682.6 832.2,682.4 832.3,682.4 L839.7,678.1 C839.8,678 840,678 840.1,678.1 L847.3,682.3 C847.5,682.4 847.5,682.6 847.3,682.7 Z" id="Path" stroke="#000000" stroke-width="0.25" fill="#D1EDBC" fill-rule="nonzero" stroke-linecap="round" stroke-linejoin="round"></path>
            <line x1="839.9" y1="687" x2="839.9" y2="712.4" id="Path" stroke="#000000" stroke-width="0.25" fill="#FFFFFF" fill-rule="nonzero" stroke-linecap="round" stroke-linejoin="round"></line>
            <path d="M826.4,720.1 L833.8,715.8 C833.9,715.7 834,715.6 834,715.5 L834,697.9 C834,697.8 833.9,697.6 833.8,697.6 L826.4,693.3 C826.3,693.2 826.1,693.2 826,693.3 L818.6,697.6 C818.5,697.7 818.4,697.8 818.4,697.9 L818.4,715.5 C818.4,715.6 818.5,715.8 818.6,715.8 L826,720.1 C826.2,720.1 826.3,720.1 826.4,720.1 Z" id="Path" stroke="#000000" stroke-width="0.25" fill="#FFCF4A" fill-rule="nonzero"></path>
            <path d="M833.7,697.9 L826.3,702.1 C826.3,702.1 826.2,702.1 826.2,702.1 L818.6,697.8 C818.5,697.7 818.5,697.5 818.6,697.5 L826,693.2 C826.1,693.1 826.3,693.1 826.4,693.2 L833.6,697.4 C833.9,697.5 833.9,697.8 833.7,697.9 Z" id="Path" stroke="#000000" stroke-width="0.25" fill="#FFE088" fill-rule="nonzero" stroke-linecap="round" stroke-linejoin="round"></path>
            <line x1="826.3" y1="702.1" x2="826.3" y2="720.1" id="Path" stroke="#000000" stroke-width="0.25" fill="#FFFFFF" fill-rule="nonzero" stroke-linecap="round" stroke-linejoin="round"></line>
            <g id="Group" transform="translate(928.000000, 633.000000)" fill-rule="nonzero">
                <g opacity="0.1" transform="translate(10.000000, 37.000000)" fill="#000000" id="Path">
                    <path d="M0.8,0.2 L0.1,0.3 C-0.1,0.3 1.73472348e-18,0.5 0.3,0.6 L6.5,3.6 C6.8,3.7 7.2,3.8 7.3,3.8 L8,3.7 C8.2,3.7 8.1,3.5 7.8,3.4 L1.6,0.4 C1.3,0.3 1,0.2 0.8,0.2 Z"></path>
                    <g transform="translate(1.000000, 2.000000)">
                        <path d="M31.4,13.7 L1.5,3.7 C0.7,3.4 0.2,3.1 0.4,2.9 C0.6,2.5 1.7,1.8 5.3,1.1 C9,0.4 11.4,0.4 12.8,0.5 C13.5,0.6 14.4,0.9 14.8,1.2 L32.1,13.6 C32.5,13.8 32,13.9 31.4,13.7 Z"></path>
                    </g>
                </g>
                <g>
                    <g transform="translate(9.000000, 29.000000)">
                        <path d="M2.4,8.6 L1.5,8.6 C1.2,8.6 1,8.4 1,8.1 L1,1 C1,0.7 1.2,0.5 1.5,0.5 L2.4,0.5 C2.7,0.5 2.9,0.7 2.9,1 L2.9,8.1 C2.9,8.4 2.7,8.6 2.4,8.6 Z" id="Path" fill="#25739E"></path>
                        <path d="M2.4,8.7 L1.5,8.7 C1.1,8.7 0.9,8.4 0.9,8.1 L0.9,1 C0.9,0.6 1.2,0.4 1.5,0.4 L2.4,0.4 C2.8,0.4 3,0.7 3,1 L3,8.1 C3.1,8.4 2.8,8.7 2.4,8.7 Z M1.6,0.6 C1.4,0.6 1.2,0.8 1.2,1 L1.2,8.1 C1.2,8.3 1.4,8.5 1.6,8.5 L2.5,8.5 C2.7,8.5 2.9,8.3 2.9,8.1 L2.9,1 C2.9,0.8 2.7,0.6 2.5,0.6 C2.5,0.6 1.6,0.6 1.6,0.6 Z" id="Shape" fill="#000000"></path>
                    </g>
                    <g>
                        <path d="M10.4,1.4 L1.3,27.8 C1.1,28.5 1.3,29.2 2,29.6 C3.2,30.2 5.7,31 11,31 C16.3,31 18.9,30.2 20,29.6 C20.6,29.3 20.9,28.5 20.7,27.8 L11.6,1.4 C11.4,0.9 10.6,0.9 10.4,1.4 Z" id="Path" fill="#2980B9"></path>
                        <path d="M11,1 C11.2,1 11.5,1.1 11.6,1.4 L20.7,27.8 C20.9,28.5 20.7,29.2 20,29.6 C18.8,30.2 16.3,31 11,31 C5.7,31 3.1,30.2 2,29.6 C1.4,29.3 1.1,28.5 1.3,27.8 L10.4,1.4 C10.5,1.1 10.8,1 11,1 M11,0.7 C10.6,0.7 10.3,0.9 10.2,1.3 L1.1,27.7 C0.8,28.5 1.1,29.4 1.9,29.8 C3.1,30.5 5.7,31.3 11.1,31.3 C16.5,31.3 19,30.5 20.3,29.8 C21,29.4 21.4,28.5 21.1,27.7 L11.8,1.3 C11.7,1 11.4,0.7 11,0.7 L11,0.7 Z" id="Shape" fill="#000000"></path>
                    </g>
                    <path d="M18.7,30.1 C20.9,29.4 20.9,28.4 20.7,27.8 L11.8,2.2 C11.7,2 11.9,9.2 13.2,13.9 C15.4,22.1 17.9,30.4 18.7,30.1 Z" id="Path" fill="#195C82"></path>
                </g>
            </g>
            <g id="Group" transform="translate(956.000000, 624.000000)" fill-rule="nonzero">
                <g opacity="0.1" transform="translate(8.000000, 32.000000)" fill="#000000" id="Path">
                    <path d="M0.8,0.1 L0.2,0.2 C0,0.2 0.1,0.3 0.4,0.5 L5.9,3.1 C6.1,3.2 6.5,3.3 6.6,3.3 L7.2,3.2 C7.4,3.2 7.3,3.1 7,2.9 L1.5,0.3 C1.3,0.1 1,0 0.8,0.1 Z"></path>
                    <g transform="translate(1.000000, 1.000000)">
                        <path d="M27.6,12.6 L1.3,3.8 C0.6,3.6 0.2,3.3 0.3,3.1 C0.5,2.7 1.4,2.1 4.6,1.5 C7.8,0.9 10,0.9 11.2,1 C11.8,1.1 12.6,1.3 13,1.6 L28.2,12.5 C28.6,12.7 28.2,12.8 27.6,12.6 Z"></path>
                    </g>
                </g>
                <g>
                    <g transform="translate(8.000000, 25.000000)">
                        <path d="M1.4,7.4 L0.6,7.4 C0.3,7.4 0.1,7.2 0.1,6.9 L0.1,0.7 C0.1,0.4 0.3,0.2 0.6,0.2 L1.4,0.2 C1.7,0.2 1.9,0.4 1.9,0.7 L1.9,6.9 C1.8,7.2 1.6,7.4 1.4,7.4 Z" id="Path" fill="#25739E"></path>
                        <path d="M1.4,7.5 L0.6,7.5 C0.3,7.5 -5.68434189e-14,7.2 -5.68434189e-14,6.9 L-5.68434189e-14,0.7 C-5.68434189e-14,0.4 0.3,0.1 0.6,0.1 L1.4,0.1 C1.7,0.1 2,0.4 2,0.7 L2,6.9 C2,7.3 1.7,7.5 1.4,7.5 Z M0.6,0.4 C0.4,0.4 0.3,0.6 0.3,0.7 L0.3,6.9 C0.3,7.1 0.4,7.2 0.6,7.2 L1.4,7.2 C1.6,7.2 1.7,7 1.7,6.9 L1.7,0.7 C1.7,0.5 1.6,0.4 1.4,0.4 L0.6,0.4 Z" id="Shape" fill="#000000"></path>
                    </g>
                    <g>
                        <path d="M8.5,0.6 L0.5,23.8 C0.3,24.4 0.5,25.1 1.1,25.4 C2.1,26 4.4,26.7 9,26.7 C13.6,26.7 15.9,26 16.9,25.4 C17.5,25.1 17.7,24.4 17.5,23.8 L9.5,0.6 C9.3,0.1 8.7,0.1 8.5,0.6 Z" id="Path" fill="#2980B9"></path>
                        <path d="M9,0.2 C9.2,0.2 9.4,0.3 9.5,0.5 L17.5,23.7 C17.7,24.3 17.5,25 16.9,25.3 C15.9,25.9 13.6,26.6 9,26.6 C4.4,26.6 2.1,25.9 1.1,25.3 C0.5,25 0.3,24.3 0.5,23.7 L8.5,0.5 C8.6,0.3 8.8,0.2 9,0.2 M9,3.55271368e-15 C8.7,3.55271368e-15 8.4,0.2 8.3,0.5 L0.3,23.7 C-1.94289029e-16,24.4 0.3,25.2 1,25.6 C2.1,26.2 4.3,26.9 9.1,26.9 C13.8,26.9 16.1,26.2 17.2,25.6 C17.9,25.2 18.2,24.5 17.9,23.7 L9.9,0.5 C9.6,0.2 9.3,3.55271368e-15 9,3.55271368e-15 L9,3.55271368e-15 Z" id="Shape" fill="#000000"></path>
                    </g>
                    <path d="M15.8,25.8 C17.7,25.2 17.8,24.3 17.6,23.8 L9.8,1.3 C9.7,1.1 9.9,7.5 11,11.6 C12.9,18.8 15.1,26 15.8,25.8 Z" id="Path" fill="#195C82"></path>
                </g>
            </g>
            <g id="Group" transform="translate(893.000000, 634.000000)" fill-rule="nonzero">
                <g opacity="0.1" transform="translate(6.000000, 23.000000)" fill="#000000" id="Path">
                    <path d="M1.4,0.5 L1,0.6 C0.9,0.6 0.9,0.7 1.1,0.8 L5.1,2.7 C5.3,2.8 5.5,2.8 5.6,2.8 L6,2.7 C6.1,2.7 6.1,2.6 5.9,2.5 L1.9,0.6 C1.7,0.5 1.5,0.4 1.4,0.5 Z"></path>
                    <g transform="translate(1.000000, 2.000000)">
                        <path d="M20.7,8.4 L1.5,2 C1,1.8 0.7,1.6 0.8,1.5 C1,1.2 1.6,0.8 4,0.4 C6.4,0 7.9,0 8.8,0 C9.3,0 9.8,0.2 10.1,0.4 L21.2,8.3 C21.4,8.4 21,8.5 20.7,8.4 Z"></path>
                    </g>
                </g>
                <g>
                    <g transform="translate(6.000000, 18.000000)">
                        <path d="M1.8,5.7 L1.3,5.7 C1.1,5.7 1,5.5 1,5.4 L1,0.9 C1,0.7 1.2,0.6 1.3,0.6 L1.8,0.6 C2,0.6 2.1,0.8 2.1,0.9 L2.1,5.4 C2.1,5.6 2,5.7 1.8,5.7 Z" id="Path" fill="#25739E"></path>
                        <path d="M1.8,5.8 L1.3,5.8 C1,5.8 0.8,5.6 0.8,5.3 L0.8,0.8 C0.8,0.5 1,0.3 1.3,0.3 L1.8,0.3 C2.1,0.3 2.3,0.5 2.3,0.8 L2.3,5.3 C2.2,5.6 2,5.8 1.8,5.8 Z M1.2,0.6 C1.1,0.6 1,0.7 1,0.8 L1,5.3 C1,5.4 1.1,5.5 1.2,5.5 L1.7,5.5 C1.8,5.5 1.9,5.4 1.9,5.3 L1.9,0.8 C1.9,0.7 1.8,0.6 1.7,0.6 L1.2,0.6 Z" id="Shape" fill="#000000"></path>
                    </g>
                    <g>
                        <path d="M7.2,0.5 L1.3,17.4 C1.1,17.8 1.3,18.3 1.7,18.5 C2.5,18.9 4.1,19.4 7.5,19.4 C10.9,19.4 12.5,18.9 13.3,18.5 C13.7,18.3 13.9,17.8 13.7,17.4 L7.8,0.5 C7.8,0.2 7.3,0.2 7.2,0.5 Z" id="Path" fill="#2980B9"></path>
                        <path d="M7.5,0.2 C7.6,0.2 7.8,0.3 7.9,0.5 L13.8,17.4 C14,17.8 13.8,18.3 13.4,18.5 C12.6,18.9 11,19.4 7.6,19.4 C4.2,19.4 2.6,18.9 1.8,18.5 C1.4,18.3 1.2,17.8 1.4,17.4 L7.3,0.5 C7.2,0.3 7.4,0.2 7.5,0.2 M7.5,0 C7.2,0 7,0.2 6.9,0.4 L1,17.3 C0.8,17.9 1,18.5 1.5,18.7 C2.3,19.1 4,19.6 7.4,19.6 C10.8,19.6 12.5,19.1 13.3,18.7 C13.8,18.4 14,17.8 13.8,17.3 L7.9,0.4 C8,0.2 7.8,0 7.5,0 L7.5,0 Z" id="Shape" fill="#000000"></path>
                    </g>
                    <path d="M12.5,18.9 C13.9,18.5 13.9,17.8 13.8,17.4 L8.1,1 C8.1,0.9 8.2,5.5 9,8.5 C10.3,13.8 11.9,19.1 12.5,18.9 Z" id="Path" fill="#195C82"></path>
                </g>
            </g>
        </g>
    </g>
</svg>