<?xml version="1.0" encoding="utf-8"?>
<!-- Generator: Adobe Illustrator 21.1.0, SVG Export Plug-In . SVG Version: 6.00 Build 0)  -->
<svg version="1.1" id="Layer_1" xmlns="http://www.w3.org/2000/svg" xmlns:xlink="http://www.w3.org/1999/xlink" x="0px" y="0px"
	 viewBox="0 0 1058.3 194.1" style="enable-background:new 0 0 1058.3 194.1;" xml:space="preserve">
<style type="text/css">
	.st0{opacity:0.1;}
	.st1{display:none;}
	.st2{display:inline;opacity:0.2;}
	.st3{fill:none;stroke:#000000;stroke-width:0.25;stroke-miterlimit:10;}
	.st4{display:none;opacity:0.1;}
	.st5{display:inline;fill:none;stroke:#000000;stroke-width:0.25;stroke-miterlimit:10;}
	.st6{fill:#25739E;}
	.st7{fill:#2980B9;}
	.st8{fill:#195C82;}
	.st9{opacity:0.1;fill:url(#SVGID_1_);enable-background:new    ;}
	.st10{fill:url(#SVGID_2_);}
	.st11{fill:#1A4C68;}
	.st12{fill:#0E3951;}
	.st13{fill:#21719E;}
	.st14{fill:none;}
	.st15{fill:#4AA6CE;}
	.st16{fill:#FFFFFF;}
	.st17{fill:#1B5B7F;}
	.st18{fill:#3A99CE;}
	.st19{fill:#FFCF4A;stroke:#000000;stroke-width:0.25;stroke-miterlimit:10;}
	.st20{fill:#FFE088;stroke:#000000;stroke-width:0.25;stroke-linecap:round;stroke-linejoin:round;stroke-miterlimit:10;}
	.st21{fill:#FFFFFF;stroke:#000000;stroke-width:0.25;stroke-linecap:round;stroke-linejoin:round;stroke-miterlimit:10;}
	.st22{fill:#B2CC9E;stroke:#000000;stroke-width:0.25;stroke-miterlimit:10;}
	.st23{fill:#D1EDBC;stroke:#000000;stroke-width:0.25;stroke-linecap:round;stroke-linejoin:round;stroke-miterlimit:10;}
	.st24{fill:#81C750;stroke:#000000;stroke-width:0.25;stroke-miterlimit:10;}
	.st25{fill:#99E260;stroke:#000000;stroke-width:0.25;stroke-linecap:round;stroke-linejoin:round;stroke-miterlimit:10;}
</style>
<path class="st0" d="M343.9,101.3l11.2,6.2c0.5,0.3,0.5,1.1,0,1.4l-6.3,3.6c-0.2,0.1-0.5,0.1-0.8,0l-11.9-6.7L343.9,101.3z"/>
<path class="st0" d="M317,116.7l11.2,6.2c0.5,0.3,0.5,1.1,0,1.4l-6.3,3.6c-0.2,0.1-0.5,0.1-0.8,0l-11.9-6.7L317,116.7z"/>
<path class="st0" d="M330.7,108.8l19.8,11.6c0.5,0.3,0.5,1.1,0,1.4l-6.3,3.6c-0.2,0.1-0.5,0.1-0.8,0l-20.5-12.1L330.7,108.8z"/>
<g id="Layer_2" class="st1">
	<g class="st2">
		<line class="st3" x1="722.5" y1="-598.7" x2="-516.7" y2="116.8"/>
		<line class="st3" x1="734.7" y1="-591.6" x2="-504.5" y2="123.8"/>
		<line class="st3" x1="746.9" y1="-584.6" x2="-492.3" y2="130.9"/>
		<line class="st3" x1="759.1" y1="-577.5" x2="-480" y2="137.9"/>
		<line class="st3" x1="771.3" y1="-570.5" x2="-467.8" y2="145"/>
		<line class="st3" x1="783.5" y1="-563.4" x2="-455.6" y2="152"/>
		<line class="st3" x1="795.7" y1="-556.4" x2="-443.4" y2="159"/>
		<line class="st3" x1="807.9" y1="-549.3" x2="-431.2" y2="166.1"/>
		<line class="st3" x1="820.1" y1="-542.3" x2="-419" y2="173.1"/>
		<line class="st3" x1="832.4" y1="-535.2" x2="-406.8" y2="180.2"/>
		<line class="st3" x1="844.6" y1="-528.2" x2="-394.6" y2="187.2"/>
		<line class="st3" x1="856.8" y1="-521.1" x2="-382.4" y2="194.3"/>
		<line class="st3" x1="869" y1="-514.1" x2="-370.2" y2="201.3"/>
		<line class="st3" x1="881.2" y1="-507" x2="-358" y2="208.4"/>
		<line class="st3" x1="893.4" y1="-500" x2="-345.8" y2="215.4"/>
		<line class="st3" x1="905.6" y1="-492.9" x2="-333.6" y2="222.5"/>
		<line class="st3" x1="917.8" y1="-485.9" x2="-321.3" y2="229.5"/>
		<line class="st3" x1="930" y1="-478.8" x2="-309.1" y2="236.6"/>
		<line class="st3" x1="942.2" y1="-471.8" x2="-296.9" y2="243.6"/>
		<line class="st3" x1="954.4" y1="-464.8" x2="-284.7" y2="250.7"/>
		<line class="st3" x1="966.6" y1="-457.7" x2="-272.5" y2="257.7"/>
		<line class="st3" x1="978.8" y1="-450.7" x2="-260.3" y2="264.8"/>
		<line class="st3" x1="991.1" y1="-443.6" x2="-248.1" y2="271.8"/>
		<line class="st3" x1="1003.3" y1="-436.6" x2="-235.9" y2="278.9"/>
		<line class="st3" x1="1015.5" y1="-429.5" x2="-223.7" y2="285.9"/>
		<line class="st3" x1="1027.7" y1="-422.5" x2="-211.5" y2="293"/>
		<line class="st3" x1="1039.9" y1="-415.4" x2="-199.3" y2="300"/>
		<line class="st3" x1="1052.1" y1="-408.4" x2="-187.1" y2="307.1"/>
		<line class="st3" x1="1064.3" y1="-401.3" x2="-174.9" y2="314.1"/>
		<line class="st3" x1="1076.5" y1="-394.3" x2="-162.6" y2="321.2"/>
		<line class="st3" x1="1088.7" y1="-387.2" x2="-150.4" y2="328.2"/>
		<line class="st3" x1="1100.9" y1="-380.2" x2="-138.2" y2="335.2"/>
		<line class="st3" x1="1113.1" y1="-373.1" x2="-126" y2="342.3"/>
		<line class="st3" x1="1125.3" y1="-366.1" x2="-113.8" y2="349.3"/>
		<line class="st3" x1="1137.5" y1="-359" x2="-101.6" y2="356.4"/>
		<line class="st3" x1="1149.8" y1="-352" x2="-89.4" y2="363.4"/>
		<line class="st3" x1="1162" y1="-344.9" x2="-77.2" y2="370.5"/>
		<line class="st3" x1="1174.2" y1="-337.9" x2="-65" y2="377.5"/>
		<line class="st3" x1="1186.4" y1="-330.8" x2="-52.8" y2="384.6"/>
		<line class="st3" x1="1198.6" y1="-323.8" x2="-40.6" y2="391.6"/>
		<line class="st3" x1="1210.8" y1="-316.7" x2="-28.4" y2="398.7"/>
		<line class="st3" x1="1223" y1="-309.7" x2="-16.2" y2="405.7"/>
		<line class="st3" x1="1235.2" y1="-302.6" x2="-4" y2="412.8"/>
		<line class="st3" x1="1247.4" y1="-295.6" x2="8.3" y2="419.8"/>
		<line class="st3" x1="1259.6" y1="-288.6" x2="20.5" y2="426.9"/>
		<line class="st3" x1="1271.8" y1="-281.5" x2="32.7" y2="433.9"/>
		<line class="st3" x1="1284" y1="-274.5" x2="44.9" y2="441"/>
		<line class="st3" x1="1296.2" y1="-267.4" x2="57.1" y2="448"/>
		<line class="st3" x1="1308.4" y1="-260.4" x2="69.3" y2="455.1"/>
		<line class="st3" x1="1320.7" y1="-253.3" x2="81.5" y2="462.1"/>
		<line class="st3" x1="1332.9" y1="-246.3" x2="93.7" y2="469.2"/>
		<line class="st3" x1="1345.1" y1="-239.2" x2="105.9" y2="476.2"/>
		<line class="st3" x1="1357.3" y1="-232.2" x2="118.1" y2="483.3"/>
		<line class="st3" x1="1369.5" y1="-225.1" x2="130.3" y2="490.3"/>
		<line class="st3" x1="1381.7" y1="-218.1" x2="142.5" y2="497.4"/>
		<line class="st3" x1="1393.9" y1="-211" x2="154.7" y2="504.4"/>
		<line class="st3" x1="1406.1" y1="-204" x2="167" y2="511.4"/>
		<line class="st3" x1="1418.3" y1="-196.9" x2="179.2" y2="518.5"/>
		<line class="st3" x1="1430.5" y1="-189.9" x2="191.4" y2="525.5"/>
		<line class="st3" x1="1442.7" y1="-182.8" x2="203.6" y2="532.6"/>
		<line class="st3" x1="1454.9" y1="-175.8" x2="215.8" y2="539.6"/>
		<line class="st3" x1="1467.1" y1="-168.7" x2="228" y2="546.7"/>
		<line class="st3" x1="1479.4" y1="-161.7" x2="240.2" y2="553.7"/>
		<line class="st3" x1="1491.6" y1="-154.6" x2="252.4" y2="560.8"/>
		<line class="st3" x1="1503.8" y1="-147.6" x2="264.6" y2="567.8"/>
		<line class="st3" x1="1516" y1="-140.5" x2="276.8" y2="574.9"/>
		<line class="st3" x1="1528.2" y1="-133.5" x2="289" y2="581.9"/>
		<line class="st3" x1="1540.4" y1="-126.4" x2="301.2" y2="589"/>
		<line class="st3" x1="1552.6" y1="-119.4" x2="313.4" y2="596"/>
		<line class="st3" x1="1564.8" y1="-112.4" x2="325.7" y2="603.1"/>
		<line class="st3" x1="1577" y1="-105.3" x2="337.9" y2="610.1"/>
		<line class="st3" x1="1589.2" y1="-98.3" x2="350.1" y2="617.2"/>
		<line class="st3" x1="1601.4" y1="-91.2" x2="362.3" y2="624.2"/>
		<line class="st3" x1="1613.6" y1="-84.2" x2="374.5" y2="631.3"/>
		<line class="st3" x1="1625.8" y1="-77.1" x2="386.7" y2="638.3"/>
		<line class="st3" x1="1638.1" y1="-70.1" x2="398.9" y2="645.4"/>
		<line class="st3" x1="1650.3" y1="-63" x2="411.1" y2="652.4"/>
		<line class="st3" x1="1662.5" y1="-56" x2="423.3" y2="659.5"/>
		<line class="st3" x1="1674.7" y1="-48.9" x2="435.5" y2="666.5"/>
		<line class="st3" x1="1686.9" y1="-41.9" x2="447.7" y2="673.6"/>
		<line class="st3" x1="1699.1" y1="-34.8" x2="459.9" y2="680.6"/>
		<line class="st3" x1="1711.3" y1="-27.8" x2="472.1" y2="687.7"/>
		<line class="st3" x1="1723.5" y1="-20.7" x2="484.4" y2="694.7"/>
		<line class="st3" x1="1735.7" y1="-13.7" x2="496.6" y2="701.7"/>
		<line class="st3" x1="1747.9" y1="-6.6" x2="508.8" y2="708.8"/>
		<line class="st3" x1="1760.1" y1="0.4" x2="521" y2="715.8"/>
		<line class="st3" x1="1772.3" y1="7.5" x2="533.2" y2="722.9"/>
		<line class="st3" x1="1784.5" y1="14.5" x2="545.4" y2="729.9"/>
		<line class="st3" x1="1796.8" y1="21.6" x2="557.6" y2="737"/>
		<line class="st3" x1="1809" y1="28.6" x2="569.8" y2="744"/>
		<line class="st3" x1="1821.2" y1="35.7" x2="582" y2="751.1"/>
		<line class="st3" x1="1833.4" y1="42.7" x2="594.2" y2="758.1"/>
		<line class="st3" x1="1845.6" y1="49.8" x2="606.4" y2="765.2"/>
		<line class="st3" x1="1857.8" y1="56.8" x2="618.6" y2="772.2"/>
		<line class="st3" x1="1870" y1="63.8" x2="630.8" y2="779.3"/>
		<line class="st3" x1="1882.2" y1="70.9" x2="643" y2="786.3"/>
		<line class="st3" x1="1894.4" y1="77.9" x2="655.3" y2="793.4"/>
		<line class="st3" x1="1906.6" y1="85" x2="667.5" y2="800.4"/>
		<line class="st3" x1="1918.8" y1="92" x2="679.7" y2="807.5"/>
		<line class="st3" x1="1931" y1="99.1" x2="691.9" y2="814.5"/>
		<line class="st3" x1="1943.2" y1="106.1" x2="704.1" y2="821.6"/>
		<line class="st3" x1="1955.4" y1="113.2" x2="716.3" y2="828.6"/>
		<line class="st3" x1="1955.5" y1="121.2" x2="708.6" y2="-598.7"/>
		<line class="st3" x1="1943.4" y1="128.2" x2="696.4" y2="-591.7"/>
		<line class="st3" x1="1931.2" y1="135.2" x2="684.3" y2="-584.7"/>
		<line class="st3" x1="1919.1" y1="142.2" x2="672.2" y2="-577.7"/>
		<line class="st3" x1="1907" y1="149.2" x2="660" y2="-570.7"/>
		<line class="st3" x1="1894.8" y1="156.2" x2="647.9" y2="-563.7"/>
		<line class="st3" x1="1882.7" y1="163.3" x2="635.8" y2="-556.7"/>
		<line class="st3" x1="1870.6" y1="170.3" x2="623.6" y2="-549.7"/>
		<line class="st3" x1="1858.4" y1="177.3" x2="611.5" y2="-542.7"/>
		<line class="st3" x1="1846.3" y1="184.3" x2="599.4" y2="-535.7"/>
		<line class="st3" x1="1834.2" y1="191.3" x2="587.2" y2="-528.7"/>
		<line class="st3" x1="1822" y1="198.3" x2="575.1" y2="-521.6"/>
		<line class="st3" x1="1809.9" y1="205.3" x2="563" y2="-514.6"/>
		<line class="st3" x1="1797.8" y1="212.3" x2="550.8" y2="-507.6"/>
		<line class="st3" x1="1785.7" y1="219.3" x2="538.7" y2="-500.6"/>
		<line class="st3" x1="1773.5" y1="226.3" x2="526.6" y2="-493.6"/>
		<line class="st3" x1="1761.4" y1="233.3" x2="514.5" y2="-486.6"/>
		<line class="st3" x1="1749.3" y1="240.3" x2="502.3" y2="-479.6"/>
		<line class="st3" x1="1737.1" y1="247.3" x2="490.2" y2="-472.6"/>
		<line class="st3" x1="1725" y1="254.3" x2="478.1" y2="-465.6"/>
		<line class="st3" x1="1712.9" y1="261.3" x2="465.9" y2="-458.6"/>
		<line class="st3" x1="1700.7" y1="268.3" x2="453.8" y2="-451.6"/>
		<line class="st3" x1="1688.6" y1="275.3" x2="441.7" y2="-444.6"/>
		<line class="st3" x1="1676.5" y1="282.3" x2="429.5" y2="-437.6"/>
		<line class="st3" x1="1664.3" y1="289.3" x2="417.4" y2="-430.6"/>
		<line class="st3" x1="1652.2" y1="296.3" x2="405.3" y2="-423.6"/>
		<line class="st3" x1="1640.1" y1="303.3" x2="393.1" y2="-416.6"/>
		<line class="st3" x1="1627.9" y1="310.3" x2="381" y2="-409.6"/>
		<line class="st3" x1="1615.8" y1="317.3" x2="368.9" y2="-402.6"/>
		<line class="st3" x1="1603.7" y1="324.3" x2="356.7" y2="-395.6"/>
		<line class="st3" x1="1591.6" y1="331.3" x2="344.6" y2="-388.6"/>
		<line class="st3" x1="1579.4" y1="338.4" x2="332.5" y2="-381.6"/>
		<line class="st3" x1="1567.3" y1="345.4" x2="320.4" y2="-374.6"/>
		<line class="st3" x1="1555.2" y1="352.4" x2="308.2" y2="-367.6"/>
		<line class="st3" x1="1543" y1="359.4" x2="296.1" y2="-360.6"/>
		<line class="st3" x1="1530.9" y1="366.4" x2="284" y2="-353.5"/>
		<line class="st3" x1="1518.8" y1="373.4" x2="271.8" y2="-346.5"/>
		<line class="st3" x1="1506.6" y1="380.4" x2="259.7" y2="-339.5"/>
		<line class="st3" x1="1494.5" y1="387.4" x2="247.6" y2="-332.5"/>
		<line class="st3" x1="1482.4" y1="394.4" x2="235.4" y2="-325.5"/>
		<line class="st3" x1="1470.2" y1="401.4" x2="223.3" y2="-318.5"/>
		<line class="st3" x1="1458.1" y1="408.4" x2="211.2" y2="-311.5"/>
		<line class="st3" x1="1446" y1="415.4" x2="199" y2="-304.5"/>
		<line class="st3" x1="1433.8" y1="422.4" x2="186.9" y2="-297.5"/>
		<line class="st3" x1="1421.7" y1="429.4" x2="174.8" y2="-290.5"/>
		<line class="st3" x1="1409.6" y1="436.4" x2="162.6" y2="-283.5"/>
		<line class="st3" x1="1397.4" y1="443.4" x2="150.5" y2="-276.5"/>
		<line class="st3" x1="1385.3" y1="450.4" x2="138.4" y2="-269.5"/>
		<line class="st3" x1="1373.2" y1="457.4" x2="126.2" y2="-262.5"/>
		<line class="st3" x1="1361.1" y1="464.4" x2="114.1" y2="-255.5"/>
		<line class="st3" x1="1348.9" y1="471.4" x2="102" y2="-248.5"/>
		<line class="st3" x1="1336.8" y1="478.4" x2="89.9" y2="-241.5"/>
		<line class="st3" x1="1324.7" y1="485.4" x2="77.7" y2="-234.5"/>
		<line class="st3" x1="1312.5" y1="492.4" x2="65.6" y2="-227.5"/>
		<line class="st3" x1="1300.4" y1="499.4" x2="53.5" y2="-220.5"/>
		<line class="st3" x1="1288.3" y1="506.5" x2="41.3" y2="-213.5"/>
		<line class="st3" x1="1276.1" y1="513.5" x2="29.2" y2="-206.5"/>
		<line class="st3" x1="1264" y1="520.5" x2="17.1" y2="-199.5"/>
		<line class="st3" x1="1251.9" y1="527.5" x2="4.9" y2="-192.5"/>
		<line class="st3" x1="1239.7" y1="534.5" x2="-7.2" y2="-185.5"/>
		<line class="st3" x1="1227.6" y1="541.5" x2="-19.3" y2="-178.4"/>
		<line class="st3" x1="1215.5" y1="548.5" x2="-31.5" y2="-171.4"/>
		<line class="st3" x1="1203.3" y1="555.5" x2="-43.6" y2="-164.4"/>
		<line class="st3" x1="1191.2" y1="562.5" x2="-55.7" y2="-157.4"/>
		<line class="st3" x1="1179.1" y1="569.5" x2="-67.9" y2="-150.4"/>
		<line class="st3" x1="1167" y1="576.5" x2="-80" y2="-143.4"/>
		<line class="st3" x1="1154.8" y1="583.5" x2="-92.1" y2="-136.4"/>
		<line class="st3" x1="1142.7" y1="590.5" x2="-104.2" y2="-129.4"/>
		<line class="st3" x1="1130.6" y1="597.5" x2="-116.4" y2="-122.4"/>
		<line class="st3" x1="1118.4" y1="604.5" x2="-128.5" y2="-115.4"/>
		<line class="st3" x1="1106.3" y1="611.5" x2="-140.6" y2="-108.4"/>
		<line class="st3" x1="1094.2" y1="618.5" x2="-152.8" y2="-101.4"/>
		<line class="st3" x1="1082" y1="625.5" x2="-164.9" y2="-94.4"/>
		<line class="st3" x1="1069.9" y1="632.5" x2="-177" y2="-87.4"/>
		<line class="st3" x1="1057.8" y1="639.5" x2="-189.2" y2="-80.4"/>
		<line class="st3" x1="1045.6" y1="646.5" x2="-201.3" y2="-73.4"/>
		<line class="st3" x1="1033.5" y1="653.5" x2="-213.4" y2="-66.4"/>
		<line class="st3" x1="1021.4" y1="660.5" x2="-225.6" y2="-59.4"/>
		<line class="st3" x1="1009.2" y1="667.5" x2="-237.7" y2="-52.4"/>
		<line class="st3" x1="997.1" y1="674.5" x2="-249.8" y2="-45.4"/>
		<line class="st3" x1="985" y1="681.6" x2="-262" y2="-38.4"/>
		<line class="st3" x1="972.9" y1="688.6" x2="-274.1" y2="-31.4"/>
		<line class="st3" x1="960.7" y1="695.6" x2="-286.2" y2="-24.4"/>
		<line class="st3" x1="948.6" y1="702.6" x2="-298.3" y2="-17.4"/>
		<line class="st3" x1="936.5" y1="709.6" x2="-310.5" y2="-10.4"/>
		<line class="st3" x1="924.3" y1="716.6" x2="-322.6" y2="-3.3"/>
		<line class="st3" x1="912.2" y1="723.6" x2="-334.7" y2="3.7"/>
		<line class="st3" x1="900.1" y1="730.6" x2="-346.9" y2="10.7"/>
		<line class="st3" x1="887.9" y1="737.6" x2="-359" y2="17.7"/>
		<line class="st3" x1="875.8" y1="744.6" x2="-371.1" y2="24.7"/>
		<line class="st3" x1="863.7" y1="751.6" x2="-383.3" y2="31.7"/>
		<line class="st3" x1="851.5" y1="758.6" x2="-395.4" y2="38.7"/>
		<line class="st3" x1="839.4" y1="765.6" x2="-407.5" y2="45.7"/>
		<line class="st3" x1="827.3" y1="772.6" x2="-419.7" y2="52.7"/>
		<line class="st3" x1="815.1" y1="779.6" x2="-431.8" y2="59.7"/>
		<line class="st3" x1="803" y1="786.6" x2="-443.9" y2="66.7"/>
		<line class="st3" x1="790.9" y1="793.6" x2="-456.1" y2="73.7"/>
		<line class="st3" x1="778.8" y1="800.6" x2="-468.2" y2="80.7"/>
		<line class="st3" x1="766.6" y1="807.6" x2="-480.3" y2="87.7"/>
		<line class="st3" x1="754.5" y1="814.6" x2="-492.4" y2="94.7"/>
		<line class="st3" x1="742.4" y1="821.6" x2="-504.6" y2="101.7"/>
		<line class="st3" x1="730.2" y1="828.6" x2="-516.7" y2="108.7"/>
	</g>
</g>
<g id="Layer_1_1_">
	<g class="st4">
		<polygon class="st5" points="1027.2,-1201.7 2125.4,-567.6 857.3,164.6 -241,-469.5 		"/>
		<line class="st5" x1="-225.3" y1="-478.6" x2="872.9" y2="155.5"/>
		<line class="st5" x1="-209.7" y1="-487.6" x2="888.6" y2="146.5"/>
		<line class="st5" x1="-194" y1="-496.6" x2="904.2" y2="137.4"/>
		<line class="st5" x1="-178.4" y1="-505.7" x2="919.9" y2="128.4"/>
		<line class="st5" x1="-162.7" y1="-514.7" x2="935.5" y2="119.4"/>
		<line class="st5" x1="-147" y1="-523.8" x2="951.2" y2="110.3"/>
		<line class="st5" x1="-131.4" y1="-532.8" x2="966.9" y2="101.3"/>
		<line class="st5" x1="-115.7" y1="-541.8" x2="982.5" y2="92.2"/>
		<line class="st5" x1="-100.1" y1="-550.9" x2="998.2" y2="83.2"/>
		<line class="st5" x1="-84.4" y1="-559.9" x2="1013.8" y2="74.2"/>
		<line class="st5" x1="-68.8" y1="-569" x2="1029.5" y2="65.1"/>
		<line class="st5" x1="-53.1" y1="-578" x2="1045.1" y2="56.1"/>
		<line class="st5" x1="-37.5" y1="-587" x2="1060.8" y2="47"/>
		<line class="st5" x1="-21.8" y1="-596.1" x2="1076.4" y2="38"/>
		<line class="st5" x1="-6.1" y1="-605.1" x2="1092.1" y2="29"/>
		<line class="st5" x1="9.5" y1="-614.1" x2="1107.8" y2="19.9"/>
		<line class="st5" x1="25.2" y1="-623.2" x2="1123.4" y2="10.9"/>
		<line class="st5" x1="40.8" y1="-632.2" x2="1139.1" y2="1.8"/>
		<line class="st5" x1="56.5" y1="-641.3" x2="1154.7" y2="-7.2"/>
		<line class="st5" x1="72.1" y1="-650.3" x2="1170.4" y2="-16.2"/>
		<line class="st5" x1="87.8" y1="-659.3" x2="1186" y2="-25.3"/>
		<line class="st5" x1="103.5" y1="-668.4" x2="1201.7" y2="-34.3"/>
		<line class="st5" x1="119.1" y1="-677.4" x2="1217.4" y2="-43.3"/>
		<line class="st5" x1="134.8" y1="-686.5" x2="1233" y2="-52.4"/>
		<line class="st5" x1="150.4" y1="-695.5" x2="1248.7" y2="-61.4"/>
		<line class="st5" x1="166.1" y1="-704.5" x2="1264.3" y2="-70.5"/>
		<line class="st5" x1="181.7" y1="-713.6" x2="1280" y2="-79.5"/>
		<line class="st5" x1="197.4" y1="-722.6" x2="1295.6" y2="-88.5"/>
		<line class="st5" x1="213" y1="-731.7" x2="1311.3" y2="-97.6"/>
		<line class="st5" x1="228.7" y1="-740.7" x2="1326.9" y2="-106.6"/>
		<line class="st5" x1="244.4" y1="-749.7" x2="1342.6" y2="-115.7"/>
		<line class="st5" x1="260" y1="-758.8" x2="1358.3" y2="-124.7"/>
		<line class="st5" x1="275.7" y1="-767.8" x2="1373.9" y2="-133.7"/>
		<line class="st5" x1="291.3" y1="-776.8" x2="1389.6" y2="-142.8"/>
		<line class="st5" x1="307" y1="-785.9" x2="1405.2" y2="-151.8"/>
		<line class="st5" x1="322.6" y1="-794.9" x2="1420.9" y2="-160.9"/>
		<line class="st5" x1="338.3" y1="-804" x2="1436.5" y2="-169.9"/>
		<line class="st5" x1="353.9" y1="-813" x2="1452.2" y2="-178.9"/>
		<line class="st5" x1="369.6" y1="-822" x2="1467.8" y2="-188"/>
		<line class="st5" x1="385.3" y1="-831.1" x2="1483.5" y2="-197"/>
		<line class="st5" x1="400.9" y1="-840.1" x2="1499.2" y2="-206.1"/>
		<line class="st5" x1="416.6" y1="-849.2" x2="1514.8" y2="-215.1"/>
		<line class="st5" x1="432.2" y1="-858.2" x2="1530.5" y2="-224.1"/>
		<line class="st5" x1="447.9" y1="-867.2" x2="1546.1" y2="-233.2"/>
		<line class="st5" x1="463.5" y1="-876.3" x2="1561.8" y2="-242.2"/>
		<line class="st5" x1="479.2" y1="-885.3" x2="1577.4" y2="-251.2"/>
		<line class="st5" x1="494.9" y1="-894.4" x2="1593.1" y2="-260.3"/>
		<line class="st5" x1="510.5" y1="-903.4" x2="1608.8" y2="-269.3"/>
		<line class="st5" x1="526.2" y1="-912.4" x2="1624.4" y2="-278.4"/>
		<line class="st5" x1="541.8" y1="-921.5" x2="1640.1" y2="-287.4"/>
		<line class="st5" x1="557.5" y1="-930.5" x2="1655.7" y2="-296.4"/>
		<line class="st5" x1="573.1" y1="-939.6" x2="1671.4" y2="-305.5"/>
		<line class="st5" x1="588.8" y1="-948.6" x2="1687" y2="-314.5"/>
		<line class="st5" x1="604.4" y1="-957.6" x2="1702.7" y2="-323.6"/>
		<line class="st5" x1="620.1" y1="-966.7" x2="1718.3" y2="-332.6"/>
		<line class="st5" x1="635.8" y1="-975.7" x2="1734" y2="-341.6"/>
		<line class="st5" x1="651.4" y1="-984.7" x2="1749.7" y2="-350.7"/>
		<line class="st5" x1="667.1" y1="-993.8" x2="1765.3" y2="-359.7"/>
		<line class="st5" x1="682.7" y1="-1002.8" x2="1781" y2="-368.8"/>
		<line class="st5" x1="698.4" y1="-1011.9" x2="1796.6" y2="-377.8"/>
		<line class="st5" x1="714" y1="-1020.9" x2="1812.3" y2="-386.8"/>
		<line class="st5" x1="729.7" y1="-1029.9" x2="1827.9" y2="-395.9"/>
		<line class="st5" x1="745.4" y1="-1039" x2="1843.6" y2="-404.9"/>
		<line class="st5" x1="761" y1="-1048" x2="1859.2" y2="-413.9"/>
		<line class="st5" x1="776.7" y1="-1057.1" x2="1874.9" y2="-423"/>
		<line class="st5" x1="792.3" y1="-1066.1" x2="1890.6" y2="-432"/>
		<line class="st5" x1="808" y1="-1075.1" x2="1906.2" y2="-441.1"/>
		<line class="st5" x1="823.6" y1="-1084.2" x2="1921.9" y2="-450.1"/>
		<line class="st5" x1="839.3" y1="-1093.2" x2="1937.5" y2="-459.1"/>
		<line class="st5" x1="854.9" y1="-1102.3" x2="1953.2" y2="-468.2"/>
		<line class="st5" x1="870.6" y1="-1111.3" x2="1968.8" y2="-477.2"/>
		<line class="st5" x1="886.3" y1="-1120.3" x2="1984.5" y2="-486.3"/>
		<line class="st5" x1="901.9" y1="-1129.4" x2="2000.2" y2="-495.3"/>
		<line class="st5" x1="917.6" y1="-1138.4" x2="2015.8" y2="-504.3"/>
		<line class="st5" x1="933.2" y1="-1147.4" x2="2031.5" y2="-513.4"/>
		<line class="st5" x1="948.9" y1="-1156.5" x2="2047.1" y2="-522.4"/>
		<line class="st5" x1="964.5" y1="-1165.5" x2="2062.8" y2="-531.5"/>
		<line class="st5" x1="980.2" y1="-1174.6" x2="2078.4" y2="-540.5"/>
		<line class="st5" x1="995.8" y1="-1183.6" x2="2094.1" y2="-549.5"/>
		<line class="st5" x1="1011.5" y1="-1192.6" x2="2109.7" y2="-558.6"/>
		<line class="st5" x1="2111.8" y1="-575.4" x2="843.7" y2="156.7"/>
		<line class="st5" x1="2098.3" y1="-583.3" x2="830.1" y2="148.9"/>
		<line class="st5" x1="2084.7" y1="-591.1" x2="816.6" y2="141.1"/>
		<line class="st5" x1="2071.2" y1="-598.9" x2="803" y2="133.2"/>
		<line class="st5" x1="2057.6" y1="-606.8" x2="789.5" y2="125.4"/>
		<line class="st5" x1="2044.1" y1="-614.6" x2="775.9" y2="117.6"/>
		<line class="st5" x1="2030.5" y1="-622.4" x2="762.4" y2="109.8"/>
		<line class="st5" x1="2016.9" y1="-630.2" x2="748.8" y2="101.9"/>
		<line class="st5" x1="2003.4" y1="-638.1" x2="735.2" y2="94.1"/>
		<line class="st5" x1="1989.8" y1="-645.9" x2="721.7" y2="86.3"/>
		<line class="st5" x1="1976.3" y1="-653.7" x2="708.1" y2="78.4"/>
		<line class="st5" x1="1962.7" y1="-661.5" x2="694.6" y2="70.6"/>
		<line class="st5" x1="1949.1" y1="-669.4" x2="681" y2="62.8"/>
		<line class="st5" x1="1935.6" y1="-677.2" x2="667.4" y2="55"/>
		<line class="st5" x1="1922" y1="-685" x2="653.9" y2="47.1"/>
		<line class="st5" x1="1908.5" y1="-692.9" x2="640.3" y2="39.3"/>
		<line class="st5" x1="1894.9" y1="-700.7" x2="626.8" y2="31.5"/>
		<line class="st5" x1="1881.3" y1="-708.5" x2="613.2" y2="23.6"/>
		<line class="st5" x1="1867.8" y1="-716.3" x2="599.6" y2="15.8"/>
		<line class="st5" x1="1854.2" y1="-724.2" x2="586.1" y2="8"/>
		<line class="st5" x1="1840.7" y1="-732" x2="572.5" y2="0.2"/>
		<line class="st5" x1="1827.1" y1="-739.8" x2="559" y2="-7.7"/>
		<line class="st5" x1="1813.6" y1="-747.7" x2="545.4" y2="-15.5"/>
		<line class="st5" x1="1800" y1="-755.5" x2="531.9" y2="-23.3"/>
		<line class="st5" x1="1786.4" y1="-763.3" x2="518.3" y2="-31.2"/>
		<line class="st5" x1="1772.9" y1="-771.1" x2="504.7" y2="-39"/>
		<line class="st5" x1="1759.3" y1="-779" x2="491.2" y2="-46.8"/>
		<line class="st5" x1="1745.8" y1="-786.8" x2="477.6" y2="-54.6"/>
		<line class="st5" x1="1732.2" y1="-794.6" x2="464.1" y2="-62.5"/>
		<line class="st5" x1="1718.6" y1="-802.5" x2="450.5" y2="-70.3"/>
		<line class="st5" x1="1705.1" y1="-810.3" x2="436.9" y2="-78.1"/>
		<line class="st5" x1="1691.5" y1="-818.1" x2="423.4" y2="-85.9"/>
		<line class="st5" x1="1678" y1="-825.9" x2="409.8" y2="-93.8"/>
		<line class="st5" x1="1664.4" y1="-833.8" x2="396.3" y2="-101.6"/>
		<line class="st5" x1="1650.9" y1="-841.6" x2="382.7" y2="-109.4"/>
		<line class="st5" x1="1637.3" y1="-849.4" x2="369.2" y2="-117.3"/>
		<line class="st5" x1="1623.7" y1="-857.2" x2="355.6" y2="-125.1"/>
		<line class="st5" x1="1610.2" y1="-865.1" x2="342" y2="-132.9"/>
		<line class="st5" x1="1596.6" y1="-872.9" x2="328.5" y2="-140.7"/>
		<line class="st5" x1="1583.1" y1="-880.7" x2="314.9" y2="-148.6"/>
		<line class="st5" x1="1569.5" y1="-888.6" x2="301.4" y2="-156.4"/>
		<line class="st5" x1="1555.9" y1="-896.4" x2="287.8" y2="-164.2"/>
		<line class="st5" x1="1542.4" y1="-904.2" x2="274.2" y2="-172.1"/>
		<line class="st5" x1="1528.8" y1="-912" x2="260.7" y2="-179.9"/>
		<line class="st5" x1="1515.3" y1="-919.9" x2="247.1" y2="-187.7"/>
		<line class="st5" x1="1501.7" y1="-927.7" x2="233.6" y2="-195.5"/>
		<line class="st5" x1="1488.2" y1="-935.5" x2="220" y2="-203.4"/>
		<line class="st5" x1="1474.6" y1="-943.4" x2="206.5" y2="-211.2"/>
		<line class="st5" x1="1461" y1="-951.2" x2="192.9" y2="-219"/>
		<line class="st5" x1="1447.5" y1="-959" x2="179.3" y2="-226.9"/>
		<line class="st5" x1="1433.9" y1="-966.8" x2="165.8" y2="-234.7"/>
		<line class="st5" x1="1420.4" y1="-974.7" x2="152.2" y2="-242.5"/>
		<line class="st5" x1="1406.8" y1="-982.5" x2="138.7" y2="-250.3"/>
		<line class="st5" x1="1393.2" y1="-990.3" x2="125.1" y2="-258.2"/>
		<line class="st5" x1="1379.7" y1="-998.2" x2="111.5" y2="-266"/>
		<line class="st5" x1="1366.1" y1="-1006" x2="98" y2="-273.8"/>
		<line class="st5" x1="1352.6" y1="-1013.8" x2="84.4" y2="-281.6"/>
		<line class="st5" x1="1339" y1="-1021.6" x2="70.9" y2="-289.5"/>
		<line class="st5" x1="1325.4" y1="-1029.5" x2="57.3" y2="-297.3"/>
		<line class="st5" x1="1311.9" y1="-1037.3" x2="43.7" y2="-305.1"/>
		<line class="st5" x1="1298.3" y1="-1045.1" x2="30.2" y2="-313"/>
		<line class="st5" x1="1284.8" y1="-1053" x2="16.6" y2="-320.8"/>
		<line class="st5" x1="1271.2" y1="-1060.8" x2="3.1" y2="-328.6"/>
		<line class="st5" x1="1257.7" y1="-1068.6" x2="-10.5" y2="-336.4"/>
		<line class="st5" x1="1244.1" y1="-1076.4" x2="-24" y2="-344.3"/>
		<line class="st5" x1="1230.5" y1="-1084.3" x2="-37.6" y2="-352.1"/>
		<line class="st5" x1="1217" y1="-1092.1" x2="-51.2" y2="-359.9"/>
		<line class="st5" x1="1203.4" y1="-1099.9" x2="-64.7" y2="-367.8"/>
		<line class="st5" x1="1189.9" y1="-1107.7" x2="-78.3" y2="-375.6"/>
		<line class="st5" x1="1176.3" y1="-1115.6" x2="-91.8" y2="-383.4"/>
		<line class="st5" x1="1162.7" y1="-1123.4" x2="-105.4" y2="-391.2"/>
		<line class="st5" x1="1149.2" y1="-1131.2" x2="-119" y2="-399.1"/>
		<line class="st5" x1="1135.6" y1="-1139.1" x2="-132.5" y2="-406.9"/>
		<line class="st5" x1="1122.1" y1="-1146.9" x2="-146.1" y2="-414.7"/>
		<line class="st5" x1="1108.5" y1="-1154.7" x2="-159.6" y2="-422.6"/>
		<line class="st5" x1="1095" y1="-1162.5" x2="-173.2" y2="-430.4"/>
		<line class="st5" x1="1081.4" y1="-1170.4" x2="-186.7" y2="-438.2"/>
		<line class="st5" x1="1067.8" y1="-1178.2" x2="-200.3" y2="-446"/>
		<line class="st5" x1="1054.3" y1="-1186" x2="-213.9" y2="-453.9"/>
		<line class="st5" x1="1040.7" y1="-1193.9" x2="-227.4" y2="-461.7"/>
	</g>
</g>
<g id="Layer_3">
</g>
<g>
	<g class="st0">
		<path d="M584.8,91.9l-0.3,0.1c-0.1,0,0,0.1,0.1,0.1l3.1,1.4c0.1,0.1,0.3,0.1,0.4,0.1l0.3-0.1c0.1,0,0-0.1-0.1-0.1l-3.1-1.4
			C585.1,91.9,584.9,91.9,584.8,91.9z"/>
		<g>
			<path d="M600.3,99.5l-14.7-4.9c-0.4-0.1-0.6-0.3-0.6-0.4c0.1-0.2,0.6-0.5,2.4-0.9c1.8-0.3,3-0.3,3.7-0.3c0.4,0,0.8,0.2,1,0.3
				l8.5,6.1C600.9,99.5,600.6,99.6,600.3,99.5z"/>
		</g>
	</g>
	<g>
		<g>
			<path class="st6" d="M585.1,92.1h-0.4c-0.1,0-0.3-0.1-0.3-0.3v-3.5c0-0.1,0.1-0.3,0.3-0.3h0.4c0.1,0,0.3,0.1,0.3,0.3v3.5
				C585.4,92,585.3,92.1,585.1,92.1z"/>
			<path d="M585.1,92.2h-0.4c-0.2,0-0.4-0.2-0.4-0.4v-3.5c0-0.2,0.2-0.4,0.4-0.4h0.4c0.2,0,0.4,0.2,0.4,0.4v3.5
				C585.5,92,585.3,92.2,585.1,92.2z M584.7,88.2C584.6,88.2,584.6,88.3,584.7,88.2l-0.1,3.6c0,0.1,0.1,0.1,0.1,0.1h0.4
				c0.1,0,0.1-0.1,0.1-0.1v-3.5c0-0.1-0.1-0.1-0.1-0.1H584.7z"/>
		</g>
		<g>
			<path class="st7" d="M584.6,74.3l-4.5,12.9c-0.1,0.3,0,0.7,0.3,0.9c0.6,0.3,1.8,0.7,4.4,0.7c2.6,0,3.9-0.4,4.4-0.7
				c0.3-0.2,0.4-0.5,0.3-0.9L585,74.3C585.1,74.1,584.7,74.1,584.6,74.3z"/>
			<path d="M584.9,74.1c0.1,0,0.2,0.1,0.3,0.2l4.5,12.9c0.1,0.3,0,0.7-0.3,0.9c-0.6,0.3-1.8,0.7-4.4,0.7s-3.9-0.4-4.4-0.7
				c-0.3-0.2-0.4-0.5-0.3-0.9l4.5-12.9C584.7,74.2,584.8,74.1,584.9,74.1 M584.9,73.9c-0.2,0-0.4,0.1-0.5,0.4l-4.5,12.9
				c-0.2,0.5,0,0.9,0.4,1.2c0.6,0.3,1.9,0.7,4.6,0.7c2.7,0,3.9-0.4,4.6-0.7c0.4-0.2,0.6-0.7,0.4-1.2l-4.5-12.9
				C585.3,74,585.1,73.9,584.9,73.9L584.9,73.9z"/>
		</g>
		<path class="st8" d="M588.7,88.4c1.1-0.3,1.1-0.8,1-1.1l-4.3-12.5c0-0.1,0.1,3.4,0.7,5.7C587.1,84.5,588.3,88.5,588.7,88.4z"/>
	</g>
</g>
<g>
	<g class="st0">
		<path d="M564.9,106.2l-0.7,0.1c-0.2,0-0.1,0.2,0.2,0.3l6.2,3c0.3,0.1,0.7,0.2,0.8,0.2l0.7-0.1c0.2,0,0.1-0.2-0.2-0.3l-6.2-3
			C565.5,106.3,565.1,106.2,564.9,106.2z"/>
		<g>
			<path d="M596.6,121.7l-29.9-10c-0.8-0.3-1.3-0.6-1.1-0.8c0.2-0.4,1.3-1.1,4.9-1.8c3.7-0.7,6.1-0.7,7.5-0.6c0.7,0.1,1.6,0.4,2,0.7
				l17.3,12.4C597.7,121.8,597.2,121.9,596.6,121.7z"/>
		</g>
	</g>
	<g>
		<g>
			<path class="st6" d="M565.6,106.6h-0.9c-0.3,0-0.5-0.2-0.5-0.5V99c0-0.3,0.2-0.5,0.5-0.5h0.9c0.3,0,0.5,0.2,0.5,0.5v7.1
				C566.1,106.4,565.9,106.6,565.6,106.6z"/>
			<path d="M565.6,106.8h-0.9c-0.4,0-0.6-0.3-0.6-0.6V99c0-0.4,0.3-0.6,0.6-0.6h0.9c0.4,0,0.6,0.3,0.6,0.6v7.1
				C566.2,106.5,565.9,106.8,565.6,106.8z M564.7,98.6c-0.2,0-0.4,0.2-0.4,0.4v7.1c0,0.2,0.2,0.4,0.4,0.4h0.9c0.2,0,0.4-0.2,0.4-0.4
				V99c0-0.2-0.2-0.4-0.4-0.4H564.7z"/>
		</g>
		<g>
			<path class="st7" d="M564.6,70.4l-9.1,26.4c-0.2,0.7,0,1.4,0.7,1.8c1.2,0.6,3.7,1.4,9,1.4s7.9-0.8,9-1.4c0.6-0.3,0.9-1.1,0.7-1.8
				l-9.1-26.4C565.5,69.9,564.8,69.9,564.6,70.4z"/>
			<path d="M565.2,70c0.2,0,0.5,0.1,0.6,0.4l9.1,26.4c0.2,0.7,0,1.4-0.7,1.8c-1.2,0.6-3.7,1.4-9,1.4s-7.9-0.8-9-1.4
				c-0.6-0.3-0.9-1.1-0.7-1.8l9.1-26.4C564.7,70.2,564.9,70,565.2,70 M565.2,69.8c-0.4,0-0.7,0.2-0.8,0.6l-9.1,26.4
				c-0.3,0.8,0,1.7,0.8,2.1c1.2,0.7,3.8,1.5,9.2,1.5s7.9-0.8,9.2-1.5c0.7-0.4,1.1-1.3,0.8-2.1L566,70.3
				C565.8,70,565.5,69.8,565.2,69.8L565.2,69.8z"/>
		</g>
		<path class="st8" d="M572.9,99.2c2.2-0.7,2.2-1.7,2-2.3L566,71.2c-0.1-0.2,0.1,7,1.4,11.7C569.5,91.1,572.1,99.4,572.9,99.2z"/>
	</g>
</g>
<g>
	<g class="st0">
		<path d="M537.1,105.8l-0.4,0.1c-0.1,0-0.1,0.1,0.1,0.2l4,1.9c0.2,0.1,0.4,0.1,0.5,0.1l0.4-0.1c0.1,0,0.1-0.1-0.1-0.2l-4-1.9
			C537.4,105.8,537.2,105.8,537.1,105.8z"/>
		<g>
			<path d="M557.4,115.7l-19.2-6.4c-0.5-0.2-0.8-0.4-0.7-0.5c0.2-0.3,0.8-0.7,3.2-1.1s3.9-0.4,4.8-0.4c0.5,0,1,0.2,1.3,0.4l11.1,7.9
				C558.1,115.8,557.7,115.8,557.4,115.7z"/>
		</g>
	</g>
	<g>
		<g>
			<path class="st6" d="M537.5,106H537c-0.2,0-0.3-0.2-0.3-0.3v-4.5c0-0.2,0.2-0.3,0.3-0.3h0.5c0.2,0,0.3,0.2,0.3,0.3v4.5
				C537.8,105.9,537.7,106,537.5,106z"/>
			<path d="M537.5,106.1H537c-0.3,0-0.5-0.2-0.5-0.5v-4.5c0-0.3,0.2-0.5,0.5-0.5h0.5c0.3,0,0.5,0.2,0.5,0.5v4.5
				C537.9,105.9,537.7,106.1,537.5,106.1z M536.9,100.9c-0.1,0-0.2,0.1-0.2,0.2v4.5c0,0.1,0.1,0.2,0.2,0.2h0.5
				c0.1,0,0.2-0.1,0.2-0.2v-4.5c0-0.1-0.1-0.2-0.2-0.2H536.9z"/>
		</g>
		<g>
			<path class="st7" d="M536.9,82.8L531,99.7c-0.2,0.4,0,0.9,0.4,1.1c0.8,0.4,2.4,0.9,5.8,0.9c3.4,0,5-0.5,5.8-0.9
				c0.4-0.2,0.6-0.7,0.4-1.1l-5.9-16.9C537.5,82.5,537,82.5,536.9,82.8z"/>
			<path d="M537.2,82.6c0.1,0,0.3,0.1,0.4,0.3l5.9,16.9c0.2,0.4,0,0.9-0.4,1.1c-0.8,0.4-2.4,0.9-5.8,0.9s-5-0.5-5.8-0.9
				c-0.4-0.2-0.6-0.7-0.4-1.1l5.9-16.9C536.9,82.6,537.1,82.6,537.2,82.6 M537.2,82.3c-0.3,0-0.5,0.2-0.6,0.4l-5.9,16.9
				c-0.2,0.6,0,1.2,0.5,1.4c0.8,0.4,2.5,0.9,5.9,0.9s5.1-0.5,5.9-0.9c0.5-0.3,0.7-0.9,0.5-1.4l-5.9-16.9
				C537.7,82.5,537.5,82.3,537.2,82.3L537.2,82.3z"/>
		</g>
		<path class="st8" d="M542.2,101.2c1.4-0.4,1.4-1.1,1.3-1.5l-5.7-16.4c0-0.1,0.1,4.5,0.9,7.5C540,96.1,541.6,101.4,542.2,101.2z"/>
	</g>
</g>
<g>
	<g class="st0">
		<path d="M601.3,97.7l-0.4,0.1c-0.1,0-0.1,0.1,0.1,0.2l4,1.9c0.2,0.1,0.4,0.1,0.5,0.1l0.4-0.1c0.1,0,0.1-0.1-0.1-0.2l-4-1.9
			C601.7,97.7,601.5,97.7,601.3,97.7z"/>
		<g>
			<path d="M621.6,107.6l-19.2-6.4c-0.5-0.2-0.8-0.4-0.7-0.5c0.2-0.3,0.8-0.7,3.2-1.1s3.9-0.4,4.8-0.4c0.5,0,1,0.2,1.3,0.4l11.1,7.9
				C622.3,107.7,622,107.7,621.6,107.6z"/>
		</g>
	</g>
	<g>
		<g>
			<path class="st6" d="M601.8,97.9h-0.5c-0.2,0-0.3-0.2-0.3-0.3v-4.5c0-0.2,0.2-0.3,0.3-0.3h0.5c0.2,0,0.3,0.2,0.3,0.3v4.5
				C602.1,97.8,601.9,97.9,601.8,97.9z"/>
			<path d="M601.8,98.1h-0.5c-0.3,0-0.5-0.2-0.5-0.5v-4.5c0-0.3,0.2-0.5,0.5-0.5h0.5c0.3,0,0.5,0.2,0.5,0.5v4.5
				C602.2,97.8,602,98.1,601.8,98.1z M601.2,92.8c-0.1,0-0.2,0.1-0.2,0.2v4.5c0,0.1,0.1,0.2,0.2,0.2h0.5c0.1,0,0.2-0.1,0.2-0.2V93
				c0-0.1-0.1-0.2-0.2-0.2H601.2z"/>
		</g>
		<g>
			<path class="st7" d="M601.1,74.7l-5.9,16.9c-0.2,0.4,0,0.9,0.4,1.1c0.8,0.4,2.4,0.9,5.8,0.9s5-0.5,5.8-0.9
				c0.4-0.2,0.6-0.7,0.4-1.1l-5.9-16.9C601.7,74.4,601.2,74.4,601.1,74.7z"/>
			<path d="M601.5,74.5c0.1,0,0.3,0.1,0.4,0.3l5.9,16.9c0.2,0.4,0,0.9-0.4,1.1c-0.8,0.4-2.4,0.9-5.8,0.9c-3.4,0-5-0.5-5.8-0.9
				c-0.4-0.2-0.6-0.7-0.4-1.1l5.9-16.9C601.2,74.5,601.3,74.5,601.5,74.5 M601.5,74.2c-0.3,0-0.5,0.2-0.6,0.4l-5.9,17
				c-0.2,0.6,0,1.2,0.5,1.4c0.8,0.4,2.5,0.9,5.9,0.9s5.1-0.5,5.9-0.9c0.5-0.3,0.7-0.9,0.5-1.4l-5.9-16.9
				C602,74.4,601.8,74.2,601.5,74.2L601.5,74.2z"/>
		</g>
		<path class="st8" d="M606.4,93.1c1.4-0.4,1.4-1.1,1.3-1.5L602,75.2c0-0.1,0.1,4.5,0.9,7.5C604.3,88,605.9,93.3,606.4,93.1z"/>
	</g>
</g>
<g>
	<g class="st0">
		<path d="M430.9,128.7l-0.5,0.1c-0.1,0-0.1,0.1,0.1,0.2l4.5,2.2c0.2,0.1,0.5,0.2,0.6,0.1l0.5-0.1c0.1,0,0.1-0.1-0.1-0.2l-4.5-2.2
			C431.3,128.8,431.1,128.7,430.9,128.7z"/>
		<g>
			<path d="M454,140l-21.8-7.3c-0.6-0.2-0.9-0.4-0.8-0.6c0.2-0.3,0.9-0.8,3.6-1.3s4.4-0.5,5.5-0.4c0.5,0,1.2,0.3,1.5,0.5l12.6,9
				C454.8,140.1,454.4,140.1,454,140z"/>
		</g>
	</g>
	<g>
		<g>
			<path class="st6" d="M431.4,129h-0.6c-0.2,0-0.4-0.2-0.4-0.4v-5.2c0-0.2,0.2-0.4,0.4-0.4h0.6c0.2,0,0.4,0.2,0.4,0.4v5.2
				C431.8,128.9,431.6,129,431.4,129z"/>
			<path d="M431.4,129.1h-0.6c-0.3,0-0.5-0.2-0.5-0.5v-5.2c0-0.3,0.2-0.5,0.5-0.5h0.6c0.3,0,0.5,0.2,0.5,0.5v5.2
				C431.9,128.9,431.7,129.1,431.4,129.1z M430.8,123.2c-0.1,0-0.3,0.1-0.3,0.3v5.2c0,0.1,0.1,0.3,0.3,0.3h0.6
				c0.1,0,0.3-0.1,0.3-0.3v-5.2c0-0.1-0.1-0.3-0.3-0.3H430.8z"/>
		</g>
		<g>
			<path class="st7" d="M430.7,102.7l-6.7,19.2c-0.2,0.5,0,1,0.5,1.3c0.9,0.5,2.7,1,6.6,1s5.7-0.6,6.6-1c0.5-0.2,0.7-0.8,0.5-1.3
				l-6.7-19.2C431.4,102.3,430.8,102.3,430.7,102.7z"/>
			<path d="M431.1,102.4c0.2,0,0.3,0.1,0.4,0.3l6.7,19.2c0.2,0.5,0,1-0.5,1.3c-0.9,0.5-2.7,1-6.6,1s-5.7-0.6-6.6-1
				c-0.5-0.2-0.7-0.8-0.5-1.3l6.7-19.2C430.7,102.5,430.9,102.4,431.1,102.4 M431.1,102.1c-0.3,0-0.5,0.2-0.6,0.5l-6.7,19.2
				c-0.2,0.6,0,1.3,0.6,1.6c0.9,0.5,2.8,1.1,6.7,1.1c3.9,0,5.8-0.6,6.7-1.1c0.6-0.3,0.8-1,0.6-1.6l-6.7-19.2
				C431.6,102.3,431.4,102.1,431.1,102.1L431.1,102.1z"/>
		</g>
		<path class="st8" d="M436.7,123.6c1.6-0.5,1.6-1.2,1.5-1.7l-6.5-18.6c0-0.1,0.1,5.1,1,8.5C434.3,117.7,436.1,123.8,436.7,123.6z"
			/>
	</g>
</g>
<g class="st0">
	<polygon points="249.2,68 276.7,84.3 275.7,84.9 248.6,68.9 	"/>
</g>
<g class="st0">
	<polygon points="830.9,110.9 858.2,127 857.1,127.6 830.3,111.8 	"/>
</g>
<linearGradient id="SVGID_1_" gradientUnits="userSpaceOnUse" x1="0" y1="98.8553" x2="1058.2" y2="98.8553" gradientTransform="matrix(1 0 0 -1 0 196)">
	<stop  offset="0" style="stop-color:#FFFFFF"/>
	<stop  offset="0.25" style="stop-color:#2980B9"/>
	<stop  offset="0.75" style="stop-color:#95C0DC"/>
	<stop  offset="1" style="stop-color:#FFFFFF"/>
</linearGradient>
<path class="st9" d="M0,8.7c15.3-7.9,37.3-15.2,61.6,1l88.9,51.8c15.8,9.1,35.4,9.1,51.2,0l0,0c36.7-21.2,81.9-21.2,118.6,0l25.9,15
	c45.4,26.2,101.4,26.2,146.9,0l8.7-5c46.8-27,104.4-27,151.2,0l72.6,41.9c36.7,21.2,81.9,21.2,118.6,0l19.1-11
	c34-19.7,76-19.7,110,0l23.7,13.7c13.9,8,13.9,28,0,36l-2.2,1.3c-6.7,3.9-6.7,13.6,0,17.5l4,2.3c18.4,10.6,41,10.6,59.4,0v14
	c-19.7,10-43.2,9.4-62.5-1.8l-10.6-6.1c-13.2-7.6-13.2-26.7,0-34.3l1.9-1.1c7.5-4.3,7.5-15.2,0-19.5l-21.7-12.5
	c-29-16.7-64.7-16.7-93.7,0l-27.4,15.8c-36.6,21.1-81.7,21.1-118.3,0l-79.6-46c-42.6-24.6-95-24.8-137.7-0.5l-10.4,6
	c-48.5,28.3-108.4,28.5-157,0.4l-27.9-16.1c-32.3-18.6-72-18.6-104.2,0.2l0,0c-20.1,11.7-45,11.8-65.1,0.1L50.4,17.2
	C34.1,6.9,18.7,11.8,0,22.6V8.7z"/>
<g>
	<g>
		<polygon class="st7" points="248.8,68.9 248.8,43 249.9,43.6 249.9,68.9 		"/>
		<path d="M250,69h-1.3V42.8l1.3,0.8V69z M248.9,68.7h0.8v-25l-0.8-0.5V68.7z"/>
	</g>
	<g>
		<path class="st7" d="M254.6,45c0,3.4-2.4,4.7-5.3,3s-5.3-5.8-5.3-9.1s2.4-4.7,5.3-3S254.6,41.7,254.6,45z"/>
		<path d="M251.7,48.9c-0.7,0-1.6-0.2-2.4-0.7c-3-1.7-5.4-5.8-5.4-9.2c0-1.7,0.6-2.9,1.6-3.5s2.4-0.5,3.9,0.4c3,1.7,5.4,5.8,5.4,9.2
			c0,1.7-0.6,2.9-1.6,3.5C252.7,48.8,252.2,48.9,251.7,48.9z M247,35.3c-0.5,0-0.9,0.1-1.3,0.3c-1,0.5-1.5,1.7-1.5,3.3
			c0,3.3,2.3,7.4,5.2,9c1.4,0.8,2.7,0.9,3.6,0.4c1-0.5,1.5-1.7,1.5-3.3c0-3.3-2.3-7.4-5.2-9C248.4,35.5,247.7,35.3,247,35.3z"/>
	</g>
</g>
<g>
	<g>
		<polygon class="st7" points="830.3,111.8 830.3,86 831.4,86.6 831.4,111.8 		"/>
		<path d="M831.5,112h-1.3V85.8l1.3,0.8V112z M830.4,111.7h0.8v-25l-0.8-0.5V111.7z"/>
	</g>
	<g>
		<polygon class="st7" points="830.8,78.8 824.6,87.6 837.1,94.8 		"/>
		<path d="M837.3,95.1l-12.9-7.4l0.1-0.1l6.4-9l0.1,0.2L837.3,95.1z M824.8,87.5l12,6.9l-6-15.4L824.8,87.5z"/>
	</g>
</g>
<linearGradient id="SVGID_2_" gradientUnits="userSpaceOnUse" x1="320" y1="88.8625" x2="727.3" y2="88.8625">
	<stop  offset="4.458984e-02" style="stop-color:#2980B9;stop-opacity:0"/>
	<stop  offset="0.2405" style="stop-color:#2980B9;stop-opacity:0.6"/>
	<stop  offset="1" style="stop-color:#81C750"/>
</linearGradient>
<path class="st10" d="M725.3,121.8l-72.6-41.9c-46-26.6-103.2-26.6-149.2,0l-8.7,5c-45.9,26.5-103,26.5-148.9,0l-25.9-15l2-3.5
	l25.9,15c44.7,25.8,100.2,25.8,144.9,0l8.7-5c47.2-27.3,105.9-27.3,153.2,0l72.6,41.9L725.3,121.8z"/>
<g>
	<g>
		<polygon class="st11" points="708.5,117.5 709.6,117 712.4,113.9 710.4,112.9 708.8,114.3 708.3,116.6 		"/>
		<path d="M708.5,117.6C708.5,117.6,708.4,117.6,708.5,117.6C708.4,117.6,708.4,117.5,708.5,117.6l-0.3-1c0,0,0,0,0-0.1l0.5-2.3
			c0,0,0,0,0-0.1l1.7-1.4h0.1l2,1l0.1,0.1v0.1l-2.8,3.1l0,0L708.5,117.6L708.5,117.6z M708.4,116.6l0.2,0.7l0.9-0.5l2.7-2.9
			l-1.7-0.9l-1.6,1.4L708.4,116.6z"/>
	</g>
	<g>
		<polyline points="711.9,120.9 713.7,120 714.4,115.8 713.3,114 712.3,113.7 710.8,114 		"/>
		<path d="M711.9,121C711.9,121,711.8,121,711.9,121c-0.1-0.2-0.1-0.2,0-0.3l1.8-0.9l0.7-4.1l-1.1-1.7l-1-0.3l-1.4,0.3
			c-0.1,0-0.1,0-0.1-0.1s0-0.1,0.1-0.1l1.5-0.3l1.1,0.3l0,0l1.2,1.9L714,120h-0.1L711.9,121L711.9,121z"/>
	</g>
	<g>
		<path class="st12" d="M709.6,117c0.1,1.8,0.6,3,1.6,3.5s1.9-0.9,1.9-2.7c0-1.5-0.4-2.9-1.5-3.5C710.4,113.6,709.5,115.1,709.6,117
			z"/>
		<path d="M711.6,121.1c-0.2,0-0.4-0.1-0.7-0.2c-1.2-0.6-1.8-1.9-1.9-3.9l0,0c0-1.4,0.4-2.6,1.2-3.1c0.5-0.3,1-0.3,1.6,0
			c1.1,0.6,1.7,2,1.7,3.9c0,1.4-0.5,2.6-1.2,3.1C712.1,121,711.8,121.1,711.6,121.1z M710.1,116.9c0.1,1.7,0.5,2.7,1.3,3.1
			c0.2,0.1,0.3,0.1,0.4,0c0.4-0.2,0.8-1.1,0.8-2.2c0-1.5-0.5-2.6-1.2-3c-0.3-0.2-0.4-0.1-0.6,0C710.4,115,710,115.8,710.1,116.9
			L710.1,116.9z"/>
	</g>
	<g>
		<polygon class="st11" points="724.8,126.9 725.9,126.4 728.7,123.3 726.8,122.3 725.1,123.7 724.6,126 		"/>
		<path d="M724.8,127.1L724.8,127.1C724.7,127.1,724.7,127,724.8,127.1l-0.3-1c0,0,0,0,0-0.1l0.5-2.3c0,0,0,0,0-0.1l1.7-1.4h0.1l2,1
			l0.1,0.1v0.1l-2.8,3.1l0,0L724.8,127.1L724.8,127.1z M724.7,126l0.2,0.7l0.9-0.5l2.7-2.9l-1.7-0.9l-1.6,1.4L724.7,126z"/>
	</g>
	<g>
		<polyline points="728.4,130.3 730,129.5 730.8,125.3 729.6,123.5 728.6,123.2 727.1,123.4 		"/>
		<path d="M728.4,130.4c0,0-0.1,0-0.1-0.1c0-0.1,0-0.1,0.1-0.2l1.6-0.8l0.7-4.1l-1.1-1.7l-1-0.3l-1.4,0.3c-0.1,0-0.1,0-0.1-0.1
			s0-0.1,0.1-0.1l1.5-0.3l0,0l1.1,0.3l0,0l1.2,1.9l-0.7,4.3L728.4,130.4C728.5,130.4,728.5,130.4,728.4,130.4z"/>
	</g>
	<g>
		<path class="st13" d="M744,123.9v-3.8c0-2-1.1-3.9-2.8-4.9l-3.3-1.9L736,105l-10.3-5.8l-12.2,7.1l10.3,5.8l1.9,8.3l3.3,1.9
			c1.7,1,2.8,2.9,2.8,4.9v3.8L744,123.9z"/>
		<path d="M731.8,131.1C731.8,131.1,731.7,131.1,731.8,131.1c-0.1,0-0.1-0.1-0.1-0.1v-3.8c0-2-1.1-3.8-2.8-4.8l-3.3-1.9
			c0,0-0.1,0-0.1-0.1l-1.9-8.2l-10.3-5.8l-0.1-0.1c0,0,0-0.1,0.1-0.1l12.2-7.1h0.1l10.3,5.8c0,0,0.1,0,0.1,0.1l1.9,8.2l3.3,1.9
			c1.8,1,2.9,2.9,2.9,5v3.8c0,0,0,0.1-0.1,0.1L731.8,131.1L731.8,131.1z M725.8,120.3l3.3,1.9c1.8,1,2.9,2.9,2.9,5v3.6l12-6.9v-3.7
			c0-2-1.1-3.8-2.8-4.8l-3.3-1.9c0,0-0.1,0-0.1-0.1l-1.9-8.2l-10.2-5.8l-12,6.9l10.2,5.7c0,0,0.1,0,0.1,0.1L725.8,120.3z"/>
	</g>
	<g>
		<line class="st14" x1="737.9" y1="113.3" x2="725.7" y2="120.4"/>
		<rect x="724.7" y="116.7" transform="matrix(0.8663 -0.4995 0.4995 0.8663 39.4328 381.1216)" width="14.1" height="0.3"/>
	</g>
	<g>
		<line class="st14" x1="736" y1="105" x2="723.8" y2="112.1"/>
		<rect x="722.8" y="108.4" transform="matrix(0.8663 -0.4995 0.4995 0.8663 43.3252 379.0611)" width="14.1" height="0.3"/>
	</g>
	<g>
		<path class="st15" d="M725.7,99.2l-3.7,0.1c-0.6,0-1.1,0.2-1.6,0.4l-11.8,6.6l4.8-0.1L725.7,99.2z"/>
		<path d="M708.6,106.5C708.5,106.5,708.5,106.5,708.6,106.5c-0.1-0.2-0.1-0.2,0-0.2l11.8-6.6c0.5-0.3,1.1-0.4,1.7-0.5l3.7-0.1l0,0
			c0.1,0,0.1,0,0.1,0.1s0,0.1-0.1,0.1l-12.2,7.1c0,0,0,0-0.1,0L708.6,106.5L708.6,106.5z M725.2,99.3l-3.2,0.1
			c-0.6,0-1.1,0.2-1.6,0.4l-11.4,6.4l4.3-0.1L725.2,99.3z"/>
	</g>
	<g>
		<path class="st7" d="M731.8,131c0,0-1.2-0.7-1.8-1.1c1-4.8-1-6.3-2-6.8s-2.7-0.1-3.2,3.8c-0.4-0.3-6.6-3.8-11.3-6.5
			c0.9-3.8-0.1-5.9-1.4-6.7c-1.3-0.7-3.4,0-3.7,3.7c-0.4-0.2-1.2-0.7-1.2-0.7v-8.4c0-1.4,1.2-2.5,2.6-2.4l3.6,0.2l10.3,5.8l1.9,8.3
			l3.3,1.9c1.7,1,2.8,2.9,2.8,4.9v4H731.8z"/>
		<path d="M731.8,131.1C731.8,131.1,731.7,131.1,731.8,131.1l-1.9-1.1l-0.1-0.1c0.9-4.7-1-6.2-1.9-6.6c-0.4-0.2-0.9-0.2-1.4,0.1
			c-0.6,0.3-1.3,1.2-1.6,3.6c0,0,0,0.1-0.1,0.1h-0.1l-11.3-6.5l-0.1-0.1c0.9-3.7-0.1-5.8-1.3-6.5c-0.5-0.3-1.2-0.3-1.8,0
			s-1.5,1.2-1.7,3.6c0,0,0,0.1-0.1,0.1s-0.1,0-0.1,0c-0.4-0.2-1.2-0.7-1.2-0.7l-0.1-0.1v-8.4c0-0.7,0.3-1.4,0.8-1.9s1.2-0.7,1.9-0.7
			l3.6,0.2c0,0,0,0,0.1,0l10.3,5.8c0,0,0.1,0,0.1,0.1l1.9,8.2l3.3,1.9c1.8,1,2.9,2.9,2.9,5v3.8C731.9,131,731.9,131,731.8,131.1
			L731.8,131.1z M730.1,129.8l1.6,0.9v-3.6c0-2-1.1-3.8-2.8-4.8l-3.3-1.9c0,0-0.1,0-0.1-0.1l-1.9-8.2l-10.3-5.8l-3.5-0.2
			c-0.6,0-1.2,0.2-1.7,0.6s-0.7,1-0.7,1.7v8.3c0.2,0.1,0.6,0.3,0.9,0.5c0.2-2.4,1.2-3.3,1.8-3.6c0.6-0.4,1.4-0.3,2,0
			c1.3,0.8,2.4,2.9,1.5,6.7l11,6.4c0.3-2.3,1.1-3.3,1.7-3.6c0.5-0.3,1.1-0.3,1.6-0.1C729,123.5,731,125,730.1,129.8z"/>
	</g>
	<g>
		<path class="st12" d="M725.9,126.4c0.1,1.8,0.6,3,1.6,3.5s1.9-0.9,1.9-2.7c0-1.5-0.4-2.9-1.5-3.5
			C726.7,123.1,725.8,124.6,725.9,126.4z"/>
		<path d="M727.9,130.5c-0.2,0-0.4-0.1-0.7-0.2c-1.2-0.6-1.8-1.9-1.9-3.9c0-1.4,0.4-2.6,1.2-3.1c0.5-0.3,1-0.3,1.6,0
			c1.1,0.6,1.7,2,1.7,3.9c0,1.4-0.5,2.6-1.2,3.1C728.4,130.4,728.2,130.5,727.9,130.5z M727.3,124.1c-0.1,0-0.2,0-0.2,0.1
			c-0.4,0.2-0.8,1.1-0.7,2.2c0.1,1.7,0.5,2.7,1.3,3.1c0.2,0.1,0.3,0.1,0.4,0c0.4-0.2,0.8-1.1,0.8-2.2c0-1.5-0.5-2.6-1.2-3
			C727.5,124.1,727.4,124.1,727.3,124.1z"/>
	</g>
	<g>
		<polygon class="st16" points="723.2,112.7 724.9,119.9 719.2,116.6 719.2,110.4 		"/>
		<path d="M724.9,120.1L724.9,120.1l-5.8-3.4l-0.1-0.1v-6.2c0,0,0-0.1,0.1-0.1h0.1l4,2.3c0,0,0.1,0,0.1,0.1l1.7,7.2
			C725.1,120,725,120,724.9,120.1C725,120.1,725,120.1,724.9,120.1z M719.4,116.5l5.4,3.2l-1.6-6.9l-3.8-2.2L719.4,116.5
			L719.4,116.5z"/>
	</g>
	<g>
		<polygon class="st16" points="718.4,109.9 718.4,116.1 712.7,112.7 712.7,106.9 713.5,107 		"/>
		<path d="M718.4,116.2L718.4,116.2l-5.8-3.4l-0.1-0.1v-5.8v-0.1h0.1l0.8,0.1l0,0l4.9,2.8l0.1,0.1v6.2
			C718.5,116.1,718.5,116.2,718.4,116.2L718.4,116.2z M712.8,112.6l5.5,3.2v-5.9l-4.8-2.8l-0.6-0.1v5.6H712.8z"/>
	</g>
	<g>
		<path class="st16" d="M711.9,106.8v5.6l-4.1-2.4c0,0-0.1-1.8,0.2-2.3c0.4-0.8,1.3-1.1,1.3-1.1L711.9,106.8z"/>
		<path d="M711.9,112.5L711.9,112.5l-4.1-2.4l-0.1-0.1c0-0.1,0-1.8,0.2-2.4c0.4-0.9,1.4-1.1,1.4-1.1l0,0l2.5,0.2
			c0.1,0,0.1,0.1,0.1,0.1v5.6C712.1,112.5,712,112.5,711.9,112.5C712,112.5,712,112.5,711.9,112.5z M708,110l3.8,2.2V107l-2.4-0.2
			c-0.1,0-0.9,0.3-1.2,1C708,108.1,708,109.4,708,110z"/>
	</g>
	<g>
		<polygon class="st16" points="735.7,106 737.3,113.1 726.2,119.6 724.4,112.5 		"/>
		<path d="M726.2,119.7C726.2,119.7,726.1,119.7,726.2,119.7C726.1,119.7,726.1,119.6,726.2,119.7l-1.9-7.2c0-0.1,0-0.1,0.1-0.1
			l11.3-6.5h0.1c0,0,0.1,0,0.1,0.1l1.7,7.1c0,0.1,0,0.1-0.1,0.1L726.2,119.7L726.2,119.7z M724.5,112.6l1.7,6.8l10.9-6.3l-1.6-6.8
			L724.5,112.6z"/>
	</g>
	<g>
		<ellipse class="st16" cx="742.3" cy="122.1" rx="0.7" ry="1.1"/>
		<path d="M742.3,123.4c-0.5,0-0.9-0.6-0.9-1.3s0.4-1.3,0.9-1.3s0.9,0.6,0.9,1.3S742.8,123.4,742.3,123.4z M742.3,121.1
			c-0.3,0-0.6,0.5-0.6,1s0.3,1,0.6,1s0.6-0.5,0.6-1S742.6,121.1,742.3,121.1z"/>
	</g>
	<g>
		<ellipse class="st16" cx="733.9" cy="127.2" rx="0.7" ry="1.1"/>
		<path d="M733.9,128.4c-0.5,0-0.9-0.6-0.9-1.3s0.4-1.3,0.9-1.3s0.9,0.6,0.9,1.3S734.4,128.4,733.9,128.4z M733.9,126.1
			c-0.3,0-0.6,0.5-0.6,1s0.3,1,0.6,1s0.6-0.5,0.6-1S734.2,126.1,733.9,126.1z"/>
	</g>
	<path d="M732.9,115.5C732.8,115.5,732.8,115.5,732.9,115.5c-0.1-0.1-0.1-0.2-0.1-0.2s0.9-1,2.3-1.5c1.4-0.5,2.7,0.1,2.7,0.1
		c0.1,0,0.1,0.1,0.1,0.2s-0.1,0.1-0.2,0.1c0,0-1.2-0.5-2.5-0.1S733,115.4,732.9,115.5L732.9,115.5z"/>
	<path d="M727.4,118.7C727.4,118.7,727.4,118.6,727.4,118.7c-0.1-0.1-0.1-0.2-0.1-0.2s0.9-1,2.3-1.5c1.4-0.5,2.7,0.1,2.7,0.1
		c0.1,0,0.1,0.1,0.1,0.2s-0.1,0.1-0.2,0.1c0,0-1.2-0.5-2.5-0.1S727.5,118.6,727.4,118.7C727.5,118.6,727.5,118.7,727.4,118.7z"/>
	<path class="st17" d="M726.8,126.6c0,0.8,0.3,1.4,0.7,1.6c0.5,0.2,0.9-0.4,0.9-1.2c0-0.7-0.2-1.3-0.7-1.6
		C727.2,125.1,726.8,125.8,726.8,126.6z"/>
	<path class="st17" d="M710.5,117.2c0,0.8,0.3,1.4,0.7,1.6c0.5,0.2,0.9-0.4,0.9-1.2c0-0.7-0.2-1.3-0.7-1.6
		C710.9,115.7,710.5,116.3,710.5,117.2z"/>
	<g>
		<polygon class="st18" points="736,105 725.7,99.2 713.4,106.2 723.8,112.1 		"/>
		<path d="M723.8,112.2C723.7,112.2,723.7,112.2,723.8,112.2l-10.4-5.8l-0.1-0.1c0,0,0-0.1,0.1-0.1l12.2-7.1h0.1l10.3,5.8l0.1,0.1
			c0,0,0,0.1-0.1,0.1L723.8,112.2L723.8,112.2z M713.7,106.2l10.1,5.7l12-6.9l-10.1-5.7L713.7,106.2z"/>
	</g>
</g>
<path class="st7" d="M725,45.5c-8.5,0-15.4,6.9-15.4,15.4c0,0.6,0,1.2,0.1,1.7c0.9,7.7,15.3,32.9,15.3,32.9s14.6-25.3,15.3-33.1
	c0.1-0.5,0.1-1,0.1-1.6C740.4,52.4,733.5,45.5,725,45.5z M724.8,71.2c-5.7,0-10.3-4.6-10.3-10.3s4.6-10.3,10.3-10.3
	c5.7,0,10.3,4.6,10.3,10.3S730.5,71.2,724.8,71.2z"/>
<path class="st19" d="M336.3,105.7l7.4-4.3c0.1-0.1,0.2-0.2,0.2-0.3V83.5c0-0.1-0.1-0.3-0.2-0.3l-7.4-4.3c-0.1-0.1-0.3-0.1-0.4,0
	l-7.4,4.3c-0.1,0.1-0.2,0.2-0.2,0.3V101c0,0.1,0.1,0.3,0.2,0.3l7.4,4.3C336,105.7,336.2,105.7,336.3,105.7z"/>
<path class="st20" d="M343.6,83.5l-7.4,4.2c0,0-0.1,0-0.1,0l-7.6-4.3c-0.1-0.1-0.1-0.3,0-0.3l7.4-4.3c0.1-0.1,0.3-0.1,0.4,0l7.2,4.2
	C343.7,83.1,343.7,83.4,343.6,83.5z"/>
<line class="st21" x1="336.2" y1="87.7" x2="336.2" y2="105.7"/>
<path class="st22" d="M323.1,113.4l7.4-4.3c0.1-0.1,0.2-0.2,0.2-0.3v-25c0-0.1-0.1-0.3-0.2-0.3l-7.4-4.3c-0.1-0.1-0.3-0.1-0.4,0
	l-7.4,4.3c-0.1,0.1-0.2,0.2-0.2,0.3v25c0,0.1,0.1,0.3,0.2,0.3l7.4,4.3C322.8,113.4,323,113.4,323.1,113.4z"/>
<path class="st23" d="M330.3,83.7L323,88c0,0-0.1,0-0.1,0l-7.6-4.3c-0.1-0.1-0.1-0.3,0-0.3l7.4-4.3c0.1-0.1,0.3-0.1,0.4,0l7.2,4.2
	C330.5,83.4,330.5,83.6,330.3,83.7z"/>
<line class="st21" x1="322.9" y1="88" x2="322.9" y2="113.4"/>
<path class="st19" d="M654.2,60.2l-7.7-4.5c-0.1-0.1-0.2-0.2-0.2-0.4V37.1c0-0.1,0.1-0.3,0.2-0.4l7.7-4.5c0.1-0.1,0.3-0.1,0.4,0
	l7.7,4.5c0.1,0.1,0.2,0.2,0.2,0.4v18.3c0,0.1-0.1,0.3-0.2,0.4l-7.7,4.5C654.5,60.3,654.3,60.3,654.2,60.2z"/>
<path class="st20" d="M646.6,37.1l7.7,4.4c0,0,0.1,0,0.1,0l7.9-4.5c0.1-0.1,0.1-0.3,0-0.4l-7.7-4.4c-0.1-0.1-0.3-0.1-0.4,0l-7.5,4.3
	C646.4,36.7,646.4,37,646.6,37.1z"/>
<line class="st21" x1="654.3" y1="41.6" x2="654.3" y2="60.3"/>
<path class="st0" d="M662.5,55.6l15,8.7c0.5,0.3,0.5,1.1,0,1.4l-6.6,3.8c-0.3,0.1-0.6,0.1-0.8,0l-15.8-9.2L662.5,55.6z"/>
<path class="st22" d="M667.9,68.2l-7.7-4.5c-0.1-0.1-0.2-0.2-0.2-0.4v-26c0-0.1,0.1-0.3,0.2-0.4l7.7-4.5c0.1-0.1,0.3-0.1,0.4,0
	l7.7,4.5c0.1,0.1,0.2,0.2,0.2,0.4v26c0,0.1-0.1,0.3-0.2,0.4l-7.7,4.5C668.2,68.3,668.1,68.3,667.9,68.2z"/>
<path class="st23" d="M660.4,37.4l7.7,4.4c0,0,0.1,0,0.1,0l7.9-4.5c0.1-0.1,0.1-0.3,0-0.4l-7.7-4.4c-0.1-0.1-0.3-0.1-0.4,0l-7.5,4.3
	C660.2,37,660.2,37.3,660.4,37.4z"/>
<line class="st21" x1="668.1" y1="41.9" x2="668.1" y2="68.3"/>
<path class="st0" d="M676.3,63.6l15,8.7c0.5,0.3,0.5,1.1,0,1.4l-6.6,3.8c-0.3,0.1-0.6,0.1-0.8,0l-15.8-9.2L676.3,63.6z"/>
<path class="st24" d="M683.1,76.8l-7.7-4.5c-0.1-0.1-0.2-0.2-0.2-0.4V38.2c0-0.1,0.1-0.3,0.2-0.4l7.7-4.5c0.1-0.1,0.3-0.1,0.4,0
	l7.7,4.5c0.1,0.1,0.2,0.2,0.2,0.4V72c0,0.1-0.1,0.3-0.2,0.4l-7.7,4.5C683.4,76.9,683.2,76.9,683.1,76.8z"/>
<path class="st25" d="M675.6,38.2l7.7,4.4c0,0,0.1,0,0.1,0l7.9-4.5c0.1-0.1,0.1-0.3,0-0.4l-7.7-4.4c-0.1-0.1-0.3-0.1-0.4,0l-7.5,4.3
	C675.4,37.8,675.4,38.1,675.6,38.2z"/>
<line class="st21" x1="683.3" y1="42.7" x2="683.3" y2="76.8"/>
<path class="st0" d="M691.4,72.2l15,8.7c0.5,0.3,0.5,1.1,0,1.4l-6.6,3.8c-0.3,0.1-0.6,0.1-0.8,0l-15.8-9.2L691.4,72.2z"/>
<path class="st19" d="M309.4,121.1l7.4-4.3c0.1-0.1,0.2-0.2,0.2-0.3V98.9c0-0.1-0.1-0.3-0.2-0.3l-7.4-4.3c-0.1-0.1-0.3-0.1-0.4,0
	l-7.4,4.3c-0.1,0.1-0.2,0.2-0.2,0.3v17.6c0,0.1,0.1,0.3,0.2,0.3l7.4,4.3C309.2,121.1,309.3,121.1,309.4,121.1z"/>
<path class="st20" d="M316.7,98.9l-7.4,4.2c0,0-0.1,0-0.1,0l-7.6-4.3c-0.1-0.1-0.1-0.3,0-0.3l7.4-4.3c0.1-0.1,0.3-0.1,0.4,0l7.2,4.2
	C316.9,98.5,316.9,98.8,316.7,98.9z"/>
<line class="st21" x1="309.3" y1="103.1" x2="309.3" y2="121.1"/>
<g>
	<g class="st0">
		<path d="M421.8,71.2l-0.7,0.1c-0.2,0-0.1,0.2,0.2,0.3l6.2,3c0.3,0.1,0.7,0.2,0.8,0.2l0.7-0.1c0.2,0,0.1-0.2-0.2-0.3l-6.2-3
			C422.3,71.3,422,71.2,421.8,71.2z"/>
		<g>
			<path d="M453.4,86.7l-29.9-10c-0.8-0.3-1.3-0.6-1.1-0.8c0.2-0.4,1.3-1.1,4.9-1.8c3.7-0.7,6.1-0.7,7.5-0.6c0.7,0.1,1.6,0.4,2,0.7
				l17.3,12.4C454.5,86.8,454,86.9,453.4,86.7z"/>
		</g>
	</g>
	<g>
		<g>
			<path class="st6" d="M422.4,71.6h-0.9c-0.3,0-0.5-0.2-0.5-0.5V64c0-0.3,0.2-0.5,0.5-0.5h0.9c0.3,0,0.5,0.2,0.5,0.5v7.1
				C422.9,71.4,422.7,71.6,422.4,71.6z"/>
			<path d="M422.4,71.7h-0.9c-0.4,0-0.6-0.3-0.6-0.6V64c0-0.4,0.3-0.6,0.6-0.6h0.9c0.4,0,0.6,0.3,0.6,0.6v7.1
				C423.1,71.4,422.8,71.7,422.4,71.7z M421.6,63.6c-0.2,0-0.4,0.2-0.4,0.4v7.1c0,0.2,0.2,0.4,0.4,0.4h0.9c0.2,0,0.4-0.2,0.4-0.4V64
				c0-0.2-0.2-0.4-0.4-0.4C422.5,63.6,421.6,63.6,421.6,63.6z"/>
		</g>
		<g>
			<path class="st7" d="M421.4,35.4l-9.1,26.4c-0.2,0.7,0,1.4,0.7,1.8c1.2,0.6,3.7,1.4,9,1.4s7.9-0.8,9-1.4c0.6-0.3,0.9-1.1,0.7-1.8
				l-9.1-26.4C422.4,34.9,421.6,34.9,421.4,35.4z"/>
			<path d="M422,35c0.2,0,0.5,0.1,0.6,0.4l9.1,26.4c0.2,0.7,0,1.4-0.7,1.8c-1.2,0.6-3.7,1.4-9,1.4s-7.9-0.8-9-1.4
				c-0.6-0.3-0.9-1.1-0.7-1.8l9.1-26.4C421.5,35.1,421.8,35,422,35 M422,34.7c-0.4,0-0.7,0.2-0.8,0.6l-9.1,26.4
				c-0.3,0.8,0,1.7,0.8,2.1c1.2,0.7,3.8,1.5,9.2,1.5c5.4,0,7.9-0.8,9.2-1.5c0.7-0.4,1.1-1.3,0.8-2.1l-9.3-26.4
				C422.7,35,422.4,34.7,422,34.7L422,34.7z"/>
		</g>
		<path class="st8" d="M429.7,64.1c2.2-0.7,2.2-1.7,2-2.3l-8.9-25.6c-0.1-0.2,0.1,7,1.4,11.7C426.4,56.1,428.9,64.4,429.7,64.1z"/>
	</g>
</g>
<g>
	<g class="st0">
		<path d="M447.8,57.1l-0.6,0.1c-0.2,0-0.1,0.1,0.2,0.3l5.5,2.6c0.2,0.1,0.6,0.2,0.7,0.2l0.6-0.1c0.2,0,0.1-0.1-0.2-0.3l-5.5-2.6
			C448.3,57.1,448,57,447.8,57.1z"/>
		<g>
			<path d="M475.6,70.6l-26.3-8.8c-0.7-0.2-1.1-0.5-1-0.7c0.2-0.4,1.1-1,4.3-1.6c3.2-0.6,5.4-0.6,6.6-0.5c0.6,0.1,1.4,0.3,1.8,0.6
				l15.2,10.9C476.6,70.7,476.2,70.8,475.6,70.6z"/>
		</g>
	</g>
	<g>
		<g>
			<path class="st6" d="M448.4,57.4h-0.8c-0.3,0-0.5-0.2-0.5-0.5v-6.2c0-0.3,0.2-0.5,0.5-0.5h0.8c0.3,0,0.5,0.2,0.5,0.5v6.2
				C448.8,57.2,448.6,57.4,448.4,57.4z"/>
			<path d="M448.4,57.5h-0.8c-0.3,0-0.6-0.3-0.6-0.6v-6.2c0-0.3,0.3-0.6,0.6-0.6h0.8c0.3,0,0.6,0.3,0.6,0.6v6.2
				C449,57.3,448.7,57.5,448.4,57.5z M447.6,50.4c-0.2,0-0.3,0.2-0.3,0.3v6.2c0,0.2,0.1,0.3,0.3,0.3h0.8c0.2,0,0.3-0.2,0.3-0.3v-6.2
				c0-0.2-0.1-0.3-0.3-0.3H447.6z"/>
		</g>
		<g>
			<path class="st7" d="M447.5,25.6l-8,23.2c-0.2,0.6,0,1.3,0.6,1.6c1,0.6,3.3,1.3,7.9,1.3s6.9-0.7,7.9-1.3c0.6-0.3,0.8-1,0.6-1.6
				l-8-23.2C448.3,25.1,447.7,25.1,447.5,25.6z"/>
			<path d="M448,25.2c0.2,0,0.4,0.1,0.5,0.3l8,23.2c0.2,0.6,0,1.3-0.6,1.6c-1,0.6-3.3,1.3-7.9,1.3s-6.9-0.7-7.9-1.3
				c-0.6-0.3-0.8-1-0.6-1.6l8-23.2C447.6,25.3,447.8,25.2,448,25.2 M448,25c-0.3,0-0.6,0.2-0.7,0.5l-8,23.2c-0.3,0.7,0,1.5,0.7,1.9
				c1.1,0.6,3.3,1.3,8.1,1.3c4.7,0,7-0.7,8.1-1.3c0.7-0.4,1-1.1,0.7-1.9l-8-23.2C448.6,25.2,448.3,25,448,25L448,25z"/>
		</g>
		<path class="st8" d="M454.8,50.8c1.9-0.6,2-1.5,1.8-2l-7.8-22.5c-0.1-0.2,0.1,6.2,1.2,10.3C451.9,43.8,454.1,51,454.8,50.8z"/>
	</g>
</g>
<g>
	<g class="st0">
		<path d="M383.4,58.5l-0.4,0.1c-0.1,0-0.1,0.1,0.1,0.2l4,1.9c0.2,0.1,0.4,0.1,0.5,0.1l0.4-0.1c0.1,0,0.1-0.1-0.1-0.2l-4-1.9
			C383.7,58.5,383.5,58.4,383.4,58.5z"/>
		<g>
			<path d="M403.7,68.4L384.5,62c-0.5-0.2-0.8-0.4-0.7-0.5c0.2-0.3,0.8-0.7,3.2-1.1c2.4-0.4,3.9-0.4,4.8-0.4c0.5,0,1,0.2,1.3,0.4
				l11.1,7.9C404.4,68.4,404,68.5,403.7,68.4z"/>
		</g>
	</g>
	<g>
		<g>
			<path class="st6" d="M383.8,58.7h-0.5c-0.2,0-0.3-0.2-0.3-0.3v-4.5c0-0.2,0.2-0.3,0.3-0.3h0.5c0.2,0,0.3,0.2,0.3,0.3v4.5
				C384.1,58.6,384,58.7,383.8,58.7z"/>
			<path d="M383.8,58.8h-0.5c-0.3,0-0.5-0.2-0.5-0.5v-4.5c0-0.3,0.2-0.5,0.5-0.5h0.5c0.3,0,0.5,0.2,0.5,0.5v4.5
				C384.2,58.6,384,58.8,383.8,58.8z M383.2,53.6c-0.1,0-0.2,0.1-0.2,0.2v4.5c0,0.1,0.1,0.2,0.2,0.2h0.5c0.1,0,0.2-0.1,0.2-0.2v-4.5
				c0-0.1-0.1-0.2-0.2-0.2H383.2z"/>
		</g>
		<g>
			<path class="st7" d="M383.2,35.5l-5.9,16.9c-0.2,0.4,0,0.9,0.4,1.1c0.8,0.4,2.4,0.9,5.8,0.9s5-0.5,5.8-0.9
				c0.4-0.2,0.6-0.7,0.4-1.1l-5.9-16.9C383.8,35.2,383.3,35.2,383.2,35.5z"/>
			<path d="M383.5,35.2c0.1,0,0.3,0.1,0.4,0.3l5.9,16.9c0.2,0.4,0,0.9-0.4,1.1c-0.8,0.4-2.4,0.9-5.8,0.9s-5-0.5-5.8-0.9
				c-0.4-0.2-0.6-0.7-0.4-1.1l5.9-16.9C383.2,35.3,383.4,35.2,383.5,35.2 M383.5,35c-0.3,0-0.5,0.2-0.6,0.4L377,52.3
				c-0.2,0.6,0,1.2,0.5,1.4c0.8,0.4,2.5,0.9,5.9,0.9s5.1-0.5,5.9-0.9c0.5-0.3,0.7-0.9,0.5-1.4l-5.9-16.9C384,35.2,383.8,35,383.5,35
				L383.5,35z"/>
		</g>
		<path class="st8" d="M388.5,53.9c1.4-0.4,1.4-1.1,1.3-1.5L384.1,36c0-0.1,0.1,4.5,0.9,7.5C386.3,48.8,387.9,54.1,388.5,53.9z"/>
	</g>
</g>
</svg>
