<?xml version="1.0" encoding="UTF-8"?>
<svg width="649px" height="226px" viewBox="0 0 649 226" version="1.1" xmlns="http://www.w3.org/2000/svg" xmlns:xlink="http://www.w3.org/1999/xlink">
    <title>yd-how-it-works-mobile</title>
    <defs>
        <linearGradient x1="1.39561549e-14%" y1="50.0752941%" x2="100%" y2="50.0752941%" id="linearGradient-1">
            <stop stop-color="#2980B9" stop-opacity="0" offset="4.458984%"></stop>
            <stop stop-color="#2980B9" stop-opacity="0.6" offset="24.05%"></stop>
            <stop stop-color="#81C750" offset="100%"></stop>
        </linearGradient>
    </defs>
    <g id="yd-how-it-works-mobile" stroke="none" stroke-width="1" fill="none" fill-rule="evenodd">
        <g transform="translate(-720.000000, -1174.000000)">
            <g id="Layer_1_1_" transform="translate(276.000000, 0.000000)"></g>
            <path d="M862.9,1302.1 L874.1,1308.3 C874.6,1308.6 874.6,1309.4 874.1,1309.7 L867.8,1313.3 C867.6,1313.4 867.3,1313.4 867,1313.3 L855.1,1306.6 L862.9,1302.1 Z" id="Path" fill="#000000" fill-rule="nonzero" opacity="0.1"></path>
            <path d="M836,1317.5 L847.2,1323.7 C847.7,1324 847.7,1324.8 847.2,1325.1 L840.9,1328.7 C840.7,1328.8 840.4,1328.8 840.1,1328.7 L828.2,1322 L836,1317.5 Z" id="Path" fill="#000000" fill-rule="nonzero" opacity="0.1"></path>
            <path d="M849.7,1309.7 L869.5,1321.3 C870,1321.6 870,1322.4 869.5,1322.7 L863.2,1326.3 C863,1326.4 862.7,1326.4 862.4,1326.3 L841.9,1314.2 L849.7,1309.7 Z" id="Path" fill="#000000" fill-rule="nonzero" opacity="0.1"></path>
            <g id="Group" transform="translate(1098.000000, 1274.000000)" fill-rule="nonzero">
                <g opacity="0.1" transform="translate(5.000000, 18.000000)" fill="#000000" id="Path">
                    <path d="M0.8,0.7 L0.5,0.8 C0.4,0.8 0.5,0.9 0.6,0.9 L3.7,2.3 C3.8,2.4 4,2.4 4.1,2.4 L4.4,2.3 C4.5,2.3 4.4,2.2 4.3,2.2 L1.2,0.8 C1.1,0.7 0.9,0.7 0.8,0.7 Z"></path>
                    <g transform="translate(1.000000, 1.000000)">
                        <path d="M15.3,7.3 L0.6,2.4 C0.2,2.3 0,2.1 0,2 C0.1,1.8 0.6,1.5 2.4,1.1 C4.2,0.8 5.4,0.8 6.1,0.8 C6.5,0.8 6.9,1 7.1,1.1 L15.6,7.2 C15.9,7.3 15.6,7.4 15.3,7.3 Z"></path>
                    </g>
                </g>
                <g>
                    <g transform="translate(5.000000, 14.000000)">
                        <path d="M1.1,4.9 L0.7,4.9 C0.6,4.9 0.4,4.8 0.4,4.6 L0.4,1.1 C0.4,1 0.5,0.8 0.7,0.8 L1.1,0.8 C1.2,0.8 1.4,0.9 1.4,1.1 L1.4,4.6 C1.4,4.8 1.3,4.9 1.1,4.9 Z" id="Path" fill="#25739E"></path>
                        <path d="M1.1,5 L0.7,5 C0.5,5 0.3,4.8 0.3,4.6 L0.3,1.1 C0.3,0.9 0.5,0.7 0.7,0.7 L1.1,0.7 C1.3,0.7 1.5,0.9 1.5,1.1 L1.5,4.6 C1.5,4.8 1.3,5 1.1,5 Z M0.7,1 C0.6,1 0.6,1.1 0.7,1 L0.6,4.6 C0.6,4.7 0.7,4.7 0.7,4.7 L1.1,4.7 C1.2,4.7 1.2,4.6 1.2,4.6 L1.2,1.1 C1.2,1 1.1,1 1.1,1 L0.7,1 L0.7,1 Z" id="Shape" fill="#000000"></path>
                    </g>
                    <g>
                        <path d="M5.6,1.1 L1.1,14 C1,14.3 1.1,14.7 1.4,14.9 C2,15.2 3.2,15.6 5.8,15.6 C8.4,15.6 9.7,15.2 10.2,14.9 C10.5,14.7 10.6,14.4 10.5,14 L6,1.1 C6.1,0.9 5.7,0.9 5.6,1.1 Z" id="Path" fill="#2980B9"></path>
                        <path d="M5.9,0.9 C6,0.9 6.1,1 6.2,1.1 L10.7,14 C10.8,14.3 10.7,14.7 10.4,14.9 C9.8,15.2 8.6,15.6 6,15.6 C3.4,15.6 2.1,15.2 1.6,14.9 C1.3,14.7 1.2,14.4 1.3,14 L5.8,1.1 C5.7,1 5.8,0.9 5.9,0.9 M5.9,0.7 C5.7,0.7 5.5,0.8 5.4,1.1 L0.9,14 C0.7,14.5 0.9,14.9 1.3,15.2 C1.9,15.5 3.2,15.9 5.9,15.9 C8.6,15.9 9.8,15.5 10.5,15.2 C10.9,15 11.1,14.5 10.9,14 L6.4,1.1 C6.3,0.8 6.1,0.7 5.9,0.7 L5.9,0.7 Z" id="Shape" fill="#000000"></path>
                    </g>
                    <path d="M9.7,15.2 C10.8,14.9 10.8,14.4 10.7,14.1 L6.4,1.6 C6.4,1.5 6.5,5 7.1,7.3 C8.1,11.3 9.3,15.3 9.7,15.2 Z" id="Path" fill="#195C82"></path>
                </g>
            </g>
            <g id="Group" transform="translate(1074.000000, 1270.000000)" fill-rule="nonzero">
                <g opacity="0.1" transform="translate(9.000000, 37.000000)" fill="#000000" id="Path">
                    <path d="M0.9,0 L0.2,0.1 C0,0.1 0.1,0.3 0.4,0.4 L6.6,3.4 C6.9,3.5 7.3,3.6 7.4,3.6 L8.1,3.5 C8.3,3.5 8.2,3.3 7.9,3.2 L1.7,0.2 C1.5,0.1 1.1,0 0.9,0 Z"></path>
                    <g transform="translate(1.000000, 2.000000)">
                        <path d="M31.6,13.5 L1.7,3.5 C0.9,3.2 0.4,2.9 0.6,2.7 C0.8,2.3 1.9,1.6 5.5,0.9 C9.2,0.2 11.6,0.2 13,0.3 C13.7,0.4 14.6,0.7 15,1 L32.3,13.4 C32.7,13.6 32.2,13.7 31.6,13.5 Z"></path>
                    </g>
                </g>
                <g>
                    <g transform="translate(9.000000, 29.000000)">
                        <path d="M1.6,8.4 L0.7,8.4 C0.4,8.4 0.2,8.2 0.2,7.9 L0.2,0.8 C0.2,0.5 0.4,0.3 0.7,0.3 L1.6,0.3 C1.9,0.3 2.1,0.5 2.1,0.8 L2.1,7.9 C2.1,8.2 1.9,8.4 1.6,8.4 Z" id="Path" fill="#25739E"></path>
                        <path d="M1.6,8.6 L0.7,8.6 C0.3,8.6 0.1,8.3 0.1,8 L0.1,0.8 C0.1,0.4 0.4,0.2 0.7,0.2 L1.6,0.2 C2,0.2 2.2,0.5 2.2,0.8 L2.2,7.9 C2.2,8.3 1.9,8.6 1.6,8.6 Z M0.7,0.4 C0.5,0.4 0.3,0.6 0.3,0.8 L0.3,7.9 C0.3,8.1 0.5,8.3 0.7,8.3 L1.6,8.3 C1.8,8.3 2,8.1 2,7.9 L2,0.8 C2,0.6 1.8,0.4 1.6,0.4 L0.7,0.4 Z" id="Shape" fill="#000000"></path>
                    </g>
                    <g>
                        <path d="M9.6,1.2 L0.5,27.6 C0.3,28.3 0.5,29 1.2,29.4 C2.4,30 4.9,30.8 10.2,30.8 C15.5,30.8 18.1,30 19.2,29.4 C19.8,29.1 20.1,28.3 19.9,27.6 L10.8,1.2 C10.5,0.7 9.8,0.7 9.6,1.2 Z" id="Path" fill="#2980B9"></path>
                        <path d="M10.2,0.8 C10.4,0.8 10.7,0.9 10.8,1.2 L19.9,27.6 C20.1,28.3 19.9,29 19.2,29.4 C18,30 15.5,30.8 10.2,30.8 C4.9,30.8 2.3,30 1.2,29.4 C0.6,29.1 0.3,28.3 0.5,27.6 L9.6,1.2 C9.7,1 9.9,0.8 10.2,0.8 M10.2,0.6 C9.8,0.6 9.5,0.8 9.4,1.2 L0.3,27.6 C-5.6177285e-14,28.4 0.3,29.3 1.1,29.7 C2.3,30.4 4.9,31.2 10.3,31.2 C15.7,31.2 18.2,30.4 19.5,29.7 C20.2,29.3 20.6,28.4 20.3,27.6 L11,1.1 C10.8,0.8 10.5,0.6 10.2,0.6 L10.2,0.6 Z" id="Shape" fill="#000000"></path>
                    </g>
                    <path d="M17.9,30 C20.1,29.3 20.1,28.3 19.9,27.7 L11,2 C10.9,1.8 11.1,9 12.4,13.7 C14.5,21.9 17.1,30.2 17.9,30 Z" id="Path" fill="#195C82"></path>
                </g>
            </g>
            <g id="Group" transform="translate(1049.000000, 1283.000000)" fill-rule="nonzero">
                <g opacity="0.1" transform="translate(6.000000, 23.000000)" fill="#000000" id="Path">
                    <path d="M1.1,0.6 L0.7,0.7 C0.6,0.7 0.6,0.8 0.8,0.9 L4.8,2.8 C5,2.9 5.2,2.9 5.3,2.9 L5.7,2.8 C5.8,2.8 5.8,2.7 5.6,2.6 L1.6,0.7 C1.4,0.6 1.2,0.6 1.1,0.6 Z"></path>
                    <g transform="translate(1.000000, 2.000000)">
                        <path d="M20.4,8.5 L1.2,2.1 C0.7,1.9 0.4,1.7 0.5,1.6 C0.7,1.3 1.3,0.9 3.7,0.5 C6.1,0.1 7.6,0.1 8.5,0.1 C9,0.1 9.5,0.3 9.8,0.5 L20.9,8.4 C21.1,8.6 20.7,8.6 20.4,8.5 Z"></path>
                    </g>
                </g>
                <g>
                    <g transform="translate(6.000000, 18.000000)">
                        <path d="M1.5,5.8 L1,5.8 C0.8,5.8 0.7,5.6 0.7,5.5 L0.7,1 C0.7,0.8 0.9,0.7 1,0.7 L1.5,0.7 C1.7,0.7 1.8,0.9 1.8,1 L1.8,5.5 C1.8,5.7 1.7,5.8 1.5,5.8 Z" id="Path" fill="#25739E"></path>
                        <path d="M1.5,5.9 L1,5.9 C0.7,5.9 0.5,5.7 0.5,5.4 L0.5,0.9 C0.5,0.6 0.7,0.4 1,0.4 L1.5,0.4 C1.8,0.4 2,0.6 2,0.9 L2,5.4 C1.9,5.7 1.7,5.9 1.5,5.9 Z M0.9,0.7 C0.8,0.7 0.7,0.8 0.7,0.9 L0.7,5.4 C0.7,5.5 0.8,5.6 0.9,5.6 L1.4,5.6 C1.5,5.6 1.6,5.5 1.6,5.4 L1.6,0.9 C1.6,0.8 1.5,0.7 1.4,0.7 L0.9,0.7 Z" id="Shape" fill="#000000"></path>
                    </g>
                    <g>
                        <path d="M6.9,0.6 L1,17.5 C0.8,17.9 1,18.4 1.4,18.6 C2.2,19 3.8,19.5 7.2,19.5 C10.6,19.5 12.2,19 13,18.6 C13.4,18.4 13.6,17.9 13.4,17.5 L7.5,0.6 C7.5,0.3 7,0.3 6.9,0.6 Z" id="Path" fill="#2980B9"></path>
                        <path d="M7.2,0.4 C7.3,0.4 7.5,0.5 7.6,0.7 L13.5,17.6 C13.7,18 13.5,18.5 13.1,18.7 C12.3,19.1 10.7,19.6 7.3,19.6 C3.9,19.6 2.3,19.1 1.5,18.7 C1.1,18.5 0.9,18 1.1,17.6 L7,0.7 C6.9,0.4 7.1,0.4 7.2,0.4 M7.2,0.1 C6.9,0.1 6.7,0.3 6.6,0.5 L0.7,17.4 C0.5,18 0.7,18.6 1.2,18.8 C2,19.2 3.7,19.7 7.1,19.7 C10.5,19.7 12.2,19.2 13,18.8 C13.5,18.5 13.7,17.9 13.5,17.4 L7.6,0.5 C7.7,0.3 7.5,0.1 7.2,0.1 L7.2,0.1 Z" id="Shape" fill="#000000"></path>
                    </g>
                    <path d="M12.2,19 C13.6,18.6 13.6,17.9 13.5,17.5 L7.8,1.1 C7.8,1 7.9,5.6 8.7,8.6 C10,13.9 11.6,19.2 12.2,19 Z" id="Path" fill="#195C82"></path>
                </g>
            </g>
            <g id="Group" transform="translate(1113.000000, 1275.000000)" fill-rule="nonzero">
                <g opacity="0.1" transform="translate(6.000000, 23.000000)" fill="#000000" id="Path">
                    <path d="M1.3,0.5 L0.9,0.6 C0.8,0.6 0.8,0.7 1,0.8 L5,2.7 C5.2,2.8 5.4,2.8 5.5,2.8 L5.9,2.7 C6,2.7 6,2.6 5.8,2.5 L1.8,0.6 C1.7,0.5 1.5,0.5 1.3,0.5 Z"></path>
                    <g transform="translate(1.000000, 2.000000)">
                        <path d="M20.6,8.4 L1.4,2 C0.9,1.8 0.6,1.6 0.7,1.5 C0.9,1.2 1.5,0.8 3.9,0.4 C6.3,0 7.8,0 8.7,0 C9.2,0 9.7,0.2 10,0.4 L21.1,8.3 C21.3,8.5 21,8.5 20.6,8.4 Z"></path>
                    </g>
                </g>
                <g>
                    <g transform="translate(6.000000, 18.000000)">
                        <path d="M1.8,5.7 L1.3,5.7 C1.1,5.7 1,5.5 1,5.4 L1,0.9 C1,0.7 1.2,0.6 1.3,0.6 L1.8,0.6 C2,0.6 2.1,0.8 2.1,0.9 L2.1,5.4 C2.1,5.6 1.9,5.7 1.8,5.7 Z" id="Path" fill="#25739E"></path>
                        <path d="M1.8,5.9 L1.3,5.9 C1,5.9 0.8,5.7 0.8,5.4 L0.8,0.9 C0.8,0.6 1,0.4 1.3,0.4 L1.8,0.4 C2.1,0.4 2.3,0.6 2.3,0.9 L2.3,5.4 C2.2,5.6 2,5.9 1.8,5.9 Z M1.2,0.6 C1.1,0.6 1,0.7 1,0.8 L1,5.3 C1,5.4 1.1,5.5 1.2,5.5 L1.7,5.5 C1.8,5.5 1.9,5.4 1.9,5.3 L1.9,0.8 C1.9,0.7 1.8,0.6 1.7,0.6 L1.2,0.6 Z" id="Shape" fill="#000000"></path>
                    </g>
                    <g>
                        <path d="M7.1,0.5 L1.2,17.4 C1,17.8 1.2,18.3 1.6,18.5 C2.4,18.9 4,19.4 7.4,19.4 C10.8,19.4 12.4,18.9 13.2,18.5 C13.6,18.3 13.8,17.8 13.6,17.4 L7.7,0.5 C7.7,0.2 7.2,0.2 7.1,0.5 Z" id="Path" fill="#2980B9"></path>
                        <path d="M7.5,0.3 C7.6,0.3 7.8,0.4 7.9,0.6 L13.8,17.5 C14,17.9 13.8,18.4 13.4,18.6 C12.6,19 11,19.5 7.6,19.5 C4.2,19.5 2.6,19 1.8,18.6 C1.4,18.4 1.2,17.9 1.4,17.5 L7.3,0.6 C7.2,0.3 7.3,0.3 7.5,0.3 M7.5,0 C7.2,0 7,0.2 6.9,0.4 L1,17.4 C0.8,18 1,18.6 1.5,18.8 C2.3,19.2 4,19.7 7.4,19.7 C10.8,19.7 12.5,19.2 13.3,18.8 C13.8,18.5 14,17.9 13.8,17.4 L7.9,0.5 C8,0.2 7.8,0 7.5,0 L7.5,0 Z" id="Shape" fill="#000000"></path>
                    </g>
                    <path d="M12.4,18.9 C13.8,18.5 13.8,17.8 13.7,17.4 L8,1 C8,0.9 8.1,5.5 8.9,8.5 C10.3,13.8 11.9,19.1 12.4,18.9 Z" id="Path" fill="#195C82"></path>
                </g>
            </g>
            <g id="Group" transform="translate(942.000000, 1303.000000)" fill-rule="nonzero">
                <g opacity="0.1" transform="translate(7.000000, 26.000000)" fill="#000000" id="Path">
                    <path d="M0.9,0.6 L0.4,0.7 C0.3,0.7 0.3,0.8 0.5,0.9 L5,3.1 C5.2,3.2 5.5,3.3 5.6,3.2 L6.1,3.1 C6.2,3.1 6.2,3 6,2.9 L1.5,0.7 C1.3,0.7 1.1,0.6 0.9,0.6 Z"></path>
                    <g transform="translate(1.000000, 2.000000)">
                        <path d="M23,9.9 L1.2,2.6 C0.6,2.4 0.3,2.2 0.4,2 C0.6,1.7 1.3,1.2 4,0.7 C6.7,0.2 8.4,0.2 9.5,0.3 C10,0.3 10.7,0.6 11,0.8 L23.6,9.8 C23.8,10 23.4,10 23,9.9 Z"></path>
                    </g>
                </g>
                <g>
                    <g transform="translate(7.000000, 20.000000)">
                        <path d="M1.4,6.9 L0.8,6.9 C0.6,6.9 0.4,6.7 0.4,6.5 L0.4,1.3 C0.4,1.1 0.6,0.9 0.8,0.9 L1.4,0.9 C1.6,0.9 1.8,1.1 1.8,1.3 L1.8,6.5 C1.8,6.8 1.6,6.9 1.4,6.9 Z" id="Path" fill="#25739E"></path>
                        <path d="M1.4,7 L0.8,7 C0.5,7 0.3,6.8 0.3,6.5 L0.3,1.3 C0.3,1 0.5,0.8 0.8,0.8 L1.4,0.8 C1.7,0.8 1.9,1 1.9,1.3 L1.9,6.5 C1.9,6.8 1.7,7 1.4,7 Z M0.8,1.1 C0.7,1.1 0.5,1.2 0.5,1.4 L0.5,6.6 C0.5,6.7 0.6,6.9 0.8,6.9 L1.4,6.9 C1.5,6.9 1.7,6.8 1.7,6.6 L1.7,1.4 C1.7,1.3 1.6,1.1 1.4,1.1 L0.8,1.1 Z" id="Shape" fill="#000000"></path>
                    </g>
                    <g>
                        <path d="M7.7,0.6 L1,19.8 C0.8,20.3 1,20.8 1.5,21.1 C2.4,21.6 4.2,22.1 8.1,22.1 C12,22.1 13.8,21.5 14.7,21.1 C15.2,20.9 15.4,20.3 15.2,19.8 L8.5,0.6 C8.4,0.2 7.8,0.2 7.7,0.6 Z" id="Path" fill="#2980B9"></path>
                        <path d="M8.1,0.3 C8.3,0.3 8.4,0.4 8.5,0.6 L15.2,19.8 C15.4,20.3 15.2,20.8 14.7,21.1 C13.8,21.6 12,22.1 8.1,22.1 C4.2,22.1 2.4,21.5 1.5,21.1 C1,20.9 0.8,20.3 1,19.8 L7.7,0.6 C7.7,0.4 7.9,0.3 8.1,0.3 M8.1,0 C7.8,0 7.6,0.2 7.5,0.5 L0.8,19.7 C0.6,20.3 0.8,21 1.4,21.3 C2.3,21.8 4.2,22.4 8.1,22.4 C12,22.4 13.9,21.8 14.8,21.3 C15.4,21 15.6,20.3 15.4,19.7 L8.7,0.5 C8.6,0.2 8.4,0 8.1,0 L8.1,0 Z" id="Shape" fill="#000000"></path>
                    </g>
                    <path d="M13.7,21.5 C15.3,21 15.3,20.3 15.2,19.8 L8.7,1.2 C8.7,1.1 8.8,6.3 9.7,9.7 C11.3,15.6 13.1,21.7 13.7,21.5 Z" id="Path" fill="#195C82"></path>
                </g>
            </g>
            <g id="Group" opacity="0.1" transform="translate(767.000000, 1268.000000)" fill="#000000" fill-rule="nonzero">
                <polygon id="Path" points="1.2 0.8 28.7 17.1 27.7 17.7 0.6 1.7"></polygon>
            </g>
            <g id="Group" opacity="0.1" transform="translate(1349.000000, 1311.000000)" fill="#000000" fill-rule="nonzero">
                <polygon id="Path" points="12.2 7.4 12.2 8.7 8.4 6.4 0.6 1.8 0.3 1.7 0.4 1.5 0.9 0.8 1.2 0.9 1.4 1 1.5 1.1 9.5 5.8"></polygon>
            </g>
            <path d="M1361.2,1315.4 L1361.2,1329.7 C1325,1349.7 1280.8,1349.3 1244.9,1328.6 L1165.3,1282.6 C1122.7,1258 1070.3,1257.8 1027.6,1282.1 L1017.2,1288.1 C968.7,1316.4 908.8,1316.6 860.2,1288.5 L832.3,1272.4 C800,1253.8 760.3,1253.8 728.1,1272.5 C727.4,1273 726.7,1273.3 726,1273.7 L726,1259.5 C743,1250.8 761.5,1246.5 780,1246.5 C800.5,1246.5 821,1251.8 839.3,1262.4 L865.2,1277.4 C910.6,1303.6 966.6,1303.6 1012.1,1277.4 L1020.8,1272.4 C1067.6,1245.4 1125.2,1245.4 1172,1272.4 L1244.6,1314.3 C1279.4,1334.4 1321.8,1335.4 1357.4,1317.5 C1357.8,1317.3 1358.2,1317.1 1358.5,1316.9 C1359.4,1316.3 1360.3,1315.9 1361.2,1315.4 Z" id="Path" fill="#2980B9" fill-rule="nonzero" opacity="0.1"></path>
            <g id="Group" transform="translate(762.000000, 1235.000000)" fill-rule="nonzero">
                <g transform="translate(5.000000, 8.000000)">
                    <polygon id="Path" fill="#2980B9" points="0.8 26.7 0.8 0.8 1.9 1.4 1.9 26.7"></polygon>
                    <path d="M2,26.8 L0.7,26.8 L0.7,0.6 L2,1.4 L2,26.8 Z M0.9,26.5 L1.7,26.5 L1.7,1.5 L0.9,1 L0.9,26.5 Z" id="Shape" fill="#000000"></path>
                </g>
                <g>
                    <path d="M11.6,10.8 C11.6,14.2 9.2,15.5 6.3,13.8 C3.4,12.1 1,8 1,4.7 C1,1.4 3.4,0 6.3,1.7 C9.2,3.4 11.6,7.5 11.6,10.8 Z" id="Path" fill="#2980B9"></path>
                    <path d="M8.7,14.7 C8,14.7 7.1,14.5 6.3,14 C3.3,12.3 0.9,8.2 0.9,4.8 C0.9,3.1 1.5,1.9 2.5,1.3 C3.5,0.7 4.9,0.8 6.4,1.7 C9.4,3.4 11.8,7.5 11.8,10.9 C11.8,12.6 11.2,13.8 10.2,14.4 C9.7,14.6 9.2,14.7 8.7,14.7 Z M4,1.1 C3.5,1.1 3.1,1.2 2.7,1.4 C1.7,1.9 1.2,3.1 1.2,4.7 C1.2,8 3.5,12.1 6.4,13.7 C7.8,14.5 9.1,14.6 10,14.1 C11,13.6 11.5,12.4 11.5,10.8 C11.5,7.5 9.2,3.4 6.3,1.8 C5.4,1.3 4.7,1.1 4,1.1 Z" id="Shape" fill="#000000"></path>
                </g>
            </g>
            <g id="Group" transform="translate(1343.000000, 1279.000000)" fill-rule="nonzero">
                <g transform="translate(6.000000, 7.000000)">
                    <polygon id="Path" fill="#2980B9" points="0.3 26.6 0.3 0.8 1.4 1.4 1.4 26.6"></polygon>
                    <path d="M0.2,0.7 L0.2,26.9 L1.5,26.9 L1.5,1.5 L0.2,0.7 Z M1.2,26.5 L0.4,26.5 L0.4,1 L1.2,1.5 L1.2,26.5 Z" id="Shape" fill="#000000"></path>
                </g>
                <g>
                    <polygon id="Path" fill="#2980B9" points="6.8 0.6 0.6 9.4 13.1 16.6"></polygon>
                    <path d="M7,0.7 L6.9,0.5 L0.5,9.5 L0.4,9.6 L6.2,12.9 L6.3,12.9 L6.4,13 L7.2,13.5 L7.4,13.6 L7.5,13.6 L13.3,16.9 L7,0.7 Z M6.8,0.8 L12.8,16.2 L7.5,13.2 L7.4,13.2 L7.2,13.1 L6.4,12.6 L6.3,12.5 L6.2,12.5 L0.8,9.4 L6.8,0.8 Z" id="Shape" fill="#000000"></path>
                </g>
            </g>
            <path d="M1244.3,1322.6 L1171.7,1280.7 C1125.7,1254.1 1068.5,1254.1 1022.5,1280.7 L1013.8,1285.7 C967.9,1312.2 910.8,1312.2 864.9,1285.7 L839,1270.7 L841,1267.2 L866.9,1282.2 C911.6,1308 967.1,1308 1011.8,1282.2 L1020.5,1277.2 C1067.7,1249.9 1126.4,1249.9 1173.7,1277.2 L1246.3,1319.1 L1244.3,1322.6 Z" id="Path" fill="url(#linearGradient-1)" fill-rule="nonzero"></path>
            <g id="Group" transform="translate(1226.000000, 1300.000000)">
                <g transform="translate(1.000000, 13.000000)" fill-rule="nonzero">
                    <polygon id="Path" fill="#1A4C68" points="0.5 5.4 1.6 4.9 4.4 1.8 2.4 0.8 0.8 2.2 0.3 4.5"></polygon>
                    <path d="M0.5,5.5 C0.5,5.5 0.4,5.5 0.5,5.5 C0.4,5.5 0.4,5.4 0.5,5.5 L0.2,4.5 C0.2,4.5 0.2,4.5 0.2,4.4 L0.7,2.1 C0.7,2.1 0.7,2.1 0.7,2 L2.4,0.6 L2.5,0.6 L4.5,1.6 L4.6,1.7 L4.6,1.8 L1.8,4.9 L1.8,4.9 L0.5,5.5 L0.5,5.5 Z M0.4,4.5 L0.6,5.2 L1.5,4.7 L4.2,1.8 L2.5,0.9 L0.9,2.3 L0.4,4.5 Z" id="Shape" fill="#000000"></path>
                </g>
                <g transform="translate(3.000000, 14.000000)" fill="#000000" fill-rule="nonzero" id="Path">
                    <polyline points="1.9 7.8 3.7 6.9 4.4 2.7 3.3 0.9 2.3 0.6 0.8 0.9"></polyline>
                    <path d="M1.9,7.9 C1.9,7.9 1.8,7.9 1.9,7.9 C1.8,7.7 1.8,7.7 1.9,7.6 L3.7,6.7 L4.4,2.6 L3.3,0.9 L2.3,0.6 L0.9,0.9 C0.8,0.9 0.8,0.9 0.8,0.8 C0.8,0.7 0.8,0.7 0.9,0.7 L2.4,0.4 L3.5,0.7 L3.5,0.7 L4.7,2.6 L4,6.9 L3.9,6.9 L1.9,7.9 L1.9,7.9 Z"></path>
                </g>
                <g transform="translate(2.000000, 14.000000)" fill-rule="nonzero">
                    <path d="M0.6,3.9 C0.7,5.7 1.2,6.9 2.2,7.4 C3.2,7.9 4.1,6.5 4.1,4.7 C4.1,3.2 3.7,1.8 2.6,1.2 C1.4,0.5 0.5,2 0.6,3.9 Z" id="Path" fill="#0E3951"></path>
                    <path d="M2.6,8 C2.4,8 2.2,7.9 1.9,7.8 C0.7,7.2 0.1,5.9 5.68434189e-14,3.9 L5.68434189e-14,3.9 C5.68434189e-14,2.5 0.4,1.3 1.2,0.8 C1.7,0.5 2.2,0.5 2.8,0.8 C3.9,1.4 4.5,2.8 4.5,4.7 C4.5,6.1 4,7.3 3.3,7.8 C3.1,7.9 2.8,8 2.6,8 Z M1.1,3.8 C1.2,5.5 1.6,6.5 2.4,6.9 C2.6,7 2.7,7 2.8,6.9 C3.2,6.7 3.6,5.8 3.6,4.7 C3.6,3.2 3.1,2.1 2.4,1.7 C2.1,1.5 2,1.6 1.8,1.7 C1.4,1.9 1,2.7 1.1,3.8 L1.1,3.8 Z" id="Shape" fill="#000000"></path>
                </g>
                <g transform="translate(17.000000, 23.000000)" fill-rule="nonzero">
                    <polygon id="Path" fill="#1A4C68" points="0.8 4.8 1.9 4.3 4.7 1.2 2.8 0.2 1.1 1.6 0.6 3.9"></polygon>
                    <path d="M0.8,5 L0.8,5 C0.7,5 0.7,4.9 0.8,5 L0.5,4 C0.5,4 0.5,4 0.5,3.9 L1,1.6 C1,1.6 1,1.6 1,1.5 L2.7,0.1 L2.8,0.1 L4.8,1.1 L4.9,1.2 L4.9,1.3 L2.1,4.4 L2.1,4.4 L0.8,5 L0.8,5 Z M0.7,3.9 L0.9,4.6 L1.8,4.1 L4.5,1.2 L2.8,0.3 L1.2,1.7 L0.7,3.9 Z" id="Shape" fill="#000000"></path>
                </g>
                <g transform="translate(20.000000, 23.000000)" fill="#000000" fill-rule="nonzero" id="Path">
                    <polyline points="1.4 8.2 3 7.4 3.8 3.2 2.6 1.4 1.6 1.1 0.1 1.3"></polyline>
                    <path d="M1.4,8.3 C1.4,8.3 1.3,8.3 1.4,8.3 C1.3,8.1 1.3,8.1 1.4,8 L3,7.2 L3.7,3.1 L2.6,1.4 L1.6,1.1 L0.2,1.4 C0.1,1.4 0.1,1.4 0.1,1.3 C0.1,1.2 0.1,1.2 0.2,1.2 L1.7,0.9 L1.7,0.9 L2.8,1.2 L2.8,1.2 L4,3.1 L3.3,7.4 L1.4,8.3 C1.5,8.3 1.5,8.3 1.4,8.3 Z"></path>
                </g>
                <g transform="translate(6.000000, 0.000000)" fill-rule="nonzero">
                    <path d="M31,24.8 L31,21 C31,19 29.9,17.1 28.2,16.1 L24.9,14.2 L23,5.9 L12.7,0.1 L0.5,7.2 L10.8,13 L12.7,21.3 L16,23.2 C17.7,24.2 18.8,26.1 18.8,28.1 L18.8,31.9 L31,24.8 Z" id="Path" fill="#21719E"></path>
                    <path d="M18.8,32 C18.8,32 18.7,32 18.8,32 C18.7,32 18.7,31.9 18.8,32 L18.7,28.1 C18.7,26.1 17.6,24.3 15.9,23.3 L12.6,21.4 C12.6,21.4 12.5,21.4 12.5,21.3 L10.6,13.1 L0.3,7.3 L0.2,7.2 C0.2,7.2 0.2,7.1 0.3,7.1 L12.5,1.42108547e-14 L12.6,1.42108547e-14 L22.9,5.8 C22.9,5.8 23,5.8 23,5.9 L24.9,14.1 L28.2,16 C30,17 31.1,18.9 31.1,21 L31.1,24.8 C31.1,24.8 31.1,24.9 31,24.9 L18.8,32 L18.8,32 Z M12.8,21.2 L16.1,23.1 C17.9,24.1 19,26 19,28.1 L19,31.7 L31,24.8 L31,21.1 C31,19.1 29.9,17.3 28.2,16.3 L24.9,14.4 C24.9,14.4 24.8,14.4 24.8,14.3 L22.9,6.1 L12.7,0.3 L0.7,7.2 L10.9,12.9 C10.9,12.9 11,12.9 11,13 L12.8,21.2 Z" id="Shape" fill="#000000"></path>
                </g>
                <g transform="translate(18.000000, 14.000000)">
                    <line x1="12.9" y1="0.2" x2="0.7" y2="7.3" id="Path"></line>
                    <rect id="Rectangle" fill="#000000" fill-rule="nonzero" transform="translate(6.741850, 3.731900) rotate(-29.967323) translate(-6.741850, -3.731900) " x="-0.308065188" y="3.5819018" width="14.0998304" height="1"></rect>
                </g>
                <g transform="translate(16.000000, 5.000000)">
                    <line x1="13" y1="0.9" x2="0.8" y2="8" id="Path"></line>
                    <rect id="Rectangle" fill="#000000" fill-rule="nonzero" transform="translate(6.842430, 4.430160) rotate(-29.967323) translate(-6.842430, -4.430160) " x="-0.207485188" y="4.2801618" width="14.0998304" height="1"></rect>
                </g>
                <g transform="translate(1.000000, 0.000000)" fill-rule="nonzero">
                    <path d="M17.7,0.1 L14,0.2 C13.4,0.2 12.9,0.4 12.4,0.6 L0.6,7.2 L5.4,7.1 L17.7,0.1 Z" id="Path" fill="#4AA6CE"></path>
                    <path d="M0.6,7.4 C0.5,7.4 0.5,7.4 0.6,7.4 C0.5,7.2 0.5,7.2 0.6,7.2 L12.4,0.6 C12.9,0.3 13.5,0.2 14.1,0.1 L17.8,2.84217094e-14 L17.8,2.84217094e-14 C17.9,2.84217094e-14 17.9,2.84217094e-14 17.9,0.1 C17.9,0.2 17.9,0.2 17.8,0.2 L5.6,7.3 C5.6,7.3 5.6,7.3 5.5,7.3 L0.6,7.4 L0.6,7.4 Z M17.2,0.2 L14,0.3 C13.4,0.3 12.9,0.5 12.4,0.7 L1,7.1 L5.3,7 L17.2,0.2 Z" id="Shape" fill="#000000"></path>
                </g>
                <g transform="translate(0.000000, 6.000000)" fill-rule="nonzero">
                    <path d="M24.8,25.9 C24.8,25.9 23.6,25.2 23,24.8 C24,20 22,18.5 21,18 C20,17.5 18.3,17.9 17.8,21.8 C17.4,21.5 11.2,18 6.5,15.3 C7.4,11.5 6.4,9.4 5.1,8.6 C3.8,7.9 1.7,8.6 1.4,12.3 C1,12.1 0.2,11.6 0.2,11.6 L0.2,3.2 C0.2,1.8 1.4,0.7 2.8,0.8 L6.4,1 L16.7,6.8 L18.6,15.1 L21.9,17 C23.6,18 24.7,19.9 24.7,21.9 L24.7,25.9 L24.8,25.9 Z" id="Path" fill="#2980B9"></path>
                    <path d="M24.8,26 C24.8,26 24.7,26 24.8,26 L22.9,24.9 L22.8,24.8 C23.7,20.1 21.8,18.6 20.9,18.2 C20.5,18 20,18 19.5,18.3 C18.9,18.6 18.2,19.5 17.9,21.9 C17.9,21.9 17.9,22 17.8,22 L17.7,22 L6.4,15.5 L6.3,15.4 C7.2,11.7 6.2,9.6 5,8.9 C4.5,8.6 3.8,8.6 3.2,8.9 C2.6,9.2 1.7,10.1 1.5,12.5 C1.5,12.5 1.5,12.6 1.4,12.6 C1.3,12.6 1.3,12.6 1.3,12.6 C0.9,12.4 0.1,11.9 0.1,11.9 L-1.70530257e-13,11.8 L-1.70530257e-13,3.4 C-1.70530257e-13,2.7 0.3,2 0.8,1.5 C1.3,1 2,0.8 2.7,0.8 L6.3,1 C6.3,1 6.3,1 6.4,1 L16.7,6.8 C16.7,6.8 16.8,6.8 16.8,6.9 L18.7,15.1 L22,17 C23.8,18 24.9,19.9 24.9,22 L24.9,25.8 C24.9,25.9 24.9,25.9 24.8,26 L24.8,26 Z M23.1,24.7 L24.7,25.6 L24.7,22 C24.7,20 23.6,18.2 21.9,17.2 L18.6,15.3 C18.6,15.3 18.5,15.3 18.5,15.2 L16.6,7 L6.3,1.2 L2.8,1 C2.2,1 1.6,1.2 1.1,1.6 C0.6,2 0.4,2.6 0.4,3.3 L0.4,11.6 C0.6,11.7 1,11.9 1.3,12.1 C1.5,9.7 2.5,8.8 3.1,8.5 C3.7,8.1 4.5,8.2 5.1,8.5 C6.4,9.3 7.5,11.4 6.6,15.2 L17.6,21.6 C17.9,19.3 18.7,18.3 19.3,18 C19.8,17.7 20.4,17.7 20.9,17.9 C22,18.4 24,19.9 23.1,24.7 Z" id="Shape" fill="#000000"></path>
                </g>
                <g transform="translate(18.000000, 23.000000)" fill-rule="nonzero">
                    <path d="M0.9,4.3 C1,6.1 1.5,7.3 2.5,7.8 C3.5,8.3 4.4,6.9 4.4,5.1 C4.4,3.6 4,2.2 2.9,1.6 C1.7,1 0.8,2.5 0.9,4.3 Z" id="Path" fill="#0E3951"></path>
                    <path d="M2.9,8.4 C2.7,8.4 2.5,8.3 2.2,8.2 C1,7.6 0.4,6.3 0.3,4.3 C0.3,2.9 0.7,1.7 1.5,1.2 C2,0.9 2.5,0.9 3.1,1.2 C4.2,1.8 4.8,3.2 4.8,5.1 C4.8,6.5 4.3,7.7 3.6,8.2 C3.4,8.3 3.2,8.4 2.9,8.4 Z M2.3,2 C2.2,2 2.1,2 2.1,2.1 C1.7,2.3 1.3,3.2 1.4,4.3 C1.5,6 1.9,7 2.7,7.4 C2.9,7.5 3,7.5 3.1,7.4 C3.5,7.2 3.9,6.3 3.9,5.2 C3.9,3.7 3.4,2.6 2.7,2.2 C2.5,2 2.4,2 2.3,2 Z" id="Shape" fill="#000000"></path>
                </g>
                <g transform="translate(12.000000, 11.000000)" fill-rule="nonzero">
                    <polygon id="Path" fill="#FFFFFF" points="4.2 2.6 5.9 9.8 0.2 6.5 0.2 0.3"></polygon>
                    <path d="M5.9,10 L5.9,10 L0.1,6.6 L0,6.5 L0,0.3 C0,0.3 0,0.2 0.1,0.2 L0.2,0.2 L4.2,2.5 C4.2,2.5 4.3,2.5 4.3,2.6 L6,9.8 C6.1,9.9 6,9.9 5.9,10 C6,10 6,10 5.9,10 Z M0.4,6.4 L5.8,9.6 L4.2,2.7 L0.4,0.5 L0.4,6.4 L0.4,6.4 Z" id="Shape" fill="#000000"></path>
                </g>
                <g transform="translate(5.000000, 7.000000)" fill-rule="nonzero">
                    <polygon id="Path" fill="#FFFFFF" points="6.4 3.8 6.4 10 0.7 6.6 0.7 0.8 1.5 0.9"></polygon>
                    <path d="M6.4,10.1 L6.4,10.1 L0.6,6.7 L0.5,6.6 L0.5,0.8 L0.5,0.7 L0.6,0.7 L1.4,0.8 L1.4,0.8 L6.3,3.6 L6.4,3.7 L6.4,9.9 C6.5,10 6.5,10.1 6.4,10.1 L6.4,10.1 Z M0.8,6.5 L6.3,9.7 L6.3,3.8 L1.5,1 L0.9,0.9 L0.9,6.5 L0.8,6.5 Z" id="Shape" fill="#000000"></path>
                </g>
                <g transform="translate(0.000000, 7.000000)" fill-rule="nonzero">
                    <path d="M4.9,0.7 L4.9,6.3 L0.8,3.9 C0.8,3.9 0.7,2.1 1,1.6 C1.4,0.8 2.3,0.5 2.3,0.5 L4.9,0.7 Z" id="Path" fill="#FFFFFF"></path>
                    <path d="M4.9,6.4 L4.9,6.4 L0.8,4 L0.7,3.9 C0.7,3.8 0.7,2.1 0.9,1.5 C1.3,0.6 2.3,0.4 2.3,0.4 L2.3,0.4 L4.8,0.6 C4.9,0.6 4.9,0.7 4.9,0.7 L4.9,6.3 C5.1,6.4 5,6.4 4.9,6.4 C5,6.4 5,6.4 4.9,6.4 Z M1,3.9 L4.8,6.1 L4.8,0.9 L2.4,0.7 C2.3,0.7 1.5,1 1.2,1.7 C1,2 1,3.3 1,3.9 Z" id="Shape" fill="#000000"></path>
                </g>
                <g transform="translate(17.000000, 6.000000)" fill-rule="nonzero">
                    <polygon id="Path" fill="#FFFFFF" points="11.7 0.9 13.3 8 2.2 14.5 0.4 7.4"></polygon>
                    <path d="M2.2,14.6 C2.2,14.6 2.1,14.6 2.2,14.6 C2.1,14.6 2.1,14.5 2.2,14.6 L0.3,7.4 C0.3,7.3 0.3,7.3 0.4,7.3 L11.7,0.8 L11.8,0.8 C11.8,0.8 11.9,0.8 11.9,0.9 L13.6,8 C13.6,8.1 13.6,8.1 13.5,8.1 L2.2,14.6 L2.2,14.6 Z M0.5,7.5 L2.2,14.3 L13.1,8 L11.5,1.2 L0.5,7.5 Z" id="Shape" fill="#000000"></path>
                </g>
                <g transform="translate(34.000000, 21.000000)" fill-rule="nonzero">
                    <ellipse id="Oval" fill="#FFFFFF" cx="1.3" cy="2" rx="1" ry="1.1"></ellipse>
                    <path d="M1.3,3.3 C0.8,3.3 0.4,2.7 0.4,2 C0.4,1.3 0.8,0.7 1.3,0.7 C1.8,0.7 2.2,1.3 2.2,2 C2.2,2.7 1.8,3.3 1.3,3.3 Z M1.3,1 C1,1 0.7,1.5 0.7,2 C0.7,2.5 1,3 1.3,3 C1.6,3 1.9,2.5 1.9,2 C1.9,1.5 1.6,1 1.3,1 Z" id="Shape" fill="#000000"></path>
                </g>
                <g transform="translate(26.000000, 26.000000)" fill-rule="nonzero">
                    <ellipse id="Oval" fill="#FFFFFF" cx="0.9" cy="2.1" rx="1" ry="1.1"></ellipse>
                    <path d="M0.9,3.3 C0.4,3.3 0,2.7 0,2 C0,1.3 0.4,0.7 0.9,0.7 C1.4,0.7 1.8,1.3 1.8,2 C1.8,2.7 1.4,3.3 0.9,3.3 Z M0.9,1 C0.6,1 0.3,1.5 0.3,2 C0.3,2.5 0.6,3 0.9,3 C1.2,3 1.5,2.5 1.5,2 C1.5,1.5 1.2,1 0.9,1 Z" id="Shape" fill="#000000"></path>
                </g>
                <path d="M25.9,16.4 C25.8,16.4 25.8,16.4 25.9,16.4 C25.8,16.3 25.8,16.2 25.8,16.2 C25.8,16.2 26.7,15.2 28.1,14.7 C29.5,14.2 30.8,14.8 30.8,14.8 C30.9,14.8 30.9,14.9 30.9,15 C30.9,15.1 30.8,15.1 30.7,15.1 C30.7,15.1 29.5,14.6 28.2,15 C26.9,15.4 26,16.3 25.9,16.4 L25.9,16.4 Z" id="Path" fill="#000000" fill-rule="nonzero"></path>
                <path d="M20.4,19.6 C20.4,19.6 20.4,19.5 20.4,19.6 C20.3,19.5 20.3,19.4 20.3,19.4 C20.3,19.4 21.2,18.4 22.6,17.9 C24,17.4 25.3,18 25.3,18 C25.4,18 25.4,18.1 25.4,18.2 C25.4,18.3 25.3,18.3 25.2,18.3 C25.2,18.3 24,17.8 22.7,18.2 C21.4,18.6 20.5,19.5 20.4,19.6 C20.5,19.5 20.5,19.6 20.4,19.6 Z" id="Path" fill="#000000" fill-rule="nonzero"></path>
                <path d="M19.8,27.5 C19.8,28.3 20.1,28.9 20.5,29.1 C21,29.3 21.4,28.7 21.4,27.9 C21.4,27.2 21.2,26.6 20.7,26.3 C20.2,26 19.8,26.7 19.8,27.5 Z" id="Path" fill="#1B5B7F" fill-rule="nonzero"></path>
                <path d="M3.5,18.1 C3.5,18.9 3.8,19.5 4.2,19.7 C4.7,19.9 5.1,19.3 5.1,18.5 C5.1,17.8 4.9,17.2 4.4,16.9 C3.9,16.6 3.5,17.2 3.5,18.1 Z" id="Path" fill="#1B5B7F" fill-rule="nonzero"></path>
                <g transform="translate(6.000000, 0.000000)" fill-rule="nonzero">
                    <polygon id="Path" fill="#3A99CE" points="23 5.9 12.7 0.1 0.4 7.1 10.8 13"></polygon>
                    <path d="M10.8,13.1 C10.7,13.1 10.7,13.1 10.8,13.1 L0.4,7.3 L0.3,7.2 C0.3,7.2 0.3,7.1 0.4,7.1 L12.6,1.42108547e-14 L12.7,1.42108547e-14 L23,5.8 L23.1,5.9 C23.1,5.9 23.1,6 23,6 L10.8,13.1 L10.8,13.1 Z M0.7,7.1 L10.8,12.8 L22.8,5.9 L12.7,0.2 L0.7,7.1 Z" id="Shape" fill="#000000"></path>
                </g>
            </g>
            <path d="M1244,1246.4 C1235.5,1246.4 1228.6,1253.3 1228.6,1261.8 C1228.6,1262.4 1228.6,1263 1228.7,1263.5 C1229.6,1271.2 1244,1296.4 1244,1296.4 C1244,1296.4 1258.6,1271.1 1259.3,1263.3 C1259.4,1262.8 1259.4,1262.3 1259.4,1261.7 C1259.4,1253.3 1252.5,1246.4 1244,1246.4 Z M1243.8,1272.1 C1238.1,1272.1 1233.5,1267.5 1233.5,1261.8 C1233.5,1256.1 1238.1,1251.5 1243.8,1251.5 C1249.5,1251.5 1254.1,1256.1 1254.1,1261.8 C1254.1,1267.5 1249.5,1272.1 1243.8,1272.1 Z" id="Shape" fill="#2980B9" fill-rule="nonzero"></path>
            <path d="M855.3,1306.5 L862.7,1302.2 C862.8,1302.1 862.9,1302 862.9,1301.9 L862.9,1284.3 C862.9,1284.2 862.8,1284 862.7,1284 L855.3,1279.7 C855.2,1279.6 855,1279.6 854.9,1279.7 L847.5,1284 C847.4,1284.1 847.3,1284.2 847.3,1284.3 L847.3,1301.9 C847.3,1302 847.4,1302.2 847.5,1302.2 L854.9,1306.5 C855,1306.6 855.2,1306.6 855.3,1306.5 Z" id="Path" stroke="#000000" stroke-width="0.25" fill="#FFCF4A" fill-rule="nonzero"></path>
            <path d="M862.6,1284.3 L855.2,1288.5 C855.2,1288.5 855.1,1288.5 855.1,1288.5 L847.5,1284.2 C847.4,1284.1 847.4,1283.9 847.5,1283.9 L854.9,1279.6 C855,1279.5 855.2,1279.5 855.3,1279.6 L862.5,1283.8 C862.7,1283.9 862.7,1284.2 862.6,1284.3 Z" id="Path" stroke="#000000" stroke-width="0.25" fill="#FFE088" fill-rule="nonzero" stroke-linecap="round" stroke-linejoin="round"></path>
            <line x1="855.2" y1="1288.6" x2="855.2" y2="1306.6" id="Path" stroke="#000000" stroke-width="0.25" fill="#FFFFFF" fill-rule="nonzero" stroke-linecap="round" stroke-linejoin="round"></line>
            <path d="M842.1,1314.2 L849.5,1309.9 C849.6,1309.8 849.7,1309.7 849.7,1309.6 L849.7,1284.6 C849.7,1284.5 849.6,1284.3 849.5,1284.3 L842.1,1280 C842,1279.9 841.8,1279.9 841.7,1280 L834.3,1284.3 C834.2,1284.4 834.1,1284.5 834.1,1284.6 L834.1,1309.6 C834.1,1309.7 834.2,1309.9 834.3,1309.9 L841.7,1314.2 C841.8,1314.3 842,1314.3 842.1,1314.2 Z" id="Path" stroke="#000000" stroke-width="0.25" fill="#B2CC9E" fill-rule="nonzero"></path>
            <path d="M849.3,1284.6 L841.9,1288.8 C841.9,1288.8 841.8,1288.8 841.8,1288.8 L834.2,1284.5 C834.1,1284.4 834.1,1284.2 834.2,1284.2 L841.6,1279.9 C841.7,1279.8 841.9,1279.8 842,1279.9 L849.2,1284.1 C849.5,1284.2 849.5,1284.5 849.3,1284.6 Z" id="Path" stroke="#000000" stroke-width="0.25" fill="#D1EDBC" fill-rule="nonzero" stroke-linecap="round" stroke-linejoin="round"></path>
            <line x1="841.9" y1="1288.9" x2="841.9" y2="1314.3" id="Path" stroke="#000000" stroke-width="0.25" fill="#FFFFFF" fill-rule="nonzero" stroke-linecap="round" stroke-linejoin="round"></line>
            <path d="M1173.2,1261.1 L1165.5,1256.6 C1165.4,1256.5 1165.3,1256.4 1165.3,1256.2 L1165.3,1238 C1165.3,1237.9 1165.4,1237.7 1165.5,1237.6 L1173.2,1233.1 C1173.3,1233 1173.5,1233 1173.6,1233.1 L1181.3,1237.6 C1181.4,1237.7 1181.5,1237.8 1181.5,1238 L1181.5,1256.3 C1181.5,1256.4 1181.4,1256.6 1181.3,1256.7 L1173.6,1261.2 C1173.5,1261.2 1173.3,1261.2 1173.2,1261.1 Z" id="Path" stroke="#000000" stroke-width="0.25" fill="#FFCF4A" fill-rule="nonzero"></path>
            <path d="M1165.6,1238 L1173.3,1242.4 C1173.3,1242.4 1173.4,1242.4 1173.4,1242.4 L1181.3,1237.9 C1181.4,1237.8 1181.4,1237.6 1181.3,1237.5 L1173.6,1233.1 C1173.5,1233 1173.3,1233 1173.2,1233.1 L1165.7,1237.4 C1165.4,1237.6 1165.4,1237.9 1165.6,1238 Z" id="Path" stroke="#000000" stroke-width="0.25" fill="#FFE088" fill-rule="nonzero" stroke-linecap="round" stroke-linejoin="round"></path>
            <line x1="1173.3" y1="1242.4" x2="1173.3" y2="1261.1" id="Path" stroke="#000000" stroke-width="0.25" fill="#FFFFFF" fill-rule="nonzero" stroke-linecap="round" stroke-linejoin="round"></line>
            <path d="M1181.5,1256.5 L1196.5,1265.2 C1197,1265.5 1197,1266.3 1196.5,1266.6 L1189.9,1270.4 C1189.6,1270.5 1189.3,1270.5 1189.1,1270.4 L1173.3,1261.2 L1181.5,1256.5 Z" id="Path" fill="#000000" fill-rule="nonzero" opacity="0.1"></path>
            <path d="M1186.9,1269.1 L1179.2,1264.6 C1179.1,1264.5 1179,1264.4 1179,1264.2 L1179,1238.2 C1179,1238.1 1179.1,1237.9 1179.2,1237.8 L1186.9,1233.3 C1187,1233.2 1187.2,1233.2 1187.3,1233.3 L1195,1237.8 C1195.1,1237.9 1195.2,1238 1195.2,1238.2 L1195.2,1264.2 C1195.2,1264.3 1195.1,1264.5 1195,1264.6 L1187.3,1269.1 C1187.2,1269.2 1187.1,1269.2 1186.9,1269.1 Z" id="Path" stroke="#000000" stroke-width="0.25" fill="#B2CC9E" fill-rule="nonzero"></path>
            <path d="M1179.4,1238.3 L1187.1,1242.7 C1187.1,1242.7 1187.2,1242.7 1187.2,1242.7 L1195.1,1238.2 C1195.2,1238.1 1195.2,1237.9 1195.1,1237.8 L1187.4,1233.4 C1187.3,1233.3 1187.1,1233.3 1187,1233.4 L1179.5,1237.7 C1179.2,1237.9 1179.2,1238.2 1179.4,1238.3 Z" id="Path" stroke="#000000" stroke-width="0.25" fill="#D1EDBC" fill-rule="nonzero" stroke-linecap="round" stroke-linejoin="round"></path>
            <line x1="1187.1" y1="1242.7" x2="1187.1" y2="1269.2" id="Path" stroke="#000000" stroke-width="0.25" fill="#FFFFFF" fill-rule="nonzero" stroke-linecap="round" stroke-linejoin="round"></line>
            <path d="M1195.3,1264.5 L1210.3,1273.2 C1210.8,1273.5 1210.8,1274.3 1210.3,1274.6 L1203.7,1278.4 C1203.4,1278.5 1203.1,1278.5 1202.9,1278.4 L1187.1,1269.2 L1195.3,1264.5 Z" id="Path" fill="#000000" fill-rule="nonzero" opacity="0.1"></path>
            <path d="M1202.1,1277.6 L1194.4,1273.1 C1194.3,1273 1194.2,1272.9 1194.2,1272.7 L1194.2,1239.1 C1194.2,1239 1194.3,1238.8 1194.4,1238.7 L1202.1,1234.2 C1202.2,1234.1 1202.4,1234.1 1202.5,1234.2 L1210.2,1238.7 C1210.3,1238.8 1210.4,1238.9 1210.4,1239.1 L1210.4,1272.9 C1210.4,1273 1210.3,1273.2 1210.2,1273.3 L1202.5,1277.8 C1202.4,1277.7 1202.2,1277.7 1202.1,1277.6 Z" id="Path" stroke="#000000" stroke-width="0.25" fill="#81C750" fill-rule="nonzero"></path>
            <path d="M1194.6,1239.1 L1202.3,1243.5 C1202.3,1243.5 1202.4,1243.5 1202.4,1243.5 L1210.3,1239 C1210.4,1238.9 1210.4,1238.7 1210.3,1238.6 L1202.6,1234.2 C1202.5,1234.1 1202.3,1234.1 1202.2,1234.2 L1194.7,1238.5 C1194.4,1238.7 1194.4,1239 1194.6,1239.1 Z" id="Path" stroke="#000000" stroke-width="0.25" fill="#99E260" fill-rule="nonzero" stroke-linecap="round" stroke-linejoin="round"></path>
            <line x1="1202.3" y1="1243.5" x2="1202.3" y2="1277.7" id="Path" stroke="#000000" stroke-width="0.25" fill="#FFFFFF" fill-rule="nonzero" stroke-linecap="round" stroke-linejoin="round"></line>
            <path d="M1210.4,1273 L1225.4,1281.7 C1225.9,1282 1225.9,1282.8 1225.4,1283.1 L1218.8,1286.9 C1218.5,1287 1218.2,1287 1218,1286.9 L1202.2,1277.7 L1210.4,1273 Z" id="Path" fill="#000000" fill-rule="nonzero" opacity="0.1"></path>
            <path d="M828.4,1321.9 L835.8,1317.6 C835.9,1317.5 836,1317.4 836,1317.3 L836,1299.7 C836,1299.6 835.9,1299.4 835.8,1299.4 L828.4,1295.1 C828.3,1295 828.1,1295 828,1295.1 L820.6,1299.4 C820.5,1299.5 820.4,1299.6 820.4,1299.7 L820.4,1317.3 C820.4,1317.4 820.5,1317.6 820.6,1317.6 L828,1321.9 C828.2,1322 828.3,1322 828.4,1321.9 Z" id="Path" stroke="#000000" stroke-width="0.25" fill="#FFCF4A" fill-rule="nonzero"></path>
            <path d="M835.7,1299.7 L828.3,1303.9 C828.3,1303.9 828.2,1303.9 828.2,1303.9 L820.6,1299.6 C820.5,1299.5 820.5,1299.3 820.6,1299.3 L828,1295 C828.1,1294.9 828.3,1294.9 828.4,1295 L835.6,1299.2 C835.9,1299.4 835.9,1299.6 835.7,1299.7 Z" id="Path" stroke="#000000" stroke-width="0.25" fill="#FFE088" fill-rule="nonzero" stroke-linecap="round" stroke-linejoin="round"></path>
            <line x1="828.3" y1="1304" x2="828.3" y2="1322" id="Path" stroke="#000000" stroke-width="0.25" fill="#FFFFFF" fill-rule="nonzero" stroke-linecap="round" stroke-linejoin="round"></line>
            <g id="Group" transform="translate(930.000000, 1235.000000)" fill-rule="nonzero">
                <g opacity="0.1" transform="translate(10.000000, 37.000000)" fill="#000000" id="Path">
                    <path d="M0.8,0.1 L0.1,0.2 C-0.1,0.2 2.84217094e-14,0.4 0.3,0.5 L6.5,3.5 C6.8,3.6 7.2,3.7 7.3,3.7 L8,3.6 C8.2,3.6 8.1,3.4 7.8,3.3 L1.6,0.3 C1.3,0.2 1,0.1 0.8,0.1 Z"></path>
                    <g transform="translate(1.000000, 2.000000)">
                        <path d="M31.4,13.6 L1.5,3.6 C0.7,3.3 0.2,3 0.4,2.8 C0.6,2.4 1.7,1.7 5.3,1 C9,0.3 11.4,0.3 12.8,0.4 C13.5,0.5 14.4,0.8 14.8,1.1 L32.1,13.5 C32.5,13.7 32,13.8 31.4,13.6 Z"></path>
                    </g>
                </g>
                <g>
                    <g transform="translate(9.000000, 29.000000)">
                        <path d="M2.4,8.5 L1.5,8.5 C1.2,8.5 1,8.3 1,8 L1,0.9 C1,0.6 1.2,0.4 1.5,0.4 L2.4,0.4 C2.7,0.4 2.9,0.6 2.9,0.9 L2.9,8 C2.9,8.3 2.7,8.5 2.4,8.5 Z" id="Path" fill="#25739E"></path>
                        <path d="M2.4,8.6 L1.5,8.6 C1.1,8.6 0.9,8.3 0.9,8 L0.9,0.9 C0.9,0.5 1.2,0.3 1.5,0.3 L2.4,0.3 C2.8,0.3 3,0.6 3,0.9 L3,8 C3.1,8.3 2.8,8.6 2.4,8.6 Z M1.6,0.5 C1.4,0.5 1.2,0.7 1.2,0.9 L1.2,8 C1.2,8.2 1.4,8.4 1.6,8.4 L2.5,8.4 C2.7,8.4 2.9,8.2 2.9,8 L2.9,0.9 C2.9,0.7 2.7,0.5 2.5,0.5 C2.5,0.5 1.6,0.5 1.6,0.5 Z" id="Shape" fill="#000000"></path>
                    </g>
                    <g>
                        <path d="M10.4,1.3 L1.3,27.7 C1.1,28.4 1.3,29.1 2,29.5 C3.2,30.1 5.7,30.9 11,30.9 C16.3,30.9 18.9,30.1 20,29.5 C20.6,29.2 20.9,28.4 20.7,27.7 L11.6,1.3 C11.4,0.8 10.6,0.8 10.4,1.3 Z" id="Path" fill="#2980B9"></path>
                        <path d="M11,0.9 C11.2,0.9 11.5,1 11.6,1.3 L20.7,27.7 C20.9,28.4 20.7,29.1 20,29.5 C18.8,30.1 16.3,30.9 11,30.9 C5.7,30.9 3.1,30.1 2,29.5 C1.4,29.2 1.1,28.4 1.3,27.7 L10.4,1.3 C10.5,1 10.8,0.9 11,0.9 M11,0.6 C10.6,0.6 10.3,0.8 10.2,1.2 L1.1,27.6 C0.8,28.4 1.1,29.3 1.9,29.7 C3.1,30.4 5.7,31.2 11.1,31.2 C16.5,31.2 19,30.4 20.3,29.7 C21,29.3 21.4,28.4 21.1,27.6 L11.8,1.2 C11.7,0.9 11.4,0.6 11,0.6 L11,0.6 Z" id="Shape" fill="#000000"></path>
                    </g>
                    <path d="M18.7,30 C20.9,29.3 20.9,28.3 20.7,27.7 L11.8,2.1 C11.7,1.9 11.9,9.1 13.2,13.8 C15.4,22 17.9,30.3 18.7,30 Z" id="Path" fill="#195C82"></path>
                </g>
            </g>
            <g id="Group" transform="translate(958.000000, 1226.000000)" fill-rule="nonzero">
                <g opacity="0.1" transform="translate(8.000000, 32.000000)" fill="#000000" id="Path">
                    <path d="M0.8,1 L0.2,1.1 C2.84217094e-14,1.1 0.1,1.2 0.4,1.4 L5.9,4 C6.1,4.1 6.5,4.2 6.6,4.2 L7.2,4.1 C7.4,4.1 7.3,4 7,3.8 L1.5,1.2 C1.3,1 1,0.9 0.8,1 Z"></path>
                    <g transform="translate(1.000000, 2.000000)">
                        <path d="M27.6,12.5 L1.3,3.7 C0.6,3.5 0.2,3.2 0.3,3 C0.5,2.6 1.4,2 4.6,1.4 C7.8,0.8 10,0.8 11.2,0.9 C11.8,1 12.6,1.2 13,1.5 L28.2,12.4 C28.6,12.6 28.2,12.7 27.6,12.5 Z"></path>
                    </g>
                </g>
                <g>
                    <g transform="translate(8.000000, 26.000000)">
                        <path d="M1.4,7.3 L0.6,7.3 C0.3,7.3 0.1,7.1 0.1,6.8 L0.1,0.6 C0.1,0.3 0.3,0.1 0.6,0.1 L1.4,0.1 C1.7,0.1 1.9,0.3 1.9,0.6 L1.9,6.8 C1.8,7.1 1.6,7.3 1.4,7.3 Z" id="Path" fill="#25739E"></path>
                        <path d="M1.4,7.4 L0.6,7.4 C0.3,7.4 0,7.1 0,6.8 L0,0.6 C0,0.3 0.3,-3.55271368e-15 0.6,-3.55271368e-15 L1.4,-3.55271368e-15 C1.7,-3.55271368e-15 2,0.3 2,0.6 L2,6.8 C2,7.2 1.7,7.4 1.4,7.4 Z M0.6,0.3 C0.4,0.3 0.3,0.5 0.3,0.6 L0.3,6.8 C0.3,7 0.4,7.1 0.6,7.1 L1.4,7.1 C1.6,7.1 1.7,6.9 1.7,6.8 L1.7,0.6 C1.7,0.4 1.6,0.3 1.4,0.3 L0.6,0.3 L0.6,0.3 Z" id="Shape" fill="#000000"></path>
                    </g>
                    <g>
                        <path d="M8.5,1.5 L0.5,24.7 C0.3,25.3 0.5,26 1.1,26.3 C2.1,26.9 4.4,27.6 9,27.6 C13.6,27.6 15.9,26.9 16.9,26.3 C17.5,26 17.7,25.3 17.5,24.7 L9.5,1.5 C9.3,1 8.7,1 8.5,1.5 Z" id="Path" fill="#2980B9"></path>
                        <path d="M9,1.1 C9.2,1.1 9.4,1.2 9.5,1.4 L17.5,24.6 C17.7,25.2 17.5,25.9 16.9,26.2 C15.9,26.8 13.6,27.5 9,27.5 C4.4,27.5 2.1,26.8 1.1,26.2 C0.5,25.9 0.3,25.2 0.5,24.6 L8.5,1.4 C8.6,1.2 8.8,1.1 9,1.1 M9,0.9 C8.7,0.9 8.4,1.1 8.3,1.4 L0.3,24.6 C-2.77555756e-16,25.3 0.3,26.1 1,26.5 C2.1,27.1 4.3,27.8 9.1,27.8 C13.8,27.8 16.1,27.1 17.2,26.5 C17.9,26.1 18.2,25.4 17.9,24.6 L9.9,1.4 C9.6,1.1 9.3,0.9 9,0.9 L9,0.9 Z" id="Shape" fill="#000000"></path>
                    </g>
                    <path d="M15.8,26.7 C17.7,26.1 17.8,25.2 17.6,24.7 L9.8,2.2 C9.7,2 9.9,8.4 11,12.5 C12.9,19.7 15.1,26.9 15.8,26.7 Z" id="Path" fill="#195C82"></path>
                </g>
            </g>
            <g id="Group" transform="translate(895.000000, 1235.000000)" fill-rule="nonzero">
                <g opacity="0.1" transform="translate(6.000000, 24.000000)" fill="#000000" id="Path">
                    <path d="M1.4,0.3 L1,0.4 C0.9,0.4 0.9,0.5 1.1,0.6 L5.1,2.5 C5.3,2.6 5.5,2.6 5.6,2.6 L6,2.5 C6.1,2.5 6.1,2.4 5.9,2.3 L1.9,0.4 C1.7,0.3 1.5,0.2 1.4,0.3 Z"></path>
                    <g transform="translate(1.000000, 1.000000)">
                        <path d="M20.7,9.2 L1.5,2.8 C1,2.6 0.7,2.4 0.8,2.3 C1,2 1.6,1.6 4,1.2 C6.4,0.8 7.9,0.8 8.8,0.8 C9.3,0.8 9.8,1 10.1,1.2 L21.2,9.1 C21.4,9.2 21,9.3 20.7,9.2 Z"></path>
                    </g>
                </g>
                <g>
                    <g transform="translate(6.000000, 19.000000)">
                        <path d="M1.8,5.5 L1.3,5.5 C1.1,5.5 1,5.3 1,5.2 L1,0.7 C1,0.5 1.2,0.4 1.3,0.4 L1.8,0.4 C2,0.4 2.1,0.6 2.1,0.7 L2.1,5.2 C2.1,5.4 2,5.5 1.8,5.5 Z" id="Path" fill="#25739E"></path>
                        <path d="M1.8,5.6 L1.3,5.6 C1,5.6 0.8,5.4 0.8,5.1 L0.8,0.6 C0.8,0.3 1,0.1 1.3,0.1 L1.8,0.1 C2.1,0.1 2.3,0.3 2.3,0.6 L2.3,5.1 C2.2,5.4 2,5.6 1.8,5.6 Z M1.2,0.4 C1.1,0.4 1,0.5 1,0.6 L1,5.1 C1,5.2 1.1,5.3 1.2,5.3 L1.7,5.3 C1.8,5.3 1.9,5.2 1.9,5.1 L1.9,0.6 C1.9,0.5 1.8,0.4 1.7,0.4 L1.2,0.4 L1.2,0.4 Z" id="Shape" fill="#000000"></path>
                    </g>
                    <g>
                        <path d="M7.2,1.3 L1.3,18.2 C1.1,18.6 1.3,19.1 1.7,19.3 C2.5,19.7 4.1,20.2 7.5,20.2 C10.9,20.2 12.5,19.7 13.3,19.3 C13.7,19.1 13.9,18.6 13.7,18.2 L7.8,1.3 C7.8,1 7.3,1 7.2,1.3 Z" id="Path" fill="#2980B9"></path>
                        <path d="M7.5,1 C7.6,1 7.8,1.1 7.9,1.3 L13.8,18.2 C14,18.6 13.8,19.1 13.4,19.3 C12.6,19.7 11,20.2 7.6,20.2 C4.2,20.2 2.6,19.7 1.8,19.3 C1.4,19.1 1.2,18.6 1.4,18.2 L7.3,1.3 C7.2,1.1 7.4,1 7.5,1 M7.5,0.8 C7.2,0.8 7,1 6.9,1.2 L1,18.1 C0.8,18.7 1,19.3 1.5,19.5 C2.3,19.9 4,20.4 7.4,20.4 C10.8,20.4 12.5,19.9 13.3,19.5 C13.8,19.2 14,18.6 13.8,18.1 L7.9,1.2 C8,1 7.8,0.8 7.5,0.8 L7.5,0.8 Z" id="Shape" fill="#000000"></path>
                    </g>
                    <path d="M12.5,19.7 C13.9,19.3 13.9,18.6 13.8,18.2 L8.1,1.8 C8.1,1.7 8.2,6.3 9,9.3 C10.3,14.6 11.9,19.9 12.5,19.7 Z" id="Path" fill="#195C82"></path>
                </g>
            </g>
        </g>
    </g>
</svg>