<?xml version="1.0" encoding="UTF-8"?>
<svg width="400px" height="152px" viewBox="0 0 400 152" version="1.1" xmlns="http://www.w3.org/2000/svg" xmlns:xlink="http://www.w3.org/1999/xlink">
    <title>daily-mirror-logo</title>
    <defs>
        <polygon id="path-1" points="0 0 399.889169 0 399.889169 151.153947 0 151.153947"></polygon>
    </defs>
    <g id="presscentre-logo" stroke="none" stroke-width="1" fill="none" fill-rule="evenodd">
        <g id="daily-mirror-logo">
            <g id="Clipped">
                <mask id="mask-2" fill="white">
                    <use xlink:href="#path-1"></use>
                </mask>
                <g id="Path"></g>
                <polygon id="Path" stroke="#1B1918" stroke-width="0.5669" fill="#E4161B" mask="url(#mask-2)" transform="translate(199.969576, 75.570454) scale(-1, 1) rotate(-180.000000) translate(-199.969576, -75.570454) " points="0.206449958 0.154294131 399.732702 0.154294131 399.732702 150.986613 0.206449958 150.986613"></polygon>
            </g>
            <polygon id="Path" stroke="#1B1918" stroke-width="1.4202" fill="#1B1918" transform="translate(197.230311, 120.688456) scale(-1, 1) rotate(-180.000000) translate(-197.230311, -120.688456) " points="16.2595619 111.05485 378.201061 111.05485 378.201061 130.322062 16.2595619 130.322062"></polygon>
            <polygon id="Path" stroke="#1B1918" stroke-width="1.4173" fill="#FFFFFF" transform="translate(80.974009, 76.587491) scale(-1, 1) rotate(-180.000000) translate(-80.974009, -76.587491) " points="93.5131259 19.399774 109.348922 91.3247566 109.348922 19.399774 138.82128 19.399774 138.82128 133.775209 96.3708275 133.775209 80.9740091 76.3669158 65.5771905 133.775209 23.1267385 133.775209 23.1267385 19.399774 52.6012692 19.399774 52.6012692 91.3247566 68.4370654 19.399774"></polygon>
            <polygon id="Path" stroke="#1B1918" stroke-width="1.4173" fill="#FFFFFF" transform="translate(156.583580, 77.847922) scale(-1, 1) rotate(-180.000000) translate(-156.583580, -77.847922) " points="145.177764 52.1231745 167.989395 52.1231745 167.989395 103.57267 145.177764 103.57267"></polygon>
            <path d="M215.190369,82.7614829 C203.640038,85.0541637 196.766342,81.4945323 196.390386,69.7986004 L196.390386,50.6248347 L173.344054,50.6248347 L173.344054,102.074331 L194.267211,102.074331 L194.267211,91.6301373 C198.163682,100.414039 204.754868,104.892915 215.190369,103.23045 L215.190369,82.7614829 Z" id="Path" stroke="#1B1918" stroke-width="1.4173" fill="#FFFFFF" transform="translate(194.267211, 77.098753) scale(-1, 1) rotate(-180.000000) translate(-194.267211, -77.098753) "></path>
            <path d="M262.061022,82.7614829 C250.510692,85.0541637 243.636996,81.4945323 243.26104,69.7986004 L243.26104,50.6248347 L220.214708,50.6248347 L220.214708,102.074331 L241.137865,102.074331 L241.137865,91.6301373 C245.034336,100.414039 251.625522,104.892915 262.061022,103.23045 L262.061022,82.7614829 Z" id="Path" stroke="#1B1918" stroke-width="1.4173" fill="#FFFFFF" transform="translate(241.137865, 77.098753) scale(-1, 1) rotate(-180.000000) translate(-241.137865, -77.098753) "></path>
            <path d="M377.360049,82.7614829 C365.809718,85.0541637 358.936022,81.4945323 358.560066,69.7986004 L358.560066,50.6248347 L335.513734,50.6248347 L335.513734,102.074331 L356.436892,102.074331 L356.436892,91.6301373 C360.333362,100.414039 366.924548,104.892915 377.360049,103.23045 L377.360049,82.7614829 Z" id="Path" stroke="#1B1918" stroke-width="1.4173" fill="#FFFFFF" transform="translate(356.436892, 77.098753) scale(-1, 1) rotate(-180.000000) translate(-356.436892, -77.098753) "></path>
            <path d="M330.704538,78.014169 C330.704538,95.464621 317.248348,105.228616 297.844228,105.228616 C278.440108,105.228616 264.983919,95.464621 264.983919,78.014169 C264.983919,60.563717 278.440108,50.7997218 297.844228,50.7997218 C317.248348,50.7997218 330.704538,60.563717 330.704538,78.014169 Z M307.775556,78.014169 C307.684284,86.961057 304.052938,91.5225139 297.844228,91.5616308 C291.635518,91.5225139 288.004172,86.961057 287.9129,78.014169 C288.004172,69.0672809 291.635518,64.5058241 297.844228,64.4667073 C304.052938,64.5058241 307.684284,69.0672809 307.775556,78.014169 Z" id="Shape" stroke="#1B1918" stroke-width="1.4173" fill="#FFFFFF" transform="translate(297.844228, 78.014169) scale(-1, 1) rotate(-180.000000) translate(-297.844228, -78.014169) "></path>
            <path d="M146.120914,20.0734527 L158.068933,20.0734527 C164.642733,20.0734527 169.971314,25.402034 169.971314,31.9736613 C169.971314,38.5474617 164.642733,43.8738699 158.068933,43.8738699 L146.120914,43.8738699 L146.120914,20.0734527 Z M160.635431,32.0171245 C160.665855,35.3681328 158.55572,37.0327712 155.219924,36.7393949 L155.219924,27.2948539 C158.55572,27.0036508 160.665855,28.6682892 160.635431,32.0171245 Z" id="Shape" stroke="#1B1918" stroke-width="0.7087" fill="#FFFFFF" transform="translate(158.046114, 31.973661) scale(-1, 1) rotate(-180.000000) translate(-158.046114, -31.973661) "></path>
            <path d="M186.491655,23.202799 L187.25226,20.0734527 L196.696801,20.0734527 L188.293202,43.8738699 L178.20758,43.8738699 L169.801808,20.0734527 L179.246349,20.0734527 L180.006954,23.202799 L186.491655,23.202799 Z M185.170376,28.3662204 L183.249305,36.2917246 L181.328234,28.3662204 L185.170376,28.3662204 Z" id="Shape" stroke="#1B1918" stroke-width="0.7087" fill="#FFFFFF" transform="translate(183.249305, 31.973661) scale(-1, 1) rotate(-180.000000) translate(-183.249305, -31.973661) "></path>
            <polygon id="Path" stroke="#1B1918" stroke-width="0.7087" fill="#FFFFFF" transform="translate(204.861353, 31.973661) scale(-1, 1) rotate(-180.000000) translate(-204.861353, -31.973661) " points="200.339013 20.0734527 209.383693 20.0734527 209.383693 43.8738699 200.339013 43.8738699"></polygon>
            <polygon id="Path" stroke="#1B1918" stroke-width="0.7087" fill="#FFFFFF" transform="translate(221.671810, 31.973661) scale(-1, 1) rotate(-180.000000) translate(-221.671810, -31.973661) " points="213.386648 43.8738699 222.431328 43.8738699 222.431328 27.2448713 229.956972 27.2448713 229.956972 20.0734527 213.386648 20.0734527"></polygon>
            <polygon id="Path" stroke="#1B1918" stroke-width="0.7087" fill="#FFFFFF" transform="translate(240.802112, 31.973661) scale(-1, 1) rotate(-180.000000) translate(-240.802112, -31.973661) " points="245.284249 20.0734527 245.284249 30.406815 254.609266 43.8738699 243.923853 43.8738699 240.803199 37.9715751 237.680372 43.8738699 226.994958 43.8738699 236.319976 30.406815 236.319976 20.0734527"></polygon>
        </g>
    </g>
</svg>