<?xml version="1.0" encoding="UTF-8"?>
<svg width="400px" height="174px" viewBox="0 0 400 174" version="1.1" xmlns="http://www.w3.org/2000/svg" xmlns:xlink="http://www.w3.org/1999/xlink">
    <title>the-sun-logo</title>
    <g id="presscentre-logo" stroke="none" stroke-width="1" fill="none" fill-rule="evenodd">
        <g id="the-sun-logo" fill-rule="nonzero">
            <polygon id="Path" fill="#EB1701" points="0 0 400 0 400 173.166369 0 173.166369"></polygon>
            <path d="M162.432916,53.9534884 C153.631485,36.7084079 131.305903,27.2629696 99.3202147,27.2629696 C61.0375671,27.2629696 37.7817531,40.4293381 37.7817531,62.3255814 C37.7817531,76.1359571 48.5867621,85.3667263 71.3416816,91.3059034 L81.2880143,93.881932 L90.9481216,96.4579606 L100.894454,99.0339893 C101.323792,99.177102 102.039356,99.3202147 102.683363,99.6779964 C106.261181,101.109123 108.336315,103.184258 108.336315,105.474061 C108.336315,110.125224 101.610018,113.345259 91.6636852,113.345259 C75.6350626,113.345259 67.549195,110.125224 63.0411449,102.110912 L19.8211091,108.050089 C30.8407871,128.014311 54.3112701,137.960644 90.8050089,137.960644 C129.588551,137.960644 156.350626,122.647585 156.350626,100.465116 C156.350626,88.2289803 144.186047,76.6368515 125.724508,72.1288014 L117.137746,70.0536673 L108.550984,67.8354204 L99.9642218,65.7602862 C97.4597496,65.1162791 95.2415027,64.4722719 93.2379249,63.8282648 C88.3005367,62.3971377 86.0107335,60.4651163 86.0107335,57.745975 C86.0107335,53.3810376 91.6636852,50.6618962 100.465116,50.6618962 C112.415027,50.6618962 121.001789,54.3828265 123.649374,61.1091234 L162.432916,53.9534884 Z M271.699463,64.0429338 L233.273703,64.0429338 L224.830054,99.8926655 C221.9678,111.914132 216.171735,117.996422 207.513417,117.996422 C203.005367,117.996422 200.500894,116.064401 200.500894,112.55814 C200.500894,111.413238 200.500894,110.483005 201.717352,105.474061 L211.592129,64.0429338 L172.522361,64.0429338 L162.003578,109.338104 C160.78712,114.776386 159.928444,119.355993 159.928444,121.717352 C159.928444,131.091234 171.878354,138.461538 187.119857,138.461538 C202.576029,138.461538 212.021467,134.168157 221.466905,123.005367 L218.175313,136.529517 L254.812165,136.529517 L271.699463,64.0429338 Z M280,64.0429338 L262.898032,136.529517 L300.536673,136.529517 L310.840787,93.0232558 C312.701252,85.3667263 317.63864,81.431127 325.223614,81.431127 C331.37746,81.431127 334.669052,83.3631485 334.669052,87.1556351 C334.669052,88.157424 334.239714,90.5187835 333.667263,93.0232558 L323.577818,136.529517 L362.075134,136.529517 L373.595707,87.0125224 C374.239714,84.3649374 374.597496,81.8604651 374.597496,79.6422182 C374.597496,69.0518784 362.862254,61.8246869 345.617174,61.8246869 C329.80322,61.8246869 318.282648,66.6905188 312.486583,75.7781753 L315.348837,64.0429338 L280,64.0429338 Z M212.307692,36.9946333 L219.60644,36.9946333 L220.822898,31.5563506 L196.994633,31.5563506 L195.706619,36.9946333 L202.790698,36.9946333 L198.497317,55.2415027 L208.085868,55.2415027 L212.307692,36.9946333 Z M238.926655,45.7960644 L236.708408,55.2415027 L246.225403,55.2415027 L251.735242,31.6994633 L242.146691,31.6994633 L240.143113,40.3577818 L231.556351,40.3577818 L233.559928,31.6994633 L224.042934,31.6994633 L218.533095,55.2415027 L228.050089,55.2415027 L230.268336,45.7960644 L238.926655,45.7960644 Z M275.348837,49.8747764 L260.608229,49.8747764 L261.610018,45.7245081 L273.488372,45.7245081 L274.70483,40.5724508 L262.826476,40.5724508 L263.685152,36.8515206 L277.853309,36.8515206 L279.069767,31.6994633 L255.456172,31.6994633 L249.946333,55.2415027 L274.060823,55.2415027 L275.348837,49.8747764 Z" id="Shape" fill="#FFFFFF"></path>
        </g>
    </g>
</svg>