<?xml version="1.0" encoding="UTF-8"?>
<svg width="400px" height="96px" viewBox="0 0 400 96" version="1.1" xmlns="http://www.w3.org/2000/svg" xmlns:xlink="http://www.w3.org/1999/xlink">
    <title>the-independent-logo</title>
    <defs>
        <path d="M19.4352435,0.245324476 C29.7909609,0.245324476 38.1874431,8.6401264 38.1874431,18.9958438 C38.1874431,29.3524014 29.7909609,37.7480435 19.4352435,37.7480435 C9.07952606,37.7480435 0.683883984,29.3524014 0.683883984,18.9958438 C0.683883984,8.6401264 9.07952606,0.245324476 19.4352435,0.245324476" id="path-1"></path>
    </defs>
    <g id="presscentre-logo" stroke="none" stroke-width="1" fill="none" fill-rule="evenodd">
        <g id="g3066" transform="translate(199.644274, 47.973946) scale(-1, 1) rotate(-180.000000) translate(-199.644274, -47.973946) translate(0.308726, 0.797866)">
            <g id="g16889" transform="translate(0.665410, 0.075406)">
                <g id="g16867-Clipped" transform="translate(92.905506, 53.996298)">
                    <mask id="mask-2" fill="white">
                        <use xlink:href="#path-1"></use>
                    </mask>
                    <g id="path4544"></g>
                    <g id="g16867" mask="url(#mask-2)" fill="#E41C29" fill-rule="nonzero">
                        <g transform="translate(0.840152, 0.000000)" id="path16869">
                            <path d="M19.134469,17.2189217 L19.4117192,17.1626315 L19.3302244,16.8929426 L19.3646707,16.8727789 L19.774665,17.3550264 L19.7553415,17.3894726 L19.1327887,17.2609293 L19.134469,17.2189217 L19.134469,17.2189217 Z M19.1806773,17.98178 L19.2168039,17.9607762 L19.5747088,18.3480864 L19.5545451,18.3833728 L19.0344908,18.2968371 L19.0328105,18.2556696 L19.2579713,18.2002196 L19.1806773,17.98178 L19.1806773,17.98178 Z M17.9960626,14.94799 L17.5743061,14.9488301 L17.5642243,14.9085028 L17.7305744,14.8362497 L17.6431986,14.6783011 L17.6742842,14.6505761 L18.009505,14.9101831 L17.9960626,14.94799 L17.9960626,14.94799 Z M18.8916649,15.6537179 L18.3648894,15.6360747 L18.3590084,15.5949073 L18.5732472,15.5100519 L18.4682282,15.3042146 L18.5009941,15.2781698 L18.9067877,15.6150709 L18.8916649,15.6537179 L18.8916649,15.6537179 Z M19.3184623,16.1183221 L19.6108353,16.0754744 L19.5419428,15.7898226 L19.5797497,15.7721794 L19.9746213,16.2981147 L19.9536175,16.3317208 L19.3151017,16.1594896 L19.3184623,16.1183221 L19.3184623,16.1183221 Z M17.9170883,14.0171012 L17.9086867,13.9767739 L18.0767172,13.9045208 L17.9893414,13.7465722 L18.020427,13.7196873 L18.3539675,13.9784542 L18.340525,14.0162611 L17.9170883,14.0171012 L17.9170883,14.0171012 Z M20.5526461,13.9818148 L20.8366175,14.2935113 L20.8164539,14.3296379 L20.3997383,14.2573848 L20.398058,14.2162173 L20.5736499,14.1742097 L20.5165195,14.0028186 L20.5526461,13.9818148 L20.5526461,13.9818148 Z M20.7610038,16.6484583 L21.2449316,17.3172195 L21.2222475,17.3499854 L20.4291437,17.1206239 L20.4325043,17.0786162 L20.8038516,17.0315677 L20.723197,16.6661015 L20.7610038,16.6484583 L20.7610038,16.6484583 Z M19.2336069,14.7564352 L18.7051511,14.7572754 L18.6950693,14.7161079 L18.9101483,14.6245313 L18.7950474,14.4220546 L18.8278134,14.3951698 L19.2462092,14.7186284 L19.2336069,14.7564352 L19.2336069,14.7564352 Z M20.2014624,18.3707705 L20.5644082,18.2733128 L20.4325043,17.9229693 L20.4669505,17.9011254 L21.0399344,18.4959532 L21.0206109,18.5320797 L20.204823,18.4127781 L20.2014624,18.3707705 Z M19.9586584,14.721989 L20.3854558,15.2252402 L20.3636118,15.2596865 L19.719215,15.124422 L19.719215,15.0824143 L20.0065471,15.0236037 L19.9208515,14.7421527 L19.9586584,14.721989 L19.9586584,14.721989 Z M21.2793778,19.8065908 L21.3104634,19.7805461 L21.6456842,20.039313 L21.6322418,20.0762797 L21.2104853,20.0762797 L21.2020838,20.0367925 L21.368434,19.9645394 L21.2793778,19.8065908 L21.2793778,19.8065908 Z M20.1308896,19.1000227 L20.1636555,19.0731378 L20.6837098,19.4772511 L20.6711075,19.5158981 L20.0107478,19.5167383 L20.0015061,19.4755708 L20.2737155,19.3587896 L20.1308896,19.1000227 L20.1308896,19.1000227 Z M22.2984826,15.8309901 L22.2984826,15.7898226 L22.5219631,15.7335324 L22.4446691,15.5167731 L22.4791153,15.4949291 L22.8387005,15.8822393 L22.8202172,15.9175257 L22.2984826,15.8309901 L22.2984826,15.8309901 Z M23.8704076,19.5478239 L23.9048538,19.520939 L24.2383943,19.7797059 L24.2249518,19.8175128 L23.8031954,19.8175128 L23.7947938,19.7780256 L23.961144,19.7049324 L23.8704076,19.5478239 L23.8704076,19.5478239 Z M19.6612445,13.9356064 L19.2378077,13.9372867 L19.2319266,13.8969594 L19.3957563,13.8247063 L19.3083805,13.6675978 L19.3403063,13.6390327 L19.6746869,13.8977996 L19.6612445,13.9356064 L19.6612445,13.9356064 Z M22.6891534,19.7427392 L22.720239,19.7158544 L23.1369546,20.039313 L23.1251924,20.0762797 L22.5958965,20.0762797 L22.587495,20.0367925 L22.7992134,19.9443758 L22.6891534,19.7427392 L22.6891534,19.7427392 Z M21.8800867,16.9332699 L22.1690991,16.8778198 L22.0867642,16.5955287 L22.124571,16.5762052 L22.5429669,17.0844973 L22.5219631,17.1206239 L21.8784064,16.9744374 L21.8800867,16.9332699 L21.8800867,16.9332699 Z M22.2850401,20.6921113 L24.4316293,20.6887507 C24.4316293,20.6887507 25.1096322,20.4333444 25.9985134,20.0754395 C26.4093478,19.9107697 26.625267,19.5411027 26.5908207,19.1210265 C26.5908207,19.1210265 26.9436847,18.7681625 27.1394402,18.5455222 C27.3721624,18.2758333 27.3998874,17.9028057 27.2150539,17.6574812 C27.0344212,17.4180378 26.7748141,17.358387 26.6647541,17.3432642 L26.6454306,17.3835915 C26.7848959,17.5255773 26.7286057,17.7515782 26.6042632,17.932211 C26.4731994,18.1204051 26.3564182,18.1548514 26.2219939,18.0741967 C26.1631832,18.03723 26.0875695,17.9809398 26.0875695,17.9809398 L26.4202698,17.4491234 L26.4093478,17.4104764 C26.1430196,17.3373832 25.775873,17.3953537 25.6053221,17.612113 C25.5969206,17.612113 25.5969206,17.612113 23.9527425,17.612113 L23.9510622,17.5701053 L24.8701888,17.402915 L24.8979138,17.3399036 L21.7406214,13.6264304 L21.7700268,13.5987054 L22.8445816,14.5598396 L22.8462619,13.7213676 L22.7479641,13.4684817 L22.8479422,12.8812153 L22.8134959,12.6291696 C22.8134959,12.6291696 23.7897529,11.7915377 23.7964741,11.7915377 L23.7981545,11.7915377 C23.7981545,11.7915377 23.8115969,11.7831362 23.8241992,11.7789354 C23.834281,11.7738945 23.8477234,11.7663332 23.862006,11.7579316 C23.8754485,11.7503703 23.8922515,11.7419687 23.9082144,11.7318869 C23.9250175,11.7218051 23.9426607,11.710043 23.961144,11.6974407 C23.9804675,11.6873588 23.9939099,11.6705558 24.0132334,11.6571134 C24.0317168,11.6411505 24.04936,11.627708 24.0644827,11.6100648 C24.0804456,11.5932618 24.0972487,11.5747784 24.1132116,11.5571352 C24.126654,11.5378117 24.1442972,11.5193284 24.1560593,11.5000049 C24.1711821,11.4806814 24.1804238,11.4596776 24.1938662,11.4411942 C24.2022677,11.4201904 24.21487,11.4017071 24.2232715,11.3815434 C24.2333534,11.3622199 24.2417549,11.3428964 24.2476359,11.3252532 C24.2560375,11.3067698 24.2610784,11.290807 24.2661193,11.2748441 C24.2728405,11.2622418 24.2762011,11.247119 24.2787216,11.2336766 C24.2854428,11.2093122 24.2904837,11.1950296 24.2904837,11.1950296 L24.3333315,11.1933493 C24.3333315,11.1933493 24.341733,11.2067917 24.3476141,11.2311561 C24.3543353,11.2429183 24.3576959,11.258041 24.3610565,11.2773645 C24.3644171,11.2975282 24.369458,11.3202123 24.3677777,11.3437365 L24.3677777,11.3807032 C24.3660974,11.3941457 24.3627368,11.4075881 24.3627368,11.4210306 C24.3593762,11.4487556 24.3492944,11.4764806 24.341733,11.5050458 C24.3316512,11.5344511 24.3182087,11.5638565 24.3039261,11.5907413 C24.2888034,11.6193065 24.2694799,11.6445111 24.2476359,11.6705558 C24.2266321,11.6940801 24.2056283,11.7184445 24.1787435,11.737768 C24.154379,11.7596119 24.1283343,11.776415 24.1022896,11.7906976 C24.0737244,11.8049802 24.04936,11.8175825 24.021635,11.8243037 C24.0115531,11.8285044 24.0014713,11.831865 23.9922296,11.8343855 C24.1148919,11.8621105 24.2383943,11.8889954 24.3576959,11.9167204 L24.3593762,11.9167204 C24.3593762,11.9158803 24.3593762,11.9158803 24.3610565,11.9150401 C24.3711383,11.9108394 24.3837406,11.9024378 24.3988634,11.8948765 C24.4139861,11.8873151 24.429949,11.8789136 24.4450717,11.8671514 C24.4627149,11.8587499 24.479518,11.8469878 24.4954809,11.8343855 C24.5173248,11.8226234 24.5316074,11.8066605 24.5500908,11.7948983 C24.5660537,11.7780953 24.5862173,11.7638127 24.6004999,11.7470097 C24.6189833,11.7302066 24.6349462,11.7117233 24.6500689,11.6940801 C24.6643515,11.6747566 24.6794742,11.6571134 24.6929167,11.6369497 C24.705519,11.616786 24.7172811,11.5966224 24.7290432,11.5772989 C24.7382849,11.5562951 24.7534076,11.5378117 24.7601289,11.5184882 C24.7693705,11.4991647 24.7777721,11.4790011 24.7861736,11.4613579 C24.7945751,11.4437147 24.799616,11.4277518 24.8021365,11.4117889 C24.8088577,11.3975063 24.8138986,11.3832237 24.8172592,11.3706214 C24.8239804,11.3454169 24.8290213,11.3319744 24.8290213,11.3319744 L24.8718691,11.329454 C24.8718691,11.329454 24.8777502,11.3437365 24.8844714,11.3689411 C24.8911926,11.3798631 24.8962335,11.3949858 24.8995941,11.4151495 C24.9029547,11.434473 24.904635,11.4579973 24.904635,11.4806814 L24.904635,11.5184882 C24.9029547,11.5310905 24.9012744,11.5445329 24.9012744,11.5579754 C24.8979138,11.5857004 24.8861517,11.6125853 24.8794305,11.6419906 C24.8685085,11.6705558 24.8567464,11.6999611 24.8399433,11.726846 C24.8256607,11.7562513 24.8054971,11.7806157 24.7861736,11.8075006 C24.7634895,11.8310249 24.7416455,11.8553893 24.7172811,11.8747128 C24.6912364,11.8957166 24.6643515,11.9116795 24.6383068,11.9268023 C24.6139423,11.9394045 24.5895779,11.952847 24.5626931,11.9595682 C26.2925667,12.333436 27.6317695,12.5863218 27.6317695,12.5863218 C29.3792863,11.5529345 29.2692263,11.6159459 29.6321721,11.4151495 C30.2984129,11.0446423 30.2698477,9.95664508 29.0112996,9.95664508 C28.0644479,9.95664508 26.3102099,9.79449568 25.2423763,9.58697806 L26.1858673,10.4447736 L26.156462,10.4741789 C26.156462,10.4741789 25.2222126,9.79701614 24.1132116,9.24251561 L24.1132116,9.24167546 C23.5125027,8.99971159 22.6068185,8.60568015 21.6734092,8.19064491 L23.0520992,9.4945613 L23.0201734,9.52648709 C23.0201734,9.52648709 21.258374,8.10830998 20.0107478,7.44542981 C19.261332,7.10600827 18.6127344,6.81027466 18.2506287,6.6439245 C17.744857,6.41288261 17.347465,6.34819089 16.7837228,6.54814714 C15.8856,6.86656486 15.5360966,6.99090741 14.7749186,7.28160011 C14.3321583,7.44963057 14.2993924,8.07302359 14.771558,8.22341085 C14.9782355,8.28978288 15.5167731,8.46117396 15.8729977,8.57459452 C16.0284259,8.50654218 16.1897351,8.43680954 16.3502042,8.36539659 C16.60309,8.25365633 16.856816,8.14275623 17.0970996,8.03857734 C17.2164012,7.98732805 17.3315021,7.93691891 17.4398817,7.88819008 C17.4659265,7.87642795 17.4936515,7.86550597 17.5205364,7.85290368 C17.5348189,7.84702261 17.5482614,7.84114155 17.5608637,7.83694079 L17.579347,7.82769911 L17.579347,7.82685896 L17.5827076,7.82601881 L17.5843879,7.82517865 L17.5936296,7.82013774 C17.6448789,7.79157256 17.6793251,7.7680483 17.7188123,7.73528236 C17.7910654,7.67311109 17.8397942,7.59917768 17.8666791,7.52608443 C17.8944041,7.45299118 17.8994451,7.38409869 17.8960844,7.32696833 C17.8944041,7.27067813 17.8809617,7.2253099 17.8725602,7.19422427 C17.8633185,7.16481894 17.8599579,7.14969619 17.8599579,7.14969619 L17.9070064,7.12953254 C17.9070064,7.12953254 17.9137276,7.14717574 17.9288504,7.17742122 C17.9406125,7.20934701 17.9565754,7.25723569 17.9649769,7.32024711 C17.9716982,7.38409869 17.9733785,7.46391316 17.9481739,7.55212915 C17.9238095,7.63950499 17.8700397,7.73360205 17.7910654,7.81341652 C17.7532586,7.85122338 17.7020093,7.89407114 17.6583213,7.92179617 L17.6465592,7.92683708 L17.6431986,7.93019769 L17.6347971,7.93607876 L17.6154736,7.94616059 C17.6037114,7.95288181 17.5911092,7.96128333 17.579347,7.9671644 C17.5533023,7.98228714 17.5280977,7.99656973 17.502053,8.01169247 C17.3987143,8.07050313 17.2886543,8.13351455 17.1752338,8.19652598 C16.9509131,8.32758974 16.7114697,8.46453457 16.4686657,8.60147939 C15.9368492,8.90729484 15.4033525,9.21142997 15.0345257,9.42398851 C15.0311651,9.42482866 15.0294847,9.42566881 15.0294847,9.42650897 C15.0294847,9.42650897 16.8929426,10.0129353 19.2722539,10.6665738 L19.6553634,10.4985433 L19.6679657,10.5237479 L19.6746869,10.5338297 L19.4495261,10.7136223 L18.8605793,11.1891485 L18.5690464,11.2899668 L18.3749713,11.8217832 L18.1111634,11.9704902 L17.8515564,13.1567852 L17.8103889,13.1483837 L17.9170883,11.8528688 L17.1769141,11.4378336 L17.1769141,13.150064 L17.1349064,13.1567852 L16.9198275,11.3496176 L15.9234068,11.1555424 L16.2628283,13.1198185 L16.2191404,13.1290602 L15.6083497,11.1219363 L14.6320927,11.0555643 L15.339501,13.1509042 L15.2983335,13.1693875 L14.2565446,11.0337203 L14.2548643,11.0337203 L13.2912096,10.9707089 L14.4153334,13.1819898 L14.3792069,13.2038338 L12.8400478,10.9261808 L11.815062,10.7665519 L13.4802439,13.2206368 L13.4474779,13.2466815 L10.6447298,9.98941102 L10.4935024,10.0902293 L13.0047177,14.027183 L16.8492547,15.4646836 C16.8492547,15.4646836 17.1080216,15.5772641 17.2575687,15.6411156 C17.3315021,15.6738816 17.4087961,15.7049672 17.4919712,15.7469748 C17.5331386,15.7654582 17.5709455,15.7906627 17.612113,15.8133469 C17.6499198,15.8368711 17.6877267,15.8620757 17.7255335,15.8881204 C17.7977866,15.9435705 17.8700397,15.9998607 17.932211,16.0653926 L17.9792595,16.1116009 C17.992702,16.128404 18.0078247,16.145207 18.0221073,16.1620101 C18.0515126,16.1939359 18.0767172,16.2283821 18.1027619,16.2619882 C18.1271263,16.2955943 18.1489703,16.3317208 18.1733347,16.3653269 C18.1926582,16.398933 18.2128219,16.4350596 18.2321454,16.4678255 C18.2489484,16.5022718 18.2649113,16.5358778 18.2800341,16.5678036 C18.2943166,16.6014097 18.3077591,16.6333355 18.3212015,16.6644212 C18.3438856,16.7274326 18.3632091,16.7854031 18.3766516,16.8383327 C18.3917743,16.8904221 18.3993357,16.9383108 18.4077372,16.9752775 C18.4144584,17.0139245 18.417819,17.0424897 18.4211796,17.0634935 C18.4228599,17.0836572 18.4245403,17.0954193 18.4245403,17.0954193 L18.3800122,17.1029807 C18.3800122,17.1029807 18.3766516,17.0920587 18.3716107,17.071895 C18.36825,17.0525715 18.3615288,17.0214859 18.3522872,16.9861995 C18.3422053,16.9500729 18.3304432,16.9072252 18.3111197,16.8584963 C18.2959969,16.8089274 18.2716325,16.7534773 18.2472681,16.6971871 C18.2321454,16.6686219 18.2178628,16.6383764 18.2010597,16.6089711 C18.1850968,16.5795658 18.1649332,16.5484801 18.14729,16.5173945 C18.125446,16.4879892 18.1061225,16.4560634 18.0825983,16.4258179 C18.0582338,16.3964126 18.03723,16.3653269 18.0111853,16.3350814 C17.9843004,16.3065163 17.9582557,16.2754306 17.9288504,16.2485458 L17.882642,16.2065381 L17.8381139,16.1662108 C17.7759427,16.1124411 17.7070502,16.0653926 17.6364774,16.0208645 C17.6003508,15.9998607 17.5642243,15.979697 17.5280977,15.9612137 C17.4886106,15.9444106 17.4541643,15.924247 17.4155173,15.9108045 C17.3415839,15.880559 17.2609293,15.852834 17.1853156,15.825109 C17.0307276,15.7704991 16.8887418,15.7192498 16.7652394,15.6755619 C16.6442575,15.6310338 16.5417589,15.5957474 16.470346,15.5705428 L16.2241813,16.0687532 L16.7223917,16.5081528 L16.6980272,16.5417589 L15.3655457,15.7242907 L15.0521689,16.3518845 L16.8542956,17.6860464 L16.8240501,17.7238532 L14.0843134,16.0855562 L13.8331079,16.7467561 L16.4157361,18.4715888 L16.3947323,18.5068752 L13.0668889,16.680384 L12.9089403,17.3012566 L15.7251309,19.0899409 L15.7032869,19.1269076 L12.2578223,17.3693089 L12.1578441,18.1044422 L12.1578441,18.1052824 L15.0009196,19.6377202 L14.9832764,19.6746869 L11.4638783,18.2086211 L11.4487556,18.925271 L14.3203962,20.0468744 L14.3069538,20.0905623 L10.8203217,19.1361493 L10.8614891,19.9208515 L13.5113295,20.5291218 L13.502928,20.5694491 L10.1112331,20.105685 L10.2196127,20.7820076 L12.7157053,21.0500162 L12.7157053,21.0937042 L9.22823302,21.0365738 L9.28116262,21.6087175 L12.0603865,21.628041 L12.0637471,21.6692085 L7.07072188,22.0346747 L7.06232035,22.0808831 L7.87138703,22.3623341 L7.86970673,22.4018213 L5.80209188,23.1907243 L5.80545249,23.2352524 L6.63300252,23.3016244 L6.64056389,23.3453124 L4.85524022,24.4475922 L4.86700236,24.5080832 L6.117149,24.4366702 L6.13227174,24.4761574 L4.69141052,25.8279624 L4.70905372,25.8699701 L5.38705664,25.7405866 L5.40722029,25.7733525 L4.73089768,26.6244268 L4.31250183,27.8300454 L4.35366929,27.8510492 L5.00142673,27.0361015 L6.46497206,26.1942689 L6.49605769,26.2236742 L5.55088634,27.6099255 L5.19886252,29.1583262 L5.24087014,29.1776497 L6.00372844,28.0325221 L7.48239651,26.829424 L7.51012154,26.8596695 L6.60779795,28.500487 L6.29610144,30.5042502 L6.34567043,30.5143321 L7.22867051,28.8088229 L9.08120636,27.2696638 L9.11565261,27.298229 L7.8403014,29.3465203 L7.551289,31.8031257 L7.59245646,31.815728 L8.38808071,29.637213 L11.015237,27.2721843 L14.330478,25.5767569 L17.9649769,20.5240809 L19.3806336,19.3319047 L19.4133995,19.3646707 L18.7933671,20.1720571 L18.8000883,20.1720571 L18.8017686,20.1728972 L18.7933671,20.1720571 L20.2518715,20.5484453 L20.2493511,20.5929734 L18.9840817,20.6669068 L18.9790408,20.7097545 L20.8366175,21.0399344 L20.8315766,21.081942 L18.5144365,21.258374 L18.5127562,21.3020619 L21.4667318,21.7977518 L22.6412647,21.5205015 L22.6547072,21.5608288 L21.533944,22.0750021 L19.7024119,22.0355149 L19.697371,22.0792028 L21.6532456,22.4471895 L22.8647452,22.0338346 L22.8807081,22.0733218 L21.7817889,22.7706482 L20.480393,22.8244179 L20.480393,22.8706263 L21.9355368,23.0966273 L23.210888,22.5001191 L23.2335721,22.537926 L22.1833817,23.5242648 L21.0399344,23.5293057 L21.0348935,23.5755141 L22.4261857,23.8872106 L23.6620498,22.8714664 L23.6914551,22.9008718 L22.7412428,24.2888034 L21.7061752,24.4828786 L21.7112161,24.5257264 L23.0201734,24.6047007 L24.2005874,23.1697205 L24.2350337,23.1932448 L23.3881601,24.9794086 L22.2556348,25.3490756 L22.2640363,25.3936037 L23.7065778,25.2751422 L24.8021365,23.3915207 L24.8399433,23.4091639 L24.1132116,25.6196047 L22.692514,26.1278968 L22.7017557,26.1715847 L24.4198672,25.8624087 L25.3768007,23.5897967 L25.4196484,23.6007187 L24.7928948,26.1362983 L23.2680183,26.9999749 L23.2898623,27.0419825 L25.1012307,26.3530576 L25.9640671,23.8132772 L26.0069149,23.8225189 L25.4675371,26.5958617 L23.8115969,27.8023204 L23.8359613,27.8409674 L25.7641109,26.7840558 L26.5185676,24.1115313 L26.5630957,24.1216131 L26.0892498,26.9831719 L24.3543353,28.5223309 L24.3812202,28.5550969 L26.4093478,27.1722061 L26.9966143,24.4492725 L27.0377818,24.4568339 L26.7403679,27.3519987 L25.0113344,29.2238581 L25.0407397,29.2583043 L27.0453431,27.5435535 L27.4872633,24.9054752 L27.5317913,24.9088358 L27.3377162,27.6813384 L25.7002593,29.8212064 L25.7313449,29.8497716 L27.6594945,27.8342462 L27.9627895,25.5515523 L28.0056372,25.5549129 L27.9073394,27.9686705 L26.4093478,30.2631265 L26.4454744,30.2900114 L28.1778685,28.0938532 L28.4089104,26.4547161 L28.4534384,26.4589168 L28.3727838,28.2123147 L27.3066305,30.5907859 L27.3444374,30.6117897 L28.6668371,28.3593414 L28.7886592,27.4351738 L28.8306668,27.4393746 L28.8953585,28.4920854 L28.3433785,30.7302512 L28.3845459,30.7462141 L29.1432035,28.8676335 L29.1868914,28.8676335 L29.6531759,30.7436936 L29.6993843,30.7327717 L29.5464766,28.886957 L29.587644,28.8743547 L30.8722369,30.7210095 L30.9083635,30.6991656 L30.0766127,29.0314632 L30.1043377,29.0003776 L32.0652532,30.4000713 L32.0896176,30.3656251 L29.1003557,26.3286932 C29.1003557,26.3286932 28.1299798,23.7410241 27.8182833,22.8765074 C27.7544317,22.7059564 27.6460521,22.5950563 27.4822223,22.5261638 C27.3889654,22.488357 25.0567026,21.5574682 25.0567026,21.5574682 L24.4173467,20.9928859 L22.2791591,20.7416803 L22.2850401,20.6921113 L22.2850401,20.6921113 Z M19.0034052,36.9641814 C8.85436524,36.9641814 0.626753626,28.7365698 0.626753626,18.5866896 C0.626753626,8.43680954 8.85436524,0.209197926 19.0034052,0.209197926 C29.1524452,0.209197926 37.3817371,8.43680954 37.3817371,18.5866896 C37.3817371,28.7365698 29.1524452,36.9641814 19.0034052,36.9641814 M21.7078555,18.1615726 L22.0590392,18.086799 L21.9489792,17.7456972 L21.9867861,17.7255335 L22.50516,18.3228818 L22.4858365,18.3573281 L21.7095358,18.2035802 L21.7078555,18.1615726 L21.7078555,18.1615726 Z M23.1537576,16.6585401 L23.3293495,16.6156923 L23.2680183,16.4459816 L23.3041449,16.4241376 L23.5897967,16.7349939 L23.5721535,16.7702803 L23.1554379,16.6997075 L23.1537576,16.6585401 L23.1537576,16.6585401 Z M20.3602512,10.8614891 C20.3787345,10.8530876 20.3946974,10.8413255 20.4131808,10.8295633 C20.430824,10.8194815 20.4459467,10.8026785 20.4669505,10.7900762 C20.4837536,10.7741133 20.5030771,10.7606708 20.5181998,10.7438678 C20.524921,10.7388269 20.5282816,10.7354663 20.5316423,10.7304254 C20.5442445,10.7195034 20.5560067,10.7052208 20.568609,10.6926185 C20.5837317,10.673295 20.5988544,10.6548116 20.6114567,10.6354881 C20.6265795,10.6161646 20.6375014,10.596001 20.6509439,10.5775176 C20.6610257,10.557354 20.6753083,10.5380305 20.6820295,10.5178668 C20.6921113,10.5002236 20.7005129,10.4809001 20.7063939,10.4632569 C20.7164758,10.4447736 20.7215167,10.4288107 20.7265576,10.4136879 C20.7332788,10.3994053 20.7383197,10.3859629 20.7416803,10.3725205 C20.7492417,10.3473159 20.7542826,10.3338735 20.7542826,10.3338735 L20.7971304,10.3330333 C20.7971304,10.3330333 20.8038516,10.3464757 20.811413,10.3716803 C20.8164539,10.3826023 20.8198145,10.3985652 20.8214948,10.4178887 C20.8248554,10.4380524 20.828216,10.4607365 20.8265357,10.4842607 C20.8248554,10.4960229 20.8248554,10.5086251 20.8248554,10.5212274 C20.8248554,10.5346699 20.8231751,10.5472722 20.8198145,10.5607146 C20.8164539,10.5892798 20.8072122,10.6153245 20.7988107,10.64557 C20.7870486,10.673295 20.7744463,10.7027003 20.7576432,10.7295852 C20.7492417,10.7472284 20.7349591,10.7648716 20.723197,10.7808345 L20.7021932,10.8077194 C20.6786689,10.8320838 20.6559848,10.8547679 20.6316204,10.8740914 C20.6047355,10.8950952 20.5786908,10.9110581 20.5526461,10.9253407 C20.524921,10.9387831 20.4980362,10.9505453 20.4719914,10.9572665 C20.4593892,10.9614672 20.4442664,10.965668 20.4325043,10.9698688 C20.4266232,10.9707089 20.4182217,10.9715491 20.4115005,10.9723892 C20.4064596,10.9740695 20.4014186,10.9740695 20.3963777,10.9740695 C20.3736936,10.9791104 20.3526898,10.9791104 20.3325262,10.9782703 C20.3132027,10.9791104 20.2963996,10.97659 20.282117,10.9749097 C20.2569124,10.9707089 20.2426299,10.9665082 20.2426299,10.9665082 L20.2392692,10.927021 L20.2392692,10.9245005 C20.2392692,10.9245005 20.2518715,10.9169392 20.2753958,10.9068573 C20.2854776,10.9026566 20.2980799,10.8950952 20.3132027,10.8875338 C20.3274852,10.8799725 20.3442883,10.8715709 20.3602512,10.8614891 M22.0279535,10.1927279 C21.9834255,10.1792854 21.9321762,10.1650028 21.8767261,10.14904 C21.7784283,10.1196346 21.6599668,10.0868687 21.5305834,10.0473815 C21.4272446,10.017136 21.3171847,9.98352995 21.2004035,9.94656325 C21.1415928,9.9297602 21.0811019,9.912117 21.0189306,9.8927935 L20.8332569,9.82978208 C20.5803711,9.74156608 20.309842,9.64830918 20.0409933,9.55505227 C19.8696022,9.4945613 19.6990513,9.42902942 19.5335413,9.366018 C19.4402844,9.32989145 19.3461873,9.2954452 19.2546107,9.26015881 C19.1705955,9.22907317 19.090781,9.19714738 19.0101264,9.1652216 C18.9723196,9.15093901 18.9328324,9.13581626 18.8950255,9.11985337 C18.8084899,9.08540713 18.721114,9.05012073 18.6421397,9.01735479 L18.5749275,8.98962976 C18.4455441,8.93586001 18.3304432,8.88713118 18.2338257,8.84596372 C18.1850968,8.82495991 18.1388885,8.80479625 18.1010816,8.78799321 C17.9843004,8.73926437 17.9187686,8.71069919 17.9187686,8.71069919 L17.9061663,8.70481813 L17.9338913,8.6401264 L17.9464936,8.64432716 C17.9464936,8.64432716 18.0120255,8.66785143 18.1304869,8.70901889 C18.1716544,8.72330148 18.2195431,8.74094468 18.2682719,8.75858788 C18.36825,8.79387427 18.4850312,8.83504174 18.6177753,8.88377057 L18.7143928,8.92073727 C18.7866459,8.94762215 18.8622596,8.97618732 18.9412339,9.0030722 L19.0546545,9.04339951 C19.134469,9.07196469 19.2184842,9.10137002 19.3041797,9.13245566 C19.394076,9.1652216 19.4839723,9.19966784 19.5797497,9.23327393 C19.7452597,9.2954452 19.9158106,9.35845663 20.0897221,9.41810744 C20.3568906,9.51388481 20.6248992,9.60966217 20.877785,9.69955847 C20.9970866,9.74156608 21.120589,9.78693431 21.2398907,9.82726162 C21.3255862,9.85666695 21.407081,9.88439198 21.4860553,9.91127685 L21.5667099,9.93900188 C21.6960934,9.98352995 21.8128745,10.0238573 21.9078117,10.0591437 C21.964102,10.077627 22.0111505,10.0944301 22.0539982,10.1095528 L22.2505939,10.1818059 L22.2312704,10.2490181 L22.0279535,10.1927279 L22.0279535,10.1927279 Z M18.4623471,9.57269547 L18.6127344,9.62226445 C18.8101702,9.68527588 19.0017249,9.74912745 19.1873986,9.81381918 C19.261332,9.8381836 19.3302244,9.86254802 19.3974366,9.88523213 L19.4528867,9.90371548 L19.6898096,9.98352995 C19.7897878,10.0162959 19.8780038,10.0465414 19.9502569,10.0725861 C19.9847031,10.0843482 20.0157887,10.0961104 20.0435138,10.105352 C20.1308896,10.1364377 20.1787783,10.154921 20.1787783,10.154921 L20.1930609,10.1599619 L20.1720571,10.2254938 L20.1586146,10.2229734 C20.1586146,10.2229734 20.1082055,10.2120514 20.0208296,10.1910476 L19.9502569,10.1734044 C19.8696022,10.1540809 19.7696241,10.1313968 19.6553634,10.1011513 L19.4117192,10.0364595 C19.3529086,10.0204967 19.2907373,10.000333 19.2268857,9.98100949 L19.1445508,9.95580492 C18.9739999,9.90287533 18.7807648,9.84070406 18.5640055,9.77013126 C18.4043766,9.71804182 18.2506287,9.66175161 18.1010816,9.60798187 L17.9893414,9.56849471 L17.9338913,9.54833105 C17.7725821,9.49036054 17.6221948,9.43491049 17.4936515,9.3836612 C17.4348408,9.36181724 17.3819112,9.34081343 17.336543,9.32064977 L17.2953755,9.30384673 L17.1424678,9.24251561 C17.0592927,9.20722921 17.0114041,9.18874586 17.0114041,9.18874586 L16.9979616,9.18202464 L17.0231662,9.11733291 C17.0231662,9.11733291 17.0870178,9.13581626 17.1735535,9.16270114 C17.2037989,9.17194281 17.2382452,9.18118449 17.276052,9.19462693 L17.3869521,9.22823302 C17.4314802,9.24167546 17.4810492,9.2567982 17.5314583,9.27360124 C17.6221948,9.30384673 17.7238532,9.33493236 17.8305526,9.36937861 C17.8977647,9.39038242 17.9666572,9.41138622 18.0355497,9.43323018 C18.1733347,9.47859841 18.3161606,9.52480679 18.4623471,9.57269547 M21.4583303,14.8639747 L21.45665,14.8228073 L21.6818108,14.7673572 L21.6061971,14.5489176 L21.6406433,14.5279138 L21.9985482,14.915224 L21.9800648,14.9513506 L21.4583303,14.8639747 L21.4583303,14.8639747 Z M21.0777413,15.3999919 L21.5373046,16.0838759 L21.5137803,16.1149615 L20.7315985,15.8578749 L20.7349591,15.8167075 L21.1071466,15.7831014 L21.0399344,15.4151147 L21.0777413,15.3999919 L21.0777413,15.3999919 Z M23.5209042,17.8792814 L22.995809,17.8322329 L22.9907681,17.7919056 L23.210888,17.7179722 L23.1193114,17.5070939 L23.150397,17.4835697 L23.5393875,17.8414745 L23.5209042,17.8792814 L23.5209042,17.8792814 Z M21.0693397,12.008297 L19.9847031,13.3365778 L19.9275727,13.3122134 L20.2065033,11.7318869 L20.7769667,11.0690067 C20.7769667,11.0690067 20.7954501,11.0606052 20.8072122,11.0547242 C20.8181342,11.0496832 20.8332569,11.042962 20.8475395,11.0345605 C20.860982,11.0278393 20.877785,11.0194378 20.8937479,11.0093559 C20.9105509,11.0001142 20.9298745,10.9891923 20.9483578,10.97659 C20.966001,10.9665082 20.982804,10.9497051 21.0021276,10.9371028 C21.0172503,10.9219801 21.0365738,10.9085376 21.0533768,10.8908944 C21.0693397,10.8757717 21.0861428,10.8564482 21.1021057,10.838805 C21.1172284,10.8203217 21.1331913,10.8026785 21.1449534,10.7825148 C21.1617565,10.7648716 21.1709982,10.7438678 21.1844406,10.7245443 C21.1945224,10.7043806 21.208805,10.6858973 21.2155262,10.6665738 C21.2256081,10.6464101 21.2348497,10.6287669 21.241571,10.6094434 C21.2499725,10.5918002 21.2550134,10.5758373 21.2617346,10.5615547 C21.2667755,10.5472722 21.2726566,10.5321494 21.2743369,10.5195471 C21.2827384,10.4951827 21.2894596,10.4809001 21.2894596,10.4809001 L21.3306271,10.48006 C21.3306271,10.48006 21.3365082,10.4943426 21.3449097,10.5178668 C21.3482703,10.529629 21.3549915,10.5455918 21.3566718,10.5665957 C21.3600324,10.5859192 21.363393,10.6086033 21.3617127,10.6321275 L21.3617127,10.6690942 C21.3583521,10.6816965 21.3566718,10.695139 21.3549915,10.7085814 C21.3516309,10.7363064 21.3398688,10.7640314 21.3323074,10.7925966 C21.3205453,10.8203217 21.3087831,10.849727 21.2911399,10.8766119 C21.2776975,10.905177 21.2550134,10.9303816 21.2348497,10.9555862 C21.2138459,10.9791104 21.1894815,11.0026347 21.1642769,11.0211181 C21.1399125,11.042962 21.1121875,11.0572446 21.0878231,11.0732075 C21.0575776,11.0849696 21.0332132,11.0975719 21.0071685,11.1059734 C20.9920457,11.1101742 20.9811237,11.1135348 20.9676813,11.1160553 C20.966001,11.1160553 20.966001,11.1168954 20.966001,11.1168954 C20.9794434,11.1210962 20.993726,11.1236166 21.0088488,11.1286576 C21.1155481,11.1547023 21.2205672,11.1815871 21.3272665,11.2093122 C21.3323074,11.2076319 21.335668,11.2042713 21.3415491,11.2017508 C21.3549915,11.19755 21.368434,11.1908288 21.3810362,11.1824273 C21.396159,11.1748659 21.4104416,11.1673046 21.4272446,11.1572227 C21.4465681,11.1488212 21.4616909,11.1362189 21.4793341,11.1244568 C21.4994977,11.114375 21.5154606,11.0975719 21.533944,11.0849696 C21.5499069,11.0698469 21.5717508,11.0555643 21.5860334,11.0387613 C21.6061971,11.0236385 21.6187993,11.004315 21.6372827,10.987512 C21.6507251,10.9690286 21.666688,10.9505453 21.6801305,10.9312218 C21.6944131,10.9118983 21.7061752,10.8908944 21.7179373,10.8724111 C21.7288593,10.8522474 21.7423017,10.8337641 21.749023,10.8127603 C21.7582646,10.7951171 21.7700268,10.7766337 21.7750677,10.7581504 C21.7851495,10.739667 21.7901904,10.7245443 21.7943912,10.7094215 C21.8011124,10.695139 21.8078336,10.6800162 21.8111942,10.6682541 C21.8162351,10.6422094 21.8229564,10.6287669 21.8229564,10.6287669 L21.864964,10.6287669 C21.864964,10.6287669 21.8716852,10.6422094 21.8800867,10.6665738 C21.8834473,10.6783359 21.8901685,10.6942988 21.8901685,10.7136223 C21.8952095,10.7329458 21.8968898,10.7556299 21.8952095,10.7791542 L21.8952095,10.816961 C21.8935292,10.8295633 21.8918489,10.8430058 21.8901685,10.8556081 C21.8868079,10.8850134 21.8767261,10.9110581 21.8666443,10.9404634 C21.8557223,10.9690286 21.8456405,10.9975938 21.826317,11.0244787 C21.8128745,11.0522037 21.7901904,11.0782484 21.7700268,11.1042931 C21.7473427,11.1269772 21.7254987,11.1505015 21.6977737,11.1689849 C21.6750896,11.1899887 21.6473645,11.2059516 21.6204797,11.2210743 C21.5927546,11.2336766 21.5667099,11.2454387 21.5389849,11.2530001 C21.533944,11.2546804 21.5289031,11.2563607 21.5238621,11.2572009 C21.8212761,11.3328146 22.1195301,11.4042275 22.4203047,11.4764806 L21.4499287,12.0166986 L21.0693397,12.008297 L21.0693397,12.008297 Z M22.8840687,19.0378514 L23.1554379,18.9210703 L23.012612,18.6631435 L23.045378,18.6362586 L23.5671126,19.0403719 L23.5503095,19.0781788 L22.8924703,19.0790189 L22.8840687,19.0378514 L22.8840687,19.0378514 Z M13.3273362,25.053342 L12.0948327,24.4249081 L12.0276205,24.7895342 L11.9688099,24.7836531 L11.9620886,24.1779033 L12.0116576,24.1552192 L13.3584218,25.0054533 L13.3273362,25.053342 L13.3273362,25.053342 Z M14.5077502,23.5671126 L12.7845978,22.632023 L12.7173856,22.9974893 L12.6610954,22.9907681 L12.6518537,22.3850183 L12.6989022,22.3589735 L14.5388358,23.5175436 L14.5077502,23.5671126 L14.5077502,23.5671126 Z M13.9448481,24.3291307 L12.3132723,23.4671344 L12.2477404,23.8317605 L12.1922904,23.823359 L12.1838889,23.2184494 L12.2284169,23.1966054 L13.9742534,24.2804019 L13.9448481,24.3291307 Z M16.4913498,21.3524711 L15.2605266,20.7240371 L15.1933145,21.081942 L15.1378644,21.0743806 L15.1294629,20.4778725 L15.1723106,20.4543482 L16.5207551,21.3029021 L16.4913498,21.3524711 L16.4913498,21.3524711 Z M15.8217484,22.0850839 L14.3355189,21.3129839 L14.2691469,21.67761 L14.2120165,21.6692085 L14.203615,21.0668193 L14.2464628,21.0390943 L15.852834,22.0371952 L15.8217484,22.0850839 Z M15.1571879,22.8034141 L13.4684817,21.9220943 L13.4012696,22.2875606 L13.3441392,22.2816795 L13.337418,21.6750896 L13.3853067,21.6515653 L15.1865932,22.7546853 L15.1571879,22.8034141 L15.1571879,22.8034141 Z M11.1580629,23.735143 L11.1765462,23.8048757 L7.38577899,24.8441441 L5.67942964,26.233756 L5.63154096,26.1875476 L7.21186747,24.5862173 L11.1580629,23.735143 L11.1580629,23.735143 Z M11.2647622,24.507243 L11.2899668,24.5761355 L8.07974481,25.6128835 L6.49353724,27.1041538 L6.44732886,27.0529045 L7.86970673,25.3717597 L11.2647622,24.507243 L11.2647622,24.507243 Z M21.5238621,19.3092206 L21.7943912,19.1915993 L21.6507251,18.9345127 L21.6818108,18.9067877 L22.2035454,19.3092206 L22.1917832,19.3478676 L21.5322637,19.3503881 L21.5238621,19.3092206 L21.5238621,19.3092206 Z M7.38409869,22.9647234 L8.78043184,22.5572495 L11.5453731,22.3043636 L11.5537746,22.3791372 L7.39922143,23.0336158 L7.38409869,22.9647234 Z M7.74368388,27.7300673 L7.69243459,27.68974 L8.85268493,26.0917703 L11.6587937,25.1608815 L11.6865187,25.2272535 L9.08540713,26.2992879 L7.74368388,27.7300673 L7.74368388,27.7300673 Z M17.0508912,20.5837317 L16.1695714,20.1636555 L16.1006789,20.497196 L16.0452289,20.4946756 L16.0368274,19.9174909 L16.0872365,19.895647 L17.0819769,20.535843 L17.0508912,20.5837317 L17.0508912,20.5837317 Z M11.2093122,23.1167909 L5.95836021,24.1997473 L5.93819656,24.1325351 L7.30008346,23.6334846 L11.1941894,23.0420174 L11.2093122,23.1167909 L11.2093122,23.1167909 Z M12.7518318,25.5255076 L12.7845978,25.5918796 L10.3557174,26.7588512 L8.87704935,28.7264879 L8.8232796,28.6886811 L10.143999,26.5336904 L12.7518318,25.5255076 L12.7518318,25.5255076 Z M23.012612,10.4313311 C23.012612,10.4313311 23.0386568,10.4338516 23.0831848,10.4405728 C23.0991477,10.4430933 23.1142705,10.4456137 23.1319137,10.4489743 C23.1697205,10.4540152 23.2159289,10.4615766 23.266338,10.4708183 C23.3537139,10.485941 23.4385693,10.5035842 23.5242648,10.5220676 C23.6032391,10.5380305 23.6880945,10.557354 23.77379,10.5775176 L23.8241992,10.5892798 C23.9199765,10.6094434 24.0199547,10.6312874 24.1081707,10.6539715 C24.2081488,10.6783359 24.2938443,10.70102 24.3627368,10.7203435 C24.4123058,10.7321057 24.4543134,10.7463883 24.49044,10.7564701 C24.5106036,10.7631913 24.5248862,10.7682322 24.5416893,10.772433 C24.584537,10.7858754 24.6089014,10.7951171 24.6089014,10.7951171 L24.6206636,10.7993178 L24.6072211,10.8640096 L24.5937787,10.8631694 C24.5937787,10.8631694 24.567734,10.8614891 24.5232059,10.8564482 C24.5089233,10.8539277 24.49044,10.8522474 24.4711165,10.849727 C24.4333096,10.8455262 24.3887815,10.8396452 24.3383724,10.8320838 C24.2627587,10.8211618 24.1753828,10.8068792 24.0787653,10.7900762 C23.9855084,10.772433 23.8821697,10.7514292 23.7838719,10.7304254 C23.6032391,10.6867374 23.404123,10.6321275 23.238613,10.5808782 C23.1882039,10.5657555 23.1419955,10.5489525 23.1041886,10.5363502 L23.0630212,10.5237479 C23.0218537,10.5086251 22.995809,10.4985433 22.995809,10.4985433 L22.9840469,10.4951827 L22.9991696,10.4296508 L23.012612,10.4313311 L23.012612,10.4313311 Z M25.2373354,11.4185101 C25.2373354,11.4185101 25.2701013,11.4210306 25.3263915,11.4294321 C25.3440347,11.4311124 25.3633582,11.4336328 25.3885628,11.4361533 C25.4356113,11.4420344 25.4935818,11.4487556 25.5591137,11.4588374 C25.7725124,11.489923 26.029599,11.5327708 26.266522,11.5764587 L26.3270129,11.5882209 C26.4337123,11.6100648 26.5404116,11.6302285 26.6403897,11.6537528 C26.691639,11.6629944 26.7403679,11.6730763 26.7882565,11.6831581 C26.8521081,11.6966005 26.9109188,11.7083627 26.9688893,11.7209649 C27.0310606,11.7352475 27.0881909,11.7495301 27.1360796,11.7604521 L27.1982509,11.7755748 C27.2537009,11.7890173 27.2839464,11.7974188 27.2839464,11.7974188 L27.2965487,11.8007794 L27.2856267,11.8671514 L27.2721843,11.8671514 C27.2721843,11.8671514 27.2394183,11.8654711 27.1831281,11.8587499 L27.1276781,11.8528688 C27.0781091,11.8486681 27.0159378,11.8411067 26.9470453,11.8327052 L26.9294021,11.8301847 C26.8353051,11.8175825 26.7286057,11.8049802 26.6177056,11.7856567 C26.4992441,11.7663332 26.3732213,11.7419687 26.2497189,11.7192846 L26.2396371,11.7176043 C26.0102755,11.6739164 25.754029,11.6201467 25.53895,11.5697375 C25.4767788,11.5554549 25.423009,11.5403322 25.3768007,11.5294102 C25.3541165,11.5218488 25.328912,11.5168079 25.3095885,11.511767 C25.2558187,11.4974844 25.2238929,11.4882427 25.2238929,11.4882427 L25.2096103,11.4848821 L25.2238929,11.41767 L25.2373354,11.4185101 Z M23.3259889,11.621827 C23.3402714,11.6142656 23.3553942,11.6050239 23.3713571,11.5957822 C23.3881601,11.5865406 23.4058033,11.5739383 23.4226064,11.561336 C23.4402496,11.550414 23.4570526,11.5344511 23.4763761,11.5210087 C23.4830973,11.5126072 23.4931792,11.5042056 23.5049413,11.4966443 C23.5125027,11.489923 23.5209042,11.4815215 23.5293057,11.4739602 C23.5452686,11.4571571 23.5603913,11.4378336 23.5771944,11.4210306 C23.5897967,11.4017071 23.6065997,11.3832237 23.619202,11.36306 C23.6326444,11.3437365 23.6444066,11.324413 23.6553286,11.3050895 C23.6654104,11.2832456 23.6788528,11.2656024 23.6864142,11.2454387 C23.6948157,11.2261152 23.7048975,11.2076319 23.7099385,11.1891485 C23.7174998,11.1706652 23.7225407,11.1547023 23.729262,11.1404197 C23.7343029,11.1244568 23.7410241,11.1110144 23.7427044,11.0975719 C23.7511059,11.0723673 23.7536264,11.0580848 23.7536264,11.0580848 L23.7981545,11.0564045 C23.7981545,11.0564045 23.8031954,11.070687 23.8115969,11.0950515 C23.8166378,11.1068136 23.8216787,11.1219363 23.8241992,11.1421 C23.8275598,11.1622636 23.8309204,11.1841076 23.8309204,11.2076319 L23.8309204,11.2454387 C23.8292401,11.2572009 23.8275598,11.2714834 23.8241992,11.2849259 C23.8241992,11.3118108 23.8132772,11.3403759 23.8048757,11.3697813 C23.7947938,11.3966661 23.7838719,11.4269116 23.7670688,11.4537965 C23.7519461,11.4832018 23.7309423,11.5084064 23.7116188,11.5344511 C23.7065778,11.5386519 23.7032172,11.5445329 23.6981763,11.5487337 C23.6805331,11.5680572 23.6620498,11.5865406 23.6427263,11.6016633 C23.619202,11.6235073 23.5897967,11.63863 23.5671126,11.6554331 C23.5393875,11.6671952 23.5125027,11.6806376 23.4830973,11.6890391 C23.470495,11.6923998 23.4604132,11.6974407 23.4469708,11.6999611 C23.436889,11.7016414 23.425967,11.7041619 23.4158851,11.705002 C23.4142048,11.7066823 23.4125245,11.7066823 23.4091639,11.7066823 C23.3881601,11.7125634 23.365476,11.7125634 23.3469927,11.7125634 C23.3293495,11.7134036 23.3108661,11.7125634 23.2974237,11.710043 C23.2696986,11.705002 23.2554161,11.7016414 23.2554161,11.7016414 L23.2520554,11.6688755 L23.2520554,11.6596338 C23.2520554,11.6596338 23.2646577,11.6537528 23.2865017,11.6419906 C23.2974237,11.6377899 23.3091858,11.6302285 23.3259889,11.621827 M25.3574771,17.9977429 C25.3591575,17.9851406 25.3633582,17.9725383 25.3650385,17.9616163 C25.3700794,17.949014 25.3717597,17.9372519 25.3768007,17.9280102 C25.3835219,17.9187686 25.3885628,17.9086867 25.3936037,17.9011254 C25.3978045,17.8918837 25.4028454,17.8851625 25.406206,17.8784412 C25.4129272,17.8725602 25.4179681,17.8675193 25.423009,17.8624784 C25.4423325,17.8423147 25.4540947,17.833073 25.4540947,17.833073 L25.4801394,17.8532367 C25.4801394,17.8532367 25.4784591,17.8675193 25.4734182,17.8893632 C25.4734182,17.8944041 25.4734182,17.9002852 25.4717379,17.9061663 L25.4717379,17.9280102 C25.4700576,17.9414527 25.4700576,17.9574156 25.4734182,17.9742186 C25.4734182,17.9910217 25.4784591,18.0078247 25.4835,18.0246277 C25.4851803,18.0321891 25.4902212,18.0422709 25.4935818,18.0489922 C25.500303,18.0565535 25.5019833,18.0666354 25.5061841,18.0741967 C25.5162659,18.0893195 25.5246675,18.1061225 25.5364296,18.1153642 C25.5406304,18.1204051 25.5423107,18.125446 25.5557531,18.1346877 L25.5708758,18.1489703 L25.5784372,18.1548514 L25.5801175,18.1548514 C25.5969206,18.164093 25.6112031,18.1758552 25.6280062,18.1817362 C25.6456494,18.1901378 25.665813,18.1918181 25.6834562,18.1960188 C25.6901775,18.1993794 25.7002593,18.196859 25.7103411,18.1993794 C25.7179025,18.2002196 25.7279843,18.2010597 25.7363858,18.1993794 C25.7447874,18.1993794 25.7523487,18.1976991 25.7624306,18.1976991 C25.7708321,18.1960188 25.7775533,18.1943385 25.7851147,18.1926582 C25.803598,18.1892976 25.8153602,18.185937 25.8279624,18.1817362 C25.8346837,18.1783756 25.8397246,18.1758552 25.8464458,18.1741749 C25.8523269,18.1708143 25.8573678,18.1674536 25.8624087,18.1632529 C25.8842526,18.1506506 25.8951746,18.1447695 25.8951746,18.1447695 L25.9296209,18.1724946 C25.9296209,18.1724946 25.92458,18.1867771 25.9153383,18.2094613 C25.913658,18.2153423 25.9102974,18.2203832 25.9052565,18.2271045 C25.9002155,18.2346658 25.8934943,18.241387 25.8884534,18.2489484 C25.880892,18.2565098 25.8741708,18.2657515 25.8657693,18.2733128 C25.8573678,18.2833947 25.8481261,18.2892757 25.836364,18.2959969 C25.8262821,18.301878 25.8170405,18.3102795 25.8052783,18.3170008 C25.7935162,18.3228818 25.7792336,18.3270826 25.7657912,18.3329636 C25.7523487,18.3388447 25.7380661,18.3422053 25.7246237,18.3447258 C25.7103411,18.3464061 25.6918578,18.3497667 25.6775752,18.3506068 C25.6439691,18.3497667 25.6095228,18.3480864 25.5767569,18.3371644 C25.543991,18.3287629 25.5145856,18.3085992 25.4835,18.2917962 L25.4750985,18.2859151 L25.4734182,18.2833947 L25.4700576,18.2808742 L25.4624962,18.2733128 L25.4473734,18.2590302 C25.4389719,18.2531492 25.4263696,18.2363461 25.4129272,18.2212234 C25.3885628,18.1901378 25.378481,18.1590521 25.3650385,18.1296468 C25.3591575,18.0985612 25.3524362,18.0683157 25.3541165,18.0397505 C25.3557968,18.0246277 25.3557968,18.0111853 25.3574771,17.9977429 M25.4314106,19.228566 L25.433931,19.2142834 L25.4372916,19.2016811 L25.4507341,19.1714357 C25.455775,19.1563129 25.4734182,19.1311083 25.4885409,19.1117848 C25.4969424,19.1000227 25.5045038,19.090781 25.5129053,19.0840598 C25.5229872,19.0773386 25.5297084,19.0697772 25.5372697,19.0622159 C25.5540728,19.0504537 25.5691955,19.0420522 25.5834781,19.0336507 L25.5986009,19.0260893 C25.6414486,19.0092863 25.6800956,19.0008847 25.7162222,19.0008847 C25.7229434,19.0008847 25.7279843,19.0017249 25.7397465,19.002565 C25.7607503,19.0042453 25.7809139,19.0059257 25.8002374,19.0126469 L25.8296427,19.0227287 L25.8380443,19.0260893 L25.8523269,19.0328105 L25.8607284,19.0378514 C25.880892,19.0496136 25.9329815,19.0882606 25.9497845,19.1168258 C25.9707883,19.1437106 25.9859111,19.1747963 25.9934724,19.2134433 L25.9968331,19.2252054 C25.9985134,19.2361274 26.0001937,19.2470494 26.0001937,19.2588115 C26.0001937,19.2722539 25.9985134,19.2848562 25.9985134,19.2982987 C25.9985134,19.316782 25.9926323,19.3335851 25.9875914,19.3470275 L25.9842308,19.3604699 C25.9674277,19.3923957 25.9573459,19.4058382 25.9565057,19.4066783 L25.9497845,19.4167601 L25.8985352,19.3974366 L25.8985352,19.3873548 C25.8985352,19.3873548 25.8951746,19.3705518 25.8951746,19.3487078 C25.8951746,19.3428267 25.8934943,19.3394661 25.891814,19.3335851 C25.8901337,19.3251835 25.8901337,19.3159419 25.8876133,19.3067002 C25.8842526,19.299979 25.8792117,19.2932577 25.8775314,19.2856964 C25.8741708,19.2806555 25.8724905,19.2764547 25.8691299,19.2714138 L25.8624087,19.261332 C25.8624087,19.2588115 25.8590481,19.2554509 25.8540072,19.2520903 C25.8523269,19.2487297 25.8498064,19.2462092 25.8481261,19.2420085 C25.8447655,19.2378077 25.836364,19.2319266 25.8279624,19.2252054 C25.8229215,19.2210046 25.8195609,19.2184842 25.8119995,19.2159637 L25.803598,19.211763 L25.8019177,19.2092425 L25.7809139,19.200841 C25.7708321,19.1983205 25.754029,19.1949599 25.7313449,19.1949599 C25.7162222,19.1949599 25.698579,19.1991607 25.6834562,19.2058819 C25.6784153,19.2084024 25.6742146,19.211763 25.6691737,19.2134433 C25.665813,19.2151236 25.6607721,19.217644 25.6607721,19.217644 C25.6557312,19.2226849 25.6506903,19.2260456 25.6456494,19.2294062 C25.6439691,19.2310865 25.6422888,19.2319266 25.6414486,19.2327668 C25.638088,19.2378077 25.6364077,19.2411683 25.6330471,19.2428486 C25.6280062,19.2453691 25.6263259,19.2470494 25.6229653,19.2554509 L25.6095228,19.2756145 L25.6095228,19.2806555 L25.6095228,19.2814956 C25.6053221,19.289057 25.6019615,19.2974585 25.5986009,19.3092206 C25.5969206,19.316782 25.5969206,19.3235032 25.5969206,19.3310646 L25.5969206,19.3394661 L25.5969206,19.3562692 C25.5969206,19.3587896 25.5986009,19.3638305 25.5986009,19.3688715 C25.5986009,19.3730722 25.5986009,19.3764328 25.6019615,19.3806336 C25.6036418,19.3839942 25.6053221,19.3890351 25.6053221,19.394076 C25.6070024,19.3982768 25.6078425,19.4016374 25.6095228,19.4041578 L25.6179244,19.4260018 C25.6229653,19.4318829 25.6263259,19.4369238 25.6296865,19.4428049 C25.6347274,19.4478458 25.6364077,19.4537268 25.6364077,19.4537268 C25.6607721,19.4738905 25.6725343,19.4856526 25.6725343,19.4856526 L25.6784153,19.4940541 L25.64901,19.553705 L25.638088,19.5511845 C25.638088,19.5511845 25.621285,19.5495042 25.588519,19.5411027 L25.5750766,19.5360618 C25.5624743,19.5293405 25.543991,19.5217792 25.5297084,19.5091769 C25.5196265,19.5007754 25.5078644,19.4923738 25.500303,19.482292 C25.4919015,19.4772511 25.4851803,19.4688496 25.4801394,19.4604481 C25.4767788,19.4562473 25.4734182,19.4520465 25.4700576,19.4470056 C25.4473734,19.4117192 25.433931,19.3806336 25.4297302,19.3503881 C25.4246893,19.3302244 25.423009,19.3092206 25.4246893,19.2924176 C25.4213287,19.2730941 25.4263696,19.2546107 25.4297302,19.2369675 L25.4314106,19.228566 L25.4314106,19.228566 Z M26.9260415,18.2892757 C26.934443,18.2808742 26.9403241,18.2707924 26.9470453,18.2615507 C26.9554468,18.252309 26.9604878,18.2422272 26.9688893,18.2321454 C26.9798113,18.2119817 26.9932537,18.1909779 27.0016552,18.1691339 C27.0108969,18.14729 27.0192984,18.1246059 27.0243393,18.1010816 C27.0310606,18.0775573 27.0361015,18.0540331 27.0361015,18.0288285 C27.0377818,18.0170664 27.0377818,18.0061444 27.0377818,17.9935421 C27.0394621,17.9800997 27.0377818,17.9683375 27.0361015,17.9574156 C27.0344212,17.932211 27.0276999,17.9086867 27.022659,17.8860026 C27.0176181,17.8734003 27.0142575,17.8641587 27.0092166,17.8523965 L26.9932537,17.8171101 L27.0276999,17.7969465 L27.0487038,17.8297124 C27.0571053,17.8423147 27.0621462,17.8557571 27.0671871,17.8683594 C27.0781091,17.8944041 27.0865106,17.921289 27.0932318,17.9481739 C27.0949121,17.9616163 27.0965924,17.9750588 27.0982727,17.9893414 C27.099953,18.0027838 27.1033137,18.0170664 27.1033137,18.0305088 C27.1033137,18.059074 27.1016334,18.0876392 27.0965924,18.1153642 C27.0949121,18.1430892 27.0881909,18.1699741 27.0781091,18.196859 C27.072228,18.224584 27.0604659,18.2506287 27.0487038,18.2766734 C27.0428227,18.2892757 27.0361015,18.301878 27.0276999,18.3136401 C27.0209787,18.3262424 27.0142575,18.3388447 27.0066961,18.3497667 C26.9898931,18.373291 26.9722499,18.3959751 26.9520862,18.4169789 L26.9487256,18.4203395 C26.7781747,18.5808086 26.6076238,18.7395974 26.4370729,18.9025869 L26.3135705,18.7572406 C26.5042851,18.6186154 26.691639,18.4757895 26.8781528,18.3371644 C26.8949559,18.3212015 26.9092385,18.3069189 26.9260415,18.2892757 M17.7961063,18.3212015 L17.777623,18.456466 L17.7238532,18.4598266 L17.6658827,18.1094831 L17.7120911,18.080918 L18.3648894,18.5371207 L18.3338038,18.5850093 L17.7961063,18.3212015 Z M17.5499417,19.8612007 L16.9248684,19.5873111 L16.8685782,19.8401969 L16.8148084,19.8401969 L16.7896038,19.3579495 L16.8341319,19.3335851 L17.5776667,19.8166726 L17.5499417,19.8612007 L17.5499417,19.8612007 Z M17.9406125,17.5944698 L17.9288504,17.7263737 L17.8725602,17.7314146 L17.8137495,17.3810711 L17.854917,17.3499854 L18.3304432,17.6961282 L18.3010379,17.7423366 L17.9406125,17.5944698 L17.9406125,17.5944698 Z M18.2472681,19.3100608 L17.4860901,18.97484 L17.4592052,19.1890789 L17.4087961,19.1932796 L17.3558665,18.75388 L17.4003946,18.7219542 L18.2766734,19.2621721 L18.2472681,19.3100608 L18.2472681,19.3100608 Z M26.8058997,11.2723236 C26.7160034,11.258041 26.6269473,11.2454387 26.5404116,11.2319963 C26.4496752,11.2185539 26.3614592,11.2017508 26.2841651,11.1866281 C26.233756,11.1790667 26.1858673,11.1689849 26.139659,11.158903 C26.106893,11.153022 26.0758074,11.1471409 26.0447217,11.1412598 L25.9464239,11.1219363 C25.9069368,11.114375 25.8674496,11.1068136 25.8296427,11.0984121 C25.7464677,11.081609 25.6691737,11.0664863 25.6053221,11.0522037 C25.5691955,11.0446423 25.5372697,11.037081 25.5095447,11.03204 L25.3751203,11.0009544 L25.3885628,10.9329021 L25.5246675,10.948865 C25.5540728,10.9522256 25.5851584,10.9564263 25.6229653,10.9606271 C25.6884972,10.9690286 25.7641109,10.9774301 25.8498064,10.9891923 C25.9170186,10.9992741 25.9875914,11.0093559 26.0640452,11.0202779 L26.1236961,11.0278393 C26.1825067,11.0354006 26.2429977,11.0446423 26.3060091,11.0547242 C26.4076675,11.0715272 26.5126866,11.0849696 26.6227465,11.1000924 C26.691639,11.1110144 26.7588512,11.1194159 26.8277437,11.1294977 C26.8966362,11.1404197 26.9688893,11.1496614 27.0361015,11.1597432 L27.0932318,11.1689849 L27.347798,11.2093122 C27.4628988,11.2244349 27.568758,11.2420781 27.6662157,11.258041 C27.7149445,11.2664425 27.7594726,11.2740039 27.805681,11.2807251 C27.8812947,11.2924873 27.9501872,11.3059297 28.0106782,11.3160115 C28.0552062,11.324413 28.0930131,11.3319744 28.1274593,11.3361752 L28.263564,11.3605396 L28.2534822,11.4294321 L28.2400397,11.4285919 C28.2400397,11.4285919 28.1946715,11.4260715 28.1173775,11.4210306 L28.07621,11.4185101 C27.998916,11.412629 27.9039788,11.4059078 27.7888779,11.3933055 C27.7418294,11.3882646 27.6888998,11.3823836 27.6351301,11.3773426 C27.5376724,11.368101 27.4376943,11.3588593 27.3293146,11.3445767 L27.0739083,11.3101305 C27.022659,11.3034092 26.8058997,11.2723236 26.8058997,11.2723236 M15.5360966,14.2590651 L15.5276951,14.2187378 L15.6940452,14.1473248 L15.6049891,13.9902163 L15.637755,13.9624913 L15.9729758,14.2204181 L15.9595334,14.2590651 L15.5360966,14.2590651 Z M16.3334011,7.48407681 L15.7360528,7.74872479 L16.3157579,8.05201978 L16.3006352,8.09234709 L15.4260366,7.84870292 C15.3899101,7.83946124 15.3605048,7.81257637 15.3495828,7.77476952 C15.3277388,7.7151187 15.3621851,7.65126713 15.4209957,7.63110347 L15.4327579,7.62942317 L16.282992,7.35553351 C16.4258179,7.31184559 16.5669635,7.26143645 16.7081091,7.21270762 L17.1357466,7.06652111 L17.149189,7.10600827 L16.7442356,7.297563 C16.6064506,7.36057442 16.4711861,7.424426 16.3334011,7.48407681 M16.7223917,14.2590651 L16.7156704,14.2187378 L16.8803403,14.1473248 L16.7929645,13.9902163 L16.8240501,13.9624913 L17.1592709,14.2204181 L17.1458284,14.2590651 L16.7223917,14.2590651 Z"></path>
                        </g>
                    </g>
                </g>
                <path d="M14.436792,90.4077521 L12.2337194,90.4077521 C7.52051535,90.4077521 5.82090403,88.2582392 4.01773552,83.7485536 L2.31455355,79.4888133 L1.81110067,79.4888133 L1.81110067,90.9076343 L32.8682971,90.9076343 L32.8682971,79.4888133 L32.3684149,79.4888133 L30.6688036,83.7485536 C28.8656435,88.2582392 27.2088799,90.4077521 22.4528197,90.4077521 L20.2461764,90.4077521 L20.2461764,61.5036307 C20.2461764,59.2469984 20.949594,57.0939233 24.405947,56.5440436 L25.6556567,56.3440873 L25.6556567,55.8406345 L9.02374108,55.8406345 L9.02374108,56.3440873 L10.2805921,56.5440436 C13.7298039,57.0939233 14.436792,59.2469984 14.436792,61.5036307 L14.436792,90.4077521 L14.436792,90.4077521 Z M43.5444335,90.9076343 L43.5444335,75.8289334 C44.4942165,77.4321373 47.3471368,80.5421375 51.3069478,80.5421375 C55.2131998,80.5421375 59.3194056,78.3854833 59.3194056,71.5727638 L59.3194056,59.3969656 C59.3194056,58.0972668 59.8228618,57.0439258 61.4796262,56.594041 L62.42941,56.3440873 L62.42941,55.8406345 L50.7035151,55.8406345 L50.7035151,56.3440873 L51.6604385,56.594041 C53.3064918,57.0439258 53.8135195,58.0972668 53.8135195,59.3969656 L53.8135195,71.0728816 C53.8135195,75.6789662 51.1534116,77.3357382 48.5504341,77.3357382 C46.7508454,77.3357382 44.9441147,76.3823753 43.5444335,75.2790621 L43.5444335,59.3969656 C43.5444335,58.0972668 44.04432,57.0439258 45.6975137,56.594041 L46.6472975,56.3440873 L46.6472975,55.8406345 L34.9249732,55.8406345 L34.9249732,56.3440873 L35.8783276,56.594041 C37.5315206,57.0439258 38.0314061,58.0972668 38.0314061,59.3969656 L38.0314061,87.3548738 C38.0314061,88.654581 37.5315206,89.7043429 35.8783276,90.1542277 L34.9249732,90.4077521 L34.9249732,90.9076343 L43.5444335,90.9076343 L43.5444335,90.9076343 Z M75.5549861,80.5421375 C81.8642612,80.5421375 85.4241621,76.3288156 85.4241621,71.3692369 L85.4241621,71.1228622 L69.6420496,71.1228622 C69.5920689,70.5694203 69.5920689,69.9695599 69.5920689,69.766033 C69.5920689,63.3067824 73.0484236,58.6471381 78.5078913,58.6471381 C82.0142342,58.6471381 84.4708161,60.953751 85.3741814,62.9568674 L85.8205082,62.7533405 C85.4241697,60.6002654 82.1642006,55.0943776 75.5549937,55.0943776 C68.4351901,55.0943776 64.1326012,60.4502982 64.1326012,67.9128839 C64.1326012,74.5292262 68.4351901,80.5421375 75.5549937,80.5421375 M69.6420571,71.6727419 L79.811165,71.6727419 L79.811165,73.2723751 C79.811165,76.62875 78.861382,79.9851249 75.501434,79.9851249 C71.8951146,79.9851249 70.24192,76.6823097 69.6420571,71.6727419" id="path16871" fill="#110F0D" fill-rule="nonzero"></path>
                <path d="M12.093662,6.93881796 C12.093662,4.59479301 12.8229142,2.56498502 16.4120448,1.83825326 L17.7126006,1.57612574 L17.7126006,1.31483837 L0.434028138,1.31483837 L0.434028138,1.57612574 L1.73458392,1.83825326 C5.32707522,2.56498502 6.05632742,4.59479301 6.05632742,6.93881796 L6.05632742,32.0753351 C6.05632742,34.41936 5.32707522,36.4970567 1.73458392,37.227149 L0.434028138,37.4884364 L0.434028138,37.745523 L17.7126006,37.745523 L17.7126006,37.4884364 L16.4120448,37.227149 C12.8229142,36.4970567 12.093662,34.41936 12.093662,32.0753351 L12.093662,6.93881796 Z M53.932407,30.1505461 L53.932407,0.537697481 L53.5719817,0.537697481 L27.0802989,31.7611181 L27.2382476,12.5073475 C27.290337,3.76136191 30.0460366,2.61623431 33.220132,1.78364336 L34.052723,1.57612574 L34.052723,1.31483837 L19.9499262,1.31483837 L19.9499262,1.57612574 L20.7825172,1.78364336 C23.9070436,2.56498502 26.7711229,3.81429151 26.7711229,12.5073475 L26.7711229,32.0232456 L26.1443693,32.6970478 C23.3836288,35.7190756 21.6159483,36.9641814 18.7527092,37.4875963 L18.7527092,37.745523 L31.4028826,37.745523 C32.7034384,35.4014981 34.5761379,33.1137633 38.7399328,28.1711472 L53.623231,10.5791979 L53.4652824,29.3179552 C53.4173937,35.5602869 51.124618,36.8616828 47.8967528,37.3288075 L46.6986956,37.4875963 L46.6986956,37.745523 L79.437751,37.745523 C92.9692442,37.745523 99.8904189,29.2112558 99.8904189,19.6889695 C99.8904189,10.1633225 92.9692442,1.31483837 79.437751,1.31483837 L61.2224087,1.31483837 L61.2224087,1.57612574 L62.4675144,1.78364336 C66.1641846,2.40955684 66.8430277,4.54354372 66.8430277,6.93881796 L66.8430277,30.1505461 C66.8430277,35.7190756 63.9797886,37.4875963 60.3898177,37.4875963 C56.7956461,37.4875963 53.932407,35.7190756 53.932407,30.1505461 M78.3438727,1.57612574 C88.0241077,1.57612574 93.1238322,8.44605121 93.1238322,19.5301807 C93.1238322,30.6193511 87.5553027,37.4875963 77.8750677,37.4875963 L72.8778417,37.4875963 L72.8778417,6.98586649 C72.8778417,3.97224014 73.5566848,1.57612574 77.2021057,1.57612574 L78.3438727,1.57612574 L78.3438727,1.57612574 Z M119.198799,1.57612574 C125.028616,1.57612574 128.099373,3.24214778 130.597986,7.50928138 L133.041149,11.6184664 L133.301596,11.6184664 L133.301596,1.31483837 L101.138885,1.31483837 L101.138885,1.57612574 L102.439441,1.78364336 C106.028572,2.35830755 106.759504,4.59479301 106.759504,6.93881796 L106.759504,32.2290829 C106.759504,34.6756065 106.028572,36.4962165 102.439441,37.2263089 L101.138885,37.4875963 L101.138885,37.745523 L131.898542,37.745523 L131.898542,27.441895 L131.636414,27.441895 L129.189891,31.8644568 C126.743367,36.3416285 123.364275,37.4875963 117.062292,37.4875963 L112.795158,37.4875963 L112.795158,20.2602731 L115.39711,20.3115223 C120.969,20.4140209 122.84086,20.6761485 124.60938,26.2959273 L125.184045,28.1207381 L125.441971,28.1207381 L125.441971,12.1418812 L125.184045,12.1418812 L124.60938,13.911242 C122.78877,19.5822701 121.019409,19.7923082 115.39711,19.8948068 L112.795158,19.9468962 L112.795158,6.83127847 C112.795158,3.71095277 113.940286,1.57612574 117.636956,1.57612574 L119.198799,1.57612574 L119.198799,1.57612574 Z M153.285459,37.745523 C161.45594,37.745523 167.183259,33.2683513 167.183259,26.8672309 C167.183259,20.4140209 161.45594,15.94105 153.285459,15.94105 L151.049814,15.94105 L151.049814,16.2502261 L151.153153,16.2502261 C157.085468,16.2502261 160.5721,20.3636118 160.5721,26.8672309 C160.5721,33.3750507 157.085468,37.4875963 151.153153,37.4875963 L149.281293,37.4875963 L149.281293,7.45803209 C149.281293,3.55216398 150.269312,2.67168436 154.536446,1.78364336 L155.523625,1.57612574 L155.523625,1.31483837 L137.56957,1.31483837 L137.56957,1.57612574 L138.870126,1.83825326 C142.460097,2.56498502 143.190189,4.59479301 143.190189,6.93881796 L143.190189,32.1265843 C143.190189,34.4647282 142.460097,36.4962165 138.870126,37.2263089 L137.56957,37.4875963 L137.56957,37.745523 L153.285459,37.745523 L153.285459,37.745523 Z M186.699157,1.57612574 C192.528974,1.57612574 195.59889,3.24214778 198.096663,7.50928138 L200.544027,11.6184664 L200.801954,11.6184664 L200.801954,1.31483837 L168.637562,1.31483837 L168.637562,1.57612574 L169.938958,1.78364336 C173.53229,2.35830755 174.261542,4.59479301 174.261542,6.93881796 L174.261542,32.2290829 C174.261542,34.6756065 173.53229,36.4962165 169.938958,37.2263089 L168.637562,37.4875963 L168.637562,37.745523 L199.397219,37.745523 L199.397219,27.441895 L199.135932,27.441895 L196.689408,31.8644568 C194.245405,36.3416285 190.863792,37.4875963 184.56517,37.4875963 L180.298036,37.4875963 L180.298036,20.2602731 L182.899988,20.3115223 C188.467677,20.4140209 190.339537,20.6761485 192.112258,26.2959273 L192.682722,28.1207381 L192.944849,28.1207381 L192.944849,12.1418812 L192.682722,12.1418812 L192.112258,13.911242 C190.287447,19.5822701 188.518927,19.7923082 182.899988,19.8948068 L180.298036,19.9468962 L180.298036,6.83127847 C180.298036,3.71095277 181.439803,1.57612574 185.137314,1.57612574 L186.699157,1.57612574 L186.699157,1.57612574 Z M238.636533,30.1505461 L238.636533,0.537697481 L238.276107,0.537697481 L211.783584,31.7611181 L211.941533,12.5073475 C211.990262,3.76136191 214.750162,2.61623431 217.925938,1.78364336 L218.759369,1.57612574 L218.759369,1.31483837 L204.652372,1.31483837 L204.652372,1.57612574 L205.484963,1.78364336 C208.610329,2.56498502 211.469367,3.81429151 211.469367,12.5073475 L211.469367,32.0232456 L210.846815,32.6970478 C208.086914,35.7190756 206.318394,36.9641814 203.454314,37.4875963 L203.454314,37.745523 L216.101127,37.745523 C217.402523,35.4014981 219.279423,33.1137633 223.438177,28.1711472 L238.326517,10.5791979 L238.168568,29.3179552 C238.117319,35.5602869 235.828744,36.8616828 232.600038,37.3288075 L231.402821,37.4875963 L231.402821,37.745523 L264.140196,37.745523 C277.668329,37.745523 284.592864,29.2112558 284.592864,19.6889695 C284.592864,10.1633225 277.668329,1.31483837 264.140196,1.31483837 L245.926534,1.31483837 L245.926534,1.57612574 L247.175001,1.78364336 C250.869991,2.40955684 251.544633,4.54354372 251.544633,6.93881796 L251.544633,30.1505461 C251.544633,35.7190756 248.681394,37.4875963 245.092263,37.4875963 C241.498932,37.4875963 238.636533,35.7190756 238.636533,30.1505461 M263.046318,1.57612574 C272.727393,1.57612574 277.827118,8.44605121 277.827118,19.5301807 C277.827118,30.6193511 272.257748,37.4875963 262.578353,37.4875963 L257.581967,37.4875963 L257.581967,6.98586649 C257.581967,3.97224014 258.25913,1.57612574 261.90035,1.57612574 L263.046318,1.57612574 L263.046318,1.57612574 Z M303.902925,1.57612574 C309.728541,1.57612574 312.803499,3.24214778 315.296231,7.50928138 L317.747795,11.6184664 L318.005722,11.6184664 L318.005722,1.31483837 L285.841331,1.31483837 L285.841331,1.57612574 L287.142727,1.78364336 C290.735218,2.35830755 291.46195,4.59479301 291.46195,6.93881796 L291.46195,32.2290829 C291.46195,34.6756065 290.735218,36.4962165 287.142727,37.2263089 L285.841331,37.4875963 L285.841331,37.745523 L316.597627,37.745523 L316.597627,27.441895 L316.3397,27.441895 L313.893176,31.8644568 C311.446653,36.3416285 308.063359,37.4875963 301.769778,37.4875963 L297.501805,37.4875963 L297.501805,20.2602731 L300.104596,20.3115223 C305.672286,20.4140209 307.544145,20.6761485 309.311826,26.2959273 L309.88733,28.1207381 L310.145257,28.1207381 L310.145257,12.1418812 L309.88733,12.1418812 L309.311826,13.911242 C307.493736,19.5822701 305.722695,19.7923082 300.104596,19.8948068 L297.501805,19.9468962 L297.501805,6.83127847 C297.501805,3.71095277 298.644412,1.57612574 302.341082,1.57612574 L303.902925,1.57612574 Z M355.423585,28.2753261 C355.372336,34.9898234 353.07872,36.8616828 349.855896,37.3288075 L348.657839,37.4875963 L348.657839,37.745523 L362.656457,37.745523 L362.656457,37.4875963 L361.46008,37.3288075 C358.235575,36.8616828 355.89071,34.9898234 355.89071,28.2753261 L355.89071,0.537697481 L355.528604,0.537697481 L329.038602,31.7611181 L329.19487,12.5073475 C329.24528,3.76136191 332.00602,2.61623431 335.177595,1.78364336 L336.011026,1.57612574 L336.011026,1.31483837 L321.907389,1.31483837 L321.907389,1.57612574 L322.74082,1.78364336 C325.861986,2.56498502 328.725225,3.81429151 328.725225,12.5073475 L328.725225,32.0232456 L328.098472,32.6970478 C325.341932,35.7190756 323.573411,36.9641814 320.709332,37.4875963 L320.709332,37.745523 L333.357825,37.745523 C334.657541,35.4014981 336.534441,33.1137633 340.699076,28.1711472 L355.579014,10.5791979 L355.423585,28.2753261 L355.423585,28.2753261 Z M377.751473,37.4875963 L375.458698,37.4875963 C370.569011,37.4875963 368.539203,34.9898234 366.666504,30.3059743 L364.894622,25.8800519 L364.636696,25.8800519 L364.636696,37.745523 L396.902745,37.745523 L396.902745,25.8800519 L396.639778,25.8800519 L394.872937,30.3059743 C393.000238,34.9898234 391.021679,37.4875963 386.079063,37.4875963 L383.786287,37.4875963 L383.786287,6.93881796 C383.786287,4.59479301 384.51722,2.35830755 388.10551,1.78364336 L389.406906,1.57612574 L389.406906,1.31483837 L372.127494,1.31483837 L372.127494,1.57612574 L373.42889,1.78364336 C377.021381,2.35830755 377.751473,4.59479301 377.751473,6.93881796 L377.751473,37.4875963 L377.751473,37.4875963 Z" id="path16873" fill="#110F0D" fill-rule="nonzero"></path>
            </g>
        </g>
    </g>
</svg>