<?xml version="1.0" encoding="UTF-8"?>
<svg width="400px" height="65px" viewBox="0 0 400 65" version="1.1" xmlns="http://www.w3.org/2000/svg" xmlns:xlink="http://www.w3.org/1999/xlink">
    <title>the-telegraph-logo</title>
    <g id="presscentre-logo" stroke="none" stroke-width="1" fill="none" fill-rule="evenodd">
        <g id="the-telegraph-logo" fill="#1D1D1B" fill-rule="nonzero">
            <path d="M51.6239316,59.0253946 C58.8034188,58.3390528 65.982906,55.9368566 65.982906,48.3870968 L65.982906,24.0219629 L62.5641026,20.5902539 L58.8034188,24.0219629 L58.8034188,42.2100206 L61.8803419,44.9553878 L55.042735,51.132464 L54.7008547,51.132464 L47.8632479,45.2985587 L49.5726496,43.5827042 L49.5726496,6.52024708 C49.5726496,3.77487989 47.1794872,2.40219629 45.8119658,2.05902539 L45.8119658,1.3726836 C46.4957265,1.0295127 47.5213675,0.686341798 48.8888889,0.686341798 C51.2820513,0.686341798 53.3333333,2.05902539 54.017094,3.77487989 L54.3589744,3.77487989 C55.7264957,1.7158545 58.1196581,0.686341798 60.1709402,0.686341798 C60.8547009,0.686341798 61.5384615,0.686341798 62.2222222,1.0295127 L62.2222222,1.7158545 C61.1965812,2.05902539 59.1452991,3.43170899 59.1452991,7.20658888 L59.1452991,22.6492793 L68.3760684,14.0700069 L69.0598291,14.0700069 C69.7435897,14.7563487 73.5042735,18.1880577 74.5299145,18.8743995 C74.8717949,19.2175704 75.2136752,19.2175704 75.8974359,19.2175704 C76.5811966,19.2175704 77.2649573,18.8743995 77.9487179,18.5312286 L77.9487179,19.5607412 C77.2649573,20.247083 76.2393162,21.2765957 76.2393162,22.9924502 L76.2393162,43.9258751 C76.2393162,53.1914894 65.982906,59.0253946 52.3076923,60.0549073 L52.3076923,59.0253946 L51.6239316,59.0253946 Z M48.2051282,1.7158545 C49.5726496,2.74536719 50.9401709,3.77487989 50.9401709,6.17707618 L50.9401709,44.269046 L49.5726496,45.6417296 L55.3846154,50.4461222 L57.0940171,49.0734386 L52.6495726,45.2985587 L53.3333333,44.6122169 L53.3333333,6.52024708 C52.991453,3.43170899 50.2564103,2.05902539 48.2051282,1.7158545 M64.2735043,56.6231984 C67.008547,54.9073439 69.7435897,52.8483185 69.7435897,48.7302677 L69.7435897,22.6492793 L65.6410256,18.1880577 L63.5897436,19.9039121 L67.008547,23.678792 L67.008547,48.3870968 C67.3504274,51.8188058 65.982906,54.564173 64.2735043,56.6231984 Z M81.3675214,22.6492793 C85.4700855,20.5902539 91.2820513,17.158545 95.3846154,14.0700069 L96.0683761,14.0700069 C98.8034188,16.8153741 102.564103,21.2765957 105.982906,24.3651338 L105.982906,25.0514756 L90.9401709,34.6602608 L90.9401709,40.837337 C92.3076923,41.8668497 96.7521368,43.9258751 99.4871795,44.9553878 L105.641026,39.1214825 L106.324786,39.8078243 L94.3589744,51.4756349 L93.6752137,51.4756349 C89.5726496,49.7597804 84.4444444,47.3575841 81.025641,45.6417296 C81.3675214,44.269046 81.7094017,41.1805079 81.7094017,37.405628 L81.7094017,22.6492793 L81.3675214,22.6492793 Z M95.3846154,49.0734386 C91.2820513,47.3575841 87.8632479,45.6417296 84.4444444,43.9258751 C84.7863248,42.8963624 84.7863248,41.1805079 84.7863248,37.405628 L84.7863248,21.9629375 L82.3931624,23.3356211 L82.3931624,37.405628 C82.3931624,41.1805079 82.3931624,43.9258751 82.0512821,44.9553878 C85.1282051,46.6712423 89.5726496,48.7302677 93.6752137,50.4461222 L95.3846154,49.0734386 Z M90.9401709,33.6307481 L97.7777778,29.1695264 C95.3846154,26.4241592 92.991453,23.678792 90.9401709,21.6197666 L90.9401709,33.6307481 Z M92.991453,18.5312286 L91.2820513,19.9039121 C93.3333333,22.3061084 96.0683761,25.3946465 98.8034188,28.4831846 L100.854701,27.110501 C97.7777778,24.0219629 95.042735,20.9334248 92.991453,18.5312286 M374.358974,59.0253946 C381.538462,58.3390528 388.717949,55.9368566 388.717949,48.3870968 L388.717949,24.0219629 L385.299145,20.5902539 L381.538462,24.0219629 L381.538462,42.2100206 L384.615385,44.9553878 L377.777778,51.132464 L377.094017,51.132464 L370.25641,45.2985587 L371.965812,43.5827042 L371.965812,6.52024708 C371.965812,3.77487989 369.57265,2.40219629 368.205128,2.05902539 L368.205128,1.3726836 C368.888889,1.0295127 369.91453,0.686341798 371.282051,0.686341798 C373.675214,0.686341798 375.726496,2.05902539 376.410256,3.77487989 L376.752137,3.77487989 C378.119658,1.7158545 380.512821,0.686341798 382.564103,0.686341798 C383.247863,0.686341798 383.931624,0.686341798 384.615385,1.0295127 L384.615385,1.7158545 C383.589744,2.05902539 381.538462,3.43170899 381.538462,7.20658888 L381.538462,22.6492793 L390.42735,14.0700069 L391.111111,14.0700069 C391.794872,14.7563487 395.555556,18.1880577 396.581197,18.8743995 C396.923077,19.2175704 397.264957,19.2175704 397.948718,19.2175704 C398.632479,19.2175704 399.316239,18.8743995 400,18.5312286 L400,19.9039121 C399.316239,20.5902539 398.290598,21.6197666 398.290598,23.3356211 L398.290598,43.9258751 C398.290598,53.1914894 388.034188,59.0253946 374.358974,60.0549073 L374.358974,59.0253946 Z M370.940171,1.7158545 C371.965812,2.40219629 373.675214,3.77487989 373.675214,6.17707618 L373.675214,43.9258751 L372.307692,45.2985587 L378.119658,50.1029513 L379.82906,48.7302677 L375.384615,44.9553878 L376.068376,44.269046 L376.068376,6.52024708 C375.726496,3.43170899 372.991453,2.05902539 370.940171,1.7158545 M386.666667,56.2800275 C389.401709,54.564173 392.136752,52.5051476 392.136752,48.3870968 L392.136752,22.6492793 L388.034188,18.1880577 L386.324786,19.9039121 L389.74359,23.678792 L389.74359,48.3870968 C390.08547,51.8188058 388.717949,54.564173 386.666667,56.2800275 L386.666667,56.2800275 Z M169.91453,22.6492793 C174.017094,20.5902539 179.82906,17.158545 183.931624,14.0700069 L184.615385,14.0700069 C187.350427,16.8153741 191.111111,21.2765957 194.188034,24.0219629 L194.188034,24.7083047 L179.487179,34.3170899 L179.487179,40.4941661 C181.196581,41.5236788 185.299145,43.5827042 188.034188,44.6122169 L194.188034,38.7783116 L194.871795,39.4646534 L182.905983,51.132464 L182.222222,51.132464 C178.119658,49.4166095 172.991453,47.0144132 169.57265,45.2985587 C169.91453,43.9258751 170.25641,40.837337 170.25641,37.0624571 L170.25641,22.6492793 L169.91453,22.6492793 Z M183.589744,49.0734386 C179.487179,47.3575841 176.068376,45.6417296 172.649573,43.9258751 C172.991453,42.8963624 172.991453,41.1805079 172.991453,37.405628 L172.991453,21.9629375 L170.940171,22.9924502 L170.940171,37.0624571 C170.940171,40.837337 170.940171,43.5827042 170.598291,44.6122169 C173.675214,46.3280714 178.119658,48.3870968 182.222222,50.1029513 L183.589744,49.0734386 L183.589744,49.0734386 Z M179.487179,33.2875772 L186.324786,28.8263555 C183.931624,26.0809883 181.538462,23.3356211 179.487179,21.2765957 L179.487179,33.2875772 L179.487179,33.2875772 Z M181.538462,18.5312286 L179.487179,19.9039121 C181.538462,22.3061084 184.273504,25.3946465 187.008547,28.4831846 L189.059829,27.110501 C186.324786,24.0219629 183.589744,20.9334248 181.538462,18.5312286 M207.863248,5.49073439 L207.863248,41.5236788 C207.863248,42.8963624 209.230769,44.6122169 210.598291,44.9553878 L212.649573,42.8963624 L213.333333,43.5827042 L205.811966,51.4756349 L205.128205,51.4756349 C202.393162,50.7892931 198.290598,48.0439259 198.290598,43.5827042 L198.290598,9.95195607 L196.239316,7.89293068 L193.846154,10.295127 L193.162393,9.60878518 L201.709402,0.686341798 L202.393162,0.686341798 L207.863248,5.49073439 L207.863248,5.49073439 Z M206.837607,48.7302677 C204.102564,48.0439259 201.367521,46.3280714 201.367521,42.5531915 L201.367521,8.57927248 L198.290598,5.49073439 L196.581197,7.20658888 L199.316239,9.60878518 L199.316239,43.5827042 C199.316239,47.3575841 202.393162,49.7597804 205.128205,50.4461222 L206.837607,48.7302677 Z M216.752137,22.6492793 C220.854701,20.5902539 226.666667,17.158545 230.769231,14.0700069 L231.452991,14.0700069 C234.188034,16.8153741 237.948718,21.2765957 241.025641,24.0219629 L241.025641,24.7083047 L226.324786,34.3170899 L226.324786,40.4941661 C227.692308,41.5236788 232.136752,43.5827042 234.871795,44.6122169 L241.025641,38.7783116 L241.709402,39.4646534 L229.74359,51.132464 L229.059829,51.132464 C224.957265,49.4166095 219.82906,47.0144132 216.410256,45.2985587 C216.752137,43.9258751 217.094017,40.837337 217.094017,37.0624571 L217.094017,22.6492793 L216.752137,22.6492793 Z M230.42735,49.0734386 C226.324786,47.3575841 222.905983,45.6417296 219.487179,43.9258751 C219.82906,42.8963624 219.82906,41.1805079 219.82906,37.405628 L219.82906,21.9629375 L217.777778,22.9924502 L217.777778,37.0624571 C217.777778,40.837337 217.777778,43.5827042 217.435897,44.6122169 C220.512821,46.3280714 224.957265,48.3870968 229.059829,50.1029513 L230.42735,49.0734386 L230.42735,49.0734386 Z M226.324786,33.2875772 L233.162393,28.8263555 C230.769231,26.0809883 228.376068,23.3356211 226.324786,21.2765957 L226.324786,33.2875772 L226.324786,33.2875772 Z M228.376068,18.5312286 L226.666667,19.9039121 C228.717949,22.3061084 231.452991,25.3946465 234.188034,28.4831846 L235.897436,27.110501 C233.162393,24.0219629 230.42735,20.9334248 228.376068,18.5312286 M289.230769,24.0219629 L289.230769,41.5236788 C289.230769,42.8963624 290.598291,44.6122169 291.965812,44.6122169 L294.017094,42.5531915 L294.700855,43.2395333 L287.179487,51.132464 L286.837607,51.132464 C284.102564,50.4461222 280,48.0439259 280,43.2395333 L280,23.3356211 L277.948718,21.2765957 L275.555556,23.3356211 L274.871795,22.6492793 L283.418803,14.0700069 L284.102564,14.0700069 L289.57265,19.5607412 L289.57265,22.6492793 L296.410256,14.4131778 L297.094017,14.4131778 C298.461538,15.7858614 300.512821,17.8448868 302.564103,19.2175704 L296.752137,26.0809883 C295.042735,24.7083047 292.991453,22.6492793 291.623932,21.6197666 L289.230769,24.0219629 L289.230769,24.0219629 Z M288.547009,48.7302677 C285.811966,48.0439259 283.076923,46.3280714 283.076923,42.5531915 L283.076923,21.9629375 L280.34188,18.8743995 L278.632479,20.5902539 L281.025641,22.9924502 L281.025641,43.2395333 C281.025641,47.0144132 284.102564,49.4166095 286.837607,50.1029513 L288.547009,48.7302677 L288.547009,48.7302677 Z M292.307692,20.9334248 C293.333333,21.9629375 295.042735,23.678792 296.410256,24.7083047 L297.777778,22.9924502 C296.410256,21.9629375 294.358974,19.9039121 293.333333,19.2175704 L292.307692,20.9334248 L292.307692,20.9334248 Z M311.452991,51.4756349 L303.247863,45.9849005 L303.247863,35.0034317 C305.299145,33.6307481 309.74359,30.54221 311.794872,29.1695264 C308.376068,27.4536719 305.641026,25.3946465 303.931624,22.9924502 L303.931624,22.3061084 C308.717949,19.5607412 312.478632,16.8153741 315.213675,14.0700069 L315.897436,14.0700069 C315.897436,14.0700069 326.153846,18.8743995 326.495726,19.2175704 C327.179487,19.5607412 327.521368,19.5607412 327.863248,19.5607412 C328.547009,19.5607412 329.230769,19.2175704 329.91453,18.8743995 L329.91453,19.9039121 C329.230769,20.5902539 328.205128,21.6197666 328.205128,22.9924502 L328.205128,41.1805079 C328.205128,43.2395333 329.91453,44.269046 331.282051,44.6122169 L333.333333,42.5531915 L334.017094,43.2395333 L326.495726,51.132464 L326.153846,51.132464 C323.076923,50.4461222 319.65812,47.3575841 319.316239,43.9258751 L312.136752,51.132464 L311.452991,51.132464 L311.452991,51.4756349 Z M313.162393,48.7302677 L306.324786,44.269046 L306.324786,33.973919 L304.273504,35.3466026 L304.273504,45.2985587 L311.794872,50.1029513 L313.162393,48.7302677 L313.162393,48.7302677 Z M318.974359,30.8853809 L318.974359,25.3946465 L309.059829,20.247083 C308.376068,20.9334248 305.641026,22.3061084 304.957265,22.9924502 C307.350427,25.7378174 313.504274,29.5126973 318.974359,30.8853809 M327.863248,48.7302677 C325.128205,47.700755 322.393162,45.9849005 322.393162,42.2100206 L322.393162,23.3356211 L312.136752,18.1880577 C311.794872,18.5312286 310.769231,19.2175704 310.42735,19.5607412 L320.34188,24.7083047 L320.34188,43.2395333 C320.34188,46.6712423 323.760684,49.4166095 326.153846,50.4461222 L327.863248,48.7302677 L327.863248,48.7302677 Z M318.974359,42.8963624 L318.974359,31.9148936 C316.923077,31.2285518 314.529915,30.54221 312.478632,29.5126973 L312.478632,43.2395333 L316.239316,45.6417296 L318.974359,42.8963624 L318.974359,42.8963624 Z M244.786325,45.6417296 L244.786325,22.6492793 L257.094017,14.0700069 L257.777778,14.0700069 C260.17094,15.0995196 268.034188,18.5312286 268.717949,18.8743995 C269.059829,18.8743995 269.401709,19.2175704 270.08547,19.2175704 C270.769231,19.2175704 271.452991,18.8743995 272.478632,18.5312286 L272.478632,19.9039121 C271.794872,20.5902539 270.769231,21.9629375 270.769231,22.9924502 L270.769231,42.5531915 C270.769231,47.0144132 271.794872,49.7597804 273.504274,51.4756349 L273.504274,52.1619767 C270.769231,54.9073439 264.615385,61.4275909 261.880342,64.516129 L261.538462,64.516129 C258.803419,63.1434454 254.358974,61.7707618 250.940171,61.7707618 C248.205128,61.7707618 245.128205,62.4571036 243.076923,64.1729581 L242.393162,63.8297872 C244.444444,59.0253946 248.888889,53.8778312 254.700855,53.8778312 C258.119658,53.8778312 262.905983,55.2505148 267.008547,57.6527111 C264.273504,54.564173 261.880342,48.7302677 261.880342,44.269046 L254.700855,51.132464 L254.017094,51.132464 L244.786325,45.6417296 L244.786325,45.6417296 Z M250.598291,59.0253946 C247.863248,59.0253946 245.470085,60.3980782 244.102564,62.1139327 L244.102564,62.4571036 C245.811966,61.4275909 247.521368,61.08442 250.598291,61.08442 C254.017094,61.08442 258.803419,62.1139327 261.196581,63.4866163 L262.564103,61.7707618 C259.487179,60.3980782 255.042735,59.0253946 250.598291,59.0253946 M253.333333,50.4461222 L255.042735,49.0734386 L247.863248,43.9258751 L247.863248,21.9629375 L245.811966,23.3356211 L245.811966,45.2985587 L253.333333,50.4461222 L253.333333,50.4461222 Z M264.273504,21.9629375 L254.017094,17.8448868 L254.017094,19.9039121 L261.880342,23.3356211 L261.880342,43.9258751 C261.880342,48.3870968 263.931624,53.1914894 267.008547,56.9663693 L268.717949,55.2505148 C265.982906,51.8188058 264.273504,48.0439259 264.273504,43.5827042 L264.273504,21.9629375 Z M261.196581,42.8963624 L261.196581,24.0219629 L254.358974,20.9334248 L254.358974,42.5531915 L258.803419,45.2985587 L261.196581,42.8963624 L261.196581,42.8963624 Z M348.717949,22.6492793 L357.606838,14.0700069 L358.290598,14.0700069 C358.974359,14.7563487 363.076923,18.5312286 363.760684,18.8743995 C364.102564,19.2175704 364.444444,19.2175704 364.786325,19.2175704 C365.470085,19.2175704 366.153846,18.8743995 366.837607,18.5312286 L366.837607,19.9039121 C366.153846,20.5902539 365.128205,21.9629375 365.128205,23.3356211 L365.128205,45.2985587 C361.367521,46.3280714 358.290598,48.3870968 354.871795,52.1619767 L354.529915,52.1619767 L348.717949,50.7892931 L348.717949,55.5936857 L351.794872,58.3390528 L344.615385,64.516129 L344.273504,64.516129 L337.435897,58.6822237 L339.145299,56.6231984 L339.145299,48.3870968 C338.461538,48.3870968 337.094017,48.0439259 336.410256,47.700755 L336.410256,46.6712423 C337.094017,46.3280714 339.487179,44.269046 339.487179,42.5531915 L339.487179,23.678792 L337.435897,21.6197666 L335.042735,24.0219629 L334.358974,23.3356211 L342.905983,14.7563487 L343.589744,14.7563487 L349.059829,20.247083 L349.059829,22.6492793 L348.717949,22.6492793 Z M340.17094,57.3095402 L338.803419,58.6822237 L344.273504,63.4866163 L345.982906,62.1139327 L341.538462,58.3390528 L342.222222,57.6527111 L342.222222,21.9629375 L339.145299,18.8743995 L337.777778,20.247083 L340.17094,22.6492793 L340.17094,57.3095402 L340.17094,57.3095402 Z M355.555556,43.9258751 L355.555556,24.0219629 L352.136752,20.5902539 L348.376068,24.0219629 L348.376068,42.2100206 C350.08547,42.8963624 354.871795,43.5827042 355.555556,43.9258751 M354.529915,51.132464 C354.871795,50.4461222 355.555556,49.7597804 355.897436,49.4166095 L348.376068,48.0439259 L348.376068,50.1029513 L354.529915,51.132464 Z M352.820513,20.247083 L356.581197,24.0219629 L356.581197,43.9258751 L358.632479,42.8963624 L358.632479,22.6492793 L354.529915,18.5312286 L352.820513,20.247083 L352.820513,20.247083 Z M2.73504274,31.2285518 C2.73504274,22.3061084 9.23076923,16.4722032 15.3846154,13.726836 L15.7264957,14.4131778 C13.6752137,16.8153741 12.3076923,19.2175704 12.3076923,24.7083047 C12.3076923,30.8853809 14.017094,35.0034317 16.4102564,37.7487989 C17.0940171,36.7192862 17.7777778,35.3466026 17.7777778,33.973919 L17.7777778,25.0514756 L28.7179487,17.158545 L29.0598291,17.8448868 C28.3760684,18.8743995 27.6923077,20.247083 27.6923077,22.3061084 L27.6923077,28.1400137 C27.6923077,32.2580645 21.1965812,36.7192862 17.0940171,38.0919698 C19.8290598,40.837337 23.5897436,41.8668497 27.6923077,41.8668497 C29.0598291,41.8668497 30.4273504,41.8668497 31.7948718,41.5236788 L31.7948718,16.4722032 C28.034188,16.1290323 24.6153846,15.4426905 21.5384615,14.4131778 C18.1196581,13.3836651 14.7008547,12.3541524 11.965812,12.3541524 C7.52136752,12.3541524 2.05128205,13.726836 2.05128205,20.247083 L2.05128205,22.3061084 L1.02564103,22.6492793 C0.341880342,20.5902539 0,18.5312286 0,16.8153741 C0,8.92244338 5.81196581,2.05902539 15.042735,2.05902539 C18.8034188,2.05902539 22.5641026,3.08853809 25.982906,4.11805079 C29.4017094,5.14756349 32.8205128,6.17707618 36.2393162,6.17707618 C37.9487179,6.17707618 38.974359,5.14756349 38.974359,3.43170899 C38.974359,1.7158545 38.2905983,1.0295127 36.9230769,0.686341798 L36.9230769,0 C41.025641,0.686341798 45.1282051,3.08853809 45.1282051,8.23610158 C45.4700855,13.3836651 41.025641,16.4722032 33.5042735,16.4722032 L32.8205128,16.4722032 L32.8205128,41.8668497 C37.6068376,40.837337 41.025641,38.7783116 43.4188034,34.6602608 L44.1025641,35.0034317 C41.3675214,43.5827042 34.8717949,51.8188058 23.5897436,51.8188058 C12.3076923,51.8188058 2.73504274,44.9553878 2.73504274,31.2285518 M33.5042735,13.3836651 C25.2991453,13.3836651 17.7777778,9.26561428 11.965812,9.26561428 C7.86324786,9.26561428 3.41880342,10.9814688 2.05128205,15.4426905 L2.39316239,15.4426905 C4.1025641,12.3541524 8.20512821,11.3246397 11.965812,11.3246397 C18.1196581,11.3246397 25.2991453,15.4426905 33.5042735,15.4426905 C40,15.4426905 44.1025641,13.0404942 44.4444444,7.89293068 L44.1025641,7.89293068 C43.4188034,12.0109815 40,13.3836651 33.5042735,13.3836651 M9.91452991,18.5312286 C6.83760684,21.6197666 4.1025641,25.7378174 4.1025641,31.2285518 C4.1025641,44.269046 12.6495726,50.7892931 23.9316239,50.7892931 C30.7692308,50.7892931 35.5555556,47.0144132 38.2905983,44.269046 L37.9487179,43.9258751 C34.8717949,46.6712423 30.4273504,48.7302677 23.5897436,48.7302677 C14.7008547,48.7302677 6.15384615,43.2395333 6.15384615,31.2285518 C6.15384615,26.4241592 7.86324786,21.6197666 9.91452991,18.5312286 Z M20.8547009,33.2875772 L20.8547009,23.678792 L18.8034188,25.3946465 L18.8034188,34.3170899 C18.8034188,35.3466026 18.4615385,36.0329444 18.4615385,36.7192862 L18.8034188,36.7192862 C19.8290598,35.6897735 20.8547009,34.6602608 20.8547009,33.2875772 M124.444444,31.2285518 C124.444444,22.3061084 130.940171,16.4722032 137.094017,13.726836 L137.435897,14.4131778 C135.042735,17.158545 133.675214,19.5607412 133.675214,24.7083047 C133.675214,30.8853809 135.384615,35.0034317 137.777778,37.7487989 C138.461538,36.7192862 139.145299,35.3466026 139.145299,33.973919 L139.145299,25.0514756 L150.42735,16.8153741 L150.769231,17.5017159 C149.74359,18.8743995 149.401709,20.247083 149.401709,22.3061084 L149.401709,28.1400137 C149.401709,32.2580645 142.905983,36.7192862 138.803419,38.0919698 C141.538462,40.837337 145.299145,41.8668497 149.401709,41.8668497 C150.769231,41.8668497 152.136752,41.8668497 153.504274,41.5236788 L153.504274,16.4722032 C149.74359,16.1290323 146.324786,15.4426905 143.247863,14.4131778 C139.82906,13.3836651 136.410256,12.3541524 133.675214,12.3541524 C129.230769,12.3541524 123.760684,13.726836 123.760684,20.247083 L123.760684,22.3061084 L123.076923,22.6492793 C122.393162,20.5902539 122.051282,18.5312286 122.051282,16.8153741 C122.051282,8.92244338 127.863248,2.05902539 137.094017,2.05902539 C140.854701,2.05902539 144.615385,3.08853809 148.034188,4.11805079 C151.452991,5.14756349 154.871795,6.17707618 158.290598,6.17707618 C160,6.17707618 161.025641,5.14756349 161.025641,3.43170899 C161.025641,1.7158545 160.34188,1.0295127 158.974359,0.686341798 L158.974359,0 C163.076923,0.686341798 167.179487,3.08853809 167.179487,8.23610158 C167.179487,14.4131778 162.735043,17.158545 155.213675,17.158545 L154.529915,17.158545 L154.529915,42.5531915 C159.316239,41.5236788 162.735043,39.4646534 165.128205,35.3466026 L165.811966,35.6897735 C163.076923,44.269046 156.581197,52.5051476 145.299145,52.5051476 C134.017094,51.8188058 124.444444,44.9553878 124.444444,31.2285518 M155.213675,13.3836651 C147.008547,13.3836651 139.487179,9.26561428 133.675214,9.26561428 C129.91453,9.26561428 125.470085,10.9814688 123.760684,15.4426905 L124.102564,15.4426905 C125.811966,12.3541524 129.91453,11.3246397 133.675214,11.3246397 C139.82906,11.3246397 147.008547,15.4426905 155.213675,15.4426905 C161.709402,15.4426905 165.811966,13.0404942 166.153846,7.89293068 L165.811966,7.89293068 C164.786325,12.0109815 161.709402,13.3836651 155.213675,13.3836651 M131.623932,18.5312286 C128.547009,21.6197666 125.811966,25.7378174 125.811966,31.2285518 C125.811966,44.269046 134.358974,50.7892931 145.641026,50.7892931 C152.478632,50.7892931 157.264957,47.0144132 160,44.269046 L159.65812,43.9258751 C156.581197,46.6712423 152.136752,48.7302677 145.299145,48.7302677 C136.410256,48.7302677 127.863248,43.2395333 127.863248,31.2285518 C127.863248,26.4241592 129.57265,21.6197666 131.623932,18.5312286 L131.623932,18.5312286 Z M142.564103,33.2875772 L142.564103,23.678792 L140.512821,25.0514756 L140.512821,33.973919 C140.512821,35.0034317 140.17094,35.6897735 140.17094,36.3761153 L140.512821,36.3761153 C141.538462,35.6897735 142.564103,34.6602608 142.564103,33.2875772" id="Shape"></path>
        </g>
    </g>
</svg>