<?xml version="1.0" encoding="utf-8"?>
<!-- Generator: Adobe Illustrator 21.1.0, SVG Export Plug-In . SVG Version: 6.00 Build 0)  -->
<svg version="1.2" baseProfile="tiny" id="Layer_1" xmlns="http://www.w3.org/2000/svg" xmlns:xlink="http://www.w3.org/1999/xlink"
	 x="0px" y="0px" viewBox="0 0 879.3 286.7" xml:space="preserve">
<g>
	<path fill="#002F5F" d="M36.6,224.4H2.1V67.3c0-2.6,2.1-4.8,4.8-4.8h24.8c2.6,0,4.8,2.1,4.8,4.8V224.4z"/>
	<path fill="#002F5F" d="M204.2,224.4h-34.6v-99.6c0-12.5-2.5-21.8-7.5-28c-5-6.1-13-9.2-23.9-9.2c-14.5,0-25.2,4.3-31.9,12.9
		c-6.7,8.6-10.1,23-10.1,43.2v80.7H61.8V66.9c0-2.4,2-4.4,4.4-4.4h19c2.1,0,3.9,1.4,4.3,3.4l4,17.8h1.8c4.9-7.7,11.8-13.7,20.8-17.9
		c9-4.2,18.9-6.3,29.9-6.3c38.8,0,58.3,19.8,58.3,59.3V224.4z"/>
	<path fill="#002F5F" d="M354.8,66.1c0-2-1.6-3.7-3.7-3.7h-42.4c-2.5-0.7-6.3-1.3-11.3-2c-5-0.6-9.8-1-14.4-1
		c-20.5,0-36.3,4.8-47.4,14.5c-11.1,9.7-16.6,23.3-16.6,40.9c0,10.9,2.6,20.5,7.8,28.6c5.2,8.1,12,14,20.4,17.6
		c-19.6,4.1-27.4,16.9-17.5,24.7c10.1,7.9,28,12.7,54.3,21c14.5,4.6,24.7,14.3-1.5,23c-11.6,3.8-31.7,8.4-61.4,13.1
		c-3.6,0.6-5.6,4.4-3.1,7.1l24.5,33c2.2,2.3,5.2,4,8.3,3.7c7.7-0.8,25-4.7,52.7-13.7c46.2-15,102.9-56.2,18.5-76
		c-38.4-9-51.4-11.4-68-17.2c-12-4.2-7.7-10.9,7.2-14.1c4.2,0.8,10.1,2.7,19.8,3c20.2,0.5,36.1-4.8,47.6-14.4
		c11.5-9.6,17.3-22.7,17.3-39.4c0-5.6-0.8-10.8-2.5-15.8c-1.7-5-3.8-9.2-6.3-12.6l17.7-5.1V66.1z M282.6,149.8
		c-21.7,0-39.2-15.5-39.2-34.6s17.6-34.6,39.2-34.6c21.7,0,39.2,15.5,39.2,34.6S304.2,149.8,282.6,149.8z"/>
	<path fill="#002F5F" d="M485.9,79c-12.4-13-29.3-19.5-50.7-19.5c-23,0-41.1,7.6-54.3,22.7c-13.2,15.1-19.8,35.9-19.8,62.4
		c0,25.8,7.1,46,21.3,60.7c14.2,14.7,33.9,22,59.1,22c11,0,20.8-0.8,29.4-2.5c8.6-1.7,17.1-4.5,25.5-8.5v-23.8c0-2-2-3.3-3.8-2.5
		c-8,3.4-15.6,5.8-22.8,7.4c-8.2,1.8-17.2,2.7-26.7,2.7c-14.5,0-25.8-4.2-33.8-12.7c-8-8.5-12.2-20.5-12.7-36.2h97.1
		c6,0,10.8-4.8,10.8-10.8v-7.8C504.5,109.9,498.3,92,485.9,79z M397.2,126.3c1.3-13.3,5.2-23.4,11.8-30.3
		c6.6-6.9,15.4-10.4,26.3-10.4c10.9,0,19.5,3.4,25.8,10.3s9.5,17,9.7,30.4H397.2z"/>
	<path fill="#002F5F" d="M662.1,224.4h-34.6v-99.6c0-12.5-2.5-21.8-7.5-28c-5-6.1-13-9.2-23.9-9.2c-14.5,0-25.2,4.3-31.9,12.9
		c-6.7,8.6-10.1,23-10.1,43.2v80.7h-34.4v-157c0-2.7,2.2-4.9,4.9-4.9h18.1c2.3,0,4.3,1.6,4.8,3.8l4,17.4h1.8
		C558.1,76,565,70,574,65.8c9-4.2,18.9-6.3,29.9-6.3c38.8,0,58.3,19.8,58.3,59.3V224.4z"/>
	<path fill="#002F5F" d="M720.4,224.4H686v-157c0-2.7,2.2-5,5-5h24.5c2.7,0,5,2.2,5,5V224.4z"/>
	<path fill="#002F5F" d="M860.7,79c-12.4-13-29.3-19.5-50.7-19.5c-23,0-41.1,7.6-54.3,22.7c-13.2,15.1-19.8,35.9-19.8,62.4
		c0,25.8,7.1,46,21.3,60.7c14.2,14.7,33.9,22,59.1,22c11,0,20.8-0.8,29.4-2.5c8.6-1.7,17.1-4.5,25.5-8.5V193c0-2.2-2.2-3.6-4.2-2.8
		c-7.9,3.3-15.3,5.7-22.3,7.2c-8.2,1.8-17.2,2.7-26.7,2.7c-14.6,0-25.8-4.2-33.8-12.7c-8-8.5-12.2-20.5-12.7-36.2h96.9
		c6.1,0,11-4.9,11-11v-7.6C879.3,109.9,873.1,92,860.7,79z M772,126.3c1.3-13.3,5.2-23.4,11.8-30.3c6.6-6.9,15.3-10.4,26.3-10.4
		c10.9,0,19.5,3.4,25.8,10.3s9.5,17,9.7,30.4H772z"/>
	<path fill="#002F5F" d="M275.1,102.9c0,3.6-2.9,6.5-6.5,6.5c-3.6,0-6.5-2.9-6.5-6.5s2.9-6.5,6.5-6.5
		C272.2,96.4,275.1,99.3,275.1,102.9z"/>
	<g>
		<path fill="#002F5F" d="M302.9,102.9c0,3.6-2.9,6.5-6.5,6.5c-3.6,0-6.5-2.9-6.5-6.5s2.9-6.5,6.5-6.5
			C300,96.4,302.9,99.3,302.9,102.9z"/>
	</g>
	<circle fill="#002F5F" cx="19.4" cy="19.4" r="19.4"/>
	<circle fill="#002F5F" cx="703.3" cy="19.4" r="19.4"/>
</g>
</svg>
