<?xml version="1.0" encoding="UTF-8"?>
<svg width="539px" height="298px" viewBox="0 0 539 298" version="1.1" xmlns="http://www.w3.org/2000/svg" xmlns:xlink="http://www.w3.org/1999/xlink">
    <title>header-eyes</title>
    <g id="header-eyes" stroke="none" stroke-width="1" fill="none" fill-rule="evenodd">
        <g id="img-YD-mirrorEyes">
            <g id="shading" transform="translate(20.156000, 6.633000)" fill="#FFFFFF" fill-rule="nonzero">
                <path d="M112.519,104.301 C112.519,104.301 84.136,195.533 90.219,232.026 C90.219,232.026 53.726,232.026 31.425,227.971 C9.124,223.916 0,210.739 0,194.515 C0,178.291 7.1,126.598 7.1,126.598 C7.1,126.598 11.155,112.407 37.511,109.365 C63.867,106.323 112.519,104.301 112.519,104.301 Z" id="Path_1845" opacity="0.24"></path>
                <polygon id="Path_1846" opacity="0.24" points="154.081 96.192 153.067 118.492 142.93 131.671 142.93 97.206"></polygon>
                <path d="M139.889,242.163 C139.889,242.163 137.861,203.642 141.916,179.314 C145.971,154.986 143.943,139.78 143.943,139.78 C143.943,139.78 127.724,210.739 126.711,220.88 C126.129814,227.9641 126.129814,235.0839 126.711,242.168 L139.889,242.163 Z" id="Path_1847" opacity="0.24"></path>
                <path d="M227.067,133.698 C227.067,133.698 253.423,164.109 254.436,176.273 C255.449,188.437 242.272,244.19 242.272,244.19 L227.072,242.163 C227.072,242.163 241.258,196.547 241.258,187.42 C241.258,178.293 243.286,174.242 237.204,161.063 C233.216188,152.178557 229.829567,143.036318 227.067,133.698 Z" id="Path_1848" opacity="0.24"></path>
                <path d="M243.875,75.918 C243.875,75.918 228.835,59.699 225.794,41.452 C222.753,23.205 222.753,0.904 222.753,0.904 C222.753,0.904 211.602,-2.137 209.575,2.932 C207.548,8.001 213.629,65.781 217.684,70.849 C221.739,75.917 243.875,75.918 243.875,75.918 Z" id="Path_1849" opacity="0.24"></path>
                <path d="M137.862,96.192 C137.862,96.192 105.424,180.331 114.548,241.15 L101.37,240.131 C101.37,240.131 96.301,216.817 101.37,192.488 C106.439,168.159 124.684,97.201 124.684,97.201 L137.862,96.192 Z" id="Path_1850" opacity="0.24"></path>
                <path d="M237.204,262.437 C237.204,262.437 230.104,282.711 241.258,285.752 C241.258,285.752 218.958,286.766 217.943,276.628 C217.330105,270.561441 217.330105,264.448559 217.943,258.382 L237.204,262.437 Z" id="Path_1851" opacity="0.25"></path>
                <path d="M312.217,193.506 C312.217,193.506 328.436,198.575 342.628,200.606 C345.333526,200.96756 348.059451,201.155278 350.789,201.168 C364.039,201.321 379.12,198.579 379.12,198.579 C379.12,198.579 359.86,208.715 348.709,207.702 C337.558,206.689 312.217,193.506 312.217,193.506 Z" id="Path_1852" opacity="0.24"></path>
                <path d="M223.012,193.506 C223.012,193.506 181.451,205.67 165.232,204.657 C165.232,204.657 190.574,208.711 204.766,204.657 C218.958,200.603 223.012,193.506 223.012,193.506 Z" id="Path_1853" opacity="0.23"></path>
                <path d="M180.436,162.421 C181.825,162.066 174.692,173.233 178.071,177.964 L165.907,170.864 C165.907,170.864 165.907,166.136 180.436,162.421 Z" id="Path_1854" opacity="0.24"></path>
                <path d="M337.897,154.985 C337.897,154.985 329.112,163.771 331.14,170.528 C333.168,177.285 323.368,174.245 323.706,170.19 C324.171815,166.411757 324.963429,162.680864 326.072,159.039 C326.409,158.026 337.897,154.985 337.897,154.985 Z" id="Path_1855" opacity="0.24"></path>
                <ellipse id="Ellipse_5" opacity="0.24" cx="348.879" cy="160.73" rx="4.9" ry="4.055"></ellipse>
                <ellipse id="Ellipse_6" opacity="0.24" cx="203.414" cy="167.826" rx="4.731" ry="5.406"></ellipse>
            </g>
            <g id="linework">
                <path d="M256.171,297.915 C254.965,297.915 253.754,297.868 252.538,297.766 C235.756,296.366 232.394,279.203 232.959,270.229 C232.944995,268.599992 233.272002,266.986077 233.919,265.491 C200.667,264.032 74.859,258.354 38.819,254.423 C25.247,252.943 14.984,247.786 8.319,239.098 C-1.981,225.687 0.078,208.706 0.333,206.898 C0.513,204.453 3.514,164.083 7.188,137.624 C9.153,123.478 15.62,113.151 26.961,106.05 C36.806,99.885 50.481,96.026 69.995,93.904 C104.195,90.187 231.695,82.482 252.795,82.482 C255.118,82.482 258.995,82.473 264.126,82.459 C302.91,82.359 420.926,82.066 462.826,84.769 C488.326,86.413 503.034,98.726 510.883,108.769 C515.985302,115.189879 519.736479,122.576242 521.911,130.484 C522.592,133.168 535.659,184.814 537.178,196.97 C537.321,198.111 537.478,199.252 537.634,200.398 C539.152,211.487 540.872,224.055 530.696,241.498 C519.504,260.686 490.617,261.971 473.359,262.739 L471.891,262.805 C457.074,263.478 334.413,265.963 307.478,266.505 C307.796738,267.814665 307.84742,269.175251 307.627,270.505 C306.438,277.834 297.727,283.662 294.478,285.289 C293.955,285.55 293.16,285.989 292.241,286.501 C285.902,290.015 271.659,297.915 256.171,297.915 Z M239.171,270.537 C239.121,271.344 238.101,290.318 253.051,291.564 C268.033,292.81 282.88,284.572 289.223,281.053 C290.246,280.486 291.053,280.038 291.696,279.717 C294.782,278.174 300.822,273.594 301.485,269.502 C301.701661,268.061106 301.140743,266.612988 300.01,265.694 L294.844,260.528 L302.144,260.383 C303.672,260.353 455.109,257.334 471.605,256.583 L473.078,256.518 C489.069,255.806 515.834,254.618 525.317,238.357 C534.412,222.767 532.981,212.309 531.465,201.236 C531.305,200.065 531.145,198.901 531,197.736 C529.521,185.901 516,132.509 515.866,131.971 L515.847,131.894 C513.833114,124.788992 510.42186,118.157207 505.813,112.387 C495.542,99.375 480.942,92.171 462.422,90.976 C420.722,88.286 302.868,88.582 264.136,88.676 C259.002,88.689 255.115,88.699 252.789,88.699 C231.78,88.699 104.749,96.38 70.661,100.085 C33.172,104.16 16.567,115.285 13.345,138.474 C9.601,165.427 6.554,207.039 6.524,207.456 L6.496,207.704 C6.473,207.856 4.234,223.609 13.28,235.348 C18.88,242.611 27.696,246.948 39.491,248.233 C80.726,252.733 240.666,259.553 242.277,259.622 L242.531,265.822 C241.779,265.942 239.174,266.64 239.174,270.337 L239.171,270.537 Z" id="Path_1856" fill="#002F5F" fill-rule="nonzero"></path>
                <path d="M233.762,87.826 C223.39,80.645 222.085,67.757 221.962,66.132 C221.521,63.367 215.862,27.804 215.111,17.357 C214.805,13.082 214.773,8.987 217.676,5.868 C221.714,1.532 230.705,-0.004 252.038,-0.004 C284.18,-0.004 302.138,3.316 305.412,9.864 C307.435,13.91 323.854,53.51 324.684,60.164 C325.514,66.818 316.306,83.022 314.451,86.202 L309.751,83.459 C313.977,76.21 319.73,64.4 319.285,60.839 C318.61,55.444 303.195,17.603 300.544,12.302 C300.404,12.022 296.603,5.444 252.044,5.444 C233.453,5.444 224.368,6.681 221.667,9.581 C220.373,10.97 220.275,13.159 220.548,16.972 C221.291,27.372 227.303,65.015 227.364,65.393 L227.394,65.664 C227.401,65.774 228.236,77.375 236.869,83.353 L233.762,87.826 Z" id="Path_1857" fill="#002F5F" fill-rule="nonzero"></path>
                <path d="M299.575,83.971 C299.075,81.971 287.328,34.856 287.328,23.25 C287.328,11.538 288.921,6.626 288.989,6.423 L294.16,8.128 C294.146,8.172 292.773,12.598 292.773,23.25 C292.773,34.191 304.736,82.167 304.857,82.65 L299.575,83.971 Z" id="Path_1858" fill="#000000" fill-rule="nonzero"></path>
                <path d="M413.974,252.501 L201.099,252.501 C195.09,252.282 54.707,247.101 35.766,241.041 C22.09,236.665 13.926,226.867 12.155,212.704 C11.391,206.592 12.846,177.254 12.908,176.004 L12.914,175.933 C12.937,175.727 15.252,155.084 19.769,130.991 C23.869,109.091 53.529,107.308 71.248,106.24 C74.078,106.07 76.522,105.922 78.579,105.716 C93.748,104.199 217.117,98.866 243.639,98.108 C270.923,97.329 417.311,98.114 452.771,98.869 C488.018,99.619 491.629,119.093 491.902,121.062 C492.875,124.005 512.491,183.686 513.972,214.78 C515.357,243.866 500.328,246.88 491.349,248.68 C490.138,248.922 488.994,249.151 488.024,249.416 C480.422,251.488 456.199,252.501 413.974,252.501 Z M15.237,176.161 C15.178,177.361 13.743,206.595 14.471,212.415 C16.121,225.609 23.73,234.74 36.477,238.815 C55.115,244.78 199.684,250.115 201.142,250.165 L413.974,250.165 C455.406,250.165 480.113,249.155 487.413,247.165 C488.459,246.88 489.641,246.643 490.892,246.392 C499.669,244.633 512.933,241.976 511.643,214.892 C510.148,183.492 489.859,122.307 489.654,121.692 L489.601,121.452 C489.507,120.659 486.901,101.93 452.721,101.203 C417.278,100.448 270.97,99.664 243.706,100.443 C217.201,101.2 93.949,106.526 78.806,108.043 C76.706,108.253 74.238,108.402 71.383,108.574 C54.345,109.601 25.826,111.32 22.057,131.425 C17.65,154.956 15.346,175.183 15.237,176.156 L15.237,176.161 Z" id="Path_1859" fill="#002F5F" fill-rule="nonzero"></path>
                <path d="M223.231,259.27 C223.231,259.27 268.172,260.621 307.705,260.96 C324.935,261.107 330.058,262.902 340.144,262.65 L304.324,266.366 C304.324,266.366 271.548,267.042 261.073,268.732 C250.598,270.422 238.773,265.353 238.773,265.353 L223.231,259.27 Z" id="Path_1860" fill="#002F5F" fill-rule="nonzero"></path>
                <path d="M436.782,88.632 C441.785621,88.2420476 446.81305,88.270145 451.812,88.716 C467.638,90.03 491.503,95.827 500.644,118.028 C514.835,152.494 522.944,207.233 522.944,219.397 C522.944,231.561 525.985,244.739 511.793,253.862 C497.601,262.985 525.984,247.781 533.08,228.52 C540.176,209.259 525.98,156.549 525.98,156.549 C525.98,156.549 517.871,110.932 494.556,98.768 C471.241,86.604 436.782,88.632 436.782,88.632 Z" id="Path_1861" fill="#002F5F" fill-rule="nonzero"></path>
                <path d="M292.838,7.03 C293.093,13.83 290.377,20.281 290.304,26.797 C290.243,32.351 292.504,36.689 293.457,41.997 C294.335,46.876 293.872,51.57 295.262,56.188 C296.773841,60.8379626 297.99651,65.5770175 298.923,70.378 C299.416,73.294 299.506,81.956 302.065,83.978 C303.453,85.078 307.635,84.865 309.312,84.578 C313.376,83.872 312.681,83.998 314.612,80.257 C317.780714,74.4360694 319.864607,68.0874809 320.762,61.521 C321.662,54.134 316.692,47.376 315.202,39.993 C313.28,30.467 311.365,23.347 306.65,15.027 C302.199,7.172 299.978,5.265 292.838,7.03 Z" id="Path_1862" fill="#002F5F" fill-rule="nonzero"></path>
                <path d="M367.49,205.996 C363.111312,206.048975 358.738464,205.659667 354.438,204.834 C352.002,204.334 349.467,203.699 347.017,203.082 C342.111,201.847 337.039,200.57 332.301,200.293 C331.661961,200.250268 331.17677,199.700492 331.213817,199.061098 C331.250863,198.421704 331.796302,197.931642 332.436,197.963 C337.395,198.252 342.576,199.557 347.587,200.819 C350.012,201.43 352.52,202.061 354.904,202.547 C362.417,204.077 369.683,203.718 377.374,203.337 C381.524,203.132 385.815,202.918 390.147,203.031 L390.117,205.364 L387.617,205.364 C387.528483,205.363938 387.440257,205.353874 387.354,205.334 C384.026,205.344 380.717,205.508 377.492,205.668 C374.203,205.827 370.864,205.996 367.49,205.996 Z" id="Path_1863" fill="#002F5F" fill-rule="nonzero"></path>
                <path d="M198.059,209.415 C197.414484,209.415 196.892,208.892516 196.892,208.248 C196.892,207.603484 197.414484,207.081 198.059,207.081 C217.654,207.081 232.971,203.896 243.588,197.614 C243.947336,197.387791 244.401182,197.374605 244.773045,197.579571 C245.144908,197.784537 245.3761,198.175305 245.376715,198.599914 C245.377328,199.024523 245.147268,199.415959 244.776,199.622 C233.795,206.12 218.077,209.415 198.059,209.415 Z" id="Path_1864" fill="#002F5F" fill-rule="nonzero"></path>
                <path d="M217.793,139.015 C222.222251,134.422336 226.945197,130.12228 231.932,126.142 C227.232,122.127 220.532,121.19 214.553,120.31 C207.884,119.328 201.125,118.591 194.412,118.085 C190.863,117.817 187.338,117.498 183.832,118.345 C172.525,121.077 168.458,131.774 159.632,138.08 C161.581,136.966 164.207,136.39 166.371,135.274 C170.457285,133.29675 174.698832,131.657925 179.053,130.374 C183.504,128.942 186.975,128.274 191.482,129.801 C195.162,131.046 198.901,132.865 202.541,134.188 C207.387,135.951 212.328,137.388 217.224,138.838 C217.415,138.898 217.6,138.957 217.793,139.015 Z" id="Path_1865" fill="#002F5F" fill-rule="nonzero"></path>
                <path d="M238.606,135.519 C237.759238,133.065567 236.419428,130.811336 234.669,128.895 C230.174456,132.45187 225.906167,136.285648 221.889,140.374 C222.761,140.697 223.633,141.038 224.52,141.433 C229.028,143.445 233.337,144.026 238.095,145.148 C241.278,144.782 239.347,137.887 238.606,135.519 Z" id="Path_1866" fill="#002F5F" fill-rule="nonzero"></path>
                <path d="M344.804,139.735 C353.220462,132.625361 361.244295,125.063543 368.84,117.083 C360.051,118.594 351.299,120.662 342.583,122.34 C336.495,123.512 329.038,122.308 323.755,123.858 C322.655,128.948 320.276,133.358 319.631,138.636 C319.367,140.799 318.663,143.551 319.491,145.608 C321.857357,145.684797 324.21833,145.336968 326.462,144.581 C331.786,143.06 337.225,142.055 342.536,140.46 C343.297,140.232 344.047,139.981 344.804,139.735 Z" id="Path_1867" fill="#002F5F" fill-rule="nonzero"></path>
                <path d="M401.94,117.916 C394.676,115.016 385.524,114.878 377.84,115.768 C376.896,115.877 375.954,116.012 375.012,116.141 C374.917874,116.34809 374.789395,116.537766 374.632,116.702 C372.196667,119.217333 369.744333,121.715667 367.275,124.197 C363.234,128.244 359.124,132.226 354.897,136.079 C359.631,134.253 364.357,132.393 369.242,130.898 C385.916,125.798 402.633,127.348 418.203,134.788 C423.821,137.472 429.986,140.253 434.653,144.411 C426.066,134.317 414.586,122.963 401.94,117.916 Z" id="Path_1868" fill="#002F5F" fill-rule="nonzero"></path>
                <path d="M326.561,187.172 C325.687761,187.211818 324.839024,186.877126 324.228,186.252 C323.690139,185.720325 323.431252,184.968075 323.528,184.218 C323.777,182.331 326.054,180.797 328.78,179.13 C329.258,178.838 329.669,178.587 329.916,178.41 C332.703112,176.289841 335.297222,173.927301 337.668,171.35 C340.994,167.937 344.433,164.409 349.056,162.039 C354.392712,159.399669 360.253743,157.991737 366.207,157.919 C371.019,157.73 380.226,157.841 387.789,160.712 C392.678,162.567 399.145,166.266 402.181,170.141 L404.181,170.195 L402.718,171.366 C402.686425,171.677548 402.530862,171.963302 402.286337,172.158921 C402.041813,172.354541 401.728881,172.443583 401.418,172.406 C396.079,176.571 389.418,178.734 382.963,180.826 C381.134,181.42 379.244,182.033 377.454,182.673 C367.286,186.312 358.404,187.696 350.306,186.911 C348.149106,186.624996 346.022462,186.14471 343.952,185.476 C341.023,184.629 337.991,183.752 335.322,184.119 C334.326385,184.398567 333.362793,184.781657 332.447,185.262 C330.471,186.176 328.326,187.172 326.561,187.172 Z M369.234,160.193 C368.134,160.193 367.15,160.217 366.301,160.251 C360.687634,160.313645 355.15973,161.634027 350.124,164.115 C345.841,166.315 342.684,169.55 339.343,172.979 C336.877942,175.656649 334.17891,178.109037 331.278,180.307 C330.962,180.533 330.517,180.807 330.001,181.121 C326.473,183.278 325.794,184.172 325.845,184.541 C325.862951,184.57908 325.888469,184.613105 325.92,184.641 C326.627,185.387 329.773,183.927 331.462,183.141 C332.578718,182.543798 333.768361,182.094362 335.001,181.804 C338.158,181.37 341.433,182.316 344.601,183.231 C346.533701,183.859409 348.519045,184.31257 350.533,184.585 C358.286,185.337 366.833,183.993 376.669,180.473 C378.492,179.821 380.399,179.202 382.243,178.604 C387.38,176.937 392.659,175.224 397.16,172.504 C396.741543,172.253399 396.523079,171.768985 396.612253,171.289449 C396.701428,170.809913 397.079429,170.436418 397.56,170.353 C398.056,170.268333 398.556,170.205 399.06,170.163 C395.504843,167.024406 391.406693,164.561043 386.967,162.894 C381.101,160.668 374.12,160.193 369.234,160.193 Z" id="Path_1869" fill="#002F5F" fill-rule="nonzero"></path>
                <path d="M321.981,176.217 C321.542691,176.217 321.141454,175.971017 320.942153,175.58064 C320.742852,175.190263 320.779099,174.721129 321.036,174.366 C325.953,167.566 331.543,160.638 339.099,156.066 C346.199,151.766 355.646,150.398 362.315,150.007 C378.458,149.063 391.73,152.418 401.758,159.982 C402.458,160.512 403.158,161.055 403.858,161.598 C409.627,166.085 415.076,170.322 422.272,166.77 C422.846234,166.505564 423.526615,166.746462 423.806519,167.313316 C424.086424,167.880171 423.864059,168.566832 423.305,168.862 C414.799,173.062 408.505,168.17 402.426,163.439 C401.736,162.902 401.046,162.366 400.353,161.839 C390.78,154.618 378.026,151.419 362.453,152.33 C356.046,152.705 347.004,154.002 340.308,158.055 C333.108,162.413 327.701,169.123 322.929,175.727 C322.710782,176.033969 322.357628,176.216506 321.981,176.217 L321.981,176.217 Z" id="Path_1870" fill="#002F5F" fill-rule="nonzero"></path>
                <path d="M423.935,175.633 C419.746,175.633 415.798,174.533 411.935,173.45 C409.459257,172.710347 406.945234,172.105459 404.404,171.638 C403.795825,171.506527 403.397764,170.921019 403.499192,170.307119 C403.600619,169.693218 404.165857,169.266864 404.784,169.338 C407.409176,169.817678 410.006075,170.440947 412.563,171.205 C418.079,172.746 423.288,174.205 429.071,172.626 L429.722,174.867 C429.540682,174.922714 429.364389,174.993632 429.195,175.079 C428.95883,175.198484 428.688947,175.233763 428.43,175.179 C426.951362,175.485133 425.44499,175.637278 423.935,175.633 L423.935,175.633 Z" id="Path_1871" fill="#002F5F" fill-rule="nonzero"></path>
                <path d="M400.036,174.289 C407.8708,174.466917 415.166774,170.315361 419.016,163.489 C414.987,165.984 411.499,169.089 406.951,170.758 C410.296,170.097 414.979,164.758 416.792,161.958 C413.91,166.117 407.692,167.746 403.364,169.426 C404.969841,168.486747 406.365404,167.227336 407.464,165.726 C405.99502,166.81492 404.363699,167.665677 402.63,168.247 C405.828735,165.473605 408.840948,162.492126 411.647,159.322 C409.219,162.049 403.201,166.553 399.347,166.892 C403.222,164.249 405,160.446 407.947,157.117 C405.947,160.041 401.701,163.971 398.207,165.068 C403.046,162.452 405.797,156.847 408.976,152.548 C405.4,156.248 400.622,162.486 395.926,164.576 C399.334,161.652 402.952,154.896 404.812,150.829 C402.261448,155.012152 398.855301,158.608798 394.817,161.383 C396.499,158.948 397.403,155.762 399.271,153.491 C397.031556,156.019932 394.142443,157.887445 390.917,158.891 C393.817,157.714 397.71,151.655 398.828,148.509 C397.117,152.672 391.412,155.677 388.061,158.545 C389.355,155.634 389.136,152.009 390.966,149.337 C389.654,152.37 386.822,155.047 384.24,157.06 C385.548,153.682 386.15,150.1 387.184,146.637 C385.757,150.659 382.606,154.094 379.455,156.807 C379.88829,151.315033 381.376811,145.958191 383.839,141.03 C383.109732,142.444717 382.273992,143.80196 381.339,145.09 C379.181,148.471 378.07,151.899 376.72,155.578 C375.328,153.136 376.195,148.042 376.276,145.217 C375.107,148.551 373.947,151.994 372.73,155.283 C371.895,153.642 371.13,151.841 370.43,150.083 C370.776434,151.826991 370.60649,153.634169 369.941,155.283 C368.522,154.41 367.648,152.296 366.668,150.729 C366.566478,152.085276 366.548444,153.446511 366.614,154.805 C365.618372,154.080801 364.789158,153.152026 364.182,152.081 C364.115333,152.989667 364.072667,153.899 364.054,154.809 C363.681706,153.866169 363.16927,152.984915 362.534,152.195 C361.434,153.767 360.445,155.424 359.434,157.057 C359.49,156.894333 359.427667,156.799333 359.247,156.772 C359.069763,156.798338 358.944887,156.959839 358.964,157.138 C357.594,154.727 354.855,149.784 355.713,146.688 C355.75,150.506 354.865,154.62 355.62,158.361 C354.266,156.718 352.12,151.325 352.556,149.103 C352.015,152.396 352.71,155.963 352.684,159.346 C350.103,156.484 348.911,151.585 347.634,147.956 C349.59,150.833 348.016,157.923 349.156,161.534 C345.821,158.334 344.326,155.234 343.056,150.864 C343.981,154.792 344.756,158.976 346.282,162.724 C342.309,161.824 339.095,159.466 336.006,156.89 C337.712743,159.828625 339.68212,162.606638 341.89,165.19 C339.619663,163.831286 337.556542,162.153106 335.764,160.207 C337.156,162.918 339.302,165.256 340.906,167.85 C339.077,166.661 337.512,165.156 335.641,164.013 C334.158,165.002 335.783,168.276 336.041,169.467 C336.237166,169.940232 336.491814,170.387041 336.799,170.797 C340.449,170.216 343.905,167.745 347.184,166.142 C350.696541,164.371613 354.327183,162.845982 358.05,161.576 C365.071303,159.234015 372.594612,158.830832 379.826,160.409 C384.651,161.559 390.703,161.526 394.892,164.337 C396.789021,165.656746 398.519278,167.201318 400.045,168.937 C401.209,170.26 401.651,172.081 402.708,173.212 C399.288667,173.47 395.864667,173.659333 392.436,173.78" id="Path_1872" fill="#002F5F" fill-rule="nonzero"></path>
                <path d="M364.051,170.234 C364.051,174.641 365.832,178.326 370.386,179.358 C375.586,180.535 378.186,176.54 376.73,172.002 C375.951744,169.596398 374.54531,167.442212 372.656,165.762 C372.762,167.662 370.677,168.475 369.108,168.871 C368.887,167.826 368.287,166.63 367.131,166.721 C367.122555,167.888728 367.012136,169.053487 366.801,170.202 C364.88,170.079 363.901,170.872 364.051,170.234 Z" id="Path_1873" fill="#002F5F" fill-rule="nonzero"></path>
                <path d="M360.285,186.193 C359.608733,186.192581 358.935173,186.107589 358.28,185.94 L358.66,184.453 C356.29,181.232 354.993,175.789 355.49,170.553 C355.942,165.795 357.766,162.291 360.626,160.688 L361.387,162.045 C359.02,163.372 357.435,166.527 357.04,170.7 C356.503,176.349 358.24,182.416 361.089,184.815 L362.618,186.104 L360.618,186.187 C360.51,186.19 360.399,186.193 360.285,186.193 Z" id="Path_1874" fill="#002F5F" fill-rule="nonzero"></path>
                <path d="M386.092,178.243 L386.059,178.243 C385.692057,178.224719 385.382189,177.964315 385.301,177.606 L385.301,177.606 C385.370124,177.694476 385.461115,177.763408 385.565,177.806 L385.994,176.698 C385.763021,176.726046 385.559363,176.862809 385.446,177.066 C386.825276,173.438135 386.713838,169.412016 385.136,165.866 C384.418227,164.135896 382.928391,162.844235 381.114,162.379 L381.454,160.861 C383.725659,161.432035 385.602215,163.027681 386.531,165.178 C388.315789,169.136795 388.436482,173.646405 386.866,177.695 C386.750507,178.023465 386.440178,178.243181 386.092,178.243 L386.092,178.243 Z" id="Path_1875" fill="#002F5F" fill-rule="nonzero"></path>
                <path d="M381.724,178.692 L380.334,177.992 L380.458,177.744 C380.298352,177.684249 380.134592,177.636123 379.968,177.6 C379.747,177.589 379.527,177.583 379.305,177.588 L379.191,176.121 C378.785,176.021 378.376,175.921 377.97,175.821 L377.723,175.762 L377.923,174.228 C378.473,174.24 379.023,174.263 379.576,174.29 L379.637,173.759 L379.474,173.753 L379.328,172.263 C379.098,172.263 378.873,172.263 378.646,172.263 C378.355,172.277 378.058,172.288 377.756,172.296 L377.691,170.742 C377.995,170.724667 378.298667,170.713333 378.602,170.708 C379.379,170.671 380.115,170.614 380.802,170.537 C379.535,170.493 378.269,170.476 377.022,170.516 L376.854,168.974 C377.315,168.888 377.779,168.794 378.242,168.697 L378.159,167.938 L378.101,167.938 L377.979,167.076 C377.753,167.118 377.529,167.158 377.304,167.195 L376.823,165.735 C376.887,165.702 376.951,165.67 377.015,165.635 L376.565,164.803 L376.565,164.803 L376.451,164.615 C376.051,164.801 375.651,164.974 375.251,165.13 L374.49,163.793 L374.751,163.585 L374.283,163.406 C374.123,163.684 373.966333,163.963667 373.813,164.245 L372.543,163.771 C372.374,164.071 372.213,164.379 372.062,164.687 L370.586,164.345 L370.586,164.345 L369.337,164.166 C369.337,164.125 369.337,164.084 369.331,164.044 C369.252,164.203 369.167,164.361 369.077,164.513 L367.637,164.223 C367.614,164.055 367.598,163.888 367.587,163.723 L366.306,163.54 L366.306,163.479 L365.612,163.379 C365.6,163.458 365.589,163.538 365.582,163.616 L364.733,163.639 C364.656,163.953 364.566,164.264 364.462,164.569 L363.931,164.539 C363.888468,164.735253 363.834713,164.928904 363.77,165.119 L363.052,165.077 L363.052,165.602 L361.496,165.602 L361.496,160.586 C361.496,160.269333 361.494,159.952333 361.49,159.635 L363.043,159.57 C363.055,159.721 363.068,159.87 363.081,160.028 L363.773,160.128 C363.782,160.074 363.79,160.021 363.8,159.966 L365.181,160.166 C365.264,160.02 365.351,159.872 365.442,159.722 L366.249,159.965 C366.292,159.848 366.337,159.731 366.382,159.614 L367.75,159.892 C367.891333,159.638667 368.037333,159.395667 368.188,159.163 L369.588,159.687 C369.724683,159.470915 369.874637,159.263517 370.037,159.066 L371.415,159.6 C371.41,159.695 371.403,159.791 371.396,159.885 L372.715,160.168 C372.707,160.262 372.698,160.356 372.689,160.45 C372.88,160.118 373.065,159.783 373.237,159.45 L374.672,159.833 C374.829,159.593 374.981,159.363 375.125,159.146 L376.542,159.701 C376.511,159.893 376.476,160.083 376.442,160.272 L376.642,160.092 L376.97,159.797 L378.07,160.517 C378.229,160.406 378.387,160.303 378.541,160.208 L379.38,161.274 L379.831,161.017 L380.504,162.117 C380.778,162.037667 381.055333,161.966333 381.336,161.903 L381.922,163.319 C381.904,163.331 381.885,163.343 381.866,163.355 C382.246,163.296 382.624,163.246 383.002,163.206 L383.417,164.315 C383.657,164.271 383.896,164.23 384.137,164.193 L384.688,165.609 L384.624,165.651 C384.744,165.64 384.864,165.632 384.986,165.624 L385.286,167.135 L385.209,167.161 L385.636,167.148 L385.79,168.693 C385.056,168.814 384.317,168.957 383.581,169.112 L384.407,169.156 C385,169.189 385.59,169.221 386.179,169.251 L386.465,170.734 C386.137667,170.884667 385.787,171.024667 385.413,171.154 C385.826,171.197 386.24,171.24 386.652,171.278 L386.762,172.666 C387.371557,172.780022 387.972878,172.934361 388.562,173.128 L388.421,174.637 C387.281631,174.784039 386.134722,174.865174 384.986,174.88 L384.82,176.112 C384.357,176.102 383.891,176.084 383.428,176.062 C383.742306,176.242249 384.044605,176.442669 384.333,176.662 L383.774,178.052 C383.292,177.999 382.809,177.931 382.324,177.861 L382.151,177.836 L381.724,178.692 Z" id="Path_1876" fill="#002F5F" fill-rule="nonzero"></path>
                <path d="M249.515,187.18 C247.23749,185.118367 245.215391,182.79109 243.492,180.248 C242.858,179.388 242.226,178.531 241.575,177.703 C239.575,175.157 237.516,174.026 234.675,172.461 L234.169,172.182 C233.269,171.687 232.384,171.182 231.497,170.682 C226.533,167.865 221.845,165.204 216.311,164.456 C204.596,162.875 195.077,167.426 184.995,172.246 C182.506,173.435 179.933,174.666 177.333,175.792 C174.316673,177.050586 171.076229,177.683706 167.808,177.653 C163.167,177.628 161.552,175.473 159.508,172.745 C159.278,172.439 159.039,172.12 158.786,171.79 L160.635,170.368 C160.895,170.706 161.135,171.032 161.375,171.346 C163.286,173.896 164.338,175.301 167.82,175.319 C170.76586,175.357492 173.688128,174.789377 176.405,173.65 C178.964,172.542 181.519,171.32 183.988,170.139 C193.936,165.382 204.224,160.465 216.623,162.139 C222.604,162.948 227.71,165.846 232.648,168.648 C233.526,169.148 234.407,169.648 235.295,170.136 L235.795,170.414 C238.647,171.983 241.112,173.338 243.408,176.258 C244.075,177.105 244.721,177.982 245.37,178.858 C246.987428,181.247388 248.88082,183.437829 251.011,185.384 L249.515,187.18 Z" id="Path_1877" fill="#002F5F" fill-rule="nonzero"></path>
                <path d="M249.665,176.433 C249.012,174.5 246.937,172.195 245.265,170.342 C244.933,169.973 244.615,169.62 244.325,169.288 C241.742026,166.22071 238.84414,163.433096 235.679,160.971 C229.672,156.478 225.207,155.685 218.053,155.685 L218.033,155.685 C211.244827,155.787357 204.486669,156.609626 197.872,158.138 C197.235,158.274 196.595,158.399 195.957,158.525 C192.278,159.249 188.802,159.932 186.11,162.406 C183.121511,165.423422 180.750241,168.994763 179.129,172.92 L176.942,172.105 C178.692278,167.834948 181.272045,163.954422 184.532,160.688 C187.709,157.769 191.674,156.988 195.508,156.236 C196.135,156.112 196.763,155.989 197.389,155.856 C204.16299,154.293549 211.083864,153.455508 218.035,153.356 L218.055,153.356 C225.574,153.356 230.582,154.247 237.079,159.108 C240.365883,161.676415 243.381562,164.574148 246.079,167.756 C246.363,168.08 246.673,168.426 246.999,168.786 C248.809,170.798 251.062,173.302 251.87,175.686 L249.665,176.433 Z" id="Path_1878" fill="#002F5F" fill-rule="nonzero"></path>
                <path d="M197.286,157.795 C196.739444,156.879367 196.299895,155.903972 195.976,154.888 C196.276,155.988 196.52,157.117 196.822,158.231 L197.286,157.795 Z" id="Path_1879" fill="#000000" fill-rule="nonzero"></path>
                <path d="M170.028,163.755 C169.328,162.4 168.698,161.078 168.109,159.916 C168.614624,161.258395 169.257711,162.544904 170.028,163.755 Z" id="Path_1880" fill="#000000" fill-rule="nonzero"></path>
                <path d="M196.239,158.78 C195.251764,157.355842 194.578552,155.738088 194.264,154.034 C194.627,155.971 194.844,157.934 195.064,159.893 C195.456,159.52 195.847,159.151 196.239,158.78 Z" id="Path_1881" fill="#000000" fill-rule="nonzero"></path>
                <path d="M230.83,158.073 C231.548093,157.162881 232.192786,156.19718 232.758,155.185 C232.182,156.181 231.49,157.13 230.83,158.073 Z" id="Path_1882" fill="#000000" fill-rule="nonzero"></path>
                <path d="M230.665,169.559 C230.067792,169.381069 229.483432,169.162561 228.916,168.905 C226.79,168.812333 224.67,168.636 222.556,168.376 L230.665,169.559 Z" id="Path_1883" fill="#000000" fill-rule="nonzero"></path>
                <path d="M230.83,158.072 C228.699,160.824 226.03,163.354 224.142,166.212 C226.403,162.524 227.484,158.03 229.342,154.076 C228.774,155.163 227.747,156.287 227.112,157.257 C225.471,159.763 224.221,162.438 222.774,165.04 C222.551,163.463 222.651,161.416 222.082,160.048 C221.672,161.285 221.523,162.63 221.033,163.823 C220.995,163.002 221.361,157.487 221.201,157.458 C220.642,158.911 220.188,160.419 219.593,161.858 C219.741,159.11 220.738,156.268 220.648,153.558 C219.463828,156.091852 218.493777,158.720357 217.748,161.416 C217.869,158.428 218.435,155.573 218.78,152.616 C217.499221,155.239771 216.590474,158.029285 216.08,160.904 C215.461,156.723 214.719,152.572 215.014,148.32 C213.753425,152.515295 213.153247,156.881175 213.235,161.261 C212.612947,157.014714 212.597796,152.701552 213.19,148.451 C212.809,149.571 212.379,150.786 211.979,152.043 C212.15055,152.178239 212.296806,152.342778 212.411,152.529 C212.921822,153.461089 212.61435,154.629921 211.711,155.19 C211.461,155.374 211.219,155.567 210.973,155.756 C210.647866,157.18685 210.520679,158.655558 210.595,160.121 C210.270376,158.977048 210.016562,157.814177 209.835,156.639 C209.596,156.831 209.361,157.029 209.125,157.224 C209.098966,158.135002 209.20781,159.044846 209.448,159.924 C209.216,159.118 208.974,158.331 208.732,157.549 C208.272,157.935 207.816333,158.326333 207.365,158.723 C207.411,159.338 207.465,159.952 207.556,160.56 L207.13,158.93 C206.513333,159.474667 205.901333,160.026333 205.294,160.585 C205.341,160.859 205.383,161.133 205.443,161.406 C205.35,161.167 205.271,160.926 205.182,160.687 C201.93,163.693 198.782,166.859 195.425,169.722 C198.06,168.882 200.712,168.18 203.295,167.368 C207.994401,165.845033 212.961442,165.326831 217.874,165.847 C219.761503,165.999358 221.637976,166.266519 223.493,166.647 C225.370881,167.218462 227.187178,167.975531 228.915,168.907 C228.959,168.907 229.003,168.913 229.047,168.916 C227.473,168.028 226.335,167.405 226.28,165.721 C226.204,163.401 229.466,160.038 230.667,158.308 L230.83,158.072 Z" id="Path_1884" fill="#002F5F" fill-rule="nonzero"></path>
                <path d="M180.971,173.759 C185.525,169.205 190.088,164.648 194.749,160.196 C193.680402,157.996863 192.738203,155.738524 191.927,153.432 C191.354809,155.862367 191.325446,158.388992 191.841,160.832 C190.936883,158.6512 190.342451,156.354589 190.075,154.009 C190.110761,157.077784 190.378188,160.139487 190.875,163.168 C190.148,160.42 188.388,157.683 187.404,154.961 C187.472,158.007 188.08,161.406 187.728,164.414 C186.964729,162.442186 186.372545,160.408351 185.958,158.335 C185.978,158.999 185.958,159.667 186.011,160.271 C186.211,162.665 186.885,165.001 187.102,167.366 C186.768568,166.407299 186.249326,165.523773 185.574,164.766 C182.735638,161.081726 180.868786,156.74316 180.145,152.149 C180.018,154.439 179.467,156.177 179.965,158.517 C180.840049,162.02393 182.165749,165.402717 183.909,168.569 C180.694985,165.566458 178.070873,161.989295 176.172,158.022 C177.882,161.859 177.964,167.462 181.772,169.895 C180.139,169.131 179.011,167.549 177.953,166.162 C176.127,163.762 174.131,161.462 172.506,158.925 C172.946,160.542 173.955,161.919 174.482,163.515 C175.262761,166.335294 176.377661,169.052212 177.803,171.608 C174.655352,169.606771 171.998113,166.923216 170.028,163.756 C171.992,167.569 174.492,171.648 178.128,173.175 C176.229044,172.38937 174.451557,171.337491 172.849,170.051 C170.004,167.705 166.544,165.151 164.384,162.139 C164.996619,163.841955 165.832588,165.456052 166.87,166.939 C168.247329,168.723835 169.849989,170.322797 171.638,171.696 C172.886,172.802 174.122,174.396 175.731,174.996 C170.946,173.78 164.8,169.071 162.896,164.535 C164.59,169.624 168.418,173.717 172.858,176.694 C167.909,175.394 163.513,171.654 160.512,167.745 C163.982,173.624 166.854,178.683 174.312,177.714 C176.449333,177.270261 178.521372,176.555835 180.478,175.588 C180.27251,174.93434 180.464833,174.220835 180.971,173.759 L180.971,173.759 Z" id="Path_1885" fill="#002F5F" fill-rule="nonzero"></path>
                <path d="M217.488,174.124 C217.017,176.192 215.77,177.707 217.277,179.745 C218.298175,180.915204 219.512852,181.901219 220.868,182.66 C222.556543,183.719855 224.673482,183.829794 226.462728,182.950552 C228.251974,182.07131 229.458356,180.328278 229.651,178.344 C229.894,175.966 229.763,173.704 228.084,171.949 C226.425,173.056 225.849,173.824 223.705,173.955 C221.82,174.066 219.989,173.415 217.488,174.124 Z" id="Path_1886" fill="#002F5F" fill-rule="nonzero"></path>
                <path d="M212.327,189.193 C211.948336,188.522379 211.467198,187.915052 210.901,187.393 C210.251258,186.728347 209.649733,186.018214 209.101,185.268 C207.937929,183.36923 207.172152,181.254243 206.85,179.051 C205.938,174.689 207.977,167.568 212.07,164.568 L213.45,166.45 C210.16,168.862 208.399,175.05 209.134,178.575 C209.412801,180.463883 210.050612,182.281934 211.013,183.931 C211.502272,184.590095 212.036902,185.214275 212.613,185.799 C213.431954,186.54108 214.089865,187.443367 214.546,188.45 L212.327,189.193 Z" id="Path_1887" fill="#002F5F" fill-rule="nonzero"></path>
                <path d="M234.253,187.788 L234.174,185.456 C234.574,185.371 235.599,183.872 236.267,181.719 C236.68581,180.454304 236.905433,179.132179 236.918,177.8 C236.894548,177.297125 236.840111,176.796175 236.755,176.3 C236.433064,174.98101 236.470009,173.599893 236.862,172.3 L238.997,173.244 C238.827998,174.145976 238.850826,175.073431 239.064,175.966 C239.167524,176.571086 239.23,177.182481 239.251,177.796 C239.240815,179.365619 238.985746,180.924035 238.495,182.415 C238,184.001 236.6,187.709 234.253,187.788 Z" id="Path_1888" fill="#002F5F" fill-rule="nonzero"></path>
                <path d="M217.159,191.089 C213.805491,191.10211 210.457094,190.826088 207.151,190.264 C197.84,188.637 189.311,182.821 183.796,178.226 L185.29,176.433 C190.59,180.845 198.749,186.427 207.553,187.965 C215.446,189.341 224.675,188.914 234.242,186.726 L234.419,186.686 C246.446,183.927 247.909,185.207 248.339,186.621 L246.106,187.299 C246.13462,187.402103 246.195188,187.49348 246.279,187.56 C246.134,187.47 244.579,186.75 234.942,188.96 L234.762,189.001 C228.990596,190.351482 223.086185,191.051841 217.159,191.089 Z" id="Path_1889" fill="#002F5F" fill-rule="nonzero"></path>
                <path d="M146.393,246.466 C143.187,236.047 150.331,193.218 151.684,187.13 C152.625,182.892 154.477,171.724 156.267,160.923 C157.372,154.252 158.416,147.951 159.267,143.102 C161.499,130.46 161.524,103.351 161.524,103.078 L164.635,103.078 C164.635,104.201 164.609,130.732 162.335,143.642 C161.482,148.475 160.435,154.768 159.335,161.431 C157.535,172.273 155.68,183.484 154.72,187.805 C153.083,195.173 146.481,236.174 149.366,245.55 L146.393,246.466 Z" id="Path_1890" fill="#002F5F" fill-rule="nonzero"></path>
                <path d="M140.327,129.445 C144.268,115.456 147.649,103.617 147.727,103.359 L143.988,102.29 C143.904,102.584 139.551,117.824 134.952,134.204 C136.75,132.626 138.541667,131.039667 140.327,129.445 Z" id="Path_1891" fill="#002F5F" fill-rule="nonzero"></path>
                <path d="M137.151,140.755 C135.262222,142.305639 133.455128,143.953185 131.737,145.691 C128.596,156.985 125.793,167.263 124.702,171.807 C121.657,184.493 116.017,220.907 119.087,246.492 L122.949,246.028 C119.941,220.965 125.49,185.187 128.484,172.714 C129.756,167.416 133.384,154.231 137.151,140.755 Z" id="Path_1892" fill="#002F5F" fill-rule="nonzero"></path>
                <path d="M467.722,179.573 C467.848,179.473 467.974,179.373 468.098,179.273 C468.586,178.88 469.068,178.479 469.54,178.067 C469.926,177.73 470.3,177.381 470.672,177.029 C469.342,158.966 467.449,138.743 465.157,129.319 C462.342606,117.720015 456.170584,107.208377 447.413,99.099 L445.413,101.48 C453.615511,109.201227 459.421145,119.121109 462.136,130.054 C464.452,139.584 466.389,161.027 467.722,179.573 Z" id="Path_1893" fill="#002F5F" fill-rule="nonzero"></path>
                <path d="M472.801,212.641 L472.807,212.546 L472.807,212.451 C472.751,211.266 472.129,198.157 471.053,182.298 C470.413,183.053 469.788,183.822 469.164,184.59 C468.827,185.004 468.492,185.422 468.156,185.838 C469.089,200.027 469.639,211.345 469.694,212.51 C469.546,214.674 467.744,242.11 470.81,250.486 L473.724,249.366 C470.832,241.474 472.784,212.928 472.801,212.641 Z" id="Path_1894" fill="#002F5F" fill-rule="nonzero"></path>
                <path d="M248.238,250.47 C248.16109,250.47 248.084372,250.462305 248.009,250.447 C247.705316,250.386664 247.4381,250.208021 247.266267,249.95046 C247.094435,249.692899 247.032097,249.37757 247.093,249.074 L248.106,244.006 C248.406,242.488 249.59,237.813 251.225,231.343 C254.906,216.777 261.067,192.398 261.774,185.324 C262.732,175.724 248.434,154.888 248.29,154.678 C248.044414,154.335032 248.003028,153.886228 248.181753,153.504133 C248.360478,153.122037 248.731491,152.866133 249.152154,152.834803 C249.572818,152.803473 249.977646,153.001595 250.211,153.353 C250.821,154.236 265.141,175.113 264.096,185.553 C263.373,192.8 257.424,216.336 253.489,231.912 C251.923,238.107 250.689,243.001 250.395,244.46 L249.381,249.529 C249.273197,250.075131 248.794669,250.47 248.238,250.47 L248.238,250.47 Z" id="Path_1895" fill="#002F5F" fill-rule="nonzero"></path>
                <path d="M302.977,171.233001 C302.431941,171.233862 301.95888,170.857307 301.837473,170.325941 C301.716066,169.794574 301.978652,169.249938 302.47,169.014 C303.496,168.521 304.504,168.001 305.515,167.481 L306.425,167.014 C306.756,166.845 307.362,166.57 308.056,166.256 C309.013,165.824 310.722,165.056 311.289,164.699 C311.499283,164.376576 311.854817,164.17834 312.239639,164.16895 C312.624461,164.159559 312.98924,164.340217 313.215,164.652 C313.421847,164.951249 313.48997,165.325017 313.402,165.678 C313.202,166.409 312.715,166.713 309.017,168.378 C308.367,168.672 307.797,168.928 307.488,169.086 L306.588,169.551 C305.558,170.082 304.531,170.61 303.488,171.112 C303.329107,171.190731 303.154326,171.232117 302.977,171.233001 Z M311.195,165.793 C311.228609,165.871458 311.270871,165.945919 311.321,166.015 C311.271328,165.945626 311.229095,165.871216 311.195,165.793 L311.195,165.793 Z" id="Path_1896" fill="#002F5F" fill-rule="nonzero"></path>
                <path d="M300.272,177.821024 C299.710601,177.818853 299.230289,177.41728 299.128721,176.86514 C299.027153,176.313001 299.333115,175.766789 299.857,175.565 C301.765472,174.749141 303.576726,173.722428 305.257,172.504 C306.229,171.854 307.235,171.182 308.288,170.575 C308.647,170.368 309.018,170.175 309.388,169.992 C309.758,169.809 310.136,169.617 310.488,169.403 C310.561,169.359 310.675,169.303 310.807,169.238 C310.987239,168.961875 311.279817,168.779014 311.607,168.738 C312.260577,168.554786 312.940744,168.927523 313.138,169.577 C313.432,170.59 312.474,171.035 311.96,171.277 C311.853,171.327 311.748,171.377 311.684,171.409 C311.273,171.656 310.846,171.871 310.434,172.079 C310.103,172.246 309.77,172.413 309.45,172.597 C308.463,173.167 307.489,173.817 306.55,174.446 C304.726364,175.761904 302.760712,176.868841 300.69,177.746 C300.556463,177.796487 300.414759,177.821912 300.272,177.821024 L300.272,177.821024 Z" id="Path_1897" fill="#002F5F" fill-rule="nonzero"></path>
                <path d="M299.597,184.41 C299.095055,184.40957 298.649614,184.088225 298.490885,183.612038 C298.332156,183.135852 298.495702,182.61151 298.897,182.31 C300.209,181.335 301.64,180.459 303.023,179.61 C304.72237,178.623063 306.351878,177.520463 307.9,176.31 C307.980396,175.783498 308.407062,175.378228 308.937,175.325 C309.073,175.312 309.237,175.296 309.31,175.285 L309.453,176.211 L310.476,177.118 C310.410821,177.20824 310.333797,177.289301 310.247,177.359 C308.389368,178.966317 306.378,180.386835 304.242,181.6 C302.842,182.458 301.517,183.269 300.288,184.181 C300.088272,184.329629 299.845961,184.41 299.597,184.41 Z" id="Path_1898" fill="#002F5F" fill-rule="nonzero"></path>
                <path d="M296.724,193.533002 C296.295714,193.532885 295.901963,193.297981 295.698414,192.921156 C295.494866,192.54433 295.514287,192.086245 295.749,191.728 C296.934832,190.184085 298.402363,188.878746 300.074,187.881 C300.737,187.426 301.363,186.997 301.899,186.564 C302.624,185.98 303.34,185.343 304.034,184.727 C304.419,184.386 304.811,184.037 305.211,183.692 C305.290858,183.285786 305.580118,182.952375 305.971,182.816 L306.094,182.768 C306.364987,182.645161 306.657613,182.577187 306.955,182.568 L310.371,182.499 L307.711,184.643 C306.991,185.223 306.275,185.859 305.584,186.473 C304.87,187.107 304.132,187.762 303.364,188.382 C302.758,188.87 302.064,189.346 301.395,189.805 C299.980538,190.639855 298.729,191.724023 297.701,193.005 C297.485698,193.335025 297.118044,193.533716 296.724,193.533002 Z" id="Path_1899" fill="#002F5F" fill-rule="nonzero"></path>
                <path d="M212.112,169.914 C212.002,169.233 211.959,168.541 211.917,167.874 C211.893736,167.060442 211.795994,166.250725 211.625,165.455 L213.887,164.879 C214.095905,165.815956 214.216103,166.770504 214.246,167.73 C214.286,168.37 214.323,168.975 214.415,169.543 L212.112,169.914 Z" id="Path_1900" fill="#002F5F" fill-rule="nonzero"></path>
                <path d="M214.189,170.787 C213.660315,168.948567 213.467229,167.029911 213.619,165.123 L215.951,165.209 C215.814865,166.826239 215.964825,168.454815 216.394,170.02 L214.189,170.787 Z" id="Path_1901" fill="#002F5F" fill-rule="nonzero"></path>
                <path d="M215.699,172.274 C215.382224,171.044355 215.285066,169.768433 215.412,168.505 C215.488005,167.638182 215.460815,166.765406 215.331,165.905 L217.617,165.441 C217.789242,166.486779 217.831563,167.549838 217.743,168.606 C217.637479,169.598555 217.698997,170.601775 217.925,171.574 L215.699,172.274 Z" id="Path_1902" fill="#002F5F" fill-rule="nonzero"></path>
                <path d="M217.504,171.12 C217.468,170.12 217.527,169.12 217.585,168.149 C217.629,167.408 217.671,166.708 217.673,166.007 L220.007,166.016 C220.007,166.782 219.959,167.548 219.914,168.287 C219.858,169.242 219.805,170.145 219.836,171.038 L217.504,171.12 Z" id="Path_1903" fill="#002F5F" fill-rule="nonzero"></path>
                <path d="M219.775,171.488 C219.393471,170.140937 219.256305,168.736427 219.37,167.341 C219.382,166.758 219.392,166.207 219.365,165.741 L221.694,165.606 C221.727,166.163 221.716,166.757 221.703,167.387 C221.61211,168.488366 221.698884,169.597182 221.96,170.671 L219.775,171.488 Z" id="Path_1904" fill="#002F5F" fill-rule="nonzero"></path>
                <path d="M224.512,171.099 L222.288,170.393 C222.57934,169.15127 222.571457,167.858085 222.265,166.62 L224.536,166.086 C224.936876,167.73396 224.928637,169.454954 224.512,171.099 Z" id="Path_1905" fill="#002F5F" fill-rule="nonzero"></path>
                <path d="M225.462,171.871 L224.719,171.64 C224.928836,170.744596 224.955706,169.81604 224.798,168.91 C224.725925,168.336562 224.692516,167.758924 224.698,167.181 L225.476,167.207 C225.470434,167.750141 225.501505,168.29304 225.569,168.832 C225.740798,169.841707 225.704386,170.875876 225.462,171.871 L225.462,171.871 Z" id="Path_1906" fill="#000000" fill-rule="nonzero"></path>
                <path d="M227.359,171.968 L227.213,171.204 C228.28373,170.976692 229.337552,170.675982 230.367,170.304 C231.195,170.025 232.052,169.736 232.939,169.521 L233.122,170.277 C232.267,170.484 231.428,170.767 230.615,171.04 C229.552375,171.424078 228.464442,171.734152 227.359,171.968 L227.359,171.968 Z" id="Path_1907" fill="#002F5F" fill-rule="nonzero"></path>
                <path d="M229.117,173.469 L228.833,172.745 C231.438946,171.596451 234.258226,171.011671 237.106,171.029 L237.065,171.806 C234.327954,171.792828 231.619164,172.359602 229.117,173.469 Z" id="Path_1908" fill="#002F5F" fill-rule="nonzero"></path>
                <path d="M228.596,175.67 L228.343,174.935 C230.980611,173.925717 233.763604,173.34798 236.585,173.224 L236.572,174.002 C233.840721,174.123774 231.147187,174.687065 228.596,175.67 Z" id="Path_1909" fill="#002F5F" fill-rule="nonzero"></path>
                <path d="M228.187,176.87 L228.075,176.101 C229.647,175.871 231.354,175.701 233.007,175.536 C234.45,175.392 235.807,175.256 237.033,175.087 L237.14,175.858 C235.905,176.028 234.535,176.165 233.085,176.31 C231.441,176.473 229.741,176.642 228.187,176.87 Z" id="Path_1910" fill="#002F5F" fill-rule="nonzero"></path>
                <path d="M227.879,178.047 L227.706,177.289 C230.590654,176.732359 233.549191,176.672498 236.454,177.112 L236.365,177.884 C233.547648,177.455336 230.677812,177.51046 227.879,178.047 Z" id="Path_1911" fill="#002F5F" fill-rule="nonzero"></path>
                <path d="M236.12,179.412 C235.159,179.412 234.198,179.372 233.263,179.332 C232.442,179.298 231.608,179.262 230.768,179.255 C229.741,179.331 228.68,179.409 227.643,179.409 L227.623,179.409 L227.576,178.634 C228.627633,178.510781 229.686326,178.457997 230.745,178.476 C232.718383,178.21751 234.720288,178.273878 236.676,178.643 L239.451,179.366 L236.585,179.409 C236.43,179.411 236.276,179.412 236.12,179.412 Z" id="Path_1912" fill="#002F5F" fill-rule="nonzero"></path>
                <path d="M235.319,185.314 C232.751664,184.734712 230.304347,183.714236 228.086,182.298 C227.661,182.058 227.223,181.811 226.761,181.557 L225.51,180.869 L226.937,180.828 C230.575317,180.735638 234.206516,181.197251 237.706,182.197 L237.478,182.941 C234.533537,182.097345 231.49058,181.646114 228.428,181.599 L228.468,181.622 C230.61668,182.995317 232.986563,183.986913 235.473,184.553 L235.319,185.314 Z" id="Path_1913" fill="#002F5F" fill-rule="nonzero"></path>
                <path d="M43.719,228.16801 C43.2441187,228.169911 42.8154385,227.883873 42.6349133,227.444639 C42.4543881,227.005405 42.558025,226.500584 42.897,226.168 L153.897,115.929 C154.19067,115.624734 154.62596,115.503139 155.0348,115.611163 C155.44364,115.719187 155.762056,116.039927 155.867104,116.449542 C155.972151,116.859157 155.847393,117.293551 155.541,117.585 L44.541,227.824 C44.3235366,228.04325 44.0278039,228.16801 43.719,228.16801 Z" id="Path_1914" fill="#002F5F" fill-rule="nonzero"></path>
                <path d="M396.488,252.496001 C396.016295,252.496001 395.591312,252.210963 395.411006,251.775078 C395.2307,251.339193 395.330532,250.837624 395.664,250.504 L484.615,161.553 C485.070635,161.097089 485.809589,161.096865 486.2655,161.5525 C486.721411,162.008135 486.721635,162.747089 486.266,163.203 L397.314,252.154 C397.095167,252.373404 396.797881,252.496001 396.488,252.496001 Z" id="Path_1915" fill="#002F5F" fill-rule="nonzero"></path>
                <path d="M283.969,199.275007 C283.491807,199.273858 283.063385,198.982303 282.887223,198.538815 C282.71106,198.095327 282.822654,197.589267 283.169,197.261 L385.805,99.947 C386.274606,99.5186096 387.000687,99.5448435 387.438153,100.006007 C387.875618,100.467171 387.863546,101.193626 387.411,101.64 L284.772,198.957 C284.555074,199.162143 284.267562,199.275007 283.969,199.275007 Z" id="Path_1916" fill="#002F5F" fill-rule="nonzero"></path>
                <path d="M139.518,216.004001 C139.03989,216.004001 138.610313,215.711842 138.433964,215.267443 C138.257615,214.823044 138.370172,214.316032 138.718,213.988 L259.6,99.948 C260.069442,99.5061723 260.808172,99.5285581 261.25,99.9980001 C261.691828,100.467442 261.669442,101.206172 261.2,101.648 L140.318,215.686 C140.101883,215.890516 139.815545,216.004001 139.518,216.004001 L139.518,216.004001 Z" id="Path_1917" fill="#002F5F" fill-rule="nonzero"></path>
                <path d="M459.759,100.797 C459.759,100.797 464.6,116.373 476.009,122.95 C487.418,129.527 491.568,152.717 493.297,161.371 C495.026,170.025 504.361,242.713 504.361,242.713" id="Path_1918" stroke="#03305E" stroke-width="2"></path>
            </g>
        </g>
    </g>
</svg>