<?xml version="1.0" encoding="UTF-8"?>
<svg width="40px" height="40px" viewBox="0 0 40 40" version="1.1" xmlns="http://www.w3.org/2000/svg" xmlns:xlink="http://www.w3.org/1999/xlink">
    <title>icon-harshcornering</title>
    <defs>
        <rect id="path-1" x="0" y="0" width="29.469" height="29.469"></rect>
    </defs>
    <g id="icon-harshcornering" stroke="none" stroke-width="1" fill="none" fill-rule="evenodd">
        <circle id="Oval" fill="#51A630" cx="20" cy="20" r="20"></circle>
        <g transform="translate(5.000000, 5.000000)">
            <mask id="mask-2" fill="white">
                <use xlink:href="#path-1"></use>
            </mask>
            <g id="Rectangle"></g>
            <g id="icon-cornering-nobg" mask="url(#mask-2)" fill="#FFFFFF" fill-rule="nonzero">
                <path d="M14.735,29.469 C6.60073964,29.4601818 0.00881823161,22.8682604 4.54747351e-13,14.734 C0.00936922137,6.60013017 6.60112955,0.00881719245 14.735,2.84217094e-14 C22.8688704,0.00881719245 29.4606308,6.60013017 29.47,14.734 C29.4611818,22.8682604 22.8692604,29.4601818 14.735,29.469 L14.735,29.469 Z M14.735,1.334 C7.33781118,1.34226656 1.34326656,7.33681118 1.335,14.734 C1.34326656,22.1311888 7.33781118,28.1257334 14.735,28.134 C18.9058149,28.1187919 22.8335818,26.1694995 25.368,22.857 L13.778,22.857 C13.6726656,22.8673448 13.5668277,22.8716852 13.461,22.87 C11.2128612,22.8277403 9.1107153,21.7478708 7.767,19.945 C5.825,17.49 4.987,13.329 8.337,8.916 L4.983,9.446 L4.775,8.129 L4.921,8.105 C8.431,7.549 9.786,7.34 9.786,7.34 L10.363,7.252 L11.889,12.47 L10.61,12.844 L9.616,9.444 C6.487,13.356 7.135,16.993 8.816,19.116 C9.91010929,20.5997049 11.6299729,21.4926897 13.473,21.534 C13.611,21.534 13.696,21.527 13.715,21.524 L26.27,21.524 C27.4892243,19.4690421 28.1343484,17.1244239 28.138,14.735 C28.1297314,7.33647901 22.1335221,1.34116449 14.735,1.334 Z" id="Path_716"></path>
            </g>
        </g>
    </g>
</svg>