<?xml version="1.0" encoding="UTF-8"?>
<svg width="40px" height="40px" viewBox="0 0 40 40" version="1.1" xmlns="http://www.w3.org/2000/svg" xmlns:xlink="http://www.w3.org/1999/xlink">
    <title>icon-speed</title>
    <defs>
        <rect id="path-1" x="0" y="0" width="29.775" height="29.775"></rect>
    </defs>
    <g id="icon-speed" stroke="none" stroke-width="1" fill="none" fill-rule="evenodd">
        <circle id="Oval" fill="#51A630" cx="20" cy="20" r="20"></circle>
        <g transform="translate(5.000000, 5.000000)">
            <mask id="mask-2" fill="white">
                <use xlink:href="#path-1"></use>
            </mask>
            <g id="Rectangle"></g>
            <g id="icon-speed-nobg" mask="url(#mask-2)" fill="#FFFFFF" fill-rule="nonzero">
                <path d="M14.887,29.775 C6.66810773,29.7678323 0.00716772284,23.1068923 0,14.888 C0.00716772284,6.66910773 6.66810773,0.00816772284 14.887,0.001 C23.1062828,0.00761643271 29.7678315,6.66871767 29.775,14.888 C29.7678315,23.1072823 23.1062828,29.7683836 14.887,29.775 L14.887,29.775 Z M14.887,1.305 C7.38958989,1.3149172 1.31436521,7.39058918 1.305,14.888 C1.31436521,22.3854108 7.38958989,28.4610828 14.887,28.471 C22.3848006,28.4616336 28.4606336,22.3858006 28.47,14.888 C28.4606336,7.39019936 22.3848006,1.31436641 14.887,1.305 Z" id="Path_717"></path>
                <path d="M14.887,0.158 C6.7562815,0.167368149 0.167368149,6.7562815 0.158,14.887 C0.167368149,23.0177185 6.7562815,29.6066319 14.887,29.616 C23.0177185,29.6066319 29.6066319,23.0177185 29.616,14.887 C29.6066319,6.7562815 23.0177185,0.167368149 14.887,0.158 L14.887,0.158 Z M14.887,28.628 C7.30171034,28.6191831 1.15481691,22.4722897 1.146,14.887 C1.154267,7.3014822 7.3014822,1.154267 14.887,1.146 C22.4725178,1.154267 28.619733,7.3014822 28.628,14.887 C28.619733,22.4725178 22.4725178,28.619733 14.887,28.628 Z" id="Path_718"></path>
                <polygon id="Path_719" points="15.521 21.669 7.687 21.669 7.687 20.562 16.629 20.562 16.629 23.201 21.277 18.61 16.629 14.363 16.629 16.924 11.394 16.924 11.394 15.817 15.522 15.817 15.522 11.853 22.884 18.579 15.522 25.851"></polygon>
                <polygon id="Path_720" points="15.678 15.975 11.551 15.975 11.551 16.766 16.469 16.766 16.469 14.005 21.505 18.605 16.469 23.579 16.469 20.72 7.844 20.72 7.844 21.511 15.678 21.511 15.678 25.473 22.653 18.584 15.678 12.212"></polygon>
                <rect id="Rectangle_142" x="9.465" y="17.67" width="4.024" height="1.107"></rect>
                <rect id="Rectangle_143" x="9.624" y="17.828" width="3.707" height="1"></rect>
                <rect id="Rectangle_144" x="6.944" y="17.744" width="1.577" height="1.107"></rect>
                <rect id="Rectangle_145" x="7.103" y="17.902" width="1.26" height="1"></rect>
                <rect id="Rectangle_146" x="4.942" y="17.744" width="1.577" height="1.107"></rect>
                <rect id="Rectangle_147" x="5.101" y="17.902" width="1.26" height="1"></rect>
                <rect id="Rectangle_148" x="4.201" y="9.366" width="1.577" height="1.107"></rect>
                <rect id="Rectangle_149" x="4.36" y="9.524" width="1.26" height="1"></rect>
                <rect id="Rectangle_150" x="4.942" y="20.562" width="1.577" height="1.107"></rect>
                <rect id="Rectangle_151" x="5.101" y="20.72" width="1.26" height="1"></rect>
                <polygon id="Path_721" points="22.563 15.663 20.808 15.663 20.808 14.558 23.67 14.558 23.67 16.129 26.107 13.836 23.67 11.352 23.67 12.775 18.065 12.775 18.065 11.668 22.565 11.668 22.565 8.642 27.691 13.869 22.565 18.693"></polygon>
                <polygon id="Path_722" points="22.722 9.026 22.722 11.826 18.222 11.826 18.222 12.617 23.511 12.617 23.511 10.965 26.333 13.841 23.511 16.496 23.511 14.717 20.965 14.717 20.965 15.508 22.72 15.508 22.72 18.326 27.461 13.863"></polygon>
                <polygon id="Path_723" points="11.962 12.402 9.169 12.402 9.169 11.295 13.069 11.295 13.069 12.653 16.011 9.913 12.921 6.926 12.921 8.473 7.686 8.473 7.686 7.366 11.813 7.366 11.813 4.316 17.62 9.929 11.961 15.196"></polygon>
                <polygon id="Path_724" points="12.762 6.552 16.24 9.915 12.91 13.015 12.91 11.452 9.327 11.452 9.327 12.243 12.119 12.243 12.119 14.832 17.389 9.926 11.971 4.688 11.971 7.523 7.844 7.523 7.844 8.314 12.762 8.314"></polygon>
                <rect id="Rectangle_152" x="6.203" y="9.366" width="3.356" height="1.107"></rect>
                <rect id="Rectangle_153" x="6.362" y="9.524" width="3.04" height="1"></rect>
            </g>
        </g>
    </g>
</svg>