<?xml version="1.0" encoding="UTF-8"?>
<svg width="40px" height="40px" viewBox="0 0 40 40" version="1.1" xmlns="http://www.w3.org/2000/svg" xmlns:xlink="http://www.w3.org/1999/xlink">
    <title>icon-accelerating</title>
    <defs>
        <rect id="path-1" x="0" y="0" width="29.41" height="29.41"></rect>
    </defs>
    <g id="icon-accelerating" stroke="none" stroke-width="1" fill="none" fill-rule="evenodd">
        <circle id="Oval" fill="#51A630" cx="20" cy="20" r="20"></circle>
        <g transform="translate(5.000000, 5.000000)">
            <mask id="mask-2" fill="white">
                <use xlink:href="#path-1"></use>
            </mask>
            <g id="Rectangle"></g>
            <g id="icon-accel-nobg" mask="url(#mask-2)" fill="#FFFFFF" fill-rule="nonzero">
                <path d="M14.705,29.41 C8.759405,29.41 3.39925157,25.82846 1.12397087,20.3354465 C-1.15130983,14.8424329 0.106359775,8.51970086 4.31053032,4.31553032 C8.51470086,0.111359775 14.8374329,-1.14630983 20.3304465,1.12897087 C25.82346,3.40425157 29.405,8.764405 29.405,14.71 C29.3934336,22.82379 22.81879,29.3984336 14.705,29.41 L14.705,29.41 Z M14.705,1.29 C7.29610008,1.29 1.29,7.29610008 1.29,14.705 C1.29,22.1138999 7.29610008,28.12 14.705,28.12 C22.1138999,28.12 28.12,22.1138999 28.12,14.705 C28.10953,7.30108906 22.1089137,1.30226205 14.705,1.294 L14.705,1.29 Z" id="Path_749"></path>
                <path d="M14.705,0.157 C6.67036146,0.157 0.157,6.67036146 0.157,14.705 C0.157,22.7396385 6.67036146,29.253 14.705,29.253 C22.7396385,29.253 29.253,22.7396385 29.253,14.705 C29.2436321,6.67424497 22.735755,0.166367892 14.705,0.157 L14.705,0.157 Z M14.705,28.277 C9.21554743,28.2774045 4.26639684,24.9709493 2.16539402,19.8994725 C0.0643912023,14.8279957 1.22530707,8.99027253 5.10679321,5.10850038 C8.98827934,1.22672822 14.825917,0.0653822161 19.8975485,2.16601134 C24.9691801,4.26664047 28.276,9.21554742 28.276,14.705 C28.2677343,22.1967918 22.1967912,28.2681822 14.705,28.277 L14.705,28.277 Z" id="Path_750"></path>
                <path d="M6.352,19.5960008 C6.10932054,19.596378 5.88703463,19.4603004 5.777,19.244 C5.05610692,17.8384329 4.68234798,16.2806468 4.6869571,14.701 C4.69581763,9.17173498 9.17773069,4.6925057 14.707,4.687 C15.8733176,4.68930674 17.0300698,4.89750182 18.124,5.302 L17.106,2.902 L18.077,2.49 L19.946,6.89 L15.421,8.433 L15.08,7.433 L17.734,6.528 C16.7662828,6.16208336 15.7405848,5.9734064 14.706,5.971 C9.8873909,5.97651077 5.98251077,9.8813909 5.977,14.7 C5.97270103,16.0758701 6.29811776,17.4327447 6.926,18.657 C7.02735166,18.8566175 7.01794517,19.0945131 6.90114866,19.285505 C6.78435214,19.4764969 6.57687223,19.5932654 6.353,19.594 L6.352,19.5960008 Z" id="Path_751"></path>
                <path d="M14.706,5.82 C15.9023973,5.82528612 17.0853952,6.07222588 18.184,6.546 L15.278,7.536 L15.519,8.236 L19.736,6.797 L19.509,6.26 C19.504,6.243 19.495,6.227 19.488,6.21 L17.995,2.694 L17.311,2.984 L18.411,5.576 C15.37321,4.3300785 11.914029,4.68226283 9.1896652,6.51483774 C6.46530143,8.34741265 4.83512068,11.4186465 4.84395101,14.702 C4.8390654,16.257005 5.20701557,17.7905308 5.917,19.174 C6.00046611,19.3373908 6.16852486,19.4400002 6.352,19.4400002 C6.42893902,19.4400002 6.50475283,19.4215238 6.573,19.386 C6.6883721,19.3273948 6.77567608,19.2252819 6.81563899,19.1022037 C6.85560191,18.9791254 6.8449375,18.8452027 6.786,18.73 C6.1470255,17.4837149 5.81578912,16.1025346 5.82,14.702 C5.82990983,9.7991565 9.80315253,5.82770234 14.706,5.82 Z" id="Path_752"></path>
                <path d="M14.705,19.1030776 C12.7461616,19.114576 11.0155692,17.8298116 10.4598031,15.951433 C9.90403705,14.0730544 10.6569567,12.0534799 12.3067384,10.9973538 C13.9565201,9.94122767 16.1058045,10.102924 17.579,11.394 L23.222,6.594 C23.3520911,6.48310278 23.5209866,6.42857214 23.6913658,6.44245767 C23.861745,6.4563432 24.0195821,6.53750183 24.13,6.668 C24.2411541,6.79797996 24.2958511,6.96693849 24.2819589,7.13739973 C24.2680667,7.30786097 24.1867337,7.46573336 24.056,7.576 L18.425,12.363 C19.278069,13.7172126 19.3273304,15.4281607 18.5535906,16.8292121 C17.7798507,18.2302636 16.3055055,19.0997899 14.705,19.099 L14.705,19.1030776 Z M14.705,11.597 C13.2219424,11.5975771 11.9457698,12.6455843 11.6567988,14.1002169 C11.3678277,15.5548495 12.1465217,17.0110676 13.5167478,17.5784658 C14.8869739,18.1458639 16.4671951,17.6664511 17.2911841,16.4333646 C18.1151731,15.2002781 17.9534916,13.5568687 16.905,12.508 C16.3232974,11.9217868 15.5308429,11.5932783 14.705,11.5959832 L14.705,11.597 Z" id="Path_753"></path>
                <path d="M23.323,6.717 L17.576,11.601 C15.873482,10.0301705 13.2245489,10.1195922 11.631841,11.8016606 C10.039133,13.483729 10.0943024,16.1335967 11.7556401,17.747917 C13.4169778,19.3622372 16.0673373,19.3413293 17.703,17.701 L17.703,17.701 C19.1345974,16.2646729 19.3503388,14.0163542 18.218,12.334 L23.954,7.458 C24.0930934,7.34711753 24.1608351,7.16933444 24.1307977,6.99400715 C24.1007603,6.81867987 23.9777025,6.67358488 23.8096316,6.61532638 C23.6415606,6.55706789 23.4551033,6.59487559 23.323,6.714 L23.323,6.717 Z M17.014,17.017 C16.0802618,17.9509029 14.675882,18.230348 13.4557644,17.7250218 C12.2356468,17.2196956 11.4400927,16.0291216 11.4400927,14.7085 C11.4400927,13.3878784 12.2356468,12.1973044 13.4557644,11.6919782 C14.675882,11.186652 16.0802618,11.4660971 17.014,12.4 C17.6298923,13.0094999 17.9764394,13.8400051 17.9764394,14.7065 C17.9764394,15.5729949 17.6298923,16.4035001 17.014,17.013 L17.014,17.017 Z" id="Path_754"></path>
            </g>
        </g>
    </g>
</svg>