<?xml version="1.0" encoding="UTF-8"?>
<svg width="40px" height="40px" viewBox="0 0 40 40" version="1.1" xmlns="http://www.w3.org/2000/svg" xmlns:xlink="http://www.w3.org/1999/xlink">
    <title>icon-braking</title>
    <defs>
        <rect id="path-1" x="0" y="0" width="30.531" height="28.274"></rect>
    </defs>
    <g id="icon-braking" stroke="none" stroke-width="1" fill="none" fill-rule="evenodd">
        <circle id="Oval" fill="#51A630" cx="20" cy="20" r="20"></circle>
        <g transform="translate(4.000000, 6.000000)">
            <mask id="mask-2" fill="white">
                <use xlink:href="#path-1"></use>
            </mask>
            <g id="Rectangle"></g>
            <g id="icon-braking-nobg" mask="url(#mask-2)" fill="#FFFFFF" fill-rule="nonzero">
                <path d="M16.394,28.274 C8.58635049,28.274 2.257,21.9446495 2.257,14.137 C2.257,6.32935049 8.58635049,0 16.394,0 C24.2016495,0 30.531,6.32935049 30.531,14.137 C30.5216327,21.9407662 24.1977662,28.2646327 16.394,28.274 Z M16.394,1.333 C9.3247552,1.333 3.594,7.0637552 3.594,14.133 C3.594,21.2022448 9.3247552,26.933 16.394,26.933 C23.4632448,26.933 29.194,21.2022448 29.194,14.133 C29.1840869,7.06770342 23.4592958,1.34246506 16.394,1.332 L16.394,1.333 Z" id="Path_815"></path>
                <path d="M16.394,0.198 C10.7559278,0.197595576 5.67282919,3.59368388 3.51513897,8.80254472 C1.35744876,14.0114056 2.5501302,20.0071389 6.53699232,23.993715 C10.5238544,27.980291 16.5196733,29.1725423 21.7283793,27.0144784 C26.9370854,24.8564144 30.3328089,19.7730722 30.3320001,14.135 C30.3220822,6.44152895 24.0874717,0.207365812 16.394,0.198 L16.394,0.198 Z M16.394,27.14 C9.21429825,27.14 3.394,21.3197017 3.394,14.14 C3.394,6.96029825 9.21429825,1.14 16.394,1.14 C23.5737017,1.14 29.394,6.96029825 29.394,14.14 C29.3840851,21.3155909 23.5695909,27.1300851 16.394,27.14 L16.394,27.14 Z" id="Path_816"></path>
                <path d="M2.664,23.099 C-0.887460691,17.6524608 -0.887460691,10.6225392 2.664,5.176 L2.772,5.01 L3.887,5.74 L3.779,5.906 C0.516794581,10.9092157 0.516794581,17.3667843 3.779,22.37 L3.887,22.535 L2.772,23.265 L2.664,23.099 Z" id="Path_817"></path>
                <path d="M3.613,5.797 L2.83,5.284 C-0.680622343,10.6639537 -0.680622343,17.6100463 2.83,22.99 L3.613,22.477 C0.307629075,17.4078907 0.307629075,10.8651093 3.613,5.796 L3.613,5.797 Z" id="Path_818"></path>
                <path d="M16.394,21.703 C12.2149915,21.703 8.82718414,18.3153418 8.82700007,14.1363333 C8.82681601,9.95732477 12.2143249,6.5693682 16.3933334,6.56900003 C20.5723419,6.56863186 23.9604477,9.95599152 23.961,14.135 C23.9565917,18.3124733 20.5714727,21.6980396 16.394,21.703 Z M16.394,7.903 C13.8720869,7.90300003 11.5985164,9.42221723 10.6335155,11.7521998 C9.66851459,14.0821824 10.202138,16.7640455 11.9855429,18.5471643 C13.7689478,20.3302832 16.4508964,20.8634764 18.7807242,19.8981018 C21.110552,18.9327272 22.6294045,16.6589131 22.6290001,14.137 C22.6256933,10.6947132 19.8362862,7.90485872 16.394,7.901 L16.394,7.903 Z" id="Path_819"></path>
                <path d="M16.394,6.76799993 C13.4133358,6.76759554 10.7259608,8.5628465 9.58512314,11.3165438 C8.44428547,14.0702411 9.07468228,17.2400219 11.1823302,19.3476698 C13.2899781,21.4553177 16.4597589,22.0857145 19.2134562,20.9448769 C21.9671535,19.8040392 23.7624045,17.1166642 23.7620001,14.136 C23.757041,10.0688218 20.4611782,6.77295897 16.394,6.76799993 Z M16.394,20.568 C12.8411522,20.568 9.961,17.6878478 9.961,14.135 C9.961,10.5821522 12.8411522,7.702 16.394,7.702 C19.9468478,7.702 22.827,10.5821522 22.827,14.135 C22.8231431,17.6864109 19.9454103,20.5645911 16.394,20.569 L16.394,20.568 Z" id="Path_820"></path>
                <path d="M16.394,17.321 C14.6349731,17.321 13.209,15.8950269 13.209,14.136 C13.209,12.3769731 14.6349731,10.951 16.394,10.951 C18.1530269,10.951 19.579,12.3769731 19.579,14.136 C19.5767962,15.8941133 18.1521133,17.3187962 16.394,17.321 L16.394,17.321 Z M16.394,12.283 C15.3706164,12.283 14.541,13.1126164 14.541,14.136 C14.541,15.1593836 15.3706164,15.989 16.394,15.989 C17.4173836,15.989 18.247,15.1593836 18.247,14.136 C18.2458977,13.1130733 17.4169267,12.2841023 16.394,12.283 L16.394,12.283 Z" id="Path_821"></path>
                <path d="M16.394,11.1499998 C15.1857804,11.1495955 14.0963049,11.8770982 13.633659,12.9932315 C13.171013,14.1093648 13.4263212,15.3942908 14.2805185,16.2487741 C15.1347158,17.1032575 16.4195561,17.3589959 17.5358443,16.8967237 C18.6521325,16.4344515 19.38,15.3452197 19.38,14.137 C19.3777979,12.4886287 18.0423704,11.1527541 16.394,11.1499998 Z M16.394,16.188 C15.261264,16.188 14.343,15.269736 14.343,14.137 C14.343,13.004264 15.261264,12.086 16.394,12.086 C17.526736,12.086 18.445,13.004264 18.445,14.137 C18.4438975,15.269279 17.526279,16.1868975 16.394,16.188 Z" id="Path_822"></path>
                <path d="M12.606,12.721 C11.9929639,12.721 11.496,12.2240361 11.496,11.611 C11.496,10.9979639 11.9929639,10.501 12.606,10.501 C13.2190361,10.501 13.716,10.9979639 13.716,11.611 C13.7148992,12.2235795 13.2185795,12.7198992 12.606,12.721 Z" id="Path_823"></path>
                <circle id="Ellipse_86" cx="12.605" cy="11.611" r="1"></circle>
                <path d="M17.726,10.686 C17.1130944,10.6854478 16.6166322,10.1882397 16.617,9.57533393 C16.6173682,8.9624282 17.1144272,8.46581661 17.727333,8.46600045 C18.3402388,8.46618439 18.837,8.96309416 18.837,9.576 C18.8364481,10.1891978 18.339198,10.686 17.726,10.686 Z" id="Path_824"></path>
                <circle id="Ellipse_87" cx="17.727" cy="9.576" r="1"></circle>
                <path d="M21.165,15.2470005 C20.7155517,15.2474045 20.3101339,14.9769747 20.1378571,14.5618547 C19.9655803,14.1467346 20.0603858,13.6687098 20.3780507,13.3507586 C20.6957157,13.0328075 21.173655,12.9375716 21.58893,13.1094745 C22.004205,13.2813774 22.275,13.6865515 22.275,14.136 C22.2744498,14.74897 21.7779693,15.2458978 21.165,15.2470005 L21.165,15.2470005 Z" id="Path_825"></path>
                <circle id="Ellipse_88" cx="21.165" cy="14.137" r="1"></circle>
                <path d="M18.218,19.7380005 C17.7685517,19.7384045 17.3631339,19.4679747 17.1908571,19.0528547 C17.0185803,18.6377346 17.1133858,18.1597098 17.4310507,17.8417586 C17.7487157,17.5238075 18.226655,17.4285716 18.64193,17.6004745 C19.057205,17.7723774 19.328,18.1775515 19.328,18.627 C19.3269012,19.2397425 18.8307413,19.7363494 18.218,19.7380005 Z" id="Path_826"></path>
                <circle id="Ellipse_89" cx="18.218" cy="18.627" r="1"></circle>
                <path d="M12.606,17.9840005 C12.1565517,17.9844045 11.7511339,17.7139747 11.5788571,17.2988547 C11.4065803,16.8837346 11.5013858,16.4057098 11.8190507,16.0877586 C12.1367157,15.7698075 12.614655,15.6745716 13.02993,15.8464745 C13.445205,16.0183774 13.716,16.4235515 13.716,16.873 C13.7149012,17.4857425 13.2187413,17.9823494 12.606,17.9840005 Z" id="Path_827"></path>
                <circle id="Ellipse_90" cx="12.605" cy="16.872" r="1"></circle>
            </g>
        </g>
    </g>
</svg>