<?xml version="1.0" encoding="utf-8"?>
<!-- Generator: Adobe Illustrator 21.1.0, SVG Export Plug-In . SVG Version: 6.00 Build 0)  -->
<svg version="1.2" baseProfile="tiny" id="YDG_LOGO-white4_xA0_Image_1_"
	 xmlns="http://www.w3.org/2000/svg" xmlns:xlink="http://www.w3.org/1999/xlink" x="0px" y="0px" viewBox="0 0 468 234"
	 xml:space="preserve">
<g>
	<path fill="#ED7626" d="M43.2,76.1H12.7c-0.6,0-1.1,0.3-1.5,0.9s-0.6,1.3-0.6,2.1v71c0,0.8,0.2,1.5,0.6,2.1
		c0.4,0.6,0.9,0.9,1.5,0.9h30.8c8.2,0,14.8-3.6,20-10.8c5.2-7.3,7.8-16.5,7.8-27.6c0-11.4-2.6-20.7-7.8-27.7
		C58.4,79.7,51.6,76.1,43.2,76.1z M49.7,125.9c-1.7,2.5-4.3,3.8-7.6,3.8H30.4V99.4h12.3c3.2,0,5.6,1.3,7.2,3.8
		c1.6,2.5,2.5,6.3,2.5,11.4C52.3,119.6,51.5,123.3,49.7,125.9z"/>
	<path fill="#ED7626" d="M143.7,147.6l-9.3-21.8c-0.7-1.3-1.6-2.6-2.6-3.9s-2.3-2.5-3.8-3.6c1.3-0.6,2.4-1.3,3.5-2
		c1-0.8,2-1.6,2.8-2.4c3.2-3.3,4.8-8.7,4.8-16.2c0-6.6-2-11.9-5.9-16c-3.6-3.7-8.5-5.6-14.5-5.6H83.5c-0.6,0-1.1,0.3-1.5,0.9
		s-0.6,1.3-0.6,2.1v71c0,0.8,0.2,1.5,0.6,2.1s0.9,0.9,1.5,0.9H99c0.6,0,1.1-0.3,1.5-0.9c0.4-0.6,0.6-1.3,0.6-2.1v-24.2h6.8
		c2.5,0,4,0.2,4.3,0.6c0.2,0.2,0.5,0.5,0.7,0.8s0.4,0.7,0.6,1l-0.1-0.2l9,23.3c0.2,0.5,0.5,0.8,0.8,1.2c0.4,0.3,0.7,0.5,1.1,0.5
		h15.5c0.3-0.5,0.6-0.9,0.9-1.3C140.8,151.7,141.8,149.9,143.7,147.6z M117,106.6c-1.8,1.1-4.4,1.7-7.8,1.7h-8.4V93.7h10.9
		c2.6,0,4.5,0.6,5.9,1.7s2,2.9,2,5.3C119.7,103.5,118.8,105.5,117,106.6z"/>
	<path fill="#ED7626" d="M169.3,76.1h-13c-0.5,0-0.9,0.3-1.3,0.9c-0.4,0.6-0.5,1.3-0.5,2.1v59.5c3.4-1.8,7.4-3,11.9-2.9
		c1.9,0,3.4,0.2,4.8,0.4v-57c0-0.8-0.2-1.5-0.5-2.1C170.2,76.4,169.8,76.1,169.3,76.1z"/>
	<path fill="#ED7626" d="M243.4,76h-15.3c-0.4,0-0.8,0.2-1.2,0.5c-0.4,0.4-0.7,0.8-0.8,1.2l-12.2,38l-12.7-38
		c-0.2-0.5-0.5-0.9-0.8-1.3c-0.4-0.3-0.7-0.5-1.1-0.5h-15.9c-0.8,0-1.5,0.4-1.9,1.3c-0.4,0.8-0.4,1.8-0.1,2.9l25.3,72.1
		c0.1,0.5,0.4,0.9,0.8,1.2c0.4,0.4,0.8,0.5,1.1,0.5h9.2c0.3,0,0.7-0.2,1.1-0.5c0.4-0.3,0.7-0.7,0.9-1.2l25.5-72.1
		c0.4-1.1,0.4-2.1,0-3C244.9,76.5,244.2,76,243.4,76z"/>
	<path fill="#ED7626" d="M298.6,132.7h-25.4v-8.2l20.1-0.1c0.6,0,1.1-0.3,1.5-0.9s0.6-1.3,0.6-2.2v-14.1c0-0.8-0.2-1.5-0.6-2.1
		s-0.9-0.9-1.5-0.9h-20.1v-7.8h23.5c0.6,0,1-0.3,1.5-0.9c0.4-0.6,0.6-1.3,0.6-2.2V79.1c0-0.8-0.2-1.5-0.6-2.1s-0.9-0.9-1.5-0.9
		h-40.8c-0.6,0-1,0.3-1.5,0.9c-0.4,0.6-0.6,1.3-0.6,2.1v71c0,0.8,0.2,1.5,0.6,2.1c0.4,0.6,0.9,0.9,1.5,0.9h3.7
		c1.6-5.2,4.2-11.1,8-14.3c6.3-5.2,16.9-3,20.2,2.5c2.1,3.5,2.3,7.5,2,11.8h9c0.6,0,1.1-0.3,1.5-0.9c0.4-0.6,0.6-1.3,0.6-2.1v-14.3
		c0-0.8-0.2-1.6-0.6-2.2C299.7,133,299.2,132.7,298.6,132.7z"/>
	<path fill="#ED7626" d="M363.8,125.8c-0.7-1.3-1.6-2.6-2.6-3.9s-2.3-2.5-3.8-3.6c1.3-0.6,2.4-1.3,3.5-2c1.1-0.8,2-1.6,2.8-2.4
		c3.2-3.3,4.8-8.7,4.8-16.2c0-6.6-2-11.9-5.9-16c-3.6-3.7-8.5-5.6-14.5-5.6H313c-0.6,0-1,0.3-1.5,0.9c-0.4,0.6-0.6,1.3-0.6,2.1v71
		c0,0.8,0.2,1.5,0.6,2.1s0.9,0.9,1.5,0.9h15.5c0.6,0,1.1-0.3,1.5-0.9c0.4-0.6,0.6-1.3,0.6-2.1v-24.2h6.8c2.5,0,4,0.2,4.3,0.6
		c0.2,0.2,0.5,0.5,0.7,0.8s0.4,0.7,0.6,1l-0.1-0.2l9,23.3c0.2,0.5,0.5,0.8,0.8,1.2c0.4,0.3,0.7,0.5,1.1,0.5h17.8
		c0.9,0,1.5-0.5,1.9-1.4s0.4-2-0.1-3.1L363.8,125.8z M346.3,106.6c-1.8,1.1-4.4,1.7-7.8,1.7h-8.4V93.7H341c2.6,0,4.5,0.6,5.9,1.7
		s2,2.9,2,5.3C349,103.5,348.1,105.5,346.3,106.6z"/>
	<path fill="#ED7626" d="M394,74.1h-8.5c-0.5,0-0.9,0.3-1.2,0.8c-0.3,0.6-0.5,1.2-0.5,1.9v13.8c0,0.7,0.2,1.3,0.5,1.9
		c0.3,0.5,0.7,0.8,1.2,0.8h1.8l-2.1,8.5c-0.2,0.9-0.2,1.7,0.1,2.5c0.3,0.8,0.8,1.1,1.5,1.1h4.3c0.3,0,0.6-0.2,0.9-0.5
		s0.5-0.7,0.6-1.2l3.1-12.6V76.8c0-0.7-0.2-1.4-0.5-1.9C394.9,74.3,394.5,74.1,394,74.1z"/>
	<path fill="#ED7626" d="M449.1,112c-2.8-3.9-8-6.9-15.5-9c-2.1-0.5-3.9-1.1-5.5-1.7c-1.5-0.6-2.8-1.2-3.9-1.7
		c-1.2-0.6-1.8-1.4-1.8-2.4c0-1.1,0.6-1.9,1.7-2.4s2.8-0.7,4.9-0.7c2.8,0,5.9,0.7,9.3,2.1c1.7,0.7,3.4,1.5,5,2.4
		c1.6,0.8,3.1,1.8,4.6,2.7c0.8,0.6,1.5,0.5,2.2-0.1c0.7-0.7,0.9-1.6,0.8-2.9L449.4,81c0-0.5-0.2-1-0.5-1.6c-0.3-0.5-0.6-0.8-1-1
		c-0.9-0.4-2-0.8-3.3-1.2c-1.3-0.4-2.9-0.8-4.7-1.3c-3.7-0.9-7.2-1.4-10.4-1.4c-7.5,0-13.3,2.1-17.5,6.4c-4.2,4.2-6.3,10.5-6.3,18.7
		c0,7.1,1.7,12.5,5.1,16.5c3.1,3.7,8.7,6.6,16.8,8.9c4.3,1.2,7,2.3,8.3,3.3c0.7,0.7,1.1,1.4,1.1,2.2c0,1.4-0.6,2.4-1.9,3.1
		c-1.3,0.7-3,1.1-5.1,1.1c-3.4,0-7.2-1-11.4-2.9c-4.1-2-7.2-3.8-9.5-5.4c-0.8-0.5-1.5-0.5-2.2,0.1s-0.9,1.6-0.8,2.8l1.1,18.6
		c0,0.6,0.2,1.1,0.6,1.7c0.3,0.5,0.7,0.8,1.1,1c0.5,0.1,1.2,0.3,2.2,0.6s2.1,0.6,3.5,0.9V152c0.4,0.1,0.7,0.2,1.1,0.3
		c0.3,0.1,0.8,0.2,1.2,0.3c2,0.5,4,0.8,6.1,1c2,0.2,4.1,0.3,6.1,0.3c3.8,0,7.3-0.6,10.3-1.7c3.1-1.1,5.6-2.8,7.8-5
		c2.1-2.2,3.8-4.9,4.9-8.1c1.1-3.2,1.7-7,1.7-11.2C453.8,121.5,452.2,116.2,449.1,112z"/>
</g>
<g>
	<path fill="#ED7626" d="M164.5,24.6c0.6,0,1,0.3,1.2,0.8c0.2,0.6,0.2,1.1-0.2,1.6l-14.3,20.7v14c0,0.4-0.1,0.7-0.4,1
		c-0.2,0.3-0.5,0.4-0.9,0.4h-9.2c-0.3,0-0.6-0.1-0.9-0.4c-0.2-0.3-0.4-0.6-0.4-1v-14L125.1,27c-0.4-0.5-0.5-1.1-0.2-1.6
		c0.2-0.6,0.6-0.8,1.2-0.8h10.6c0.1,0,0.3,0.1,0.5,0.2s0.4,0.2,0.5,0.4l8.3,12.3l7.6-12.3c0.1-0.2,0.2-0.3,0.5-0.4
		c0.2-0.1,0.4-0.2,0.6-0.2H164.5z"/>
	<path fill="#ED7626" d="M204.7,58.9c-3.3,3.3-8.1,4.9-14.4,4.9c-6.3,0-11.1-1.6-14.4-4.9c-3.3-3.3-4.9-8.3-4.9-15s1.6-11.7,4.9-15
		s8-4.9,14.4-4.9c6.3,0,11.1,1.6,14.4,4.9c3.3,3.3,4.9,8.3,4.9,15C209.6,50.6,208,55.6,204.7,58.9z M196.2,37.5
		c-1.4-1.4-3.3-2.1-5.9-2.1c-2.6,0-4.5,0.7-5.9,2.1c-1.3,1.4-2,3.6-2,6.4c0,2.8,0.7,4.9,2,6.4c1.3,1.4,3.3,2.1,5.9,2.1
		c2.6,0,4.5-0.7,5.9-2.1s2-3.5,2-6.4C198.3,41,197.6,38.9,196.2,37.5z"/>
	<path fill="#ED7626" d="M241.9,26c0-0.4,0.1-0.7,0.4-1s0.5-0.4,0.9-0.4h8.4c0.3,0,0.6,0.1,0.9,0.4s0.4,0.6,0.4,1v25
		c0,4.8-1.5,8.1-4.6,10.1c-2.8,1.8-6.8,2.7-12.1,2.7c-5.5,0-9.5-0.9-12.2-2.7c-2.9-2-4.4-5.5-4.4-10.6V26c0-0.4,0.1-0.7,0.4-1
		s0.5-0.4,0.9-0.4h8.4c0.4,0,0.7,0.1,0.9,0.4s0.4,0.6,0.4,1v20.3c0,2.3,0.4,3.9,1.3,4.8c0.9,1,2.4,1.4,4.4,1.4s3.4-0.5,4.3-1.5
		c0.9-1,1.3-2.6,1.3-4.9L241.9,26L241.9,26z"/>
	<path fill="#ED7626" d="M283.5,40.3c0.8,1.3,1.5,2.6,2.3,3.9V26.1c0-0.4,0.1-0.7,0.4-1c0.2-0.3,0.5-0.4,0.9-0.4h8
		c0.4,0,0.7,0.1,0.9,0.4c0.2,0.3,0.4,0.6,0.4,1v35.6c0,0.4-0.1,0.7-0.4,1c-0.2,0.3-0.5,0.4-0.9,0.4H286c-0.1,0-0.3-0.1-0.5-0.2
		c-0.2-0.1-0.4-0.3-0.5-0.4l-11.6-18.7v17.8c0,0.4-0.1,0.7-0.4,1c-0.2,0.3-0.5,0.4-0.9,0.4h-8c-0.3,0-0.6-0.1-0.9-0.4
		c-0.2-0.3-0.4-0.6-0.4-1V26.1c0-0.4,0.1-0.7,0.4-1c0.2-0.3,0.5-0.4,0.9-0.4h9.1c0.2,0,0.4,0.1,0.6,0.2s0.4,0.3,0.4,0.4
		c1.2,2,2.4,3.9,3.5,5.7c1.1,1.9,2.3,3.7,3.5,5.6C282,37.8,282.8,39.1,283.5,40.3z"/>
	<path fill="#ED7626" d="M320.3,51.3c1.7,1.8,4.2,2.7,7.3,2.7c2.5,0,4.3-0.3,5.6-0.9v-2.5h-4.3c-0.4,0-0.7-0.1-0.9-0.4
		s-0.4-0.7-0.4-1.1v-6.5c0-0.4,0.1-0.8,0.4-1.1c0.2-0.3,0.5-0.4,0.9-0.4H342c0.4,0,0.7,0.1,0.9,0.4c0.2,0.3,0.4,0.6,0.4,1.1v17.3
		c0,0.3-0.1,0.6-0.3,0.9c-0.2,0.3-0.4,0.5-0.6,0.6c-2,0.8-4.3,1.4-6.8,1.8c-2.6,0.5-5.3,0.7-8.3,0.7c-6.8,0-11.9-1.6-15.5-4.7
		c-3.6-3.1-5.4-8-5.4-14.5c0-6.4,1.8-11.5,5.5-15.2s8.5-5.5,14.5-5.5c2.9,0,5.5,0.2,7.8,0.7c2.3,0.4,4.2,0.9,5.6,1.5
		c0.2,0.1,0.4,0.2,0.6,0.5c0.2,0.2,0.3,0.5,0.3,0.8l0.7,6.8c0.1,0.6-0.1,1-0.4,1.4s-0.7,0.4-1.2,0.3c-1.5-0.5-3.3-1-5.3-1.5
		c-1-0.2-2-0.4-3.1-0.5c-1-0.1-2.1-0.2-3.1-0.2c-3.2,0-5.8,1-7.8,3c-1.9,2-2.8,4.6-2.8,7.8C317.8,47.2,318.6,49.6,320.3,51.3z"/>
</g>
<g>
	<g>
		<path fill="#ED7626" d="M154,187.7c3.7-4.1,9.1-6,16-5.8c1.5,0.1,4.2,0.3,8.1,0.7c3.2,0.4,5.6,0.6,7.3,0.5c0.7,0,1.4,0.2,2,0.8
			c0.6,0.5,0.9,1.1,0.9,1.8s-0.2,1.4-0.8,2c-0.5,0.6-1.1,0.9-1.9,0.9c-1.9,0.1-4.2-0.1-7.1-0.4c-3.9,8-8,13.6-12.4,16.9
			c-3.8,2.8-7.9,3.9-12.4,3.4c-7.1-0.9-12-4.3-14.5-10.4c-1.9-4.5-2.4-10.1-1.5-17c0.4-3.3,1.4-7.1,3-11.5c1.5-4.3,3.4-8.5,5.7-12.4
			c6.1-10.3,12.9-15.4,20.2-15.2c2.5,0.1,4.5,0.9,6.2,2.5s2.9,3.5,3.6,5.7c0.5,1.3,0.8,2.8,1.1,4.5c0.3,1.6,0.4,3.1,0.4,4.5
			s0.1,2.9,0.1,4.4v3.9c0,0.7-0.2,1.4-0.8,2c-0.5,0.6-1.1,0.8-1.9,0.8c-0.7,0-1.4-0.2-2-0.8c-0.6-0.5-0.8-1.1-0.8-1.8
			c0-1.4,0-2.8-0.1-4.3c0-1.5,0-2.8,0-4s-0.1-2.5-0.3-3.8s-0.5-2.5-0.8-3.5c-1.1-3-2.8-4.5-5.1-4.6c-2.6-0.1-5.2,1-7.9,3.2
			c-2.6,2.2-5.1,5.3-7.5,9.4c-2.1,3.5-3.8,7.3-5.3,11.4c-1.4,4.1-2.3,7.5-2.6,10.3c-0.7,6-0.4,10.8,1.1,14.3
			c1.7,4.1,5.1,6.5,10.1,7.1c3.1,0.4,5.9-0.4,8.6-2.4c3.5-2.5,6.8-6.9,9.9-13.1c-1.1-0.1-2.1-0.2-3-0.2c-5.3-0.2-9.2,1.1-11.8,4
			c-0.5,0.5-1.2,0.8-1.9,0.9c-0.7,0.1-1.4-0.2-1.9-0.7s-0.8-1.2-0.9-1.9C153.2,188.9,153.5,188.3,154,187.7z"/>
		<path fill="#ED7626" d="M155.7,210.1c-0.7,0-1.5,0-2.2-0.1c-7.8-1-13-4.8-15.7-11.3c-2-4.8-2.5-10.6-1.6-17.8
			c0.4-3.4,1.4-7.3,3.1-11.8c1.6-4.5,3.5-8.8,5.8-12.6c6.4-10.8,13.6-16.2,21.5-15.9c2.9,0.1,5.2,1.1,7.2,2.9c1.9,1.8,3.2,3.9,4,6.3
			c0.5,1.4,0.9,3.1,1.1,4.7c0.3,1.5,0.4,3.1,0.4,4.8c0,0.7,0,1.4,0,2.1c0,0.8,0.1,1.5,0.1,2.3v3.9c0,1.2-0.4,2.2-1.2,3
			c-0.7,0.9-1.7,1.3-3,1.3c-1.2,0-2.2-0.4-3-1.2c-0.9-0.7-1.3-1.7-1.3-2.9c0-1.4,0-2.8-0.1-4.2l0-4.1c0-1.1-0.1-2.4-0.3-3.6
			c-0.2-1.1-0.4-2.2-0.8-3.3c-1.1-3.1-2.7-3.5-3.7-3.5c-2.2-0.1-4.4,0.9-6.9,2.9c-2.5,2.1-4.9,5.1-7.2,9c-1.9,3.2-3.6,6.8-5.2,11.2
			c-1.4,4.2-2.2,7.4-2.5,9.9c-0.7,5.9-0.4,10.4,1,13.5c1.5,3.6,4.4,5.7,8.9,6.2c2.7,0.4,5.1-0.3,7.5-2.1c2.9-2.1,5.7-5.6,8.4-10.6
			c-0.2,0-0.4,0-0.6,0c-4.9-0.2-8.4,1-10.7,3.5c-0.8,0.8-1.7,1.2-2.8,1.4c-1.1,0.2-2.3-0.3-3.2-1.1c-0.7-0.7-1.2-1.7-1.3-2.7l0-0.2
			l0-0.2c0.1-1.1,0.5-2,1.2-2.9l0,0c4-4.4,9.7-6.5,17.2-6.3c2.5,0.2,5.2,0.4,8.2,0.7c3.4,0.4,5.6,0.6,7.1,0.5c0,0,0,0,0,0
			c1.3,0,2.3,0.4,3.1,1.2c0.9,0.8,1.4,1.8,1.4,2.9c0,1.2-0.4,2.2-1.2,3c-0.8,0.9-1.8,1.4-3,1.4c-1.8,0.1-3.9-0.1-6.2-0.3
			c-3.9,7.8-8,13.2-12.4,16.5C163.6,208.8,159.8,210.1,155.7,210.1z M166.2,143.5c-6.6,0-12.8,4.9-18.5,14.5
			c-2.2,3.7-4.1,7.8-5.6,12.1c-1.6,4.4-2.5,8-2.9,11.2c-0.9,6.7-0.4,12,1.4,16.2c2.3,5.5,6.6,8.6,13.3,9.5c4.1,0.5,7.8-0.6,11.3-3.1
			c4.2-3.1,8.2-8.6,11.9-16.3l0.5-0.9l1,0.1c2.6,0.3,5,0.5,6.9,0.4c0.4,0,0.6-0.1,0.8-0.4l0.1-0.1c0.3-0.3,0.4-0.5,0.4-0.9
			c0-0.2,0-0.4-0.4-0.6l-0.1-0.1c-0.3-0.3-0.5-0.4-0.9-0.4c-1.6,0.1-3.8-0.1-7.5-0.5c-2.9-0.3-5.6-0.5-8-0.7
			c-6.4-0.2-11.4,1.6-14.8,5.3c-0.3,0.4-0.4,0.7-0.5,1.1c0.1,0.4,0.2,0.7,0.4,0.9c0.2,0.2,0.4,0.3,0.6,0.3c0.4-0.1,0.8-0.2,1.1-0.5
			c2.9-3.2,7.1-4.7,12.9-4.4c0.8,0,1.8,0.1,2.8,0.2l2.5,0.2l-1,2c-3.2,6.4-6.7,11-10.4,13.6c-3,2.2-6.2,3.1-9.7,2.7
			c-5.5-0.7-9.4-3.4-11.3-8c-1.6-3.6-2-8.6-1.2-15c0.3-2.8,1.1-6.1,2.7-10.6c1.7-4.5,3.4-8.4,5.4-11.7c2.4-4.1,5.1-7.4,7.8-9.8
			c3.1-2.5,6-3.7,8.9-3.6c3,0.1,5.1,2,6.5,5.6c0.4,1.3,0.7,2.6,0.9,3.8c0.2,1.4,0.3,2.7,0.3,4v4c0.1,1.5,0.1,2.9,0.1,4.3
			c0,0.4,0.1,0.5,0.3,0.6l0.1,0.1c0.3,0.3,0.5,0.4,0.9,0.4c0.5,0,0.6-0.1,0.7-0.3l0.1-0.1c0.3-0.3,0.4-0.5,0.4-0.9v-3.9
			c0-0.7,0-1.5-0.1-2.2c0-0.7,0-1.5,0-2.2c0-1.5-0.1-2.9-0.4-4.2c-0.3-1.5-0.6-3-1-4.2c-0.6-2-1.7-3.7-3.2-5.1
			c-1.4-1.3-3.1-2-5.2-2.1C166.4,143.5,166.3,143.5,166.2,143.5z"/>
	</g>
	<g>
		<path fill="#ED7626" d="M199.1,178.3c-1.4,5.5-2.1,11.1-2.2,16.8c0,3.7,0.4,6.4,1.2,8.1c0.6,1.3,1.5,1.9,2.8,1.7
			c2.3-0.3,4.3-2.6,6.2-6.7c1.3-2.9,2.4-6.6,3.4-11.2c0-0.2,0.4-2.3,1.1-6.3c0.2-1.3,0.4-2.1,0.5-2.5c0-0.3,0-0.5,0.1-0.6
			c0.1-0.3,0.3-0.6,0.6-0.9c0.5-0.6,1.2-0.9,2.1-0.9c1,0.1,1.8,0.5,2.3,1.4l0.3,1.1v0.2v0.2v0.6c-0.1,0.7-0.3,2.5-0.8,5.6
			c-0.6,3.3-1,5.9-1.2,8c-0.3,3.2-0.4,5.7-0.2,7.6c0.1,2,0.5,3.3,1,3.8c1.3,1.2,2.5,1.5,3.6,0.9c1.3-0.7,2.7-2.3,4.2-4.8
			c1.3-2.2,2.4-4.8,3.3-7.6c1-2.9,1.6-5.2,1.9-7c0.1-0.7,0.5-1.3,1.1-1.8c0.6-0.4,1.3-0.6,2-0.5s1.3,0.5,1.8,1
			c0.4,0.6,0.6,1.3,0.5,2c-0.3,2.1-1,4.7-2.1,7.9s-2.3,6.1-3.8,8.6c-2,3.5-4.2,5.8-6.5,7c-3.3,1.7-6.5,1.1-9.6-1.8
			c-1.1-1.1-1.9-2.6-2.4-4.5c-2.4,3.7-5.3,5.9-8.6,6.5c-3.9,0.7-6.8-0.9-8.5-4.8c-1.1-2.5-1.7-6-1.7-10.5c0.1-6.1,0.9-12.2,2.4-18.1
			c0.2-0.7,0.6-1.3,1.2-1.6c0.6-0.4,1.3-0.5,2-0.2c0.7,0.2,1.3,0.6,1.7,1.2C199.2,176.9,199.3,177.6,199.1,178.3z"/>
		<path fill="#ED7626" d="M218.7,212.4c-2.1,0-4.5-0.8-7-3.1c-0.7-0.7-1.3-1.5-1.8-2.5c-2.3,2.7-4.9,4.3-7.9,4.9
			c-4.6,0.8-8.2-1.2-10.1-5.7c-1.2-2.8-1.8-6.5-1.8-11.1c0.1-6.3,0.9-12.5,2.4-18.5c0.3-1.2,1-2,1.9-2.5c1-0.6,2.2-0.7,3.3-0.3
			c1,0.3,1.9,0.9,2.4,1.8l0.1,0.1c0.6,1,0.7,2.2,0.4,3.2c-1.3,5.2-2,10.7-2.1,16.4c0,3.4,0.4,5.9,1.1,7.4c0.5,1,0.9,0.9,1.2,0.9
			c1.7-0.2,3.4-2.2,5.1-5.8c1.2-2.7,2.3-6.2,3.3-10.8c0-0.3,0.1-0.8,0.4-2.4c0.2-1,0.4-2.3,0.7-3.9c0.2-1.2,0.4-2,0.5-2.4
			c0-0.3,0-0.7,0.3-1.1c0.2-0.4,0.5-0.8,0.8-1.2c0.8-0.9,1.9-1.4,3.2-1.4l0.1,0c1.6,0.2,2.8,0.9,3.5,2.2l0.1,0.3l0.4,1.3l0,1.4
			l-0.1,0.7c-0.1,1-0.3,2.6-0.7,5c-0.6,3.4-1,5.9-1.2,7.9c-0.3,3.3-0.4,5.6-0.2,7.3c0.1,1.9,0.5,2.8,0.6,2.9c1.1,1,1.6,0.7,1.8,0.6
			c0.7-0.4,1.9-1.4,3.6-4.3c1.2-2,2.2-4.5,3.2-7.3c0.9-2.7,1.5-5,1.8-6.8c0.1-1,0.7-1.9,1.6-2.7l0.1-0.1c0.9-0.6,2-0.9,3-0.7
			c0.9,0.1,1.8,0.6,2.6,1.4l0.2,0.2c0.6,0.9,0.9,2,0.7,3c-0.3,2.2-1,4.8-2.2,8.2c-1.3,3.7-2.5,6.5-3.9,8.9c-2.1,3.6-4.5,6.2-7.1,7.6
			C221.8,211.9,220.3,212.4,218.7,212.4z M210.9,200l0.9,3.3c0.4,1.6,1.1,2.9,2,3.8c2.6,2.4,5.1,2.9,7.9,1.5
			c2.1-1.1,4.1-3.3,5.9-6.4c1.3-2.2,2.5-4.8,3.7-8.3c1.1-3.2,1.8-5.7,2-7.6c0-0.3-0.1-0.6-0.2-0.8c-0.3-0.3-0.6-0.4-0.8-0.5
			c-0.3-0.1-0.7,0.1-0.9,0.2c-0.3,0.3-0.5,0.5-0.5,0.8c-0.3,2-1,4.5-2,7.3c-1,3-2.1,5.7-3.4,7.9c-1.7,2.8-3.2,4.5-4.8,5.4
			c-1,0.5-2.9,1.1-5.3-1.1c-0.9-0.9-1.4-2.5-1.5-4.8c-0.2-1.8-0.1-4.2,0.2-7.8c0.2-2.1,0.6-4.6,1.2-8.1c0.4-2.3,0.6-3.9,0.7-4.8
			c0-0.2,0.1-0.4,0.1-0.6v-0.7l-0.2-0.7c-0.2-0.3-0.4-0.4-1-0.5c-0.5,0-0.7,0.2-0.9,0.4l-0.1,0.1c-0.2,0.2-0.2,0.3-0.2,0.3l0,0.1
			c0,0,0,0,0,0.1l0,0.4c-0.1,0.4-0.3,1.1-0.5,2.4c-0.3,1.6-0.5,2.9-0.7,3.9c-0.2,1.1-0.4,2-0.4,2.2l0,0.2c-1,4.8-2.2,8.6-3.5,11.5
			c-2.2,4.8-4.6,7.2-7.4,7.6c-1.1,0.2-3.1,0.1-4.4-2.6c-0.9-1.9-1.3-4.8-1.3-8.7c0.1-6,0.9-11.7,2.2-17.2l0,0
			c0.1-0.2,0.1-0.5-0.1-0.9c-0.2-0.3-0.5-0.4-0.8-0.5l-0.2-0.1c-0.1-0.1-0.3-0.1-0.6,0.1l-0.2,0.1c-0.2,0.1-0.3,0.3-0.4,0.7
			c-1.5,5.7-2.2,11.7-2.3,17.7c0,4.2,0.5,7.5,1.6,9.9c1.4,3.3,3.6,4.5,6.9,3.9c2.9-0.5,5.4-2.5,7.6-5.8L210.9,200z"/>
	</g>
	<g>
		<path fill="#ED7626" d="M238.6,178.3c-0.1,0.5-0.4,2.6-1,6.2c-0.6,3.3-1,6.3-1.3,8.8c-0.4,3.3-0.6,6-0.5,7.9
			c0.1,2.1,0.4,3.4,0.8,3.9c0.4,0.5,0.7,0.7,1,0.8c0.2,0,0.5-0.1,0.9-0.4c1.3-0.9,2.7-2.9,4.3-6c1.5-3,3.5-8,5.9-14.9
			c0.3-0.7,0.7-1.2,1.4-1.5s1.3-0.4,2-0.2s1.2,0.7,1.5,1.4s0.4,1.4,0.2,2.1c-2.5,7.2-4.6,12.4-6.3,15.6c-2,3.8-4,6.4-5.9,7.8
			c-1.5,1.1-3.1,1.6-4.6,1.4c-1.7-0.1-3.2-1-4.5-2.5s-2-3.9-2.2-7.2c-0.1-2.3,0.1-5.3,0.5-8.9c0.3-2.3,0.7-5.2,1.3-8.8
			s0.9-5.6,1-6.1c0.1-0.8,0.5-1.4,1-1.8c0.6-0.4,1.2-0.6,2-0.5s1.4,0.4,1.8,1C238.5,176.9,238.7,177.6,238.6,178.3z M239.2,161.6
			c0.5,0.5,0.8,1.2,0.8,1.9s-0.3,1.4-0.8,1.9s-1.2,0.8-1.9,0.8s-1.4-0.3-1.9-0.8s-0.8-1.2-0.8-1.9s0.3-1.4,0.8-1.9s1.2-0.8,1.9-0.8
			S238.7,161.1,239.2,161.6z"/>
		<path fill="#ED7626" d="M237.7,212.7c-0.3,0-0.5,0-0.8,0c-2-0.1-3.9-1.1-5.5-3c-1.5-1.7-2.3-4.4-2.6-8.1c-0.1-2.3,0.1-5.2,0.5-9.2
			c0.3-2.2,0.7-5.1,1.3-8.9c0.3-1.9,0.5-3.3,0.7-4.3c0.1-0.9,0.2-1.5,0.3-1.8c0.1-1.1,0.7-2.1,1.5-2.7l0.1-0.1c1-0.6,1.9-0.9,3-0.7
			c1.2,0.1,2.1,0.6,2.7,1.5c0.8,0.8,1.2,1.9,1.1,3.1l0,0.1c0,0.2-0.1,0.7-0.2,1.5c-0.2,1.1-0.4,2.6-0.8,4.7c-0.6,3.5-1,6.7-1.3,8.7
			c-0.4,3.5-0.6,6-0.5,7.6c0.1,2.2,0.4,2.9,0.5,3c1-0.8,2.3-2.6,3.7-5.4c1.5-3,3.5-8.1,5.8-14.7l0-0.1c0.3-0.7,0.9-1.7,2.2-2.3
			c0.7-0.3,1.7-0.6,3-0.3c1.1,0.3,2,1.1,2.5,2.3c0.5,1.1,0.5,2.1,0.3,3.1c-2.5,7.3-4.7,12.6-6.4,15.9c-2.1,3.9-4.2,6.7-6.3,8.3
			C240.9,212.2,239.3,212.7,237.7,212.7z M235,177.1c-0.2,0.2-0.4,0.5-0.4,0.8l0,0.1c0,0.2-0.1,0.8-0.3,1.7c-0.2,1-0.4,2.5-0.7,4.3
			c-0.6,3.7-1,6.6-1.3,8.7c-0.4,3.8-0.6,6.6-0.5,8.6c0.2,3,0.8,5.1,1.8,6.3c1.1,1.2,2.2,1.9,3.5,2l0.1,0c1.1,0.1,2.3-0.2,3.5-1.1
			c1.7-1.3,3.6-3.8,5.5-7.3c1.7-3.1,3.7-8.3,6.2-15.4c0-0.1,0.1-0.5-0.2-1c-0.2-0.4-0.4-0.5-0.5-0.5c-0.3-0.1-0.5-0.1-1,0.1
			c-0.2,0.1-0.4,0.2-0.6,0.7c-2.3,6.7-4.4,11.9-6,15c-1.8,3.5-3.3,5.5-4.8,6.6c-0.6,0.4-1.2,0.7-1.8,0.7h-0.2l-0.2-0.1
			c-0.6-0.2-1.2-0.6-1.7-1.3c-0.4-0.5-1-1.6-1.1-4.8c-0.1-1.9,0.1-4.5,0.5-8.2c0.3-2.1,0.7-5.3,1.3-8.9c0.3-2,0.6-3.6,0.7-4.6
			c0.1-0.8,0.2-1.3,0.2-1.5c0-0.3-0.1-0.4-0.2-0.5l-0.2-0.1l-0.1-0.2c-0.1-0.1-0.2-0.3-0.7-0.3C235.6,176.8,235.3,176.9,235,177.1z
			 M237.3,167.7c-1.1,0-2.2-0.5-3-1.2c-0.8-0.8-1.2-1.9-1.2-3s0.5-2.2,1.2-3c0.8-0.8,1.9-1.2,3-1.2c1.1,0,2.2,0.5,3,1.2
			c0.8,0.8,1.2,1.9,1.2,3s-0.5,2.2-1.2,3C239.5,167.2,238.4,167.7,237.3,167.7z M237.3,162.3c-0.3,0-0.6,0.1-0.8,0.4
			s-0.4,0.5-0.4,0.8s0.1,0.6,0.4,0.8c0.4,0.4,1.2,0.4,1.7,0c0.2-0.2,0.4-0.5,0.4-0.8s-0.1-0.6-0.4-0.8S237.6,162.3,237.3,162.3z"/>
	</g>
	<g>
		<path fill="#ED7626" d="M263.5,177.2c-0.3-3.8-0.4-7.6-0.3-11.3c0.5-9.6,2.5-16.6,6-20.9c2.3-2.9,4.9-4.2,7.8-4
			c1.6,0.1,3,0.6,4.2,1.7c1.2,1.1,2,2.5,2.6,4.3c0.5,1.5,0.6,3.6,0.5,6.1c0,0.6,0,1.5-0.1,2.7s-0.2,2.1-0.2,2.6
			c0,0.3-0.1,0.7-0.3,1.1c-3,15.4-6.7,27.6-11.1,36.6l0.8,2.7c1,2.8,2,4.7,3.1,5.6c0.3,0.3,0.5,0.4,0.8,0.4c0.4,0,0.9-0.2,1.5-0.7
			c3.9-3,6.7-9.2,8.4-18.7c0.1-0.7,0.5-1.3,1.2-1.8c0.6-0.4,1.3-0.6,2.1-0.5c0.7,0.1,1.3,0.5,1.8,1.2c0.4,0.6,0.6,1.3,0.4,2
			c-2,10.8-5.5,18.1-10.4,21.9c-1.7,1.3-3.3,1.9-4.9,1.9s-3.1-0.6-4.4-1.7c-1.5-1.3-2.8-3.4-3.9-6.1l-0.7,1.1
			c-2.1,2.9-4.8,5-7.9,6.3c-1.7,0.9-3.6,1.1-5.7,0.7c-2.1-0.4-3.9-1.6-5.3-3.5c-2.1-2.9-3-6.9-2.5-12c0.5-4.5,1.8-8.5,4-12.1
			c2.7-4.2,5.8-6.3,9.4-6.4C261.4,176.5,262.4,176.8,263.5,177.2z M266.9,195.5c-0.3-1.3-0.6-2.6-0.9-4.1c-0.7-3.6-1.1-5.5-1.2-5.6
			c-0.1-0.3-0.1-0.5-0.1-0.8c-1.5-2.1-3-3.1-4.4-3.1c-1.6,0-3.2,1.3-4.8,3.9c-1.8,2.9-2.9,6.2-3.2,9.8c-0.4,3.6,0.1,6.3,1.5,8.2
			c1.1,1.5,2.6,1.8,4.6,1c2.1-0.9,4-2.4,5.5-4.5C264.9,198.9,265.9,197.3,266.9,195.5z M269.4,184.2c0.3,0.6,0.6,1.3,0.9,2.1
			c0,0.1,0,0.1,0.1,0.2c1.9-7,3.5-15.3,4.9-25c0-0.2,0-0.4,0-0.5c0-0.4,0-1.1,0.1-2.2c0.1-1.1,0.1-1.9,0.1-2.4
			c0.1-1.8,0.1-3.1-0.2-4c-0.3-1.3-0.7-2-1.2-2c-0.7-0.1-1.5,0.6-2.3,1.9c-1.9,3.1-2.9,8.6-3.2,16.4
			C268.4,174.3,268.7,179.5,269.4,184.2z"/>
		<path fill="#ED7626" d="M256.8,212.1c-0.7,0-1.5-0.1-2.3-0.2c-2.4-0.5-4.6-1.9-6.2-4.1c-2.4-3.3-3.3-7.7-2.8-13
			c0.5-4.8,1.9-9,4.2-12.7c3-4.6,6.5-7,10.6-7.1l0.1,0l0.1,0c0.4,0,0.9,0.1,1.3,0.2c-0.2-3.1-0.2-6.2-0.2-9.3
			c0.5-10,2.6-17.3,6.3-21.8c2.6-3.3,5.6-4.8,9.1-4.5c2,0.1,3.7,0.8,5.1,2.1c1.3,1.2,2.3,2.8,3,4.9c0.5,1.5,0.7,3.6,0.6,6.6
			c0,0.6,0,1.5-0.1,2.8l-0.1,1c-0.1,0.7-0.1,1.2-0.1,1.5c0,0.5-0.1,1-0.4,1.6c-2.9,15.1-6.6,27.3-10.9,36.3l0.6,2.1
			c0.9,2.5,1.8,4.2,2.6,4.9c0.1-0.1,0.2-0.1,0.4-0.3c3.6-2.8,6.3-8.8,7.9-17.8c0.1-0.7,0.5-1.8,1.8-2.8c1-0.6,2.1-0.9,3.2-0.8
			c0.8,0.1,1.9,0.5,2.8,1.8c0.7,1,0.9,2.2,0.6,3.2c-2.1,11.1-5.7,18.7-10.9,22.8c-2,1.5-3.9,2.2-5.8,2.2c-1.9,0-3.8-0.7-5.4-2.1
			c-1.2-1-2.2-2.4-3.2-4.3c-2.1,2.6-4.7,4.5-7.7,5.8C259.8,211.7,258.3,212.1,256.8,212.1z M260.3,177.9c-3,0.1-5.7,2-8.1,5.7
			c-2,3.4-3.3,7.1-3.8,11.5c-0.5,4.6,0.3,8.3,2.2,11c1.2,1.6,2.6,2.6,4.4,2.9c1.8,0.3,3.4,0.2,4.7-0.6l0.1-0.1
			c2.9-1.2,5.4-3.2,7.3-5.8l2.2-3.5l1.1,2.7c1,2.6,2.2,4.4,3.5,5.5c2.1,1.8,4.7,1.8,7.4-0.3c4.6-3.6,7.9-10.6,9.8-21l0-0.1
			c0.1-0.3-0.1-0.6-0.2-0.8c-0.3-0.4-0.6-0.5-0.8-0.5c-0.4,0-0.7,0-1.1,0.3c-0.4,0.3-0.5,0.6-0.5,0.8c-1.8,10-4.7,16.4-9,19.7
			c-0.8,0.7-1.6,1-2.4,1c-0.9,0-1.4-0.4-1.8-0.8c-1.3-1.1-2.4-3-3.5-6.2l-1-3.3l0.3-0.5c4.3-8.8,8-21,11-36.2l0-0.2l0.1-0.2
			c0.1-0.2,0.1-0.4,0.1-0.4c0-0.4,0.1-1,0.1-1.8l0.1-1c0.1-1.1,0.1-2,0.1-2.6c0.1-2.6,0-4.5-0.4-5.6c-0.5-1.6-1.2-2.8-2.2-3.7
			c-0.9-0.8-1.9-1.2-3.3-1.3c-2.4-0.2-4.6,1-6.5,3.4c-3.3,4-5.2,10.8-5.7,20c-0.1,3.6,0,7.4,0.3,11.1l0.2,2.3l-2.2-0.8
			C261.9,178.2,261.1,178,260.3,177.9z M256.4,206.7c-1.9,0-3.1-1-3.8-2c-1.6-2.2-2.2-5.3-1.8-9.3c0.3-3.8,1.5-7.3,3.4-10.4
			c1.9-3.1,3.9-4.6,6.1-4.6c2,0,3.9,1.3,5.6,3.7l0.3,0.4v0.5c0,0.2,0,0.2,0,0.3c0.2,0.6,0.5,1.9,1.3,5.9c0.3,1.5,0.6,2.8,0.9,4
			l0.1,0.6l-0.3,0.5c-1,1.8-2.1,3.5-3.1,4.9c-1.6,2.2-3.7,4-6.1,5C258,206.6,257.2,206.7,256.4,206.7z M260.3,183.4
			c-1,0-2.3,1.1-3.5,3.2c-1.7,2.7-2.7,5.8-3,9.1c-0.4,3.3,0,5.6,1.2,7.2c0.5,0.6,1.1,1.2,2.8,0.5c1.9-0.8,3.5-2.2,4.8-4
			c0.9-1.2,1.8-2.6,2.6-4.2c-0.3-1.1-0.5-2.3-0.8-3.6c-0.6-3.3-0.9-4.6-1-5.1l-0.1-0.3c-0.1-0.3-0.1-0.5-0.2-0.8
			C262.2,184.1,261.1,183.4,260.3,183.4z M271.2,189.4l-1.8-1.8c-0.2-0.2-0.4-0.5-0.5-0.9c-0.3-0.7-0.5-1.3-0.8-1.8l-0.1-0.2l0-0.2
			c-0.7-5-1-10.3-0.8-15.8c0.3-8.4,1.4-13.9,3.4-17.1c1.2-1.9,2.4-2.7,3.7-2.6c1.8,0.1,2.3,2.3,2.5,3.1c0.4,1.1,0.4,2.5,0.3,4.5
			c0,0.4,0,1.3-0.1,2.5c-0.1,1-0.1,1.7-0.1,2.1l0,0.7c-1.4,10-3.1,18.3-4.9,25.2L271.2,189.4z M273.7,152.2
			c-0.2,0.2-0.4,0.5-0.6,0.9c-1.7,2.8-2.7,7.9-3,15.7c-0.1,3.9,0,7.8,0.3,11.4c1.2-5.4,2.3-11.7,3.4-18.8V161c0-0.4,0-1.2,0.1-2.3
			c0.1-1,0.1-1.8,0.1-2.3c0.1-1.4,0.1-2.8-0.1-3.5l0-0.1C273.8,152.5,273.7,152.4,273.7,152.2z"/>
	</g>
	<g>
		<path fill="#ED7626" d="M293.5,199.2c0.2,1.9,0.7,3.5,1.5,4.7c1.7,2.5,4.5,3.2,8.6,2.3c3.3-0.8,5.9-3,7.8-6.5
			c0.7-1.3,1.3-2.6,1.8-3.9c0.5-1.4,1.1-3,1.7-4.8s1.1-3.3,1.6-4.6c0.3-0.7,0.7-1.1,1.4-1.5c0.7-0.3,1.3-0.3,2,0s1.2,0.7,1.5,1.4
			s0.3,1.4,0,2.1l-1.4,4.2c-0.7,1.9-1.3,3.6-1.9,5.2c-0.6,1.6-1.3,3.1-2,4.5c-2.6,4.9-6.4,8-11.4,9.1c-6.5,1.5-11.2,0-14.2-4.5
			c-2.4-3.5-3.2-8.2-2.3-14c0.7-5.4,2.5-9.9,5.3-13.6c1.5-2,3.3-3.5,5.3-4.5s4.1-1.1,6.4-0.3c3.8,1.3,5.8,4.1,6,8.2
			c0.2,3.2-0.8,6.4-2.9,9.7c-2.2,3.4-4.9,5.6-8.2,6.7C297.9,199.9,295.7,199.9,293.5,199.2z M293.6,193.4c1.6,0.9,3.2,1.1,4.9,0.6
			c2.1-0.7,3.9-2.3,5.4-4.6s2.1-4.4,2-6.4c-0.1-1.7-0.9-2.8-2.4-3.3c-1.8-0.7-3.7,0.3-5.6,2.9C295.7,185.5,294.3,189.1,293.6,193.4z
			"/>
		<path fill="#ED7626" d="M300.2,213.5c-4.7,0-8.4-1.9-10.9-5.7c-2.6-3.8-3.5-8.9-2.5-15.1c0.7-5.5,2.6-10.3,5.6-14.3
			c1.6-2.1,3.6-3.8,5.8-4.9c2.4-1.2,4.9-1.3,7.6-0.4c4.3,1.5,6.8,4.8,7,9.5c0.2,3.5-0.8,6.9-3.1,10.6c-2.4,3.7-5.3,6.1-9,7.3
			c-1.7,0.6-3.4,0.8-5.2,0.6c0.2,0.7,0.5,1.4,0.9,1.9c0.9,1.3,2.5,2.7,7,1.7c2.8-0.7,5.1-2.6,6.8-5.8c0.7-1.2,1.2-2.5,1.7-3.7
			l0.4-1.2c0.4-1.1,0.8-2.3,1.3-3.6c0.6-1.8,1.1-3.3,1.6-4.7c0.4-1,1-1.7,2.1-2.3l0.2-0.1c1.1-0.5,2.1-0.5,3.2,0
			c0.7,0.3,1.7,0.9,2.3,2.2c0.5,1.1,0.5,2.2,0,3.2l-1.4,4.1c-0.3,0.9-0.6,1.6-0.9,2.4c-0.4,1-0.7,2-1.1,2.9
			c-0.5,1.4-1.2,2.9-2.1,4.6c-2.9,5.4-7,8.7-12.4,9.9C303.3,213.3,301.7,213.5,300.2,213.5z M302.2,175.5c-1,0-1.9,0.2-2.8,0.7
			c-1.8,0.9-3.4,2.3-4.8,4.1c-2.7,3.5-4.4,7.9-5,12.9c-0.8,5.4-0.1,9.8,2,13c2.6,4,6.8,5.2,12.6,3.9c4.5-1,8-3.8,10.4-8.3
			c0.8-1.6,1.4-3,1.9-4.3c0.3-0.9,0.7-1.8,1-2.8c0.3-0.8,0.6-1.5,0.9-2.4l1.4-4.3c0.1-0.3,0.1-0.6,0-0.9c-0.1-0.2-0.2-0.4-0.7-0.6
			c-0.3-0.1-0.5-0.1-0.7,0c-0.4,0.3-0.6,0.4-0.7,0.7c-0.5,1.2-1,2.7-1.6,4.5c-0.4,1.3-0.9,2.5-1.3,3.6l-0.4,1.2
			c-0.5,1.4-1.2,2.8-1.9,4.1c-2.1,3.9-5.1,6.4-8.8,7.2c-4.8,1.1-8.1,0.1-10.2-2.9c-0.9-1.4-1.5-3.2-1.8-5.4l-0.2-2.3l2.2,0.7
			c1.9,0.6,3.8,0.6,5.6-0.1c3-1,5.4-3,7.5-6.1c2-3.1,2.8-6,2.7-8.8c-0.2-3.5-1.8-5.8-5-6.9C303.8,175.6,303,175.5,302.2,175.5z
			 M296.7,195.8c-1.3,0-2.6-0.4-3.8-1.1l-0.9-0.5l0.2-1c0.8-4.6,2.3-8.4,4.6-11.5c2.9-4,5.6-4.1,7.3-3.4c2,0.7,3.2,2.3,3.4,4.6
			c0.1,2.4-0.6,4.8-2.2,7.3c-1.7,2.7-3.8,4.4-6.2,5.2C298.2,195.6,297.5,195.8,296.7,195.8z M295.3,192.5c0.9,0.3,1.8,0.3,2.8,0
			c1.7-0.6,3.2-1.9,4.6-4c1.3-1.9,1.8-3.8,1.8-5.5c-0.1-1.1-0.5-1.6-1.4-2c-1.4-0.6-2.9,1-3.9,2.4
			C297.3,185.9,296,188.9,295.3,192.5z"/>
	</g>
</g>
</svg>
