<?xml version="1.0" encoding="UTF-8"?>
<svg width="347px" height="347px" viewBox="0 0 347 347" version="1.1" xmlns="http://www.w3.org/2000/svg" xmlns:xlink="http://www.w3.org/1999/xlink">
    <title>device-icon</title>
    <g id="Pages" stroke="none" stroke-width="1" fill="none" fill-rule="evenodd">
        <g id="device-icon" transform="translate(-0.000000, 0.000000)" fill-rule="nonzero">
            <rect id="Rectangle_504" fill="#2980B9" x="2.27373675e-13" y="0" width="347" height="347" rx="50"></rect>
            <g id="Group_1339" transform="translate(21.000000, 104.000000)" fill="#FFFFFF">
                <path d="M304.193862,106.810467 L285.943846,24.3900333 C282.257961,10.3123915 269.397747,0.626909567 254.886969,1 L51.3035077,1 C36.9164298,0.527170717 24.0953826,10.0410825 20.3417077,23.9753333 L0.736846154,106.395767 C-1.19450282,114.63169 0.766086194,123.300537 6.05164615,129.895433 C12.3410886,137.611203 21.7845432,142.045815 31.7224154,141.950333 L273.132231,141.950333 C282.995159,142.095152 292.386015,137.72398 298.641369,130.076567 C303.931346,123.574788 305.975577,115.009032 304.193862,106.810467 Z M285.653862,119.637567 C282.526259,123.304224 277.924045,125.371885 273.113215,125.271767 L31.7034,125.271767 C26.8556184,125.376307 22.2216107,123.273023 19.1009538,119.551767 C16.9631765,116.96459 16.1542049,113.524242 16.9141846,110.252 L36.5142923,27.8315667 C38.5727433,21.4707203 44.6442403,17.2966834 51.3035077,17.6642667 L254.886969,17.6642667 C261.620596,17.264289 267.752847,21.5361415 269.728477,28.0031667 L287.973738,110.4236 C288.668476,113.686423 287.819055,117.087993 285.672877,119.637567 L285.653862,119.637567 Z" id="Path_1645"></path>
                <polygon id="Path_1646" points="248.198308 66.4558667 231.521815 66.4558667 231.521815 47.2128333 219.071492 47.2128333 219.071492 66.4606333 202.371231 66.4606333 202.371231 47.2128333 189.901892 47.2128333 189.901892 66.4606333 173.2254 66.4606333 173.2254 47.2128333 160.756062 47.2128333 160.756062 66.4606333 144.079569 66.4606333 144.079569 47.2128333 131.600723 47.2128333 131.600723 66.4606333 114.928985 66.4606333 114.928985 47.2128333 102.459646 47.2128333 102.459646 66.4606333 85.7831538 66.4606333 85.7831538 47.2128333 73.3090615 47.2128333 73.3090615 66.4606333 56.6325692 66.4606333 56.6325692 47.2128333 44.1632308 47.2128333 44.1632308 98.2161667 56.6325692 98.2161667 56.6325692 78.9636 73.3090615 78.9636 73.3090615 98.2114 85.7831538 98.2114 85.7831538 78.9636 102.459646 78.9636 102.459646 98.2114 114.933738 98.2114 114.933738 78.9636 131.600723 78.9636 131.600723 98.2114 144.074815 98.2114 144.074815 78.9636 160.751308 78.9636 160.751308 98.2114 173.2254 98.2114 173.2254 78.9636 189.901892 78.9636 189.901892 98.2114 202.375985 98.2114 202.375985 78.9636 219.071492 78.9636 219.071492 98.2114 231.545585 98.2114 231.545585 78.9636 248.222077 78.9636 248.222077 98.2114 260.667646 98.2114 260.667646 47.2080667 248.198308 47.2080667"></polygon>
            </g>
            <polygon id="Path_1647" fill="#FFFFFF" points="187.601497 66.2758291 187.601497 31 158.398503 31 158.398503 66.2949617 140 66.2949617 172.707923 91 206 66.2949617"></polygon>
            <polygon id="Path_1648" fill="#FFFFFF" points="158.412201 288.705038 158.412201 324 187.606791 324 187.606791 288.705038 206 288.705038 173.282498 264 140 288.705038"></polygon>
        </g>
    </g>
</svg>