<svg id="image-obd-box" xmlns="http://www.w3.org/2000/svg" width="167.725" height="158.356" viewBox="0 0 167.725 158.356">
  <path id="Path_1649" data-name="Path 1649" d="M369.677,553.98l-80.168,31.37s-13.806,4.08-4.166,12.086l38.364,22.556s10.824,4.192,18.3-.386l86.32-39.078s9.375-4.618-2.12-10.69l-37.6-16.257a26.126,26.126,0,0,0-10.153-2.312A17.467,17.467,0,0,0,369.677,553.98Z" transform="translate(-278.382 -463.389)" fill="#2980b9" opacity="0.239"/>
  <g id="Group_1354" data-name="Group 1354">
    <g id="Group_1353" data-name="Group 1353">
      <path id="Path_1650" data-name="Path 1650" d="M371.2,412.858,282.459,444.55s-6.338-.352-5.282,11.62,2.465,41.551,2.465,41.551-.7,5.282,3.522,7.747,40.495,22.888,40.495,22.888,4.929,2.465,9.155,1.409,18.663-7.747,18.663-7.747l13.381,5.634s4.93,1.057,7.043,0,15.846-8.1,15.846-8.1l5.282,2.465,17.607-8.8.7-4.93L430,498.777a13.3,13.3,0,0,0,7.747-9.156c1.761-7.042,5.986-29.227,5.986-29.227s1.761-8.1-8.1-11.972-13.029-6.339-13.029-6.339l-1.761-10.211s0-3.169-4.577-4.578S371.2,412.858,371.2,412.858Z" transform="translate(-276.588 -412.364)" fill="#999"/>
      <path id="Path_1651" data-name="Path 1651" d="M330.253,530.212a17.807,17.807,0,0,1-7.079-1.724c-.383-.215-36.34-20.464-40.521-22.9-4.445-2.593-3.781-7.985-3.751-8.214-.018-.211-1.423-29.621-2.467-41.447-.441-5,.318-8.546,2.256-10.549a4.963,4.963,0,0,1,3.415-1.585l88.807-31.715.152.047c.4.13,40.544,13.045,45.067,14.436,4.853,1.495,4.909,4.884,4.909,5.027l1.722,9.944c.716.5,4.229,2.813,12.77,6.169,10.115,3.973,8.4,12.424,8.386,12.508-.04.211-4.246,22.267-5.989,29.242a13.651,13.651,0,0,1-8.047,9.483L411.494,508.3l-.7,4.932-18.029,9.014-5.279-2.463c-1.719.883-13.7,7.02-15.646,8-2.233,1.117-7.144.083-7.351.039l-13.274-5.579c-1.784.823-14.55,6.686-18.558,7.688A9.879,9.879,0,0,1,330.253,530.212Zm-48.136-85.483a3.991,3.991,0,0,0-2.77,1.319c-1.187,1.24-2.492,3.945-1.977,9.793,1.046,11.844,2.452,41.272,2.466,41.57-.009.134-.608,5.089,3.289,7.363,4.174,2.436,40.127,22.681,40.488,22.885.028.013,4.81,2.351,8.812,1.363,4.134-1.035,18.436-7.652,18.58-7.717l.188-.088,13.573,5.715h0c.039,0,4.723.97,6.65.013,2.086-1.044,15.7-8.026,15.841-8.1l.2-.1,5.285,2.467,17.184-8.593.7-4.928,18.88-9.617a12.972,12.972,0,0,0,7.5-8.851c1.737-6.948,5.938-28.979,5.981-29.2.069-.326,1.542-7.774-7.809-11.448-9.81-3.853-13.014-6.3-13.146-6.4l-.144-.112-1.792-10.392c-.008-.191-.092-2.927-4.253-4.207-4.387-1.35-42.2-13.514-44.926-14.391l-88.676,31.67-.095,0A.2.2,0,0,0,282.116,444.729Z" transform="translate(-276.313 -412.075)"/>
    </g>
    <path id="Path_1652" data-name="Path 1652" d="M359.916,540.593a4.579,4.579,0,0,1-2.578-.757c-1.377-.93-2.205-2.636-2.461-5.07-.7-6.635-1.4-48.216-1.411-48.636-.005-.022-.64-6.685,8.036-10.3,8.356-3.483,86.2-34.9,86.98-35.215l.352.869c-.786.317-78.619,31.732-86.971,35.211-8,3.334-7.486,9.132-7.461,9.375.01.462.715,42,1.409,48.6.226,2.146.917,3.623,2.054,4.391a3.923,3.923,0,0,0,2.984.489l.259.9A4.715,4.715,0,0,1,359.916,540.593Z" transform="translate(-304.752 -422.597)"/>
    <path id="Path_1653" data-name="Path 1653" d="M418.757,551.134a6.239,6.239,0,0,1-2.618-.556c-1.816-.831-3.167-2.544-4.016-5.091-2.445-7.336-5.617-22.437-5.648-22.589,0-.682.458-14.2,9.814-17.441,9.033-3.127,65.942-28.255,66.516-28.508.148-.068,3.723-1.645,6.449-.279a5.193,5.193,0,0,1,2.65,3.775l-.917.205a4.311,4.311,0,0,0-2.154-3.142c-2.333-1.165-5.612.284-5.646.3-.576.254-57.522,25.4-66.592,28.539-8.738,3.024-9.187,16.337-9.191,16.471.022.042,3.182,15.09,5.61,22.375.764,2.291,1.947,3.816,3.516,4.536a5.941,5.941,0,0,0,4.311.109l.358.869A7,7,0,0,1,418.757,551.134Z" transform="translate(-324.299 -435.684)"/>
    <path id="Path_1654" data-name="Path 1654" d="M385.28,539.283l-11.412-5.029c-.075-.075-1.857-1.9-3.981-7.562-2.1-5.6-6.183-22.916-6.356-23.649-.016-.247-.232-15.272,11.91-19.914,11.689-4.47,64.025-26.012,65.795-26.74.479-.3,3.732-1.972,13.389,1.023l-.278.9c-9.734-3.02-12.585-1.143-12.615-1.126-.635.277-54.114,22.294-65.955,26.82-11.529,4.409-11.322,18.773-11.319,18.918.03.083,4.231,17.9,6.308,23.438,1.834,4.892,3.4,6.821,3.713,7.169l11.177,4.889Z" transform="translate(-308.466 -428.141)"/>
    <path id="Path_1655" data-name="Path 1655" d="M332.218,528l-1.056-52.467c0-.068-.279-8.108,7.345-11.012,9.48-3.613,85.846-34.2,86.616-34.506l.348.873c-.77.308-77.143,30.9-86.631,34.511-7,2.667-6.744,10.03-6.741,10.1l1.057,52.48Z" transform="translate(-296.533 -418.689)"/>
    <path id="Path_1656" data-name="Path 1656" d="M419.834,583.248l-.4-.851,25.324-11.771,2.463,2.874-.182,5.64-.939-.029.171-5.276-1.762-2.056Z" transform="translate(-329.078 -470.527)"/>
    <path id="Path_1657" data-name="Path 1657" d="M487.311,555.566l-3.2-3.8,22.961-11.479,3.4,2.263-.521.781L507,541.367,485.6,552.072l2.434,2.888Z" transform="translate(-352.92 -459.341)"/>
    <path id="Path_1658" data-name="Path 1658" d="M521.173,517.373l-.91-.231,8.451-33.1c.246-1.491.6-5.938-1.052-6.293l.2-.917c2.823.6,1.889,6.709,1.773,7.4Z" transform="translate(-366.248 -435.949)"/>
    <path id="Path_1659" data-name="Path 1659" d="M471.12,518.8a12.447,12.447,0,0,1-4.142-1.052l-21.337-10.4.41-.844,21.3,10.388c3.851,1.508,4.45.821,4.454.818l.032-.255.211-.037,21.931-10.528a.774.774,0,0,0,.231-.675c-.13-.9-1.688-2.057-2.639-2.575l-17.763-8.618.409-.844L492,502.807c.314.169,2.9,1.612,3.141,3.273a1.754,1.754,0,0,1-.548,1.53l-.129.092-21.851,10.489a1.1,1.1,0,0,1-.379.369A2.188,2.188,0,0,1,471.12,518.8Z" transform="translate(-338.738 -442.344)"/>
    <path id="Path_1660" data-name="Path 1660" d="M419.184,545.136a10.653,10.653,0,0,1-3.8-.849l-7.973-4.249.442-.829,7.923,4.226c2.861,1.109,4.186.68,4.2.676l23.551-11.076c.549-.386.535-.732.531-.845-.03-.752-1.212-1.6-1.623-1.845l-20.913-9.663.394-.851,20.952,9.683c.246.14,2.071,1.236,2.128,2.637a1.948,1.948,0,0,1-1,1.695l-23.659,11.133A3.342,3.342,0,0,1,419.184,545.136Z" transform="translate(-324.644 -451.801)"/>
    <path id="Path_1661" data-name="Path 1661" d="M416.157,549.934a7.991,7.991,0,0,1-7.1-4.712l-6-20.291c-3.566-14.8,9.054-22.813,9.182-22.894l72.073-31.018.371.862-72.01,30.987c-.06.044-12.107,7.717-8.708,21.82l5.98,20.223a6.976,6.976,0,0,0,6.737,4.068l.063.935C416.539,549.929,416.346,549.934,416.157,549.934Z" transform="translate(-322.803 -433.805)"/>
    <rect id="Rectangle_507" data-name="Rectangle 507" width="18.127" height="0.94" transform="matrix(0.913, -0.408, 0.408, 0.913, 117.48, 102.71)"/>
  </g>
</svg>
