<svg id="image-fitted-box" xmlns="http://www.w3.org/2000/svg" width="257.85" height="217.693" viewBox="0 0 257.85 217.693">
  <path id="Path_1700" data-name="Path 1700" d="M1789.9,519.859,1608.565,622.4a.646.646,0,0,0,.312.553l69.77,42.069.009,0a.646.646,0,0,0,.309.085.1.1,0,0,0,.015,0h0c.015,0,.028-.01.043-.011a.647.647,0,0,0,.273-.071l0,0h0l48.316-27.707a.637.637,0,0,0,.314-.563l8.694,5.5a10.362,10.362,0,0,0,5.438,1.533,9.518,9.518,0,0,0,3.2-.514.56.56,0,0,0,.1-.051l22.251-13.544a5.7,5.7,0,0,0,3.038-4.283,6.174,6.174,0,0,0-.637-3.838.63.63,0,0,0-.185-.123,7.215,7.215,0,0,0-3.571-2.439l-3.286-1.7,41.5-24.05,7.44,4.712a10.368,10.368,0,0,0,5.437,1.532,9.526,9.526,0,0,0,3.2-.514.556.556,0,0,0,.1-.05l22.25-13.545a5.7,5.7,0,0,0,3.039-4.283,6.176,6.176,0,0,0-.637-3.838.631.631,0,0,0-.185-.123,7.212,7.212,0,0,0-3.572-2.439l-2.585-1.34,20.831-11.994a.648.648,0,0,0,.324-.559Z" transform="translate(-1602.27 -447.417)" fill="#2980b9" opacity="0.21"/>
  <g id="Group_1385" data-name="Group 1385">
    <path id="Path_1701" data-name="Path 1701" d="M1852.8,533.094V492.729l-71.854-41.486-178.41,102.766v40.676l69.771,42.068,49.25-28.284,8.731,5.529a9.752,9.752,0,0,0,8.07.968l22.272-13.557c4.2-2.34,2.42-6.939,2.259-7.1l-.133.032c-.689-1.583-3.417-2.452-3.417-2.452l-4.682-2.428,43.07-24.735,7.85,4.972a9.748,9.748,0,0,0,8.07.968l22.272-13.557c4.2-2.34,2.422-6.939,2.26-7.1l-.133.033c-.689-1.584-3.418-2.453-3.418-2.453l-3.709-1.924.095-.054-.017.041Z" transform="translate(-1601.43 -450.597)" fill="#999"/>
    <g id="Group_1384" data-name="Group 1384">
      <path id="Path_1702" data-name="Path 1702" d="M1671.8,596.513a.638.638,0,0,1-.332-.093l-69.9-41.963a.646.646,0,0,1,.01-1.113l178.409-102.765a.641.641,0,0,1,.645,0l71.855,41.486a.645.645,0,0,1,0,1.119L1672.12,596.428A.648.648,0,0,1,1671.8,596.513Zm-68.628-42.6,68.636,41.2,179.06-102.5-70.559-40.738Z" transform="translate(-1601.252 -450.493)"/>
      <path id="Path_1703" data-name="Path 1703" d="M1707.284,574.907a6.654,6.654,0,0,1-3.672-1.085L1667.589,552.2c-.236-.144-2.272-1.437-2.246-3.253.015-1.067.729-2.012,2.122-2.806,2.365-1.462,99.018-57.039,103.131-59.4a8.786,8.786,0,0,1,4.209-1.252,10.347,10.347,0,0,1,4.422,1.228l37.018,21.372c.23.147,2,1.34,1.93,3-.042,1.023-.764,1.915-2.146,2.65-16.9,8.993-79,45.025-99.413,56.866-3.181,1.845-5.2,3.015-5.656,3.279A7.34,7.34,0,0,1,1707.284,574.907Zm67.521-88.133a7.52,7.52,0,0,0-3.54,1.065c-1.032.594-100.774,57.948-103.141,59.41-.986.563-1.48,1.136-1.49,1.712-.016.922,1.167,1.853,1.623,2.134l36.066,21.651a5.6,5.6,0,0,0,6,.011c.459-.263,2.473-1.431,5.65-3.274,20.414-11.844,82.536-47.885,99.454-56.889.652-.347,1.435-.9,1.463-1.565.033-.791-.962-1.617-1.314-1.844l-36.983-21.352A9.158,9.158,0,0,0,1774.8,486.774Z" transform="translate(-1610.177 -455.365)"/>
      <path id="Path_1704" data-name="Path 1704" d="M1671.669,653.92a.646.646,0,0,1-.334-.093l-69.771-42.069a.648.648,0,0,1-.312-.553V570.53a.646.646,0,1,1,1.291,0V610.84l68.482,41.293.127-39.642a.645.645,0,0,1,.646-.644h0a.645.645,0,0,1,.644.647l-.13,40.782a.647.647,0,0,1-.646.644Z" transform="translate(-1601.252 -467.118)"/>
      <path id="Path_1705" data-name="Path 1705" d="M1682.956,662.824a.646.646,0,0,1-.322-1.206l48.315-27.706a.645.645,0,1,1,.642,1.12l-48.315,27.706A.649.649,0,0,1,1682.956,662.824Z" transform="translate(-1612.539 -476.021)"/>
      <path id="Path_1706" data-name="Path 1706" d="M1779.284,608.373a.645.645,0,0,1-.324-1.2l42.607-24.693a.645.645,0,0,1,.647,1.116l-42.607,24.693A.639.639,0,0,1,1779.284,608.373Z" transform="translate(-1625.953 -468.859)"/>
      <path id="Path_1707" data-name="Path 1707" d="M1867.315,552.9a.646.646,0,0,1-.323-1.206l21.482-12.368V499.336a.646.646,0,1,1,1.291,0V539.7a.646.646,0,0,1-.324.559l-21.805,12.555A.64.64,0,0,1,1867.315,552.9Z" transform="translate(-1638.211 -457.204)"/>
      <path id="Path_1708" data-name="Path 1708" d="M1666.872,652.787a.644.644,0,0,1-.337-.1l-58.815-36.071a.648.648,0,0,1-.308-.551v-9.634a.646.646,0,0,1,.968-.559l58.815,33.957a.644.644,0,0,1,.323.559v11.749a.644.644,0,0,1-.331.563A.653.653,0,0,1,1666.872,652.787Zm-58.17-37.079,57.524,35.28V640.765L1608.7,607.554Z" transform="translate(-1602.11 -472.117)"/>
      <path id="Path_1709" data-name="Path 1709" d="M1667.563,651.5a.656.656,0,0,1-.288-.068l-2.7-1.352a.646.646,0,0,1,.073-1.186l2.268-.8v-3.015l-6.73-3.1-4.773,1.839a.641.641,0,0,1-.549-.04l-5.58-3.147a.646.646,0,0,1-.329-.562v-2.007l-3.55-1.634a.646.646,0,0,1-.053-1.146l2.94-1.7-28.326-15.771-3.434,2.025a.655.655,0,0,1-.5.065l-2.358-.665v.94a.646.646,0,0,1-1.291,0v-1.793a.646.646,0,0,1,.821-.621l2.914.822,3.514-2.074a.649.649,0,0,1,.642-.007l29.643,16.5a.646.646,0,0,1,.009,1.123l-2.845,1.642,2.791,1.284a.648.648,0,0,1,.376.587v2.043l4.987,2.813,4.744-1.827a.646.646,0,0,1,.5.016l7.354,3.39a.643.643,0,0,1,.375.585v3.885a.646.646,0,0,1-.43.609l-1.269.45,1.342.672a.646.646,0,0,1-.29,1.223Z" transform="translate(-1602.802 -473.598)"/>
      <path id="Path_1710" data-name="Path 1710" d="M1639.506,576.719c-2.941,0-5.245-1.349-5.245-3.069s2.3-3.069,5.245-3.069,5.245,1.348,5.245,3.069S1642.448,576.719,1639.506,576.719Zm0-4.848c-2.262,0-3.953.939-3.953,1.778s1.691,1.778,3.953,1.778,3.954-.939,3.954-1.778S1641.77,571.871,1639.506,571.871Z" transform="translate(-1605.849 -467.215)"/>
      <path id="Path_1711" data-name="Path 1711" d="M1720.856,516.456c-4.452,0-7.939-1.972-7.939-4.489s3.487-4.488,7.939-4.488,7.938,1.971,7.938,4.488S1725.308,516.456,1720.856,516.456Zm0-7.686c-3.976,0-6.647,1.653-6.647,3.2s2.672,3.2,6.647,3.2,6.647-1.654,6.647-3.2S1724.832,508.77,1720.856,508.77Z" transform="translate(-1616.801 -458.428)"/>
      <path id="Path_1712" data-name="Path 1712" d="M1715.3,514.813a.644.644,0,0,1-.561-.961,7.6,7.6,0,0,1,4.639-3.356c2.582-.606,5.483.163,8.631,2.29a.646.646,0,0,1-.723,1.07c-2.828-1.912-5.385-2.619-7.592-2.109a6.4,6.4,0,0,0-3.831,2.74A.647.647,0,0,1,1715.3,514.813Z" transform="translate(-1617.043 -458.82)"/>
      <g id="Group_1378" data-name="Group 1378" transform="translate(220.106 60.151)">
        <path id="Path_1713" data-name="Path 1713" d="M1867.034,549.112a.645.645,0,0,1-.646-.646v-3.228a.645.645,0,0,1,.331-.564l22.048-12.266a.645.645,0,0,1,.959.567l-.018,3.51a.643.643,0,0,1-.337.564l-22.03,11.983A.643.643,0,0,1,1867.034,549.112Zm.646-3.493v1.761l20.74-11.282.01-2.024Z" transform="translate(-1858.278 -522.039)"/>
        <path id="Path_1714" data-name="Path 1714" d="M1865.638,544.435a.637.637,0,0,1-.3-.076l-7.747-4.115a.646.646,0,0,1-.026-1.127l21.183-12.467a.643.643,0,0,1,.646,0l8.732,4.962a.645.645,0,1,1-.637,1.122l-8.409-4.778-19.867,11.692,6.729,3.575a.645.645,0,0,1-.3,1.215Z" transform="translate(-1857.005 -521.236)"/>
        <path id="Path_1715" data-name="Path 1715" d="M1857.612,551.314a.644.644,0,0,1-.646-.655l.12-8.836a.646.646,0,0,1,.646-.636h.009a.644.644,0,0,1,.636.654l-.11,8.1,7.377-.881a.646.646,0,1,1,.153,1.283l-8.11.968C1857.662,551.312,1857.636,551.314,1857.612,551.314Z" transform="translate(-1856.966 -523.272)"/>
        <path id="Path_1716" data-name="Path 1716" d="M1866.829,536.31a.647.647,0,0,1-.6-.4l-3.873-9.442a.646.646,0,0,1,1.2-.491l3.873,9.442a.646.646,0,0,1-.352.843A.653.653,0,0,1,1866.829,536.31Z" transform="translate(-1857.71 -521.099)"/>
        <path id="Path_1717" data-name="Path 1717" d="M1872.032,533.638a.647.647,0,0,1-.6-.4l-3.873-9.442a.646.646,0,0,1,1.2-.49l3.873,9.441a.646.646,0,0,1-.352.843A.655.655,0,0,1,1872.032,533.638Z" transform="translate(-1858.434 -520.727)"/>
        <path id="Path_1718" data-name="Path 1718" d="M1877.235,531.107a.648.648,0,0,1-.6-.4l-3.873-9.441a.646.646,0,0,1,1.2-.491l3.873,9.442a.646.646,0,0,1-.6.891Z" transform="translate(-1859.159 -520.374)"/>
      </g>
      <g id="Group_1379" data-name="Group 1379" transform="translate(83.893 140.846)">
        <path id="Path_1719" data-name="Path 1719" d="M1708.785,642.862a.645.645,0,0,1-.645-.646v-3.228a.644.644,0,0,1,.331-.564l22.048-12.266a.645.645,0,0,1,.959.567l-.018,3.51a.644.644,0,0,1-.337.564l-22.03,11.983A.643.643,0,0,1,1708.785,642.862Zm.646-3.493v1.761l20.74-11.282.01-2.024Z" transform="translate(-1700.029 -615.789)"/>
        <path id="Path_1720" data-name="Path 1720" d="M1707.435,638.185a.635.635,0,0,1-.315-.083l-7.464-4.2a.645.645,0,0,1-.014-1.117l20.9-12.387a.646.646,0,0,1,.648-.006l8.732,4.963a.645.645,0,1,1-.637,1.122l-8.408-4.777-19.616,11.625,6.489,3.649a.645.645,0,0,1-.317,1.208Z" transform="translate(-1698.802 -614.986)"/>
        <path id="Path_1721" data-name="Path 1721" d="M1699.363,645.031a.645.645,0,0,1-.646-.659l.2-9.038a.646.646,0,0,1,.646-.632h.015a.647.647,0,0,1,.631.66l-.185,8.294,7.372-.881a.646.646,0,0,1,.153,1.283l-8.11.968C1699.413,645.029,1699.388,645.031,1699.363,645.031Z" transform="translate(-1698.717 -616.99)"/>
        <path id="Path_1722" data-name="Path 1722" d="M1708.58,630.06a.646.646,0,0,1-.6-.4l-3.873-9.442a.646.646,0,1,1,1.2-.489l3.873,9.442a.645.645,0,0,1-.352.842A.654.654,0,0,1,1708.58,630.06Z" transform="translate(-1699.461 -614.849)"/>
        <path id="Path_1723" data-name="Path 1723" d="M1713.783,627.388a.646.646,0,0,1-.6-.4l-3.874-9.442a.646.646,0,0,1,1.2-.489l3.873,9.442a.645.645,0,0,1-.352.842A.654.654,0,0,1,1713.783,627.388Z" transform="translate(-1700.185 -614.477)"/>
        <path id="Path_1724" data-name="Path 1724" d="M1718.986,624.857a.647.647,0,0,1-.6-.4l-3.873-9.442a.646.646,0,0,1,1.2-.489l3.873,9.442a.645.645,0,0,1-.6.89Z" transform="translate(-1700.91 -614.124)"/>
      </g>
      <path id="Path_1725" data-name="Path 1725" d="M1781.485,599.8a.643.643,0,0,1-.646-.647l.01-3.228a.645.645,0,0,1,.318-.554l35.568-20.874a.646.646,0,0,1,.973.561l-.027,3.509a.648.648,0,0,1-.322.554l-35.551,20.593A.646.646,0,0,1,1781.485,599.8Zm.655-3.5-.006,1.735,34.259-19.845.015-2Z" transform="translate(-1626.259 -467.747)"/>
      <path id="Path_1726" data-name="Path 1726" d="M1780.067,595.116a.638.638,0,0,1-.323-.087l-7.975-4.623a.646.646,0,0,1,0-1.115l34.945-20.594a.646.646,0,0,1,.648,0l8.718,4.989a.646.646,0,0,1-.641,1.122l-8.392-4.8-33.67,19.843,7.019,4.07a.645.645,0,0,1-.324,1.2Z" transform="translate(-1624.951 -466.94)"/>
      <path id="Path_1727" data-name="Path 1727" d="M1772.06,603.265a.644.644,0,0,1-.646-.647l.029-9.441a.645.645,0,0,1,.646-.644h0a.646.646,0,0,1,.644.647l-.026,8.713,7.39-.86a.656.656,0,0,1,.716.566.645.645,0,0,1-.566.716l-8.113.944A.714.714,0,0,1,1772.06,603.265Z" transform="translate(-1624.947 -470.271)"/>
      <path id="Path_1728" data-name="Path 1728" d="M1781.326,588.387a.645.645,0,0,1-.6-.4l-3.845-9.453a.645.645,0,1,1,1.195-.486l3.846,9.454a.644.644,0,0,1-.355.84A.636.636,0,0,1,1781.326,588.387Z" transform="translate(-1625.702 -468.198)"/>
      <path id="Path_1729" data-name="Path 1729" d="M1786.538,585.731a.644.644,0,0,1-.6-.4l-3.845-9.453a.645.645,0,1,1,1.195-.486l3.846,9.454a.644.644,0,0,1-.355.84A.635.635,0,0,1,1786.538,585.731Z" transform="translate(-1626.427 -467.828)"/>
      <path id="Path_1730" data-name="Path 1730" d="M1791.748,583.214a.645.645,0,0,1-.6-.4l-3.845-9.452a.645.645,0,0,1,1.2-.486l3.845,9.453a.644.644,0,0,1-.355.84A.62.62,0,0,1,1791.748,583.214Z" transform="translate(-1627.153 -467.478)"/>
      <path id="Path_1731" data-name="Path 1731" d="M1798.2,579.387a.646.646,0,0,1-.6-.4l-3.844-9.453a.645.645,0,1,1,1.195-.486l3.845,9.454a.644.644,0,0,1-.355.84A.636.636,0,0,1,1798.2,579.387Z" transform="translate(-1628.051 -466.945)"/>
      <path id="Path_1732" data-name="Path 1732" d="M1803.412,576.731a.645.645,0,0,1-.6-.4l-3.845-9.453a.645.645,0,1,1,1.195-.486l3.846,9.454a.644.644,0,0,1-.355.84A.637.637,0,0,1,1803.412,576.731Z" transform="translate(-1628.777 -466.575)"/>
      <path id="Path_1733" data-name="Path 1733" d="M1808.623,574.214a.645.645,0,0,1-.6-.4l-3.845-9.452a.645.645,0,0,1,1.2-.486l3.845,9.453a.643.643,0,0,1-.355.84A.62.62,0,0,1,1808.623,574.214Z" transform="translate(-1629.503 -466.225)"/>
      <path id="Path_1734" data-name="Path 1734" d="M1683.286,628.221a.645.645,0,0,1-.328-1.2L1863.27,521.026a.645.645,0,1,1,.654,1.113L1683.612,628.132A.644.644,0,0,1,1683.286,628.221Z" transform="translate(-1612.585 -460.302)"/>
      <path id="Path_1735" data-name="Path 1735" d="M1863.763,561.015" transform="translate(-1637.806 -465.883)" fill="none" stroke="#000" stroke-linecap="round" stroke-linejoin="round" stroke-width="1.5"/>
      <g id="Group_1381" data-name="Group 1381" transform="translate(118.067 136.125)">
        <g id="Group_1380" data-name="Group 1380">
          <path id="Path_1736" data-name="Path 1736" d="M1753.793,634.511a10,10,0,0,1-5.391-1.441l-9.682-6.132a.645.645,0,0,1,.026-1.106l30.019-17.107a.644.644,0,0,1,.617-.012l8.668,4.494c.566.188,3.645,1.3,3.948,3.447.182,1.286-.677,2.572-2.55,3.821l-22.294,13.571a.6.6,0,0,1-.158.069A12.59,12.59,0,0,1,1753.793,634.511Zm-13.476-8.089,8.776,5.558c3.012,1.916,6.873,1.063,7.47.912l22.191-13.507c.957-.638,2.1-1.613,1.965-2.551-.17-1.21-2.363-2.173-3.118-2.415a.724.724,0,0,1-.1-.041l-8.4-4.358Z" transform="translate(-1738.419 -608.639)"/>
          <path id="Path_1737" data-name="Path 1737" d="M1753.851,639.121a10.369,10.369,0,0,1-5.438-1.532l-9.693-6.139a.647.647,0,0,1-.3-.546v-3.389a.646.646,0,1,1,1.291,0v3.033l9.383,5.943a9.138,9.138,0,0,0,7.444.929l22.217-13.522c3.676-2.051,2.167-5.939,2.061-6.187a.645.645,0,0,1,.99-.819,6.17,6.17,0,0,1,.637,3.838,5.7,5.7,0,0,1-3.038,4.283l-22.25,13.545a.6.6,0,0,1-.1.05A9.517,9.517,0,0,1,1753.851,639.121Z" transform="translate(-1738.419 -609.762)"/>
          <path id="Path_1738" data-name="Path 1738" d="M1755.184,631.575a5.93,5.93,0,0,1-2.56-.6c-.353-.13-1.23-.556-3.906-1.952a.636.636,0,0,1-.158-.116,2.443,2.443,0,0,1-.655-2.025c.165-.989.987-1.851,2.442-2.562l2.958-1.6,14.118-7.866a7.065,7.065,0,0,1,6.4.1c.3.133,2.982,1.382,3.254,3.173a2.223,2.223,0,0,1-.88,2.053.662.662,0,0,1-.1.074l-17.1,9.936A6.188,6.188,0,0,1,1755.184,631.575Zm-2.139-1.812a.6.6,0,0,1,.121.043,4.725,4.725,0,0,0,5.02-.622.729.729,0,0,1,.107-.079l17.09-9.932c.475-.438.429-.747.412-.85-.132-.865-1.75-1.85-2.512-2.191a5.8,5.8,0,0,0-5.218-.154l-14.136,7.876-.008,0-2.985,1.614c-1.068.522-1.668,1.08-1.758,1.626a1.124,1.124,0,0,0,.244.84C1751,628.76,1752.736,629.641,1753.045,629.763Zm.571-6.475h0Z" transform="translate(-1739.736 -609.409)"/>
        </g>
        <path id="Path_1739" data-name="Path 1739" d="M1749.1,629.178a.646.646,0,0,1-.312-1.212l23.926-13.153a.646.646,0,0,1,.621,1.132L1749.407,629.1A.647.647,0,0,1,1749.1,629.178Z" transform="translate(-1739.816 -609.488)"/>
      </g>
      <g id="Group_1383" data-name="Group 1383" transform="translate(193.356 91.824)">
        <g id="Group_1382" data-name="Group 1382">
          <path id="Path_1740" data-name="Path 1740" d="M1841.262,583.043a10.013,10.013,0,0,1-5.392-1.441l-9.683-6.132a.645.645,0,0,1,.027-1.106l30.019-17.107a.65.65,0,0,1,.616-.013l8.668,4.495c.566.187,3.645,1.3,3.948,3.447.182,1.287-.677,2.573-2.55,3.821l-22.3,13.572a.612.612,0,0,1-.157.069A12.642,12.642,0,0,1,1841.262,583.043Zm-13.476-8.089,8.776,5.558c3.012,1.918,6.872,1.062,7.47.913l22.191-13.508c.956-.638,2.1-1.613,1.964-2.551-.169-1.21-2.362-2.173-3.117-2.414a.836.836,0,0,1-.1-.042l-8.4-4.358Z" transform="translate(-1825.888 -557.172)"/>
          <path id="Path_1741" data-name="Path 1741" d="M1841.319,587.652a10.359,10.359,0,0,1-5.437-1.532l-9.694-6.139a.649.649,0,0,1-.3-.546v-3.389a.646.646,0,1,1,1.291,0v3.033l9.383,5.943a9.146,9.146,0,0,0,7.444.929l22.217-13.523c3.676-2.051,2.167-5.939,2.061-6.187a.645.645,0,0,1,.99-.819,6.176,6.176,0,0,1,.637,3.838,5.7,5.7,0,0,1-3.038,4.284l-22.251,13.544a.625.625,0,0,1-.1.051A9.529,9.529,0,0,1,1841.319,587.652Z" transform="translate(-1825.888 -558.294)"/>
          <path id="Path_1742" data-name="Path 1742" d="M1842.653,580.106a5.934,5.934,0,0,1-2.561-.6c-.352-.13-1.229-.556-3.906-1.952a.628.628,0,0,1-.157-.116,2.439,2.439,0,0,1-.655-2.024c.164-.99.986-1.852,2.442-2.562l2.958-1.6,14.119-7.866a7.067,7.067,0,0,1,6.4.1c.3.133,2.982,1.383,3.254,3.173a2.228,2.228,0,0,1-.88,2.054.653.653,0,0,1-.1.073l-17.1,9.936A6.191,6.191,0,0,1,1842.653,580.106Zm-2.139-1.812a.7.7,0,0,1,.121.043,4.727,4.727,0,0,0,5.019-.622.647.647,0,0,1,.108-.078l17.09-9.932c.474-.439.429-.748.412-.851-.132-.865-1.75-1.85-2.513-2.192a5.8,5.8,0,0,0-5.217-.154l-14.136,7.876-.008,0L1838.405,574c-1.067.522-1.667,1.08-1.759,1.627a1.123,1.123,0,0,0,.245.839C1838.472,577.291,1840.2,578.173,1840.514,578.294Zm.571-6.475h0Z" transform="translate(-1827.205 -557.941)"/>
        </g>
        <path id="Path_1743" data-name="Path 1743" d="M1836.706,577.568a.645.645,0,0,1-.312-1.211L1860.32,563.2a.646.646,0,1,1,.622,1.131l-23.926,13.153A.631.631,0,0,1,1836.706,577.568Z" transform="translate(-1827.304 -558.001)"/>
      </g>
    </g>
  </g>
</svg>
