<svg id="icon-warningtriangle-white" xmlns="http://www.w3.org/2000/svg" width="53" height="45" viewBox="0 0 53 45">
  <path id="Path_6635" data-name="Path 6635" d="M1.381-5.447h-2.74l-.573-10.972H1.954ZM-1.977-1.606a1.883,1.883,0,0,1,.505-1.426A2.049,2.049,0,0,1,0-3.515a1.991,1.991,0,0,1,1.443.494,1.878,1.878,0,0,1,.511,1.415,1.878,1.878,0,0,1-.517,1.4A1.955,1.955,0,0,1,0,.3,2.014,2.014,0,0,1-1.46-.2,1.87,1.87,0,0,1-1.977-1.606Z" transform="translate(26.5 36)" fill="#fff"/>
  <g id="Polygon_1" data-name="Polygon 1" fill="none">
    <path d="M26.5,0,53,45H0Z" stroke="none"/>
    <path d="M 26.5 7.882736206054688 L 6.997611999511719 41 L 46.00238800048828 41 L 26.5 7.882736206054688 M 26.5 0 L 53 45 L 0 45 L 26.5 0 Z" stroke="none" fill="#fff"/>
  </g>
</svg>
