<svg id="icon-camera" xmlns="http://www.w3.org/2000/svg" width="73.326" height="57.954" viewBox="0 0 73.326 57.954">
  <path id="Path_6638" data-name="Path 6638" d="M18.172-88.419H5.349C2.891-96.877-.891-96.9-.891-96.9s-17.153-.189-17.719,0c-5.55,1.734-6.778,7.554-6.941,8.481H-38.237A8.459,8.459,0,0,0-46.7-79.96v32.47a8.459,8.459,0,0,0,8.459,8.459H18.172A8.459,8.459,0,0,0,26.63-47.49V-79.96A8.459,8.459,0,0,0,18.172-88.419Z" transform="translate(46.696 96.984)" fill="#2980b9"/>
  <path id="Path_6639" data-name="Path 6639" d="M-18.255-53.385A17.754,17.754,0,0,1-35.986-71.119,17.753,17.753,0,0,1-18.255-88.852,17.753,17.753,0,0,1-.521-71.119,17.755,17.755,0,0,1-18.255-53.385Zm0-29.414a11.694,11.694,0,0,0-11.68,11.68,11.694,11.694,0,0,0,11.68,11.681A11.694,11.694,0,0,0-6.572-71.119,11.694,11.694,0,0,0-18.255-82.8Z" transform="translate(55.483 104.284)" fill="#fff"/>
  <path id="Path_6640" data-name="Path 6640" d="M-35.574-81.549h-4.713a3.47,3.47,0,0,1-3.47-3.472,3.47,3.47,0,0,1,3.47-3.472h4.713A3.471,3.471,0,0,1-32.1-85.021,3.471,3.471,0,0,1-35.574-81.549Z" transform="translate(48.391 101.881)" fill="#fff"/>
</svg>
