<svg xmlns="http://www.w3.org/2000/svg" width="71.056" height="67.664" viewBox="0 0 71.056 67.664">
  <g id="icon-takenotes" transform="translate(0.5 0.5)">
    <path id="Union_2" data-name="Union 2" d="M4.146,66.664A4.244,4.244,0,0,1,0,62.337V5.608A4.244,4.244,0,0,1,4.146,1.281H47.914A4.244,4.244,0,0,1,52.06,5.608V7.838L55.844.855a1.622,1.622,0,0,1,.974-.794A1.534,1.534,0,0,1,57.248,0a1.56,1.56,0,0,1,.8.22l11.19,6.646A1.673,1.673,0,0,1,70,7.891a1.744,1.744,0,0,1-.164,1.285L52.06,41V62.337a4.244,4.244,0,0,1-4.146,4.327ZM3.225,5.608v56.73a.943.943,0,0,0,.921.961H47.914a.943.943,0,0,0,.921-.961V46.775l-.437.782a1.661,1.661,0,0,1-.445.514l-12.138,9.2a1.558,1.558,0,0,1-1.751.1,1.7,1.7,0,0,1-.8-1.628l1.531-15.748a1.734,1.734,0,0,1,.2-.659L48.835,13.79V5.608a.943.943,0,0,0-.921-.961H4.146A.943.943,0,0,0,3.225,5.608Zm33.61,46.731,8.6-6.521L37.9,41.4ZM47.212,43l15.638-28-8.323-4.873L39.242,38.331ZM64.474,12.085,66.225,8.95,57.855,3.98l-1.74,3.212ZM13.591,25.319a1.684,1.684,0,0,1,0-3.365H38.469a1.684,1.684,0,0,1,0,3.365Zm0-8.654a1.684,1.684,0,0,1,0-3.365H38.469a1.684,1.684,0,0,1,0,3.365Z" transform="translate(0 0)" fill="#2980b9" stroke="#2980b9" stroke-width="1"/>
  </g>
</svg>
