<?xml version="1.0" encoding="utf-8"?>
<!-- Generator: Adobe Illustrator 21.1.0, SVG Export Plug-In . SVG Version: 6.00 Build 0)  -->
<svg version="1.2" baseProfile="tiny" id="Layer_1" xmlns="http://www.w3.org/2000/svg" xmlns:xlink="http://www.w3.org/1999/xlink"
	 x="0px" y="0px" viewBox="0 0 927.1 903.6" xml:space="preserve">
<g>
	<rect x="4.6" y="119.8" fill="#2980B9" width="10.3" height="24"/>
	<rect x="179.9" y="119.8" fill="#2980B9" width="10.3" height="24"/>
	<path fill="#2980B9" d="M577,143.8H243.2v-24H577c48.4,0,93.1,16.5,128.6,44.1c-8.8,3-17.3,6.8-25.4,11.2
		C650.7,155.3,615.2,143.8,577,143.8z"/>
	<path fill="#2980B9" d="M716.1,518c-37.5,33.4-86.9,53.8-141,53.8H145.4C78.5,571.8,24,626.2,24,693.2
		c0,68.7,55.9,124.6,124.6,124.6h94.6v24h-94.6C66.7,841.8,0,775.1,0,693.2C0,613,65.2,547.8,145.4,547.8h429.8
		c43.2,0,83.1-14.7,114.9-39.3C698.4,512.4,707.1,515.6,716.1,518z"/>
	<path fill="#2980B9" d="M761.9,382H786c-0.8,7.8-2,15.5-3.7,23h-24.6C759.6,397.5,761,389.8,761.9,382z"/>
	<path fill="#2980B9" d="M787.2,330v17.4h-15.7V360c0,8.4-3.1,14.8-9.3,19.4c0.7-6.5,1-13.1,1-19.7V330c0-16.7-2.2-33-6.4-48.4
		c5.9-4.6,13.4-7.2,22.8-7.8c2,7.2,3.6,14.5,4.8,21.9c-3.9,0.2-7,1.6-9.2,3.9c-2.5,2.6-3.7,6.4-3.7,11.3V328h15.7
		C787.2,328.6,787.2,329.3,787.2,330z"/>
	<path fill="#FFFFFF" d="M168.4,0h-142C14.5,0,4.6,9.8,4.6,21.8v264c0,12,9.8,21.8,21.8,21.8h142c11.9,0,21.8-9.6,21.8-21.8v-264
		C190.2,9.8,180.4,0,168.4,0z M179.9,271.2h-165V36.8h165V271.2z"/>
	<path fill="#FFFFFF" d="M314.4,693.4c0-33.3,27-60.3,60.3-60.3c33.3,0,60.3,27,60.3,60.3c0,18.9-8.7,35.8-22.4,46.9
		c-10.4,8.4-23.6,13.4-38,13.4c-14.4,0-27.6-5-38-13.4C323.2,729.2,314.4,712.3,314.4,693.4z"/>
	<path fill="#2980B9" d="M168.4,0h-142C14.5,0,4.6,9.8,4.6,21.8v264c0,12,9.8,21.8,21.8,21.8h142c11.9,0,21.8-9.6,21.8-21.8v-264
		C190.2,9.8,180.4,0,168.4,0z M81.9,20.4c0-1.2,1-2.1,2.1-2.1h26.8c1.1,0,2.1,1,2.1,2.1v3.1c0,1.2-1,2.1-2.1,2.1H84
		c-1.2,0-2.1-1-2.1-2.1V20.4z M179.9,271.2h-165V36.8h165V271.2z"/>
	<g>
		<path fill="#FFFFFF" d="M821.6,382v23h-92.8V383c6.1-2.6,10.3-5.6,12.5-9c2.2-3.4,3.4-8,3.4-13.9v-12.8h-15.8V328h15.8v-17.3
			c0-11.9,3.4-21,10.1-27.4c0.6-0.6,1.3-1.2,2-1.7c5.9-4.6,13.4-7.2,22.8-7.8c1.3-0.1,2.6-0.1,4-0.1c11.5,0,23,2.5,34.5,7.3
			l-8.2,20.4c-9.3-3.8-17.3-5.7-24.1-5.7c-0.5,0-0.9,0-1.4,0c-3.9,0.2-7,1.6-9.2,3.9c-2.5,2.6-3.7,6.4-3.7,11.3V328h33.2v19.4h-33.2
			V360c0,8.4-3.1,14.8-9.3,19.4v0c-0.1,0.8-0.2,1.7-0.3,2.5H821.6z"/>
		<g>
			<path fill="#2980B9" d="M821.6,382v23h-92.8V383c6.1-2.6,10.3-5.6,12.5-9c2.2-3.4,3.4-8,3.4-13.9v-12.8h-15.8V328h15.8v-17.3
				c0-11.9,3.4-21,10.1-27.4c0.6-0.6,1.3-1.2,2-1.7c5.9-4.6,13.4-7.2,22.8-7.8c1.3-0.1,2.6-0.1,4-0.1c11.5,0,23,2.5,34.5,7.3
				l-8.2,20.4c-9.3-3.8-17.3-5.7-24.1-5.7c-0.5,0-0.9,0-1.4,0c-3.9,0.2-7,1.6-9.2,3.9c-2.5,2.6-3.7,6.4-3.7,11.3V328h33.2v19.4
				h-33.2V360c0,8.4-3.1,14.8-9.3,19.4v0c-1.2,0.9-2.6,1.8-4.1,2.5H821.6z"/>
		</g>
		<path fill="#2980B9" d="M927.1,352.9l-12.5,0c-6.9,70.8-66.7,126.4-139.3,126.4c-8.1,0-16-0.7-23.7-2c-8.5-1.5-16.8-3.7-24.7-6.6
			c-44.6-16.5-78.6-55-88.6-102.2l8.9-13.4c6.1,49.5,40.3,90.5,86.2,106.3c7.9,2.7,16.1,4.7,24.6,5.8c5.7,0.8,11.4,1.2,17.3,1.2
			c66.5,0,121.4-50.6,128.3-115.4l-11.8,0l2.6-3.8l9.8-14.6v0l5.3-7.9l5.7,8.5l6.4,9.5L927.1,352.9z"/>
		<path fill="#2980B9" d="M912.4,311.1l-9,13.5c-7.3-64.2-62-114.3-128.2-114.3c-8.2,0-16.2,0.8-23.9,2.2c-8.4,1.6-16.6,4-24.3,7.1
			c-43.4,17.6-75.1,58.1-80.1,106.5l12.3,0l-2.6,3.8l-10.3,15.3l-4.8,7.2l-6.2-9.3v0l-5.8-8.7l-5.6-8.3l12,0
			c4.9-51.9,38.1-95.6,84.1-115.4c7.8-3.4,15.9-6,24.4-7.9c10-2.3,20.3-3.5,31-3.5C842.8,199.3,899.3,247.4,912.4,311.1z"/>
	</g>
	<g>
		<path fill="#2980B9" d="M421.3,745.5c-12.4,11.1-28.7,17.8-46.6,17.8c-17.9,0-34.2-6.7-46.6-17.8c-22.4,15.2-39.5,41.2-47,72.3
			c-1.8,7.7-3.1,15.7-3.7,24c-0.3,3.7-0.4,7.4-0.4,11.2c0,67.5,195.3,67.5,195.3,0C472.4,806.5,451.8,766.2,421.3,745.5z M421.6,800
			L369,861.6c-1.8,2.1-4.3,3.3-7,3.4c-0.1,0-0.2,0-0.4,0c-2.6,0-5-1-6.9-2.8l-20.4-20.4l-5.9-5.9c-3.8-3.8-3.8-9.9,0-13.7
			c3.8-3.8,9.9-3.8,13.7,0l19,19l19.9-23.3l25.9-30.3c3.5-4.1,9.6-4.6,13.7-1.1C424.6,789.8,425.1,796,421.6,800z"/>
		<g>
			<path fill="#2980B9" d="M435.1,693.4c0,18.9-8.7,35.8-22.4,46.9c-10.4,8.4-23.6,13.4-38,13.4c-14.4,0-27.6-5-38-13.4
				c-13.6-11.1-22.4-28-22.4-46.9c0-33.3,27-60.3,60.3-60.3C408.1,633.1,435.1,660.1,435.1,693.4z"/>
		</g>
	</g>
</g>
</svg>
