<svg id="policy-information-header" xmlns="http://www.w3.org/2000/svg" xmlns:xlink="http://www.w3.org/1999/xlink" width="1920" height="350" viewBox="250 100 1400 240">
  <defs>
    <linearGradient id="linear-gradient" y1="50%" x2="50%" y2="50%" gradientUnits="objectBoundingBox">
      <stop offset="0.007" stop-color="#ad612d"/>
      <stop offset="1" stop-color="#ee7626"/>
    </linearGradient>
    <linearGradient id="linear-gradient-2" x1="-65.451" y1="0.5" x2="-64.451" y2="0.5" gradientUnits="objectBoundingBox">
      <stop offset="0" stop-color="#000f1c"/>
      <stop offset="1" stop-color="#012a45"/>
    </linearGradient>
    <linearGradient id="linear-gradient-3" x1="-47.331" y1="0.5" x2="-46.331" y2="0.5" xlink:href="#linear-gradient-2"/>
    <linearGradient id="linear-gradient-4" x1="-63.71" y1="0.5" x2="-62.711" y2="0.5" gradientUnits="objectBoundingBox">
      <stop offset="0.012" stop-color="#ad4f2d"/>
      <stop offset="1" stop-color="#f2985c"/>
    </linearGradient>
    <clipPath id="clip-path">
      <path id="Path_3360" data-name="Path 3360" d="M926.782,141.424l4.036-4.192a4.091,4.091,0,0,0-.3.352l-4.036,4.193A3.948,3.948,0,0,1,926.782,141.424Z" fill="none"/>
    </clipPath>
  </defs>
  <rect id="Rectangle_911" data-name="Rectangle 911" width="1920" height="350" fill="#fff"/>
  <g id="Group_14602" data-name="Group 14602" transform="translate(-0.037 -0.343)">
    <path id="Path_3253" data-name="Path 3253" d="M999.806,319.915l-2.6-1.5-3.981-2.3-11.9-6.872-1.919,1.111,14.467,8.355,3.981,2.3.021.011Z" fill="#16297a" opacity="0.33"/>
    <path id="Path_3254" data-name="Path 3254" d="M1020.072,308.451l-1.935,1.1-.005-.005-3.981-2.3-3.885-2.243-3.556-2.052-3.837-2.216-5.283-3.051,1.919-1.105,5.3,3.061,3.837,2.216,3.556,2.046,1.3.755,3.981,2.3Z" fill="#16297a" opacity="0.33"/>
    <path id="Path_3255" data-name="Path 3255" d="M1070.16,259.62l-57.922,33.447-58.888-33.42,57.922-33.447Z" opacity="0.22"/>
    <g id="Group_14463" data-name="Group 14463">
      <g id="Group_14462" data-name="Group 14462">
        <g id="Group_14461" data-name="Group 14461" style="isolation: isolate">
          <g id="Group_14457" data-name="Group 14457" style="mix-blend-mode: overlay;isolation: isolate">
            <g id="Group_14456" data-name="Group 14456">
              <path id="Path_3256" data-name="Path 3256" d="M1014.461,263.038l-.111,29.12L960.76,323.3l.111-29.12Z" fill="#5499c7"/>
            </g>
          </g>
          <g id="Group_14459" data-name="Group 14459">
            <g id="Group_14458" data-name="Group 14458">
              <path id="Path_3257" data-name="Path 3257" d="M960.871,294.181l-.111,29.12-53.934-31.139.111-29.12Z" fill="#2c6696"/>
            </g>
          </g>
          <g id="Group_14460" data-name="Group 14460">
            <path id="Path_3258" data-name="Path 3258" d="M1014.461,263.038l-53.59,31.143-53.934-31.139,53.59-31.143Z" fill="#125389"/>
          </g>
        </g>
      </g>
      <path id="Path_3259" data-name="Path 3259" d="M938.8,299.542l-13.28-7.667V288.82l13.28,7.667Z" fill="#5499c7"/>
    </g>
    <g id="Group_14471" data-name="Group 14471">
      <g id="Group_14470" data-name="Group 14470">
        <g id="Group_14469" data-name="Group 14469" style="isolation: isolate">
          <g id="Group_14465" data-name="Group 14465" style="mix-blend-mode: overlay;isolation: isolate">
            <g id="Group_14464" data-name="Group 14464">
              <path id="Path_3260" data-name="Path 3260" d="M1014.461,232.631l-.111,29.12-53.59,31.143.111-29.12Z" fill="#5499c7"/>
            </g>
          </g>
          <g id="Group_14467" data-name="Group 14467">
            <g id="Group_14466" data-name="Group 14466">
              <path id="Path_3261" data-name="Path 3261" d="M960.871,263.774l-.111,29.12-53.934-31.139.111-29.12Z" fill="#2c6696"/>
            </g>
          </g>
          <g id="Group_14468" data-name="Group 14468">
            <path id="Path_3262" data-name="Path 3262" d="M1014.461,232.631l-53.59,31.143-53.934-31.139,53.59-31.143Z" fill="#125389"/>
          </g>
        </g>
      </g>
      <path id="Path_3263" data-name="Path 3263" d="M938.8,269.135l-13.28-7.667v-3.055l13.28,7.667Z" fill="#5499c7"/>
    </g>
    <g id="Group_14479" data-name="Group 14479">
      <g id="Group_14478" data-name="Group 14478">
        <g id="Group_14477" data-name="Group 14477" style="isolation: isolate">
          <g id="Group_14473" data-name="Group 14473" style="mix-blend-mode: overlay;isolation: isolate">
            <g id="Group_14472" data-name="Group 14472">
              <path id="Path_3264" data-name="Path 3264" d="M1014.461,202.31l-.111,29.12-53.59,31.143.111-29.12Z" fill="#5499c7"/>
            </g>
          </g>
          <g id="Group_14475" data-name="Group 14475">
            <g id="Group_14474" data-name="Group 14474">
              <path id="Path_3265" data-name="Path 3265" d="M960.871,233.453l-.111,29.12-53.934-31.139.111-29.12Z" fill="#2c6696"/>
            </g>
          </g>
          <g id="Group_14476" data-name="Group 14476">
            <path id="Path_3266" data-name="Path 3266" d="M1014.461,202.31l-53.59,31.143-53.934-31.139,53.59-31.143Z" fill="#125389"/>
          </g>
        </g>
      </g>
      <path id="Path_3267" data-name="Path 3267" d="M938.8,238.814l-13.28-7.667v-3.055l13.28,7.667Z" fill="#0082ff"/>
    </g>
    <g id="Group_14480" data-name="Group 14480">
      <path id="Path_3268" data-name="Path 3268" d="M1014.436,171.895l-128.859,74.9-53.934-31.139,128.859-74.9Z" fill="#125389"/>
    </g>
    <g id="Group_14492" data-name="Group 14492">
      <g id="Group_14485" data-name="Group 14485">
        <g id="Group_14484" data-name="Group 14484" style="isolation: isolate">
          <g id="Group_14481" data-name="Group 14481">
            <path id="Path_3269" data-name="Path 3269" d="M945.358,198.678l2.83-1.644-.115,40.581-2.829,1.644Z" fill="#a7cbe2"/>
          </g>
          <g id="Group_14482" data-name="Group 14482">
            <path id="Path_3270" data-name="Path 3270" d="M900.168,172.588l2.83-1.644,45.19,26.09-2.83,1.644Z" fill="#a7cbe2"/>
          </g>
          <g id="Group_14483" data-name="Group 14483">
            <path id="Path_3271" data-name="Path 3271" d="M945.358,198.678l-.115,40.581-45.19-26.09.115-40.581Z" fill="#92b0c9"/>
          </g>
        </g>
      </g>
      <path id="Path_3272" data-name="Path 3272" d="M901.227,168.973v45.175l43.71,25.236V194.209Z" fill="#bfd9ea"/>
      <path id="Path_3273" data-name="Path 3273" d="M900.173,169.425V214.6l43.71,25.236V194.661Z" fill="#fff"/>
      <g id="Group_14491" data-name="Group 14491" style="isolation: isolate">
        <g id="Group_14486" data-name="Group 14486">
          <path id="Path_3274" data-name="Path 3274" d="M912.593,178.3l2.83-1.644-.023,7.982-2.83,1.644Z" fill="#a7cbe2"/>
        </g>
        <g id="Group_14487" data-name="Group 14487">
          <path id="Path_3275" data-name="Path 3275" d="M894.368,167.775l2.829-1.644,18.224,10.522-2.83,1.644Z" fill="#ecf4f9"/>
        </g>
        <g id="Group_14488" data-name="Group 14488">
          <path id="Path_3276" data-name="Path 3276" d="M939.535,201.847l2.83-1.644-.115,40.581-2.83,1.644Z" fill="#a7cbe2"/>
        </g>
        <g id="Group_14489" data-name="Group 14489">
          <path id="Path_3277" data-name="Path 3277" d="M912.57,186.279l2.83-1.644L942.365,200.2l-2.83,1.644Z" fill="#ecf4f9"/>
        </g>
        <g id="Group_14490" data-name="Group 14490">
          <path id="Path_3278" data-name="Path 3278" d="M912.593,178.3l-.023,7.982,26.965,15.568-.115,40.581-45.19-26.09.138-48.563Z" fill="#bfd9ea"/>
        </g>
      </g>
    </g>
    <g id="Group_14504" data-name="Group 14504">
      <g id="Group_14497" data-name="Group 14497">
        <g id="Group_14496" data-name="Group 14496" style="isolation: isolate">
          <g id="Group_14493" data-name="Group 14493">
            <path id="Path_3279" data-name="Path 3279" d="M934.693,204.279l2.83-1.644-.115,40.581-2.829,1.644Z" fill="#a7cbe2"/>
          </g>
          <g id="Group_14494" data-name="Group 14494">
            <path id="Path_3280" data-name="Path 3280" d="M889.5,178.189l2.829-1.644,45.19,26.09-2.83,1.644Z" fill="#a7cbe2"/>
          </g>
          <g id="Group_14495" data-name="Group 14495">
            <path id="Path_3281" data-name="Path 3281" d="M934.693,204.279l-.115,40.581-45.19-26.09.115-40.581Z" fill="#92b0c9"/>
          </g>
        </g>
      </g>
      <path id="Path_3282" data-name="Path 3282" d="M890.562,174.574V219.75l43.71,25.236V199.81Z" fill="#ecf4f9"/>
      <path id="Path_3283" data-name="Path 3283" d="M889.509,175.026V220.2l43.71,25.236V200.262Z" fill="#fff"/>
      <g id="Group_14503" data-name="Group 14503" style="isolation: isolate">
        <g id="Group_14498" data-name="Group 14498">
          <path id="Path_3284" data-name="Path 3284" d="M901.928,183.9l2.829-1.644-.023,7.982-2.83,1.644Z" fill="#a7cbe2"/>
        </g>
        <g id="Group_14499" data-name="Group 14499">
          <path id="Path_3285" data-name="Path 3285" d="M883.7,173.376l2.829-1.644,18.224,10.522-2.829,1.644Z" fill="#ecf4f9"/>
        </g>
        <g id="Group_14500" data-name="Group 14500">
          <path id="Path_3286" data-name="Path 3286" d="M928.87,207.448,931.7,205.8l-.115,40.581-2.829,1.644Z" fill="#a7cbe2"/>
        </g>
        <g id="Group_14501" data-name="Group 14501">
          <path id="Path_3287" data-name="Path 3287" d="M901.905,191.88l2.83-1.644L931.7,205.8l-2.829,1.644Z" fill="#ecf4f9"/>
        </g>
        <g id="Group_14502" data-name="Group 14502">
          <path id="Path_3288" data-name="Path 3288" d="M901.928,183.9l-.023,7.982,26.965,15.568-.115,40.581-45.19-26.09.138-48.563Z" fill="#bfd9ea"/>
        </g>
      </g>
    </g>
    <g id="Group_14516" data-name="Group 14516">
      <g id="Group_14509" data-name="Group 14509">
        <g id="Group_14508" data-name="Group 14508" style="isolation: isolate">
          <g id="Group_14505" data-name="Group 14505">
            <path id="Path_3289" data-name="Path 3289" d="M923.329,210.054l2.83-1.644-.115,40.581-2.83,1.644Z" fill="#f18c49"/>
          </g>
          <g id="Group_14506" data-name="Group 14506">
            <path id="Path_3290" data-name="Path 3290" d="M878.14,183.964l2.83-1.644,45.19,26.09-2.83,1.644Z" fill="#f7bf99"/>
          </g>
          <g id="Group_14507" data-name="Group 14507">
            <path id="Path_3291" data-name="Path 3291" d="M923.329,210.054l-.115,40.581-45.19-26.09.115-40.581Z" fill="url(#linear-gradient)"/>
          </g>
        </g>
      </g>
      <path id="Path_3292" data-name="Path 3292" d="M878.875,180.4v45.175l43.71,25.236V205.638Z" fill="#e5f0f7"/>
      <g id="Group_14515" data-name="Group 14515" style="isolation: isolate">
        <g id="Group_14510" data-name="Group 14510">
          <path id="Path_3293" data-name="Path 3293" d="M890.564,189.673l2.829-1.644-.023,7.982-2.83,1.644Z" fill="#f3a26b"/>
        </g>
        <g id="Group_14511" data-name="Group 14511">
          <path id="Path_3294" data-name="Path 3294" d="M872.339,179.151l2.829-1.644,18.224,10.522-2.829,1.644Z" fill="#f7bf99"/>
        </g>
        <g id="Group_14512" data-name="Group 14512">
          <path id="Path_3295" data-name="Path 3295" d="M917.506,213.223l2.829-1.644-.115,40.581-2.83,1.644Z" fill="#f18c49"/>
        </g>
        <g id="Group_14513" data-name="Group 14513">
          <path id="Path_3296" data-name="Path 3296" d="M890.541,197.655l2.83-1.644,26.965,15.568-2.829,1.644Z" fill="#f7bd97"/>
        </g>
        <g id="Group_14514" data-name="Group 14514">
          <path id="Path_3297" data-name="Path 3297" d="M890.564,189.673l-.023,7.982,26.965,15.568-.115,40.581-45.19-26.09.138-48.563Z" fill="#ee7626"/>
        </g>
      </g>
    </g>
    <g id="Group_14524" data-name="Group 14524">
      <g id="Group_14523" data-name="Group 14523">
        <g id="Group_14522" data-name="Group 14522" style="isolation: isolate">
          <g id="Group_14518" data-name="Group 14518" style="mix-blend-mode: overlay;isolation: isolate">
            <g id="Group_14517" data-name="Group 14517">
              <path id="Path_3298" data-name="Path 3298" d="M1014.461,142.024l-.111,29.12-53.59,31.143.111-29.12Z" fill="#5499c7"/>
            </g>
          </g>
          <g id="Group_14520" data-name="Group 14520">
            <g id="Group_14519" data-name="Group 14519">
              <path id="Path_3299" data-name="Path 3299" d="M960.871,173.167l-.111,29.12-53.934-31.139.111-29.12Z" fill="#2c6696"/>
            </g>
          </g>
          <g id="Group_14521" data-name="Group 14521">
            <path id="Path_3300" data-name="Path 3300" d="M1014.461,142.024l-53.59,31.143-53.934-31.139,53.59-31.143Z" fill="#9fc6df"/>
          </g>
        </g>
      </g>
      <path id="Path_3301" data-name="Path 3301" d="M938.8,178.528l-13.28-7.667v-3.055l13.28,7.667Z" fill="#5499c7"/>
    </g>
    <g id="Group_14536" data-name="Group 14536">
      <g id="Group_14529" data-name="Group 14529">
        <g id="Group_14528" data-name="Group 14528" style="isolation: isolate">
          <g id="Group_14525" data-name="Group 14525">
            <path id="Path_3302" data-name="Path 3302" d="M912.019,216.679l2.83-1.644-.115,40.581-2.83,1.644Z" fill="#a7cbe2"/>
          </g>
          <g id="Group_14526" data-name="Group 14526">
            <path id="Path_3303" data-name="Path 3303" d="M866.83,190.589l2.83-1.644,45.19,26.09-2.83,1.644Z" fill="#ecf4f9"/>
          </g>
          <g id="Group_14527" data-name="Group 14527">
            <path id="Path_3304" data-name="Path 3304" d="M912.019,216.679,911.9,257.26l-45.19-26.09.115-40.581Z" fill="#92b0c9"/>
          </g>
        </g>
      </g>
      <path id="Path_3305" data-name="Path 3305" d="M867.888,186.974v45.175l43.71,25.236V212.21Z" fill="#e5f0f7"/>
      <path id="Path_3306" data-name="Path 3306" d="M866.834,187.426V232.6l43.71,25.236V212.661Z" fill="#bfd9ea"/>
      <g id="Group_14535" data-name="Group 14535" style="isolation: isolate">
        <g id="Group_14530" data-name="Group 14530">
          <path id="Path_3307" data-name="Path 3307" d="M879.254,196.3l2.83-1.644-.023,7.982-2.83,1.644Z" fill="#a7cbe2"/>
        </g>
        <g id="Group_14531" data-name="Group 14531">
          <path id="Path_3308" data-name="Path 3308" d="M861.029,185.776l2.829-1.644,18.225,10.522-2.83,1.644Z" fill="#ecf4f9"/>
        </g>
        <g id="Group_14532" data-name="Group 14532">
          <path id="Path_3309" data-name="Path 3309" d="M906.2,219.848l2.83-1.644-.115,40.581-2.83,1.644Z" fill="#a7cbe2"/>
        </g>
        <g id="Group_14533" data-name="Group 14533">
          <path id="Path_3310" data-name="Path 3310" d="M879.231,204.279l2.83-1.644L909.026,218.2l-2.83,1.644Z" fill="#ecf4f9"/>
        </g>
        <g id="Group_14534" data-name="Group 14534">
          <path id="Path_3311" data-name="Path 3311" d="M879.254,196.3l-.023,7.982L906.2,219.848l-.115,40.581-45.19-26.09.138-48.563Z" fill="#bfd9ea"/>
        </g>
      </g>
    </g>
    <g id="Group_14548" data-name="Group 14548">
      <g id="Group_14541" data-name="Group 14541">
        <g id="Group_14540" data-name="Group 14540" style="isolation: isolate">
          <g id="Group_14537" data-name="Group 14537">
            <path id="Path_3312" data-name="Path 3312" d="M901.354,223.924l2.83-1.644-.115,40.581-2.829,1.644Z" fill="#a7cbe2"/>
          </g>
          <g id="Group_14538" data-name="Group 14538">
            <path id="Path_3313" data-name="Path 3313" d="M856.165,197.834l2.829-1.644,45.19,26.09-2.83,1.644Z" fill="#a7cbe2"/>
          </g>
          <g id="Group_14539" data-name="Group 14539">
            <path id="Path_3314" data-name="Path 3314" d="M901.354,223.924l-.115,40.581-45.19-26.09.115-40.581Z" fill="#92b0c9"/>
          </g>
        </g>
      </g>
      <path id="Path_3315" data-name="Path 3315" d="M857.223,194.219v45.175l43.71,25.236V219.455Z" fill="#ecf4f9"/>
      <path id="Path_3316" data-name="Path 3316" d="M856.17,194.671v45.175l43.71,25.236V219.907Z" fill="#fff"/>
      <g id="Group_14547" data-name="Group 14547" style="isolation: isolate">
        <g id="Group_14542" data-name="Group 14542">
          <path id="Path_3317" data-name="Path 3317" d="M868.589,203.543l2.83-1.644-.023,7.982-2.83,1.644Z" fill="#a7cbe2"/>
        </g>
        <g id="Group_14543" data-name="Group 14543">
          <path id="Path_3318" data-name="Path 3318" d="M850.365,193.021l2.83-1.644L871.419,201.9l-2.83,1.644Z" fill="#ecf4f9"/>
        </g>
        <g id="Group_14544" data-name="Group 14544">
          <path id="Path_3319" data-name="Path 3319" d="M895.531,227.093l2.829-1.644-.115,40.581-2.83,1.644Z" fill="#a7cbe2"/>
        </g>
        <g id="Group_14545" data-name="Group 14545">
          <path id="Path_3320" data-name="Path 3320" d="M868.566,211.525l2.83-1.644,26.965,15.568-2.829,1.644Z" fill="#ecf4f9"/>
        </g>
        <g id="Group_14546" data-name="Group 14546">
          <path id="Path_3321" data-name="Path 3321" d="M868.589,203.543l-.023,7.982,26.965,15.568-.115,40.581-45.19-26.09.138-48.563Z" fill="#bfd9ea"/>
        </g>
      </g>
    </g>
    <g id="Group_14550" data-name="Group 14550">
      <g id="Group_14549" data-name="Group 14549">
        <path id="Path_3322" data-name="Path 3322" d="M1014.436,171.895l-.111,29.12-128.859,74.9.111-29.12Z" fill="#5499c7"/>
      </g>
    </g>
    <g id="Group_14553" data-name="Group 14553">
      <g id="Group_14552" data-name="Group 14552">
        <g id="Group_14551" data-name="Group 14551">
          <path id="Path_3323" data-name="Path 3323" d="M885.577,246.794l-.111,29.12-53.934-31.139.111-29.12Z" fill="#2c6696"/>
        </g>
      </g>
      <path id="Path_3324" data-name="Path 3324" d="M863.507,252.155l-13.28-7.667v-3.055l13.28,7.667Z" fill="#5499c7"/>
    </g>
    <path id="Path_3325" data-name="Path 3325" d="M983.14,310.3l-1.909,1.111-8.653-74.27-.266-2.243,1.807-1.042.26,2.243Z" fill="#16297a" opacity="0.33"/>
    <path id="Path_3326" data-name="Path 3326" d="M1003.139,298.677l-1.913,1.105-8.647-74.191-.26-2.248,1.812-1.052.266,2.248Z" fill="#16297a" opacity="0.33"/>
    <g id="Group_14588" data-name="Group 14588">
      <g id="Group_14555" data-name="Group 14555">
        <g id="Group_14554" data-name="Group 14554">
          <path id="Path_3327" data-name="Path 3327" d="M1016.152,301.671l-3.939-2.16,1.977,7.879,3.939,2.16Z" fill="#83b5d6"/>
        </g>
      </g>
      <g id="Group_14557" data-name="Group 14557">
        <g id="Group_14556" data-name="Group 14556">
          <path id="Path_3328" data-name="Path 3328" d="M1012.464,286.97l-3.939-2.16,2.8,11.144,3.939,2.16Z" fill="#83b5d6"/>
        </g>
      </g>
      <g id="Group_14559" data-name="Group 14559">
        <g id="Group_14558" data-name="Group 14558">
          <path id="Path_3329" data-name="Path 3329" d="M1015.26,298.115l-3.939-2.16L993,306.327l3.939,2.16Z" fill="#eef5f9"/>
        </g>
      </g>
      <g id="Group_14561" data-name="Group 14561">
        <g id="Group_14560" data-name="Group 14560">
          <path id="Path_3330" data-name="Path 3330" d="M1008.775,272.27l-3.939-2.16,2.8,11.144,3.939,2.16Z" fill="#83b5d6"/>
        </g>
      </g>
      <g id="Group_14563" data-name="Group 14563">
        <g id="Group_14562" data-name="Group 14562">
          <path id="Path_3331" data-name="Path 3331" d="M1011.571,283.415l-3.939-2.16-18.324,10.372,3.939,2.16Z" fill="#eef5f9"/>
        </g>
      </g>
      <g id="Group_14565" data-name="Group 14565">
        <g id="Group_14564" data-name="Group 14564">
          <path id="Path_3332" data-name="Path 3332" d="M1005.086,257.57l-3.939-2.159,2.8,11.144,3.939,2.16Z" fill="#83b5d6"/>
        </g>
      </g>
      <g id="Group_14567" data-name="Group 14567">
        <g id="Group_14566" data-name="Group 14566">
          <path id="Path_3333" data-name="Path 3333" d="M1007.882,268.715l-3.939-2.16-18.324,10.372,3.939,2.16Z" fill="#eef5f9"/>
        </g>
      </g>
      <g id="Group_14569" data-name="Group 14569">
        <g id="Group_14568" data-name="Group 14568">
          <path id="Path_3334" data-name="Path 3334" d="M1001.4,242.87l-3.939-2.16,2.8,11.144,3.939,2.16Z" fill="#83b5d6"/>
        </g>
      </g>
      <g id="Group_14571" data-name="Group 14571">
        <g id="Group_14570" data-name="Group 14570">
          <path id="Path_3335" data-name="Path 3335" d="M1004.194,254.014l-3.939-2.16-18.324,10.372,3.939,2.159Z" fill="#eef5f9"/>
        </g>
      </g>
      <g id="Group_14573" data-name="Group 14573">
        <g id="Group_14572" data-name="Group 14572">
          <path id="Path_3336" data-name="Path 3336" d="M997.708,228.17l-3.939-2.16,2.8,11.144,3.939,2.159Z" fill="#83b5d6"/>
        </g>
      </g>
      <g id="Group_14575" data-name="Group 14575">
        <g id="Group_14574" data-name="Group 14574">
          <path id="Path_3337" data-name="Path 3337" d="M997.562,218.7l-3.939-2.16-1.952,1.1,3.939,2.16Z" fill="#eef5f9"/>
        </g>
      </g>
      <g id="Group_14577" data-name="Group 14577">
        <g id="Group_14576" data-name="Group 14576">
          <path id="Path_3338" data-name="Path 3338" d="M995.61,219.81l-3.939-2.16,1.206,4.8,3.939,2.159Z" fill="#83b5d6"/>
        </g>
      </g>
      <g id="Group_14579" data-name="Group 14579">
        <g id="Group_14578" data-name="Group 14578">
          <path id="Path_3339" data-name="Path 3339" d="M1000.5,239.314l-3.939-2.159-18.324,10.372,3.939,2.159Z" fill="#eef5f9"/>
        </g>
      </g>
      <g id="Group_14581" data-name="Group 14581">
        <g id="Group_14580" data-name="Group 14580">
          <path id="Path_3340" data-name="Path 3340" d="M996.816,224.614l-3.939-2.159-18.324,10.372,3.939,2.16Z" fill="#eef5f9"/>
        </g>
      </g>
      <g id="Group_14583" data-name="Group 14583">
        <g id="Group_14582" data-name="Group 14582">
          <path id="Path_3341" data-name="Path 3341" d="M977.286,230.182l-3.939-2.16-1.952,1.1,3.939,2.16Z" fill="#eef5f9"/>
        </g>
      </g>
      <g id="Group_14585" data-name="Group 14585">
        <g id="Group_14584" data-name="Group 14584">
          <path id="Path_3342" data-name="Path 3342" d="M997.563,218.7l-1.95,1.105,1.2,4.8-2.753,1.557-.218.127-15.349,8.69-.968-3.848-.239-.956-1.95,1.1.239.962.335,1.323,3.359,13.378.329,1.323,3.359,13.378.33,1.323,3.359,13.378.329,1.323,3.359,13.378.33,1.323,3.359,13.372.329,1.324,2.849,11.342.648,2.594.006.021.016-.011,1.934-1.1v-.005l-1.977-7.871,12.437-7.037,1.935-1.1.978-.553,2.976-1.685,1.329,5.288.648,2.589v.005h.005l1.935-1.1.011-.006Zm-15.381,30.98-.962-3.843-1.833-7.3,15.344-8.69,2.976-1.685,2.8,11.146-2.754,1.557-.223.127Zm3.689,14.7-.962-3.843-1.834-7.3,15.344-8.685,2.976-1.685,2.8,11.146-2.748,1.557-.223.127Zm3.688,14.7-.962-3.843-1.833-7.3,15.349-8.685,2.971-1.685,2.8,11.146-2.753,1.557-.223.127Zm3.689,14.7-.962-3.843-1.834-7.3,15.35-8.685,2.971-1.685,2.8,11.14-2.754,1.558-.223.127Zm19.038,6.011-3.641,2.062-1.935,1.1-9.774,5.533-.967-3.848-1.828-7.3,15.349-8.69,2.971-1.685,2.8,11.145-2.753,1.558Z" fill="#bfd9ea"/>
        </g>
      </g>
      <g id="Group_14587" data-name="Group 14587">
        <g id="Group_14586" data-name="Group 14586">
          <path id="Path_3343" data-name="Path 3343" d="M975.334,231.286l-3.939-2.16,22.519,89.74,3.939,2.159Z" fill="#83b5d6"/>
        </g>
      </g>
    </g>
    <g id="Group_14601" data-name="Group 14601">
      <path id="Path_3344" data-name="Path 3344" d="M974.935,182.5s-2.926.491-3.753.158a8.43,8.43,0,0,1-1.206-1.35,1.445,1.445,0,0,1-.3-.979l.245-.54,2.12.877.543-.632a1.212,1.212,0,0,1-.9-.677c-.317-.561.244-1,.512-.833a7.753,7.753,0,0,0,1.173.424s.561.3.792.4l.865.392Z" fill="#efb387"/>
      <path id="Path_3345" data-name="Path 3345" d="M986.467,184.519c-.329.808-2.439,1.512-2.439,1.512l-10.11-4.109,1.067-2.278,6.886,1.021,11.05-2.884S987.64,181.417,986.467,184.519Z" fill="#ee7626"/>
      <path id="Path_3346" data-name="Path 3346" d="M989.232,233.045H986.87l-1.652-.432-2.816.508-2.257-.7.135-1.509,4.408-.672,4.46-.047Z" fill="#001829"/>
      <path id="Path_3347" data-name="Path 3347" d="M986.2,234.186H983.84l-1.652-.432-2.816.508-2.257-.7.135-1.509,4.408-.672,4.46-.047Z" fill="#001829"/>
      <path id="Path_3348" data-name="Path 3348" d="M992.871,197.923l.389,3.778-2.064,9.894.857,6.427-2.844,13.633-3.428-.506-1.714-29.682Z" fill="url(#linear-gradient-2)"/>
      <path id="Path_3349" data-name="Path 3349" d="M977.991,199.091l-.389,5.648,3.636,12.465.422,14.174,4.46-.047.189-23.048.017-2.051,2.908-2.316,1.081-4.963Z" fill="url(#linear-gradient-3)"/>
      <path id="Path_3350" data-name="Path 3350" d="M996.221,181.328l-2.766,10.245-.582,6.348-5.82,2.343-2.986,1.2-6.077-2.373,1.652-4.906,1-2.962.66-10.986,3.778-3.193,5.884-2.143,4.361,1.635Z" fill="#f2985c"/>
      <g id="Group_14589" data-name="Group 14589">
        <path id="Path_3351" data-name="Path 3351" d="M983.39,167.944l-.283,1.049.142.481-.364.912.912,4.37.61.228.579.068,1.448-2.268.21-2.57-2.286-1.146Z" fill="#efb387"/>
        <path id="Path_3352" data-name="Path 3352" d="M984.968,174.478l-.074,2.835a9.357,9.357,0,0,0,2.859.074,16.945,16.945,0,0,0,3.119-1.516L990.638,173l-4.807-.481Z" fill="#efb387"/>
        <path id="Path_3353" data-name="Path 3353" d="M991.858,168.4l-1.112,5.474-4.1,1.774-1.608-1.962.553-1.275-.523-.669-.012-.015-.8.734-.615-.488.494-1.89-.556-.459-.752-1.129.3-1.061,2.8-1.476h1.664Z" fill="#915236"/>
        <path id="Path_3354" data-name="Path 3354" d="M991.858,168.4l-1.112,5.474-4.1,1.774-1.608-1.962.553-1.275-.523-.669.21-.958Z" fill="#713e23"/>
      </g>
      <path id="Path_3355" data-name="Path 3355" d="M987.107,198.29a7.453,7.453,0,0,0-.054,1.974l-2.986,1.2-6.078-2.373,2.395-7.109,6.956-8.421S987.662,195.3,987.107,198.29Z" fill="url(#linear-gradient-4)"/>
      <g id="Group_14600" data-name="Group 14600">
        <g id="Group_14598" data-name="Group 14598">
          <g id="Group_14594" data-name="Group 14594">
            <g id="Group_14593" data-name="Group 14593" style="isolation: isolate">
              <g id="Group_14590" data-name="Group 14590">
                <path id="Path_3356" data-name="Path 3356" d="M976.638,184.685l-2.314,2.382-15.892-14.553,2.314-2.382Z" fill="#a04b12"/>
              </g>
              <g id="Group_14591" data-name="Group 14591">
                <path id="Path_3357" data-name="Path 3357" d="M960.747,170.132l-2.314,2.382,2.2-2.9,2.314-2.382Z" fill="#556a92"/>
              </g>
              <g id="Group_14592" data-name="Group 14592">
                <path id="Path_3358" data-name="Path 3358" d="M962.943,167.234l15.892,14.553-2.2,2.9-15.892-14.553Z" fill="#f2985c"/>
              </g>
            </g>
          </g>
          <g id="Group_14597" data-name="Group 14597" style="isolation: isolate">
            <g id="Group_14596" data-name="Group 14596" clip-path="url(#clip-path)">
              <g id="Group_14595" data-name="Group 14595" style="isolation: isolate">
                <path id="Path_3359" data-name="Path 3359" d="M930.517,137.584l-4.036,4.193a3.948,3.948,0,0,1,.3-.353l4.036-4.192a4.091,4.091,0,0,0-.3.352" fill="#546991"/>
              </g>
            </g>
          </g>
          <path id="Path_3361" data-name="Path 3361" d="M962.4,168.408c-.088.066-.175.131-.268.189-.055.035-.112.065-.169.1-.087.049-.175.1-.266.143-.063.031-.128.058-.193.086-.091.039-.184.077-.279.111-.069.025-.14.047-.211.07-.1.03-.2.058-.295.083-.074.019-.149.037-.225.053-.1.022-.209.04-.316.057-.078.013-.156.025-.235.035-.112.014-.227.024-.343.033-.079.006-.157.013-.238.017-.125.006-.253.007-.381.007-.076,0-.15,0-.228,0-.154,0-.313-.013-.473-.024-.054,0-.107-.005-.162-.01q-.324-.027-.662-.075c-.053-.007-.109-.018-.163-.027-.173-.026-.347-.055-.524-.089-.085-.017-.173-.037-.259-.055-.149-.032-.3-.064-.451-.1-.1-.024-.2-.051-.3-.077-.145-.038-.29-.076-.437-.119-.1-.03-.209-.063-.314-.1-.146-.045-.292-.091-.44-.14l-.327-.112q-.222-.078-.447-.162l-.333-.127c-.153-.06-.308-.123-.463-.188-.109-.045-.218-.09-.328-.137-.189-.081-.379-.167-.569-.254-.089-.041-.177-.079-.267-.121q-.42-.2-.848-.413-.376-.192-.758-.4c-.082-.044-.165-.092-.248-.137-.166-.091-.333-.183-.5-.279-.37-.211-.743-.434-1.117-.665l-.269-.169q-.441-.276-.884-.571c-.061-.04-.123-.079-.184-.12q-.495-.333-.994-.689c-.088-.062-.176-.127-.263-.19q-.36-.26-.72-.53-.162-.122-.324-.246-.34-.261-.681-.532c-.095-.075-.19-.149-.285-.225-.315-.254-.629-.512-.944-.778-.02-.017-.04-.036-.061-.053-.295-.25-.589-.507-.883-.767-.232-.207-.464-.414-.7-.627-.2-.186-.4-.373-.6-.561q-.346-.328-.684-.661c-.087-.086-.176-.171-.262-.257q-.479-.477-.937-.957l-.159-.17q-.435-.461-.852-.924c-.1-.107-.194-.215-.29-.323l-.273-.312q-.2-.231-.4-.463c-.089-.1-.176-.208-.263-.312s-.188-.228-.281-.342q-.3-.372-.6-.745c-.071-.091-.143-.181-.213-.272-.254-.328-.5-.656-.74-.984q-.277-.381-.542-.76l-.118-.174c-.136-.2-.27-.394-.4-.59-.06-.091-.118-.182-.177-.273-.106-.163-.211-.326-.313-.488l-.184-.3q-.141-.229-.278-.459c-.06-.1-.119-.2-.178-.3-.088-.151-.173-.3-.257-.452l-.165-.3c-.084-.155-.165-.309-.245-.463-.048-.092-.1-.184-.144-.275-.089-.176-.174-.35-.258-.524-.032-.067-.067-.134-.1-.2-.107-.226-.208-.451-.306-.673-.026-.059-.05-.117-.075-.176-.073-.171-.144-.342-.211-.511-.026-.064-.052-.129-.077-.194q-.118-.3-.225-.6l-.018-.051c-.035-.1-.064-.2-.1-.293-.047-.141-.1-.284-.138-.424-.031-.1-.056-.2-.085-.3-.037-.132-.077-.266-.11-.4-.054-.21-.1-.418-.144-.622-.012-.059-.022-.116-.033-.174-.029-.15-.056-.3-.079-.444-.009-.058-.016-.115-.025-.172-.02-.145-.037-.287-.051-.428-.005-.051-.011-.1-.015-.154-.015-.18-.026-.358-.031-.532,0-.033,0-.065,0-.1,0-.151,0-.3.005-.446,0-.036,0-.072,0-.108.009-.166.023-.328.043-.486,0-.029.008-.058.012-.087q.03-.219.075-.429c0-.02.007-.041.012-.061.033-.15.074-.3.118-.438l.03-.091c.047-.141.1-.279.158-.412.007-.016.015-.031.022-.047a4.033,4.033,0,0,1,.185-.359c.012-.022.024-.045.037-.066a4.2,4.2,0,0,1,.256-.384l-4.036,4.193c-.023.03-.045.06-.067.091-.068.094-.13.192-.189.292l-.038.067c-.029.052-.06.1-.088.156s-.065.135-.1.2c-.007.016-.015.031-.023.047-.044.1-.085.2-.123.307-.012.034-.023.07-.034.1l-.03.091c-.042.133-.081.268-.113.408l-.005.03c-.005.02-.008.041-.013.061-.029.14-.054.283-.074.429,0,.029-.009.057-.013.086s-.005.036-.007.054c-.017.141-.027.286-.035.432,0,.037,0,.073-.005.109,0,.061-.006.121-.007.182,0,.087,0,.176,0,.264,0,.033,0,.065,0,.1,0,.15.011.3.023.457,0,.025.005.05.008.075,0,.05.01.1.015.154.014.14.031.283.051.427.008.058.016.115.025.173.006.037.01.073.016.11.018.11.041.222.063.334.011.058.021.115.033.173q.062.3.139.607l.005.016c.033.131.073.264.11.4.028.1.054.2.084.3.043.14.092.282.139.424.031.094.058.187.092.282l0,.011.018.051c.07.2.146.4.225.6.025.065.051.131.077.2.068.169.138.338.211.509.025.059.049.118.075.177.093.211.188.424.289.639l.017.034c.031.066.066.134.1.2.084.174.169.348.258.524.047.091.1.183.144.275.08.154.161.307.245.462.054.1.11.2.165.3.084.15.169.3.257.451.058.1.118.2.179.306q.135.228.276.457c.061.1.122.2.185.3.1.162.207.324.312.487.06.091.118.182.179.274.128.194.26.388.394.583.041.06.081.121.124.181q.255.367.523.737l.017.023c.239.327.487.656.741.984.069.091.142.181.213.271q.291.374.6.746c.047.058.092.117.14.175s.094.111.141.167q.129.156.263.312.2.232.4.463c.091.1.181.208.273.312.051.057.1.115.151.172s.094.1.139.151q.418.465.853.925c.039.042.075.083.114.124l.043.044q.459.481.938.958l.067.068c.063.063.13.125.194.188q.339.333.685.662l.156.15q.219.207.442.411.3.274.6.542l.1.084q.441.392.883.768l.054.047.007.006q.471.4.944.777c.027.022.053.045.08.066.068.055.136.106.2.16q.342.27.683.533c.053.04.106.084.16.124s.108.079.162.12c.241.181.481.357.721.531.063.045.127.1.19.14l.073.05q.5.355.994.688l.047.033.136.088q.444.294.885.571c.051.032.1.068.154.1l.115.068c.374.231.747.454,1.116.666l.047.027c.152.087.3.169.454.252.082.045.165.093.248.137q.379.205.755.4h0q.428.217.848.413c.09.043.178.081.268.122.19.087.38.173.568.254.036.015.073.033.109.049.074.031.146.058.22.088.154.064.308.127.461.187.112.044.223.086.334.128q.225.084.447.162c.11.038.219.076.328.112.147.049.293.1.438.139.1.033.211.066.315.1.147.042.292.081.436.119.1.026.2.053.3.077.151.037.3.068.449.1.086.018.174.039.26.056.176.034.349.062.521.089l.166.027c.225.032.445.057.662.075.056,0,.109.006.165.01.159.011.316.02.47.024.077,0,.152,0,.228,0,.128,0,.256,0,.381-.007.081,0,.159-.011.239-.017.115-.009.229-.019.341-.033.08-.01.158-.022.236-.035q.16-.025.315-.057c.077-.017.152-.034.226-.053.1-.025.2-.053.295-.084.071-.022.142-.044.211-.069.1-.035.187-.072.278-.112.065-.027.131-.055.194-.085.091-.045.179-.094.266-.144.056-.032.114-.062.169-.1.092-.059.18-.124.267-.189.043-.032.089-.062.131-.1a3.993,3.993,0,0,0,.359-.33l4.036-4.192a3.836,3.836,0,0,1-.359.329C962.49,168.346,962.445,168.376,962.4,168.408Z" fill="#69a6ce"/>
          <path id="Path_3362" data-name="Path 3362" d="M930.517,137.584c-3.132,4.132,1.642,14.208,10.665,22.505s18.878,11.674,22.01,7.541-1.642-14.208-10.667-22.507S933.65,133.451,930.517,137.584Zm20.7,8.961c8.436,7.757,12.133,16.12,10.721,19.42a2.3,2.3,0,0,1-.286.5,2.807,2.807,0,0,1-2.125.975c-3.4.3-9.989-2.289-17.038-8.771-8.433-7.755-12.13-16.118-10.718-19.418a2.3,2.3,0,0,1,.286-.5,2.808,2.808,0,0,1,2.125-.975C937.584,137.471,944.17,140.064,951.217,146.545Z" fill="#ddebf4"/>
          <path id="Path_3363" data-name="Path 3363" d="M934.182,137.776a2.808,2.808,0,0,0-2.125.975,2.3,2.3,0,0,0-.286.5,3.867,3.867,0,0,0-.277,1.263c3.5-.072,9.847,2.564,16.618,8.79,7.51,6.907,11.261,14.291,11,18.157.144,0,.284-.009.418-.021a2.807,2.807,0,0,0,2.125-.975,2.3,2.3,0,0,0,.286-.5c1.412-3.3-2.285-11.663-10.721-19.42C944.17,140.064,937.584,137.471,934.182,137.776Z" fill="#65a4cd"/>
          <path id="Path_3364" data-name="Path 3364" d="M935.148,138.906a2.6,2.6,0,0,0-1.964.9,2.123,2.123,0,0,0-.264.46c-1.3,3.048,2.111,10.774,9.9,17.938,6.512,5.989,12.6,8.385,15.739,8.1a2.6,2.6,0,0,0,1.964-.9,2.172,2.172,0,0,0,.264-.46c1.3-3.049-2.111-10.775-9.9-17.941C944.375,141.02,938.29,138.624,935.148,138.906Z" fill="#fff" opacity="0.5"/>
        </g>
        <g id="Group_14599" data-name="Group 14599">
          <path id="Path_3365" data-name="Path 3365" d="M945.461,144.041c2.081,1.49,3.493,3.083,3.154,3.556s-2.3-.351-4.382-1.841-3.494-3.083-3.154-3.556S943.38,142.551,945.461,144.041Z" fill="#fff"/>
          <path id="Path_3366" data-name="Path 3366" d="M952.079,149.4c.63.66.862,1.46.519,1.787s-1.131.058-1.761-.6-.863-1.46-.52-1.787S951.449,148.742,952.079,149.4Z" fill="#fff"/>
        </g>
      </g>
      <path id="Path_3367" data-name="Path 3367" d="M967.426,183.015s-2.308-1.863-2.607-2.7a6.721,6.721,0,0,1-.183-2,1.567,1.567,0,0,1,.642-.848l.631.649.969,1.52.833-.013a1.215,1.215,0,0,1-.094-1.127c.209-.609.909-.48.963-.169a7.633,7.633,0,0,0,.461,1.159s.15.617.225.858a2.743,2.743,0,0,1-.094.913Z" fill="#efb387"/>
      <path id="Path_3368" data-name="Path 3368" d="M977.789,194.23c-2.326,0-10.363-11.215-10.363-11.215l1.746-1.764,7.089,5.538,5.041-6.551,3.734.665,2.07,2.732S979.878,193.487,977.789,194.23Z" fill="#f2985c"/>
    </g>
  </g>
</svg>
